<?xml version="1.0" encoding="utf-8"?>
<!-- Generator: Adobe Illustrator 17.0.0, SVG Export Plug-In . SVG Version: 6.00 Build 0)  -->
<!DOCTYPE svg PUBLIC "-//W3C//DTD SVG 1.1//EN" "http://www.w3.org/Graphics/SVG/1.1/DTD/svg11.dtd">
<svg version="1.1" id="图层_1" xmlns="http://www.w3.org/2000/svg" xmlns:xlink="http://www.w3.org/1999/xlink" x="0px" y="0px"
	 width="480px" height="150px" viewBox="0 0 480 150" enable-background="new 0 0 480 150" xml:space="preserve">
<rect x="-33" y="-28" fill="#222222" width="537" height="200"/>
<g>
	<path fill="#040000" d="M67.543,122.463c2.784-31.816-2.547-33.666-2.547-33.666l2.221-65.414l101.349,8.867l-9.172,64.806
		c0,0-5.571,0.897-8.354,32.712"/>
	<rect x="73.976" y="115.458" fill="#989898" width="61.241" height="11.191"/>
	<path fill="#323333" d="M62.688,120.906c0-31.937-5.471-33.316-5.471-33.316l-3.489-65.359h101.736l-3.489,65.359
		c0,0-5.471,1.379-5.471,33.316"/>
	<polyline fill="#B6282C" points="54.137,29.893 155.055,29.893 154.825,34.21 54.368,34.21 	"/>
	<g>
		<path fill="#FFFFFF" d="M100.116,104.901c-0.504,0.414-0.881,0.666-1.349,0.989v0.072c1.241-0.018,3.886-0.144,5.001-0.162
			l0.054,0.036c0,0.702-0.054,1.476-0.126,2.141c-0.846,0-4.534-0.018-5.865-0.018c-1.025,0-1.853,0-2.285,0
			c-0.18-0.485-0.36-1.062-0.486-1.565c1.223-0.899,1.907-1.438,2.681-2.158c1.493-1.35,2.788-2.663,2.788-4.246
			c0-0.611-0.144-1.008-0.414-1.385c-0.234-0.307-0.647-0.504-1.098-0.504c-0.54,0-0.953,0.144-1.205,0.306
			c-0.054,0.054-0.072,0.09-0.09,0.18l-0.414,1.799c-0.629,0-1.277-0.161-1.853-0.197c0.054-1.08,0.126-2.159,0.198-3.221
			c0.845-0.359,2.303-0.611,3.508-0.611c1.655,0,2.645,0.323,3.382,0.972c0.72,0.611,1.115,1.547,1.115,2.482
			C103.66,102.131,101.394,103.912,100.116,104.901z"/>
		<path fill="#FFFFFF" d="M113.645,106.539c0,0.468,0,0.936-0.019,1.421c-0.737,0-1.799,0-2.68,0c-0.846,0-1.835,0.018-2.807,0.018
			c0-0.468,0-0.971,0.018-1.421l1.601-0.054c0.036,0,0.072-0.054,0.072-0.09c0-0.468,0-0.918,0-1.35c-0.522,0-3.778,0.019-4.3,0.019
			c-0.27-0.594-0.504-1.26-0.702-1.871c0.684-1.008,1.439-2.051,2.339-3.257c1.223-1.619,2.051-2.698,2.752-3.544
			c0.917,0,1.871,0.036,2.735,0.09c0,1.89-0.055,4.534-0.055,6.729c0.558,0,1.439,0,1.799-0.018
			c-0.018,0.558-0.035,1.187-0.071,1.745c-0.288,0-1.422,0-1.728,0c0,0.485,0,1.061-0.018,1.547L113.645,106.539z M109.759,99.253
			c-0.503,0.665-0.773,1.115-1.349,1.961c-0.486,0.737-0.738,1.098-1.224,1.889c-0.036,0.054-0.018,0.126,0.036,0.126
			c0.792,0.018,2.105,0.018,2.609,0.018l0.018-3.993H109.759z"/>
	</g>
	<path fill="#B6282C" d="M72.063,114.368c0,1.519-1.232,2.751-2.751,2.751l0,0c-1.519,0-2.751-1.232-2.751-2.751l0,0
		c0-1.519,1.232-2.751,2.751-2.751l0,0C70.831,111.617,72.063,112.848,72.063,114.368L72.063,114.368z"/>
	<polyline fill="#191919" points="54.767,41.692 154.426,41.692 153.141,65.759 56.052,65.759 	"/>
</g>
<g>
	<g>
		<path d="M195.845,114.66c0.093,0,0.155-0.062,0.155-0.124V99.882l-1.805-0.062c0-0.902,0.031-1.836,0.062-2.676
			c1.151,0,2.769,0,4.076,0c0.964,0,6.533,0,7.28,0c1.307,0,2.396-0.031,3.08-0.031c0.124,1.835,0.249,3.702,0.311,5.538
			c-0.902,0.124-1.991,0.248-3.049,0.342l-0.498-2.396c-0.062-0.28-0.187-0.467-0.622-0.529c-0.436-0.062-1.338-0.187-3.267-0.187
			c-0.094,0-0.218,0-0.312,0l-0.031,5.911c0.965,0,1.867-0.031,2.738-0.062c0.187-0.031,0.343-0.249,0.404-0.592l0.187-1.182
			c0.996,0,2.022,0.03,2.925,0.062c0,0.965-0.031,2.116-0.031,3.236s-0.031,2.24-0.031,3.049c-0.901,0.062-1.929,0.094-2.924,0.094
			l-0.156-1.245c-0.03-0.467-0.187-0.653-0.466-0.653c-0.872-0.031-1.743-0.062-2.646-0.062l-0.03,5.507
			c0,0.592,0.218,0.685,1.617,0.685c1.276,0,2.054-0.093,2.489-0.187c0.312-0.093,0.467-0.249,0.591-0.591l0.902-2.489
			c1.059,0.155,2.147,0.373,3.05,0.561c-0.343,1.804-0.747,3.64-1.151,5.476c-1.556,0-5.881-0.031-10.205-0.031
			c-1.432,0-3.019,0.031-4.263,0.031c0-0.871,0-1.805,0.031-2.645L195.845,114.66z"/>
		<path d="M212.271,99.789c0-0.871,0-1.773,0.031-2.645c1.151,0,2.77,0,4.107,0c0.964,0,6.564,0,7.249,0
			c1.307-0.031,2.396-0.031,3.08-0.031c0.187,1.929,0.311,3.857,0.436,5.786c-0.934,0.156-1.991,0.28-3.049,0.374l-0.623-2.645
			c-0.062-0.312-0.155-0.467-0.622-0.561c-0.436-0.062-1.431-0.218-3.298-0.218c-0.093,0-0.187,0.031-0.249,0.031l-0.031,6.721
			c1.027,0,1.961-0.031,2.925-0.031c0.561-0.031,0.622-0.218,0.685-0.592l0.187-1.275c0.996-0.031,1.991,0,2.956,0.062
			c-0.031,1.058-0.062,2.209-0.062,3.329c-0.031,1.151-0.031,2.271-0.031,3.204c-0.933,0.031-1.897,0.062-2.924,0.062l-0.125-1.431
			c-0.062-0.436-0.249-0.592-0.746-0.592c-0.934-0.062-1.867-0.093-2.863-0.093l-0.03,5.382l3.329,0.094c0,0.84,0,1.773-0.031,2.676
			c-1.681,0-3.982-0.031-5.974-0.031c-1.432,0-3.019,0.031-4.294,0.031c0-0.871,0-1.805,0.031-2.645l1.587-0.062
			c0.093-0.031,0.155-0.062,0.155-0.124l-0.031-14.686L212.271,99.789z"/>
		<path d="M244.781,112.078c-0.871,0.716-1.524,1.151-2.334,1.711v0.125c2.147-0.031,6.721-0.249,8.649-0.28l0.094,0.062
			c0,1.213-0.094,2.551-0.218,3.702c-1.463,0-7.841-0.031-10.143-0.031c-1.773,0-3.205,0-3.951,0
			c-0.312-0.84-0.623-1.836-0.841-2.707c2.116-1.556,3.298-2.489,4.636-3.733c2.583-2.333,4.823-4.604,4.823-7.343
			c0-1.058-0.249-1.742-0.716-2.396c-0.404-0.528-1.12-0.871-1.898-0.871c-0.933,0-1.648,0.249-2.084,0.529
			c-0.094,0.093-0.125,0.155-0.155,0.312l-0.716,3.11c-1.089,0-2.209-0.28-3.205-0.342c0.094-1.867,0.218-3.733,0.343-5.569
			c1.462-0.622,3.982-1.058,6.066-1.058c2.862,0,4.574,0.56,5.85,1.68c1.244,1.059,1.929,2.676,1.929,4.294
			C250.91,107.287,246.99,110.367,244.781,112.078z"/>
		<path d="M268.176,114.909c0,0.809,0,1.618-0.031,2.458c-1.275,0-3.111,0-4.636,0c-1.462,0-3.173,0.031-4.854,0.031
			c0-0.809,0-1.681,0.031-2.458l2.77-0.094c0.062,0,0.124-0.093,0.124-0.155c0-0.809,0-1.587,0-2.333
			c-0.902,0-6.533,0.03-7.436,0.03c-0.467-1.026-0.871-2.178-1.214-3.235c1.183-1.742,2.489-3.547,4.045-5.631
			c2.115-2.801,3.547-4.667,4.76-6.129c1.587,0,3.236,0.062,4.729,0.155c0,3.267-0.094,7.84-0.094,11.636
			c0.965,0,2.489,0,3.111-0.031c-0.031,0.965-0.062,2.054-0.124,3.018c-0.498,0-2.458,0-2.987,0c0,0.841,0,1.836-0.03,2.676
			L268.176,114.909z M261.456,102.309c-0.871,1.151-1.338,1.929-2.334,3.392c-0.84,1.275-1.275,1.897-2.115,3.267
			c-0.062,0.094-0.031,0.218,0.062,0.218c1.369,0.031,3.641,0.031,4.512,0.031l0.031-6.907H261.456z"/>
		<path d="M270.85,106.82c0-0.81,0.031-1.742,0.031-2.521c1.432-0.187,6.129-0.902,6.316-0.902c0.031,0,0.062,0.031,0.062,0.062
			c0.125,0.591,0.188,1.183,0.28,1.773l0.125,0.031c2.862-1.681,3.391-1.898,4.666-1.898c1.649,0,2.894,1.618,3.174,2.022h0.155
			c3.08-1.773,3.641-1.96,4.823-1.96c1.338,0,2.427,0.747,3.235,1.773c0.529,0.685,0.934,1.805,0.934,2.769
			c0,2.209-0.062,4.729-0.094,6.721l1.618,0.062c0,0.84-0.031,1.773-0.062,2.613c-1.089,0-2.645,0-3.827,0
			c-1.307,0-2.737,0.031-3.826,0.031c0-0.84,0-1.805,0-2.613l1.089-0.094c0.062,0,0.124-0.062,0.124-0.124c0-1.618,0-3.796,0-5.352
			c0-0.561-0.031-1.058-0.218-1.493c-0.249-0.498-0.653-0.685-1.213-0.685c-0.622,0-1.556,0.373-2.178,0.746
			c0,1.991-0.031,4.979-0.062,6.907l1.244,0.062c0,0.84,0,1.773-0.031,2.613c-1.089,0-2.613,0-3.889,0
			c-1.151,0-2.427,0.031-3.329,0.031c0-0.871,0.031-1.805,0.031-2.613l1.12-0.094c0.093-0.031,0.124-0.093,0.124-0.155
			c0-1.556,0-3.765,0-5.601c0-0.529-0.031-1.026-0.218-1.4c-0.187-0.436-0.591-0.56-1.058-0.56c-0.622,0-1.649,0.404-2.303,0.902
			c-0.03,1.805-0.062,4.978-0.062,6.813l1.244,0.062c0,0.84,0,1.773,0,2.613c-1.183,0-2.707,0-4.014,0c-1.182,0-2.707,0-3.857,0
			c0-0.84,0-1.805,0.031-2.613l1.555-0.062c0.094,0,0.125-0.062,0.125-0.155v-7.654L270.85,106.82z"/>
		<path d="M297.636,106.82c0-0.81,0.031-1.742,0.031-2.521c1.432-0.187,6.13-0.902,6.316-0.902c0.031,0,0.062,0.031,0.062,0.062
			c0.125,0.591,0.188,1.183,0.28,1.773l0.125,0.031c2.862-1.681,3.391-1.898,4.666-1.898c1.649,0,2.894,1.618,3.174,2.022h0.155
			c3.08-1.773,3.641-1.96,4.823-1.96c1.338,0,2.427,0.747,3.235,1.773c0.529,0.685,0.934,1.805,0.934,2.769
			c0,2.209-0.062,4.729-0.094,6.721l1.618,0.062c0,0.84-0.031,1.773-0.062,2.613c-1.089,0-2.645,0-3.827,0
			c-1.307,0-2.737,0.031-3.826,0.031c0-0.84,0-1.805,0-2.613l1.089-0.094c0.062,0,0.124-0.062,0.124-0.124c0-1.618,0-3.796,0-5.352
			c0-0.561-0.031-1.058-0.218-1.493c-0.249-0.498-0.653-0.685-1.213-0.685c-0.622,0-1.556,0.373-2.178,0.746
			c0,1.991-0.031,4.979-0.062,6.907l1.244,0.062c0,0.84,0,1.773-0.031,2.613c-1.089,0-2.613,0-3.889,0
			c-1.151,0-2.427,0.031-3.329,0.031c0-0.871,0.031-1.805,0.031-2.613l1.12-0.094c0.093-0.031,0.124-0.093,0.124-0.155
			c0-1.556,0-3.765,0-5.601c0-0.529-0.031-1.026-0.218-1.4c-0.187-0.436-0.591-0.56-1.058-0.56c-0.622,0-1.649,0.404-2.303,0.902
			c-0.03,1.805-0.062,4.978-0.062,6.813l1.244,0.062c0,0.84,0,1.773,0,2.613c-1.183,0-2.707,0-4.014,0c-1.182,0-2.707,0-3.857,0
			c0-0.84,0-1.805,0.03-2.613l1.556-0.062c0.094,0,0.125-0.062,0.125-0.155v-7.654L297.636,106.82z"/>
		<path d="M332.106,99.789c0-0.871,0-1.773,0.031-2.645c1.151,0,2.77,0,4.107,0c0.964,0,6.564,0,7.249,0
			c1.307-0.031,2.396-0.031,3.08-0.031c0.187,1.929,0.311,3.857,0.436,5.786c-0.934,0.156-1.991,0.28-3.049,0.374l-0.623-2.645
			c-0.062-0.312-0.155-0.467-0.622-0.561c-0.436-0.062-1.431-0.218-3.298-0.218c-0.093,0-0.187,0.031-0.249,0.031l-0.031,6.721
			c1.027,0,1.961-0.031,2.925-0.031c0.561-0.031,0.622-0.218,0.685-0.592l0.187-1.275c0.996-0.031,1.991,0,2.956,0.062
			c-0.031,1.058-0.062,2.209-0.062,3.329c-0.031,1.151-0.031,2.271-0.031,3.204c-0.933,0.031-1.897,0.062-2.924,0.062l-0.125-1.431
			c-0.062-0.436-0.249-0.592-0.746-0.592c-0.934-0.062-1.867-0.093-2.863-0.093l-0.03,5.382l3.329,0.094c0,0.84,0,1.773-0.031,2.676
			c-1.681,0-3.982-0.031-5.974-0.031c-1.432,0-3.019,0.031-4.294,0.031c0-0.871,0-1.805,0.031-2.645l1.587-0.062
			c0.093-0.031,0.155-0.062,0.155-0.124l-0.031-14.686L332.106,99.789z"/>
		<path d="M363.933,114.754c0.031,0.871,0,1.773-0.031,2.613c-2.239,0-4.854,0-6.969,0c-2.054,0-4.294,0.031-6.907,0.031
			c0-0.84,0-1.742,0.031-2.613l4.387-0.094c0.094,0,0.155-0.093,0.155-0.187c0-3.951,0-8.587,0-11.885
			c-1.493,0.187-2.924,0.404-4.791,0.653c-0.155-0.84-0.311-1.742-0.436-2.582c3.267-0.902,9.987-3.392,10.299-3.392
			c0.062,0,0.093,0.031,0.093,0.155c0,4.916-0.062,11.729-0.093,17.236L363.933,114.754z"/>
		<path d="M372.674,115.034c0,1.617-1.151,2.645-2.738,2.645c-1.307,0-2.613-1.027-2.613-2.552c0-1.369,1.027-2.613,2.738-2.613
			C371.709,112.514,372.674,113.665,372.674,115.034z"/>
		<path d="M390.251,114.909c0,0.809,0,1.618-0.031,2.458c-1.275,0-3.111,0-4.636,0c-1.462,0-3.173,0.031-4.854,0.031
			c0-0.809,0-1.681,0.031-2.458l2.77-0.094c0.062,0,0.124-0.093,0.124-0.155c0-0.809,0-1.587,0-2.333
			c-0.902,0-6.533,0.03-7.436,0.03c-0.467-1.026-0.871-2.178-1.214-3.235c1.183-1.742,2.489-3.547,4.045-5.631
			c2.115-2.801,3.547-4.667,4.76-6.129c1.587,0,3.236,0.062,4.729,0.155c0,3.267-0.094,7.84-0.094,11.636
			c0.965,0,2.489,0,3.111-0.031c-0.03,0.965-0.062,2.054-0.124,3.018c-0.498,0-2.458,0-2.987,0c0,0.841,0,1.836-0.03,2.676
			L390.251,114.909z M383.531,102.309c-0.871,1.151-1.338,1.929-2.334,3.392c-0.84,1.275-1.275,1.897-2.115,3.267
			c-0.062,0.094-0.031,0.218,0.062,0.218c1.369,0.031,3.641,0.031,4.512,0.031l0.031-6.907H383.531z"/>
		<path d="M400.672,99.789c0-0.871,0.031-1.805,0.062-2.645c1.244,0,2.955,0,4.418,0c1.399,0,3.143,0,4.636,0
			c0,0.809-0.031,1.804-0.031,2.676l-1.96,0.062c-0.062,0-0.125,0.031-0.125,0.125l-0.062,14.031c0,0.591,0,0.685,1.431,0.685
			c1.214,0,2.022-0.124,2.458-0.218c0.28-0.062,0.436-0.249,0.56-0.591l1.09-3.205c1.058,0.187,2.115,0.404,3.08,0.622
			c-0.405,2.022-0.81,4.076-1.307,6.099c-1.525-0.031-5.694-0.062-10.019-0.062c-1.432,0-2.987,0.031-4.294,0.031
			c0-0.871,0.031-1.805,0.031-2.645l1.618-0.062c0.062-0.031,0.124-0.062,0.124-0.155l0.031-14.654L400.672,99.789z"/>
	</g>
	<g>
		<g>
			<path fill="#FFFFFF" d="M190.845,111.66c0.093,0,0.155-0.062,0.155-0.124V96.882l-1.805-0.062c0-0.902,0.031-1.836,0.062-2.676
				c1.151,0,2.769,0,4.076,0c0.964,0,6.533,0,7.28,0c1.307,0,2.396-0.031,3.08-0.031c0.124,1.835,0.249,3.702,0.311,5.538
				c-0.902,0.124-1.991,0.248-3.049,0.342l-0.498-2.396c-0.062-0.28-0.187-0.467-0.622-0.529c-0.436-0.062-1.338-0.187-3.267-0.187
				c-0.094,0-0.218,0-0.312,0l-0.031,5.911c0.965,0,1.867-0.031,2.738-0.062c0.187-0.031,0.343-0.249,0.404-0.592l0.187-1.182
				c0.996,0,2.022,0.03,2.925,0.062c0,0.965-0.031,2.116-0.031,3.236s-0.031,2.24-0.031,3.049c-0.901,0.062-1.929,0.094-2.924,0.094
				l-0.156-1.245c-0.03-0.467-0.187-0.653-0.466-0.653c-0.872-0.031-1.743-0.062-2.646-0.062l-0.03,5.507
				c0,0.592,0.218,0.685,1.617,0.685c1.276,0,2.054-0.093,2.489-0.187c0.312-0.093,0.467-0.249,0.591-0.591l0.902-2.489
				c1.059,0.155,2.147,0.373,3.05,0.561c-0.343,1.804-0.747,3.64-1.151,5.476c-1.556,0-5.881-0.031-10.205-0.031
				c-1.432,0-3.019,0.031-4.263,0.031c0-0.871,0-1.805,0.031-2.645L190.845,111.66z"/>
			<path fill="#FFFFFF" d="M207.271,96.789c0-0.871,0-1.773,0.031-2.645c1.151,0,2.77,0,4.107,0c0.964,0,6.564,0,7.249,0
				c1.307-0.031,2.396-0.031,3.08-0.031c0.187,1.929,0.311,3.857,0.436,5.786c-0.934,0.156-1.991,0.28-3.049,0.374l-0.623-2.645
				c-0.062-0.312-0.155-0.467-0.622-0.561c-0.436-0.062-1.431-0.218-3.298-0.218c-0.093,0-0.187,0.031-0.249,0.031l-0.031,6.721
				c1.027,0,1.961-0.031,2.925-0.031c0.561-0.031,0.622-0.218,0.685-0.592l0.187-1.275c0.996-0.031,1.991,0,2.956,0.062
				c-0.031,1.058-0.062,2.209-0.062,3.329c-0.031,1.151-0.031,2.271-0.031,3.204c-0.933,0.031-1.897,0.062-2.924,0.062l-0.125-1.431
				c-0.062-0.436-0.249-0.592-0.746-0.592c-0.934-0.062-1.867-0.093-2.863-0.093l-0.03,5.382l3.329,0.094
				c0,0.84,0,1.773-0.031,2.676c-1.681,0-3.982-0.031-5.974-0.031c-1.432,0-3.019,0.031-4.294,0.031c0-0.871,0-1.805,0.031-2.645
				l1.587-0.062c0.093-0.031,0.155-0.062,0.155-0.124l-0.031-14.686L207.271,96.789z"/>
			<path fill="#FFFFFF" d="M239.781,109.078c-0.871,0.716-1.524,1.151-2.334,1.711v0.125c2.147-0.031,6.721-0.249,8.649-0.28
				l0.094,0.062c0,1.213-0.094,2.551-0.218,3.702c-1.463,0-7.841-0.031-10.143-0.031c-1.773,0-3.205,0-3.951,0
				c-0.312-0.84-0.623-1.836-0.841-2.707c2.116-1.556,3.298-2.489,4.636-3.733c2.583-2.333,4.823-4.604,4.823-7.343
				c0-1.058-0.249-1.742-0.716-2.396c-0.404-0.528-1.12-0.871-1.898-0.871c-0.933,0-1.648,0.249-2.084,0.529
				c-0.094,0.093-0.125,0.155-0.155,0.312l-0.716,3.11c-1.089,0-2.209-0.28-3.205-0.342c0.094-1.867,0.218-3.733,0.343-5.569
				c1.462-0.622,3.982-1.058,6.066-1.058c2.862,0,4.574,0.56,5.85,1.68c1.244,1.059,1.929,2.676,1.929,4.294
				C245.91,104.287,241.99,107.367,239.781,109.078z"/>
			<path fill="#FFFFFF" d="M263.176,111.909c0,0.809,0,1.618-0.031,2.458c-1.275,0-3.111,0-4.636,0
				c-1.462,0-3.173,0.031-4.854,0.031c0-0.809,0-1.681,0.031-2.458l2.77-0.094c0.062,0,0.124-0.093,0.124-0.155
				c0-0.809,0-1.587,0-2.333c-0.902,0-6.533,0.03-7.436,0.03c-0.467-1.026-0.871-2.178-1.214-3.235
				c1.183-1.742,2.489-3.547,4.045-5.631c2.115-2.801,3.547-4.667,4.76-6.129c1.587,0,3.236,0.062,4.729,0.155
				c0,3.267-0.094,7.84-0.094,11.636c0.965,0,2.489,0,3.111-0.031c-0.031,0.965-0.062,2.054-0.124,3.018c-0.498,0-2.458,0-2.987,0
				c0,0.841,0,1.836-0.03,2.676L263.176,111.909z M256.456,99.309c-0.871,1.151-1.338,1.929-2.334,3.392
				c-0.84,1.275-1.275,1.897-2.115,3.267c-0.062,0.094-0.031,0.218,0.062,0.218c1.369,0.031,3.641,0.031,4.512,0.031l0.031-6.907
				H256.456z"/>
			<path fill="#FFFFFF" d="M265.85,103.82c0-0.81,0.031-1.742,0.031-2.521c1.432-0.187,6.129-0.902,6.316-0.902
				c0.031,0,0.062,0.031,0.062,0.062c0.125,0.591,0.188,1.183,0.28,1.773l0.125,0.031c2.862-1.681,3.391-1.898,4.666-1.898
				c1.649,0,2.894,1.618,3.174,2.022h0.155c3.08-1.773,3.641-1.96,4.823-1.96c1.338,0,2.427,0.747,3.235,1.773
				c0.529,0.685,0.934,1.805,0.934,2.769c0,2.209-0.062,4.729-0.094,6.721l1.618,0.062c0,0.84-0.031,1.773-0.062,2.613
				c-1.089,0-2.645,0-3.827,0c-1.307,0-2.737,0.031-3.826,0.031c0-0.84,0-1.805,0-2.613l1.089-0.094
				c0.062,0,0.124-0.062,0.124-0.124c0-1.618,0-3.796,0-5.352c0-0.561-0.031-1.058-0.218-1.493
				c-0.249-0.498-0.653-0.685-1.213-0.685c-0.622,0-1.556,0.373-2.178,0.746c0,1.991-0.031,4.979-0.062,6.907l1.244,0.062
				c0,0.84,0,1.773-0.031,2.613c-1.089,0-2.613,0-3.889,0c-1.151,0-2.427,0.031-3.329,0.031c0-0.871,0.031-1.805,0.031-2.613
				l1.12-0.094c0.093-0.031,0.124-0.093,0.124-0.155c0-1.556,0-3.765,0-5.601c0-0.529-0.031-1.026-0.218-1.4
				c-0.187-0.436-0.591-0.56-1.058-0.56c-0.622,0-1.649,0.404-2.303,0.902c-0.03,1.805-0.062,4.978-0.062,6.813l1.244,0.062
				c0,0.84,0,1.773,0,2.613c-1.183,0-2.707,0-4.014,0c-1.182,0-2.707,0-3.857,0c0-0.84,0-1.805,0.031-2.613l1.555-0.062
				c0.094,0,0.125-0.062,0.125-0.155v-7.654L265.85,103.82z"/>
			<path fill="#FFFFFF" d="M292.636,103.82c0-0.81,0.031-1.742,0.031-2.521c1.432-0.187,6.13-0.902,6.316-0.902
				c0.031,0,0.062,0.031,0.062,0.062c0.125,0.591,0.188,1.183,0.28,1.773l0.125,0.031c2.862-1.681,3.391-1.898,4.666-1.898
				c1.649,0,2.894,1.618,3.174,2.022h0.155c3.08-1.773,3.641-1.96,4.823-1.96c1.338,0,2.427,0.747,3.235,1.773
				c0.529,0.685,0.934,1.805,0.934,2.769c0,2.209-0.062,4.729-0.094,6.721l1.618,0.062c0,0.84-0.031,1.773-0.062,2.613
				c-1.089,0-2.645,0-3.827,0c-1.307,0-2.737,0.031-3.826,0.031c0-0.84,0-1.805,0-2.613l1.089-0.094
				c0.062,0,0.124-0.062,0.124-0.124c0-1.618,0-3.796,0-5.352c0-0.561-0.031-1.058-0.218-1.493
				c-0.249-0.498-0.653-0.685-1.213-0.685c-0.622,0-1.556,0.373-2.178,0.746c0,1.991-0.031,4.979-0.062,6.907l1.244,0.062
				c0,0.84,0,1.773-0.031,2.613c-1.089,0-2.613,0-3.889,0c-1.151,0-2.427,0.031-3.329,0.031c0-0.871,0.031-1.805,0.031-2.613
				l1.12-0.094c0.093-0.031,0.124-0.093,0.124-0.155c0-1.556,0-3.765,0-5.601c0-0.529-0.031-1.026-0.218-1.4
				c-0.187-0.436-0.591-0.56-1.058-0.56c-0.622,0-1.649,0.404-2.303,0.902c-0.03,1.805-0.062,4.978-0.062,6.813l1.244,0.062
				c0,0.84,0,1.773,0,2.613c-1.183,0-2.707,0-4.014,0c-1.182,0-2.707,0-3.857,0c0-0.84,0-1.805,0.03-2.613l1.556-0.062
				c0.094,0,0.125-0.062,0.125-0.155v-7.654L292.636,103.82z"/>
			<path fill="#FFFFFF" d="M327.106,96.789c0-0.871,0-1.773,0.031-2.645c1.151,0,2.77,0,4.107,0c0.964,0,6.564,0,7.249,0
				c1.307-0.031,2.396-0.031,3.08-0.031c0.187,1.929,0.311,3.857,0.436,5.786c-0.934,0.156-1.991,0.28-3.049,0.374l-0.623-2.645
				c-0.062-0.312-0.155-0.467-0.622-0.561c-0.436-0.062-1.431-0.218-3.298-0.218c-0.093,0-0.187,0.031-0.249,0.031l-0.031,6.721
				c1.027,0,1.961-0.031,2.925-0.031c0.561-0.031,0.622-0.218,0.685-0.592l0.187-1.275c0.996-0.031,1.991,0,2.956,0.062
				c-0.031,1.058-0.062,2.209-0.062,3.329c-0.031,1.151-0.031,2.271-0.031,3.204c-0.933,0.031-1.897,0.062-2.924,0.062l-0.125-1.431
				c-0.062-0.436-0.249-0.592-0.746-0.592c-0.934-0.062-1.867-0.093-2.863-0.093l-0.03,5.382l3.329,0.094
				c0,0.84,0,1.773-0.031,2.676c-1.681,0-3.982-0.031-5.974-0.031c-1.432,0-3.019,0.031-4.294,0.031c0-0.871,0-1.805,0.031-2.645
				l1.587-0.062c0.093-0.031,0.155-0.062,0.155-0.124l-0.031-14.686L327.106,96.789z"/>
			<path fill="#FFFFFF" d="M358.933,111.754c0.031,0.871,0,1.773-0.031,2.613c-2.239,0-4.854,0-6.969,0
				c-2.054,0-4.294,0.031-6.907,0.031c0-0.84,0-1.742,0.031-2.613l4.387-0.094c0.094,0,0.155-0.093,0.155-0.187
				c0-3.951,0-8.587,0-11.885c-1.493,0.187-2.924,0.404-4.791,0.653c-0.155-0.84-0.311-1.742-0.436-2.582
				c3.267-0.902,9.987-3.392,10.299-3.392c0.062,0,0.093,0.031,0.093,0.155c0,4.916-0.062,11.729-0.093,17.236L358.933,111.754z"/>
			<path fill="#FFFFFF" d="M367.674,112.034c0,1.617-1.151,2.645-2.738,2.645c-1.307,0-2.613-1.027-2.613-2.552
				c0-1.369,1.027-2.613,2.738-2.613C366.709,109.514,367.674,110.665,367.674,112.034z"/>
			<path fill="#FFFFFF" d="M385.251,111.909c0,0.809,0,1.618-0.031,2.458c-1.275,0-3.111,0-4.636,0
				c-1.462,0-3.173,0.031-4.854,0.031c0-0.809,0-1.681,0.031-2.458l2.77-0.094c0.062,0,0.124-0.093,0.124-0.155
				c0-0.809,0-1.587,0-2.333c-0.902,0-6.533,0.03-7.436,0.03c-0.467-1.026-0.871-2.178-1.214-3.235
				c1.183-1.742,2.489-3.547,4.045-5.631c2.115-2.801,3.547-4.667,4.76-6.129c1.587,0,3.236,0.062,4.729,0.155
				c0,3.267-0.094,7.84-0.094,11.636c0.965,0,2.489,0,3.111-0.031c-0.03,0.965-0.062,2.054-0.124,3.018c-0.498,0-2.458,0-2.987,0
				c0,0.841,0,1.836-0.03,2.676L385.251,111.909z M378.531,99.309c-0.871,1.151-1.338,1.929-2.334,3.392
				c-0.84,1.275-1.275,1.897-2.115,3.267c-0.062,0.094-0.031,0.218,0.062,0.218c1.369,0.031,3.641,0.031,4.512,0.031l0.031-6.907
				H378.531z"/>
			<path fill="#C1272D" d="M395.672,96.789c0-0.871,0.031-1.805,0.062-2.645c1.244,0,2.955,0,4.418,0c1.399,0,3.143,0,4.636,0
				c0,0.809-0.031,1.804-0.031,2.676l-1.96,0.062c-0.062,0-0.125,0.031-0.125,0.125l-0.062,14.031c0,0.591,0,0.685,1.431,0.685
				c1.214,0,2.022-0.124,2.458-0.218c0.28-0.062,0.436-0.249,0.56-0.591l1.09-3.205c1.058,0.187,2.115,0.404,3.08,0.622
				c-0.405,2.022-0.81,4.076-1.307,6.099c-1.525-0.031-5.694-0.062-10.019-0.062c-1.432,0-2.987,0.031-4.294,0.031
				c0-0.871,0.031-1.805,0.031-2.645l1.618-0.062c0.062-0.031,0.124-0.062,0.124-0.155l0.031-14.654L395.672,96.789z"/>
		</g>
	</g>
</g>
<g>
	<g>
		<path d="M203.905,42.235c4.79-3.733,11.059-5.564,17.327-5.564c4.367,0,7.536,0.422,9.297,1.057
			c0.422,4.719,0.775,9.508,1.056,14.369c-2.324,0.352-4.86,0.704-7.396,0.986l-1.69-7.396c-0.07-0.282-0.141-0.705-0.422-0.845
			c-0.775-0.493-1.832-0.916-3.311-0.916c-2.254,0-4.719,0.916-6.691,2.958c-3.099,3.24-4.79,7.889-4.79,13.805
			c0,6.058,1.268,10.002,4.085,12.538c2.113,1.972,5.423,2.888,8.241,2.888c3.169,0,8.593-1.057,10.917-1.972
			c0.563,2.042,0.986,4.648,1.268,6.55c-4.508,1.762-11.058,3.17-14.65,3.17c-5.423,0-10.917-1.197-15.002-4.155
			c-4.438-3.24-7.959-9.297-7.959-16.693C194.186,53.011,198.693,46.32,203.905,42.235z"/>
		<path d="M255.185,80.763c-4.227,2.112-7.537,3.099-10.213,3.099c-3.733,0-9.157-3.732-9.157-8.17
			c0-3.944,4.649-10.636,15.848-10.636c1.55,0,2.677,0,3.381,0c0.212-3.522-1.057-5.564-4.226-5.564
			c-2.395,0-6.128,1.972-8.875,3.944c-1.338-1.55-2.606-3.311-3.733-5.071c5.071-4.085,10.354-6.902,17.045-6.902
			c5.423,0,10.776,4.578,10.776,10.565c0,4.649-0.07,11.27-0.141,14.298c0,0.422,0,0.563,0.352,0.563l3.733-0.211
			c0,1.832,0.07,3.944,0,5.776c-1.127,0.422-6.128,1.408-11.763,1.408c-0.704-0.634-1.62-1.761-2.677-3.099H255.185z M250.254,77.1
			c1.831,0,3.662-0.916,4.719-1.549c0.141-0.141,0.141-0.352,0.141-0.422c0-1.69,0-3.029,0-4.86c-0.422-0.07-0.985-0.07-1.479-0.07
			c-4.578,0-6.621,2.042-6.621,4.156C247.014,76.043,248.845,77.1,250.254,77.1z"/>
		<path d="M272.585,59.351c0-1.973,0.07-4.015,0.07-5.776c3.521-0.282,13.946-2.042,14.368-2.042c0.142,0,0.142,0.07,0.142,0.141
			c0.352,1.479,0.634,2.958,0.985,4.438l0.353,0.07c6.832-4.226,8.382-4.719,11.622-4.719c3.028,0,5.916,2.676,7.325,5.071
			c1.338,2.183,1.62,4.367,1.62,6.269c0,4.015-0.212,9.861-0.282,14.369l3.521,0.141c0,1.902,0,4.015-0.07,5.846
			c-2.677,0-6.128,0-9.086,0c-3.028,0-6.339,0.07-8.805,0.07c0-1.901,0-4.015,0.071-5.846l2.816-0.141
			c0.142-0.07,0.212-0.141,0.282-0.352c0.07-2.817,0-6.762,0-9.509c-0.07-3.24-0.07-4.931-0.563-5.987
			c-0.704-1.338-1.62-1.55-2.677-1.55c-1.55,0-3.944,1.127-5.635,2.465c-0.07,4.085-0.211,10.847-0.211,14.862l3.028,0.211
			c0,1.901,0,3.944-0.07,5.775c-2.465,0-5.986,0-8.805,0c-2.958,0-6.55,0.07-9.297,0.07c0-1.901,0-4.015,0.07-5.846l3.451-0.141
			c0.212-0.07,0.282-0.211,0.282-0.352V59.491L272.585,59.351z"/>
		<path d="M320.976,80.48c-3.24-2.747-5.212-6.55-5.212-11.974c0-5.564,2.465-10.565,6.691-13.664
			c3.099-2.325,7.325-3.381,11.551-3.381c3.733,0,6.902,0.845,9.649,2.535c3.593,2.325,6.339,6.762,6.339,13.031
			c0,6.198-3.381,11.481-7.536,14.158c-2.747,1.761-6.269,2.676-10.283,2.676C328.02,83.861,323.793,82.875,320.976,80.48z
			 M336.119,76.677c1.338-1.832,1.69-4.649,1.69-9.368c0-4.297-0.563-6.48-1.268-8.17c-0.775-1.479-2.043-2.184-3.311-2.184
			c-1.269,0-2.396,0.493-3.311,1.761c-1.127,1.69-1.831,4.367-1.831,8.664c0,5.212,0.634,7.607,1.619,9.086
			c0.916,1.409,1.973,1.902,3.24,1.902C334.146,78.368,335.273,78.016,336.119,76.677z"/>
		<path d="M353.66,59.351c0-1.973,0.07-4.015,0.07-5.776c3.521-0.282,13.946-2.042,14.368-2.042c0.142,0,0.142,0.07,0.142,0.141
			c0.352,1.479,0.634,2.958,0.985,4.438l0.353,0.07c6.832-4.226,8.382-4.719,11.622-4.719c3.028,0,5.916,2.676,7.325,5.071
			c1.338,2.183,1.619,4.367,1.619,6.269c0,4.015-0.211,9.861-0.281,14.369l3.521,0.141c0,1.902,0,4.015-0.07,5.846
			c-2.677,0-6.128,0-9.086,0c-3.028,0-6.339,0.07-8.805,0.07c0-1.901,0-4.015,0.07-5.846l2.818-0.141
			c0.141-0.07,0.211-0.141,0.281-0.352c0.07-2.817,0-6.762,0-9.509c-0.07-3.24-0.07-4.931-0.563-5.987
			c-0.704-1.338-1.62-1.55-2.677-1.55c-1.549,0-3.944,1.127-5.635,2.465c-0.07,4.085-0.211,10.847-0.211,14.862l3.028,0.211
			c0,1.901,0,3.944-0.07,5.775c-2.465,0-5.987,0-8.804,0c-2.959,0-6.551,0.07-9.298,0.07c0-1.901,0-4.015,0.07-5.846l3.451-0.141
			c0.212-0.07,0.282-0.211,0.282-0.352V59.491L353.66,59.351z"/>
	</g>
	<g>
		<g>
			<path fill="#FFFFFF" d="M197.905,38.235c4.79-3.733,11.059-5.564,17.327-5.564c4.367,0,7.536,0.422,9.297,1.057
				c0.422,4.719,0.775,9.508,1.056,14.369c-2.324,0.352-4.86,0.704-7.396,0.986l-1.69-7.396c-0.07-0.282-0.141-0.705-0.422-0.845
				c-0.775-0.493-1.832-0.916-3.311-0.916c-2.254,0-4.719,0.916-6.691,2.958c-3.099,3.24-4.79,7.889-4.79,13.805
				c0,6.058,1.268,10.002,4.085,12.538c2.113,1.972,5.423,2.888,8.241,2.888c3.169,0,8.593-1.057,10.917-1.972
				c0.563,2.042,0.986,4.648,1.268,6.55c-4.508,1.762-11.058,3.17-14.65,3.17c-5.423,0-10.917-1.197-15.002-4.155
				c-4.438-3.24-7.959-9.297-7.959-16.693C188.186,49.011,192.693,42.32,197.905,38.235z"/>
			<path fill="#FFFFFF" d="M249.185,76.763c-4.227,2.112-7.537,3.099-10.213,3.099c-3.733,0-9.157-3.732-9.157-8.17
				c0-3.944,4.649-10.636,15.848-10.636c1.55,0,2.677,0,3.381,0c0.212-3.522-1.057-5.564-4.226-5.564
				c-2.395,0-6.128,1.972-8.875,3.944c-1.338-1.55-2.606-3.311-3.733-5.071c5.071-4.085,10.354-6.902,17.045-6.902
				c5.423,0,10.776,4.578,10.776,10.565c0,4.649-0.07,11.27-0.141,14.298c0,0.422,0,0.563,0.352,0.563l3.733-0.211
				c0,1.832,0.07,3.944,0,5.776c-1.127,0.422-6.128,1.408-11.763,1.408c-0.704-0.634-1.62-1.761-2.677-3.099H249.185z M244.254,73.1
				c1.831,0,3.662-0.916,4.719-1.549c0.141-0.141,0.141-0.352,0.141-0.422c0-1.69,0-3.029,0-4.86c-0.422-0.07-0.985-0.07-1.479-0.07
				c-4.578,0-6.621,2.042-6.621,4.156C241.014,72.043,242.845,73.1,244.254,73.1z"/>
			<path fill="#FFFFFF" d="M266.585,55.351c0-1.973,0.07-4.015,0.07-5.776c3.521-0.282,13.946-2.042,14.368-2.042
				c0.142,0,0.142,0.07,0.142,0.141c0.352,1.479,0.634,2.958,0.985,4.438l0.353,0.07c6.832-4.226,8.382-4.719,11.622-4.719
				c3.028,0,5.916,2.676,7.325,5.071c1.338,2.183,1.62,4.367,1.62,6.269c0,4.015-0.212,9.861-0.282,14.369l3.521,0.141
				c0,1.902,0,4.015-0.07,5.846c-2.677,0-6.128,0-9.086,0c-3.028,0-6.339,0.07-8.805,0.07c0-1.901,0-4.015,0.071-5.846l2.816-0.141
				c0.142-0.07,0.212-0.141,0.282-0.352c0.07-2.817,0-6.762,0-9.509c-0.07-3.24-0.07-4.931-0.563-5.987
				c-0.704-1.338-1.62-1.55-2.677-1.55c-1.55,0-3.944,1.127-5.635,2.465c-0.07,4.085-0.211,10.847-0.211,14.862l3.028,0.211
				c0,1.901,0,3.944-0.07,5.775c-2.465,0-5.986,0-8.805,0c-2.958,0-6.55,0.07-9.297,0.07c0-1.901,0-4.015,0.07-5.846l3.451-0.141
				c0.212-0.07,0.282-0.211,0.282-0.352V55.491L266.585,55.351z"/>
			<path fill="#FFFFFF" d="M314.976,76.48c-3.24-2.747-5.212-6.55-5.212-11.974c0-5.564,2.465-10.565,6.691-13.664
				c3.099-2.325,7.325-3.381,11.551-3.381c3.733,0,6.902,0.845,9.649,2.535c3.593,2.325,6.339,6.762,6.339,13.031
				c0,6.198-3.381,11.481-7.536,14.158c-2.747,1.761-6.269,2.676-10.283,2.676C322.02,79.861,317.793,78.875,314.976,76.48z
				 M330.119,72.677c1.338-1.832,1.69-4.649,1.69-9.368c0-4.297-0.563-6.48-1.268-8.17c-0.775-1.479-2.043-2.184-3.311-2.184
				c-1.269,0-2.396,0.493-3.311,1.761c-1.127,1.69-1.831,4.367-1.831,8.664c0,5.212,0.634,7.607,1.619,9.086
				c0.916,1.409,1.973,1.902,3.24,1.902C328.146,74.368,329.273,74.016,330.119,72.677z"/>
			<path fill="#FFFFFF" d="M347.66,55.351c0-1.973,0.07-4.015,0.07-5.776c3.521-0.282,13.946-2.042,14.368-2.042
				c0.142,0,0.142,0.07,0.142,0.141c0.352,1.479,0.634,2.958,0.985,4.438l0.353,0.07c6.832-4.226,8.382-4.719,11.622-4.719
				c3.028,0,5.916,2.676,7.325,5.071c1.338,2.183,1.619,4.367,1.619,6.269c0,4.015-0.211,9.861-0.281,14.369l3.521,0.141
				c0,1.902,0,4.015-0.07,5.846c-2.677,0-6.128,0-9.086,0c-3.028,0-6.339,0.07-8.805,0.07c0-1.901,0-4.015,0.07-5.846l2.818-0.141
				c0.141-0.07,0.211-0.141,0.281-0.352c0.07-2.817,0-6.762,0-9.509c-0.07-3.24-0.07-4.931-0.563-5.987
				c-0.704-1.338-1.62-1.55-2.677-1.55c-1.549,0-3.944,1.127-5.635,2.465c-0.07,4.085-0.211,10.847-0.211,14.862l3.028,0.211
				c0,1.901,0,3.944-0.07,5.775c-2.465,0-5.987,0-8.804,0c-2.959,0-6.551,0.07-9.298,0.07c0-1.901,0-4.015,0.07-5.846l3.451-0.141
				c0.212-0.07,0.282-0.211,0.282-0.352V55.491L347.66,55.351z"/>
		</g>
	</g>
</g>
<g>
</g>
<g>
</g>
<g>
</g>
<g>
</g>
<g>
</g>
<g>
</g>
<g>
</g>
<g>
</g>
<g>
</g>
<g>
</g>
<g>
</g>
<g>
</g>
<g>
</g>
<g>
</g>
<g>
</g>
</svg>
