<?xml version="1.0" encoding="utf-8"?>
<!-- Generator: Adobe Illustrator 17.0.0, SVG Export Plug-In . SVG Version: 6.00 Build 0)  -->
<!DOCTYPE svg PUBLIC "-//W3C//DTD SVG 1.1//EN" "http://www.w3.org/Graphics/SVG/1.1/DTD/svg11.dtd">
<svg version="1.1" id="图层_1" xmlns="http://www.w3.org/2000/svg" xmlns:xlink="http://www.w3.org/1999/xlink" x="0px" y="0px"
	 width="480px" height="150px" viewBox="0 0 480 150" enable-background="new 0 0 480 150" xml:space="preserve">
<rect x="-8" y="-12" fill="#0DB200" width="498" height="170"/>
<g>
	<g opacity="0.1">
		<path d="M102.729,78.202c0,32.11,26.03,58.14,58.14,58.14s58.14-26.03,58.14-58.14s-26.03-58.14-58.14-58.14
			S102.729,46.092,102.729,78.202z M175.94,53.536c13.07,18.267,30.3,7.373,36.476,1.304c0.614,1.352,1.178,2.732,1.686,4.138
			c17.02,54.882-45.219,77.318-68.603,43.758c-12.937-18.081-29.943-7.671-36.339-1.545c-0.615-1.38-1.159-2.797-1.665-4.232
			C90.75,42.388,152.654,20.116,175.94,53.536z"/>
		<path d="M169,100c0,2.209-1.791,4-4,4h-8c-2.209,0-4-1.791-4-4V56c0-2.209,1.791-4,4-4h8c2.209,0,4,1.791,4,4V100z"/>
		<path d="M187,82c0,2.209-1.791,4-4,4h-44c-2.209,0-4-1.791-4-4v-8c0-2.209,1.791-4,4-4h44c2.209,0,4,1.791,4,4V82z"/>
		<path d="M250.557,69.208c-2.849-0.259-5.871-0.518-8.635-0.95c0.173-4.577,0.346-9.326,0.691-13.816
			c4.145-1.641,10.448-2.763,17.097-2.763c6.477,0,11.226,0.777,14.853,3.195c2.936,1.986,5.612,5.44,5.612,9.671
			c0,6.476-4.835,10.88-11.743,12.779v0.518c8.894,1.642,13.039,7.427,13.039,13.039c0,6.218-3.281,9.931-7.254,12.866
			c-3.886,2.937-11.053,4.49-20.119,4.49c-3.281,0-8.203-0.173-11.744-0.949c-0.69-5.009-1.295-10.017-1.812-14.938
			c2.763-0.519,5.958-1.036,8.979-1.469l1.986,8.117c0.087,0.432,0.346,0.604,0.604,0.777c0.863,0.432,2.504,0.777,3.713,0.777
			c3.454,0,6.045-0.777,7.686-2.245c1.727-1.555,2.504-3.713,2.504-6.045c0-5.872-5.008-8.808-11.916-8.808
			c-0.777,0-4.317,0-4.836,0c-0.173-2.591-0.259-5.527-0.259-8.031c13.039-0.086,16.492-3.886,16.492-9.326
			c0-1.554-0.432-3.368-1.641-4.577c-1.641-1.813-3.713-2.072-6.217-2.072c-1.899,0-3.713,0.432-4.836,1.295
			c-0.259,0.173-0.345,0.346-0.432,0.691L250.557,69.208z"/>
		<path d="M304.092,75.598c1.727-0.95,6.39-2.85,10.707-2.85c5.354,0,8.98,1.986,11.053,3.972c2.85,2.764,5.008,7.513,5.008,11.226
			c0,6.649-1.899,10.967-6.735,15.629c-3.281,3.195-9.066,4.663-14.074,4.663c-5.182,0-9.931-1.295-13.039-3.972
			c-4.145-3.368-8.117-8.722-8.117-19.256c0-12.694,3.973-20.465,7.686-24.87c4.835-5.699,11.57-8.462,20.119-8.462
			c3.281,0,5.613,0.172,8.376,0.863c0.604,4.49,1.209,9.067,1.641,13.557c-2.591,0.604-5.612,1.123-8.462,1.554l-1.813-6.649
			c-0.087-0.432-0.259-0.777-0.519-0.864c-0.518-0.345-1.641-0.604-2.85-0.604c-2.331,0-4.662,1.208-6.131,3.626
			c-2.331,3.886-3.108,9.153-3.281,12.435H304.092z M315.058,99.172c1.468-2.245,1.555-5.009,1.555-8.03
			c0-3.195-1.123-6.649-2.591-8.376c-0.95-1.123-2.245-1.641-3.713-1.641c-2.245,0-5.268,1.295-6.39,3.194
			c-0.26,7.513,1.036,11.917,2.158,13.989c1.123,1.985,2.591,3.281,4.749,3.281C312.295,101.59,314.021,100.812,315.058,99.172z"/>
		<path d="M370.75,103.575c-3.541,3.281-8.031,4.663-13.471,4.663c-4.922,0-9.066-1.554-12.003-4.145
			c-4.49-3.972-8.03-9.412-8.03-21.674c0-13.125,3.54-20.638,8.462-25.387c3.973-3.799,8.636-5.354,13.902-5.354
			c5.958,0,9.931,1.986,12.78,5.008c3.367,3.54,6.994,10.275,6.994,23.056C379.385,91.4,375.672,98.826,370.75,103.575z
			 M354.948,60.832c-1.555,2.245-2.678,11.657-2.678,20.552c0,8.635,0.95,15.284,2.073,17.356c1.036,1.899,2.245,2.763,3.886,2.763
			c1.554,0,2.677-0.518,3.799-2.245c1.555-2.331,2.331-8.462,2.331-17.528c0-10.19-0.776-18.221-2.072-20.379
			c-0.949-1.813-1.899-2.85-3.713-2.85C356.934,58.5,356.07,59.105,354.948,60.832z"/>
	</g>
	<g>
		<g>
			<g>
				<path fill="#FFFFFF" d="M101.729,75.202c0,32.11,26.03,58.14,58.14,58.14s58.14-26.03,58.14-58.14s-26.03-58.14-58.14-58.14
					S101.729,43.092,101.729,75.202z M174.94,50.536c13.07,18.267,30.3,7.373,36.476,1.304c0.614,1.352,1.178,2.732,1.686,4.138
					c17.02,54.882-45.219,77.318-68.603,43.758c-12.937-18.081-29.943-7.671-36.339-1.545c-0.615-1.38-1.159-2.797-1.665-4.232
					C89.75,39.388,151.654,17.116,174.94,50.536z"/>
				<g>
					<g>
						<path fill="#FFFFFF" d="M168,97c0,2.209-1.791,4-4,4h-8c-2.209,0-4-1.791-4-4V53c0-2.209,1.791-4,4-4h8c2.209,0,4,1.791,4,4
							V97z"/>
					</g>
					<g>
						<path fill="#FFFFFF" d="M186,79c0,2.209-1.791,4-4,4h-44c-2.209,0-4-1.791-4-4v-8c0-2.209,1.791-4,4-4h44c2.209,0,4,1.791,4,4
							V79z"/>
					</g>
				</g>
			</g>
			<g>
				<path fill="#FFFFFF" d="M249.557,66.208c-2.849-0.259-5.871-0.518-8.635-0.95c0.173-4.577,0.346-9.326,0.691-13.816
					c4.145-1.641,10.448-2.763,17.097-2.763c6.477,0,11.226,0.777,14.853,3.195c2.936,1.986,5.612,5.44,5.612,9.671
					c0,6.476-4.835,10.88-11.743,12.779v0.518c8.894,1.642,13.039,7.427,13.039,13.039c0,6.218-3.281,9.931-7.254,12.866
					c-3.886,2.937-11.053,4.49-20.119,4.49c-3.281,0-8.203-0.173-11.744-0.949c-0.69-5.009-1.295-10.017-1.812-14.938
					c2.763-0.519,5.958-1.036,8.979-1.469l1.986,8.117c0.087,0.432,0.346,0.604,0.604,0.777c0.863,0.432,2.504,0.777,3.713,0.777
					c3.454,0,6.045-0.777,7.686-2.245c1.727-1.555,2.504-3.713,2.504-6.045c0-5.872-5.008-8.808-11.916-8.808
					c-0.777,0-4.317,0-4.836,0c-0.173-2.591-0.259-5.527-0.259-8.031c13.039-0.086,16.492-3.886,16.492-9.326
					c0-1.554-0.432-3.368-1.641-4.577c-1.641-1.813-3.713-2.072-6.217-2.072c-1.899,0-3.713,0.432-4.836,1.295
					c-0.259,0.173-0.345,0.346-0.432,0.691L249.557,66.208z"/>
				<path fill="#FFFFFF" d="M303.092,72.598c1.727-0.95,6.39-2.85,10.707-2.85c5.354,0,8.98,1.986,11.053,3.972
					c2.85,2.764,5.008,7.513,5.008,11.226c0,6.649-1.899,10.967-6.735,15.629c-3.281,3.195-9.066,4.663-14.074,4.663
					c-5.182,0-9.931-1.295-13.039-3.972c-4.145-3.368-8.117-8.722-8.117-19.256c0-12.694,3.973-20.465,7.686-24.87
					c4.835-5.699,11.57-8.462,20.119-8.462c3.281,0,5.613,0.172,8.376,0.863c0.604,4.49,1.209,9.067,1.641,13.557
					c-2.591,0.604-5.612,1.123-8.462,1.554l-1.813-6.649c-0.087-0.432-0.259-0.777-0.519-0.864c-0.518-0.345-1.641-0.604-2.85-0.604
					c-2.331,0-4.662,1.208-6.131,3.626c-2.331,3.886-3.108,9.153-3.281,12.435H303.092z M314.058,96.172
					c1.468-2.245,1.555-5.009,1.555-8.03c0-3.195-1.123-6.649-2.591-8.376c-0.95-1.123-2.245-1.641-3.713-1.641
					c-2.245,0-5.268,1.295-6.39,3.194c-0.26,7.513,1.036,11.917,2.158,13.989c1.123,1.985,2.591,3.281,4.749,3.281
					C311.295,98.59,313.021,97.812,314.058,96.172z"/>
				<path fill="#FFFFFF" d="M369.75,100.575c-3.541,3.281-8.031,4.663-13.471,4.663c-4.922,0-9.066-1.554-12.003-4.145
					c-4.49-3.972-8.03-9.412-8.03-21.674c0-13.125,3.54-20.638,8.462-25.387c3.973-3.799,8.636-5.354,13.902-5.354
					c5.958,0,9.931,1.986,12.78,5.008c3.367,3.54,6.994,10.275,6.994,23.056C378.385,88.4,374.672,95.826,369.75,100.575z
					 M353.948,57.832c-1.555,2.245-2.678,11.657-2.678,20.552c0,8.635,0.95,15.284,2.073,17.356
					c1.036,1.899,2.245,2.763,3.886,2.763c1.554,0,2.677-0.518,3.799-2.245c1.555-2.331,2.331-8.462,2.331-17.528
					c0-10.19-0.776-18.221-2.072-20.379c-0.949-1.813-1.899-2.85-3.713-2.85C355.934,55.5,355.07,56.105,353.948,57.832z"/>
			</g>
		</g>
	</g>
</g>
<g>
</g>
<g>
</g>
<g>
</g>
<g>
</g>
<g>
</g>
<g>
</g>
<g>
</g>
<g>
</g>
<g>
</g>
<g>
</g>
<g>
</g>
<g>
</g>
<g>
</g>
<g>
</g>
<g>
</g>
</svg>
