<?xml version="1.0" encoding="utf-8"?>
<!-- Generator: Adobe Illustrator 17.0.0, SVG Export Plug-In . SVG Version: 6.00 Build 0)  -->
<!DOCTYPE svg PUBLIC "-//W3C//DTD SVG 1.1//EN" "http://www.w3.org/Graphics/SVG/1.1/DTD/svg11.dtd">
<svg version="1.1" id="图层_1" xmlns="http://www.w3.org/2000/svg" xmlns:xlink="http://www.w3.org/1999/xlink" x="0px" y="0px"
	 width="480px" height="150px" viewBox="0 2.967 480 150" enable-background="new 0 2.967 480 150" xml:space="preserve">
<rect x="-27.184" y="-21.805" fill="#FFE5BB" width="523.358" height="192.015"/>
<g>
	<polygon fill="#F2AC7C" points="-215.706,103.638 -257.194,119.499 -215.706,135.36 -198.663,120.951 	"/>
	<polygon fill="#111111" points="-246.084,115.251 -257.194,119.499 -247.391,123.246 	"/>
	<path fill="#040000" d="M453.38,119.501c0-15.351-5.41-15.861-5.41-15.861h-72.809v31.721h72.809
		C447.97,135.362,453.38,134.852,453.38,119.501z"/>
	<polygon fill="#0A1E00" points="447.364,103.638 -215.706,103.638 -218.425,106.023 -215.28,111.811 -214.754,127.187 
		-218.154,132.252 -215.706,135.36 447.364,135.36 	"/>
	<polygon fill="#0A1E00" points="278.495,127.189 279.19,127.883 278.495,127.189 	"/>
	<polygon fill="#0D2D00" points="278.495,127.189 278.495,127.189 277.338,126.032 	"/>
	<polygon fill="#0D2D00" points="447.364,111.811 -215.28,111.811 -220.03,119.499 -214.754,127.187 -204.996,127.187 
		447.364,127.187 	"/>
	<g>
		<g>
			<path fill="#FFFFFF" d="M398.061,123.315c0,0.406,0,0.813-0.016,1.236c-0.643,0-1.565,0-2.333,0
				c-0.735,0-1.597,0.016-2.442,0.016c0-0.407,0-0.846,0.016-1.236l1.394-0.048c0.031,0,0.062-0.047,0.062-0.078
				c0-0.406,0-0.798,0-1.174c-0.454,0-3.287,0.016-3.741,0.016c-0.235-0.517-0.438-1.096-0.611-1.628
				c0.596-0.877,1.253-1.785,2.035-2.834c1.065-1.409,1.785-2.349,2.396-3.084c0.799,0,1.629,0.031,2.38,0.078
				c0,1.644-0.047,3.945-0.047,5.855c0.485,0,1.252,0,1.565-0.016c-0.016,0.485-0.031,1.033-0.062,1.519c-0.251,0-1.237,0-1.503,0
				c0,0.423,0,0.924-0.016,1.346L398.061,123.315z M394.679,116.975c-0.438,0.579-0.673,0.971-1.174,1.706
				c-0.423,0.643-0.643,0.955-1.064,1.645c-0.032,0.047-0.017,0.109,0.031,0.109c0.688,0.016,1.831,0.016,2.27,0.016l0.016-3.476
				H394.679z"/>
			<path fill="#FFFFFF" d="M399.755,123.268l0.829-0.047c0.031,0,0.062-0.031,0.062-0.078l0.016-7.39l-0.924-0.047
				c0-0.406,0.017-0.876,0.032-1.299c0.782-0.016,2.332-0.047,3.225-0.047c1.519,0,2.646,0,3.554,0.406
				c0.704,0.329,1.331,1.144,1.331,1.941c0,1.064-0.814,1.895-1.816,2.271v0.125c1.315,0.22,2.364,1.222,2.364,2.536
				c0,1.644-1.612,2.928-4.306,2.928c-0.501,0-1.879-0.016-2.191-0.016c-0.532,0-1.581,0-2.192,0
				C399.738,124.145,399.738,123.675,399.755,123.268z M403.214,122.908c0,0.344,0.329,0.423,0.689,0.423
				c1.002,0,1.769-0.549,1.769-1.598c0-0.876-0.751-1.722-2.02-1.722c-0.156,0-0.375,0-0.407,0.016L403.214,122.908z
				 M403.245,118.743c0.048,0.016,0.282,0.016,0.392,0.016c0.986,0,1.691-0.626,1.691-1.597c0-0.829-0.643-1.581-1.534-1.581
				c-0.267,0-0.423,0.016-0.533,0.047L403.245,118.743z"/>
		</g>
		<path fill="#FFFFFF" d="M385.375,122.203c-0.314,0.015-0.706,0.015-1.05,0c0.046-0.706,0.077-1.427,0.109-2.117
			c-0.581,0.424-1.145,0.847-1.709,1.286c-0.204-0.251-0.406-0.581-0.581-0.862c0.643-0.409,1.303-0.831,1.946-1.224
			c-0.643-0.406-1.303-0.815-1.946-1.222c0.19-0.298,0.393-0.597,0.597-0.848c0.564,0.409,1.129,0.831,1.677,1.27
			c-0.03-0.706-0.063-1.426-0.093-2.116c0.188,0,0.36-0.016,0.548-0.016c0.172,0,0.36,0.016,0.518,0.016
			c-0.033,0.705-0.063,1.41-0.095,2.132c0.564-0.439,1.129-0.878,1.693-1.302c0.204,0.266,0.409,0.579,0.581,0.863
			c-0.627,0.406-1.27,0.815-1.914,1.238c0.643,0.408,1.287,0.815,1.914,1.223c-0.172,0.266-0.376,0.579-0.595,0.863
			c-0.55-0.439-1.099-0.878-1.663-1.287C385.345,120.791,385.359,121.497,385.375,122.203z"/>
		<path fill="#FFFFFF" d="M415.115,122.203c-0.314,0.015-0.706,0.015-1.05,0c0.046-0.706,0.077-1.427,0.109-2.117
			c-0.581,0.424-1.145,0.847-1.709,1.286c-0.204-0.251-0.406-0.581-0.581-0.862c0.643-0.409,1.303-0.831,1.946-1.224
			c-0.643-0.406-1.303-0.815-1.946-1.222c0.19-0.298,0.393-0.597,0.597-0.848c0.564,0.409,1.129,0.831,1.677,1.27
			c-0.03-0.706-0.063-1.426-0.093-2.116c0.188,0,0.36-0.016,0.548-0.016c0.172,0,0.36,0.016,0.518,0.016
			c-0.033,0.705-0.063,1.41-0.095,2.132c0.564-0.439,1.129-0.878,1.693-1.302c0.204,0.266,0.409,0.579,0.581,0.863
			c-0.627,0.406-1.27,0.815-1.914,1.238c0.643,0.408,1.287,0.815,1.914,1.223c-0.172,0.266-0.376,0.579-0.595,0.863
			c-0.55-0.439-1.099-0.878-1.663-1.287C415.084,120.791,415.098,121.497,415.115,122.203z"/>
	</g>
	<g>
		<path fill="#FFCE00" d="M179.674,117.115c0-1.326,0.991-2.828,2.301-3.435c0.224,0.239,0.463,0.543,0.655,0.814
			c-0.942,0.687-1.166,1.214-1.166,1.693c0,0.607,0.543,0.783,0.926,0.895c0.128,0.927-0.479,1.646-1.262,1.646
			C180.33,118.729,179.674,117.93,179.674,117.115z M183.141,117.115c0-1.326,0.975-2.828,2.301-3.435
			c0.239,0.255,0.447,0.543,0.639,0.814c-0.926,0.687-1.15,1.214-1.15,1.693c0,0.623,0.559,0.783,0.911,0.895
			c0.112,0.942-0.463,1.646-1.262,1.646C183.796,118.729,183.141,117.93,183.141,117.115z"/>
		<path fill="#FFCE00" d="M187.439,115.832c0-0.492,0.017-1.053,0.017-1.528c1.188,0,2.955,0,4.263,0
			c0.509,1.358,1.63,4.653,2.412,6.946h0.136c0.815-2.293,1.766-5.01,2.462-6.946c1.189,0,2.802,0,3.94,0
			c0,0.476-0.017,1.036-0.017,1.528l-0.849,0.051c-0.034,0-0.051,0.034-0.051,0.068c0.017,2.429,0.017,5.35,0.034,7.914l0.934,0.051
			c0,0.441,0,0.968-0.017,1.427c-0.561,0-1.393,0-2.021,0c-0.832,0-1.783,0-2.497,0c0-0.459,0.017-0.985,0.017-1.427l0.968-0.051
			c0.051,0,0.051-0.034,0.051-0.068c-0.017-1.783-0.034-3.668-0.068-5.723h-0.136c-1.036,2.955-1.919,5.026-2.616,6.641
			c-0.254,0-0.951,0.017-1.478,0.017c-0.781-1.852-1.545-3.855-2.547-6.878h-0.153c-0.034,2.105-0.085,4.024-0.119,5.995
			l1.188,0.067c0,0.441,0,0.968-0.017,1.427c-0.612,0-1.478,0-2.191,0c-0.628,0-1.172,0-1.732,0c0-0.459,0-0.985,0-1.427
			l0.883-0.051c0.034-0.017,0.051-0.034,0.051-0.068c0.017-2.428,0.051-5.52,0.085-7.914L187.439,115.832z"/>
		<path fill="#FFCE00" d="M202.401,117.118c0-0.407,0-0.845,0.016-1.237c0.679,0,1.681,0,2.44,0c0.792,0,1.713,0,2.392,0
			c0,0.379-0.016,0.844-0.016,1.237l-1.018,0.044c-0.032,0-0.032,0.015-0.032,0.072l-0.048,6.812l1.083,0.059
			c0,0.393,0,0.83-0.016,1.252c-0.663,0-1.616-0.015-2.424-0.015c-0.743,0-1.648,0.015-2.392,0.015c0-0.407,0.016-0.859,0.016-1.267
			l0.938-0.029c0.032,0,0.064-0.029,0.064-0.058v-6.842L202.401,117.118z"/>
		<path fill="#FFCE00" d="M211.952,124.062c0.032,0,0.048-0.029,0.048-0.058v-6.812c-0.614,0-0.889,0.043-1.115,0.072
			c-0.226,0.044-0.274,0.146-0.307,0.291l-0.291,1.397c-0.565-0.029-1.196-0.072-1.713-0.131c0.064-0.99,0.129-1.979,0.21-2.955
			c0.339,0,0.954,0.015,1.519,0.015c0.42,0,2.569,0,3.167,0c0.501,0,2.585,0,3.022,0c0.646-0.015,1.212-0.015,1.535-0.015
			c0.064,0.976,0.129,1.965,0.162,2.94c-0.533,0.059-1.147,0.102-1.729,0.146l-0.259-1.397c-0.032-0.16-0.097-0.232-0.307-0.276
			c-0.21-0.044-0.404-0.073-1.115-0.073l-0.048,6.842l1.164,0.059c0,0.393,0,0.83-0.017,1.252c-0.679,0-1.648-0.015-2.504-0.015
			c-0.776,0-1.729,0.015-2.537,0.015c0-0.422,0.016-0.845,0.016-1.252L211.952,124.062z"/>
		<path fill="#FFCE00" d="M221.438,123.669c0.016,0.044,0.048,0.116,0.097,0.131c0.291,0.189,0.663,0.276,1.066,0.276
			c0.388,0,0.856-0.087,1.131-0.291c0.242-0.175,0.388-0.437,0.388-0.786c0-0.728-0.404-0.873-1.665-1.296
			c-1.632-0.553-2.892-1.44-2.892-2.867c0-0.902,0.468-1.659,1.099-2.169c0.711-0.582,1.891-0.932,3.442-0.932
			c0.921,0,1.777,0.116,2.149,0.262c0.097,0.888,0.178,1.776,0.243,2.664c-0.501,0.073-1.099,0.131-1.665,0.189l-0.372-1.354
			c-0.016-0.044-0.032-0.073-0.064-0.103c-0.194-0.146-0.501-0.232-0.808-0.232c-0.388,0-0.711,0.087-0.97,0.262
			c-0.21,0.146-0.436,0.422-0.436,0.83c0,0.728,0.355,0.873,1.842,1.339c1.793,0.553,2.714,1.354,2.714,2.736
			c0,0.917-0.42,1.776-1.196,2.329c-0.775,0.554-1.842,0.83-3.409,0.83c-0.679,0-1.826-0.072-2.489-0.291
			c-0.129-0.917-0.242-1.819-0.355-2.708c0.517-0.102,1.147-0.203,1.697-0.262L221.438,123.669z"/>
		<path fill="#FFCE00" d="M231.878,121.543c0,1.106,0.21,1.602,0.582,1.995c0.323,0.32,0.743,0.466,1.293,0.466
			c0.598,0,0.953-0.219,1.228-0.51c0.372-0.379,0.549-1.193,0.549-2.154c0-1.18,0-2.955-0.032-4.148
			c0-0.029-0.032-0.044-0.065-0.044l-1.131-0.044c0-0.393,0.016-0.83,0.016-1.223c0.598,0,1.438,0,2.149,0c0.679,0,1.341,0,1.923,0
			c0,0.393,0,0.815-0.017,1.223l-0.759,0.044l-0.048,3.974c0,1.747-0.582,2.839-1.196,3.377c-0.598,0.568-1.406,0.99-2.909,0.99
			c-1.422,0-2.424-0.247-3.232-0.902c-0.921-0.757-1.147-1.922-1.147-2.999v-4.367c0-0.043-0.017-0.087-0.081-0.087l-0.711-0.029
			c0-0.407,0-0.83,0.016-1.223c0.63,0,1.535,0,2.23,0c0.856,0,1.777,0,2.504,0c0,0.379,0,0.83-0.016,1.237l-1.099,0.029
			L231.878,121.543z"/>
		<path fill="#FFCE00" d="M239.483,122.18c0.016-0.479,0.032-0.975,0.048-1.438c0.799,0,1.565,0,2.348-0.017
			c0.815-0.016,1.694-0.016,2.413-0.032c0,0.464-0.017,1.022-0.064,1.502c-0.687,0-1.677,0-2.444,0
			C241.145,122.195,240.17,122.18,239.483,122.18z"/>
		<path fill="#FFCE00" d="M245.861,123.95l0.9-0.051c0.033,0,0.067-0.034,0.067-0.085l0.018-8.017l-1.002-0.051
			c0-0.441,0.017-0.951,0.033-1.409c0.85-0.018,2.531-0.051,3.499-0.051c1.647,0,2.87,0,3.855,0.441
			c0.764,0.356,1.443,1.239,1.443,2.105c0,1.155-0.884,2.056-1.971,2.463v0.136c1.427,0.238,2.564,1.325,2.564,2.751
			c0,1.783-1.749,3.176-4.67,3.176c-0.544,0-2.038-0.017-2.378-0.017c-0.577,0-1.715,0-2.377,0
			C245.845,124.901,245.845,124.392,245.861,123.95z M249.614,123.56c0,0.374,0.357,0.459,0.748,0.459
			c1.087,0,1.919-0.595,1.919-1.732c0-0.951-0.815-1.868-2.191-1.868c-0.17,0-0.407,0-0.441,0.017L249.614,123.56z M249.648,119.042
			c0.051,0.017,0.306,0.017,0.425,0.017c1.069,0,1.834-0.679,1.834-1.731c0-0.9-0.696-1.716-1.664-1.716
			c-0.289,0-0.459,0.018-0.578,0.051L249.648,119.042z"/>
		<path fill="#FFCE00" d="M256.764,117.118c0-0.407,0-0.845,0.017-1.237c0.679,0,1.681,0,2.439,0c0.792,0,1.713,0,2.392,0
			c0,0.379-0.016,0.844-0.016,1.237l-1.019,0.044c-0.032,0-0.032,0.015-0.032,0.072l-0.048,6.812l1.082,0.059
			c0,0.393,0,0.83-0.017,1.252c-0.662,0-1.615-0.015-2.423-0.015c-0.743,0-1.648,0.015-2.392,0.015c0-0.407,0.016-0.859,0.016-1.267
			l0.938-0.029c0.032,0,0.064-0.029,0.064-0.058v-6.842L256.764,117.118z"/>
		<path fill="#FFCE00" d="M265.377,123.669c0.016,0.044,0.048,0.116,0.097,0.131c0.291,0.189,0.662,0.276,1.066,0.276
			c0.388,0,0.856-0.087,1.131-0.291c0.243-0.175,0.389-0.437,0.389-0.786c0-0.728-0.404-0.873-1.665-1.296
			c-1.632-0.553-2.893-1.44-2.893-2.867c0-0.902,0.469-1.659,1.1-2.169c0.711-0.582,1.891-0.932,3.441-0.932
			c0.921,0,1.777,0.116,2.149,0.262c0.097,0.888,0.178,1.776,0.242,2.664c-0.501,0.073-1.099,0.131-1.664,0.189l-0.372-1.354
			c-0.016-0.044-0.032-0.073-0.064-0.103c-0.194-0.146-0.501-0.232-0.808-0.232c-0.389,0-0.712,0.087-0.97,0.262
			c-0.21,0.146-0.437,0.422-0.437,0.83c0,0.728,0.355,0.873,1.842,1.339c1.794,0.553,2.715,1.354,2.715,2.736
			c0,0.917-0.42,1.776-1.195,2.329c-0.776,0.554-1.843,0.83-3.41,0.83c-0.679,0-1.825-0.072-2.488-0.291
			c-0.129-0.917-0.242-1.819-0.355-2.708c0.518-0.102,1.147-0.203,1.696-0.262L265.377,123.669z"/>
		<path fill="#FFCE00" d="M273.183,124.062c0.049-0.015,0.064-0.029,0.064-0.072v-6.827l-0.889-0.044c0-0.394,0-0.845,0.017-1.237
			c0.646,0,1.6,0,2.327,0c0.775,0,1.681,0,2.311,0c0,0.393,0,0.844-0.017,1.237l-0.937,0.044c-0.017,0-0.017,0.015-0.017,0.072
			l-0.017,2.548c0,0.029,0.017,0.044,0.033,0.044l3.296,0.014l0.017-2.678l-0.986-0.044c0-0.407,0-0.845,0.017-1.237
			c0.662,0,1.6,0,2.424,0c0.694,0,1.551,0,2.182,0c0,0.379,0,0.858-0.017,1.237l-0.792,0.044c-0.032,0-0.048,0.015-0.048,0.058
			l-0.049,6.827l0.889,0.059c0,0.393-0.016,0.845-0.032,1.252c-0.63,0-1.535-0.015-2.197-0.015c-0.856,0-1.777,0.015-2.505,0.015
			c0-0.407,0-0.859,0.017-1.252l1.033-0.044c0.033,0,0.065-0.015,0.065-0.058l-0.017-2.767c0-0.028-0.016-0.058-0.049-0.058
			l-3.296,0.029l-0.017,2.838l1.002,0.059c0,0.393,0.017,0.83,0,1.252c-0.646,0-1.583-0.015-2.375-0.015
			c-0.695,0-1.584,0.015-2.263,0.015c0-0.407,0-0.845,0-1.252L273.183,124.062z"/>
		<path fill="#FFCE00" d="M284.688,117.118c0-0.407,0-0.845,0.017-1.237c0.679,0,1.68,0,2.439,0c0.792,0,1.713,0,2.392,0
			c0,0.379-0.016,0.844-0.016,1.237l-1.019,0.044c-0.032,0-0.032,0.015-0.032,0.072l-0.049,6.812l1.083,0.059
			c0,0.393,0,0.83-0.017,1.252c-0.662,0-1.615-0.015-2.424-0.015c-0.743,0-1.647,0.015-2.391,0.015c0-0.407,0.016-0.859,0.016-1.267
			l0.938-0.029c0.032,0,0.064-0.029,0.064-0.058v-6.842L284.688,117.118z"/>
		<path fill="#FFCE00" d="M293.748,115.789c0,1.311-0.959,2.828-2.285,3.435c-0.224-0.255-0.463-0.543-0.654-0.83
			c0.926-0.671,1.149-1.198,1.149-1.693c0-0.575-0.526-0.799-0.926-0.943c-0.08-0.91,0.479-1.598,1.277-1.598
			C293.093,114.159,293.748,114.958,293.748,115.789z M297.215,115.789c0,1.311-0.975,2.828-2.269,3.435
			c-0.224-0.255-0.447-0.543-0.672-0.83c0.927-0.671,1.15-1.198,1.15-1.693c0-0.575-0.543-0.799-0.926-0.927
			c-0.064-0.959,0.479-1.614,1.262-1.614C296.56,114.159,297.215,114.958,297.215,115.789z"/>
	</g>
	<g>
		<path fill="#FFCE00" d="M307.684,120.324c-0.376,0.188-1.111,0.517-1.895,0.517c-0.799,0-1.565-0.298-2.035-0.752
			c-0.517-0.517-0.908-1.236-0.908-2.129c0-1.111,0.47-1.973,1.222-2.63c0.626-0.532,1.565-0.877,2.599-0.877
			c0.924,0,1.769,0.297,2.301,0.782c0.783,0.689,1.425,1.863,1.425,3.633c0,2.129-0.61,3.772-1.456,4.618
			c-0.892,0.877-2.066,1.221-3.412,1.221c-0.549,0-1.206-0.016-1.785-0.141c-0.156-0.799-0.282-1.597-0.423-2.396
			c0.47-0.125,0.986-0.25,1.487-0.344l0.423,1.314c0.031,0.078,0.078,0.141,0.125,0.157c0.142,0.078,0.423,0.141,0.705,0.141
			c0.47,0,0.938-0.251,1.189-0.674c0.376-0.688,0.47-1.628,0.501-2.441H307.684z M305.711,116.065
			c-0.235,0.376-0.313,0.893-0.313,1.565c0,0.705,0.126,1.096,0.407,1.44c0.204,0.251,0.501,0.345,0.768,0.345
			c0.344,0,0.845-0.157,1.127-0.501c0.016-1.315-0.172-2.286-0.36-2.646c-0.188-0.375-0.47-0.61-0.893-0.61
			C306.181,115.658,305.898,115.752,305.711,116.065z"/>
		<path fill="#FFCE00" d="M317.534,119.04c1.189,0.626,1.909,1.534,1.909,2.536c0,1.064-0.438,1.77-1.252,2.396
			c-0.704,0.517-1.675,0.735-2.818,0.735c-1.111,0-1.941-0.203-2.521-0.579c-0.61-0.392-1.096-0.971-1.096-1.895
			c0-1.174,0.908-2.004,1.941-2.567v-0.078c-0.924-0.532-1.503-1.252-1.503-2.364c0-0.955,0.61-1.706,1.158-2.082
			c0.627-0.423,1.519-0.688,2.489-0.688c1.002,0,1.801,0.203,2.349,0.642c0.392,0.298,0.846,0.893,0.846,1.675
			c0,1.081-0.736,1.754-1.503,2.208V119.04z M314.982,120.293c-0.485,0.469-0.689,1.143-0.689,1.628
			c0,0.532,0.141,0.845,0.298,1.064c0.203,0.313,0.704,0.501,1.049,0.501c0.36,0,0.72-0.109,0.955-0.376
			c0.219-0.25,0.344-0.579,0.344-1.002C316.938,121.404,316.328,120.841,314.982,120.293z M316.219,118.414
			c0.438-0.438,0.595-0.861,0.595-1.456c0-0.329-0.109-0.673-0.266-0.877c-0.188-0.266-0.501-0.392-0.83-0.392
			c-0.313,0-0.548,0.047-0.783,0.251c-0.234,0.219-0.391,0.579-0.391,0.971C314.544,117.553,315.076,117.944,316.219,118.414z"/>
		<path fill="#FFCE00" d="M326.853,123.862c-0.642,0.595-1.456,0.845-2.442,0.845c-0.892,0-1.644-0.281-2.176-0.751
			c-0.814-0.721-1.456-1.707-1.456-3.93c0-2.38,0.642-3.741,1.534-4.603c0.721-0.689,1.565-0.971,2.521-0.971
			c1.08,0,1.801,0.36,2.317,0.908c0.61,0.642,1.268,1.862,1.268,4.18C328.418,121.654,327.745,123.001,326.853,123.862z
			 M323.988,116.112c-0.282,0.407-0.485,2.113-0.485,3.727c0,1.565,0.172,2.771,0.375,3.146c0.188,0.345,0.407,0.501,0.705,0.501
			c0.281,0,0.485-0.094,0.688-0.407c0.282-0.423,0.423-1.534,0.423-3.178c0-1.848-0.141-3.304-0.376-3.695
			c-0.172-0.328-0.344-0.517-0.673-0.517C324.348,115.689,324.191,115.8,323.988,116.112z"/>
		<path fill="#FFCE00" d="M335.826,123.862c-0.642,0.595-1.456,0.845-2.442,0.845c-0.892,0-1.644-0.281-2.176-0.751
			c-0.814-0.721-1.456-1.707-1.456-3.93c0-2.38,0.642-3.741,1.534-4.603c0.721-0.689,1.565-0.971,2.521-0.971
			c1.08,0,1.801,0.36,2.317,0.908c0.61,0.642,1.268,1.862,1.268,4.18C337.392,121.654,336.719,123.001,335.826,123.862z
			 M332.962,116.112c-0.282,0.407-0.485,2.113-0.485,3.727c0,1.565,0.172,2.771,0.375,3.146c0.188,0.345,0.407,0.501,0.705,0.501
			c0.281,0,0.485-0.094,0.688-0.407c0.282-0.423,0.423-1.534,0.423-3.178c0-1.848-0.141-3.304-0.376-3.695
			c-0.172-0.328-0.344-0.517-0.673-0.517C333.321,115.689,333.165,115.8,332.962,116.112z"/>
	</g>
	<g>
		<polygon fill="#FFCE00" points="167.62,117 170.345,121.72 173.071,117 170.345,112.317 		"/>
		<polygon fill="#FFCE00" points="175.569,121.367 178.294,126.087 172.844,126.087 170.151,121.385 		"/>
		<polygon fill="#FFCE00" points="165.104,121.367 162.379,126.087 167.829,126.087 170.522,121.385 		"/>
	</g>
	<g>
		<path fill="#FFCE00" d="M103.207,123.176c0.995-0.793,1.85-1.483,2.564-2.071c0.714-0.588,1.275-1.051,1.683-1.389
			c0.408-0.338,0.767-0.624,1.077-0.858c0.31-0.233,0.509-0.351,0.595-0.351c0.166-0.007,0.325,0.147,0.476,0.463
			s0.227,0.567,0.227,0.756c0,0.123-0.229,0.414-0.687,0.872s-0.801,0.823-1.028,1.097c-0.227,0.272-0.341,0.559-0.341,0.857
			c0,0.176,0.065,0.317,0.195,0.425c0.13,0.106,0.285,0.16,0.465,0.16c0.209,0,0.46-0.098,0.752-0.292
			c0.292-0.195,0.752-0.543,1.379-1.043v0.691c-0.627,0.533-1.197,0.993-1.709,1.38s-0.958,0.676-1.336,0.867
			c-0.378,0.192-0.694,0.288-0.947,0.288c-0.224,0-0.411-0.077-0.562-0.229s-0.227-0.343-0.227-0.57c0-0.221,0.043-0.444,0.13-0.672
			c0.086-0.228,0.22-0.498,0.4-0.81c0.181-0.312,0.418-0.688,0.714-1.126s0.566-0.84,0.812-1.204c-0.736,0.54-1.389,1.06-1.958,1.56
			c-0.57,0.501-1.035,0.938-1.396,1.312c-0.36,0.374-0.646,0.668-0.854,0.882c-0.404,0.403-0.779,0.604-1.125,0.604
			c-0.375,0-0.562-0.24-0.562-0.721c0-0.195,0.141-0.545,0.422-1.048c0.281-0.504,0.682-1.146,1.201-1.926
			c0.043-0.052,0.065-0.133,0.065-0.243c0-0.13-0.072-0.195-0.216-0.195c-0.159,0-0.388,0.135-0.688,0.404s-0.878,0.834-1.736,1.691
			c-0.238,0.24-0.507,0.554-0.806,0.94s-0.514,0.646-0.644,0.775c-0.129,0.13-0.259,0.194-0.389,0.194
			c-0.26,0-0.501-0.207-0.725-0.623s-0.335-0.9-0.335-1.453c0-0.402,0.074-0.75,0.222-1.043c0.148-0.292,0.377-0.656,0.687-1.092
			c0.483-0.63,0.878-1.08,1.185-1.35s0.629-0.404,0.968-0.404c0.209,0,0.386,0.037,0.53,0.111c0.144,0.075,0.216,0.178,0.216,0.308
			c0,0.137-0.131,0.36-0.395,0.673c-0.263,0.312-0.597,0.633-1,0.965c-0.217,0.188-0.422,0.421-0.617,0.696
			c-0.195,0.276-0.292,0.477-0.292,0.6c0,0.176,0.076,0.264,0.228,0.264c0.123,0,0.433-0.228,0.93-0.683
			c0.498-0.455,1.044-0.95,1.64-1.486c0.595-0.536,1.146-0.981,1.655-1.336c0.509-0.354,0.939-0.531,1.293-0.531
			c0.216,0,0.395,0.073,0.536,0.22s0.211,0.326,0.211,0.541c0,0.143-0.108,0.401-0.325,0.774c-0.216,0.374-0.532,0.836-0.947,1.385
			C104.398,121.731,103.863,122.396,103.207,123.176z"/>
		<path fill="#FFCE00" d="M111.976,120.096c1.097-0.896,2.161-1.562,3.192-1.998c1.032-0.436,1.829-0.653,2.392-0.653
			c0.151,0,0.292,0.057,0.422,0.171c0.13,0.113,0.232,0.245,0.309,0.395c0.076,0.149,0.113,0.26,0.113,0.331
			c0,0.117-0.05,0.203-0.151,0.259c-0.101,0.055-0.278,0.121-0.53,0.199c0.05,0.104,0.115,0.237,0.195,0.4
			c0.079,0.162,0.141,0.294,0.184,0.395c0.043,0.101,0.065,0.19,0.065,0.268c0,0.156-0.175,0.447-0.525,0.873
			c-0.35,0.426-0.595,0.739-0.736,0.94s-0.211,0.448-0.211,0.741c0,0.48,0.245,0.721,0.736,0.721c0.505,0,1.294-0.425,2.37-1.276
			v0.595c-1.825,1.826-3.131,2.738-3.917,2.738c-0.281,0-0.481-0.082-0.601-0.248s-0.179-0.411-0.179-0.736
			c0-0.513,0.206-1.257,0.617-2.232c-1.054,1.053-1.836,1.803-2.348,2.247c-0.512,0.445-0.934,0.668-1.266,0.668
			c-0.159,0-0.357-0.123-0.595-0.37c-0.238-0.247-0.449-0.567-0.633-0.96c-0.184-0.394-0.276-0.802-0.276-1.224
			c0-0.306,0.032-0.561,0.097-0.766c0.065-0.204,0.191-0.414,0.379-0.629C111.266,120.729,111.565,120.446,111.976,120.096z
			 M117.159,119.023c-1.875,0.773-3.212,1.43-4.009,1.969c-0.797,0.54-1.196,1.096-1.196,1.667c0,0.208,0.04,0.379,0.119,0.512
			c0.079,0.134,0.188,0.2,0.324,0.2c0.08,0,0.22-0.046,0.422-0.137c0.757-0.402,1.45-0.928,2.077-1.574
			C115.525,121.014,116.279,120.135,117.159,119.023z"/>
		<path fill="#FFCE00" d="M123.722,116.781h0.465c0.382-0.617,0.729-1.055,1.039-1.311c0.31-0.257,0.664-0.386,1.061-0.386
			c0.396,0,0.595,0.082,0.595,0.244c0,0.078-0.155,0.289-0.465,0.634c-0.31,0.344-0.544,0.633-0.703,0.867
			c0.245,0.026,0.463,0.049,0.655,0.068c0.191,0.02,0.341,0.036,0.449,0.049c-0.411,0.688-0.927,1.394-1.547,2.115
			c-0.202-0.013-0.372-0.024-0.509-0.034c-0.137-0.01-0.276-0.02-0.417-0.029s-0.312-0.021-0.514-0.034
			c-0.389,0.565-0.716,1.07-0.979,1.516c-0.264,0.445-0.465,0.854-0.606,1.224s-0.211,0.722-0.211,1.053
			c0,0.448,0.198,0.673,0.595,0.673c0.274,0,0.633-0.132,1.076-0.396c0.444-0.263,1.037-0.667,1.78-1.213v0.653
			c-1.948,1.903-3.387,2.855-4.317,2.855c-0.325,0-0.586-0.113-0.785-0.341s-0.297-0.52-0.297-0.878c0-0.24,0.056-0.526,0.167-0.857
			s0.312-0.832,0.601-1.501c-0.101,0.078-0.196,0.154-0.287,0.229c-0.09,0.075-0.173,0.144-0.249,0.205
			c-0.076,0.062-0.157,0.127-0.243,0.195s-0.173,0.138-0.26,0.209v-0.672c0.757-0.572,1.673-1.576,2.749-3.013
			c-0.108-0.006-0.209-0.011-0.303-0.015c-0.094-0.003-0.206-0.005-0.335-0.005c-0.426,0-0.743,0.026-0.952,0.078
			c-0.086,0.02-0.167,0.041-0.244,0.063c-0.076,0.022-0.128,0.034-0.157,0.034s-0.043-0.02-0.043-0.059
			c0-0.215,0.147-0.536,0.443-0.965c0.238-0.364,0.463-0.634,0.676-0.81c0.213-0.175,0.472-0.294,0.779-0.355
			C122.735,116.812,123.166,116.781,123.722,116.781z"/>
		<path fill="#FFCE00" d="M130.782,121.178c-1.046,1.248-1.841,2.135-2.386,2.661c-0.545,0.526-0.99,0.79-1.336,0.79
			c-0.274,0-0.527-0.103-0.757-0.308c-0.231-0.205-0.41-0.48-0.536-0.828c-0.126-0.348-0.189-0.72-0.189-1.116
			c0-0.26,0.027-0.494,0.081-0.702s0.157-0.437,0.309-0.688c0.151-0.25,0.352-0.521,0.601-0.813
			c0.249-0.293,0.553-0.624,0.914-0.994c0.216-0.228,0.398-0.42,0.546-0.575c0.148-0.156,0.292-0.262,0.433-0.317
			c0.141-0.055,0.369-0.083,0.687-0.083c0.23,0,0.451,0.028,0.66,0.083c0.209,0.056,0.314,0.112,0.314,0.171
			c0,0.117-0.106,0.328-0.319,0.634s-0.555,0.678-1.028,1.116s-1.019,0.869-1.639,1.291c-0.137,0.384-0.206,0.677-0.206,0.878
			c0,0.279,0.119,0.419,0.357,0.419c0.086,0,0.231-0.066,0.433-0.2c0.202-0.133,0.542-0.39,1.022-0.77
			c0.479-0.381,0.911-0.717,1.293-1.009c0.281-0.222,0.607-0.551,0.979-0.99c0.372-0.438,0.673-0.768,0.904-0.989
			c0.534-0.507,0.898-0.836,1.093-0.989c0.195-0.152,0.382-0.229,0.562-0.229c0.173,0,0.291,0.048,0.352,0.146
			c0.062,0.098,0.092,0.296,0.092,0.595c0,0.137-0.015,0.247-0.043,0.332c-0.029,0.084-0.088,0.193-0.179,0.326
			s-0.272,0.379-0.546,0.736c-0.274,0.357-0.599,0.779-0.974,1.267c-0.202,0.26-0.379,0.545-0.53,0.854s-0.227,0.541-0.227,0.696
			c0,0.338,0.147,0.507,0.443,0.507c0.245,0,0.53-0.091,0.855-0.272s0.822-0.51,1.493-0.984v0.653
			c-0.844,0.701-1.468,1.212-1.872,1.53s-0.754,0.559-1.049,0.721c-0.296,0.163-0.577,0.244-0.844,0.244
			c-0.606,0-0.909-0.325-0.909-0.975c0-0.247,0.09-0.58,0.271-0.999C130.085,122.576,130.377,121.971,130.782,121.178z"/>
		<path fill="#FFCE00" d="M134.325,122.591v-0.634c0.39-0.415,0.685-0.77,0.887-1.062c-0.231-0.071-0.398-0.159-0.503-0.263
			c-0.105-0.104-0.157-0.26-0.157-0.468c0-0.234,0.108-0.529,0.325-0.888c0.216-0.356,0.483-0.691,0.801-1.004
			c0.317-0.312,0.606-0.513,0.866-0.604c0.101-0.045,0.198-0.067,0.292-0.067c0.144,0,0.216,0.062,0.216,0.185
			c0,0.11-0.112,0.335-0.335,0.673c1.486-0.208,2.424-0.312,2.813-0.312c0.151,0,0.256,0.013,0.313,0.038
			c0.123,0.059,0.224,0.195,0.303,0.41c0.079,0.214,0.119,0.429,0.119,0.644c0,0.136-0.067,0.284-0.2,0.443
			c-0.134,0.159-0.363,0.392-0.687,0.696c-0.383,0.371-0.704,0.773-0.963,1.209c-0.259,0.436-0.389,0.764-0.389,0.984
			c0,0.306,0.209,0.458,0.627,0.458c0.44,0,1.205-0.402,2.294-1.208v0.653c-0.599,0.564-1.093,1.01-1.482,1.335
			s-0.75,0.583-1.082,0.775c-0.332,0.191-0.627,0.287-0.887,0.287c-0.303,0-0.556-0.125-0.757-0.375
			c-0.202-0.25-0.303-0.612-0.303-1.087c0-0.279,0.08-0.598,0.238-0.955c0.158-0.357,0.391-0.746,0.698-1.165
			c0.307-0.42,0.651-0.837,1.033-1.253c-0.202,0.039-0.429,0.08-0.682,0.122s-0.52,0.086-0.801,0.132
			c-0.281,0.045-0.498,0.081-0.649,0.106C135.825,121.204,135.176,121.935,134.325,122.591z"/>
		<path fill="#FFCE00" d="M142.856,122.191v0.244c0,0.383,0.104,0.682,0.314,0.896c0.209,0.215,0.483,0.321,0.822,0.321
			c0.354,0,0.72-0.074,1.098-0.224c0.379-0.149,0.756-0.348,1.131-0.595s0.833-0.578,1.374-0.994v0.595
			c-0.815,0.884-1.58,1.561-2.294,2.032c-0.714,0.471-1.439,0.707-2.175,0.707c-0.642,0-1.15-0.225-1.525-0.673
			c-0.375-0.448-0.563-1.062-0.563-1.843c0-0.683,0.177-1.301,0.53-1.856s0.931-1.143,1.731-1.76
			c0.548-0.423,1.093-0.741,1.634-0.955c0.541-0.215,1.024-0.322,1.45-0.322c0.339,0,0.608,0.07,0.806,0.21s0.298,0.35,0.298,0.629
			c0,0.409-0.17,0.817-0.509,1.223c-0.339,0.406-0.856,0.81-1.553,1.209S143.874,121.821,142.856,122.191z M142.965,121.558
			c0.649-0.228,1.205-0.51,1.666-0.848c0.462-0.338,0.803-0.661,1.022-0.97c0.22-0.309,0.33-0.535,0.33-0.678
			c0-0.149-0.076-0.225-0.227-0.225c-0.13,0-0.341,0.075-0.633,0.225c-0.292,0.149-0.588,0.345-0.887,0.585
			c-0.3,0.24-0.568,0.523-0.806,0.848C143.192,120.82,143.037,121.175,142.965,121.558z"/>
		<path fill="#FFCE00" d="M152.763,121.86c-0.635,0.649-1.203,1.202-1.705,1.657c-0.501,0.454-0.909,0.794-1.223,1.019
			c-0.313,0.224-0.528,0.336-0.644,0.336c-0.188,0-0.399-0.137-0.633-0.409c-0.235-0.273-0.435-0.621-0.601-1.043
			c-0.166-0.423-0.249-0.852-0.249-1.287c0-0.63,0.339-1.266,1.017-1.905c0.678-0.641,1.45-1.172,2.315-1.594
			c0.866-0.423,1.515-0.634,1.948-0.634c0.354,0,0.7,0.201,1.039,0.604c0.556-1.047,1.084-1.976,1.585-2.788
			c0.501-0.812,0.921-1.417,1.26-1.813c0.339-0.396,0.581-0.595,0.725-0.595c0.159,0,0.305,0.07,0.438,0.21
			c0.133,0.14,0.2,0.297,0.2,0.473c0,0.338-0.274,0.918-0.822,1.74s-1.089,1.623-1.623,2.402c-0.534,0.78-0.992,1.549-1.374,2.306
			s-0.573,1.457-0.573,2.101c0,0.585,0.209,0.878,0.627,0.878c0.252,0,0.57-0.129,0.952-0.386s0.927-0.687,1.634-1.291v0.711
			c-1.558,1.813-2.759,2.72-3.603,2.72c-0.339,0-0.583-0.116-0.73-0.351s-0.222-0.582-0.222-1.043
			C152.503,123.254,152.589,122.581,152.763,121.86z M153.563,119.481c-0.642,0.195-1.396,0.509-2.261,0.94
			c-0.866,0.433-1.389,0.729-1.569,0.893c-0.159,0.13-0.299,0.373-0.422,0.73c-0.123,0.357-0.184,0.628-0.184,0.81
			c0,0.11,0.036,0.201,0.108,0.272c0.072,0.072,0.163,0.107,0.271,0.107c0.101,0,0.217-0.039,0.347-0.117s0.337-0.23,0.622-0.458
			c0.285-0.228,0.471-0.373,0.557-0.438c0.123-0.098,0.395-0.307,0.817-0.629c0.422-0.321,0.73-0.573,0.925-0.755
			c0.195-0.183,0.36-0.386,0.498-0.609C153.408,120.003,153.505,119.755,153.563,119.481z"/>
	</g>
	<path fill="#FFCE00" d="M89.445,122.564c-0.314,0.015-0.706,0.015-1.05,0c0.046-0.706,0.077-1.427,0.109-2.117
		c-0.581,0.424-1.145,0.847-1.709,1.285c-0.204-0.251-0.406-0.581-0.581-0.862c0.643-0.409,1.303-0.831,1.946-1.224
		c-0.643-0.406-1.303-0.815-1.946-1.222c0.19-0.298,0.393-0.597,0.597-0.848c0.564,0.409,1.129,0.831,1.677,1.27
		c-0.03-0.706-0.063-1.426-0.093-2.116c0.188,0,0.36-0.016,0.548-0.016c0.172,0,0.36,0.016,0.518,0.016
		c-0.033,0.705-0.063,1.41-0.095,2.132c0.564-0.439,1.129-0.878,1.693-1.302c0.204,0.266,0.409,0.579,0.581,0.863
		c-0.627,0.406-1.27,0.815-1.914,1.238c0.643,0.408,1.287,0.815,1.914,1.223c-0.172,0.266-0.376,0.579-0.595,0.863
		c-0.55-0.439-1.099-0.878-1.663-1.287C89.415,121.151,89.429,121.857,89.445,122.564z"/>
	<g>
		<g>
			<path fill="none" d="M22.766,124.519c0,0,12.77-5.726,28.322-5.726s28.322,5.726,28.322,5.726"/>
			<path fill="#FFCE00" d="M24.305,123.223l0.392-0.159c0.015-0.005,0.025-0.023,0.019-0.044l-1.102-3.208l-0.451,0.134
				c-0.061-0.177-0.124-0.383-0.18-0.569c0.374-0.137,1.114-0.409,1.543-0.558c0.729-0.253,1.271-0.44,1.769-0.416
				c0.388,0.025,0.811,0.274,0.931,0.621c0.16,0.461-0.107,0.957-0.532,1.287l0.019,0.054c0.665-0.124,1.319,0.136,1.517,0.706
				c0.247,0.713-0.335,1.539-1.629,1.987c-0.241,0.084-0.905,0.307-1.056,0.358c-0.256,0.089-0.76,0.264-1.053,0.365
				C24.429,123.605,24.358,123.401,24.305,123.223z M25.303,120.678c0.025-0.001,0.138-0.04,0.19-0.059
				c0.474-0.164,0.718-0.553,0.573-0.974c-0.125-0.36-0.546-0.579-0.975-0.431c-0.128,0.045-0.201,0.077-0.249,0.109L25.303,120.678
				z M25.913,122.489c0.052,0.149,0.221,0.129,0.395,0.068c0.481-0.167,0.768-0.532,0.61-0.987c-0.132-0.38-0.62-0.621-1.229-0.41
				c-0.075,0.026-0.181,0.062-0.193,0.074L25.913,122.489z"/>
			<path fill="#FFCE00" d="M29.992,121.107c0.014,0.019,0.039,0.049,0.063,0.05c0.163,0.051,0.352,0.043,0.543-0.011
				c0.184-0.052,0.395-0.155,0.499-0.289c0.092-0.115,0.126-0.259,0.08-0.425c-0.097-0.346-0.308-0.361-0.963-0.394
				c-0.849-0.045-1.565-0.299-1.755-0.977c-0.12-0.429,0.001-0.851,0.233-1.177c0.26-0.371,0.774-0.693,1.511-0.9
				c0.438-0.122,0.859-0.182,1.056-0.161c0.164,0.408,0.321,0.819,0.47,1.232c-0.229,0.102-0.505,0.208-0.766,0.312l-0.356-0.594
				c-0.014-0.019-0.025-0.03-0.044-0.04c-0.111-0.043-0.269-0.043-0.415-0.003c-0.184,0.052-0.326,0.137-0.425,0.254
				c-0.081,0.097-0.151,0.259-0.097,0.452c0.097,0.346,0.285,0.367,1.053,0.391c0.925,0.023,1.469,0.281,1.654,0.938
				c0.122,0.436,0.037,0.899-0.258,1.266c-0.294,0.366-0.764,0.64-1.509,0.848c-0.322,0.091-0.877,0.209-1.221,0.193
				c-0.184-0.418-0.357-0.832-0.529-1.238c0.232-0.117,0.518-0.25,0.771-0.351L29.992,121.107z"/>
			<path fill="#FFCE00" d="M34.72,120.083c0.016-0.004,0.021-0.02,0.018-0.033l-0.721-3.278c-0.296,0.065-0.424,0.115-0.529,0.153
				c-0.104,0.045-0.117,0.1-0.117,0.173l0.008,0.703c-0.275,0.046-0.583,0.091-0.839,0.118c-0.074-0.483-0.147-0.967-0.211-1.444
				c0.163-0.036,0.46-0.094,0.733-0.153c0.202-0.045,1.237-0.271,1.525-0.335c0.241-0.053,1.245-0.273,1.455-0.319
				c0.31-0.076,0.582-0.136,0.738-0.17c0.134,0.463,0.271,0.932,0.389,1.397c-0.25,0.085-0.542,0.171-0.817,0.253l-0.272-0.645
				c-0.032-0.074-0.071-0.102-0.177-0.101c-0.105,0.001-0.202,0.008-0.544,0.083l0.701,3.297l0.566-0.096
				c0.042,0.189,0.088,0.399,0.125,0.604c-0.327,0.071-0.795,0.167-1.208,0.258c-0.374,0.082-0.831,0.189-1.22,0.275
				c-0.045-0.203-0.082-0.408-0.125-0.604L34.72,120.083z"/>
			<path fill="#FFCE00" d="M37.833,119.414c0.016-0.002,0.037-0.021,0.042-0.043c0.3-1.226,0.729-3.018,1.02-4.249
				c0.139-0.036,0.501-0.094,1.076-0.186c0.644,1.119,1.532,2.717,2.145,3.79l0.406-0.035c0.03,0.191,0.062,0.397,0.085,0.597
				c-0.26,0.042-0.646,0.103-0.945,0.15c-0.409,0.065-0.905,0.144-1.268,0.201c-0.031-0.198-0.063-0.404-0.087-0.604l0.382-0.082
				c0.016-0.003,0.029-0.02,0.018-0.039c-0.056-0.101-0.163-0.316-0.227-0.415c-0.012-0.027-0.029-0.032-0.061-0.027l-1.454,0.246
				c-0.015,0.162-0.047,0.371-0.055,0.525l0.437-0.048c0.03,0.191,0.062,0.397,0.086,0.598c-0.315,0.05-0.725,0.114-1.11,0.176
				c-0.26,0.042-0.536,0.085-0.771,0.123c-0.031-0.199-0.056-0.406-0.078-0.599L37.833,119.414z M39.36,116.387
				c-0.099,0.554-0.2,1.145-0.29,1.653c-0.003,0.029-0.001,0.043,0.022,0.04l1.103-0.176c-0.239-0.441-0.52-0.993-0.796-1.524
				L39.36,116.387z"/>
			<path fill="#FFCE00" d="M42.989,118.661l0.418-0.059c0.016-0.002,0.031-0.018,0.029-0.039l-0.288-3.379l-0.47,0.021
				c-0.016-0.187-0.027-0.401-0.036-0.596c0.396-0.042,1.18-0.126,1.633-0.166c0.77-0.068,1.341-0.118,1.817,0.026
				c0.37,0.119,0.72,0.463,0.752,0.828c0.042,0.486-0.337,0.902-0.83,1.119l0.005,0.058c0.675,0.041,1.247,0.452,1.299,1.053
				c0.066,0.752-0.7,1.411-2.065,1.531c-0.254,0.022-0.953,0.077-1.111,0.092c-0.27,0.023-0.802,0.07-1.111,0.098
				C43.016,119.062,42.997,118.848,42.989,118.661z M44.577,116.436c0.024,0.006,0.144-0.005,0.199-0.01
				c0.5-0.044,0.832-0.362,0.793-0.806c-0.033-0.38-0.388-0.694-0.841-0.654c-0.135,0.012-0.213,0.026-0.268,0.045L44.577,116.436z
				 M44.728,118.341c0.014,0.157,0.184,0.179,0.366,0.162c0.508-0.045,0.875-0.329,0.833-0.809c-0.035-0.401-0.45-0.754-1.092-0.697
				c-0.08,0.008-0.19,0.018-0.206,0.025L44.728,118.341z"/>
			<path fill="#FFCE00" d="M48.046,114.785c-0.003-0.201,0.001-0.416,0.006-0.61c0.318-0.005,0.756-0.013,1.131-0.02
				c0.358-0.006,0.805-0.014,1.187-0.021c0.003,0.187-0.001,0.416,0.002,0.617l-0.501,0.023c-0.016,0-0.032,0.007-0.032,0.029
				l0.04,3.234c0.002,0.136,0.002,0.157,0.369,0.151c0.311-0.006,0.518-0.038,0.628-0.062c0.072-0.016,0.111-0.059,0.141-0.139
				l0.266-0.743c0.272,0.038,0.543,0.084,0.791,0.13c-0.095,0.468-0.191,0.943-0.311,1.411c-0.39,0-1.458,0.011-2.565,0.03
				c-0.366,0.006-0.765,0.021-1.099,0.026c-0.003-0.201,0.001-0.416-0.002-0.61l0.414-0.021c0.016-0.007,0.032-0.015,0.031-0.036
				l-0.049-3.378L48.046,114.785z"/>
			<path fill="#FFCE00" d="M52.722,114.747c0.008-0.2,0.017-0.416,0.033-0.609c0.334,0.014,0.829,0.033,1.203,0.049
				c0.391,0.016,0.844,0.034,1.179,0.047c-0.007,0.187-0.024,0.416-0.032,0.609l-0.503,0.002c-0.016-0.001-0.016,0.006-0.017,0.035
				l-0.16,3.355l0.532,0.05c-0.008,0.193-0.017,0.409-0.033,0.616c-0.327-0.013-0.796-0.039-1.194-0.055
				c-0.367-0.015-0.813-0.025-1.179-0.041c0.008-0.2,0.025-0.423,0.033-0.623l0.462,0.004c0.016,0.001,0.033-0.013,0.033-0.027
				l0.136-3.37L52.722,114.747z"/>
			<path fill="#FFCE00" d="M56.804,118.209c0.006,0.021,0.019,0.06,0.042,0.068c0.134,0.106,0.312,0.167,0.511,0.187
				c0.19,0.019,0.425-0.003,0.569-0.09c0.127-0.074,0.211-0.195,0.228-0.367c0.035-0.357-0.157-0.447-0.756-0.714
				c-0.775-0.349-1.353-0.844-1.285-1.544c0.042-0.442,0.309-0.792,0.642-1.012c0.376-0.252,0.972-0.368,1.734-0.295
				c0.452,0.044,0.867,0.142,1.043,0.23c0.006,0.44,0.003,0.88-0.007,1.318c-0.25,0.012-0.545,0.012-0.826,0.014l-0.119-0.682
				c-0.006-0.021-0.012-0.037-0.027-0.053c-0.088-0.08-0.235-0.138-0.386-0.152c-0.19-0.019-0.353,0.009-0.488,0.083
				c-0.11,0.062-0.234,0.187-0.253,0.386c-0.034,0.357,0.133,0.445,0.841,0.744c0.854,0.356,1.269,0.793,1.204,1.471
				c-0.043,0.45-0.29,0.852-0.697,1.086c-0.407,0.235-0.944,0.32-1.713,0.246c-0.333-0.031-0.893-0.121-1.208-0.26
				c-0.021-0.456-0.033-0.904-0.047-1.345c0.259-0.026,0.573-0.046,0.845-0.049L56.804,118.209z"/>
			<path fill="#FFCE00" d="M60.58,118.798c0.025-0.003,0.034-0.009,0.038-0.03l0.551-3.32l-0.429-0.094
				c0.032-0.191,0.068-0.411,0.108-0.601c0.314,0.053,0.778,0.13,1.131,0.189c0.377,0.062,0.817,0.136,1.124,0.188
				c-0.032,0.19-0.068,0.41-0.108,0.601l-0.459-0.056c-0.008-0.001-0.009,0.006-0.014,0.034l-0.213,1.238
				c-0.002,0.014,0.004,0.022,0.012,0.023l1.602,0.275l0.224-1.302l-0.476-0.102c0.033-0.198,0.068-0.41,0.108-0.601
				c0.322,0.054,0.778,0.13,1.179,0.197c0.338,0.057,0.754,0.126,1.061,0.177c-0.031,0.185-0.069,0.418-0.108,0.601l-0.389-0.043
				c-0.016-0.003-0.025,0.003-0.028,0.024l-0.575,3.316l0.428,0.101c-0.032,0.191-0.076,0.409-0.117,0.606
				c-0.307-0.051-0.746-0.132-1.068-0.186c-0.417-0.069-0.865-0.138-1.219-0.196c0.033-0.198,0.069-0.418,0.109-0.607l0.506,0.062
				c0.016,0.003,0.033-0.002,0.036-0.023l0.215-1.346c0.002-0.015-0.003-0.03-0.019-0.033l-1.605-0.253l-0.237,1.379l0.482,0.11
				c-0.032,0.19-0.059,0.404-0.101,0.608c-0.314-0.053-0.769-0.136-1.154-0.2c-0.338-0.056-0.771-0.121-1.102-0.177
				c0.033-0.198,0.068-0.41,0.101-0.608L60.58,118.798z"/>
			<path fill="#FFCE00" d="M66.566,119.882c0.023,0.005,0.042-0.005,0.045-0.019l0.776-3.292l-0.446-0.12
				c0.047-0.203,0.104-0.41,0.157-0.598c0.287,0.068,0.689,0.163,1.015,0.24c0.24,0.057,1.628,0.385,1.814,0.429
				c0.326,0.076,0.599,0.134,0.769,0.174c-0.066,0.42-0.134,0.847-0.216,1.263c-0.231-0.025-0.509-0.062-0.778-0.103l0.003-0.567
				c-0.001-0.067-0.022-0.116-0.127-0.156c-0.105-0.039-0.324-0.12-0.804-0.233c-0.023-0.006-0.054-0.014-0.078-0.019l-0.321,1.326
				c0.24,0.057,0.467,0.103,0.686,0.146c0.048,0.004,0.099-0.035,0.132-0.108l0.109-0.255c0.248,0.059,0.502,0.126,0.725,0.187
				c-0.051,0.216-0.12,0.473-0.179,0.725c-0.06,0.252-0.126,0.501-0.169,0.683c-0.228-0.039-0.485-0.092-0.733-0.15l0.027-0.289
				c0.017-0.106-0.012-0.158-0.082-0.174c-0.215-0.059-0.431-0.117-0.656-0.17l-0.299,1.235c-0.031,0.133,0.018,0.166,0.367,0.249
				c0.318,0.074,0.517,0.1,0.63,0.104c0.083-0.003,0.129-0.028,0.178-0.099l0.357-0.506c0.255,0.098,0.515,0.21,0.73,0.306
				c-0.181,0.385-0.379,0.773-0.577,1.162c-0.387-0.092-1.463-0.354-2.541-0.607c-0.357-0.085-0.753-0.171-1.064-0.244
				c0.046-0.195,0.096-0.405,0.148-0.592L66.566,119.882z"/>
			<path fill="#FFCE00" d="M70.758,120.911l0.396,0.091c0.023,0.007,0.035-0.004,0.039-0.018l0.99-3.226l-0.438-0.148
				c0.061-0.198,0.119-0.391,0.185-0.581c0.568,0.158,1.24,0.355,1.864,0.546c0.799,0.243,1.305,0.524,1.629,0.826
				c0.549,0.52,0.827,1.354,0.602,2.097c-0.297,0.975-1.007,1.531-1.737,1.714c-0.533,0.138-1.24,0.027-1.788-0.14
				c-0.244-0.074-0.622-0.197-0.881-0.275c-0.342-0.104-0.731-0.223-1.043-0.318C70.634,121.294,70.696,121.088,70.758,120.911z
				 M72.507,121.316c-0.035,0.087,0.032,0.167,0.139,0.2c0.297,0.09,0.643,0.128,1.013-0.021c0.44-0.188,0.754-0.701,0.89-1.147
				c0.219-0.721,0.177-1.184-0.12-1.657c-0.19-0.306-0.483-0.462-0.689-0.524c-0.106-0.033-0.177-0.047-0.237-0.042L72.507,121.316z
				"/>
		</g>
		<g>
			<path fill="#FFCE00" d="M43.843,123.956c0.007,0.186,0,0.378-0.007,0.557c-0.529,0-1.147,0-1.647,0
				c-0.485,0-1.015,0.007-1.633,0.007c0-0.179,0-0.371,0.007-0.557l1.037-0.02c0.022,0,0.037-0.021,0.037-0.04
				c0-0.841,0-1.827,0-2.529c-0.353,0.039-0.691,0.086-1.133,0.139c-0.037-0.179-0.074-0.371-0.103-0.55
				c0.772-0.191,2.361-0.722,2.435-0.722c0.015,0,0.022,0.007,0.022,0.033c0,1.046-0.015,2.497-0.022,3.669L43.843,123.956z"/>
			<path fill="#FFCE00" d="M48.953,122.182c0.559,0.265,0.897,0.649,0.897,1.073c0,0.45-0.206,0.748-0.588,1.013
				c-0.331,0.219-0.787,0.312-1.324,0.312c-0.522,0-0.912-0.086-1.184-0.245c-0.287-0.166-0.515-0.411-0.515-0.802
				c0-0.496,0.427-0.848,0.912-1.086v-0.033c-0.434-0.225-0.706-0.529-0.706-1c0-0.403,0.287-0.722,0.544-0.881
				c0.294-0.179,0.713-0.291,1.169-0.291c0.471,0,0.846,0.086,1.104,0.271c0.184,0.126,0.397,0.378,0.397,0.709
				c0,0.457-0.346,0.741-0.706,0.934V122.182z M47.754,122.711c-0.228,0.199-0.324,0.484-0.324,0.689c0,0.225,0.066,0.357,0.14,0.45
				c0.095,0.132,0.331,0.212,0.493,0.212c0.169,0,0.338-0.047,0.449-0.159c0.103-0.105,0.162-0.245,0.162-0.424
				C48.674,123.182,48.387,122.943,47.754,122.711z M48.335,121.917c0.206-0.186,0.279-0.364,0.279-0.616
				c0-0.139-0.051-0.285-0.125-0.371c-0.088-0.112-0.235-0.165-0.39-0.165c-0.147,0-0.257,0.02-0.368,0.105
				c-0.11,0.093-0.184,0.245-0.184,0.411C47.548,121.553,47.798,121.718,48.335,121.917z"/>
			<path fill="#FFCE00" d="M54.895,122.182c0.559,0.265,0.897,0.649,0.897,1.073c0,0.45-0.206,0.748-0.588,1.013
				c-0.331,0.219-0.787,0.312-1.324,0.312c-0.522,0-0.912-0.086-1.184-0.245c-0.287-0.166-0.515-0.411-0.515-0.802
				c0-0.496,0.427-0.848,0.912-1.086v-0.033c-0.434-0.225-0.706-0.529-0.706-1c0-0.403,0.287-0.722,0.544-0.881
				c0.294-0.179,0.713-0.291,1.169-0.291c0.471,0,0.846,0.086,1.104,0.271c0.184,0.126,0.397,0.378,0.397,0.709
				c0,0.457-0.346,0.741-0.706,0.934V122.182z M53.696,122.711c-0.228,0.199-0.324,0.484-0.324,0.689c0,0.225,0.066,0.357,0.14,0.45
				c0.095,0.132,0.331,0.212,0.493,0.212c0.169,0,0.338-0.047,0.449-0.159c0.103-0.105,0.162-0.245,0.162-0.424
				C54.615,123.182,54.328,122.943,53.696,122.711z M54.277,121.917c0.206-0.186,0.279-0.364,0.279-0.616
				c0-0.139-0.051-0.285-0.125-0.371c-0.088-0.112-0.235-0.165-0.39-0.165c-0.147,0-0.257,0.02-0.368,0.105
				c-0.11,0.093-0.184,0.245-0.184,0.411C53.49,121.553,53.74,121.718,54.277,121.917z"/>
			<path fill="#FFCE00" d="M60.749,121.168c-1.111,0-1.324-0.013-1.538,0.027c-0.059,0.006-0.11,0.06-0.14,0.125l-0.176,0.504
				c-0.243-0.026-0.5-0.073-0.728-0.119c0.066-0.464,0.154-0.934,0.235-1.397c0.059,0,0.463,0.013,0.706,0.013h2.5
				c0.096,0.219,0.176,0.517,0.235,0.749c-0.838,1.139-1.346,2.02-1.508,2.615c-0.059,0.226-0.051,0.662-0.051,0.809
				c-0.25,0.039-1,0.046-1.207,0.046c-0.015-0.47,0.037-0.695,0.118-0.874c0.221-0.497,0.905-1.529,1.552-2.464V121.168z"/>
		</g>
	</g>
</g>
<g>
	<path d="M26.18,78.297c2.267,0.251,4.583,0.402,7.455,0.402c1.159,0,2.418,0.353,3.022,0.353h1.31
		c3.274,0,8.361,0.252,10.225,0.252c0.957,0,3.123-0.101,3.929-0.101c0.251,0,0.302,0.302,0.906,0.302
		c0.101,0,3.577-0.201,4.13-0.201c0.756-0.05,1.914,0.201,2.821,0.201c2.015,0,3.626-0.201,5.642-0.201
		c0.957,0,3.475-3.123,4.835-4.23c0.353-0.051,0.655,0.201,1.058,0.806c0.201,0.554,4.181,3.476,3.929,3.929
		c0,0.705-0.604,1.914-1.209,2.216c-1.612,0-3.173,0.051-4.533-0.101c-0.151,0-0.755-0.201-0.957-0.201
		c-0.554-0.051-1.158,0.201-1.612,0.201c-1.41,0-3.224,0.051-4.433-0.201h-7.757c-0.101,0-0.604-0.101-0.705-0.101
		c-1.712,0-2.921,0.302-4.433,0.302c-3.375,0-6.195,0.403-8.311,0.403c-2.871,0.201-5.591,0.201-8.462,0.302
		c-1.41,0.303-2.72,0.504-4.13,0.504c-0.756,0-0.907-1.259-1.31-2.015c-0.554-0.906-1.209-1.511-1.813-2.217
		C25.727,78.397,25.828,78.397,26.18,78.297z M30.713,47.823c-0.101-0.504-0.907-0.806-0.907-1.41c0-0.403,0.302-0.403,0.604-0.403
		c-0.151,0,3.274,0.252,3.979,0.403c0,0.15,1.511-0.102,4.382-0.102c0.151,0,1.662-0.201,1.813-0.201h0.302
		c0.151,0,1.662,0.303,1.813,0.303c0.856,0,1.36-0.303,1.965-0.303c1.058-0.05,1.914,0.201,3.022,0.201c0.302,0,0.503,0,0.907-0.201
		c2.317,0,6.195-0.101,6.346-0.101h6.447c0.101,0,0.706-0.303,0.907-0.303l0.302,0.102c1.058,0.252,0.957-1.209,2.116-1.612
		c0.403-0.504,0.201-1.713,1.208-2.015c0.302,0,1.562,1.763,2.216,2.317c0.554,0.353,2.317,1.007,2.317,2.216
		c0,0.303-0.151,2.115-0.302,2.115c-2.972,0-5.087-0.101-7.757-0.101c-0.101,0-1.008,0.303-1.209,0.303
		c-1.562,0.05-3.878-0.202-5.087-0.202c-0.705,0-1.36,0.101-2.065,0.303h-4.937c-0.201,0-1.41,0.201-1.511,0.201
		c-2.72,0.101-5.339,0-8.059,0.303c-3.677,0-4.231,0.604-5.894,0.604c-0.453,0-1.813-0.202-1.813-0.202l-0.504-0.402
		C31.318,49.334,30.915,48.125,30.713,47.823z M35.851,62.682c0,0.051,7.152,0.807,7.304,0.907c0.151,0,0.453-0.151,0.453-0.151
		c1.511,0,3.778,0.151,6.397,0.151c0.302,0.15,0.907,0.302,1.209,0.302h8.361c1.259-0.554,1.209-1.158,1.914-1.662
		c1.007-0.403,1.511-2.065,2.619-2.316c0.907,1.007,4.835,2.367,4.835,3.979c0,1.662-0.806,2.065-1.511,2.267
		c-3.425,0-10.779,0.303-11.988,0.303c-0.604,0-0.655,0-0.907-0.151c-0.252,0-0.655,0.302-1.41,0.302h-3.325
		c-0.101,0-1.31,0.303-1.511,0.303c-0.454,0-1.31-0.151-1.914-0.151c-0.504,0-4.583,0.453-5.037,0.453
		c-1.36,0-2.569,0.151-3.324,0.151c-2.317,0.353-1.562-2.418-2.569-3.173c0-0.151-0.453-0.604-0.453-0.756v-0.151
		C34.995,62.732,35.398,62.682,35.851,62.682z"/>
	<path d="M80.233,81.117c1.712,0,1.662-0.101,2.267,0.151c0.957,0.05,1.36-0.303,2.267-0.303l0.453,0.151
		c0.907-0.252,0.403-1.008,0.755-1.511l1.965-3.325c0.453-0.906,1.511-1.662,1.511-2.72c0.101-0.554-0.201-0.604-0.453-0.604
		c-0.151,0-0.756,0.403-0.907,0.403c-1.159-0.303-0.957-0.303-1.662-0.303c-0.454,0-0.907,0.202-1.36,0.303
		c-0.957,0-1.562,0.201-2.468,0.201c-0.604-0.906-0.907-2.015-1.511-2.921l0.604-0.604c1.108,0,3.526,0.252,3.526-0.604
		c0-2.166,0.05-4.634-0.453-6.851c0-0.402-1.209-1.058-1.209-2.115l0.755-0.705c1.108,0,1.713,0.604,3.022,0.604
		c0.806,0,1.259-0.303,1.964-0.303h1.058c0.755-0.201,0.907-1.107,1.964-1.107c0.453,0,1.964,1.107,1.964,1.712v5.943
		c0.454,0,0.957,0,1.259-0.503c-0.05,0.05-0.151,0.05-0.202,0.05c-0.403,0-0.554-0.554-0.453-0.755c0-0.303,0.151-2.418,0.151-2.821
		c0-0.957-0.302-1.359-0.302-1.914c0-0.201,0.151-1.108,0.151-1.209c-0.101-0.302,0.151-1.712-0.755-1.712
		c-2.468,0.604-5.692,0.604-6.649,0.604c-0.453-0.303-0.755-1.209-0.755-1.813c0-0.303,0.151-0.604,0.604-0.705
		c2.267,0,4.533,0,6.8-0.604c0.151-0.604,0.554-0.604,1.208-0.604l0.202,0.302c0,2.116,0.403,4.634,2.821,4.634
		c0.302,0,1.712-0.101,1.813-0.101c0.907-0.201,1.511-1.107,2.418-1.107c1.108,0,1.813,1.208,1.813,2.115
		c0,0.201-0.101,0.806-0.101,0.906l0.101,0.303l0.201-0.101c0,0,0.302-1.411,0.302-2.016c-0.151-0.353,0.252-1.41-0.201-2.115
		c-0.856-0.654-0.957-1.058-0.957-1.964c0,0,0.403-0.555,0.856-0.555c2.569,0,5.289,0,7.858-0.302
		c0.554-0.555,0.604-0.604,1.511-0.604l1.209,1.209c0.252,1.158-1.36,0.806-1.058,1.914c1.41,1.511,1.662,0.604,1.662,2.316
		c0-0.201-0.202,3.022-0.604,4.533c-0.151,0.907-0.604,1.411-1.662,1.411c-0.454,0-0.907-0.303-1.662-0.303
		c-0.756,0-2.267,0.303-2.871,0.705c0.151,0.201,0.453,0.604,0.453,0.806c0,0-0.503-0.101-0.755-0.201
		c-0.05,0.554-1.007,0.907-1.209,1.713c-0.302,0.353,1.108,0.604,1.511,0.604c1.209,0,2.115-0.303,3.173-0.604
		c0.604-0.202,0.906-0.907,1.662-0.907c0.907,0,1.209,0.705,1.964,0.907c0.655-0.252,0.907,0.402,1.36,0.705
		c0.151,0.856-0.403,1.108-0.907,1.813c-0.453,0.705-2.871,0.806-3.777,0.806c-0.151,0-0.756-0.201-0.907-0.201
		c-0.554,0.05-2.871-0.202-2.72,0.201c0,0.403,0.302,0.705,0.302,1.209c0,0.604-0.302,0.906-0.302,1.511
		c0,2.115,3.173,0.756,3.173,3.022c0,1.359-1.511,2.267-1.511,2.871c0,0.302,0.453,0.453,0.604,0.453
		c1.813,0,2.569-1.965,4.382-1.965c1.763,0.907,3.626,1.512,3.626,3.778c0,1.511-2.77,1.511-4.281,1.511h-1.763l-0.302,0.151
		c0.05,0-1.864-0.453-3.325-0.453c-1.511,0-3.022,0.15-4.533,0.15c-0.907,0-2.015-0.15-3.022-0.15c-1.108,0-2.015,0.302-3.022,0.453
		h-0.806c-0.302,0-0.554,0.05-0.907,0.302h-4.684c-0.151,0-1.209,0.303-1.36,0.303c-0.604,0-1.007,0.201-1.511,0.302
		c-0.151,0-1.511-0.15-1.662-0.15c-1.159,0-1.914,0.402-3.022,0.604c-0.907,0.102-1.662,0.151-2.619,0.151
		c-0.403,0-1.007,0-1.511-0.151c-0.403-0.15-1.612-3.173-1.612-3.626C79.175,81.167,79.679,81.117,80.233,81.117z M96.855,49.435
		c-1.158,0-2.166,0.303-3.476,0.303c-0.755,0-1.058,0-1.511-0.151c-0.504,0.101-1.461,0.453-1.964,0.453
		c-0.252,0-0.706-0.05-1.209-0.05c-0.655,0-1.36,0.101-1.36,0.654c0,0.453,0.957,1.461,1.058,1.562
		c0.302-0.504,1.813-0.806,2.267-0.806c1.41,0,3.375-0.303,3.929-0.303c0.454,0,0.755,0.604,0.755,0.907
		c0,1.41-1.058,1.41-1.964,1.41c-1.813,0.101-3.626,0.403-5.439,0.403c-1.209,0-1.209-0.706-2.267-0.706
		c-1.31,0.303-2.115,1.008-2.871,1.914c0,0-0.302,0.202-0.504,0.202c-0.655,0-1.461-1.108-1.31-1.713
		c0-0.302,0.403-1.209,0.403-1.31c0.856-1.461,1.411-2.921,1.411-3.677l-0.202-0.604c0.302-0.504,0.302-1.511,1.108-1.511
		c1.511,1.31,2.317,1.863,4.382,1.812c0.151,0,1.058-0.302,1.209-0.302h1.662c2.015,0,3.677-0.604,4.433-0.604H96.1
		c0.353,0,1.562-0.201,1.562-1.209c0-0.604,0-1.058-0.604-1.209c-1.813,0-2.972,0.453-5.037,0.453c-2.166,0-2.065,0-2.569-1.208
		c0-0.151-0.604-1.059-0.604-1.209c-0.101-0.353,0.101-0.756,0.454-0.756c1.662,0,4.483-0.151,4.684-0.151
		c0.604,0,1.259,0.151,1.662,0.303c0.504,0,2.418-0.151,2.921-0.151c0.353-0.051,0.655,0.151,1.008,0.151
		c0.604,0,1.108,0,1.712-0.151c0.101-0.302,0.302-0.302,0.604-0.302c0.403,0,1.007,0.15,1.612,0.15
		c0.453,0.202,0.806-0.15,1.209-0.15c0.856,0.05,1.36,0,2.921-0.454c0.755-0.15,1.511-1.359,2.267-1.359
		c1.36,0,2.065,1.158,3.173,1.662c0.101,0.856-1.41,1.813-1.964,1.813c-2.417,0.503-4.13,0.302-6.396,0.302l-1.914,0.453v1.965
		c0,0.302,0.604,0.604,0.705,0.604h0.201c0.101,0,1.612-0.151,1.813-0.151h4.382c0.151-0.151,0.604-0.453,0.906-0.453l0.302,0.302
		h0.151c1.209-0.302,2.115-0.302,3.324-0.302c0.755-0.303,1.31-1.36,2.216-1.36c1.259,0,2.468,1.864,2.972,1.512
		c0.252,0,3.123,2.165,3.123,4.079c0,0.303-0.302,0.454-0.403,0.604c-0.907,1.159-2.216,1.713-4.433,1.713
		c-0.755,0-1.662-0.051-1.662-1.108v-2.568c-0.655-0.555-0.504-1.058-1.209-1.058c-1.511,0-2.921,0.15-3.778,0.15
		c-0.151,0-0.755,0.303-0.906,0.303l-0.454-0.151c-0.503-0.151-3.878,0.303-4.835,0.303c-1.41,0-3.022-0.151-3.022,1.511
		c0,0.604,0.101,1.058,0.101,1.713c0,0.101-0.302,1.158-0.302,1.611c0,2.972-0.705,4.231-2.72,4.734
		c-0.454,0.051-1.159,0-1.209-0.806l-0.302-4.332C97.359,52.004,97.963,50.039,96.855,49.435z M89.602,65.2
		c0.604,0,1.36-0.402,1.511-1.007c0-2.065,0.302-2.519-1.058-2.519c-0.705,0-1.612-0.051-1.964,0.806l0.302,1.209
		c0.252,0,0.604-0.101,0.604,0.504c0.151,0.201-0.302,0.302-0.302,0.604C88.695,65.1,89.3,65.2,89.602,65.2z M90.66,81.269
		c0.755,0,2.115-0.102,2.115-0.907c0-0.604-0.302-3.021-0.906-3.173c0,0.101-0.454,0.151-0.756,0.453
		c-0.906,0-1.208,1.209-1.662,1.209c-1.209,0.957-1.36,1.108-1.36,1.511c0,0.151,0,0.453,0.151,0.453
		C88.544,80.966,90.357,81.269,90.66,81.269z M90.811,69.936c1.108,0,4.231,0.453,4.231-1.209c0-0.604-0.756-1.512-1.209-2.015
		h-2.871c-1.712,0-2.72,2.015-2.72,2.72C88.242,70.086,89.854,69.936,90.811,69.936z M95.848,80.966
		c0.856,0.051,1.209-0.252,1.511-1.058c0-2.418,0.302-5.339,0.302-7.253c-0.454-0.806-1.663-0.604-2.418-0.604
		c-1.36,0-1.108,0.604-1.108,1.611c0.201,0.303-0.756,0.957-0.756,1.411v0.453c0.756,0.856,1.864,2.064,1.864,3.021
		c0,0.756-0.856,0.957-0.655,2.267C94.74,80.814,95.646,80.966,95.848,80.966z M99.172,63.991c0.403,0,1.511-0.101,1.813-0.604
		c0-1.208,0-2.115-1.41-2.115c-0.907,0-1.511,0.604-1.511,1.511C98.064,63.387,98.366,63.991,99.172,63.991z M99.424,69.481
		c3.022,0,3.425-0.101,4.886-0.654c0.856,0.302,1.007-0.907,1.007-1.31c0-1.108-0.604-2.015-0.705-3.022h-0.201
		c0,0.604-0.403,1.209-1.008,1.209l-3.929,0.403c-1.108,0.101-1.108,0.855-1.208,1.712c0,0.101-0.202,0.705-0.202,0.907
		C98.215,69.079,98.618,69.481,99.424,69.481z M102.899,80.966h5.339c0.302,0,0.604-0.453,0.604-0.604
		c0-0.15-0.453-1.209-0.453-1.662c-0.302-1.007-0.202-2.72-1.058-2.72c-0.151,0-0.302,0-0.504,0.151
		c-0.907,0.906-2.417,2.468-2.519,2.417c-0.755,0.051-0.907-0.15-0.907-0.755c0-1.461,1.813-3.778,1.813-5.037
		c0-0.906-0.151-1.209-0.907-1.209c-1.46,0-2.417,1.31-2.417,2.418c0,1.158,0.101,2.316,0.101,3.375c0,0.453-0.302,2.267-0.302,2.72
		C101.892,80.513,102.497,80.966,102.899,80.966z M103.403,50.795c1.965-0.604,4.231-0.453,5.742-0.453
		c1.36,0,0.907-0.907,1.511-1.058c1.007,0.302,2.267,0.554,2.267,1.964c0,0.957-7.908,1.863-8.814,1.863
		c-0.706,0-1.007-0.906-1.007-1.511C103.101,51.248,103.101,50.946,103.403,50.795z M104.31,62.984
		c0.252,0.302-0.05,1.209,0.302,1.209v-1.914l-0.201-0.101c-0.101,0.302-0.101,0.302-0.101,0.604V62.984z M108.994,59.156
		c0.554,0.302,3.476-0.806,3.476-2.115c-0.554-0.353-1.511-0.504-2.418-0.504c-0.302,0-2.72,0.201-2.72,0.806
		C107.735,57.595,108.843,59.156,108.994,59.156z M108.843,63.286h1.663c0.302,0,0.453-1.007,0.453-1.107
		c-0.151-1.209-0.05-1.411-1.36-1.411c-0.907,0-1.209,0.504-1.209,1.411C108.39,62.48,108.339,62.984,108.843,63.286z"/>
	<path d="M154.383,74.317c0-1.008,0.202-5.943,0.302-5.943c-0.101,0,0.302-1.813-0.604-1.813c-0.806,0-1.511,1.209-1.511,2.115
		c0,0.504,0.302,0.806,0.302,1.41c0,0.504-0.907,1.31-1.511,1.914c-0.856,0.856-2.116,1.512-2.418,2.015v0.403h3.627
		c0.403,0,0.907,0.302,0.907,0.806c0,0.303-1.159,0.705-2.418,0.705c-0.504,0-2.317,0.907-3.626,1.108
		c-1.763,0.201-3.626,1.26-5.944,1.813c-0.151,0-0.453,0.151-0.604,0.151c-1.662,0.503-3.224,1.107-4.835,1.511
		c-1.058,0.302-2.417,1.058-3.677,1.058c-0.705,0-0.604-1.461-0.907-2.115c0-0.151-0.604-1.058-0.604-1.209
		s-0.101-0.453-0.101-0.453c0-0.151,0.101-0.303,0.302-0.453c2.116-0.151,4.08-0.756,6.195-0.907c0.151,0,0.604-0.302,0.604-0.504
		c0-0.503-0.907-1.158-0.907-1.812c0-1.31,0.604-2.519,0.604-3.93c0-1.561,0.151-4.13-0.907-4.13c-0.604,0-1.058,0.201-1.662,0.201
		c-0.907,0-1.209-0.201-1.209-1.209c-0.151-0.101,0.151-0.402,0.151-0.806c3.022,0,4.684-0.402,7.555-0.705
		c0.454-0.201,1.36,0,1.813-0.504c0.302-0.302,0.453-2.82,0.453-3.324c0-0.604-0.151-1.209-0.604-1.511
		c-0.302,0-0.856-0.151-1.058-0.303c-0.151,0-0.755,0.151-0.755,0.151c-0.907,0.101-0.856-0.906-1.209-0.906
		c-1.41,0-4.08,4.382-5.289,4.986l-2.267,2.317c-0.907,0.705-2.015,0.906-2.418,1.914c-0.503,0.503-3.022,2.316-3.526,2.82
		c-0.554,0.504-1.058,1.007-1.813,1.007c-0.454,0-0.403,0-0.403-0.705c1.612-0.806,2.821-2.115,4.231-3.425
		c0.655-0.353,1.058-0.957,1.31-1.511c0.604-0.705,1.108-1.31,1.813-1.914c0.655-1.461,2.065-2.519,3.073-3.828
		c0.302-0.403,0.302-0.907,0.604-1.36c2.367-2.166,2.267-3.828,2.871-3.777c0.101-0.907,0.755-1.209,1.058-1.965
		c0.302-0.906,0.604-1.964,1.209-2.72c0.453-0.604,1.058-1.108,1.36-2.015c0.151-1.209,1.058-1.863,1.058-3.324
		c0-0.957-1.813-2.569-1.813-3.123c0-0.303,0.604-0.504,0.756-0.504c2.72-0.151,3.072,0.957,4.281,1.713
		c0.554,0.554,3.224,2.166,2.821,2.519c0,0.554-0.806,1.058-0.705,1.41c2.216,2.216,2.216,1.461,3.123,2.115
		c0.907,0.655,1.713,1.512,2.418,2.267c-0.05,0.504,0.101,1.058-0.101,1.512c-0.101,0.604-2.72,1.914-2.72,2.72
		c0,0.604,0.302,0.906,0.302,1.511s-0.202,1.209-0.907,1.36c-1.31,0-3.626,0.353-3.626,0.906c0,0.907,0.604,1.511,0.604,2.267
		c-0.252,0.252-0.353,0.856-0.504,1.108c0.756,1.209,0.151,1.209,1.108,1.209c1.612,0,2.166-1.562,3.626-1.41l1.209,1.208
		c1.208-0.503,1.208-2.468,1.31-3.626l0.302-0.303c0-0.101,0.201-1.058,0.201-1.209c0.655-1.511,0.907-3.072,0.907-4.835
		c0-1.108-0.604-1.108-0.604-1.965c0-0.906,2.317-0.654,2.317-1.562c0-0.855-0.151-1.46-0.503-2.267
		c-0.302-0.302-0.604-0.604-0.604-1.007c0-0.201,0-0.504,0.101-0.504h4.13c0.202-0.101,0.302-0.101,0.504-0.101
		c0.302,0,0.302,0.101,0.604,0.101c1.662,0.051,1.964-0.705,2.72-0.705s0.907-0.806,1.914-0.806c1.41,0,2.417,0.806,2.417,2.115
		c0.252,0.252-0.554,1.562-0.906,2.317c-0.504,0.855-0.403,2.367-0.403,3.324c0.302,1.209,0.604,2.115,1.007,3.324
		c0.706,0.957,1.612,1.965,2.468,3.022c0.604,0.705,1.159,0.906,1.964,1.863c0.756,1.008,0.756,0.957,1.209,1.31
		c0.907,0.806,1.813,1.511,2.871,2.115c0.453,0.705,1.511,0.403,1.511,0.907c0,1.107-3.173,1.511-3.778,1.511
		c-0.151,0-1.36,0.504-1.511,0.504h-0.201c-2.368,0-4.483-2.972-5.138-3.929c-1.461-1.914-1.411-1.864-1.612-2.619
		c-0.604-0.907-1.108-1.813-1.411-2.871c0-0.151-0.05-2.469-0.604-3.022c-0.302-1.813-0.403-3.476-0.403-5.339
		c0-0.101-0.202-0.303-0.302-0.403c-2.115,0-1.763-0.05-2.417,0.101c-0.101,0-2.418,0.252-2.418,0.907
		c0,1.511,2.418,1.863,2.418,3.374c0,0.604-0.806,1.059-1.108,1.512c-0.604,0.756-0.907,1.813-1.209,2.72
		c0,0.806-0.957,1.965-1.208,2.619c-0.504,1.209-1.108,2.519-2.015,3.425c0.202,0.202,0.202,0.303,0.202,0.504
		c0,0.504-0.353,0.806-0.302,1.31c0.101,0.202,0.604,0.806,0.705,0.907c0.454-0.051,0.604,1.712,1.713,1.712
		c0.705,0,1.863-0.05,1.813,0.101c0,0,1.461-0.453,1.713-0.402c1.863,0,1.964-0.504,2.518-1.108c1.31-0.654,0.806-0.453,1.209-0.906
		c0.655-0.807,1.209-0.907,2.418-0.907c0.101,0.303,1.259,0.604,1.511,1.209c0,0.705,0.957,1.209,0.957,1.713
		c0,0.101-0.655,1.41-0.655,1.511c0,1.26-0.05,2.115,0.202,3.022v5.943c0.05,0.201,0.302,1.058,0.302,1.36
		c0,0.302-0.302,1.41-0.504,1.511l-1.612,1.662c0,0-0.806,0.151-1.108,0.303c-1.763,0.101-1.259-2.721-1.914-2.721
		c-0.252,0-0.504,0.051-0.806,0c-0.906,0-3.425,0.151-3.727,0.151c-0.554,0-1.813-0.302-1.813,1.511
		c0,0.252-0.151,4.533-2.519,4.533c-0.806-0.251-1.813-0.604-1.813-1.511C153.88,81.167,153.779,75.274,154.383,74.317z
		 M140.834,75.828c1.562,0,2.166-0.151,2.317-1.511c0-0.504,0.302-2.922,0.302-3.324c0.252-0.252,0.151-0.403,0.151-0.604
		c-0.202,0.05-0.151-2.619-0.151-4.131c0-0.353-0.503-0.654-0.453-0.806h-3.324c-0.302,0-0.957,0.504-1.662,0.504l-0.151,0.101
		c0,1.612,1.763,2.015,1.964,2.82c0.151,0.504,0.705,1.411,1.209,1.914c0.05,0,0.453,1.31,0.453,2.016
		c-0.151,1.208-1.511,1.611-1.511,2.518C139.978,75.728,140.431,75.828,140.834,75.828z M141.187,56.234
		c2.62,0,4.685-0.201,6.951-1.058c0.604,0,1.007-0.806,1.511-0.604c0.302-0.302,0.151-1.359,0.201-1.359
		c-0.403-0.504-1.108-6.246-2.619-6.246c-0.302,0-1.007,0.604-1.31,1.108c0.101,0.402-0.856,0.957-1.41,1.511
		c-0.403,0.353-0.151,1.158-0.907,1.511c-0.302,0.151-1.108,0.454-1.209,1.209l0.151,0.453c0,0.907-1.663,1.965-1.663,3.022
		C140.884,55.933,140.884,56.084,141.187,56.234z M145.921,46.563c0.353,0,0.655-0.252,0.604-0.604c0-0.201-0.302-0.604-0.504-0.604
		c-0.403-0.05-0.403,0.353-0.403,0.706C145.619,46.262,145.619,46.563,145.921,46.563z M146.324,71.396
		c0.454,0.303-0.151,2.519,0.504,3.224c1.31,0.101,1.259-0.503,1.813-1.511c-0.051,0.101,0.403-1.209,0.403-2.015
		c0-0.101,0.503-1.209,0.503-1.31c0-1.058,0.353-3.728,0.907-3.728c0.403,0,0.403,0.604,1.007,0.604
		c1.108,0,1.209-1.813,1.209-2.418c-1.209,0-2.519,0.303-5.138,0.303c-1.31,0.806-0.907,3.929-1.209,5.54
		c-0.05,0.202,0.202,0.403,0.202,0.604c0,0.051-0.05,0.403-0.202,0.604V71.396z M158.211,71.899c0,0.806-0.101,1.612-0.101,2.317
		c0,1.058,0,1.914,0.806,2.82h3.526c0.403-0.453,1.612,0.151,2.116-0.806c0.101-0.907,0.403-2.115,0.403-3.123
		c-0.252-4.13-0.201-4.836-2.417-4.836c-0.706,0-3.929,0-4.332,0.706c0,0.201-0.201,1.107-0.201,1.208
		C158.01,70.389,158.211,71.698,158.211,71.899z"/>
	<path d="M181.136,58.199c0.302-0.655,1.712-1.158,2.216-1.813c0.503-0.604,0.957-1.058,1.41-1.662
		c0.353-0.806,1.108-1.008,1.662-1.511c0.604-0.604,0.756-1.31,1.058-1.209c0.302-0.101,0.957-1.813,1.662-2.72
		c0.604-0.756,0.655-1.461,1.662-2.418c0.302-0.555,0.403-1.008,1.058-1.41l-0.151-0.403c0.151-0.806,0.604-1.209,0.907-1.813
		c0.403-0.453-0.151-1.712,0.755-1.712c0.302,0,1.511,1.208,1.813,1.511c0.453,0.504,1.511,0.604,1.511,1.511
		c0,0.252-0.453,0.655-0.705,1.209c0,0.201-0.806,0.906-0.806,1.108c-0.151,0.302-0.554,1.007-0.907,1.31
		c0,1.209,0.856,0.906,1.511,1.108c1.36,0.101,2.065-1.059,2.619-2.016h0.705c1.209,1.159,2.015,0.907,2.015,2.469
		c-1.108,0-1.46,0.906-2.72,0.906c-0.202,0-0.806-0.302-0.907-0.302c-0.302,0-0.907,0.302-1.108,0.302l-0.302-0.302
		c-0.101,0-0.101,0.15-0.302,0.302c-0.151,0-1.209,0.303-1.511,0.303c-0.756-0.102-0.756,0.654-0.756,1.058
		c0,0-0.151-0.303-0.302-0.453l-0.151,0.15c0,0.504,3.022,1.26,3.022,3.022c0,0.504-0.403,1.713-1.158,1.713
		c-0.05,0-0.151,0-0.202-0.051c0,0.604-0.302,1.662-1.209,1.662c-1.46,0-0.151-5.439-1.36-5.439c-0.151,0-0.604,0.453-0.755,0.453
		c-1.36,0.151-1.813,1.562-3.022,1.964c-0.554,0.907-0.554,0.454-1.209,0.756c-0.302,0.151-0.454,0.604-0.907,0.907
		c-2.065,1.107-3.778,2.165-4.13,2.72c-0.806-0.252-0.655,0.453-0.907,0.604c-0.806,0-1.259,0.201-1.813,0.201
		c-0.101,0-0.604-0.201-0.604-0.302C178.819,59.357,180.532,58.351,181.136,58.199z M200.025,82.83c-0.655,0-1.31-1.209-1.31-2.016
		v-4.432c-0.051-0.102-0.806-1.209-1.108-1.36c-1.31,0-2.065,0.252-3.173,0.453c-2.367,0-2.216,0.403-2.72,0.756
		c-0.554,0-1.007-0.151-1.662-0.151c-1.058,0-1.662,0.303-2.72,0.604c-0.151,0-0.604,0.302-0.755,0.302h-1.36
		c-0.302,0-2.166,0.504-2.267,0.504c-1.612,0.101-1.31-0.504-2.116-1.41c-0.302-0.302-0.907-0.302-0.907-0.906
		c0,0,0-0.303,0.101-0.303h4.432c2.166,0,3.325-0.604,6.347-0.604c1.007,0,2.116-0.453,2.72-0.453h3.979
		c0.403-0.302,1.209-0.302,1.31-0.756c0.202-0.302,0.503-1.208,0.503-1.359s-0.302-1.209-0.302-1.36
		c-0.353-1.511,0.05-2.519-1.209-2.72c-0.504,0-1.058,0.101-1.209-0.151c-1.159,0.555-2.921,0.252-4.13,0.604l-0.302-0.151
		c-0.453,0-1.208,0.303-1.511,0.303c-0.151,0-0.302-0.151-0.302-0.303c-0.302,0.454-1.36,0.756-1.813,0.756
		c-0.755,0-2.569-1.209-2.569-1.813c-0.101-0.15,0-0.302,0.453-0.302c0.151,0,1.058,0.101,1.209,0.101
		c1.763,0.051,3.274-0.101,4.987-0.101c0.755,0,1.511-0.504,2.267-0.504c1.562,0,3.576,0.303,4.13-0.604
		c0-2.065-0.202-2.065-0.202-2.72c0-3.324-1.562-1.461-1.914-2.217c-0.504,0-0.907,0.151-1.41,0.403
		c-1.36-0.252-1.612,0.906-2.569,0.906c-0.302,0-0.454-0.101-0.756-0.101c-0.604,0-1.208,0.604-2.115,0.604
		c-0.756,0-1.209-0.201-1.209-0.201c-0.302,0-2.871,0.806-3.022,1.108c-0.151,0.302-0.353,0.755-0.454,0.705
		c-0.252,0-0.907-0.856-1.209-1.008c-0.453-0.302-1.813-0.201-1.813-1.41c0,0,0-0.302,0.101-0.302c2.921,0,4.533-0.151,7.304-0.706
		l0.453,0.102c1.058-0.102,2.116-0.604,3.626-0.604c0.604,0,1.259-0.555,1.511-0.403c0.454,0,0.806,0.101,0.957,0.101l0.403-0.101
		c0.504,0,2.418-0.051,2.317-0.604v-1.41c1.007-1.008,1.259-2.67,2.115-3.324c0.353-1.36,1.058-2.267,1.612-3.627
		c-0.252,0.151,1.209-1.461,1.209-2.468c-0.454-0.504,0.806-1.864,0.806-2.72c0.302-0.907,0.353-1.612,0.706-2.418
		c0.453-1.008-0.302-2.418,1.108-3.022c0.554,0,1.964,0.403,1.964,0.303l0.453,0.503c0,1.612,0.151,1.562,1.058,2.116
		c1.108,1.058,1.36,1.007,1.36,1.611c0,1.41-1.511,1.813-1.511,3.022c0,0.906,0.454,1.41,1.36,1.41c2.216,0,3.475-0.604,6.195-0.604
		c1.562-0.201,2.468-3.224,3.173-3.224c0.503,0,0.302,0.907,0.604,1.209c1.058,1.008,2.065,2.367,2.62,2.922
		c0.251,0.806-1.562,0.806-2.317,0.806c-0.403,0-0.806,0-1.208-0.051c-1.713,0.202-2.519,0.303-4.08,0.303l-0.151-0.303
		c-0.755,0.353-2.921,0.151-2.921,0.756c0,0.201,0.051,0.353,0.051,0.604c1.561,0.654,1.964,1.511,1.964,2.871
		c0,0.504-0.353,1.058-0.302,1.511l1.058,0.151c0.554-0.806,1.662-1.813,2.418-1.813c1.208,0,1.662,1.965,2.267,2.72
		c0.503,0.604,1.108,0.604,1.108,1.36c0,0.957-2.72,0.806-3.828,0.806c-1.209,0-1.562,0.051-1.964-0.201
		c-0.806-0.051-1.108,0.554-1.36,0.504h-3.324c-0.051,0.15-2.569,0.402-3.173,0.402c-0.302,0-1.411-0.101-1.713-0.101
		c-0.101-0.504-0.302-0.906-0.302-1.41c1.259-0.353,2.065-0.756,3.073-0.756c0.151,0,0.302,0.051,0.554,0.051
		c0.353,0,0.806-0.151,0.806-0.504c0-0.906-0.554-0.756-0.453-2.115l0.302-0.151c-0.454-0.151-0.454-0.756-0.454-1.058
		c0.05-0.051,0.151-0.555,0.302-0.756c0.05-0.402-0.302-0.554-0.302-1.058c0-0.453,0.151-0.302,0.151-0.604
		c0-0.151-0.604-0.453-0.756-0.604c-0.755,0.151-2.115,0.303-2.72,0.907c-0.504,1.058-1.058,0.906-1.712,1.812
		c-0.151,0.604-0.655,0.957-1.209,1.512c-0.353,0.05-0.957,0.957-1.511,1.359c-0.05,0.151-1.209,0.655-1.209,1.058
		c-0.101,0.303,0,1.209-0.604,1.209c0.302,0.202,0.604,0.303,0.906,0.303c0.504,0,1.108-0.101,1.713-0.101s1.31,0,1.31,0.906h-0.604
		c0,0.051-0.05,0.101-0.05,0.101c0,0.051,0.05,0.051,0.252,0.202c0.856-0.202,1.007,0.705,1.511,1.007
		c0.101,0.504-0.604,1.058-0.806,1.511c0.05,1.209-0.403,1.764-0.403,2.619c0,0.303,0.604,0.303,0.706,0.303h0.503
		c0.705-0.303,1.36-0.051,2.116-0.303l0.604,0.102c0.705,0,1.46-0.303,2.115-0.303c0.705-0.101,2.519-3.022,3.173-3.123h0.302
		c0.151,0.101,0.604,0.604,0.755,0.705c0.151,0.051,2.72,0.807,2.72,2.721c0,0.604-0.756,0.806-1.209,0.806h-1.058
		c-1.007,0-2.216,0.101-2.871,0.906c-1.562,0-3.576-0.503-5.037-0.503c-0.353,0.05-1.511,0.05-2.115,0.806
		c-0.454,0.604-1.007,1.058-0.706,1.964c-0.353,0.705,0,2.519-0.302,2.721c-0.202,0.806,0.453,0.906,1.007,0.906
		c1.058-0.201,2.317-0.453,3.677-0.453c0.856,0,1.058,0.15,1.511,0.15c0.453,0,1.108-0.503,1.36-0.453h3.022
		c0.907,0,1.36-0.755,2.418-0.755l0.302,0.15c0.604,0,1.158,0,1.36-0.906c0-0.151,0.755-0.604,0.755-0.756
		c0.756-0.906,0.957-2.568,2.267-2.568c1.209,0,3.224,2.267,3.224,3.324c0,1.259-0.604,1.511-3.526,1.511
		c-0.906,0.101-2.518,0.756-2.72,0.756c-0.302,0-0.604,0-0.755-0.151h-1.663c-0.151,0-0.755,0.604-0.906,0.604
		c-0.403,0-1.964,0-2.569-0.302c-0.302-0.051-0.856,0.302-1.209,0.453h-4.433c0.05,0.453-2.972,0-3.324,1.058
		c-0.101,0.906-0.101,1.662-0.101,2.568c0,0.907,0.302,0.907,1.007,1.209c0.302,0.202,0.806,0.504,1.108,0.504h0.655
		c0.353,0,0.655,0.051,0.856,0.303c3.375,0,2.972-0.202,5.289-0.202c0.554,0,1.461-0.453,2.267-0.453
		c0.454,0,1.007,0.051,1.662,0.051l0.907-0.504h2.72c0.554-0.907,2.115-2.267,2.72-2.267c0.302,0,0.302,0.151,0.302,0.302
		c0,0.303-0.302,0.655-0.302,0.957c0,0.604,0.252,1.26,0.252,2.015c0,1.36,0.554,2.267,0.554,3.426
		c-0.655,1.461-0.957,1.259-1.713,1.914c-2.267,0.705-3.526,1.107-4.986,1.107c-1.058,0-1.964-0.201-3.022-0.201
		c-0.453,0-0.755,0-1.208,0.201h-4.533c-0.353-0.201-0.604-0.201-0.856-0.201h-0.856c-1.36-0.402-2.972,0.151-4.231-0.705
		c-0.252-0.302-1.259-0.705-1.914-1.713C200.176,82.83,200.075,82.83,200.025,82.83z"/>
	<path d="M266.571,73.36c0-0.403,0.202-3.476,0.303-3.627c0-1.007-0.101-1.914-0.101-2.72c0-0.302,0.15-1.008,0.302-1.209
		c0-0.302-0.302-0.756-0.604-0.906c-0.05,0-3.072,0.15-10.325,0.15c-0.604,0.454-0.252,1.612-0.453,2.268
		c0,0.956-0.555,4.23-2.116,4.23c-1.058,0-1.914-0.957-2.267-1.813c0-10.829,0.151-11.837,0.151-15.866
		c0-1.108-0.151-2.519-1.259-2.921c-0.303-0.202-0.604-0.202-0.706-0.504c0.604-0.907,3.174-0.957,3.778-1.008
		c0.604-0.05,1.461,0.403,2.115,0.705c1.058,0,0.906,1.512,1.965,1.713c1.007,0,5.138-0.101,8.612-0.101
		c0.604-0.201,0.807-0.504,0.807-1.108c0-0.402-0.051-0.353-0.202-0.604c0.252,0.051,0.252-2.418,0.504-3.021
		c0-0.202-0.201-0.807-0.201-0.907c0-2.015,0-3.375-1.511-4.13c0-0.202,0.201-0.403,0.302-0.403c1.41,0,3.173-1.108,4.734-1.108
		c0.655,0,3.929,1.159,3.929,3.224c0,1.31-0.906,1.26-1.511,2.116c-0.906,1.259-0.906,2.519-1.209,4.029
		c0.151,1.007,0.101,1.511,2.519,1.511c0.201,0,0.806-0.101,0.957-0.101c0.705-0.101,2.619,0.101,3.929,0.101
		c1.965,0,2.418-2.82,3.929-2.82c0.303,0,0.453,0,0.756,0.101c1.914,1.158,3.878,2.015,4.584,4.029
		c0.05,0.907-0.604,0.907-0.907,1.31c-1.562,1.31,0.655,10.275-2.166,10.275c-1.964,0-0.856,1.713-2.72,1.713
		c-2.115,0-1.813-1.813-3.324-1.813c-0.151,0-0.303,0-0.453,0.151l-6.699,0.302l-0.403,0.453v1.813c0,0.151-0.201,0.756-0.201,0.907
		c-0.051,0.654,0.201,1.41,0.201,2.115c0,0.906-0.302,1.813-0.302,2.72c0,1.662,0.101,3.174,0.101,4.886
		c0,2.67-0.101,3.123-0.101,4.231c0,0-0.604,1.007-0.807,1.511c0,0.403-0.906,1.813-1.511,1.813
		c-2.871-1.36-2.115-4.986-2.115-9.268C266.521,75.123,266.571,74.267,266.571,73.36z M258.562,63.841h0.151
		c-0.101,0.05,3.828-0.303,4.433-0.303c1.26,0,2.569,0.051,3.627-0.453V56.89c0-3.224-0.252-3.627-1.713-3.627
		c-1.008,0-0.957,0.101-1.511,0.101c-1.813,0.202-4.231,0.202-6.195,0.202c-1.36,0.201-1.209,3.425-1.209,4.634
		c0,1.108,0.101,3.273-0.303,3.626C256.146,63.286,255.894,63.841,258.562,63.841z M276.293,63.085c1.813,0,4.231,0,4.231-1.662
		v-4.131l0.15-0.705c0-0.654,0-1.259,0-2.316c0-1.461-1.712-0.957-3.021-1.31c-0.051-0.101-0.807,0.101-1.209,0.101
		c-0.756,0-1.36-0.101-2.015-0.101c-0.706,0-2.116,0.05-2.418,0.101l-0.101,0.201c-0.353,2.519-0.303,5.289-0.303,7.908
		c0,0.705,0.051,1.461,0.604,1.763C273.522,62.934,274.933,63.085,276.293,63.085z"/>
	<path d="M302.14,75.324v-7.857l-0.151-0.504V54.724c0-2.972-0.302-5.843-0.302-7.757c0-1.461,0.15-2.82-0.807-4.029
		c-0.302-0.504-1.31-0.604-1.31-1.209c1.26-0.303,2.771-1.713,4.383-1.713c1.763,0.907,2.871,2.821,4.23,3.022
		c0.504,0,1.41-0.051,1.662,0.201h0.151c0.151,0,1.965-0.504,2.115-0.504c1.159,0,0.807-0.302,5.138-0.302
		c0.202,0,1.512-0.303,1.713-0.303c1.511-0.101,3.123-0.101,4.533-0.101l0.101-0.201c1.108,0,2.217-0.403,3.224-0.403
		c1.813-0.201,3.828-0.201,5.642-0.503c0.705-0.102,0.705-1.209,1.611-1.209c1.108,0,2.065,1.259,3.022,1.511
		c0.201,0,1.864,1.562,1.864,2.317c0,2.216-2.166,1.208-2.166,5.591c-0.051,0.151,0,0.353,0.201,0.755
		c0.051,1.864-0.201,3.526-0.201,5.138c0.402,1.813,0.503,3.93,0.503,6.196v13.649c0,0.151-0.201,2.015-0.201,2.418
		c-0.101,1.813-1.813,6.246-3.929,6.246c-1.31,0-1.209-2.721-1.914-3.224c-4.23,0-10.98,0.252-11.585-0.303
		c-0.705,0-1.511,0.202-2.115,0.202c-1.209,0-2.217-0.202-3.425-0.202c-2.116,0.403-3.879,0.303-5.944,0.907
		c-0.755,0-2.267,0.101-2.267,1.41c-0.302,0.705-1.813,3.324-2.72,3.324c-1.41,0-1.209-4.181-1.209-6.044
		C301.988,77.692,302.14,76.937,302.14,75.324z M306.37,67.77c2.116,0.101,4.383-0.604,6.347-0.604c1.914,0,4.131-0.907,6.045-0.907
		c0.604,0,1.107,0.102,1.511,0.102c0.504,0,1.713-1.311,1.713-1.813c0.05-1.461-0.202-3.174-0.202-4.937
		c-0.604-0.252-0.654-3.072-0.906-4.584c0-0.453-0.302-2.417-0.302-2.871c-0.102-0.453-0.303-0.453-0.706-0.604
		c-1.511,0-4.281,0.302-4.23,0.302c-2.015,0.151-3.979,0.151-5.943,0.302c-0.655,0.051-1.36-0.402-1.662-1.058
		c0-0.554,0.101-0.705,0.353-0.705c0.201,0,0.503,0.101,0.705,0.101c-0.202,0,3.525-0.302,5.943-0.302
		c0.906,0,1.813,0.051,2.72,0.051c0.705,0,1.511-0.051,2.217-0.202c0.906-0.151,0.906-1.662,0.906-2.267
		c0-1.31,0.403-3.626-1.209-3.626c-3.072,0-6.195,0.906-9.218,0.906c-0.453,0-2.871,0.302-3.324,0.302
		c-1.158,0-0.806,4.836-0.906,6.347c0,0.202-0.303,3.929-0.303,6.498c0,3.173,0.151,6.195,0.151,9.268L306.37,67.77z
		 M306.068,70.791v6.498c0,1.461,0.806,1.511,2.267,1.511c0.151,0,0.906-0.302,1.058-0.302c1.763,0,4.332-0.303,7.757-0.303
		c0.403,0,0.705,0,1.209,0.202c3.324,0.05,6.75-0.202,10.175-0.303c1.259,0,3.173-0.201,3.728-1.41v-2.72
		c0.252-0.303,0.302-0.453,0.302-0.756c0-0.151-0.05-0.302-0.05-0.504c0-0.15,0-0.402,0.251-0.705c0-1.763-0.302-3.828-0.302-4.533
		c-0.151-0.806,0.101-3.072,0.101-4.23c0-0.202,0-0.303-0.101-0.604l0.101-4.584v-4.23c0-0.454-0.101-2.569-0.302-3.022
		c-0.102-0.151-0.102-0.303-0.102-0.453c-0.15-0.051,0.102-0.353,0.102-0.907c0.05-0.353-0.102-2.568-0.102-5.591
		c-0.503-0.604-1.107-0.604-1.712-0.604c-0.403,0-2.115,0.101-2.115,0.604c0,0.655,2.316,1.108,2.316,2.418
		c0,0.906-0.604,0.906-0.604,1.31c0,0.504,1.008,1.108,1.008,1.562c0.201,0.151,0.504,0.755,0.604,0.906
		c-0.907,1.512-2.418,1.512-4.03,1.512c0,0-0.604-0.151-0.806-0.151c-3.224-0.101-3.224,0.101-3.224,1.209
		c0,0.604,0.202,0.755,0.202,1.209c0.101,1.359-0.051,4.583,0.956,4.583c0.354,0,0.957-1.562,1.461-2.771
		c0.101-0.503-0.302-1.158-0.402-1.812c0.15-0.252,0.402-0.303,0.705-0.303h1.107c0.706,1.058,1.813,1.108,1.813,2.468
		c0,1.512-0.806,2.569-1.511,4.332c-0.554,0.555-0.906,1.813-1.511,2.418c-0.303,0.604-1.411,2.015-1.411,2.619
		c-0.302,0.051,0.555,1.008,1.108,1.511c0.806,0.756,1.41,2.116,2.72,2.116c1.713,0,0.604-1.662,2.116-2.418
		c0,1.914-0.303,3.072-0.303,4.685c0,1.058,0.303,1.964,0.303,3.021c0,1.108-0.907,1.662-1.108,1.662
		c-1.713-0.554-3.123-3.072-4.332-4.382c-0.554-0.504-1.359-2.015-2.316-2.418c-1.008,0-1.26,0.101-1.813,0.454
		c-0.504,0.453-2.619,2.417-3.022,2.87c-2.065,1.209-3.525,3.325-5.792,4.131c-0.202,0-0.303-0.051-0.303-0.353
		c0.151-0.151,0.604-0.907,0.604-0.907c0.957-0.654,2.82-2.871,3.677-2.871c1.461-1.208,3.123-3.475,3.123-4.533
		c0-0.453-0.101-0.453-0.604-0.453c-3.324,0-7.908,3.627-9.822,3.627c-0.503,0-2.064-1.813-2.72-1.813
		C306.169,69.28,306.22,70.539,306.068,70.791z M309.997,54.271c0.856-0.051,1.612,0.604,2.115,1.209
		c0.756,0,2.116,0.15,3.022-0.151c0.906-0.151,1.209-1.058,1.813-1.058c0.856,0,1.511,0.654,1.713,0.906v2.72
		c0.101,0.303,0.101,0.504,0.101,0.604c0,0.907-0.101,1.713-0.101,2.619c0,0.604,0.101,1.008,0.101,1.612
		c0,1.41-1.31,1.108-2.721,1.108c-0.353,0-2.216-0.051-3.173,0.604c-0.453,0.402-1.209,1.914-1.813,1.914
		c-0.856,0-1.107-1.864-1.209-1.914v-9.269L309.997,54.271z M313.523,62.732c1.41,0,2.216-0.403,2.216-1.914
		c0-3.828-0.453-3.677-1.511-3.677c-1.31,0-1.813,0.302-1.813,2.267C312.415,60.314,312.062,62.732,313.523,62.732z M322.59,65.452
		c0.302-0.101,0.604-0.604,0.604-1.007l-0.202-0.202C322.892,64.596,322.539,65.2,322.59,65.452z M325.813,49.737
		c0.604,0,2.82-0.303,2.82-0.957c-0.604-0.655-0.906-1.108-0.906-2.116c0-0.604-0.403-2.921-1.512-3.324
		c-1.31,0-3.224,0.303-3.224,0.907c0,0.705,1.763,0.957,1.713,1.511v0.504c-0.655,1.058-0.806,1.41-0.806,3.022
		C324.302,49.888,325.259,49.737,325.813,49.737z"/>
	<path d="M353.12,81.722c0-1.612,0.604-2.367,0.604-5.138c0.201-3.274,0.151-6.246,0.151-9.722c0-2.166,0.201-7.555-2.62-8.613
		c-0.201-0.05,0.403-1.359,1.411-1.359c1.611,0,2.216-1.209,3.324-1.209c0.654,0.453,3.626,1.31,3.626,2.72
		c0,1.36-1.812,1.662-1.812,2.418v4.835c0,0.604,1.058,0.756,1.359,1.209l0.151-0.302l2.72-0.303
		c0.101-0.15,0.202-0.201,0.353-0.201c0.101,0,0.252,0.051,0.403,0.051c1.863,0,3.525-0.151,5.642-0.151
		c1.208-0.303,0.906-0.907,1.511-1.662c0.403-0.453,1.008-0.907,1.31-1.512c1.058-1.812,2.015-3.324,2.015-5.188
		c0-1.008,0-1.058-0.201-1.511c-0.353-0.756,0.806-1.209,0.806-1.914c0-0.303-0.504-0.303-0.806-0.504
		c-1.965,0-5.541-0.403-5.541,0.906c0,0.604,0.403,0.907,0.403,1.512s-0.403,1.208-0.403,1.863c0.101,1.41,0.303,0.806,1.31,1.813
		c0.303,0.705,1.713,0.755,1.713,1.964c-0.806,0.756-0.655,2.871-2.115,2.871c-1.813,0-1.813-3.626-2.619-3.626
		c-0.102,0-1.209,0.855-1.512,1.058c-0.302,0.151-1.964,2.115-2.267,2.267c-0.302,0.302-1.359,1.209-1.662,1.209
		c-0.654,0-0.604-0.454-0.604-0.907c1.864-1.863,4.131-4.734,4.131-7.605c0-0.655-0.504-1.008-0.957-1.511
		c-0.303-1.26,1.562-0.856,1.562-1.512l-0.303-0.101c-2.418,0-4.231,0.051-6.396,0.303c-1.209,0-2.569,0.402-4.08,0.402
		c-0.453,0-3.324,0.353-3.375,0.504c-0.252,0-0.906,0.101-1.31-0.201c-0.504-0.303-2.015-2.116-2.015-2.721
		c0-0.402,0.504-0.604,0.806-0.604c0.907,0,1.813,0.302,2.821,0.302c0.101,0.051,0.353-0.051,0.604-0.101
		c0.706-0.051,2.166,0.101,3.526,0.101c0.604,0,1.209-0.101,1.813-0.101c0.15,0,0.604,0,0.755,0.101h3.022
		c0.554,0,0.907-0.705,0.907-1.813c0-0.101-0.151-2.115-0.151-2.267v-1.31c0-0.604-0.101-1.108-0.303-1.562
		c-0.604-1.209-3.324-1.813-3.324-2.418c0-1.007,1.511-0.353,2.72-1.208c0.202-0.051,1.108-1.209,1.662-1.209
		c0.604,0,0.907,0.453,1.36,0.755c0.504,0,1.562,1.108,1.965,1.059c0.201,0,0.806,0.755,0.906,0.755
		c0.504,0.303,0.806,0.453,0.806,1.058c0,0.907-0.806,1.512-1.107,2.267c-0.102,0.604-0.102,0.907-0.102,1.512
		c0,4.08,0.303,4.281,1.612,4.281c0.957,0,2.72,0.101,2.921-0.504c0-1.511,0.403-2.568,0.403-3.627c0-1.511-0.101-3.324-0.403-4.835
		c0,0.201-0.604-1.209-1.107-1.209c-0.303,0-1.612-0.856-1.612-1.209c0-0.453,2.115-1.813,2.519-1.964
		c0.604-0.151,1.209-0.303,1.813-0.303c0.906,0,2.115,0.907,2.921,1.209c0.403,0.151,0.907,0.151,1.209,0.604
		c0,1.965-1.41,1.965-1.41,3.476c0,0.906,0,1.209,1.108,1.209c0.302,0.05,0.957-0.303,1.964-0.303
		c0.604-0.101,2.116-2.871,2.871-2.871c0.102-0.101,0.555,0.102,0.604,0.151l1.662,1.662c0,0.504,1.813,1.36,1.813,2.72
		c0,0.604-0.453,0.756-1.058,0.756c-1.36,0-2.72-0.151-4.231-0.151c0.102,0-4.734-0.15-4.734,0.756c0,2.972,0.201,4.433,1.864,4.433
		c1.511,0,2.87-0.303,4.23-0.303c0.705,0,0.856,0.102,1.36,0.102c1.007,0,1.863-0.102,2.871-0.102
		c0.101-0.15,0.906-0.806,0.906-1.208c0.201-0.354,0.151-1.36,1.209-1.411c0.906-0.05,2.267,1.411,3.224,2.619
		c0.554,0.705,2.015,1.612,2.115,2.217c0,0.604-0.302,0.906-0.806,0.906c-1.713-0.05-3.476-0.402-5.439-0.402
		c-0.907,0-1.965,0.101-3.022,0.101c-1.662-0.101-3.526-0.403-5.138-0.403c0,0-1.511,0.101-1.965,0.101
		c-0.252,1.26,1.36,0.807,1.36,2.116c0,1.107-0.906,1.511-0.906,2.316c0,1.864,3.173,1.813,3.173,3.778
		c0,0.906-1.965,2.115-1.965,2.87c0,0.454,0.454,0.454,0.756,0.454c1.058,0,1.965,0,2.871-0.604
		c0.453-0.202,0.453-2.267,0.453-4.533c0-0.756,0-1.562-0.15-2.116c-0.303-0.957-1.512-0.654-1.512-1.662
		c0-1.058,1.058-0.353,1.36-1.41c0.302-0.302,1.964-0.402,2.267-0.402c0.856-0.051,2.568,0.957,3.777,1.511
		c0.453,0.101,0.756,0.101,0.756,0.705c0,1.41-1.512,2.015-1.965,3.224c0,1.813-0.05,2.771,0.151,4.231
		c0,7.505,0.101,12.34-0.151,18.485c-0.15,0.302-0.453,0.604-0.604,0.906c0,0.252-1.46,2.317-2.871,2.317
		c-1.812,0-0.503-4.433-2.267-4.433c-1.058,0.101-1.763-0.303-2.568-0.303c-0.453,0-1.31,0.202-2.569,0.202
		c-0.201,0-1.511,0.302-1.712,0.302c-8.765,0-9.923,0.604-11.787,0.604c-5.238,0-4.281,0.604-4.533,2.418
		c-0.353,1.209-1.611,2.418-2.568,2.418c-0.756,0-1.511-1.209-1.662-1.813V81.722z M358.409,79.908c1.359,0,1.511-0.302,2.267-0.302
		c0.604,0,1.359,0.302,1.964,0.302c0.705,0.051,2.871,0.101,2.871-1.31c0-0.604-0.302-1.31-0.302-1.914
		c-0.102-0.604-0.102-1.611-1.008-1.611c-0.654,0-0.957,1.208-1.41,1.511c-0.051-0.554-2.065,2.316-3.324,2.316
		c-0.303,0-0.604-0.201-0.604-0.503c0-0.303,0-0.303,0.15-0.604c1.512-2.418,2.268-2.619,3.022-4.131
		c0-0.353,1.965-3.324,1.965-4.634c0-0.554-0.353-0.604-0.705-0.604c-0.454,0-1.662,0.101-2.619,0.101
		c-0.353,0-0.756-0.05-1.26-0.05c-0.604,0-1.259,0.151-1.611,0.654c0,0.504-0.151,2.619-0.151,3.022
		c0,2.317,0.151,4.785,0.302,7.152C357.955,79.606,358.258,79.808,358.409,79.908z M369.339,76.584c0.252,0,0.554-0.303,0.705-0.303
		c1.461-0.806,1.763-3.324,2.115-4.734c0.252-0.957,0.807-1.863,0.807-3.022c0.402-0.957-1.713-0.705-2.418-0.705
		c-1.41,0-4.734-0.05-4.734,0.604c0,1.008,2.015,1.008,2.015,1.914c0,0.303-0.756,1.662-1.209,2.115
		c0,0.555-0.051,1.059,0.101,1.209l2.115,2.116C368.835,76.231,369.339,76.533,369.339,76.584z M370.85,79.606
		c1.461,0,3.426,0.201,5.44,0.201c0.151,0,0.906-0.201,1.058-0.201c1.058-0.102,2.267-0.102,3.324-0.303
		c1.058,0,1.209-0.806,1.209-2.418c-0.051-0.201,0.101-0.402-0.151-0.604c0-2.064,0.303-4.281,0.303-5.742
		c0-3.324-0.453-3.072-1.512-3.072c-0.15,0-2.115-0.15-2.267-0.15h-0.302c-0.303,0-1.209,0.503-1.36,0.806
		c0,0.101,0.907,0.906,0.907,1.31c0,0.302-0.907,1.107-0.907,1.41c0.353,2.015,3.426,2.166,3.778,4.332
		c0,0.856-1.411,1.662-1.965,2.115c-0.604,0.705-1.209,1.41-2.115,1.41c-0.555,0-0.604-0.201-0.604-0.504v-0.503
		c0-1.764-0.504-3.426-1.108-3.426c-0.906,0-2.267,2.367-3.123,3.022c-0.654,0.554-1.209,0.705-1.41,1.611
		C370.044,79.304,370.347,79.606,370.85,79.606z M371.857,65.653l0.604-0.15c0.654,0,1.158,0.15,1.813,0.15
		c0.353,0,1.662,0,1.41-0.604c-0.504,0.102,0.302-2.77-0.907-3.324c-0.302,0.101-0.604,0.353-0.906,0.756
		c-0.302,0.756-1.36,1.158-1.813,1.813c-0.604,0.402-0.504,0.806-0.504,0.906C371.555,65.503,371.555,65.653,371.857,65.653z"/>
	<path d="M413.923,72.655c0.05-0.806-0.555-2.418-0.756-2.418c-0.303,0-1.209,0.403-1.511,0.604
		c-1.914,1.31-3.274,1.461-4.685,2.216c-0.202,0.202-0.705,0.604-1.512,0.907c-1.007,0.856-1.41,0.604-2.115,0.806
		c0.051,0.101-0.806,0.604-1.058,0.604c-0.655,0-1.259,0.604-1.863,0.604c-0.102,0-0.403,0-0.403-0.151
		c0.403-0.654,1.562-0.353,1.813-0.755c0.151-0.807,0.806-0.202,4.382-2.721c0.856-0.604,1.511-1.511,2.569-1.813l3.626-2.921
		c1.612-1.31,2.267-1.31,4.886-3.929c0.756-0.403,1.965-1.36,2.418-2.569c1.209-0.503,1.763-1.31,2.72-1.964
		c0.555-0.756,1.763-1.965,2.116-2.115c1.812-2.116,3.626-4.231,5.288-6.498c-0.05,0,0.151,0-0.151-0.504
		c-1.863,0-3.374,0.051-5.137,0.504c-0.202,0-0.807,0.302-0.907,0.302c-0.201,0-1.511,0.151-1.713,0.151
		c-1.058,0.201-5.741,0.856-5.741,1.662c0,1.31,1.662,0.807,2.921,1.813c-0.151,0.504,2.519,1.511,2.418,1.813v0.151
		c0,0.15-0.151,1.46-0.201,1.662c0,0.755-1.965,2.417-3.426,2.417c-1.209,0-1.209-1.208-1.41-2.115c0-0.151-0.302-1.511-0.302-1.662
		c-0.102-0.906,0-2.418-1.008-3.022c-2.267,0.604-3.375,2.67-5.642,3.476c-1.359,1.36-3.021,1.914-4.382,2.721
		c-0.151,0-0.604,0.604-0.756,0.604c-0.252,0.202-3.173,2.267-4.986,2.267c-0.201,0-0.504-0.15-0.504-0.453
		c1.512-1.158,3.576-1.712,5.037-3.021c1.058-1.059,1.813-1.159,2.871-2.116c0.453-0.302,0.604-0.906,1.058-1.209
		c1.512-1.058,2.418-2.267,3.476-3.626c0.856-1.058,1.965-1.813,2.922-2.922c0.906-1.007,1.511-2.417,2.216-3.626
		c0.051-0.051,1.41-1.612,1.41-1.813c0.101-0.101,0.303-0.604,0.303-0.604v-1.914c-0.202-0.201-0.504-0.806-0.504-0.906
		c0.201-0.604-0.403-1.008-0.403-1.209l0.303-0.202c0.05-0.101,1.158,0.555,3.021,1.813c1.663,0.655,1.461,1.008,2.116,1.713
		c0.604,0.604,1.914,2.115,1.914,3.123c0,1.41-3.728,1.259-3.728,2.72c0,0.705,1.461,0.604,1.914,0.604
		c0.353,0,1.259-0.303,2.015-0.303c1.259,0,2.216,0,3.022-0.302c1.058-0.101,1.359,0,2.417-0.303
		c0.555-0.201,1.059-0.906,1.813-0.906c0.655,0,1.965-1.612,4.08-2.418c0.806,0.101,0.101-0.604,1.36-0.604
		c0.15,0,1.46,0.856,1.964,1.713c0.604,0.604,1.41,0.906,1.41,1.813c0,1.259-2.619,3.173-2.619,3.173
		c-0.15,0-1.359,0.303-1.511,0.303c0-0.353-1.209,1.158-2.267,1.812c-1.209,1.059-2.418,2.418-3.777,3.325
		c-0.957,0-1.108,0.957-1.662,1.511c-0.151,0.151-0.907,0.604-1.059,0.756c-0.705,0.705-1.712,2.115-2.77,2.115
		c-0.252-0.252-0.907,1.209-1.512,1.209c-0.302,0.101-1.007,0.504-1.209,0.604c-0.302,0.353-0.654,1.259-1.259,1.259h-0.051
		c-1.058,1.158-2.267,1.763-3.324,2.821c0,0.957,1.36,0.604,2.115,0.906c0.102,0,0.604-0.101,0.706-0.101
		c2.316-0.201,4.432,0,6.698-0.201c0.454,0,3.022-0.403,4.685-0.403c0.151-0.201,1.209-0.806,1.36-0.907
		c0.453-0.503,2.267-2.316,2.72-2.72h0.756c0,0,1.662,1.209,2.267,1.813c1.964,1.31,1.914,3.274,1.914,3.929
		c0,0.353-0.604,0.907-0.807,1.31c0,0.504-0.201,2.115-0.201,2.619c0,0.705,0.201,3.979,0.504,4.383
		c-0.201,1.158-1.209,2.417-2.015,3.173c-1.209,1.158-2.166,2.418-3.476,2.418c-1.662,0-0.756-2.267-2.115-2.267h-4.231l-0.604,0.15
		h-4.835c-0.202,0-1.209,0.303-1.512,0.303h-2.72c-1.713,0.151-1.108,2.871-1.713,3.777c-0.302,0.453-1.611,1.512-2.417,1.512
		c-0.756-0.102-0.756-1.36-0.756-2.166c0-0.453,0.051-1.008,0.051-1.461c0,0.201-0.504-7.354-0.504-8.814
		C413.771,73.562,413.923,73.058,413.923,72.655z M419.715,79.304c1.058,0,2.468-0.151,3.929-0.151c0.252,0,0.403,0.102,0.655,0.151
		c0.05-0.05,2.77-0.453,5.843-0.453c1.058,0,3.425,0.554,3.929-1.511c0-4.131-0.151-3.375-0.151-6.498
		c-0.302-0.151,0.252-2.115-1.36-2.115c-1.058,0.101-6.195,0.402-7.303,0.604c-0.252,0-0.957,0.101-1.008,0.101l-0.302-0.101
		l-0.303,0.101c-0.756,0-1.108,0.151-1.209-0.353c-0.101,0.302-1.41,0.554-2.015,0.554h-0.604c-0.705,0-1.611,0.101-1.611,1.008
		c0,0.503,0,0.806,0.101,1.209C418.305,74.569,417.7,79.304,419.715,79.304z"/>
</g>
</svg>
