<?xml version="1.0" encoding="utf-8"?>
<!-- Generator: Adobe Illustrator 17.0.0, SVG Export Plug-In . SVG Version: 6.00 Build 0)  -->
<!DOCTYPE svg PUBLIC "-//W3C//DTD SVG 1.1//EN" "http://www.w3.org/Graphics/SVG/1.1/DTD/svg11.dtd">
<svg version="1.1" id="图层_1" xmlns="http://www.w3.org/2000/svg" xmlns:xlink="http://www.w3.org/1999/xlink" x="0px" y="0px"
	 width="480px" height="150px" viewBox="0 0 480 150" enable-background="new 0 0 480 150" xml:space="preserve">
<polygon fill="#A1A8AF" points="435,142 435,101 319.111,101 319.234,87.334 327.226,81.86 313.282,77.207 319.372,72.32 
	307,66.876 307,32 303,32 303,23 299,23 299,32 238,32 177,32 177,23 173,23 173,32 169,32 169,66.876 156.628,72.31 
	162.791,77.187 148.81,81.821 156.784,87.334 156.889,101 41,101 41,142 -13,142 -16,182 480,175 486.527,142 "/>
<g>
	<path d="M87.499,103.941c0-0.428-0.427-2.279-0.427-3.633c0-2.564,0.499-7.194-1.068-6.838c-0.214,0.214-1.282,0.642-1.496,0.854
		c-0.641,0-1.068,1.71-2.351,1.71c-2.422,3.062-5.556,5.983-8.761,8.191c-0.926,0.712-1.282,1.14-1.923,1.709
		c-1.282,0-0.997-0.569-1.282-1.566c0-0.713-1.211-2.422-1.282-2.992c0.071-1.068-0.855-0.712-0.855-1.709
		c0-1.068,7.265-3.847,8.761-4.274c1.353,0,2.778-1.495,4.273-2.137c1.14,0.143,2.351-1.495,3.846-1.495
		c1.638-1.639,1.709-1.068,1.709-2.778c0-3.49-0.213-6.909-0.213-10.328c-0.214-0.569-0.855-1.424-1.709-1.424
		c-2.992,0-5.983,0.997-8.761,1.709c-1.496,0-2.279,0.854-3.205,0.854c-1.282,0-1.211-1.923-1.709-2.563
		c-0.641-0.713-1.709-1.995-1.709-2.992l0.427-0.285h0.143c0.285,0,2.137,0.285,2.422,0.285h0.142l0.712-0.285
		c2.208,0,3.276-0.071,4.06,0.285c2.635-0.356,4.559-0.712,5.342-0.712l0.854,0.285c2.208-0.855,2.778-0.712,2.778-2.422
		c0.071-0.854-0.213-1.709-0.213-2.564c-0.214-2.564-0.214-5.128-0.214-7.693c0-0.213-0.214-2.351-0.214-2.635
		c-0.143-0.784,0.214-1.211,0.214-1.852c0-1.852-1.781-3.633-3.633-3.846c-0.356-0.855,1.781-1.068,2.778-1.567
		c1.781-0.926,2.066-1.424,3.633-1.424c0.57,0,0.997,0.57,1.496,0.57c2.208,0.997,3.348,1.994,4.131,4.273
		c0,1.425-2.992,3.775-2.992,5.627c0,0.641,0,0.854,0.428,1.496v3.633c0,0.712,0,1.496-0.285,1.923v10.47
		c-0.071,0.356-0.071,1.781-0.427,2.422c0,0.783,0.712,4.63,0.712,7.265c0,1.068-0.285,2.279-0.285,3.633
		c0,2.137,0.712,4.487,0.712,6.624c0,0.57-0.071,0.57-0.285,0.855c0,0.214,0.285,1.068,0.285,1.068
		c0.071,0.355-0.285,0.641-0.285,0.854v0.285c0.356,3.348,0.712,4.772,0.712,6.41v4.701c-0.783,0.499-1.354,1.852-1.994,2.137
		c-1.923,0.071-3.206-1.566-3.206-3.704C87.285,108.215,87.499,106.078,87.499,103.941z M104.451,104.796
		c-0.285-0.569-0.285-1.282-0.285-1.852c0-4.416-0.143-12.679-0.143-20.015c0-0.428-0.285-2.137-0.285-2.564
		c0-0.997,0-6.41,0.285-7.479v-0.641c0-4.63,0.143-10.685,0.143-10.898c0-0.641-0.143-1.14-0.143-1.282l0.143-0.712
		c-0.356-5.698-0.356-7.55-3.562-8.689c-0.285-1.282,0.854-1.211,1.709-1.567c2.493-1.211,2.635-2.564,4.915-2.564
		c1.282,0,2.778,0.712,3.847,1.282c0.641,0.998,2.35,1.567,2.35,3.277c-0.356,0.499-0.499,0.712-0.641,1.282
		c-2.707,2.707-3.419,4.274-3.419,6.838c0,0.143,0.214,1.496,0.214,1.71c0.071,3.276-0.285,5.627-0.285,9.117
		c0,0.712,0,1.353,0.499,1.78c1.638,0,4.06-1.068,5.983-2.351c1.425-1.424,2.849-4.06,3.206-4.06
		c0.783,0.499,1.638,1.353,2.351,2.137c0,0.427,3.419,3.348,3.419,4.06c0,0.57-2.208,1.282-2.992,1.282
		c-2.422,0.071-5.627,1.14-8.334,1.923c-1.353,0.356-4.629,0.499-4.487,2.564c0,0.284,0.214,1.566,0.214,1.709
		c0,2.493-0.214,6.41-0.214,7.266c-0.071,3.846,0.427,4.914,0.427,7.764c0,0.569,0.428,1.852,0.428,2.991
		c0.213,1.068,0.213,2.351,0.427,3.419c0,2.564,2.493,2.85,6.411,2.85c0.213,0,2.351-0.713,2.564-0.713
		c1.995,0,2.707-1.068,3.277-1.068c0.285,0,0.499,0.071,0.997,0.071c0.213-0.285,1.282-1.354,1.567-1.567
		c-0.071,0.428,0.926-2.422,1.709-3.205c-0.071-0.214,0.57,1.71,0.57,2.992c0.285,1.068,0.285,2.208,0.712,3.205
		c0,1.638,0.997-1.282,0.997,4.559c-0.57,0.427-0.427,0.569-0.854,1.282c-1.069,0.498-2.208,0.427-3.562,0.427
		c-2.636,0-5.414-0.285-7.978-0.285c-0.143-0.07-0.428,0.143-0.641,0.285c-1.567,0.071-2.422-0.285-3.419-0.285h-3.633
		C107.015,108.643,104.451,105.224,104.451,104.796z"/>
	<path d="M139.283,61.561c1.425,0,2.992,0.285,4.416,0.285c1.638,0,2.564-0.285,3.704-0.285c0.997,0,1.211,0,1.709,0.285
		c0.213,0,0.854-0.285,1.068-0.285c1.211-0.071,2.137,0.285,3.419,0.285c1.068,0,2.137-0.285,3.205-0.285
		c0.641,0,1.282,0,1.282,0.712c0,0.214-0.427,0.926-0.427,1.282c-1.068,1.709-4.487,0.854-5.556,1.424
		c-0.499,0.214-1.71-0.142-2.137-0.142c-0.213-0.214-0.783,0.427-1.068,0.427h-3.846c-0.926,0-1.425,0.926-2.279,0.926
		c-0.427,0-1.567-0.071-2.208-0.071c-0.712-0.427-3.419-2.778-3.419-4.131C137.788,61.49,138.429,61.561,139.283,61.561z
		 M147.403,105.793c1.852-2.563,4.345-4.63,6.41-6.979c1.425-1.781,2.778-3.42,4.701-5.271c0.499-0.569,1.354-2.422,2.351-2.422
		c0.641,0,0.427,0.143,1.14,0.713c0,0.712,2.279,2.279,2.279,3.561c0,0.855-0.854,2.992-1.709,3.704
		c-0.57,0.428-1.282,0.143-1.923,0.57c-0.213,0-1.068,1.14-1.282,1.14l-0.641,0.285c-0.926,0-1.781,1.424-2.351,1.281
		c-0.641,0.214-0.641,1.425-1.709,1.282c-0.784,0-1.354,1.282-1.923,1.282c-2.137,0.854-4.06,3.847-6.197,3.847
		c-0.427,0-0.427-0.285-0.427-0.428C146.121,107.931,147.047,106.221,147.403,105.793z M163.643,109.497
		c0-2.351,2.066-1.994,3.633-1.994c1.852,0,1.709-4.701,1.709-5.983c0-0.712-0.143-5.698-0.143-6.268
		c-0.071-1.781,0.427-3.348,0.427-5.129c0-0.569-0.427-1.994-0.427-3.49c-0.356-1.923-5.271-1.638-5.128-1.709
		c-0.143,0-2.279,0.854-3.49,0.854c-0.071-0.427-0.641,1.496-1.282,2.208c-0.428,0.854-2.564,1.425-3.206,1.425
		c-1.496,0-2.208-2.279-2.208-2.778c0-0.498,0.071-1.068,0.071-1.709l-0.214-0.854c-0.213-1.282,0.214-3.419,0.214-5.129
		c0-1.496-0.427-2.92-0.427-4.273c0-0.854,1.068-0.854,1.068-1.567c0-0.356-0.855-0.783-0.855-1.282
		c0-0.926,0.143-2.279-1.068-2.279v-0.285c1.068-0.143,1.709-0.57,2.992-0.57c1.709,0,2.778,2.279,5.342,2.279
		c0,0.071,0.641-0.071,1.069-0.143h0.285c0.143,0,2.137,0.427,2.279,0.427c1.709,0.143,5.271-0.285,7.978-0.285
		c0.427,0,0.57,0,0.997,0.285h8.69c0.214-0.213,2.351-1.353,3.846-2.849c0.712,0,0.926,0,1.425,0.428
		c0.427,0,4.701,2.351,4.701,4.559c0,0.427-1.425,1.923-1.852,2.778c0,3.703-0.285,6.838-0.285,8.761c0,0.997-1.638,4.06-4.273,4.06
		c-0.427,0-0.427-0.143-0.427-0.569c-2.422,0-1.567-3.49-5.271-3.49c-2.778,0-4.986,0.143-4.986,1.068
		c0,0.854,0.997,1.282,0.997,1.994c0,0.569-0.427,0.997-0.57,1.425c-0.285,2.422-0.285,4.985-0.427,7.265
		c-0.57,2.279-0.428,3.847-0.428,6.126l0.143,0.143c0,2.636-0.143,4.416-0.143,6.41c-1.424,2.707-1.638,2.065-2.564,2.992
		c-1.638,1.638-2.422,1.994-4.131,1.994c-0.641,0-2.137-2.707-2.279-3.419C164.925,110.352,163.643,109.782,163.643,109.497z
		 M188.074,63.698c-1.567,0-5.128,0.071-5.698-0.428c-1.068,0-1.638,0.285-2.421,0.285c-0.285,0-3.348-0.427-4.986-0.427
		c-0.142-0.428-0.427-0.712-0.854-0.712c-0.855,0-0.57,0.854-1.709,0.854c-0.57,0-0.855-0.142-1.282-0.142
		c-0.854,0-2.707,0.142-4.273,0.142c0,0.285-1.425,0.428-1.709,0.428c-0.143,0-0.428-0.143-0.57-0.143
		c-1.709,0-2.992,0.57-5.627,0.57c-0.071-0.214,0.071-2.137,0.213-2.564h3.419l0.427,0.285c0.214,0,0.784-0.071,1.14-0.285
		c3.277,0.214,2.279-4.202,2.279-9.829c-0.854-1.211-2.564-1.923-2.564-3.206c0.285,0,0.712-0.427,0.854-0.427
		c1.282-0.641,2.422-1.709,3.847-1.709c1.567,0,7.978,1.068,7.978,3.205c0,1.069-0.855,1.709-1.282,2.564
		c-0.712,0.854-0.427,2.137-1.282,2.992c0,2.351-0.071,3.775,0.143,5.413c0.427,0,0.712,0.143,0.712,0.57
		c0.783,0,1.852,0.071,2.707-0.143h9.972c1.852,0,2.707-1.14,4.417-1.994c0.285,0,1.567-0.641,1.709-0.641
		c0.854-0.427,1.709-0.854,2.849-1.068c1.282,0.854,2.137,1.709,3.205,2.849c1.068,0.997,2.564,1.852,2.564,3.419
		c0,1.211-0.57,1.496-1.71,2.137l-7.336-1.282c-0.854-0.285-1.282-0.854-2.137-0.854C190.069,63.556,189.214,63.698,188.074,63.698z
		 M160.224,81.933c1.211,0,3.063,0.854,3.633,0.854c0.285,0,0.854-0.428,1.14-0.428c0.784,0,2.635,0.071,2.564-0.214h9.402
		c0.143,0,1.709,0.214,1.994,0.214c0.143,0.214,1.567-0.427,2.707-0.427c0-0.499,0.712-1.354,0.427-1.924
		c0-0.214,0.427-2.564,0.427-2.777c0.499-3.063-2.493-3.206-3.846-3.206h-13.961c-1.496,0.285-5.2,0.641-5.2,1.71
		c0-0.143,0.071,2.065,0.071,2.35C159.583,80.365,159.298,81.647,160.224,81.933z M180.809,93.685
		c-0.427,0.143-1.14-0.926-1.282-0.997c-0.285-0.854,0.998-0.854,1.709-0.854c0.712,0,1.14,0.427,2.849,0.427
		c0.143,0,1.852,0.57,2.137,0.57c2.137,0.712,3.846,0.854,5.698,2.137c1.424,1.496,3.775,2.279,4.131,4.701l0.214-0.143
		c1.211,0.498,1.068,0.997,1.068,1.567c0.712,0.284,0.855,1.139,0.855,2.279c-0.641,1.78-3.206,2.849-4.986,2.849
		c-0.997,0-3.134-1.639-3.419-2.422c-0.071-1.282-1.282-1.211-1.709-2.564c0-0.498-3.989-4.7-5.698-6.695
		C182.091,94.396,181.094,93.97,180.809,93.685z M186.863,86.277c0.926,0,1.923-0.143,1.923-1.14c0-0.642-1.14-1.71-1.709-1.71
		c-0.712,0.57-0.427,1.211-0.427,2.564C186.65,86.206,186.721,86.277,186.863,86.277z"/>
	<path d="M227.964,111.705c0.855,0,1.709-1.282,2.564-1.282c0.997,0,3.348-1.14,4.416-2.137c0.143-0.214,0.57-1.068,0.997-1.282
		c0.926-0.284,0.998-0.783,1.995-1.495c0-0.57,1.282-1.282,1.282-1.924c0-0.213-0.285-0.641-0.712-0.641h-9.83
		c-0.499,0.214-1.14,0.214-1.781,0.214h-1.638c-2.635,0-2.92,0.712-2.849,2.137c0,0.997-1.496,4.273-3.562,4.06
		c-0.285,0-0.854-0.641-0.854-0.854c0-2.636,0.143-4.273,0.427-4.487c0.071-1.211-0.356-2.564-0.285-3.847
		c0-0.214,0.285-1.495,0.285-1.709c0.143-2.564,0.143-4.986,0.143-7.551c0-0.142,0.285-1.281,0.285-1.424
		c0-0.713,0-1.995-0.854-1.995c-0.926,0-4.203,2.066-5.841,3.847c-2.137,0.712-2.992,2.991-5.342,2.991
		c0.854-0.997,2.137-2.137,3.419-2.706c0.213-0.428,1.709-2.422,1.923-2.85c0.641-0.569,1.496-1.282,1.923-2.137
		c0.57-1.994,1.923-2.849,3.062-4.273c-0.285-0.854,5.698-5.841,5.698-8.547c0-0.285,0-0.427-0.142-0.855
		c-1.995-0.071-1.852,0.784-2.564,1.852c0,0.285-1.14,0.855-1.14,1.14c-0.57,0.569-1.282,2.137-2.279,2.137
		c-0.285,0-0.712,0-0.712-0.285c0.855-3.134,0.428-6.41,0.712-9.544c0-0.784,0.143-2.422,0.143-2.422
		c-0.214-0.214-0.143-1.567-0.143-2.778c1.425,0,2.564,1.781,4.274,1.781c0.997,0,1.709,0,1.709-1.354c0-0.855,0-4.06-1.14-4.487
		c-1.282,0-1.852,0.285-2.778,0.285c-0.213,0-0.427,0-0.641-0.071c-2.137,0.428-4.487,1.282-6.838,1.282
		c-2.564,0-1.068-1.709-1.923-2.778c-0.071-0.071-0.499-1.068,1.923-1.068c2.065,0,3.276,0.427,4.131,0.427
		c0.57,0,3.49-0.427,5.556-0.427c1.282,0,1.424-1.211,1.424-2.065c0-1.211,0.143-2.208-0.427-3.063
		c-0.143-0.427-2.279-1.211-2.279-1.781c0-0.997,2.279-0.997,2.992-0.997h0.57l2.991,1.496c0.712,0.214,0.712,1.068,0.712,1.496
		c0,0.427,0,1.068-0.285,1.282c-0.57,2.778-0.998,6.197-0.998,8.975c0,0.427,0,1.282,0.143,1.709
		c0.427,0.854,3.846,0.427,3.846,1.496c0,0.071-0.427,0.854-0.427,1.068c-0.285,1.923-0.57,2.92-0.57,5.983l-0.285,0.285h-3.847
		c0,0-0.427,0.143-0.427,0.427c-0.143,2.137,1.211,3.347,2.564,4.701c0.285,1.71-3.134,2.208-3.134,3.847
		c0,0.712,1.425,0.712,1.709,0.712c0.855,0,1.709,0,2.564-0.427c0.499-0.285,1.282-3.206,1.282-3.989
		c0.428-1.282,0.143-2.279,0.428-3.561c0-0.356,2.137,0,2.137-1.567c0-1.354-0.071-3.49,0.143-3.846
		c0.142-1.852-0.214-4.06-0.143-6.197c0-0.213,1.282-1.496,1.282-1.709c0.57-2.351,0.854-4.488,0.854-7.052
		c0-3.419-0.854-2.707-1.994-4.487c-0.143-0.784,1.282-1.282,1.852-1.282h0.143c0.427,0,1.995,0.214,1.995,0.214
		c-0.712,0,2.991,0.854,2.991,2.351c-0.356,1.424-1.14,2.707-1.14,4.273c0,0.427,0,1.068,0.712,1.068h2.564
		c0.854,0,1.425-1.282,2.279-1.282c0.712,0,3.419,2.137,3.419,2.778c0,0.427,0,0.641-0.143,0.854c-1.496,0-2.422,0.356-2.991,0.641
		c-1.994,0-3.419,0.143-5.414-0.214c-0.143,0-1.425-0.213-1.709-0.213c0,0.142-0.071-0.071-0.428,0.213
		c0,0.427,0.285,0.641,0.285,1.282c0,0.855-0.712,1.496-0.712,2.778c0,0.641,0,1.282,0.712,1.282c1.709,0,3.205-0.855,5.129-0.641
		l0.997,1.068v0.712c-0.428,0.499,0.071,2.279-0.428,2.707c-0.143,0.997,0,4.416-0.498,4.416c-1.283,0-1.567-0.57-2.066-0.57
		c-0.57,0-0.997,0.428-1.709,0.428c-4.701,0-2.849,2.564-4.273,3.419c-0.071,3.347-1.995,3.276-1.995,6.125h6.126
		c0.712,0.071,1.353-2.85,2.707-2.85c1.14,0.713,1.995,2.422,1.995,3.704c0,0.498-0.143,1.425-0.854,1.425h-6.269
		c-0.356-0.071-1.282-0.071-1.425-0.428c-0.427,0.285-2.279,0.071-2.279,2.991c1.425,1.853,0.712,2.564,2.849,2.564
		c0.855,0,2.992-0.143,3.419-0.57c0.712-0.427,1.14-1.709,1.995-1.709c0.427,0,0.427,0.428,0.427,0.854
		c0,0.57-0.285,0.997-0.285,1.425c0,1.709,0.854,2.849,0.854,4.273s-0.57,2.208-2.635,2.208h-2.066c-1.638,0-3.062,0.356-3.704,1.71
		v2.351c0.356,0.427,0.997,0.498,1.496,0.498c0.855,0,1.781-0.071,3.348-0.071c0.641,0,2.279-2.351,2.992-2.351
		c0.57,0,0.855,2.564,2.565,2.564c0.854,0,2.706-3.633,3.134-4.487c1.353-3.847,2.421-6.695,3.276-10.114
		c0.926-3.49,1.923-7.265,1.923-11.111c0-1.14-0.854-1.14-0.854-1.994c0-0.427,3.49-1.282,4.487-1.282c0.641,0,2.351,0,2.351,0.855
		c0.214-0.428,0.427-0.428,0.641-0.428c0.428,0,0.428,0.57,0.428,0.712c-0.214,0.57-0.642,3.419-0.854,3.846
		c0,0.143-0.428,0.998-0.428,1.282c-0.285,1.14,0.854,1.71,0.854,3.276c0,0.57,0,0.855-0.214,1.282
		c0.642,1.282,0.855,3.847,0.855,4.416c0.498,2.137,0.783,3.419,2.351,5.841c0.498,1.14,2.777,2.707,2.777,3.847
		c3.276,3.205,4.63,5.271,8.405,7.479c-0.642,0,3.562,1.354,3.562,2.778c-1.496,0.284-3.918,0.854-5.129,0.854
		c-0.783,0-1.496,1.14-2.706,0.854c-0.428,1.282-1.71,0.428-2.209,1.282c-0.854,0.071-1.068-0.356-1.281-0.854
		c0-1.068-1.14-1.924-2.138-2.992l-2.137-2.35c-1.068-1.069-3.419-5.77-3.419-7.052l0.214-0.428c-0.143,0-0.641-2.422-0.641-3.847
		c0-0.284,0.214-1.14,0.214-1.281c-0.071,0,0.213,0-0.214-0.713c0-0.926,0.427-1.211,0.427-2.991
		c-1.068-0.569-0.427-3.134-1.282-3.134c-0.213,0-0.427,0.071-0.641,0.143c-1.068,2.137-1.71,4.273-2.351,6.41
		c0,0.285-0.428,0.854-0.428,1.14c0,0.143-1.068,1.852-1.068,2.137c0,0.143-0.641,1.852-0.641,2.137
		c-0.356-0.143-1.068,2.208-1.71,3.205c0,0-1.994,2.351-2.563,3.205c-2.707,3.419-5.77,4.701-8.833,6.838
		c-0.143,0-0.855,0.855-0.997,0.855c-0.428,0.214-0.855,0.214-1.282,0.427c-0.285,0-1.995,1.068-2.279,1.068
		c-1.354,0-2.992,1.71-4.701,1.71c-0.427,0-1.282,0-1.282-0.642C226.254,111.919,227.537,111.919,227.964,111.705z M220.556,69.539
		c0,0.071,0.285,0.855,0.57,0.998c1.282,0,2.992-0.143,2.992-1.425v-2.564l-0.143-0.428c-0.712,0-2.92,0.071-3.276,0.143
		l-0.143,0.285V69.539z M222.194,87.061c0,2.137,1.923,1.425,2.778,1.994c2.137-0.143,4.273,0.428,4.273-2.137
		c-0.427-1.282,0.356-2.849-1.852-2.849c-0.142,0.355-2.849,0.284-4.273,0.284c-1.14,0-0.855,1.282-0.855,1.853
		C222.266,86.349,222.194,86.704,222.194,87.061z M226.967,100.38c0.855,0.214,2.137-0.997,2.137-1.923
		c-0.926-1.14-0.926-2.137-2.421-2.137c-0.428,0-4.274,0.427-4.417,0.854c0,1.78-0.142,2.279,0.998,2.991
		C223.975,100.166,226.254,100.38,226.967,100.38z M226.112,94.61c0.071-0.214,3.134-0.214,3.134-1.282
		c0-1.495-1.923-1.994-2.992-1.994c-1.282,0-3.846-0.356-3.846,1.71C222.408,94.61,224.759,94.61,226.112,94.61z M234.232,94.325
		c1.282,0,4.131-0.07,4.559-1.852c-0.427-1.14-2.564-0.854-3.276-1.14l-0.427-0.143c-1.995-0.143-2.992,0.499-2.992,2.137
		C232.095,94.255,233.449,94.325,234.232,94.325z M235.514,70.536c0.427,0,1.211-0.143,1.709-0.143
		c0.712-0.285,1.282-2.564,1.282-2.992c0-1.354-1.995-1.567-2.992-1.567c-0.427,0-0.854,2.849-0.854,3.419
		C234.66,69.966,234.66,70.536,235.514,70.536z M245.201,72.53c0.428-1.567,0.854-3.276,1.425-4.701c0-0.285,0.712-1.14,0.712-1.282
		c0.926-2.636,0.854-5.414,2.351-7.978c0.428-0.855,0.428-1.923,0.642-2.778c0.07-0.712,0.854-2.208,0.854-3.632
		c0-0.499,0-0.997-0.214-1.282l-2.636-2.564v-0.214c0.997-0.712,2.279-0.854,3.49-0.854c2.992,0,3.348,0.427,5.129,1.496
		c0.854,0,2.208,1.496,2.351,1.496v0.214c0,0.427-0.642,1.923-1.068,2.137c-2.992,1.709-2.564,2.564-3.633,5.556
		c-0.428,1.068-1.282,2.137-1.282,3.419c0,0.855,0.641,1.282,1.496,1.282c2.137,0,4.487,0.143,6.624-0.854
		c1.496-0.57,2.777-2.137,4.273-2.992c0.641,0,1.068,0.641,1.354,0.854c0.569,1.638,2.564,3.134,2.564,4.274
		c0.569,1.14,1.852,1.994,1.852,3.276c0,0.57-0.57,0.143-0.997,0.427c-1.496,1.425-3.918,1.709-5.413,2.564
		c-1.71,0-1.781,1.14-3.633,1.424c-0.214,0-0.214-0.142-0.214-0.427c0.356-1.567,1.282-3.276,1.282-5.128
		c0-0.499-0.356-0.926-0.854-0.854c-0.428,0-3.419,0.427-3.847,0.427c-1.496-0.285-2.636,0.712-4.273,0.712l-0.428-0.285
		l-2.137,0.285c0,0.712-0.641,1.282-0.854,2.279c-1.425,1.14-1.781,3.205-2.636,4.559c-1.567,1.567-1.852,5.128-4.273,5.128
		c-0.428-0.713-0.569-0.428-0.569-1.14C243.064,75.878,244.561,74.382,245.201,72.53z"/>
	<path d="M292,103.514c-0.213,0-1.068,1.14-1.281,1.14l-0.642,0.143c0.854-0.214-3.276,3.276-4.915,3.276
		c-0.712,0-1.139-0.427-1.281-1.14c-1.354-1.78-4.346-4.273-4.701-4.273c-0.285-0.143-0.285-0.143-0.285-0.428
		c0-0.427,0.428-0.427,0.712-0.427c0.997,0,2.138,0.712,3.135,0.712c0.427,0,1.709-0.285,2.137-0.285
		c0.641,0,1.566-0.854,2.422-0.854c0.641-0.427,1.709,0.214,1.923-0.569c-0.214,0.071,2.351-1.14,2.991-1.14
		c2.422,0.355,2.564-2.707,2.564-5.343c-0.285-0.498-0.428-0.926-0.428-1.495v-1.71c-0.712-0.926,0.285-3.419-1.495-3.419
		c-0.642,0-0.642,0.428-1.068,0.428l-0.214-0.214c-1.211,0.57-3.918,1.71-5.983,1.71c-1.282,0-1.566-0.855-2.137-1.496
		c-0.428-0.428-1.567-0.854-1.567-1.709l0.428-0.214c0.214,0,0.783,0.071,1.14,0.214c3.419,0,3.988-1.068,5.556-1.068
		c1.923,0,4.061,0.142,5.77,0.142c0.997,0.642,1.14-1.852,2.564-1.852c0.641,0,1.709,1.282,1.709,1.852
		c-0.926,0.927-1.068,4.203-1.068,4.986c0,1.78-0.071,3.846,0.214,5.556c0.641,1.638-0.214,4.202,1.282,5.342
		c0.641,1.068,2.849,1.068,4.273,1.282c0.997,0,1.994,0.854,2.85,0.854h1.852c0.854,0,1.496,0.57,2.422,0.285
		c1.282,0.143,6.838,0.854,8.12,0.854h0.569c0.713,0.143,3.989,0.143,4.559,0.143c1.71,0,2.85-0.427,4.559-0.427
		c0.499-0.214,0.997,0.284,1.71,0.284c1.78,0,4.559-1.281,6.553-1.281c3.348,0,4.986-0.713,7.764-1.282
		c0.285,0,0.713,0.284,0.642,0.569c-1.995,0.854-2.422,2.707-4.061,4.273c-1.495,1.995-1.923,2.992-4.772,2.992
		c-0.926,0-1.424,0.143-1.852-0.143c-1.068,0-2.422,0.143-3.419,0.428h-16.524c-1.567-0.428-2.992-0.428-4.559-0.855
		c-2.707-0.783-5.983-1.282-8.762-2.564c-0.926-0.926-2.422-1.353-3.419-2.137c-1.14-0.854-1.709-2.991-2.991-2.991
		C293.71,101.733,293.639,102.588,292,103.514z M290.932,69.04h0.428c0,0.071,3.348,2.279,3.847,2.778
		c0.641,0.428,2.991,1.496,2.991,1.923c0,1.709-1.354,4.06-3.633,4.06c-1.068,0-0.854-1.425-1.068-2.136
		c-0.641-2.351-1.496-4.274-2.564-6.411V69.04z M292.855,54.652c1.424,0.712,2.279,1.995,3.633,2.85
		c1.495,1.496,3.846,1.14,3.846,3.561c-0.569,1.211-0.997,3.917-2.991,3.917c-1.853,0-2.351-3.989-3.633-6.197
		c0-1.496-1.71-2.279-1.71-3.704C292,54.937,292.428,54.652,292.855,54.652z M307.029,87.701c0-2.208,0.57-5.627,0.57-6.196
		c0-0.783-0.214-4.559-0.428-4.559c0-1.353-0.071-2.564,0.285-4.06c-0.285-0.213-0.285-0.427-0.285-0.641
		c-0.143-0.071,0.285-0.57,0.285-1.282c0.143-0.214-0.854-1.068-0.854-1.923c0-3.276-1.211-6.268-2.85-8.832
		c-0.427-0.427-1.709-0.926-1.709-1.282l0.427-0.143c0.855,0,1.282,0.427,1.71,0.855c1.566,0.997,3.419,1.852,5.128,1.852
		c0.713,0,1.71-0.142,2.137-0.569c0.57-1.069,1.14-1.14,1.71-1.71c1.211-2.137,3.419-2.421,3.419-4.701
		c0-0.285-0.143-1.995-0.143-2.137c0.143,0-0.498-1.994,0.57-1.994c1.638,0,5.271,1.709,5.271,4.131
		c0,2.351-1.567,1.994-3.276,3.561c-2.065,1.852-3.775,2.208-5.413,3.847c-0.499,1.211-1.14,2.279-1.853,3.276
		c0,0.214-1.14,0.854-1.14,1.068l-0.143,0.427c0,0.356,0.143,6.553,0.143,9.402c0,0.284,0.285,2.991,0.285,3.276
		c0,0.143-0.285,0.854-0.285,0.997l0.285,0.712c0,0.784-0.071,1.354-0.071,1.924c0,0.712,0.071,1.281,0.499,1.923
		c2.137,0.214,3.419-1.639,5.271-2.422c0.783,0.285,1.14,0.712,1.14,1.282c0,1.14-0.428,1.282-0.926,1.282h-1.068
		c0.143,0.071-1.71,0.926-1.853,1.14c-0.498,0-2.635,3.062-4.131,4.06l-3.847,3.847c-1.14,0.284-2.279-0.998-3.205-1.496
		c-0.427-0.214-1.282-0.428-1.282-1.282C303.468,90.408,306.531,88.912,307.029,87.701z M319.851,98.386
		c0-5.129-0.428-10.043-0.428-15.029c0-1.923,0.428-1.923,0.428-2.706c0.071-0.784-0.285-1.068-0.285-1.567
		c0-1.282,0.285-2.279,0.855-3.418c-0.214-0.784-0.071-1.425-0.428-1.923c0.143-0.712-0.214-2.564,0.428-3.846
		c-0.428-1.852-0.499-3.276-0.998-5.128c-0.427-0.855-1.14-2.137-1.14-3.277c0-0.142,0-0.427,0.285-0.427
		c0.997,0,1.994,1.567,2.992,1.567c0.712-0.142,1.14,0.071,1.709,0.428c3.062,0.213,5.484-1.068,8.12-1.709
		c2.137-0.214,2.849-2.849,4.131-2.849c2.351,0,2.992,1.709,2.992,3.276c0,1.496-0.713,2.564-1.71,3.419
		c0,0.712-0.285,2.849-0.285,2.778c0,0.214,0.285,2.137,0.285,2.351v7.906c0,0.712-0.712,5.413-0.712,5.983
		c0,2.208-1.14,8.476-5.058,8.476c-0.355,0-0.926-1.781-2.208-3.062c-0.285-1.069,2.422-0.855,2.85-2.992
		c0.143-0.854,0.569-3.846,0.569-4.273c0-4.202,0.713-7.194,0.713-10.969c0-2.137-0.285-4.416-0.285-6.838
		c-0.143-0.926-1.71-0.854-2.279-0.854c-0.285,0-1.14,0.427-1.282,0.427c-1.71,0-4.63,0.926-5.556,2.351l0.143,4.915v5.983
		c0,0.284,0.284,0.712,0.284,0.854c0,3.276,0.57,9.401,0.57,11.823c0,1.068-0.57,0.57-0.57,7.906
		c-0.355-0.854,0.071,5.129-2.421,5.129c-1.14-0.428-1.567-1.71-1.71-2.564V98.386z"/>
	<path d="M364.513,106.363c0-3.49,0.642-9.26,0.642-9.688c0-1.211-0.071-2.279-0.071-3.49c0-0.926,0.071-1.994,0.285-2.92V79.511
		c0-0.428-0.428-2.707-0.428-3.135c0-0.711,0-1.994-0.854-1.994c-0.285,0-1.924,1.424-1.924,2.136
		c-1.14,0.855-2.635,3.847-4.06,4.345c-1.567,3.063-4.986,5.414-7.692,7.479c-1.14,0.854-2.137,2.563-3.847,2.563v-0.641
		c0,0,0.854-1.068,0.997-1.496c0.855-1.068,2.065-1.495,2.992-2.563c1.068-1.282,2.422-2.564,3.419-3.847
		c0.712-0.641,1.353-2.422,2.563-2.849c2.564-3.917,5.343-7.622,7.765-11.966c2.777-4.772,5.556-9.331,5.556-14.388
		c0-1.353-0.143-2.422-1.068-3.419c0.213-0.143,1.068-0.57,1.281-0.57c0.855,0.071,2.564-1.282,3.847-1.282
		c0.854,0,2.137,1.639,2.778,2.279c1.14,1.282,2.137,2.137,2.137,3.847c0,1.567-1.853,2.065-2.707,2.991
		c-0.854,0.998-1.14,2.422-1.78,2.849c-0.214,0.143-1.068,0.998-1.282,1.282c0,0.712-1.068,1.425-1.068,1.852
		c-0.642,0.997-2.778,3.989-2.778,4.843c0.356,0.998,2.065,0.998,2.351,2.279c0,3.49-0.214,3.348-0.214,4.559
		c0,1.496-0.071,2.991-0.071,4.487c0,4.986-0.783,11.752-0.783,13.248c0,6.34-0.428,11.61-0.428,13.961
		c0-0.071,0.214,1.211,0.214,1.709c-0.143,1.924-1.495,4.274-2.991,4.274c-1.068-0.356-1.852-1.282-2.137-2.137
		c0-0.428-1.068-1.282-1.068-2.138C364.086,107.646,364.513,106.79,364.513,106.363z M388.232,64.838
		c-0.998,0.997-2.279,2.635-2.564,3.134c-0.57-0.285-3.704,4.772-5.129,5.128h-0.569l-2.422,2.564
		c-1.496,1.567-2.564,1.851-4.06,2.849c-0.428,0-0.642,0-0.642-0.428c0-1.14,3.562-4.559,4.701-5.983
		c0.854-1.567,2.065-2.422,2.991-3.846c0-1.211,2.279-2.92,2.992-5.271c0.143-1.709,2.422-2.422,2.422-4.701
		c0.569-1.709,0.997-3.134,1.709-4.843c0.143-0.855,0.854-1.709,0.854-2.564c0-1.709-1.566-2.849-1.566-3.704
		c0-0.998,2.849-1.282,3.703-1.282h0.57c1.994,1.567,7.123,3.989,7.123,5.128c0,2.137-1.853,1.496-1.853,4.131
		c0,0.854,0,2.137,0.143,2.707c0.071,1.068,1.639,3.419,2.137,5.698c0.356,1.567,1.639,2.137,2.137,3.846l3.847,3.846
		c0.57-0.427,1.425,2.137,2.991,2.137c2.636,1.852,5.2,3.846,8.191,5.128c-0.427,0,4.273,0.997,4.273,1.923
		c0,0.498-1.709,0.641-2.563,0.641c-0.57,0-2.137,1.068-3.633,1.068c-1.14,0.356-2.351,1.567-2.991,1.496
		c-1.211,0-0.642,0.854-1.71,0.854c-0.428,0.499-4.273-2.351-5.413-3.846c-2.208-3.775-3.704-5.057-4.701-7.55
		c0-1.354-1.639-3.276-2.137-4.843c0.285-1.425-1.211-2.778-1.425-4.131c0-0.143-0.712-2.992-0.712-3.276
		c-0.499-0.071,0.498-2.992-1.282-2.992C391.438,59.852,390.084,62.487,388.232,64.838z M376.266,94.967
		c-0.071-0.997,1.567-2.778,1.567-4.701c0-1.211,0.569-1.71,0.569-2.351c0.285-0.641,0.428-4.06,1.14-4.06
		c0.57,0,1.425,6.624,1.425,9.401c0,3.206-0.428,6.695-2.991,8.833c-0.428,0.427-0.855,0.569-1.282,0.569
		c-1.924,0-2.137-2.991-2.137-4.273S375.838,96.249,376.266,94.967z M388.232,103.941c0-3.989,0.142-7.194-0.143-10.685
		c0-0.213-0.285-1.068-0.285-1.281c-0.214-0.214,0.285-1.282,0.285-1.496c0-0.285-0.285-0.997-0.285-1.068l0.285-0.642v-0.214
		c0-0.213-0.428-1.923-0.428-2.136c0-5.2-0.143-8.548-3.276-11.61c-0.214-0.356,0.854-0.997,1.994-0.997
		c1.567,0,2.493-0.855,3.134-0.855c1.71-0.285,5.271,0.926,5.271,2.992c0,0.854-0.713,1.282-0.854,1.852
		c-0.214,1.354-0.713,3.775-0.713,4.986c-0.071,5.698,0.713,10.327,0.713,15.599c0,1.923-0.356,4.202-0.285,5.983l0.285,0.284
		c0,1.853,0,4.772-1.14,6.838c-0.143,0.143-2.422,1.853-2.564,2.137c-0.071,0.428-1.282,0.57-2.422,1.282
		c-1.71,0-1.71-1.709-2.137-2.849c-0.143-0.57-0.854-1.425-1.282-1.852c-0.997-1.496-3.847-1.496-3.847-2.564
		C380.539,106.506,388.232,107.289,388.232,103.941z M397.35,85.778c1.424,0,2.777,1.567,4.843,2.777
		c0.997-0.355,1.853,1.924,2.85,1.924c0.143,0,1.425,0.854,1.709,0.854c0.143,0,1.71,1.282,2.279,1.71
		c0.784,0,1.567,1.709,2.422,1.709c0.642,0.428,0.642,1.496,0.642,2.137c0,2.208-1.496,4.487-3.206,5.77
		c-1.852,0.214-2.137-0.997-3.276-1.425c-0.854-0.712-2.137-4.985-2.563-6.054c-1.282-3.276-2.422-4.559-5.698-7.906
		c-0.285-0.214-1.14-0.642-1.14-0.854C396.21,85.778,397.064,85.778,397.35,85.778z"/>
</g>
<g>
	<rect x="233" y="9" fill="#595959" width="2" height="143"/>
	<g>
		<g>
			<path fill="#FF0000" d="M262,29c-9,5.32-18-5.32-27,0c0-6.333,0-12.667,0-19c9-5.32,18,5.32,27,0C262,16.333,262,22.667,262,29z"
				/>
			<path fill="#FFE000" d="M240.655,9.703c0.379,0.766,0.758,1.549,1.137,2.346c0.847,0.188,1.695,0.446,2.542,0.748
				c-0.613,0.468-1.226,0.959-1.839,1.483c0.145,0.861,0.289,1.724,0.434,2.589c-0.758-0.508-1.516-0.969-2.273-1.365
				c-0.758,0.401-1.516,0.868-2.273,1.42c0.145-0.873,0.289-1.743,0.434-2.61c-0.613-0.499-1.226-0.945-1.839-1.328
				c0.847-0.42,1.695-0.719,2.542-0.925C239.898,11.258,240.276,10.473,240.655,9.703z"/>
			<path fill="#FFE000" d="M247.886,12.3c0.149,0.346,0.298,0.692,0.448,1.039c0.334,0.147,0.667,0.294,1.001,0.44
				c-0.241,0.165-0.483,0.329-0.724,0.493c0.057,0.349,0.114,0.698,0.171,1.047c-0.298-0.245-0.597-0.49-0.895-0.735
				c-0.298,0.069-0.597,0.139-0.895,0.211c0.057-0.316,0.114-0.632,0.171-0.948c-0.241-0.305-0.483-0.608-0.724-0.909
				c0.334,0.043,0.667,0.09,1.001,0.138C247.587,12.817,247.737,12.559,247.886,12.3z"/>
			<path fill="#FFE000" d="M247.886,16.3c0.149,0.346,0.298,0.692,0.448,1.039c0.334,0.147,0.667,0.294,1.001,0.44
				c-0.241,0.165-0.483,0.329-0.724,0.493c0.057,0.349,0.114,0.698,0.171,1.047c-0.298-0.245-0.597-0.49-0.895-0.735
				c-0.298,0.069-0.597,0.139-0.895,0.211c0.057-0.316,0.114-0.632,0.171-0.948c-0.241-0.305-0.483-0.608-0.724-0.909
				c0.334,0.043,0.667,0.09,1.001,0.138C247.587,16.817,247.737,16.559,247.886,16.3z"/>
			<path fill="#FFE000" d="M244.886,18.49c0.149,0.337,0.298,0.675,0.448,1.014c0.334,0.131,0.667,0.267,1.001,0.406
				c-0.241,0.169-0.483,0.341-0.724,0.514c0.057,0.347,0.114,0.694,0.171,1.041c-0.298-0.234-0.597-0.465-0.895-0.691
				c-0.298,0.088-0.597,0.18-0.895,0.278c0.057-0.321,0.114-0.642,0.171-0.962c-0.241-0.285-0.483-0.565-0.724-0.842
				c0.334,0.009,0.667,0.025,1.001,0.049C244.587,19.026,244.737,18.757,244.886,18.49z"/>
			<path fill="#FFE000" d="M240.886,18.947c0.149,0.304,0.298,0.611,0.448,0.92c0.334,0.064,0.667,0.139,1.001,0.224
				c-0.241,0.209-0.483,0.422-0.724,0.642c0.057,0.336,0.114,0.672,0.171,1.009c-0.298-0.179-0.597-0.35-0.895-0.511
				c-0.298,0.153-0.597,0.316-0.895,0.489c0.057-0.335,0.114-0.67,0.171-1.005c-0.241-0.225-0.483-0.443-0.724-0.653
				c0.334-0.083,0.667-0.152,1.001-0.207C240.587,19.55,240.736,19.247,240.886,18.947z"/>
		</g>
	</g>
</g>
<rect x="-16" y="-16" opacity="0.95" fill="#A1A8AF" width="511" height="179"/>
<g>
</g>
<g>
</g>
<g>
</g>
<g>
</g>
<g>
</g>
<g>
</g>
<g>
</g>
<g>
</g>
<g>
</g>
<g>
</g>
<g>
</g>
<g>
</g>
<g>
</g>
<g>
</g>
<g>
</g>
</svg>
