<?xml version="1.0" encoding="utf-8"?>
<!-- Generator: Adobe Illustrator 17.0.0, SVG Export Plug-In . SVG Version: 6.00 Build 0)  -->
<!DOCTYPE svg PUBLIC "-//W3C//DTD SVG 1.1//EN" "http://www.w3.org/Graphics/SVG/1.1/DTD/svg11.dtd">
<svg version="1.1" id="图层_1" xmlns="http://www.w3.org/2000/svg" xmlns:xlink="http://www.w3.org/1999/xlink" x="0px" y="0px"
	 width="480px" height="150px" viewBox="0 0 480 150" enable-background="new 0 0 480 150" xml:space="preserve">
<rect x="-39" y="-53" fill="#FEFEFE" width="570" height="252"/>
<g>
	<g>
		<g>
			<g>
				<path fill="#79B5E2" d="M201,80.185c0,1.555-1.26,2.815-2.815,2.815h-60.37C136.26,83,135,81.74,135,80.185v-60.37
					c0-1.555,1.26-2.815,2.815-2.815h60.37c1.555,0,2.815,1.26,2.815,2.815V80.185z"/>
				<g>
					<path fill="#1A1A1A" d="M157,57h-5v1.728c-7,0-10.281,2.963-10.281,7.418c0,4.454,3.281,7.418,10.281,7.418V76h5V57z"/>
					<path fill="#1A1A1A" d="M179,57h4v1.728c8,0,10.281,2.963,10.281,7.418c0,4.454-2.281,7.418-10.281,7.418V76h-4V57z"/>
					<rect x="166" y="57" fill="#1A1A1A" width="4" height="19"/>
					
						<rect x="171.093" y="33.124" transform="matrix(-0.5 -0.866 0.866 -0.5 240.7007 209.9085)" fill="#1A1A1A" width="19.704" height="4.692"/>
					
						<rect x="144.821" y="33.124" transform="matrix(0.5 -0.866 0.866 0.5 46.6187 151.6859)" fill="#1A1A1A" width="19.704" height="4.692"/>
					<line fill="#1A1A1A" x1="156" y1="76" x2="156" y2="73"/>
				</g>
			</g>
			<g>
				<path fill="#79B5E2" d="M201,128.185c0,1.555-1.26,2.815-2.815,2.815h-60.37c-1.555,0-2.815-1.26-2.815-2.815v-28.37
					c0-1.555,1.26-2.815,2.815-2.815h60.37c1.555,0,2.815,1.26,2.815,2.815V128.185z"/>
				<g>
					<path fill="#1A1A1A" d="M157,105h-5v1.567c-7,0-10.281,2.963-10.281,7.418c0,4.454,3.281,7.418,10.281,7.418V124h5V105z"/>
					<path fill="#1A1A1A" d="M179,105h4v1.567c8,0,10.281,2.963,10.281,7.418c0,4.454-2.281,7.418-10.281,7.418V124h-4V105z"/>
					<line fill="#1A1A1A" x1="156" y1="124" x2="156" y2="120"/>
				</g>
			</g>
		</g>
	</g>
	<g>
		<g>
			<g>
				<path fill="#79B5E2" d="M281,80.185c0,1.555-1.26,2.815-2.815,2.815h-60.37C216.26,83,215,81.74,215,80.185v-60.37
					c0-1.555,1.26-2.815,2.815-2.815h60.37c1.555,0,2.815,1.26,2.815,2.815V80.185z"/>
				<g>
					<path fill="#1A1A1A" d="M237,57h-5v1.728c-7,0-10.281,2.963-10.281,7.418c0,4.454,3.281,7.418,10.281,7.418V76h5V57z"/>
					<path fill="#1A1A1A" d="M259,57h4v1.728c8,0,10.281,2.963,10.281,7.418c0,4.454-2.281,7.418-10.281,7.418V76h-4V57z"/>
					<rect x="246" y="57" fill="#1A1A1A" width="4" height="19"/>
					
						<rect x="251.093" y="33.124" transform="matrix(-0.5 -0.866 0.866 -0.5 360.7007 279.1905)" fill="#1A1A1A" width="19.704" height="4.692"/>
					
						<rect x="224.821" y="33.124" transform="matrix(0.5 -0.866 0.866 0.5 86.6187 220.9679)" fill="#1A1A1A" width="19.704" height="4.692"/>
					<line fill="#1A1A1A" x1="236" y1="76" x2="236" y2="73"/>
				</g>
			</g>
			<g>
				<path fill="#79B5E2" d="M281,128.185c0,1.555-1.26,2.815-2.815,2.815h-60.37c-1.555,0-2.815-1.26-2.815-2.815v-28.37
					c0-1.555,1.26-2.815,2.815-2.815h60.37c1.555,0,2.815,1.26,2.815,2.815V128.185z"/>
				<g>
					<path fill="#1A1A1A" d="M237,105h-5v1.567c-7,0-10.281,2.963-10.281,7.418c0,4.454,3.281,7.418,10.281,7.418V124h5V105z"/>
					<path fill="#1A1A1A" d="M259,105h4v1.567c8,0,10.281,2.963,10.281,7.418c0,4.454-2.281,7.418-10.281,7.418V124h-4V105z"/>
					<line fill="#1A1A1A" x1="236" y1="124" x2="236" y2="120"/>
				</g>
			</g>
		</g>
	</g>
	<g>
		<g>
			<g>
				<path fill="#79B5E2" d="M361,80.185c0,1.555-1.26,2.815-2.815,2.815h-60.37C296.26,83,295,81.74,295,80.185v-60.37
					c0-1.555,1.26-2.815,2.815-2.815h60.37c1.555,0,2.815,1.26,2.815,2.815V80.185z"/>
				<g>
					<path fill="#1A1A1A" d="M317,57h-5v1.728c-7,0-10.281,2.963-10.281,7.418c0,4.454,3.281,7.418,10.281,7.418V76h5V57z"/>
					<path fill="#1A1A1A" d="M339,57h4v1.728c8,0,10.281,2.963,10.281,7.418c0,4.454-2.281,7.418-10.281,7.418V76h-4V57z"/>
					<rect x="326" y="57" fill="#1A1A1A" width="4" height="19"/>
					
						<rect x="331.094" y="33.124" transform="matrix(-0.5 -0.866 0.866 -0.5 480.7007 348.4725)" fill="#1A1A1A" width="19.704" height="4.692"/>
					
						<rect x="304.821" y="33.124" transform="matrix(0.5 -0.866 0.866 0.5 126.6187 290.2499)" fill="#1A1A1A" width="19.704" height="4.692"/>
					<line fill="#1A1A1A" x1="316" y1="76" x2="316" y2="73"/>
				</g>
			</g>
			<g>
				<path fill="#79B5E2" d="M361,128.185c0,1.555-1.26,2.815-2.815,2.815h-60.37c-1.555,0-2.815-1.26-2.815-2.815v-28.37
					c0-1.555,1.26-2.815,2.815-2.815h60.37c1.555,0,2.815,1.26,2.815,2.815V128.185z"/>
				<g>
					<path fill="#1A1A1A" d="M317,105h-5v1.567c-7,0-10.281,2.963-10.281,7.418c0,4.454,3.281,7.418,10.281,7.418V124h5V105z"/>
					<path fill="#1A1A1A" d="M339,105h4v1.567c8,0,10.281,2.963,10.281,7.418c0,4.454-2.281,7.418-10.281,7.418V124h-4V105z"/>
					<line fill="#1A1A1A" x1="316" y1="124" x2="316" y2="120"/>
				</g>
			</g>
		</g>
	</g>
	<g>
		<g>
			<g>
				<path fill="#79B5E2" d="M441,80.185c0,1.555-1.26,2.815-2.815,2.815h-60.37C376.26,83,375,81.74,375,80.185v-60.37
					c0-1.555,1.26-2.815,2.815-2.815h60.37c1.555,0,2.815,1.26,2.815,2.815V80.185z"/>
				<g>
					<path fill="#1A1A1A" d="M397,57h-5v1.728c-7,0-10.281,2.963-10.281,7.418c0,4.454,3.281,7.418,10.281,7.418V76h5V57z"/>
					<path fill="#1A1A1A" d="M419,57h4v1.728c8,0,10.281,2.963,10.281,7.418c0,4.454-2.281,7.418-10.281,7.418V76h-4V57z"/>
					<rect x="406" y="57" fill="#1A1A1A" width="4" height="19"/>
					
						<rect x="411.094" y="33.124" transform="matrix(-0.5 -0.866 0.866 -0.5 600.7007 417.7545)" fill="#1A1A1A" width="19.704" height="4.692"/>
					
						<rect x="384.821" y="33.124" transform="matrix(0.5 -0.866 0.866 0.5 166.6187 359.532)" fill="#1A1A1A" width="19.704" height="4.692"/>
					<line fill="#1A1A1A" x1="396" y1="76" x2="396" y2="73"/>
				</g>
			</g>
			<g>
				<path fill="#79B5E2" d="M441,128.185c0,1.555-1.26,2.815-2.815,2.815h-60.37c-1.555,0-2.815-1.26-2.815-2.815v-28.37
					c0-1.555,1.26-2.815,2.815-2.815h60.37c1.555,0,2.815,1.26,2.815,2.815V128.185z"/>
				<g>
					<path fill="#1A1A1A" d="M397,105h-5v1.567c-7,0-10.281,2.963-10.281,7.418c0,4.454,3.281,7.418,10.281,7.418V124h5V105z"/>
					<path fill="#1A1A1A" d="M419,105h4v1.567c8,0,10.281,2.963,10.281,7.418c0,4.454-2.281,7.418-10.281,7.418V124h-4V105z"/>
					<line fill="#1A1A1A" x1="396" y1="124" x2="396" y2="120"/>
				</g>
			</g>
		</g>
	</g>
</g>
<rect x="460" y="70" fill="#FF2929" width="5" height="11"/>
<g>
	<path id="start" fill="#79B5E2" d="M105,90.762c0,5.407-6.694,8.034-15,8.034s-15-2.627-15-8.034V59.238
		c0-5.407,5.611-8.034,15-8.034s15,2.627,15,8.034V90.762z"/>
	<path fill="#4B72EF" d="M102,89.982c0,4.867-5.159,6.169-12,6.169s-12-1.302-12-6.169V60.018c0-4.867,4.645-6.169,12-6.169
		s12,1.302,12,6.169V89.982z"/>
</g>
<g>
	<path fill="#CECECE" d="M57,96.183c0,2.108-1.709,3.817-3.817,3.817H23.817C21.709,100,20,98.291,20,96.183V54.817
		C20,52.709,21.709,51,23.817,51h29.367C55.291,51,57,52.709,57,54.817V96.183z"/>
	<g>
		<path fill="#FFFFFF" d="M39,85.48l13-5.791v-4.457v-4.484l-13-5.791V85.48z M51.718,75.296L47,79.467v-4.245v-4.131L51.718,75.296
			z"/>
		<path fill="#FFFFFF" d="M23.305,69.271c0,0,3.695-7.111,11.695-7.111v-3.352l3,1.379v15.045v15.017l-3,1.379v-3.352
			c-8,0-11.695-7.104-11.695-7.104c5.087,2.907,11.97,3.982,11.97-6.007S28.331,66.686,23.305,69.271z"/>
	</g>
</g>
<g>
</g>
<g>
</g>
<g>
</g>
<g>
</g>
<g>
</g>
<g>
</g>
<g>
</g>
<g>
</g>
<g>
</g>
<g>
</g>
<g>
</g>
<g>
</g>
<g>
</g>
<g>
</g>
<g>
</g>
</svg>
