<?xml version="1.0" encoding="utf-8"?>
<!-- Generator: Adobe Illustrator 17.0.0, SVG Export Plug-In . SVG Version: 6.00 Build 0)  -->
<!DOCTYPE svg PUBLIC "-//W3C//DTD SVG 1.1//EN" "http://www.w3.org/Graphics/SVG/1.1/DTD/svg11.dtd">
<svg version="1.1" id="图层_1" xmlns="http://www.w3.org/2000/svg" xmlns:xlink="http://www.w3.org/1999/xlink" x="0px" y="0px"
	 width="480px" height="150px" viewBox="0 0 480 150" enable-background="new 0 0 480 150" xml:space="preserve">
<g>
	<g>
		<circle fill="#0019CE" cx="87.011" cy="11.238" r="0.558"/>
		<path fill="#CECECE" d="M85,20v-1v-0.744l1-1.932v-4.825L86.373,11h1.266L88,11.498v4.825l1,1.932V20"/>
	</g>
	<path fill="#8C8C8C" d="M90,28c0,0,0-3.216,0-5.562S89.823,19,89.38,19h-4.688C84.174,19,84,20.092,84,22.438S84,28,84,28"/>
</g>
<path fill="#1754CE" d="M110,225V96h-5v-9.802l-1-1.186V73.389c0,0,1.142-0.953,1.142-2.144S104,69.12,104,69.12v-9.238l-3.35-1.081
	c0,0-1.086-22.801-8.844-32.801h-9.457c-7.758,10-8.421,32.801-8.421,32.801L71,59.882v9.238c0,0-1.142,0.934-1.142,2.126
	S71,73.389,71,73.389v11.622l-1,1.186V96h-6v129"/>
<circle opacity="0.1" fill="#FFFFFF" cx="87.247" cy="81.454" r="3.01"/>
<g>
	<path fill="#606060" d="M149.114,74.144c0-0.241-0.723-1.205-0.723-1.446c0.08-1.044,1.044-1.606,1.928-2.168
		c0.723-0.723,2.65-0.723,2.65-1.928c0-0.241-0.482-1.928-0.482-2.169c0-4.016-0.321-8.193-0.321-12.289c0-1.205,0-2.41,0.081-3.695
		c-0.402-2.73-0.884-7.229-2.169-9.317c-0.161-1.285,1.285-2.73,2.41-2.73c0.241,0,0.964,0.321,1.205,0.321
		c2.731,2.168,5.382,4.498,8.032,4.498c1.044,0,2.57-0.562,3.534-0.643c0.482,0,3.374-0.482,3.855-0.482h3.695
		c0.481,0,3.373-0.481,3.855-0.481c1.124,0,2.088,0.241,2.892,0.481c0.241,0,1.687-0.321,1.928-0.321
		c0.241-0.481,0.723-1.928,1.205-1.928c0.723,0,0.964,0.081,0.964-0.321v-0.321c0.883-1.124,1.366-2.249,2.892-2.249
		c0.321-0.562,1.687,0.964,2.41,1.768c1.848,1.044,4.498,0.964,4.097,4.016c0,0.321-1.205,1.285-1.205,1.446
		c-0.723,0.803-0.723,2.249-0.723,3.213c0,1.445,0.481,2.57,0.481,4.337c0,2.169-0.321,4.017-0.481,6.024
		c0,0.241,0.16,7.47,0.723,7.47c1.205,0.241,2.249-0.723,3.374-0.723c0.964,0,1.928,1.205,2.731,1.687
		c0.964,0.723,2.892,1.205,2.892,2.892c0,2.892-7.631,2.651-9.719,2.892c-1.928,0.161-3.855,0.482-5.783,0.723
		c-2.008-0.161-4.097,0.482-5.542,0.482h-6.506c-1.285,0-9.96,0.964-11.084,0.964c-4.739,0-5.382,0.884-5.382,3.133
		c0,2.57,2.41,2.489,3.695,2.489h1.847c0.804,0,7.068-0.803,7.711-0.803h5.623c0.16,0,1.445-0.482,1.606-0.482
		c1.205,0,4.658-0.481,7.309-0.481c0,0.08,1.687-0.964,2.41-1.687c0.884,0.481,2.088-2.411,3.614-2.411
		c1.205,0,2.41,2.411,2.892,3.375c0.241,2.972,0.884,2.409,1.928,3.936c0,1.044,2.651,3.293,4.418,4.98
		c0.321,1.445-1.928,1.525-2.812,1.525c-0.562,0-1.205-0.08-1.847-0.08c-0.562-0.08-1.767,0.803-3.132,0.803
		c-2.972-0.24-4.177,0.643-5.542,0.643h-3.615c-0.241,0-2.409,0.482-2.65,0.482c-1.446,0-2.65,0-2.65,1.285
		c0,1.606,3.614,6.266,5.301,6.266c2.169,0,3.855-7.229,6.024-7.229l1.446,1.124c1.285,1.045,4.579,2.33,4.579,4.178
		c0,0.963-0.723,0.963-1.446,1.445c-0.723,0-1.365,0.964-1.928,1.205c-0.964,0.481-4.578,1.205-4.578,2.409
		c0,1.205,6.024,4.338,7.229,4.819c1.125-0.24,2.33,1.205,3.374,1.205c1.928,0.723,4.337,1.205,6.586,1.445
		c0.482,0,1.446,0,1.446,0.724c0,0.643-1.767,1.365-2.731,2.169c-1.606,1.445-4.016,4.337-6.506,4.337
		c-1.205,0-1.928-1.205-2.892-1.687c-0.241,0-1.445-0.482-1.928-0.723c-1.526-0.884-3.454-1.205-4.819-2.169
		c-1.205-0.724-2.409-1.928-3.373-2.892c-0.723-0.482-3.615-3.374-4.097-4.097c-0.964-0.481-2.008-0.481-2.972-0.481
		c-2.812,0-5.302,2.489-6.908,3.614c-0.723,0-2.409,1.445-3.373,2.169c-0.321,0.24-2.731,1.204-2.892,1.445
		c-0.804,0.723-1.446,0.723-1.768,1.445c-0.883,0-1.847,1.928-2.892,1.928c-2.088,0.241-2.329,2.41-4.337,2.41
		c-1.526,0-1.606-2.169-2.169-3.614c-0.482-0.964-0.964-1.446-0.964-2.892c0-1.045,2.249-1.688,3.374-1.688
		c0.482-0.24,2.41-0.723,2.892-0.963c1.526-1.205,0.964-2.41,1.205-4.097c0.884-2.731,0.804-5.783,0.804-8.755
		c0.08-0.884,0-2.57-1.285-2.57c-0.964,0-1.928,0-2.651,0.643c-1.366,1.525-1.446,6.104-2.41,7.791
		c-1.446,3.855-2.65,6.988-5.783,9.639c0.161-0.161-9.639,6.747-9.639,6.023c-0.723-0.401-1.687,0.965-2.731,1.446
		c-2.008,0-3.293,1.205-4.337,1.205v-0.482c2.49-1.124,5.141-2.73,7.229-4.578c0.482-0.241,1.366-1.446,2.249-1.446
		c5.06-3.614,8.193-8.915,8.916-15.261c0-2.169,0.723-4.097,0.723-5.944c0-1.847,0.482-7.55,0.482-9.639
		C150.078,78.562,149.837,76.072,149.114,74.144z M157.307,71.574c2.249,0,4.579,0,6.828-0.562
		c17.35-2.168,17.831-0.883,17.831-5.301c0-2.169-1.205-2.651-3.132-2.651c-3.534,0-10.201,0.402-10.683,1.205
		c-1.124,0-2.409-0.241-3.534-0.241c-1.847,0-4.096,0.562-5.141,2.168c-1.445,2.169-4.578,4.338-3.614,4.579
		C155.861,71.333,156.584,71.574,157.307,71.574z M156.103,86.916c0,2.49,4.177,1.124,4.658,1.687
		c6.426-0.08,9.317-1.446,15.422-1.446c4.017,0,5.221-0.481,9.639-0.481c1.928,0.401,7.229-3.293,7.229-5.462
		c0-0.964-1.446-0.964-2.169-0.964c-1.928,0-3.855,0.481-5.783,0.643c-2.65,0-5.783,0.321-9.237,0.321
		c-0.241,0-3.293,0.643-5.943,0.643h-0.321c0.08,0.08-1.928-0.16-2.41-0.16c-6.185,0-11.084,0-11.084,4.337V86.916z M162.85,55.108
		c-0.081-0.482-2.41,1.285-2.892,1.124v3.454c0,1.044,1.445,1.205,2.73,1.205c3.936,0,3.615-0.482,8.193-0.482
		c0.643,0,4.016-0.481,4.819-0.481c0,0.241,0.16,0.241,0.481,0.241c0.482,0,0.643-0.482,1.446-0.482c2.409,0,5.06,0,5.06-1.687
		c0-3.213-0.723-7.952,1.928-9.96c-1.446-0.643,0.241-3.534-3.132-3.534c-3.293,0-5.542,0.481-7.711,0.481
		c0.241,0.321-1.848,0.081-2.41,0.482c-0.321,0-2.249-0.321-2.409-0.321c-1.285-0.081-2.651,0.481-3.855,0.481
		c-1.044,0-1.446-0.321-2.731-0.643v0.482c0.241,0.481-3.052,0.562-3.052,1.606v3.373c0,1.848,1.928,2.249,2.892,2.249
		c1.606,0,3.052-0.803,4.498-0.803c2.409-0.161,4.819,0.08,7.229-0.643c2.249-0.723,2.33-3.213,4.659-3.213
		c1.687,0,2.168,1.285,2.168,2.73c0,0.643,0,1.928-0.723,2.41c-0.883,0.803-5.06,1.205-7.309,1.205
		c-1.446,0-2.892-0.081-4.257-0.081C167.91,54.304,167.267,55.108,162.85,55.108z M166.705,102.659c1.285,0,1.847,0.16,2.73-0.241
		c-0.08,0.08,2.089-1.445,3.534-1.445c1.446-0.482,2.41-0.724,2.41-2.41c0-1.928-0.723-3.614-1.125-4.819
		c-0.562-1.928,0.402-3.694-3.373-3.694c-1.446,0-2.41,0-3.855,0.32c-1.928,0.402-1.768,6.024-1.768,8.193
		C165.259,99.928,165.099,102.659,166.705,102.659z"/>
	<path fill="#606060" d="M222.684,98.321c0.481-1.445,1.687-2.329,2.65-3.614c0.723-0.964,0.964-1.928,1.446-2.892
		c1.687-2.892,2.651-6.024,4.096-8.675l0.482-1.445c0-1.125,0.803-1.848,0.964-2.893c0-0.723,0.803-3.293,1.124-3.293
		c0.482,0,0.321-0.481,3.053,2.008c0.964,0.884,4.016,3.053,4.016,4.659c0,0.643-1.124,1.124-1.445,1.446
		c0,1.687-3.374,4.417-3.374,5.301c0.241,0.241-1.205,1.285-1.606,2.41c-0.643,1.525-2.972,3.132-2.972,4.818
		c-1.365,0.724-1.205,1.928-1.928,2.651c-1.044,0.321-1.365,1.526-2.169,2.169c-3.534,3.213-6.988,6.987-11.325,8.674
		c-2.169,1.205-4.659,2.41-6.747,3.615c-0.964,0.24-2.892,1.928-3.855,1.928h-0.803c0.482-1.205,2.249-2.008,4.177-3.374
		c0.241-0.401,1.125-1.124,1.446-1.204c1.365,0,3.775-3.133,4.097-2.893C217.141,104.587,217.543,103.543,222.684,98.321z
		 M261.077,69.967c1.285-0.803,3.937-4.337,5.302-4.337c1.848,0,6.827,4.579,6.827,7.229c-0.401,1.365-2.49,2.41-3.936,2.41
		c-2.009-0.081-3.937-0.643-5.944-0.964c-0.643,0-3.694,0-3.855-0.161c-1.767,0.08-3.534-0.321-5.141-0.321
		c-1.124,0-2.73-0.161-2.73,0.803c1.124,1.768,3.534,2.009,3.534,4.338c0,1.767-2.249,2.892-2.892,4.337c0,2.33,0,4.338-0.643,5.783
		c0.24,0.322,0.401,0.562,0.321,0.804c0,0.321-0.321,3.936-0.321,4.819c0.401-0.241,0.321,2.65,0.321,4.097
		c0,1.204,0.481,1.445,0.803,2.65c0,0.241-0.16,0.481-0.16,0.723c0,0.804,1.124,0.482,2.249,0.964h5.301
		c0.482,0,3.374-0.723,3.855-0.723c0.804,0.16,2.249-0.241,2.892-0.241c0.321,0,2.731-0.723,2.892-0.723
		c1.446-0.241,2.249-0.481,3.454-1.205c0.964-1.606,1.928-2.169,1.928-3.614c0.241-0.964,1.687-6.104,2.65-6.104v8.032
		c0,0.964,0.321,2.41,0.482,3.373c-0.321,1.125,1.445,2.41,1.445,3.855c0.321,0.241,0.321,1.205,0.482,1.446
		c-2.731,4.177-2.57,4.337-10.924,4.337c-1.526,0-3.454-0.24-4.98-0.24c-0.723,0-0.643,0.08-0.964,0.24h-0.883
		c-0.402,0-0.804,0-1.045,0.241c-1.928,0-3.694,0.241-5.301,0.241c-3.775,0-2.973-1.125-4.659-2.169
		c-1.445-0.884-4.658-3.534-4.658-5.542v-9.156c0-0.804,0.401-1.688,0.481-1.928c0-0.322-0.16-0.965-0.16-1.285
		c-0.321-3.374,0-6.426-0.482-9.8c0-0.964-0.481-1.928-0.481-3.213c0-0.964,0.16-1.768,0.16-2.41c0-0.803,0-2.731-0.643-2.731
		h-6.586c-0.161,0-1.446,0.482-1.606,0.482c-2.008,0-0.482,0.321-6.346,0.321c-0.401-0.081-2.329,0.643-6.506,0.643
		c-0.241,0-1.928,0.804-2.169,0.804c-1.848,0-3.213,0.803-4.819,0.643c-0.241,0-1.205,0.803-1.446,0.803
		c-1.044,0.482-2.811,0.321-3.213,0.321c-0.081-0.16-1.125-1.285-1.125-1.445v-0.482c0-2.892-1.767-1.687-1.767-3.695
		c0-0.643,0.402-0.884,0.883-0.884c0.402,0,0.804,0.081,1.044,0.081c0.723,0,1.767-0.161,2.008-0.161
		c0.241,0,2.409,0.482,2.65,0.482c0.643-0.321,1.848-0.402,2.41-0.482c2.008-0.161,3.374,0.482,4.819,0.482
		c0.964,0,1.205-0.321,1.928-0.321c2.088,0,4.016-0.161,5.06-0.161c0.964-0.08,1.446,0.161,2.41,0.161
		c5.141,0,5.783-0.964,5.783-2.731v-1.125c0-3.213,0.481-6.828,0.481-8.193c0-0.482-0.16-0.643-0.16-0.964
		c0-1.205,0.16-1.928,0.16-3.133c0-6.024-1.124-10.361-1.124-11.084c-0.804-1.446-1.446-1.928-1.446-3.855
		c0-0.241,0-0.482,0.161-0.482c0.241,0,0.883,0.081,1.285,0.241c0.964,0,1.606-0.241,2.57-0.241c0.481,0,0.803,0,0.964,0.482
		c0.964,0,3.694,0.241,4.658,0.723c0.482,0,2.892,1.767,3.053,2.169c0.24,0.401-0.161,1.205,0.481,1.205v1.687
		c0.161-0.081-0.964,1.205-1.928,1.205c-0.08,1.606-1.285,1.767-1.928,2.892c0,4.98-0.16,9.799-0.16,13.414
		c0,1.768,0.08,3.936,0.964,3.936c0.562,0,1.606-0.321,1.606-0.964l-0.161-0.161c0.964-0.803,0.964-1.285,1.606-2.249
		c0.964-1.125,2.089-2.41,2.731-3.855c1.124-1.205,0.643-2.41,1.767-3.133c0.643-2.409,2.41-4.337,2.41-6.988
		c0-0.241-0.321-1.446-0.321-1.687c-0.08-0.723,0.401-0.723,0.803-0.723c1.125,0.482,1.768,2.169,2.892,2.169
		c1.205,1.928,4.98,2.811,4.98,5.783c0,0.562-0.161,0.964-1.125,1.205c-0.481,1.205-2.169,0.883-2.892,1.767
		c-0.321,0.161-1.285,1.446-1.445,1.606c-1.768,1.767-3.374,2.249-6.747,5.623c0.643,0-4.498,2.731-4.498,4.016l0.964,0.482h6.426
		h1.928L261.077,69.967z M221.077,52.618c0-0.482-1.768-1.285-1.768-2.41l0.241-0.241l0.482,0.241
		c0.562,0.161,1.847,1.687,2.892,1.687c1.687,0.964,3.132,2.168,4.819,2.892v0.16c0,0.321,0.482,0.321,0.723,0.321
		c1.205,0.482,2.65,2.41,3.373,3.615c0.321,1.205,0.884,1.366,1.285,1.928c0.161,0.321,0.643,1.928,0.964,2.41
		c0.081,1.687-1.285,2.812-2.008,4.177c-0.884,1.446-1.526,1.606-2.65,1.606c-0.804-0.482-1.285-1.125-2.169-1.606
		c-0.08-2.972-1.526-4.016-1.928-6.104c-0.562-3.052-1.526-5.623-4.337-8.434C220.997,52.859,221.077,52.778,221.077,52.618z"/>
	<path fill="#606060" d="M297.135,98.08v-4.818c0-1.045,0.402-3.294,0.804-4.178c0-1.445-0.482-2.57-0.482-4.016
		c0-0.321,0.161-1.285,0.161-1.526c0.321-3.855,0.321-7.711,0.321-11.567c-1.285,0-1.768,1.205-2.41,1.928
		c-1.687,1.606-2.489,2.411-3.855,4.338c-1.285,1.687-2.73,3.373-4.177,5.06c-0.723,0.724-1.687,1.205-2.409,1.928
		c-0.241,0.322-1.446,1.446-1.928,1.768c-0.964,0.643-4.579,4.498-6.024,4.498c-0.723,0-0.964-0.16-0.964-0.964
		c0-0.161,0-0.643,0.241-0.964c0.723-0.643,4.096-4.016,4.819-4.819c2.812-2.892,4.337-5.542,6.747-8.193
		c1.285-1.285,1.928-3.132,2.892-4.579c1.365-1.928,2.329-3.775,3.855-6.104c0-2.65,1.365-3.855,2.892-5.943
		c0.321,0.562,0.562-2.49,1.445-3.374c0-0.321,0.964-1.044,0.964-1.285c0.482-0.964,0.804-2.168,0.964-3.132
		c0.482-1.687,1.928-2.168,1.928-4.096c0-1.606-1.606-2.33-1.606-3.133c0-0.964,4.418-1.687,6.747-1.687
		c0.723,0,1.606,1.445,2.41,2.409c0.723,1.044,2.65,1.687,2.65,3.133c0,1.687-1.445,2.65-2.41,3.855
		c-0.24,0.08-1.124,2.169-2.168,2.892c0,0.241-0.964,1.687-0.964,2.008c-1.768,2.008-3.213,3.775-4.659,5.944
		c0,0.723-0.08,1.365,0.321,1.767c1.848,1.848,1.928,2.089,1.928,3.534c0,1.526-0.803,2.49-0.964,3.695
		c-0.321,5.06-0.321,9.88-0.321,15.021l-0.16,0.481v1.606c0,8.112-1.768,15.904-1.768,21.526c0,1.124-1.044,1.848-1.606,2.409h-0.24
		c-0.241,0-0.322,0.322-0.724,0.322c-1.365,0-2.972-0.884-2.892-1.446v-6.587C297.055,103.302,297.135,100.65,297.135,98.08z
		 M304.846,108.041c2.49-3.374,4.578-6.748,6.104-10.442c0.643-1.767,0.964-3.374,1.687-5.141c2.57-3.936,2.57-9.96,4.097-13.013
		l1.446-6.506c0-0.964,0.24-2.409,0.481-3.373c0-2.169-0.803-2.41-1.928-2.41h-1.847c-0.322,0-0.965,0-1.526-0.321
		c-1.205,0.241-2.41,0.321-3.614,0.321c-1.205,0-2.651-3.694-2.651-4.658c0-0.884,0.964-0.964,1.687-0.964
		c3.695,0,5.783,0.321,10.121,0.321c1.687-0.723,2.169-2.651,2.169-4.819c1.124-3.855,1.526-6.346,2.169-9.719
		c0,0,0.24-0.964,0.24-1.205c0.241-1.526-1.205-2.169-1.205-3.615c0-1.125,0.804-1.205,1.607-1.205h0.803
		c0.241,0,1.768-0.241,1.928-0.241c1.848-0.161,2.73,0.241,4.658,2.169c0.562,1.767,2.41,1.445,2.41,3.132
		c0,1.446-0.482,1.687-1.285,2.892c0.16,0.964-1.285,1.928-1.606,3.374c0,3.695-2.731,5.623-2.731,8.916
		c0,1.687,5.543,1.285,9.479,1.285c0.16,0,2.088,0.481,2.41,0.481c1.044,0,4.176,0.241,6.265-0.481
		c1.044-1.768,2.892-2.892,3.855-2.892c1.928,0,3.374,2.65,3.374,4.337c0,1.446-0.161,2.089-1.928,2.089
		c-0.161,0-1.928-0.161-2.089-0.161c-1.285,0-2.409,0.643-3.694,0.643c-1.768,0-4.9-0.481-6.266-0.481
		c-1.526-0.161-2.972,0.321-4.658,0.321c-1.607,0-3.053-0.321-4.82-0.321c-1.445,0-3.052,0-4.096,1.445
		c-0.241,0.321-0.723,1.285-0.723,1.446c-0.482,2.892-2.089,5.381-2.41,8.273c0,0.241-0.964,2.651-0.964,2.893
		c-0.08,1.847-1.687,4.578-2.409,7.068c-1.125,4.337-3.133,8.835-5.783,12.529c-0.482,0.482-0.482,1.285-0.965,1.928l-2.168,2.731
		c-0.723,0.964-4.177,4.979-5.141,4.979c-0.482,0-0.643-0.481-0.643-0.643C304.686,108.522,304.686,108.201,304.846,108.041z
		 M332.879,108.684c-3.937,0-4.98-1.928-5.463-4.82c0-0.481,0.081-4.417,0.161-4.498l0.481-1.124c0-0.481-0.16-2.892-0.16-3.374
		c0-0.723-0.08-2.891,0.16-4.337V80.41c0.884-3.214,0.322-10.443,2.25-11.808c1.928,0,6.426,1.445,6.426,4.819
		c0,1.445-1.125,2.409-1.928,3.615c-0.482,0.964-0.482,2.169-0.482,3.133c0,0.241-0.482,3.132-0.482,3.373
		c0,11.647-0.481,7.711-0.481,16.306c0.723,1.044,1.365,1.125,2.329,1.125c2.892,0,3.293-0.482,4.739-0.482
		c0.161,0,3.052-0.16,3.374-0.16c0.16,0,0.963-0.482,1.124-0.482c1.285-0.321,2.089,0,3.052-0.482
		c2.41-1.928,1.205-6.586,3.855-6.586c0.482,0,0.965,0.482,0.965,1.125c-0.322,2.088,0.643,5.141,1.445,7.871
		c0.562,2.088,3.053,3.534,3.053,5.943c0.16,0.884-0.322,1.045-0.643,1.045c-0.322,0-0.482-0.08-0.804-0.08
		c-2.329,0-6.265,0.481-7.711,0.481s-2.892-0.08-4.337-0.481H332.879z M339.465,47.557c4.016,0,7.551,5.623,7.551,7.229
		c0,3.454-1.366,1.847-2.57,3.373c-3.615,0.562-3.053-4.016-4.338-7.47C340.268,49.887,339.465,49.003,339.465,47.557z"/>
	<path fill="#606060" d="M362.109,103.863c0-2.65,0.482-6.666,0.723-7.068c0.081-1.285-0.24-2.891-0.24-4.337
		c0-4.659,0.723-5.783,0.723-8.032l-1.445-1.606c-0.241-1.928,1.767-2.249,3.132-2.249c0.964,0,2.169,0,2.892,0.803
		c0.723,1.446,1.526,1.446,2.41,1.446c0.562,0,1.285-0.481,3.373-0.481c0.241,0,2.49-0.965,2.41-0.965l2.892-2.892
		c0.964-0.16,1.687,1.125,2.73,1.446c-0.08,1.285,4.819,2.008,4.819,4.98c0,1.285-1.445,1.445-1.928,2.248
		c-0.964,0.562-1.928,2.893-1.928,3.374l0.161,0.643l0.481,7.39c0.562,1.125,0.482,2.65,0.482,4.016c0,1.928-0.964,3.374-2.65,4.338
		c-1.446,0.401-1.848,1.768-3.374,1.768c-2.57,0-1.205-4.98-3.052-4.98c-0.724,0-1.446,0.241-1.768,0.16
		c-1.687,0.643-4.658-0.16-5.783,1.928c0,3.535,1.205,10.604-3.373,10.604c-0.724,0-1.205-0.804-1.446-1.446
		C362.351,111.093,362.109,105.791,362.109,103.863z M368.375,100.65c0,0,1.445-0.16,1.928-0.16
		c-0.241-0.884,5.622,0.643,6.265-1.928c0.241-2.088,0.241-3.133,0.241-4.98c0-0.24,0-8.674-1.687-8.674
		c-2.57,0-8.354,0-8.916,1.928c0,2.409-0.241,4.658-0.241,7.068C366.286,96.795,365.965,100.65,368.375,100.65z M376.086,73.1
		c-0.884-0.562-0.964-1.687-0.964-2.41c0.241-2.008-0.482-6.667,0.481-8.434c0.08-2.088-0.24-2.249-0.24-3.133l0.24-0.723
		c0-0.241-0.08-0.562-0.08-0.803s0.08-0.482,0.321-0.723c0-2.65-0.241-4.979-0.241-7.871c0-1.526,0.241-2.972,0.241-4.659
		l-2.892-2.892c-0.321-1.124,2.57-2.088,3.133-2.088c1.285,0,3.855,1.044,5.061,1.606c0,0.321,0.723,1.285,0.723,1.445l0.321,0.321
		l6.426-0.321h4.819c0.08-0.16,0.401-0.241,0.723-0.241s0.803,0.081,1.285,0.081c1.848,0,3.695-3.695,6.024-3.695
		c0.723,0,0.723,0.482,1.445,0.964c1.125,0.562,4.418,1.446,5.542,2.41v1.767c-0.32,1.366-2.891,1.044-2.891,6.266
		c-0.241,2.892,0.723,3.454,0.723,8.192v5.061c0,2.41-3.374,6.747-5.783,6.747c-2.65,0-2.973-3.695-2.892-5.301l0.16-0.241
		c-0.562,0.241-0.964-2.41-1.445-1.687c-0.562,0-3.454,0.241-6.266,0.241c-0.241,0.723-6.426,0.723-7.39,0.723
		c-0.803,0.482-0.481,3.132-0.481,4.819c0,4.739-4.418,5.783-5.623,5.783c0-0.723-0.964-0.482-0.964-1.205H376.086z M383.314,60.57
		c1.446,0,2.41-0.723,3.695-0.723c3.534,0,6.666-0.241,10.12-1.205c0.964-0.482,0.964-2.249,0.964-3.213
		c0,0.241-0.321-3.775-0.321-5.944c-0.481-2.329,0.482-3.936-1.445-5.141c-1.446,0-2.892-0.08-4.338,0.321h-9.156l-0.482-0.321
		c-1.044,1.044-1.687,0.804-1.928,1.768c0,4.578,0.562,8.916,1.285,13.494C381.869,60.329,382.672,60.57,383.314,60.57z
		 M393.917,110.611c0.241-1.768,0.482-4.097,0.482-6.266c0-1.848-0.161-11.245,0.321-11.888v-0.321
		c-0.723-2.49-0.321-6.586-0.804-7.711c0-0.16,0.321-1.125,0.321-1.445c-0.08-0.562-1.205-2.009-1.285-2.57
		c0-0.322-0.964-0.965-0.964-1.286c0.241-0.723,1.928-1.124,2.892-1.124s1.285,0.481,1.928,0.964
		c0.964-0.161,2.812,2.089,4.177,2.089c0.482,0,1.446-0.965,2.41-0.965s4.819-0.481,5.783-0.481c2.008-0.643,2.812-3.534,5.06-3.374
		c0.482,0.241,2.169,0.964,2.41,1.285c0.241,0,1.205,0.964,1.445,0.964c0.965,0.643,1.928,0.964,1.928,2.41
		c0,1.606-2.409,2.089-2.65,3.534c0,5.301,0.482,5.703,0.482,8.193c0,2.168,0.24,5.943,0.24,5.622v4.819
		c0,2.249-3.373,4.899-5.542,6.104c-0.08-0.161-0.241-0.161-0.321-0.161c-0.24,0-0.481,0.322-0.883,0.322
		c-2.089-0.965-1.045-2.49-1.688-3.053c0-4.177-0.481-3.855-2.892-3.855c-1.204,0-6.024,0.643-6.747,1.606
		c0,2.57-0.321,4.659-0.321,7.55c-1.124,2.41-2.008,3.454-3.855,4.82c-2.008,0.16-2.57-3.294-2.57-4.338
		C393.274,111.735,393.917,110.771,393.917,110.611z M401.468,100.65c0.241,0,3.132-0.643,3.373-0.643
		c1.446,0,4.097-0.16,5.302-1.767c0-3.534,0.562-15.743-1.688-15.743c-0.32,0.16-1.605,0.482-2.65,0.482
		c-2.329,0.883-6.265,0.24-6.747,2.248c0,4.017,0.482,7.792,0.482,11.889c0,0.643-0.321,1.525-0.321,2.088
		C399.219,100.33,400.584,100.812,401.468,100.65z"/>
</g>
<g>
	<path fill="#7F7F7F" d="M419.352,141.985c-2.784,0-4.176-2.189-4.176-6.568c0-4.375,1.419-6.562,4.257-6.562
		c2.843,0,4.264,2.16,4.264,6.48C423.696,139.769,422.248,141.985,419.352,141.985z M419.469,141.186
		c0.603,0,1.006-0.421,1.211-1.264c0.206-0.842,0.309-2.396,0.309-4.663c0-2.145-0.11-3.614-0.33-4.41
		c-0.221-0.796-0.629-1.193-1.226-1.193c-0.603,0-1.011,0.401-1.226,1.204c-0.216,0.803-0.323,2.316-0.323,4.539
		c0,2.311,0.111,3.854,0.334,4.627S418.857,141.186,419.469,141.186z"/>
	<path fill="#7F7F7F" d="M425.7,141.685v-2.503h2.503v2.503H425.7z"/>
	<path fill="#7F7F7F" d="M430.559,141.582v-2.4h1.006v0.198l0.029,0.558c0.034,0.832,0.561,1.248,1.578,1.248
		c1.565,0,2.349-0.967,2.349-2.899c0-2.211-1.226-3.317-3.677-3.317c-0.255,0-0.6,0.022-1.035,0.066v-5.879h7.215v2.201h-6.209
		v2.812h0.278c4.12,0,6.18,1.321,6.18,3.963c0,1.175-0.447,2.11-1.343,2.808s-2.097,1.046-3.604,1.046
		C432.582,141.985,431.66,141.851,430.559,141.582z"/>
	<path fill="#7F7F7F" d="M439.873,141.685v-0.8c0.586,0,0.93-0.102,1.03-0.305s0.151-0.669,0.151-1.398v-5.013
		c0-0.729-0.052-1.195-0.155-1.398s-0.445-0.305-1.026-0.305v-0.8h4.358l2.735,5.894l2.866-5.894h3.684v0.8
		c-0.582,0-0.924,0.102-1.027,0.305c-0.103,0.203-0.154,0.669-0.154,1.398v5.013c0,0.729,0.051,1.195,0.151,1.398
		c0.102,0.203,0.444,0.305,1.03,0.305v0.8h-4.683v-0.8c0.646,0,0.97-0.235,0.97-0.705l0.029-0.998v-5.688l-3.278,6.76h-1.098
		l-3.147-6.781v5.71l0.029,0.998c0,0.47,0.323,0.705,0.969,0.705v0.8H439.873z"/>
	<path fill="#7F7F7F" d="M454.31,141.685v-0.8c0.586,0,0.93-0.102,1.03-0.305s0.151-0.669,0.151-1.398v-5.013
		c0-0.729-0.052-1.195-0.155-1.398s-0.445-0.305-1.026-0.305v-0.8h4.358l2.735,5.894l2.866-5.894h3.684v0.8
		c-0.582,0-0.924,0.102-1.027,0.305c-0.103,0.203-0.154,0.669-0.154,1.398v5.013c0,0.729,0.051,1.195,0.151,1.398
		c0.102,0.203,0.444,0.305,1.03,0.305v0.8h-4.683v-0.8c0.646,0,0.97-0.235,0.97-0.705l0.029-0.998v-5.688l-3.278,6.76h-1.098
		l-3.147-6.781v5.71l0.029,0.998c0,0.47,0.323,0.705,0.969,0.705v0.8H454.31z"/>
</g>
<g>
</g>
<g>
</g>
<g>
</g>
<g>
</g>
<g>
</g>
<g>
</g>
<g>
</g>
<g>
</g>
<g>
</g>
<g>
</g>
<g>
</g>
<g>
</g>
<g>
</g>
<g>
</g>
<g>
</g>
</svg>
