<?xml version="1.0" encoding="utf-8"?>
<!-- Generator: Adobe Illustrator 17.0.0, SVG Export Plug-In . SVG Version: 6.00 Build 0)  -->
<!DOCTYPE svg PUBLIC "-//W3C//DTD SVG 1.1//EN" "http://www.w3.org/Graphics/SVG/1.1/DTD/svg11.dtd">
<svg version="1.1" id="图层_1" xmlns="http://www.w3.org/2000/svg" xmlns:xlink="http://www.w3.org/1999/xlink" x="0px" y="0px"
	 width="480px" height="150px" viewBox="0 0 480 150" enable-background="new 0 0 480 150" xml:space="preserve">
<rect x="-28" y="-15" fill="#396EE5" width="540" height="203"/>
<g>
	<path fill="#FF8B00" d="M22.88,104.489l39.077-60.168l72.629,13.297l4.438,18.882l-4.438,9.749l7.102,10.799l-11.52,7.442
		l4.417,18.257l0,0l-21.07,1.983c0,0-38.286-1.272-64.212,12.013c0,0-19.839,10.827-24.521,16.035"/>
	<g>
		<g>
			<path fill="#FF9D00" d="M124.08,110.499c3.829,0.089,12.117,0.858,19.962,0.157c2.123-0.19,5.346,0.677,6.7,0.657
				c6.832-0.101,11.516,0.672,15.655,0.247c2.855-0.293,6.624,0.206,8.975,1.41c2.352,1.204,1.095,4.128-0.251,5.574
				c-1.353,1.455-9.888,2.062-11.77,2.157c-2.189,0.111-4.66,0.118-6.039-0.031c-1.476,0.085-9.194,1.416-12.181,2.154
				c-7.066,1.746-12.242,1.102-19.314,2.665"/>
		</g>
		<g>
			<path fill="#FFFF00" d="M123.08,109.499c3.829,0.089,12.117,0.858,19.962,0.157c2.123-0.19,5.346,0.677,6.7,0.657
				c6.832-0.101,11.516,0.672,15.655,0.247c2.855-0.293,6.624,0.206,8.975,1.41c2.352,1.204,1.095,4.128-0.251,5.574
				c-1.353,1.455-9.888,2.062-11.77,2.157c-2.189,0.111-4.66,0.118-6.039-0.031c-1.476,0.085-9.194,1.416-12.181,2.154
				c-7.066,1.746-12.242,1.102-19.314,2.665"/>
		</g>
	</g>
	<g>
		<g>
			<rect x="64" y="24" fill="#FF6700" width="65" height="107"/>
			<rect x="101" y="30" fill="#FF6700" width="19" height="95"/>
			<rect x="72" y="30" fill="#FF6700" width="19" height="95"/>
			<rect x="72" y="30" fill="#FF6700" width="1" height="95"/>
			<rect x="72" y="30" fill="#FF6700" width="19" height="1"/>
			<rect x="101" y="30" fill="#FF6700" width="1" height="95"/>
			<rect x="101" y="30" fill="#FF6700" width="19" height="1"/>
		</g>
		<g>
			<g>
				<rect x="63" y="23" fill="#FFB115" width="65" height="107"/>
				<g>
					<rect x="100" y="29" fill="#FF9100" width="19" height="95"/>
					<rect x="71" y="29" fill="#FF9100" width="19" height="95"/>
					<g>
						<rect x="71" y="29" fill="#FF6700" width="1" height="95"/>
						<rect x="71" y="29" fill="#FF6700" width="19" height="1"/>
					</g>
					<g>
						<rect x="100" y="29" fill="#FF6700" width="1" height="95"/>
						<rect x="100" y="29" fill="#FF6700" width="19" height="1"/>
					</g>
				</g>
			</g>
		</g>
	</g>
	<path fill="#FFFF00" d="M-24.877,103.774c3.382,0.094,23.893-3.014,26.877-4.463c9.088-4.413,10.468-6.494,19.49-11.143
		c3.576-1.843,7.96-4.873,10.91-7.837c1.856-1.864,3.552-6.134,4.059-8.81c1.218-6.431,5.786-12.544,8.243-18.617
		c2.186-5.4,8.445-9.659,10.444-12.265c3.112-4.057,3.511-7.76,6.526-13.374c0.296-4.146,2.878-13.306,9.054-10.18
		c4.715,2.387,6.67,13.459,5.331,18.359c-1.124,4.111-4.383,9.331-6.978,12.577C65.852,52.056,62.003,64.807,61.683,70
		c-0.888,14.444,0.584,15.092,0.584,29.586c0,5.099-0.094,8.486,0.732,13.435c0.603,3.613,1.2,15.776-2.107,17.345
		c-9.377,4.446-18.931,9.605-28.006,14.662c-5.307,2.958-21.582,17.543-25.631,22.038"/>
	<g>
		<g>
			<path fill="#FF9D00" d="M138.118,88.641c4.17,2.957,8.701,9.399,6.384,13.383c-3.453,5.939-12.044,12.596-18.955,13.466
				c-2.528,0.318-2.998,0.599-4.797-1.7c-2.853-3.645,0.473-9.136,2.876-13.142"/>
		</g>
		<g>
			<path fill="#FFFF00" d="M137.118,87.641c4.17,2.957,8.701,9.399,6.384,13.383c-3.453,5.939-12.044,12.596-18.955,13.466
				c-2.528,0.318-2.998,0.599-4.797-1.7c-2.853-3.645,0.473-9.136,2.876-13.142"/>
		</g>
	</g>
	<g>
		<g>
			<path fill="#FF9D00" d="M139.75,71.59c0.794,3.164,5.676,7.696,4.45,10.387c-0.848,1.86-2.18,3.616-3.138,5.415
				c-2.201,4.133-4.743,7.248-8.357,10.372c-3.376,2.917-4.939,4.171-9.396,4.165c-5.059-0.007-5.432-3.462-4.834-7.271
				c1.176-7.486,6.809-13.138,9.992-15.828"/>
		</g>
		<g>
			<path fill="#FFFF00" d="M138.75,70.59c0.794,3.164,5.676,7.696,4.45,10.387c-0.848,1.86-2.18,3.616-3.138,5.415
				c-2.201,4.133-4.743,7.248-8.357,10.372c-3.376,2.917-4.939,4.171-9.396,4.165c-5.059-0.007-5.432-3.462-4.834-7.271
				c1.176-7.486,6.809-13.138,9.992-15.828"/>
		</g>
	</g>
	<g>
		<g>
			<path fill="#FF9D00" d="M129,49.019c5.713,1.852,13.451,3.292,14.204,6.631c0.652,2.714,0.775,5.162,0.122,7.581
				c-0.952,3.525-1.208,7.138-2.074,10.681c-0.713,2.917-0.704,3.792-4.054,3.467c-6.574-0.637-8.573-8.683-8.385-14.184"/>
		</g>
		<g>
			<path fill="#FFFF00" d="M128,48.019c5.713,1.852,13.451,3.292,14.204,6.631c0.652,2.714,0.775,5.162,0.122,7.581
				c-0.952,3.525-1.208,7.138-2.074,10.681c-0.713,2.917-0.704,3.792-4.054,3.467c-6.574-0.637-8.573-8.683-8.385-14.184"/>
		</g>
	</g>
</g>
<g>
	<g>
		<g>
			<path fill="#CE0000" d="M180.61,143.162c-1.25,0-2.221-1.193-2.221-2.221c0-2.888,2.455-5.287,4.248-7.038l0.383-0.377
				c0.349-0.619,0.568-1.32,0.819-2.123c0.442-1.41,0.982-3.135,2.479-4.767c0.04-0.895,0.472-1.487,0.792-1.925
				c0.089-0.122,0.168-0.23,0.235-0.338c-0.095-1.294,0.504-2.527,0.999-3.546c0.224-0.461,0.598-1.232,0.586-1.489l-0.115-0.276
				l0.022-0.217c0-0.741,0.461-1.203,1.16-1.901c0.134-0.134,0.27-0.266,0.375-0.378l0.375-1.749l0.227-0.279
				c0.8-0.985,1.385-4.036,1.9-6.728c0.314-1.639,0.639-3.334,1.053-4.949c0.184-0.735,0.47-1.323,0.7-1.796
				c0.298-0.611,0.454-0.953,0.454-1.434c0-1.868,0.269-3.509,0.528-5.096c0.223-1.361,0.433-2.647,0.433-3.911v-0.454l0.48-0.721
				V78.471l-0.48-0.721v-0.454c0-1.31-0.083-2.817-0.151-4.028c-0.049-0.888-0.089-1.638-0.089-2.097
				c0-0.267,0.048-0.641,0.133-1.279c0.048-0.362,0.101-0.723,0.107-0.897V56.281c-0.006-0.062-0.04-0.295-0.076-0.562
				c-0.086-0.642-0.15-1.137-0.162-1.488c-0.073-0.624,0.017-1.158,0.103-1.676c0.063-0.375,0.127-0.763,0.135-1.234
				c-0.052-0.46-0.229-2.313-0.239-6.204c-0.938-2.004-1.182-5.542-1.201-7.026c-0.124-0.504-0.295-1.095-0.479-1.738
				c-0.589-2.049-1.323-4.599-1.323-6.731c0-0.964,0.429-2.581,3.301-2.581c2.334,0,5.206,1.124,7.077,2.753
				c0.455,0.167,1.281,0.2,2.018,0.229c1.878,0.074,5.375,0.213,5.375,3.922c0,1.951-1.663,3.288-2.902,4.091
				c-0.064,1.4-0.276,2.668-0.481,3.901c-0.222,1.334-0.433,2.598-0.458,3.988c0.271,0.69,0.394,0.69,1.62,0.69l0.786,0.006
				c2.601,0,3.479-0.714,3.479-2.829c0-0.866-0.097-1.477-0.182-2.015c-0.097-0.611-0.188-1.192-0.069-1.83
				c-0.034-0.339-0.139-1.202-0.218-1.857c-0.198-1.631-0.251-2.106-0.251-2.343c-0.076-1.323,0.466-2.208,0.934-2.703
				c0.84-0.887,2.125-1.319,3.929-1.319c0.545,0,1.022,0.12,1.444,0.225c0.278,0.069,0.542,0.135,0.717,0.135
				c0.001-0.016,0.181-0.151,0.3-0.24c0.446-0.335,1.121-0.841,2.101-0.841h4.563c3.857,0,4.231-1.447,4.851-3.846
				c0.456-1.766,1.023-3.963,3.427-5.031l0.16-0.071l0.173-0.032c0.258-0.048,0.51-0.073,0.75-0.073
				c1.835,0,2.631,1.349,3.058,2.073c0.102,0.171,0.255,0.431,0.328,0.497c0.532,0.498,1.291,1.001,2.094,1.535
				c2.189,1.455,4.914,3.265,4.914,6.089c0,2.501-1.47,5.016-3.95,6.791c-1.041,2.017-1.364,3.961-1.805,6.605l-0.01,0.058
				c0,1.25-0.008,2.264-0.24,3.401c-0.005,0.361-0.024,0.645-0.042,0.878c-0.006,0.083-0.013,0.154-0.017,0.219l0.27,0.337
				l0.029,0.565v5.109c0.057,0.034,0.113,0.067,0.166,0.096c0.57-0.104,0.907-0.662,1.423-2.236
				c0.218-0.667,0.407-1.244,0.755-1.708l0.32-0.426l0.516-0.129c0.351-0.275,0.562-2.079,0.662-2.945
				c0.105-0.906,0.205-1.761,0.425-2.508c0.199-0.749,0.541-1.474,0.872-2.175c0.509-1.077,0.988-2.094,0.988-3.286v-0.406
				l0.204-0.35c0.646-1.106,0.763-2.342,0.898-3.773c0.16-1.689,0.341-3.603,1.478-5.55c0.265-0.548,0.417-1.232,0.578-1.955
				c0.176-0.793,0.357-1.611,0.712-2.409c0.069-0.514,0.261-1.038,0.476-1.625c0.327-0.894,0.698-1.907,0.698-3.025
				c0-1.375,2.64-4.742,4.382-4.742c2.095,0,3.42,1.516,4.388,2.622c0.217,0.248,0.426,0.489,0.636,0.699
				c0.148,0.137,0.872,0.654,1.454,1.069c4.365,3.116,6.19,4.671,6.19,6.236c0,1.391-1.038,2.713-1.954,3.88
				c-0.28,0.358-0.631,0.804-0.726,0.994l-0.042,0.083l-0.052,0.078c-1.055,1.582-2.05,3.301-3.013,4.964
				c-0.985,1.702-2.005,3.462-3.111,5.123l-0.166,0.25l-0.25,0.167c-0.892,0.625-3.944,4.908-4.015,6.618h2.823
				c0.526-0.208,1.155-0.259,1.897-0.259c0.231,0,0.472,0.005,0.71,0.01c0.069,0.001,0.14,0.003,0.209,0.004
				c2.184-1.466,3.969-4.371,3.969-6.541v-0.621l0.351-0.352c0.154-0.323,0.424-1.271,0.606-1.912
				c0.567-1.997,0.961-3.259,1.644-3.941c0.908-1.034,1.105-1.567,1.404-2.374c0.172-0.465,0.383-1.036,0.755-1.763
				c0.115-0.388,0.373-0.853,0.841-1.67c0.162-0.284,0.417-0.73,0.532-0.964c0.072-1.829,0.653-12.401,4.013-12.401
				c1.533,0,2.813,0.915,3.941,1.721c0.922,0.659,1.792,1.281,2.544,1.281c0.013,0,0.104,0,0.131-0.003l0.885-0.442l0.765,0.765
				c0.699,0.699,2.337,2.669,2.953,4.054l0.053,0.119l0.031,0.126c0.026,0.104,0.049,0.14,0.049,0.14
				c0.019,0.021,0.101,0.082,0.161,0.127c0.662,0.493,1.275,1.151,1.275,2.619c0,1.546-3.501,5.393-4.081,6.018
				c-1.012,1.263-1.969,2.353-3.308,2.882c-0.184,0.313-0.462,1.083-0.673,1.662c-0.496,1.37-1.173,3.236-2.342,4.96
				c-0.323,0.66-0.838,1.421-1.381,2.223c-0.413,0.611-1.086,1.605-1.438,2.302c0.095-0.023,0.197-0.054,0.319-0.094l0.415-0.138
				l0.424,0.106c0.14,0.035,0.275,0.053,0.404,0.053c1.478,0,2.832-2.595,3.728-4.312c0.245-0.47,0.475-0.909,0.691-1.282
				l0.056-0.097l0.389-0.495c1.948-2.505,2.451-3.042,3.354-3.042h0.354l0.012,0.006c0.78,0.008,2.019,0.063,3.062,0.454
				l0.346,0.129l0.246,0.275c1.056,1.18,2.684,2.578,4.408,4.058c1.451,1.246,3.096,2.658,4.642,4.149l0.186,0.179l0.115,0.23
				c0.398,0.797,0.398,1.71,0.398,2.592c0,3.622-1.991,4.382-3.662,4.382h-0.094l-0.093-0.012c-0.867-0.108-1.872-0.108-2.936-0.108
				c-2.47,0-6.075,0.147-8.861,1.425L281.69,56.1h-0.327c-0.378,0-0.79-0.082-1.312-0.186c-0.657-0.131-1.476-0.294-2.291-0.294
				c-0.799,0-1.165,0.279-1.37,0.489c-1.256,1.281-1.181,5.002-1.12,7.992c0.014,0.695,0.027,1.377,0.027,2.028l-0.004,0.106
				c-0.029,0.417,0.153,0.881,0.488,1.241c0.321,0.345,0.925,0.756,1.979,0.756c0.587,0,1.399-0.434,1.566-0.655l2.605-5.219
				l0.172-0.172c0.552-0.551,1.006-0.772,1.327-0.86c0.248-0.096,0.518-0.146,0.795-0.146c1.553,0,3.284,1.505,5.937,4.283
				c0.219,0.229,0.404,0.424,0.547,0.566l0.384,0.384l0.05,0.541c0.114,0.156,0.873,0.499,1.238,0.664
				c0.356,0.161,0.693,0.313,0.981,0.505c2.109,1.407,2.109,4.433,2.109,5.572v0.927l-3.307,1.653h-0.354
				c-1.683,0-3.145,0.086-4.692,0.176c-1.561,0.091-3.175,0.185-5.035,0.185c-0.026,0-0.111-0.003-0.247-0.011
				c-0.311-0.021-1.074-0.068-2.007-0.068c-3.88,0-4.548,0.797-4.554,0.806c0.021,0.562,0.104,1.217,0.19,1.91
				c0.094,0.755,0.191,1.534,0.191,2.349c0,0.688-0.111,1.244-0.209,1.734c-0.081,0.405-0.151,0.756-0.151,1.147
				c0,3.52,0.498,3.903,2.463,3.903c1.06,0,1.396-0.219,2.404-1.562l0.389-0.519l0.256-0.028c0.14-0.214,0.329-0.557,0.478-0.826
				c0.857-1.558,2.154-3.91,4.76-3.91c1.008,0,1.725,0.646,2.301,1.163c0.126,0.113,0.3,0.271,0.425,0.365
				c1.456,0.359,2.144,1.316,2.502,2.074h0.142l0.296,0.135c3.39,1.541,3.761,3.1,3.761,6.049c0,1.684,0,4.502-3.181,4.502
				c-2.672,0-5.219,0.362-7.683,0.712c-2.524,0.358-5.136,0.729-7.929,0.729h-0.511l-0.233,0.207l-0.711,5.688l-1.29,1.377
				c1.259,0.98,1.597,2.175,1.819,2.959c0.061,0.213,0.152,0.535,0.214,0.618l0,0c0.012,0,0.177,0.074,0.647,0.081
				c1.01-0.095,1.873-0.225,2.708-0.351c1.263-0.19,2.454-0.37,3.841-0.37c1.004,0,2.108-2.852,2.702-4.384
				c0.818-2.113,1.465-3.782,3.062-3.782c1.662,0,2.683,1.301,3.502,2.347c0.131,0.166,0.304,0.386,0.471,0.582l0.441-0.882
				l6.713,7.017c0.978,0.893,1.035,2.467,0.949,4.041l-0.009,0.172l-0.009,0.427l-0.231,0.38c-1.187,1.834-4.273,2.209-8.542,2.209
				c-1.028,0-2.076-0.021-3.085-0.044c-0.916-0.02-1.799-0.038-2.603-0.038c-0.337,0.004-2.707,0.207-4.438,0.355
				c-2.898,0.248-4.307,0.365-4.688,0.365c-0.977,0-1.891-0.016-2.775-0.03c-0.812-0.014-1.598-0.027-2.384-0.027
				c-2.13,0-4.549,0.09-7.804,0.734c-1.415,0.427-2.87,0.467-4.157,0.502c-3.012,0.083-3.356,0.276-3.356,1.885v6.282l-0.1,0.26
				c-0.302,0.783-3.487,6.486-5.724,6.486c-4.848,0-6.304-8.508-6.304-9.426c0-0.528,0.135-0.993,0.255-1.402
				c0.088-0.304,0.173-0.595,0.208-0.921l-0.463-0.925v-0.354c0-0.594,0.254-1.194,0.48-1.614V107.08l-0.48-1.441V93.867
				c0-1.719-0.336-5.334-0.537-7.493c-0.115-1.247-0.166-1.802-0.179-2.092c-0.083-0.549-0.109-1.128-0.138-1.74
				c-0.045-0.988-0.096-2.108-0.429-2.774l-0.158-0.316V64.267c-0.058,0.056-0.124,0.125-0.205,0.211
				c-0.195,0.204-0.43,0.448-0.742,0.718c-0.363,0.556-0.772,0.855-1.056,1.062c-0.304,0.222-0.762,0.557-0.762,4.192v22.455
				c0,3.487,0.316,7.189,0.622,10.77c0.384,4.499,0.781,9.15,0.577,13.558l-0.008,0.185l-0.883,2.941l-4.777,4.777l-0.239,0.111
				c-0.428,0.199-0.782,0.392-1.104,0.565c-0.978,0.529-1.9,1.029-3.45,1.029c-0.158,0-0.323-0.005-0.498-0.016l-0.663-0.041
				l-0.414-0.519c-0.123-0.138-0.652-0.538-1.039-0.83c-0.802-0.606-1.629-1.232-2.178-1.873c-0.231-0.142-0.641-0.355-1.011-0.548
				c-2-1.043-4.267-2.226-4.267-4.171c0-2.46,3.161-3.769,5.949-4.923c0.962-0.398,1.956-0.81,2.364-1.102
				c0.441-0.363,0.802-2.161,0.813-3.347c0-1.147-0.694-5.675-1.324-7.136l-0.252,0.003c-0.871,0-1.838-0.065-2.646-0.489h-6.287
				c-1.02,0-1.659-0.59-2.103-1.346v5.609c0,2.809-3.356,4.862-5.103,4.862c-5.823,0-5.823-7.614-5.823-10.866
				c0-0.67-0.008-1.23-0.016-1.718c-0.031-2.033-0.045-2.976,0.613-5.102c-0.529-1.106-0.571-1.962-0.603-2.613
				c-0.019-0.394-0.033-0.677-0.145-0.983l-0.049-0.135l-0.022-0.141c-0.341-2.13,0.114-3.147,0.653-4.085
				c0.21-0.366,0.289-0.503,0.289-0.835c0-0.257-0.311-0.579-0.731-0.793c-0.203,2.13-0.592,6.587-0.592,9.438
				c0,0.446-0.156,1.033-0.511,2.267c-0.088,0.306-0.169,0.579-0.21,0.746v0.029l-0.227,1.054c-0.636,2.95-1.237,5.737-1.453,8.666
				c0.082,3.066-1.029,5.503-2.103,7.86c-0.307,0.673-0.614,1.346-0.888,2.031l-0.058,0.145l-0.086,0.131
				c-0.055,0.082-0.116,0.181-0.168,0.27c0.067,1.155-0.818,2.392-1.885,3.881c-0.843,1.177-1.878,2.623-2.116,3.658
				c0.029,0.782-0.573,1.68-1.815,3.531c-0.38,0.567-0.95,1.416-1.275,1.972l0.248,0.329l-0.784,0.914
				c-0.28,0.326-0.787,0.989-1.44,1.84C185.263,140.563,182.623,143.162,180.61,143.162z M257.892,109.444
				c0.46,0.047,0.893,0.07,1.286,0.07c2.201,0,2.795-0.748,2.989-0.993c0.514-0.647,0.764-1.748,0.764-3.366
				c0-3.112-0.458-5.717-0.917-6.425c-4.092,0.037-5.263,0.955-5.866,1.636l0.056,0.112v8.562c0.033,0.008,0.066,0.015,0.1,0.021
				C256.877,109.189,257.469,109.318,257.892,109.444z M256.092,79.192c-0.308,1.095-0.608,4.675-0.608,8.911
				c0,2.905,0.347,3.372,0.416,3.436c0.104,0.071,0.511,0.107,1.206,0.107c1.426,0,1.893-0.171,2.345-0.337
				c0.49-0.18,1.046-0.383,2.099-0.383c0.193,0,0.416,0.012,0.655,0.026c0.21,0.013,0.438,0.026,0.664,0.026
				c0.2,0,0.335-0.012,0.423-0.026c0-4.997-0.007-12.518-3.184-12.518C258.636,78.436,257.228,78.702,256.092,79.192z
				 M216.996,91.646c3.047,0,3.303-1.306,3.303-5.345c0-2.797-0.549-3.183-1.142-3.183c-1.034,0-2.183,0.322-2.343,0.809v7.714
				C216.864,91.645,216.924,91.646,216.996,91.646z M206.537,70.95c0.235,0.49,0.412,0.964,0.576,1.402
				c0.512,1.37,0.662,1.572,1.23,1.662l0.185,0.029l0.172,0.074c1.861,0.798,3.922,1.202,6.127,1.202l0.132,0
				c0.264-0.558,0.522-2.027,0.537-3.649c-0.053-0.161-0.175-0.466-0.252-0.66c-0.213-0.534-0.356-0.9-0.423-1.224
				c-0.054,0.003-0.107,0.005-0.159,0.008c-0.198,0.01-0.379,0.018-0.529,0.018c-0.141,0-0.264-0.007-0.377-0.021
				C211.121,69.806,207.79,70.363,206.537,70.95z M226.982,73.274l0.137,0.026c0.769,0.144,1.383,0.414,1.9,0.702
				c-0.172-0.872-0.292-1.729-0.312-2.583c-0.2-0.697-0.19-1.44-0.182-2.162c0.006-0.422,0.015-1.104-0.074-1.379
				c-0.037-0.005-0.092-0.01-0.168-0.01c-0.909,0-2.884,0.415-4.055,0.946c-0.021,0.439-0.053,1.011-0.092,1.72
				c-0.055,0.994-0.117,2.12-0.117,2.438c0,0.07-0.008,0.3-0.008,0.301H226.982z M259.286,70.032
				c2.221-1.604,2.315-3.603,2.211-7.662c-0.468-1.171-0.534-2.309-0.588-3.237c-0.094-1.592-0.094-1.592-1.162-1.592
				c-1.984,0-3.65,0.211-5.068,0.645c-0.396,1.247-0.396,2.034-0.396,3.619c0,0.94,0.102,2.154,0.209,3.438
				c0.116,1.388,0.247,2.944,0.269,4.428c0.066,0.113,0.154,0.257,0.231,0.36H259.286z M207.474,56.035
				c0.398,1.185-0.187,2.188-0.519,2.757c-0.084,0.145-0.212,0.364-0.234,0.445c0.007,1.511,0.332,3.2,4.173,3.228
				c0.595-0.16,2.283-1.071,2.921-1.598v-0.504c0-1.817-0.496-4.766-1.028-5.708c-0.267-0.002-0.527-0.005-0.781-0.008
				c-0.396-0.005-0.777-0.01-1.141-0.01C208.003,54.637,207.591,54.982,207.474,56.035z M223.298,59.668
				c1.152,0.802,2.79,0.876,4.266,0.876c0.698,0,2.823,0,2.823-2.823c-0.089-0.661-1.425-3.711-2.157-4.98
				c-1.951,0.023-3.841,0.158-4.406,0.728c-0.569,0.574-0.555,2.455-0.533,5.058C223.293,58.89,223.296,59.27,223.298,59.668z
				 M225.461,44.426c0.227,0.027,0.523,0.027,0.661,0.027c0.597,0,1.051-0.102,1.213-0.273c0.283-0.296,0.234-1.318,0.199-2.064
				c-0.016-0.331-0.03-0.656-0.03-0.966c0-1.713,0-1.865-1.052-2.463h-1.505c-0.03,0.21-0.077,0.42-0.123,0.626
				c-0.011,0.052-0.023,0.104-0.035,0.155c0.075,0.092,0.165,0.192,0.232,0.26l0.439,0.439V44.426z"/>
			<path fill="#FFFFFF" d="M274.518,18.454c2.162,0,4.083,3.002,6.485,3.002c0.12,0,0.479,0,0.72-0.12
				c0.721,0.721,2.162,2.522,2.643,3.603c0.36,1.441,1.44,0.841,1.44,2.522c0,0.721-3.002,4.323-3.723,5.043
				c-0.96,1.201-1.801,2.162-2.882,2.522c-1.081,0.36-1.441,4.083-3.603,7.205c-0.721,1.562-3.242,4.443-3.242,5.884
				c0,0.721,0.36,0.961,0.721,0.961c0.72,0,1.08,0,1.801-0.24c0.266,0.066,0.522,0.098,0.768,0.098c2.876,0,4.5-4.241,5.717-6.342
				c0.468-0.585,2.194-2.886,2.501-2.886c0.008,0,0.014,0.001,0.02,0.004c0.601,0,1.921,0,2.882,0.36
				c2.042,2.282,5.765,5.044,9.127,8.286c0.24,0.48,0.24,1.201,0.24,1.921c0,1.441-0.24,2.882-2.162,2.882
				c-0.96-0.12-2.041-0.12-3.122-0.12c-3.002,0-6.604,0.24-9.486,1.561c-0.601,0-2.042-0.48-3.604-0.48
				c-4.803,0-3.963,6.965-3.963,12.009c-0.119,1.681,1.321,3.603,3.963,3.603c1.081,0,2.522-0.721,2.883-1.441l2.521-5.044
				c0,0,0.48-0.48,0.721-0.48c0.099-0.059,0.214-0.087,0.341-0.087c1.418,0,4.432,3.418,5.423,4.41
				c0.12,1.321,2.162,1.802,2.883,2.282c1.44,0.961,1.44,3.363,1.44,4.323l-2.161,1.081c-3.482,0-6.125,0.36-9.728,0.36
				c-0.08,0-1.027-0.08-2.254-0.08c-2.455,0-6.032,0.32-6.032,2.242c0,1.44,0.36,2.882,0.36,4.323c0,1.08-0.36,1.801-0.36,2.882
				c0,3.242,0.36,5.403,3.963,5.403c1.802,0,2.522-0.721,3.604-2.161c1.08-0.12,1.921-4.684,4.683-4.684
				c0.721,0,1.441,1.081,2.162,1.441c2.041,0.36,1.801,2.401,2.281,2.401c0,0,0.36-0.24,0.601-0.24
				c2.642,1.201,2.882,2.042,2.882,4.684c0,2.041-0.12,3.002-1.681,3.002c-5.524,0-10.208,1.441-15.611,1.441h-1.081l-1.081,0.961
				l-0.721,5.764l-1.801,1.922v0.72c3.603,1.562,1.081,4.563,4.684,4.563c2.642-0.24,4.323-0.721,6.484-0.721
				c3.362,0,4.323-8.166,5.765-8.166c1.801,0,2.762,3.363,4.322,3.363c0.12,0,0.36,0,0.48-0.24l5.284,5.523
				c0.721,0.601,0.48,2.762,0.48,3.122c-0.832,1.286-3.949,1.524-7.282,1.524c-1.961,0-3.997-0.082-5.687-0.082
				c-0.721,0-8.406,0.721-9.126,0.721c-1.873,0-3.516-0.058-5.159-0.058c-2.464,0-4.928,0.13-8.171,0.778
				c-3.843,1.2-8.646-0.961-8.646,3.843v6.004c-0.601,1.562-3.482,5.524-4.323,5.524c-3.362,0-4.804-6.966-4.804-7.926
				c0-0.721,0.48-1.441,0.48-2.643l-0.48-0.96c0-0.48,0.48-1.201,0.48-1.201v-11.288l-0.48-1.441V93.867
				c0-2.642-0.72-9.126-0.72-9.727c-0.24-1.441,0-3.603-0.721-5.044V62.766c0-0.24-0.721-0.24-0.721-0.24
				c-1.682,0-1.682,0.72-2.882,1.681c-0.841,1.561-2.162,0.12-2.162,6.245v22.455c0,7.926,1.562,16.452,1.201,24.258l-0.721,2.402
				l-4.323,4.322c-1.668,0.779-2.307,1.455-3.919,1.455c-0.128,0-0.263-0.004-0.405-0.013c-0.48-0.601-2.642-1.921-3.362-2.882
				c-0.96-0.721-4.803-2.162-4.803-3.603c0-2.162,6.004-3.603,7.686-4.804c1.321-0.841,1.441-4.323,1.441-4.563
				c0-1.201-0.961-8.406-2.162-8.646c-0.275,0-0.589,0.01-0.914,0.01c-0.812,0-1.693-0.061-2.208-0.489h-6.725
				c-1.441,0-1.441-4.323-2.882-4.323c-0.36,0-0.36,0.24-0.721,0.48v9.606c0,1.802-2.522,3.362-3.603,3.362
				c-3.963,0-4.323-5.043-4.323-9.366c0-3.603-0.24-4.083,0.721-6.966c-1.081-1.801-0.48-2.642-0.961-3.963
				c-0.48-3.002,0.961-2.882,0.961-4.683c0-1.441-1.681-2.521-3.123-2.521l-0.48,0.359c0,0-0.721,6.845-0.721,10.808
				c0,0.48-0.721,2.643-0.721,2.883c-0.72,3.362-1.441,6.484-1.681,9.847c0.12,3.603-1.681,6.364-2.882,9.367
				c0,0-0.48,0.72-0.48,0.96c0.601,1.201-3.603,4.924-3.963,7.686c0.24,0.48-3.603,5.284-3.242,5.765
				c-1.441,1.681-8.767,12.009-11.168,12.009c-0.36,0-0.721-0.48-0.721-0.721c0-2.521,2.762-4.924,4.323-6.484
				c1.321-2.162,1.081-4.804,3.603-7.205v-0.48c0-0.841,0.72-1.201,1.081-2.162c-0.48-1.921,2.042-4.323,1.441-5.764
				c0-0.24,1.441-1.441,1.441-1.682l0.36-1.681c1.561-1.922,2.041-7.565,3.242-12.249c0.36-1.441,1.201-2.162,1.201-3.603
				c0-3.362,0.961-6.125,0.961-9.007l0.48-0.721V78.017l-0.48-0.721c0-2.282-0.24-5.043-0.24-6.125c0-0.36,0.24-1.801,0.24-2.162
				V56.281c0-0.24-0.24-1.681-0.24-2.162c-0.12-0.84,0.24-1.561,0.24-2.882c0,0-0.24-1.801-0.24-6.485
				c-0.841-1.441-1.201-4.923-1.201-6.845c-0.48-2.042-1.801-5.644-1.801-8.286c0-1.081,1.081-1.081,1.801-1.081
				c2.042,0,4.684,1.081,6.245,2.522c2.042,1.081,6.725-0.6,6.725,2.882c0,1.441-1.681,2.521-2.882,3.242
				c0,3.242-0.96,5.764-0.96,9.006c0.72,1.921,1.441,1.921,3.122,1.921c0.224,0,0.491,0.006,0.785,0.006
				c1.912,0,4.979-0.271,4.979-4.329c0-2.042-0.48-2.882-0.24-3.723c0-0.36-0.48-3.962-0.48-4.323
				c-0.12-2.162,1.802-2.522,3.363-2.522c0.72,0,1.441,0.36,2.162,0.36c0.96,0,1.441-1.081,2.401-1.081h4.563
				c8.406,0,4.563-7.085,8.886-9.006c0.172-0.032,0.329-0.047,0.474-0.047c1.475,0,1.643,1.552,2.409,2.209
				c1.921,1.801,6.484,3.603,6.484,6.485c0,2.162-1.441,4.323-3.603,5.764c-1.321,2.401-1.682,4.683-2.162,7.565
				c0,1.321,0,2.281-0.239,3.362c0,1.321-0.24,1.561,0.239,2.162v5.764c0,0.24,1.201,0.96,1.441,0.96
				c2.762,0,2.882-3.603,3.603-4.563c1.922-0.48,1.562-4.443,2.162-6.485c0.479-1.801,1.921-3.482,1.921-5.884
				c1.682-2.882,0.48-6.125,2.401-9.367c0.721-1.441,0.721-3.242,1.441-4.684c0-0.96,1.201-2.762,1.201-5.043
				c0-0.721,2.161-3.242,2.882-3.242c1.802,0,2.883,1.801,3.963,2.882c0.721,0.721,7.205,4.804,7.205,6.245
				c0,1.321-2.041,3.242-2.521,4.203c-2.161,3.242-3.963,6.845-6.124,10.087c-1.081,0.72-4.684,5.524-4.684,7.925
				c0,1.321,0.36,1.321,0.721,1.441h3.963c0.288-0.216,0.879-0.259,1.539-0.259c0.44,0,0.911,0.019,1.343,0.019
				c2.642-1.561,5.044-5.044,5.044-8.046c0.6-0.601,1.32-4.923,2.161-5.764c1.802-2.042,1.441-2.642,2.521-4.684
				c0-0.36,1.441-2.521,1.441-2.882C271.996,28.661,272.957,18.454,274.518,18.454 M222.04,38.628c0.601-0.36,0.601-0.36,1.441-0.36
				c0,0.36-0.24,1.081-0.24,1.441c0,0.36,0.721,1.081,0.721,1.081v3.963c0,1.201,1.441,1.201,2.162,1.201
				c3.603,0,2.882-2.762,2.882-4.803c0-2.162,0-2.762-2.162-3.963h-5.043c-0.24,0.24-0.48,0.24-0.48,0.721
				C221.319,38.268,222.04,38.628,222.04,38.628 M227.563,62.045c3.362,0,4.323-2.282,4.323-4.323c0-0.96-2.162-5.764-2.882-6.484
				c-7.926,0-7.205,1.201-7.205,9.126C223.36,61.925,225.642,62.045,227.563,62.045 M210.992,63.966c0.72,0,4.323-1.921,4.323-2.642
				v-0.96c0-1.441-0.48-6.485-1.921-7.205c-0.91,0-1.757-0.021-2.528-0.021c-2.892,0-4.728,0.299-4.917,3.143
				c0.601,1.081-0.72,1.921-0.72,2.882C205.228,62.045,206.668,63.966,210.992,63.966 M254.703,71.532h5.044
				c3.362-2.162,3.362-5.043,3.242-9.487c-1.32-2.882,0.601-6.004-3.242-6.004c-2.161,0-4.323,0.24-6.244,0.961
				c-0.721,1.921-0.721,2.882-0.721,4.803c0,2.162,0.48,5.404,0.48,8.286C253.503,70.451,253.983,71.532,254.703,71.532
				 M222.76,74.774h4.083c1.921,0.36,2.642,1.802,4.323,1.802c-0.48-1.922-0.96-3.723-0.96-5.404
				c-0.601-1.561,0.72-4.803-1.921-4.803c-1.201,0-4.203,0.6-5.524,1.561c0,0.721-0.24,4.323-0.24,5.043
				C222.52,73.333,222.4,74.774,222.76,74.774 M214.132,68.311c-0.108,0-0.197-0.006-0.258-0.021c-2.642,0-9.126,0.72-9.126,2.521
				c1.321,2.042,1.081,4.323,3.362,4.684c2.882,1.235,5.499,1.323,6.718,1.323c0.203,0,0.367-0.002,0.487-0.002
				c1.441,0,1.682-3.843,1.682-5.284c0-0.36-0.721-1.801-0.721-2.162c0-0.24,0.24-0.36,0.24-0.48c0-0.518-0.629-0.617-1.284-0.617
				C214.828,68.273,214.414,68.311,214.132,68.311 M257.105,93.147c3.002,0,2.642-0.72,4.443-0.72c0.36,0,0.839,0.053,1.319,0.053
				c0.961,0,1.923-0.213,1.923-1.495c0-6.004,0-14.05-4.684-14.05c-1.801,0-3.603,0.36-5.044,1.081
				c-0.84,0.36-1.08,6.725-1.08,10.087C253.983,92.906,254.823,93.147,257.105,93.147 M216.996,93.147
				c4.803,0,4.803-3.362,4.803-6.845c0-1.44,0-4.683-2.642-4.683c-1.441,0-3.603,0.48-3.843,2.161v7.926
				C215.314,92.906,216.035,93.147,216.996,93.147 M229.485,90.625c0.24,0,0.961-0.36,0.961-1.081c0-2.281-0.721-3.723-0.721-5.043
				c-0.721,0-0.961,0.72-0.961,1.08v4.684C228.764,90.625,229.004,90.625,229.485,90.625 M259.178,111.015
				c4.102,0,5.253-2.211,5.253-5.86c0-1.2-0.12-7.926-2.161-7.926c-6.726,0-7.086,2.282-7.926,2.883l0.359,0.72v9.367
				c0.12,0.12,2.162,0.48,2.883,0.721C258.16,110.984,258.69,111.015,259.178,111.015 M274.518,15.454
				c-3.546,0-4.275,4.474-4.807,7.741c-0.161,0.986-0.299,2.008-0.41,2.943c-0.72-1.718-2.801-3.355-6.528-6.015
				c-0.496-0.354-1.107-0.79-1.31-0.955c-0.152-0.157-0.332-0.363-0.522-0.579c-1.025-1.172-2.741-3.135-5.517-3.135
				c-1.308,0-2.532,0.733-3.969,2.375c-1.913,2.186-1.913,3.407-1.913,3.867c0,0.852-0.308,1.695-0.607,2.51
				c-0.212,0.579-0.415,1.135-0.521,1.725c-0.361,0.871-0.551,1.728-0.723,2.5c-0.136,0.612-0.265,1.192-0.443,1.583
				c-0.114,0.198-0.219,0.396-0.317,0.593c-0.745-2.722-3.377-4.471-5.379-5.801c-0.698-0.464-1.42-0.943-1.818-1.307
				c-0.049-0.075-0.093-0.156-0.141-0.237c-0.453-0.769-1.658-2.811-4.351-2.811c-0.333,0-0.678,0.033-1.027,0.099l-0.345,0.065
				l-0.321,0.142c-3.066,1.363-3.79,4.17-4.27,6.027c-0.567,2.198-0.702,2.721-3.398,2.721h-4.563c-1.301,0-2.222,0.573-2.787,0.982
				c-0.452-0.113-1.064-0.262-1.776-0.262c-2.189,0-3.867,0.591-4.99,1.758c-1.127-3.245-5.073-3.401-6.511-3.458
				c-0.425-0.017-1.028-0.041-1.374-0.097c-2.126-1.72-5.23-2.887-7.78-2.887c-4.57,0-4.801,3.4-4.801,4.081
				c0,2.344,0.766,5.006,1.381,7.146c0.16,0.556,0.313,1.088,0.426,1.527c0.028,1.175,0.195,4.724,1.197,7.139
				c0.018,3.51,0.169,5.318,0.236,5.951c-0.011,0.32-0.059,0.602-0.112,0.922c-0.092,0.551-0.205,1.226-0.12,2.034
				c0.018,0.409,0.082,0.908,0.172,1.577c0.025,0.187,0.049,0.357,0.063,0.475v12.552c-0.015,0.179-0.056,0.464-0.094,0.748
				c-0.094,0.701-0.146,1.116-0.146,1.477c0,0.524,0.041,1.255,0.092,2.18c0.066,1.192,0.148,2.676,0.148,3.945v0.908l0.48,0.721
				v10.073l-0.48,0.721v0.908c0,1.142-0.201,2.369-0.413,3.669c-0.257,1.569-0.548,3.348-0.548,5.338
				c0,0.132-0.048,0.255-0.302,0.777c-0.247,0.507-0.585,1.201-0.809,2.098c-0.421,1.642-0.751,3.36-1.069,5.022
				c-0.408,2.128-1.024,5.344-1.592,6.064l-0.431,0.547l-0.173,0.715l-0.208,0.968c-0.02,0.02-0.041,0.041-0.062,0.061
				c-0.786,0.786-1.599,1.599-1.599,2.962v0.595c-0.098,0.227-0.238,0.515-0.343,0.732c-0.487,1.003-1.11,2.287-1.158,3.74
				c-0.311,0.429-0.779,1.117-0.952,2.085c-1.476,1.763-2.043,3.577-2.476,4.957c-0.2,0.64-0.378,1.208-0.606,1.667
				c-0.069,0.068-0.14,0.137-0.213,0.208c-1.871,1.828-4.699,4.592-4.699,8.111c0,1.756,1.591,3.721,3.721,3.721
				c2.636,0,5.341-2.53,12.057-11.279c0.618-0.805,1.152-1.501,1.389-1.777l1.567-1.827l-0.352-0.469
				c0.242-0.371,0.503-0.76,0.703-1.059c1.194-1.779,2.009-2.995,2.073-4.185c0.249-0.756,1.263-2.172,1.833-2.967
				c0.997-1.392,2.018-2.818,2.157-4.307l0.096-0.145l0.118-0.291c0.257-0.642,0.55-1.286,0.86-1.967
				c1.083-2.377,2.308-5.067,2.239-8.444c0.046-0.6,0.108-1.196,0.185-1.791c0.444,3.828,1.96,8.323,7.14,8.323
				c2.597,0,6.603-2.732,6.603-6.362v-2.808c0.191,0.029,0.392,0.044,0.603,0.044h5.957c0.702,0.295,1.441,0.417,2.13,0.463
				c0.461,1.739,0.91,4.828,0.922,5.668c-0.013,0.66-0.175,1.728-0.362,2.221c-0.422,0.224-1.287,0.582-1.889,0.832
				c-3.063,1.268-6.875,2.846-6.875,6.309c0,2.855,2.932,4.384,5.073,5.501c0.239,0.125,0.539,0.281,0.747,0.397
				c0.643,0.69,1.477,1.321,2.23,1.89c0.275,0.208,0.678,0.513,0.841,0.656l0.761,0.952l1.327,0.083
				c0.207,0.013,0.404,0.019,0.592,0.019c1.93,0,3.117-0.643,4.165-1.211c0.317-0.172,0.646-0.35,1.022-0.525l0.479-0.223
				l0.374-0.373l4.323-4.322l0.535-0.535l0.217-0.725l0.721-2.402l0.106-0.354l0.017-0.369c0.208-4.505-0.194-9.207-0.582-13.755
				c-0.303-3.549-0.616-7.218-0.616-10.642V80.276l0.081,0.163c0.19,0.381,0.239,1.459,0.272,2.172
				c0.027,0.599,0.055,1.216,0.141,1.819c0.018,0.325,0.068,0.873,0.18,2.083c0.198,2.134,0.53,5.705,0.53,7.355v11.528v0.487
				l0.154,0.462l0.327,0.98v10.033c-0.258,0.554-0.48,1.243-0.48,1.97v0.709l0.317,0.634l0.077,0.154
				c-0.022,0.084-0.049,0.177-0.08,0.284c-0.14,0.481-0.314,1.08-0.314,1.822c0,1.298,1.648,10.926,7.804,10.926
				c3.606,0,7.095-7.373,7.123-7.447l0.2-0.52v-0.557v-6.004c0-0.105,0.004-0.191,0.01-0.262c0.465-0.084,1.298-0.107,1.888-0.123
				c1.293-0.036,2.892-0.079,4.476-0.544c3.094-0.608,5.406-0.693,7.444-0.693c0.777,0,1.555,0.013,2.358,0.027
				c0.893,0.015,1.816,0.031,2.801,0.031c0.424,0,1.463-0.084,4.817-0.371c1.667-0.143,3.949-0.339,4.343-0.35
				c0.76,0,1.632,0.019,2.537,0.039c1.02,0.022,2.078,0.044,3.117,0.044c4.895,0,8.242-0.484,9.801-2.894l0.481-0.744v-0.848
				l0.006-0.121c0.066-1.212,0.202-3.689-1.393-5.191l-5.21-5.446l-2.945-3.079l-0.371,0.742c-0.859-0.878-2.037-1.713-3.654-1.713
				c-2.626,0-3.601,2.518-4.461,4.74c-0.364,0.939-1.091,2.817-1.641,3.429c-1.351,0.025-2.507,0.2-3.726,0.384
				c-0.645,0.097-1.306,0.197-2.034,0.279c-0.185-0.59-0.48-1.357-1.058-2.122l0.645-0.688l0.121-0.968l0.513-4.102
				c2.665-0.048,5.137-0.399,7.533-0.739c2.523-0.358,4.906-0.697,7.471-0.697c4.681,0,4.681-4.517,4.681-6.002
				c0-3.518-0.718-5.631-4.64-7.415l-0.034-0.015c-0.514-0.825-1.369-1.732-2.811-2.186c-0.048-0.042-0.096-0.086-0.137-0.122
				c-0.643-0.579-1.721-1.548-3.304-1.548c-3.492,0-5.172,3.048-6.074,4.686c-0.025,0.045-0.051,0.093-0.079,0.142l-0.151,0.017
				l-0.779,1.037c-0.508,0.677-0.715,0.878-0.799,0.927c0,0,0,0,0,0c-0.002,0-0.109,0.035-0.405,0.035
				c-0.415,0-0.654-0.043-0.772-0.074c-0.086-0.242-0.191-0.842-0.191-2.329c0-0.232,0.044-0.464,0.122-0.853
				c0.106-0.531,0.238-1.192,0.238-2.029c0-0.908-0.108-1.772-0.203-2.535c-0.033-0.267-0.066-0.528-0.093-0.779
				c0.536-0.121,1.462-0.251,2.968-0.251c0.882,0,1.604,0.046,1.913,0.065c0.187,0.012,0.305,0.015,0.342,0.015
				c1.904,0,3.54-0.095,5.123-0.188c1.525-0.089,2.966-0.173,4.605-0.173h0.708l0.633-0.317l2.161-1.081l1.658-0.829v-1.854
				c0-1.359,0-4.967-2.776-6.819c-0.393-0.261-0.802-0.446-1.198-0.625c-0.122-0.055-0.283-0.128-0.432-0.2l-0.029-0.314
				l-0.768-0.768c-0.136-0.136-0.314-0.323-0.523-0.542c-3.007-3.148-4.918-4.747-7.022-4.747c-0.436,0-0.863,0.075-1.263,0.219
				c-0.658,0.193-1.292,0.599-1.919,1.225l-0.345,0.345l-0.218,0.436l-2.345,4.69c-0.134,0.066-0.307,0.128-0.403,0.137
				c-0.719-0.001-0.928-0.337-0.944-0.426l0.008-0.106l0-0.071c0-0.66-0.014-1.353-0.028-2.058c-0.038-1.873-0.126-6.26,0.7-6.919
				c0,0,0,0,0,0c0.003,0,0.086-0.032,0.291-0.032c0.668,0,1.374,0.141,1.998,0.265c0.579,0.115,1.079,0.215,1.605,0.215h0.655
				l0.595-0.273c2.519-1.155,5.907-1.288,8.236-1.288c1.016,0,1.975,0,2.75,0.097l0.186,0.023h0.187
				c1.211,0,5.162-0.424,5.162-5.882c0-0.957,0-2.149-0.557-3.263l-0.23-0.461l-0.371-0.357c-1.578-1.521-3.24-2.948-4.706-4.207
				c-1.685-1.447-3.277-2.814-4.268-3.92l-0.492-0.55l-0.691-0.259c-1.044-0.391-2.168-0.509-3.203-0.54l-0.02-0.01l-0.731-0.004
				c-1.304,0-2.127,0.65-3.288,2.045c0.027-0.073,0.053-0.146,0.079-0.217c0.119-0.329,0.267-0.736,0.389-1.04
				c1.343-0.694,2.334-1.812,3.293-3.006c0.758-0.79,4.468-4.774,4.468-7.028c0-2.131-1.057-3.174-1.661-3.655l-0.038-0.086
				c-0.703-1.581-2.472-3.714-3.263-4.505l-1.529-1.529l-1.454,0.727c-0.397-0.149-1.09-0.644-1.529-0.958
				C278.084,16.563,276.532,15.454,274.518,15.454L274.518,15.454z M259.672,44.326l0.437-0.291l0.333-0.5
				c1.133-1.7,2.164-3.481,3.161-5.203c0.995-1.718,1.934-3.341,2.963-4.884l0.104-0.155l0.083-0.167
				c0.054-0.087,0.321-0.429,0.52-0.683c-0.12,0.293-0.217,0.554-0.304,0.79c-0.269,0.728-0.395,1.067-1.147,1.926
				c-0.897,0.956-1.325,2.347-1.937,4.5c-0.131,0.462-0.317,1.115-0.445,1.483l-0.569,0.57v1.241c0,1.555-1.336,3.777-2.941,5.031
				c-0.151-0.003-0.3-0.004-0.446-0.004c-0.716,0-1.454,0.041-2.153,0.259h-0.453C257.664,46.777,258.997,44.913,259.672,44.326
				L259.672,44.326z M242.869,39.926c1.057-0.804,1.943-1.735,2.628-2.743c-0.101,0.82-0.249,1.511-0.59,2.095l-0.409,0.701v0.811
				c0,0.856-0.391,1.685-0.845,2.645c-0.338,0.716-0.72,1.526-0.965,2.429c-0.248,0.86-0.359,1.806-0.465,2.721
				c-0.062,0.532-0.155,1.33-0.274,1.848l-0.295,0.074l-0.283,0.378v-0.938l-0.262-0.328c0.008-0.136,0.015-0.289,0.019-0.46
				c0.227-1.184,0.242-2.248,0.243-3.437C241.76,43.388,242.058,41.628,242.869,39.926L242.869,39.926z M209.119,38.857
				c0.484-0.354,0.994-0.781,1.451-1.289c0.025,0.207,0.053,0.439,0.085,0.701c0.063,0.517,0.15,1.235,0.194,1.647
				c-0.105,0.796,0.007,1.502,0.101,2.095c0.08,0.508,0.163,1.033,0.163,1.78c0,1.074,0,1.329-1.979,1.329
				c-0.144,0-0.281-0.002-0.409-0.003l-0.377-0.003c-0.026,0-0.053,0-0.081,0c0.073-0.981,0.232-1.936,0.398-2.931
				C208.843,41.124,209.024,40.04,209.119,38.857L209.119,38.857z M224.936,54.54c0.288-0.101,0.939-0.223,2.406-0.276
				c0.597,1.191,1.346,2.935,1.54,3.657c-0.045,1.013-0.453,1.124-1.319,1.124c-1.132,0-2.072-0.06-2.772-0.295
				c-0.001-0.079-0.001-0.157-0.002-0.234C224.777,56.948,224.763,55.187,224.936,54.54L224.936,54.54z M209.062,56.235
				c0.298-0.051,0.835-0.097,1.803-0.097c0.281,0,0.573,0.003,0.874,0.007c0.288,1.06,0.535,2.788,0.571,3.944
				c-0.534,0.332-1.244,0.705-1.666,0.874c-2.08-0.051-2.369-0.578-2.41-1.387c0.005-0.009,0.011-0.018,0.016-0.027
				C208.569,59.002,209.294,57.758,209.062,56.235L209.062,56.235z M255.907,59.411c1.014-0.229,2.17-0.35,3.494-0.368
				c0.004,0.061,0.007,0.121,0.011,0.177c0.054,0.924,0.125,2.143,0.592,3.441c0.08,3.522-0.069,4.848-1.235,5.87h-2.543
				c-0.052-1.172-0.15-2.342-0.24-3.414c-0.105-1.253-0.204-2.436-0.204-3.313C255.782,60.695,255.782,60.064,255.907,59.411
				L255.907,59.411z M225.677,69.874c0.424-0.13,0.902-0.25,1.348-0.341c-0.005,0.639,0.012,1.367,0.19,2.101
				c0.002,0.053,0.004,0.106,0.007,0.159l-0.1-0.019h-0.279h-1.27c0.02-0.382,0.043-0.796,0.063-1.156
				C225.65,70.351,225.664,70.103,225.677,69.874L225.677,69.874z M208.543,71.893c1.426-0.323,3.504-0.583,5.14-0.602
				c0.02,0.002,0.04,0.004,0.06,0.005c0.035,0.088,0.071,0.178,0.107,0.269c0.042,0.104,0.095,0.238,0.14,0.354
				c-0.019,0.685-0.086,1.349-0.171,1.867c-1.62-0.102-3.139-0.454-4.528-1.049l-0.344-0.147l-0.137-0.022
				C208.727,72.381,208.627,72.118,208.543,71.893L208.543,71.893z M257.398,80.313c0.811-0.244,1.753-0.377,2.71-0.377
				c0.637,0,1.111,2.15,1.163,2.396c0.429,2.025,0.504,4.621,0.517,7.1c-0.083-0.003-0.163-0.004-0.239-0.004
				c-1.218,0-1.932,0.225-2.615,0.475c-0.374,0.137-0.669,0.245-1.829,0.245c-0.012,0-0.023,0-0.035,0
				c-0.046-0.408-0.087-1.05-0.087-2.043C256.983,84.782,257.177,81.783,257.398,80.313L257.398,80.313z M218.314,84.714
				c0.111-0.026,0.241-0.05,0.384-0.067c0.067,0.361,0.101,0.915,0.101,1.655c0,2.375-0.052,3.283-0.485,3.63V84.714L218.314,84.714
				z M257.703,101.006c0.51-0.324,1.428-0.642,3.271-0.744c0.249,1.053,0.456,2.906,0.456,4.893c0,2.86-0.66,2.86-2.253,2.86
				c-0.306,0-0.643-0.017-1.003-0.05c-0.145-0.04-0.301-0.081-0.472-0.122V101.006L257.703,101.006z"/>
		</g>
	</g>
	<g>
		<g>
			<path fill="#CE0000" d="M340.102,135.352c-1.172,0-1.702-1.357-2.178-3.549c-0.418-1.796-0.623-4.245-0.623-7.472
				c0-1.527,0.021-3.086,0.061-4.675c0.028-1.149,0.068-2.326,0.119-3.528c-4.782,1.371-6.532,2.216-7.146,2.692
				c-1.289,1.003-2.266,1.471-3.074,1.471c-1.086,0-2.38-0.673-2.38-3.88c0-2.474,1.329-2.74,1.9-2.74
				c0.207,0,0.422,0.032,0.657,0.097c0.021,0.006,0.089,0.023,0.242,0.023c0.106,0,0.708-0.077,2.079-1.591
				c0.553-0.589,0.939-1.079,1.161-1.472c0.239-0.423,0.31-0.694,0.326-0.848c0.02-0.177-0.01-0.341-0.091-0.516
				c-0.092-0.193-0.211-0.404-0.354-0.63c-1.597-0.397-1.781-1.581-1.781-2.104c0-0.24,0.048-0.548,0.222-0.873
				c-0.748-1.424-1.062-2.719-0.937-3.856c0.244-1.569,0.035-1.984,0.01-2.026c-0.028-0.052-0.061-0.106-0.181-0.202
				c-0.075-0.061-0.16-0.127-0.253-0.2c-0.139,0.321-0.407,0.67-0.915,0.953c-0.11,0.07-0.622,0.45-2.322,1.921
				c-0.539,0.467-1.164,1.012-1.874,1.634c0.632,0.202,1.301,0.61,2.023,1.234c1.114,0.912,1.666,1.822,1.666,2.767
				c0,0.801-0.229,1.59-0.683,2.345c-0.295,0.491-0.494,1.023-0.593,1.579c-0.078,0.42-0.2,1.468-0.347,4.141
				c-0.039,1.04-0.101,2.064-0.182,3.028c-0.085,1.013-0.186,1.915-0.306,2.759c-0.124,0.866-0.238,1.547-0.341,2.041
				c-0.114,0.545-0.23,0.956-0.354,1.258c-0.201,0.48-0.466,0.794-0.811,0.965c-0.253,0.128-0.526,0.194-0.805,0.194
				c-1.211,0-2.064-1.204-2.601-2.11c-0.694-1.25-1.039-2.584-1.039-3.989c0-0.521,0.106-1.241,0.324-2.202
				c0.129-0.434,0.242-0.907,0.355-1.475c0.111-0.56,0.207-1.253,0.285-2.059c0.122-0.876,0.203-1.536,0.258-2.034
				c-0.357,0.354-0.685,0.61-0.998,0.784c-0.347,0.193-0.776,0.32-1.299,0.382c-1.604,6.837-2.944,8.612-3.823,9.35
				c-1.458,1.224-2.559,1.794-3.463,1.794c-2.14,0-2.14-3.35-2.14-4.78c0.065-1.04,0.177-1.379,0.348-1.635
				c0.239-0.359,0.605-0.565,1.005-0.565c0.167,0,0.334,0.037,0.49,0.108c0.242-0.365,0.509-0.962,0.793-1.777
				c0.303-0.872,0.594-1.989,0.863-3.32c0.271-1.336,0.467-2.936,0.583-4.754c0.159-1.924,0.27-3.655,0.329-5.166
				c0.059-1.527,0.089-2.937,0.089-4.19c0-2.97-0.146-4.184-0.271-4.679c-0.183-0.69-0.486-1.505-0.898-2.405
				c-0.661-1.496-0.751-2.006-0.751-2.336c0-0.707,0.514-1.42,1.66-1.42c0.393,0,1.08,0.089,2.931,0.783
				c1.461,0.487,2.645,1.259,3.482,2.282c0.867,1.062,1.307,2.183,1.307,3.334c0,0.652-0.125,1.202-0.371,1.635
				c-0.025,0.049-0.107,0.244-0.278,0.954c0.7-0.46,1.31-1.146,1.843-2.068c0.987-1.682,1.486-3.127,1.486-4.301
				c0-0.257-0.114-0.883-0.883-2.193c-0.774-1.355-1.099-1.596-1.134-1.618c-0.818-0.507-0.983-1.093-0.983-1.498
				c0-0.497,0.255-1.33,1.96-1.33c0.838,0,1.856,0.368,3.205,1.157c0.612,0.351,1.176,0.757,1.667,1.201
				c0.522,0.477,0.955,1.03,1.288,1.647c0.644,1.149,0.96,2.094,0.96,2.874c0,0.703-0.13,1.291-0.386,1.755
				c0.208-0.183,0.47-0.388,0.792-0.632c0.687-0.52,1.743-1.55,3.14-3.062c1.909-1.962,1.953-2.596,1.954-2.622
				c0-0.101-0.064-0.669-1.327-1.933c-0.453-0.383-0.713-0.86-0.713-1.366c0-0.391,0.18-1.301,1.84-1.301
				c0.3,0,0.708,0.021,1.224,0.064c0.522,0.043,1.082,0.131,1.663,0.26c0.614,0.136,1.228,0.355,1.82,0.651
				c0.601,0.302,1.16,0.686,1.665,1.144c1.124,1.122,1.588,1.891,1.588,2.602c0,0.812-0.448,1.457-1.229,1.769
				c-0.064,0.025-0.208,0.097-0.45,0.283c-0.224,0.172-0.483,0.405-0.773,0.695c-0.359,0.359-0.679,0.702-0.956,1.025
				c0.775-0.171,1.575-0.336,2.401-0.495c1.045-0.201,1.995-0.356,2.823-0.46c0.855-0.106,1.563-0.158,2.165-0.158
				c2.46,0,4.395,0.828,5.749,2.462c1.326,1.601,1.971,2.948,1.971,4.118c0,0.905-0.503,1.789-1.495,2.625
				c-0.625,0.521-1.16,1.189-1.596,1.992c-0.519,0.954-1.034,1.795-1.531,2.5c-0.425,0.595-0.817,1.084-1.169,1.458
				c-0.343,0.363-0.64,0.66-0.895,0.894c-0.095,0.087-0.164,0.157-0.215,0.212v0.1c0,1.527-1.88,1.711-2.954,1.732
				c0.029,0.373,0.054,0.771,0.073,1.191c0.028,0.617,0.058,1.3,0.086,2.049c0.765,0.024,1.441,0.044,2.029,0.058
				c0.811,0.021,1.473,0.03,1.986,0.03c0,0,1.338-0.06,1.339-0.06c1.336,0,2.63,0.688,4,2.104c1.432,1.433,2.021,2.333,2.021,3.095
				c0,0.277-0.104,1.66-2.14,1.66c-0.452,0-1.056-0.052-1.845-0.159c-0.747-0.1-1.71-0.252-2.885-0.455
				c-1.133-0.202-2.157-0.394-3.082-0.574c-0.47-0.092-0.918-0.176-1.344-0.251c-0.107,6.625-0.472,11.442-1.086,14.327
				C342.036,134,341.335,135.352,340.102,135.352z M335.322,108.912c0.229,0.391,0.415,0.775,0.555,1.146
				c0.137,0.364,0.192,0.745,0.166,1.136c0.067-0.016,0.135-0.032,0.202-0.048c0.518-0.119,1.024-0.226,1.516-0.319
				c0.014-0.399,0.021-0.84,0.021-1.315c0-0.451-0.012-0.942-0.036-1.47c-0.792,0.276-1.62,0.531-2.478,0.763
				C335.286,108.847,335.305,108.883,335.322,108.912z M333.241,104.176c0.312-0.083,1.801-0.486,2.231-0.604
				c-0.744-0.03-1.49-0.161-2.231-0.391C333.241,103.181,333.241,104.145,333.241,104.176z M340.901,101.633
				c-0.021,0.119-0.043,0.259-0.062,0.422c0.479-0.19,0.867-0.432,1.163-0.722C341.523,101.425,341.167,101.53,340.901,101.633z
				 M334.341,95.451c-0.141,0-0.568,0-1.171,0.682c-0.43,0.488-0.648,0.942-0.648,1.349c0,0.196,0.016,0.376,0.047,0.539
				c0.582-0.104,1.167-0.235,1.749-0.395c0.656-0.178,1.326-0.381,2.002-0.604c-0.008-0.414-0.077-0.822-0.208-1.23
				c-0.506-0.031-0.917-0.102-1.247-0.212C334.484,95.452,334.347,95.451,334.341,95.451z M342.034,95.968
				c0.537,0.185,1.02,0.429,1.44,0.73c0.282,0.204,0.53,0.416,0.742,0.635c0.144-0.294,0.292-0.599,0.443-0.915
				c0.67-1.426,0.949-2.203,1.062-2.62c-0.911,0.397-2.182,0.783-3.856,1.168C341.945,95.334,342.002,95.667,342.034,95.968z
				 M329.99,95.091c0.146,0.091,0.284,0.183,0.417,0.277c0.053-0.101,0.108-0.203,0.168-0.306c-0.191,0.019-0.376,0.028-0.554,0.028
				C330.011,95.091,330.001,95.091,329.99,95.091z"/>
			<path fill="#FFFFFF" d="M333.921,82.511c0.279,0,0.66,0.021,1.141,0.061c0.479,0.04,0.989,0.12,1.529,0.24
				c0.54,0.119,1.07,0.31,1.59,0.569c0.52,0.261,1,0.591,1.44,0.99c0.84,0.84,1.26,1.461,1.26,1.86c0,0.4-0.2,0.681-0.6,0.84
				c-0.201,0.08-0.431,0.22-0.69,0.42c-0.261,0.2-0.55,0.46-0.87,0.78c-0.64,0.64-1.16,1.229-1.56,1.77
				c-0.4,0.54-0.98,1.15-1.74,1.83c0.8-0.279,1.681-0.529,2.641-0.75c0.96-0.22,1.959-0.43,3-0.63c1.039-0.2,1.959-0.35,2.76-0.45
				c0.8-0.1,1.479-0.15,2.04-0.15c2.16,0,3.819,0.701,4.979,2.101c1.16,1.4,1.74,2.561,1.74,3.479c0,0.601-0.381,1.221-1.14,1.86
				c-0.721,0.601-1.331,1.36-1.83,2.28c-0.501,0.921-0.99,1.721-1.47,2.4c-0.4,0.561-0.761,1.01-1.08,1.35
				c-0.321,0.34-0.601,0.62-0.841,0.84c-0.239,0.221-0.41,0.411-0.51,0.57c-0.101,0.16-0.11,0.32-0.03,0.479
				c0,0.49-0.781,0.736-2.342,0.736c-0.223,0-0.462-0.005-0.717-0.015c0.08,0.64,0.14,1.39,0.18,2.25
				c0.04,0.86,0.08,1.851,0.12,2.97c1.16,0.04,2.15,0.07,2.971,0.09c0.819,0.021,1.489,0.03,2.01,0.03l1.38-0.061
				c0.999,0,2.079,0.601,3.24,1.801c1.159,1.16,1.739,1.96,1.739,2.399c0,0.44-0.38,0.66-1.14,0.66c-0.4,0-0.971-0.05-1.71-0.15
				c-0.74-0.099-1.69-0.249-2.85-0.449c-1.121-0.2-2.141-0.391-3.061-0.57c-0.921-0.18-1.761-0.33-2.52-0.45
				c-0.081,7.2-0.441,12.3-1.08,15.3c-0.641,3.04-1.24,4.561-1.8,4.561c-0.4,0-0.801-0.921-1.2-2.761
				c-0.4-1.72-0.601-4.14-0.601-7.26c0-1.52,0.021-3.069,0.061-4.649c0.039-1.58,0.1-3.21,0.18-4.891c-4.8,1.32-7.74,2.4-8.82,3.24
				c-1.079,0.84-1.899,1.26-2.46,1.26c-0.92,0-1.38-0.96-1.38-2.88c0-1.159,0.3-1.74,0.9-1.74c0.12,0,0.249,0.021,0.39,0.061
				c0.14,0.04,0.31,0.06,0.51,0.06c0.721,0,1.66-0.639,2.82-1.92c0.601-0.64,1.029-1.189,1.29-1.649c0.26-0.46,0.41-0.87,0.45-1.23
				c0.039-0.36-0.021-0.71-0.18-1.05c-0.161-0.34-0.381-0.71-0.66-1.11c-0.921-0.12-1.38-0.52-1.38-1.2
				c0-0.279,0.14-0.54,0.42-0.779c-0.881-1.479-1.261-2.761-1.141-3.84c0.2-1.28,0.16-2.16-0.12-2.641
				c-0.08-0.159-0.22-0.319-0.42-0.479s-0.46-0.36-0.779-0.601c-0.321-0.24-0.681-0.56-1.08-0.96c-0.4-0.399-0.801-0.9-1.2-1.5
				c-0.2,0.36-0.3,0.67-0.3,0.93c0,0.261,0.26,0.591,0.779,0.99c0.561,0.4,0.841,0.751,0.841,1.051c0,0.3-0.181,0.55-0.54,0.75
				c-0.321,0.2-1.15,0.88-2.49,2.039c-1.341,1.161-3.21,2.801-5.61,4.921c0.087,0.007,0.171,0.01,0.254,0.01
				c0.907,0,1.562-0.404,1.967-1.21c0.199-0.32,0.619-0.48,1.26-0.48c0.64,0,1.399,0.381,2.28,1.141
				c0.879,0.72,1.319,1.39,1.319,2.01c0,0.62-0.18,1.229-0.54,1.83c-0.359,0.6-0.6,1.24-0.72,1.92c-0.12,0.641-0.24,2.061-0.36,4.26
				c-0.04,1.041-0.1,2.04-0.18,3c-0.081,0.96-0.18,1.86-0.3,2.7s-0.23,1.5-0.33,1.979c-0.101,0.48-0.201,0.841-0.3,1.08
				c-0.101,0.24-0.21,0.391-0.33,0.45c-0.12,0.061-0.24,0.09-0.36,0.09c-0.521,0-1.101-0.54-1.74-1.62
				c-0.6-1.08-0.899-2.239-0.899-3.479c0-0.439,0.1-1.1,0.3-1.98c0.12-0.399,0.24-0.899,0.36-1.5c0.119-0.6,0.219-1.319,0.3-2.159
				c0.24-1.72,0.359-2.859,0.359-3.421c0-0.56-0.1-0.84-0.3-0.84s-0.54,0.3-1.02,0.9c-0.48,0.561-0.9,0.94-1.26,1.14
				c-0.36,0.201-0.9,0.3-1.62,0.3c-1.2,5.32-2.421,8.501-3.66,9.54c-1.24,1.041-2.181,1.561-2.82,1.561c-0.76,0-1.14-1.26-1.14-3.78
				c0.039-0.6,0.1-0.96,0.18-1.08c0.053-0.08,0.111-0.12,0.173-0.12c0.031,0,0.064,0.01,0.097,0.03c0.099,0.06,0.199,0.15,0.3,0.271
				c0.06,0.072,0.102,0.108,0.126,0.108c0.016,0,0.024-0.016,0.024-0.048c0.2,0,0.45-0.22,0.75-0.66
				c0.301-0.439,0.609-1.119,0.931-2.04c0.319-0.92,0.619-2.07,0.899-3.45c0.279-1.38,0.48-3.009,0.601-4.89
				c0.159-1.92,0.27-3.649,0.33-5.19c0.06-1.539,0.09-2.949,0.09-4.229c0-2.48-0.101-4.12-0.3-4.92
				c-0.201-0.76-0.521-1.62-0.96-2.58c-0.441-1-0.66-1.64-0.66-1.92c0-0.279,0.219-0.42,0.66-0.42c0.439,0,1.299,0.239,2.579,0.72
				c1.32,0.44,2.341,1.101,3.061,1.979c0.72,0.881,1.08,1.78,1.08,2.7c0,0.48-0.081,0.86-0.24,1.14
				c-0.16,0.24-0.42,1.261-0.78,3.061c1.681-0.319,3.04-1.38,4.08-3.18c1.08-1.84,1.62-3.44,1.62-4.801
				c0-0.639-0.34-1.539-1.02-2.699c-0.641-1.12-1.141-1.779-1.5-1.98c-0.321-0.199-0.48-0.409-0.48-0.63
				c0-0.22,0.319-0.33,0.96-0.33c0.64,0,1.539,0.341,2.7,1.021c0.56,0.32,1.06,0.68,1.5,1.079c0.439,0.4,0.8,0.861,1.08,1.381
				c0.56,1,0.84,1.8,0.84,2.399c0,0.681-0.141,1.181-0.42,1.5c-0.24,0.36-0.54,1.161-0.9,2.4c2.28,0.72,3.8,1.58,4.561,2.58
				c0.12-1.08,0.92-2.36,2.399-3.84c-0.6,0.239-1.18,0.43-1.739,0.569c-0.561,0.141-1.061,0.21-1.5,0.21
				c-0.441,0-0.801-0.039-1.08-0.12c-0.28-0.079-0.42-0.199-0.42-0.359c0-0.12,0.369-0.46,1.109-1.021
				c0.74-0.56,1.83-1.62,3.271-3.18c1.479-1.52,2.22-2.619,2.22-3.3c0-0.68-0.54-1.561-1.62-2.641
				c-0.28-0.239-0.42-0.459-0.42-0.659C333.081,82.611,333.36,82.511,333.921,82.511 M339.741,103.392
				c1.76-0.32,2.939-1.021,3.54-2.101c0.319-0.56,0.669-1.209,1.05-1.95c0.38-0.739,0.789-1.569,1.23-2.49
				c0.639-1.359,1.029-2.349,1.17-2.97c0.14-0.619,0.149-1.02,0.029-1.2c-0.076-0.115-0.182-0.173-0.317-0.173
				c-0.075,0-0.159,0.018-0.252,0.054c-0.261,0.1-0.471,0.17-0.63,0.21c-1.001,0.479-2.641,0.96-4.92,1.439
				c0.319,1.12,0.459,1.96,0.42,2.521c0.72,0.16,1.329,0.42,1.83,0.779c0.499,0.36,0.849,0.731,1.05,1.11
				c0.199,0.381,0.249,0.72,0.149,1.021c-0.1,0.3-0.351,0.471-0.75,0.51c-1.48,0.12-2.58,0.381-3.3,0.78
				C339.881,101.451,339.78,102.272,339.741,103.392 M331.941,99.131c0.879-0.119,1.76-0.3,2.64-0.54
				c0.88-0.239,1.779-0.519,2.7-0.84c0.12-0.999-0.04-1.979-0.48-2.939c-0.72,0-1.26-0.061-1.62-0.181
				c-0.359-0.12-0.64-0.18-0.84-0.18c-0.681,0-1.319,0.34-1.92,1.02c-0.6,0.681-0.899,1.351-0.899,2.011
				C331.521,98.141,331.661,98.692,331.941,99.131 M332.181,105.491c0.76-0.199,1.51-0.399,2.25-0.6
				c0.74-0.2,1.471-0.399,2.19-0.601c-0.12-0.999-0.18-1.579-0.18-1.739c-0.209,0.018-0.419,0.027-0.628,0.027
				c-1.192,0-2.382-0.289-3.572-0.868c0,0.96,0,1.751,0,2.37C332.241,104.702,332.221,105.172,332.181,105.491 M317.001,105.552
				c0.56-0.52,1.07-1.09,1.53-1.711c0.459-0.619,0.689-0.989,0.689-1.109c0-0.48-0.64-0.72-1.92-0.72
				c-0.08,0.32-0.141,0.779-0.18,1.38C317.081,103.991,317.04,104.711,317.001,105.552 M334.102,112.812
				c0.799-0.279,1.59-0.51,2.369-0.69c0.78-0.18,1.53-0.33,2.25-0.45c0.04-0.6,0.061-1.319,0.061-2.159
				c0-0.841-0.04-1.801-0.12-2.881c-1.4,0.562-2.92,1.041-4.56,1.44c0.039,0.561,0.159,1.011,0.359,1.35
				c0.2,0.341,0.36,0.671,0.48,0.99c0.12,0.32,0.14,0.66,0.06,1.021C334.921,111.791,334.62,112.252,334.102,112.812
				 M333.921,80.511c-2.76,0-2.84,2.065-2.84,2.301c0,0.543,0.185,1.346,1.051,2.119c0.578,0.584,0.828,0.959,0.932,1.148
				c-0.148,0.266-0.55,0.865-1.595,1.938l-0.018,0.019l-0.018,0.019c-0.785,0.85-1.395,1.473-1.867,1.93
				c-0.125-0.789-0.464-1.662-1.039-2.69c-0.372-0.69-0.874-1.332-1.478-1.883c-0.548-0.497-1.17-0.945-1.853-1.336
				c-1.492-0.873-2.671-1.285-3.694-1.285c-2.817,0-2.96,1.941-2.96,2.33c0,0.533,0.181,1.536,1.382,2.302
				c0.083,0.09,0.355,0.415,0.862,1.302c0.728,1.242,0.755,1.692,0.756,1.711c0,0.739-0.267,1.67-0.779,2.73
				c-0.195-1.013-0.674-1.992-1.432-2.92c-0.954-1.165-2.279-2.039-3.94-2.599c-1.965-0.735-2.745-0.835-3.248-0.835
				c-1.746,0-2.66,1.217-2.66,2.42c0,0.522,0.139,1.161,0.83,2.728c0.4,0.873,0.684,1.634,0.856,2.284
				c0.065,0.262,0.233,1.275,0.233,4.408c0,1.241-0.03,2.638-0.088,4.152c-0.059,1.495-0.168,3.212-0.325,5.103
				c-0.116,1.811-0.306,3.366-0.568,4.658c-0.261,1.286-0.54,2.36-0.829,3.191c-0.151,0.433-0.281,0.756-0.39,0.997
				c-0.414,0.01-0.805,0.135-1.141,0.359h-0.26v0.203c-0.143,0.129-0.271,0.279-0.384,0.447c-0.35,0.524-0.452,1.152-0.511,2.059
				l-0.004,0.065v0.065c0,1.43,0,5.78,3.14,5.78c1.168,0,2.435-0.626,4.106-2.029c1.036-0.869,2.411-2.721,4.002-9.25
				c0.075-0.019,0.147-0.039,0.219-0.061c-0.074,0.759-0.164,1.408-0.268,1.929c-0.107,0.534-0.213,0.976-0.314,1.314l-0.02,0.066
				l-0.015,0.067c-0.238,1.049-0.35,1.819-0.35,2.424c0,1.577,0.387,3.075,1.151,4.45l0.014,0.024l0.014,0.024
				c0.381,0.643,1.54,2.601,3.461,2.601c0.436,0,0.861-0.102,1.261-0.304c0.55-0.273,0.983-0.767,1.275-1.464
				c0.152-0.37,0.286-0.838,0.413-1.443c0.109-0.525,0.228-1.233,0.352-2.106c0.056-0.394,0.108-0.799,0.156-1.222
				c0.64,0.45,1.326,0.538,1.763,0.538c1.057,0,2.194-0.519,3.688-1.681c0.328-0.255,1.49-0.924,5.478-2.13
				c-0.026,0.735-0.048,1.454-0.065,2.152c-0.041,1.601-0.061,3.182-0.061,4.699c0,3.304,0.214,5.827,0.653,7.713
				c0.346,1.593,0.935,4.307,3.148,4.307c2.276,0,3.048-2.784,3.757-6.148c0.598-2.81,0.955-7.186,1.085-13.333
				c0.058,0.011,0.116,0.022,0.174,0.034c0.929,0.181,1.959,0.374,3.092,0.576c1.222,0.211,2.179,0.362,2.937,0.463
				c0.829,0.113,1.476,0.168,1.974,0.168c2.478,0,3.14-1.672,3.14-2.66c0-1.07-0.652-2.139-2.324-3.813
				c-1.525-1.576-3.098-2.387-4.655-2.387h-0.044l-0.044,0.002l-1.336,0.059c-0.501-0.001-1.14-0.01-1.916-0.03
				c-0.336-0.008-0.701-0.018-1.094-0.029c-0.016-0.396-0.033-0.771-0.049-1.124c-0.004-0.081-0.008-0.16-0.012-0.239
				c2.102-0.313,2.758-1.328,2.874-2.296c0.244-0.228,0.526-0.511,0.854-0.858c0.392-0.417,0.801-0.926,1.254-1.561
				c0.526-0.746,1.062-1.62,1.599-2.607c0.376-0.693,0.831-1.264,1.354-1.7c1.237-1.042,1.859-2.183,1.859-3.397
				c0-1.413-0.72-2.968-2.2-4.755c-1.554-1.874-3.747-2.825-6.52-2.825c-0.644,0-1.392,0.054-2.287,0.166
				c-0.476,0.06-0.99,0.136-1.538,0.227c0.54-0.524,0.845-1.241,0.845-2.052c0-1.002-0.552-1.981-1.846-3.275l-0.034-0.035
				l-0.036-0.033c-0.572-0.519-1.207-0.955-1.887-1.296c-0.669-0.334-1.36-0.581-2.056-0.735c-0.622-0.138-1.227-0.233-1.794-0.28
				C334.683,80.533,334.255,80.511,333.921,80.511L333.921,80.511z M343.571,95.572c0.149-0.04,0.293-0.081,0.434-0.121
				c-0.044,0.097-0.09,0.198-0.139,0.304C343.77,95.691,343.672,95.63,343.571,95.572L343.571,95.572z M334.043,96.665
				c0.141-0.137,0.233-0.188,0.273-0.205c0.045,0.011,0.118,0.031,0.224,0.066c-0.162,0.047-0.324,0.092-0.484,0.135
				C334.052,96.662,334.047,96.663,334.043,96.665L334.043,96.665z M324.543,103.761c0.27-0.235,0.523-0.455,0.758-0.658
				c1.25-1.082,1.819-1.54,2.071-1.732c-0.013,0.102-0.028,0.213-0.047,0.332l-0.007,0.044l-0.005,0.044
				c-0.138,1.241,0.135,2.563,0.833,4.014c-0.082,0.267-0.124,0.544-0.124,0.826c0,1.125,0.577,2.391,2.119,2.947
				c0.042,0.076,0.079,0.148,0.112,0.218c-0.007,0.01-0.042,0.158-0.203,0.443c-0.124,0.219-0.401,0.619-1.007,1.264
				c-0.825,0.91-1.278,1.194-1.439,1.276c-0.292-0.073-0.559-0.107-0.823-0.107c-0.127,0-0.388,0.012-0.703,0.096
				c0.037-0.349,0.067-0.551,0.089-0.666c0.082-0.462,0.234-0.868,0.469-1.26c0.547-0.912,0.825-1.874,0.825-2.858
				c0-1.239-0.684-2.43-2.033-3.541C325.128,104.183,324.833,103.956,324.543,103.761L324.543,103.761z"/>
		</g>
	</g>
</g>
<g>
	<g>
		<path fill="#0032D1" d="M373.124,130.16c-0.451-0.66-0.912-1.164-1.369-1.499l-0.907-0.664l0.766-0.823
			c1.236-1.33,2.227-2.193,3.051-2.651v-6.918c-1.244,0.008-1.636,0.03-1.759,0.045l-1.117,0.132v-4.567l1.112,0.126
			c0.77,0.088,1.616,0.132,2.515,0.132c0.901,0,1.788-0.045,2.634-0.133l0.568-0.059v-1.163l-3.834,0.948l-0.114-1.149
			c-0.154-1.56-0.572-3.09-1.242-4.548l-0.501-1.092l4.673-1.181l0.229,0.996c0.255,1.112,0.534,2.174,0.836,3.173
			c0,0,1.588,0.095,1.883,0.109l-0.085-0.433c-0.126-0.642-0.309-1.168-0.543-1.563l-0.946-1.598l1.854,0.089
			c0.776,0.037,1.506,0.055,2.192,0.055c1.848,0,3.818-0.132,5.858-0.394c2.04-0.26,3.739-0.571,5.051-0.926l0.79-0.214l0.365,0.731
			c0.549,1.099,0.926,1.645,1.146,1.908c0.282,0.324,0.426,0.661,0.426,1.014c0,0.532-0.413,1.098-1.179,1.098
			c-0.115,0-0.263-0.013-0.442-0.048c-0.223-0.043-0.512-0.064-0.858-0.064c-0.386,0-1.161,0.041-2.308,0.122
			c-0.741,0.053-1.403,0.097-1.987,0.131v0.234c2.939-0.012,5.207-0.075,6.75-0.189l1.074-0.08v4.227l-1.099-0.108
			c-0.682-0.067-1.754-0.117-3.202-0.15c1.137,0.529,2.573,0.847,4.301,0.95l2.177,0.13l-1.519,1.564
			c-0.454,0.468-0.743,1.144-0.86,2.01l-0.104,0.763l0.014-0.004l-0.02,0.047l-0.04,0.297l-0.075-0.019l-0.617,1.487
			c-0.291,0.701-0.655,1.963-1.084,3.749c-0.148,0.677-0.496,1.266-1.036,1.755c0.853-0.079,1.729-0.17,2.632-0.272l1.64-0.188
			l-0.593,1.54c-0.33,0.856-0.522,1.74-0.572,2.627l-0.052,0.938l-5.48,0.034c-2.739,0-4.856-0.052-6.292-0.155
			c-1.479-0.105-2.72-0.293-3.689-0.558c-0.959-0.262-2.106-0.683-3.412-1.251c-0.99-0.433-1.457-0.497-1.647-0.497
			c-0.243,0-0.497,0.111-0.774,0.339c-0.404,0.331-0.93,0.906-1.563,1.712l-0.843,1.071L373.124,130.16z M383.702,126.162
			c0.847,0.101,1.955,0.167,3.408,0.167c0.341,0,0.689-0.003,1.045-0.01c-0.169-0.414-0.428-0.858-0.773-1.329l-1.168-1.592h1.975
			c2.479,0,3.091-0.315,3.188-0.378c0.075-0.049,0.14-0.115,0.195-0.193h-1.31c-0.594,0-1.056,0.024-1.375,0.071l-1.49,0.221
			l0.772-3.002h-0.735C386.847,122.698,385.596,124.723,383.702,126.162z M378.904,123.861l0.965-0.369
			c1.312-0.502,2.217-1.067,2.689-1.682c0.319-0.414,0.589-0.969,0.806-1.657c-0.636,0.027-1.172,0.068-1.604,0.122l-1.124,0.14
			v-1.988c-0.054,0.02-0.957,0.337-0.957,0.337l-0.41-0.736c-0.067-0.122-0.18-0.281-0.365-0.475
			C378.904,117.585,378.904,123.861,378.904,123.861z M394.604,119.222c0.148,0,0.425-0.023,0.9-0.138l1.171-0.28l-0.403-0.1
			c-1.139-0.28-2.176-0.645-3.11-1.093l-0.115,0.183c-0.133,0.213-0.233,0.44-0.299,0.677l-0.227,0.751H394.604z M385.803,116.372
			c0.038-0.416,0.067-0.895,0.087-1.432c-0.485,0.517-0.999,0.99-1.541,1.417C384.794,116.364,385.279,116.369,385.803,116.372z
			 M389.923,115.323c0.018,0.377,0.04,0.721,0.068,1.027c0.39-0.008,0.741-0.017,1.055-0.027
			C390.642,116.012,390.268,115.679,389.923,115.323z M379.137,114.512c-0.02,0.104-0.037,0.212-0.054,0.322
			c1.113-0.376,2.185-0.912,3.205-1.604c-1.006,0.032-1.872,0.078-2.59,0.137l-0.359,0.029L379.137,114.512z"/>
		<path fill="#F2F2F2" d="M394.188,105.569c0.479,0.959,0.903,1.659,1.272,2.101c0.129,0.148,0.193,0.272,0.193,0.373
			c0,0.066-0.06,0.098-0.179,0.098c-0.065,0-0.148-0.01-0.249-0.029c-0.286-0.055-0.636-0.083-1.05-0.083
			c-0.415,0-1.208,0.042-2.378,0.124c-1.171,0.083-2.143,0.143-2.917,0.18v2.184c3.465,0,6.073-0.064,7.824-0.194v2.046
			c-1.106-0.11-3.179-0.175-6.221-0.194c1.364,1.788,3.751,2.783,7.161,2.986c-0.608,0.627-0.986,1.484-1.134,2.571
			c-3.742-0.922-6.258-2.774-7.548-5.558h-0.083v1.051c0,1.567,0.055,2.792,0.166,3.677h-2.295c0.111-0.903,0.166-2.129,0.166-3.677
			v-1.051h-0.139c-1.696,2.618-3.908,4.406-6.635,5.364c-0.277-0.498-0.784-1.004-1.521-1.521c2.377-0.645,4.552-1.926,6.525-3.843
			c-2.341,0.018-4.184,0.083-5.53,0.194v-2.046c2.138,0.129,4.571,0.194,7.3,0.194v-2.046c-2.858,0.166-4.682,0.259-5.475,0.277
			c-0.148-0.756-0.369-1.382-0.663-1.88c0.792,0.037,1.539,0.055,2.24,0.055c1.898,0,3.894-0.133,5.986-0.401
			C391.096,106.256,392.824,105.938,394.188,105.569 M376.852,106.315c0.405,1.769,0.866,3.392,1.382,4.866l-2.571,0.636
			c-0.166-1.677-0.608-3.299-1.328-4.866L376.852,106.315 M378.152,114.334c-0.166,0.922-0.249,2.028-0.249,3.318v7.576
			c0.479,0.129,1.539,0.572,3.18,1.327c1.106,0.516,3.115,0.774,6.027,0.774c2.912,0,6.304-0.221,10.175-0.663
			c-0.369,0.959-0.581,1.936-0.636,2.93l-4.534,0.028c-2.728,0-4.802-0.051-6.221-0.152c-1.419-0.102-2.585-0.276-3.498-0.525
			c-0.912-0.249-2.004-0.65-3.276-1.203c-0.885-0.387-1.567-0.581-2.046-0.581c-0.48,0-0.95,0.189-1.41,0.567
			c-0.461,0.378-1.033,1-1.715,1.866c-0.516-0.756-1.05-1.337-1.603-1.742c1.456-1.566,2.562-2.461,3.318-2.682v-8.571
			c-1.604,0-2.562,0.018-2.876,0.055v-2.322c0.811,0.092,1.687,0.138,2.627,0.138C376.355,114.472,377.267,114.426,378.152,114.334
			 M392.198,117.264c-0.185,0.295-0.323,0.608-0.415,0.94l-0.608,2.018h3.429c0.295,0,0.673-0.055,1.134-0.166
			c-0.314,0.756-0.691,2.055-1.134,3.898c-0.166,0.756-0.682,1.355-1.548,1.797c-0.866,0.442-2.111,0.765-3.732,0.968
			c-0.148-0.719-0.525-1.493-1.134-2.323c1.936,0,3.179-0.18,3.732-0.539c0.553-0.36,0.875-1.037,0.968-2.032h-2.627
			c-0.645,0-1.152,0.027-1.521,0.083l0.719-2.792h-2.848c-0.535,3.226-2.074,5.548-4.618,6.968c-0.369-0.59-0.959-1.143-1.769-1.659
			c1.493-0.571,2.534-1.239,3.124-2.004c0.59-0.765,1.023-1.866,1.3-3.304c-1.272,0.018-2.277,0.074-3.014,0.166v-2.018
			c1.032,0.074,2.81,0.111,5.336,0.111C389.497,117.375,391.239,117.338,392.198,117.264 M395.246,103.211l-1.58,0.427
			c-1.27,0.343-2.923,0.646-4.915,0.9c-1.997,0.255-3.926,0.385-5.733,0.385c-0.676,0-1.398-0.018-2.146-0.053l-2.325-0.11
			l-0.203-0.886l-1.983,0.501l-2.516,0.636l-2.33,0.589l1.002,2.184c0.623,1.357,1.012,2.78,1.155,4.229l0.039,0.397
			c-0.24-0.018-0.473-0.04-0.699-0.065l-2.226-0.253v2.24v2.322v2.246l2.231-0.26c0.034-0.004,0.178-0.016,0.644-0.026v5.35
			c-0.802,0.543-1.706,1.367-2.783,2.526l-1.53,1.647l1.814,1.328c0.366,0.268,0.748,0.691,1.133,1.256l1.537,2.252l1.686-2.142
			c0.734-0.933,1.172-1.361,1.41-1.555c0.109-0.09,0.169-0.114,0.18-0.118c-0.003,0.006,0.334,0.035,1.208,0.417
			c1.376,0.598,2.536,1.023,3.551,1.3c1.046,0.285,2.315,0.478,3.881,0.591c1.463,0.104,3.604,0.157,6.364,0.157l4.547-0.028
			l1.88-0.012l0.104-1.877c0.044-0.783,0.214-1.564,0.506-2.323l1.186-3.08l-3.279,0.375c-0.2,0.023-0.399,0.045-0.597,0.067
			c0.039-0.125,0.07-0.245,0.096-0.36c0.51-2.122,0.841-3.111,1.027-3.561l0.288-0.694l0.321,0.079l0.172-1.269l0.722-1.741
			l-0.438,0.105c0.105-0.311,0.249-0.561,0.43-0.748l3.035-3.13l-3.411-0.203v-0.852v-2.046v-2.153l-1.06,0.078
			c0.007-0.068,0.01-0.136,0.01-0.206c0-0.597-0.23-1.164-0.685-1.687c-0.124-0.149-0.457-0.612-0.992-1.682L395.246,103.211
			L395.246,103.211z M379.903,121.514l1.786-0.223c-0.228,0.253-0.726,0.66-1.786,1.108V121.514L379.903,121.514z M386.036,125.315
			c0.061-0.074,0.122-0.148,0.181-0.223l0.169,0.231C386.267,125.321,386.15,125.318,386.036,125.315L386.036,125.315z"/>
	</g>
	<g>
		<path fill="#0032D1" d="M409.997,131.363c-0.592-0.576-1.316-1.098-2.156-1.551l-1.46-0.789l1.38-0.922
			c0.789-0.528,1.466-1.143,2.031-1.847h-2.807v-1.714h-1.622v3.732h-4.424l0.047-1.045c0.055-1.211,0.082-2.461,0.082-3.715
			v-13.549c0-1.432-0.009-2.348-0.027-2.746l-0.063-1.389l1.337,0.381c0.192,0.055,0.95,0.183,3.832,0.183
			c2.953,0,3.622-0.135,3.757-0.177l1.404-0.432l-0.113,1.465c-0.053,0.686-0.08,1.6-0.08,2.715v11.613
			c0,0.716,0.019,1.473,0.056,2.262c0.55-1.422,0.82-3.083,0.82-4.999v-8.322c0-2.1-0.068-2.968-0.126-3.326l-0.196-1.224
			l1.237,0.066c1.346,0.072,3.127,0.109,5.296,0.109s3.961-0.037,5.325-0.109l1.294-0.068l-0.262,1.27
			c-0.055,0.263-0.146,1.04-0.146,3.282v17.501c0,0.688-0.164,1.27-0.488,1.726c-0.343,0.484-0.928,0.837-1.84,1.112
			c-0.74,0.223-1.817,0.406-3.294,0.562l-1.032,0.109l-0.071-1.035c-0.058-0.856-0.366-1.566-0.943-2.172l-1.833-1.926
			c-0.801,1.754-1.973,3.41-3.508,4.955l-0.697,0.702L409.997,131.363z M417.563,126.637c0.553,0.052,1.089,0.078,1.593,0.078
			c0.362,0,0.67-0.04,0.916-0.12c0.01-0.046,0.02-0.121,0.02-0.234v-4.032h-4.01c-0.183,1.402-0.572,2.758-1.166,4.059
			L417.563,126.637z M406.986,120.55v-3.28h-1.622v3.28H406.986z M420.091,118.338v-2.009h-3.861v2.009H420.091z M406.986,113.305
			v-2.921h-1.622v2.921H406.986z M420.091,112.283v-2.092h-3.861v2.092H420.091z"/>
		<path fill="#F2F2F2" d="M423.579,107.034c-0.111,0.535-0.166,1.696-0.166,3.484v17.502c0,0.479-0.101,0.862-0.304,1.148
			c-0.203,0.286-0.641,0.53-1.314,0.733c-0.673,0.203-1.71,0.378-3.111,0.526c-0.074-1.088-0.479-2.019-1.216-2.793
			c0.59,0.055,1.152,0.083,1.687,0.083c0.534,0,0.99-0.073,1.368-0.221c0.378-0.147,0.567-0.525,0.567-1.134v-5.032h-5.917
			c-0.221,3.428-1.714,6.535-4.479,9.318c-0.664-0.645-1.456-1.216-2.378-1.714c3.115-2.083,4.673-5.447,4.673-10.092v-8.322
			c0-1.751-0.046-2.912-0.139-3.484c1.382,0.074,3.166,0.11,5.35,0.11C420.386,107.145,422.178,107.108,423.579,107.034
			 M415.229,113.283h5.861v-4.092h-5.861V113.283 M415.229,119.338h5.861v-4.009h-5.861V119.338 M410.197,107.172
			c-0.055,0.719-0.083,1.65-0.083,2.793v11.613c0,1.143,0.046,2.368,0.138,3.677h-2.267v-1.714h-3.622v3.732h-2.378
			c0.055-1.216,0.083-2.47,0.083-3.76v-13.548c0-1.456-0.009-2.387-0.028-2.793c0.516,0.148,1.885,0.221,4.106,0.221
			C408.367,107.394,409.718,107.32,410.197,107.172 M404.363,114.306h3.622v-4.921h-3.622V114.306 M404.363,121.55h3.622v-5.281
			h-3.622V121.55 M412.417,104.396l-1.695,0.522l-0.241-0.013l0.013,0.083l-0.866,0.267c-0.127,0.028-0.804,0.139-3.483,0.139
			c-2.816,0-3.466-0.123-3.568-0.147l-2.675-0.766l0.139,2.783c0.012,0.259,0.026,0.938,0.026,2.702v13.548
			c0,1.25-0.027,2.485-0.081,3.669l-0.095,2.091h2.093h2.378h0.376l2.628,1.419c0.755,0.408,1.406,0.875,1.934,1.388l1.419,1.379
			l1.394-1.404c1.24-1.248,2.256-2.566,3.045-3.949l0.862,0.905c0.414,0.435,0.627,0.927,0.669,1.549l0.141,2.072l2.065-0.218
			c1.54-0.163,2.677-0.359,3.476-0.599c1.137-0.343,1.888-0.816,2.367-1.488c0.448-0.633,0.674-1.408,0.674-2.307v-17.502
			c0-2.298,0.095-2.937,0.125-3.078l0.525-2.539l-2.589,0.136c-1.357,0.071-3.13,0.108-5.272,0.108
			c-2.142,0-3.906-0.036-5.244-0.108l-0.588-0.031L412.417,104.396L412.417,104.396z M417.229,111.191h1.861v0.092h-1.861V111.191
			L417.229,111.191z M417.229,117.329h1.861v0.009h-1.861V117.329L417.229,117.329z M416.934,123.329h2.157v2.386
			c-0.453-0.002-0.935-0.027-1.435-0.074l-1.311-0.123C416.596,124.803,416.793,124.072,416.934,123.329L416.934,123.329z
			 M406.363,127.255h0.864c-0.007,0.005-0.015,0.01-0.022,0.015l-0.842,0.563v-0.56V127.255L406.363,127.255z"/>
	</g>
	<g>
		<path fill="#0032D1" d="M441.662,130.9c-1.989,0-3.332-0.085-4.106-0.26c-1.322-0.3-1.828-1.099-2.02-1.717
			c-0.125-0.4-0.29-1.196-0.294-3.474c-2.905,0.379-5.004,0.732-6.245,1.05l-1.089,0.278l-0.628-4.664l1.099-0.042
			c1.708-0.066,4.004-0.27,6.833-0.604c-0.037-0.857-0.086-1.391-0.132-1.72c-2.37,0.052-3.003,0.135-3.17,0.179l-1.448,0.385
			l0.145-1.468c0.122-0.909,0.185-2.147,0.185-3.682v-3.4c0-1.493-0.062-2.673-0.183-3.506l-0.193-1.325l1.325,0.19
			c0.645,0.093,1.93,0.145,3.825,0.154c0.515-1.342,0.61-1.968,0.617-2.233l0.042-1.489l1.362,0.604
			c0.717,0.316,1.489,0.555,2.297,0.706c1.183,0.198,1.312,0.946,1.312,1.259c0,0.578-0.396,0.949-0.695,1.156h2.958
			c2.993,0,4.962-0.054,5.854-0.159l1.322-0.156l-0.219,1.313c-0.069,0.416-0.151,1.358-0.151,3.486v3.4
			c0,1.523,0.062,2.763,0.185,3.684l0.084,0.635c0.554-0.085,1.072-0.167,1.555-0.246l0.995-0.163l0.71,4.568l-1.094,0.069
			c-0.892,0.057-1.839,0.124-2.838,0.204c0.477,0.425,1.058,0.764,1.735,1.01l0.904,0.328l-0.294,0.917
			c-0.561,1.747-1.108,2.837-1.725,3.429c-0.628,0.604-1.415,0.983-2.339,1.125C447.366,130.843,445.246,130.9,441.662,130.9z
			 M439.631,126.774c0.071,0.028,0.211,0.07,0.456,0.102c0.607,0.077,1.676,0.116,3.178,0.116c1.818,0,2.677-0.119,3.075-0.219
			c0.591-0.148,0.732-0.387,0.779-0.466c0.115-0.195,0.354-0.745,0.657-2.218c-2.477,0.22-5.229,0.5-8.239,0.841v0.463
			C439.537,126.243,439.596,126.623,439.631,126.774z M439.695,120.597c-0.02,0.054-0.049,0.158-0.077,0.34
			c3.306-0.402,6.162-0.773,8.547-1.109c-1.075-0.063-3.251-0.126-7.649-0.126c-0.098,0-0.194,0-0.29,0
			C440.19,120.152,439.882,120.446,439.695,120.597z M445.86,115.795v-0.406h-10.801v0.406H445.86z M445.86,111.619v-0.516h-10.801
			v0.516H445.86z"/>
		<path fill="#F2F2F2" d="M437.183,105.071c0.792,0.35,1.631,0.608,2.516,0.774c0.332,0.055,0.497,0.148,0.497,0.277
			c0,0.129-0.148,0.276-0.442,0.442c-0.295,0.166-0.539,0.355-0.733,0.567c-0.194,0.212-0.447,0.594-0.76,1.147h5.198
			c3.042,0,5.032-0.055,5.972-0.166c-0.11,0.664-0.166,1.88-0.166,3.65v3.401c0,1.567,0.064,2.839,0.193,3.815
			c-0.535-0.184-3.516-0.276-8.944-0.276c-5.429,0-8.401,0.092-8.917,0.276c0.129-0.958,0.194-2.23,0.194-3.815v-3.401
			c0-1.549-0.065-2.765-0.194-3.65c0.774,0.111,2.323,0.166,4.645,0.166C436.851,106.804,437.164,105.735,437.183,105.071
			 M434.058,112.619h12.802v-2.516h-12.802V112.619 M434.058,116.794h12.802v-2.406h-12.802V116.794 M436.021,119.31
			c0.498,0.203,1.189,0.304,2.074,0.304c0.295,0,0.512-0.014,0.65-0.042c0.138-0.027,0.253-0.041,0.346-0.041
			c0.092,0,0.138,0.028,0.138,0.083c0,0.055-0.074,0.138-0.221,0.249c-0.295,0.203-0.452,0.94-0.47,2.212
			c5.99-0.719,10.562-1.337,13.714-1.853l0.387,2.489c-3.797,0.24-8.498,0.682-14.101,1.327v1.355c0,0.977,0.073,1.613,0.221,1.908
			c0.147,0.295,0.548,0.484,1.202,0.567c0.654,0.083,1.756,0.125,3.304,0.125c1.548,0,2.655-0.083,3.318-0.249
			c0.664-0.166,1.129-0.474,1.396-0.926c0.267-0.452,0.53-1.314,0.788-2.585c0.645,0.719,1.474,1.263,2.488,1.631
			c-0.497,1.549-0.986,2.553-1.465,3.014c-0.479,0.46-1.078,0.747-1.797,0.857c-0.719,0.11-2.83,0.166-6.332,0.166
			c-1.899,0-3.194-0.078-3.885-0.235c-0.691-0.157-1.12-0.502-1.285-1.037c-0.166-0.535-0.249-1.622-0.249-3.263v-1.051
			c-3.558,0.442-6.055,0.848-7.493,1.217l-0.332-2.461c1.917-0.074,4.525-0.313,7.825-0.719
			C436.205,120.896,436.132,119.882,436.021,119.31 M435.268,102.037l-0.085,2.977c-0.002,0.075-0.03,0.413-0.316,1.257
			c-1.785-0.021-2.608-0.084-2.986-0.138l-2.647-0.379l0.385,2.646c0.115,0.788,0.173,1.919,0.173,3.362v3.401
			c0,1.487-0.059,2.681-0.176,3.549l-0.311,2.312c-0.34,0.02-0.662,0.036-0.964,0.048l-2.199,0.085l0.294,2.181l0.332,2.461
			l0.3,2.229l2.178-0.558c1.04-0.266,2.721-0.561,5.014-0.878c0.049,1.549,0.193,2.218,0.321,2.63
			c0.22,0.71,0.871,1.968,2.753,2.394c0.856,0.194,2.231,0.284,4.327,0.284c4.79,0,6.062-0.101,6.635-0.189
			c1.131-0.174,2.099-0.642,2.879-1.392c0.75-0.721,1.362-1.907,1.984-3.845l0.588-1.83l1.204-0.076l-0.337-2.165l-0.387-2.489
			l-0.31-1.992l-1.99,0.326c-0.172,0.028-0.35,0.057-0.531,0.086c-0.087-0.836-0.131-1.9-0.131-3.172v-3.401
			c0-2.165,0.087-3.011,0.139-3.322l0.436-2.625l-2.643,0.311c-0.589,0.069-2.063,0.152-5.738,0.152h-1.268
			c0.004-0.054,0.005-0.106,0.005-0.156c0-0.315-0.105-1.905-2.168-2.249c-0.691-0.13-1.389-0.344-2.036-0.631L435.268,102.037
			L435.268,102.037z M440.544,125.824c2.111-0.235,4.091-0.439,5.931-0.612c-0.087,0.29-0.152,0.45-0.187,0.528
			c-0.035,0.016-0.095,0.039-0.189,0.063c-0.282,0.071-1.025,0.189-2.833,0.189c-1.412,0-2.238-0.036-2.718-0.075
			C440.546,125.887,440.545,125.856,440.544,125.824L440.544,125.824z"/>
	</g>
</g>
<g>
	<g>
		<path fill="#CE0000" d="M313.803,45.63c-6.189,0-9.885-3.695-9.885-9.885s3.695-9.885,9.885-9.885s9.885,3.695,9.885,9.885
			S319.992,45.63,313.803,45.63z M313.803,41.672c0.468,0,0.91-0.033,1.327-0.099c-0.258-0.19-0.373-0.442-0.421-0.586
			c-0.021-0.063-0.035-0.127-0.043-0.193c-0.155-1.258-0.659-2.39-0.991-2.909c-0.075,0.054-0.144,0.114-0.168,0.158
			c0.018,0.516,0.308,1.671,0.417,2.106c0.075,0.299,0.096,0.38,0.096,0.522c0,0.389-0.2,0.78-0.59,0.992
			C313.553,41.669,313.677,41.672,313.803,41.672z M309.127,31.701c-0.817,0.993-1.251,2.357-1.251,4.045
			c0,1.608,0.394,2.923,1.139,3.903c-0.127-1.379-0.129-3.197-0.129-3.223l0.125-3.703
			C309.046,32.312,309.086,31.976,309.127,31.701z M317.283,35.915c0.596,0.645,1.396,1.606,1.855,2.821
			c0.389-0.836,0.591-1.838,0.591-2.99c0-1.205-0.221-2.245-0.646-3.103c0.005,0.074,0.007,0.14,0.007,0.196
			C319.091,34.412,318.045,35.366,317.283,35.915z M314.132,33.014c-0.511,0-0.706,0-0.744,1.074
			c0.539-0.289,1.204-0.754,1.272-1.026c-0.003,0.007-0.013,0.01-0.028,0.01C314.562,33.072,314.377,33.014,314.132,33.014z"/>
		<path fill="#FFFFFF" d="M313.803,26.861c5.648,0,8.885,3.236,8.885,8.885s-3.236,8.885-8.885,8.885s-8.885-3.236-8.885-8.885
			S308.154,26.861,313.803,26.861 M313.803,42.672c4.329,0,6.927-2.597,6.927-6.926s-2.598-6.926-6.927-6.926
			s-6.927,2.597-6.927,6.926S309.474,42.672,313.803,42.672 M314.73,30.53c2.741,0,3.36,1.257,3.36,2.309
			c0,1.917-2.247,2.598-2.247,2.948c0,0.268,2.659,2.206,2.659,4.886c0,0.124-0.062,0.145-0.33,0.145h-1.979
			c-0.076,0-0.15,0.004-0.217,0.004c-0.153,0-0.275-0.02-0.318-0.148c-0.248-2.02-1.319-3.917-1.753-3.917
			c-0.412,0-1.381,0.515-1.381,1.195c0,0.948,0.495,2.639,0.495,2.721c0,0.129-0.137,0.153-0.271,0.153
			c-0.08,0-0.158-0.009-0.204-0.009h-1.855c-0.067,0-0.127,0.003-0.181,0.003c-0.163,0-0.272-0.023-0.333-0.209
			c-0.228-0.66-0.289-3.381-0.289-4.185l0.124-3.669c0.041-0.474,0.144-1.443,0.329-1.834c0.124-0.268,0.228-0.392,0.536-0.392
			H314.73 M312.813,35.333c0.453,0,2.845-1.093,2.845-2.247c0-0.763-0.805-1.072-1.526-1.072c-1.216,0-1.752,0.433-1.752,2.557
			C312.38,34.838,312.4,35.333,312.813,35.333 M313.803,24.861c-6.714,0-10.885,4.171-10.885,10.885s4.171,10.885,10.885,10.885
			s10.885-4.171,10.885-10.885S320.517,24.861,313.803,24.861L313.803,24.861z"/>
	</g>
</g>
<g>
</g>
<g>
</g>
<g>
</g>
<g>
</g>
<g>
</g>
<g>
</g>
<g>
</g>
<g>
</g>
<g>
</g>
<g>
</g>
<g>
</g>
<g>
</g>
<g>
</g>
<g>
</g>
<g>
</g>
</svg>
