<?xml version="1.0" encoding="utf-8"?>
<!-- Generator: Adobe Illustrator 17.0.0, SVG Export Plug-In . SVG Version: 6.00 Build 0)  -->
<!DOCTYPE svg PUBLIC "-//W3C//DTD SVG 1.1//EN" "http://www.w3.org/Graphics/SVG/1.1/DTD/svg11.dtd">
<svg version="1.1" id="图层_1" xmlns="http://www.w3.org/2000/svg" xmlns:xlink="http://www.w3.org/1999/xlink" x="0px" y="0px"
	 width="480px" height="150px" viewBox="0 0 480 150" enable-background="new 0 0 480 150" xml:space="preserve">
<g>
	<path fill="#EFEFEF" d="M295.372,43.146c-2.85-13.409-16.031-21.969-29.44-19.119L145.413,49.645l-0.508-2.39l-36.198,7.694
		l0.508,2.39l-9.193,1.954c-13.409,2.85-21.969,16.031-19.119,29.44l47.972,225.692l214.468-45.587l-24.607-115.766l2.043-0.434
		l-4.355-20.489l-2.043,0.434l-1.161-5.463l2.043-0.435l-4.355-20.489l-2.043,0.434l-2.177-10.244l2.043-0.435l-4.355-20.489
		l-2.043,0.434L295.372,43.146z"/>
</g>
<g>
	<path fill="#E8153E" d="M281.642,55.585c-2.145-13.54-14.859-22.778-28.399-20.633L131.548,54.226l-0.382-2.414l-36.551,5.789
		l0.382,2.414l-9.282,1.47c-13.54,2.145-22.778,14.859-20.633,28.399l36.095,227.894l216.56-34.3l-18.514-116.895l2.063-0.327
		l-3.277-20.689l-2.063,0.326l-0.874-5.517l2.063-0.327l-3.277-20.689l-2.063,0.327l-1.638-10.344l2.063-0.327l-3.277-20.689
		l-2.063,0.327L281.642,55.585z"/>
</g>
<g>
	<path fill="#FFF200" d="M266.321,66.876c-1.433-13.634-13.647-23.524-27.28-22.091L116.504,57.664l-0.255-2.43l-36.804,3.868
		l0.255,2.43l-9.346,0.982c-13.634,1.433-23.524,13.647-22.091,27.28l24.118,229.47l218.059-22.919l-12.371-117.704l2.077-0.218
		l-2.19-20.832l-2.077,0.218l-0.584-5.555l2.077-0.219l-2.19-20.832l-2.077,0.218l-1.095-10.416l2.077-0.219l-2.19-20.832
		l-2.077,0.218L266.321,66.876z"/>
</g>
<g>
	<path fill="#00A4FF" d="M250.489,77.778c-0.717-13.69-12.397-24.206-26.087-23.489L101.36,60.738l-0.128-2.44l-36.956,1.937
		l0.128,2.44l-9.385,0.492c-13.69,0.717-24.206,12.397-23.489,26.087l12.076,230.418l218.959-11.475l-6.194-118.19l2.086-0.109
		l-1.096-20.919l-2.086,0.109l-0.292-5.578l2.086-0.11l-1.096-20.919l-2.086,0.109l-0.548-10.459l2.086-0.11l-1.096-20.919
		l-2.086,0.109L250.489,77.778z"/>
</g>
<g>
	<g>
		<g>
			<path fill="#64FF00" d="M233,87.266C233,73.557,222.138,62,208.429,62H85v-2H48v2h-9.187C25.104,62,14,73.557,14,87.266V318h219
				V200h2v-21h-2v-6h2v-21h-2v-10h2v-21h-2V87.266z"/>
		</g>
		<g>
			<circle cx="64.993" cy="87.057" r="0.923"/>
			<g>
				<circle fill="#F2F2F2" cx="79.314" cy="87.057" r="4.586"/>
				<circle fill="#FFE600" cx="79.314" cy="87.057" r="1.576"/>
			</g>
			<g>
				<circle cx="44.545" cy="87.057" r="11.696"/>
				<circle fill="#393F44" cx="44.545" cy="87.057" r="8.187"/>
				<circle fill="#003A7F" stroke="#1A1A1A" stroke-miterlimit="10" cx="44.545" cy="87.057" r="3.318"/>
			</g>
		</g>
		<g>
			<g>
				<path fill="#040000" d="M130.641,167.388c0.462-1.88,1.268-3.581,2.316-5.076c-2.335-1.708-5.03-3.005-8.013-3.739
					c-12.243-3.011-24.608,4.472-27.62,16.715c-3.011,12.243,4.472,24.608,16.715,27.62c12.243,3.011,24.609-4.472,27.62-16.715
					c0.036-0.144,0.051-0.288,0.084-0.433C133.608,183.747,128.639,175.527,130.641,167.388z"/>
				<path fill="#040000" d="M134.387,142.152c-3.697,0.138-7.355,1.574-10.177,4.396c-2.822,2.822-4.258,6.481-4.396,10.177
					c3.697-0.138,7.355-1.574,10.177-4.396C132.813,149.507,134.249,145.849,134.387,142.152z"/>
			</g>
		</g>
	</g>
</g>
<g>
	<path d="M231.222,135.195c0-0.206-0.309-0.979-0.309-1.545c0-0.618,0.103-1.236,0.103-1.854c0-0.412-0.103-0.722-0.103-1.236
		c0-1.03,0.103-2.163,0.103-3.192c0-1.03-0.309-1.957-0.309-2.885c0-1.441,0.36-4.325-0.927-4.325h-2.987
		c-0.154,0-1.905,0.103-2.266,0.618c0,0.617-0.309,3.707-0.309,4.325c-0.051,1.854,0.103,3.914,0.103,5.768
		c0,0.928-0.103,1.854-0.412,2.781c-1.03,1.03-1.648,1.854-2.678,1.854c-0.412-0.31-1.339-0.618-1.339-1.34
		c0-0.515-0.206-2.472-0.206-2.986V121.6c0-1.751-0.309-3.398-0.309-4.943c0.258,0,0.515-0.052,0.772-0.052
		c0.412,0,1.03,0.412,1.597,0.979h0.309c1.288,0,2.472,1.545,3.399,1.545c0.412,0,0.618-0.515,1.03-0.618
		c1.391-0.36,3.296,0.104,4.12-1.133c0-0.412,0.412-4.223-0.927-4.635c-2.472,0-4.583,0.464-6.901,0.618
		c-1.751,0.206-6.283-0.052-6.283,1.545c0,0.257,0.052,0.309,0.103,0.515c0,1.339-0.309,3.193-1.545,4.12
		c-0.979,0.258-1.288,1.236-2.317,1.236c-1.082,0-2.008-1.03-2.008-2.163c0-0.412,0.618-0.928,0.772-1.339l0.463-1.442
		c0-0.412,1.082-1.905,1.082-2.781c0-0.154,0.309-1.854,0.309-2.008l0.154-0.464c0-0.154-0.051-0.412-0.051-0.669
		c0-0.464,0.154-0.928,0.515-1.03c1.03,0.154,0.721,2.626,2.214,2.626c0.412,0,0.412-0.309,0.927-0.617
		c2.06-1.854,1.751-1.597,2.266-2.627c0-0.154,0.618-1.081,0.618-1.236c0-0.927,0.618-2.162,0.618-3.553c0.206,0,0.618,0,0.618-0.31
		c0-0.154-0.412-0.154-0.618-0.154v-0.824c0-0.979-0.052-1.081-1.339-1.339c-0.206,0-0.927,0.104-1.133,0.104h-0.824
		c0.154,0-3.914,0.618-6.128,0.618c-0.515,0.206-1.236-0.979-1.236-1.545c0-0.258,0.103-0.412,0.309-0.412h1.236
		c2.472,0,4.892-0.206,7.261-0.206h1.236c0.412,0,0.721-0.464,0.824-0.412c0-0.052-0.206-2.009-0.206-2.163
		c0-1.442-0.206-1.391-1.545-2.678c-0.103-0.721,0.875-0.67,1.442-1.236c0.979,0,4.12,0.876,4.12,2.061
		c0,0.617-0.721,0.927-0.721,1.339c0,0.206,0,2.78,0.618,2.78h2.266c0.515,0,1.03-0.927,1.03-1.235v-0.31
		c0-0.309-0.206-1.957-0.206-2.266c-0.206-0.67-0.721-1.081-1.236-1.751c-0.566,0,0.824-1.339,2.163-1.339
		c0.309,0,2.987,1.236,2.987,1.339v0.824c-1.236,0.979-0.875,3.348-0.927,4.017l0.412,0.412h0.515c0.721,0,3.09,0,3.399-0.721
		c0-1.442-0.154-2.421-0.309-3.708v-0.516c0-0.979-1.442-1.235-1.442-1.956c0-0.567,0.36-0.618,0.721-0.618h0.515
		c0.206,0,1.236-0.31,1.442-0.31c0.618,0,1.236,0.722,1.648,1.03c0.515,0.309,1.545,0.515,1.545,1.133
		c0,0.258-0.875,1.236-1.236,1.854c0,0-0.103,1.339-0.103,1.854c-0.257,1.287,1.391,1.545,2.317,1.545
		c0.772,0,1.236-0.824,1.236-1.441c0-1.546-0.154-3.502-0.618-5.047c-0.154-0.516-1.082-0.928-1.082-1.236
		c1.082-0.206,2.008-0.824,3.244-0.824c0.928,0.31,3.245,1.133,3.245,2.472c0,0.928-1.082,1.442-1.545,2.061
		c-0.464,0.618-0.464,1.647-0.464,2.472c0,1.236,0.927,0.618,1.854,1.03c0.928,0.051,2.369-0.36,3.245-0.927
		c0.463-0.67,1.081-1.34,1.854-1.34c0.618,0,1.082,0.412,1.597,0.722c0.566,0.823,2.163,0.669,2.163,1.854
		c0,1.133-1.133,1.236-2.061,1.236c-1.647,0-3.708-0.104-5.407-0.104c-0.927,0-2.008,0.104-2.936,0.31l-0.154,0.309v0.927
		c0,1.03-0.412,3.399,1.236,3.399c0.772,0,1.545-0.154,2.317-0.154c0.824,0,1.699,0.463,2.472,1.39
		c0.206,0.979-0.927,2.317-2.163,2.317c-1.339,0-2.936,0.155-3.708,0.155c-2.936,0.103-2.936-0.618-3.09-2.163
		c0-0.154-0.154-1.082-0.154-1.236c0-0.309,0.154-2.78,0.154-3.09c0.154-1.854-0.258-1.854-1.544-1.854
		c-0.67,0-1.288,0.103-1.288,0.927c0,1.647,0.206,2.781,0.206,4.171c0,0.876,0,1.03-1.236,1.391h-4.635
		c-1.854,0-1.854,2.317-3.605,2.936c-0.978,0.154-1.596-0.515-1.545-1.545c0-0.154,0.206-1.391,0.206-1.545
		s-0.206-0.927-0.206-1.081c0-4.944,0-4.532-2.369-4.532c-0.515,0-1.133,0.052-1.339,0.515c0,0.772-0.206,5.717-1.854,7.725
		c-1.442,1.391-2.987,2.575-2.781,2.781c0,0.154,0.309,0.31,0.309,0.31h3.399c0.206-0.155,0.515-0.206,0.824-0.206
		c0.36,0,0.772,0.051,1.03,0.051c0.927-0.154,1.648-0.463,2.678-0.463c0.309,0,0.618,0.309,0.927,0.309s0.618-0.309,0.927-0.309
		h2.163c0.618,0,0.618-0.31,4.017-0.31l0.412-0.154c1.442-0.154,7.209-0.309,7.159-0.463c0.36,0.051,0.669,0.051,1.081,0.051
		c1.391,0,2.627-0.309,4.017-0.823c0.772,0.103,1.391-1.236,2.473-1.236c1.751,0.515,1.441,1.081,3.862,2.472
		c0.979,0,0.927,0.772,2.06,1.854c0.412,0.463,0.31,0.772,0.31,1.545c-0.206,0.772-1.854,1.647-2.627,1.647
		c-0.052,0-0.103-0.103-0.154-0.103c-0.309,0.206-2.215,0.617-2.523,0.823c-0.618,0.104-2.627,0.412-2.936,1.03v1.545
		c-0.154,0.618-1.545,1.236-1.545,1.854c0,1.029-0.154,1.647-0.154,2.162c0,3.348-0.154,5.459-0.154,8.137
		c-0.618,1.957-3.399,4.636-4.944,4.636c-1.493,0-1.39-1.494-2.833-2.473c-0.309-0.309-1.339-0.309-1.339-0.824
		c0.103-0.411,0.824-0.309,1.339-0.309c0-0.412,2.833,0.052,2.833-1.647v-2.781l0.154-0.515c0,0-0.103-0.618-0.154-0.824
		c0-0.104,0.154-0.721,0.154-0.927c0-5.459,0.36-6.592-2.317-6.592c-0.772,0-1.288,0.309-1.906,0.411
		c-1.133,0-2.781,0.31-2.781,0.516v8.857c0,0.104,0.206,1.236,0.206,1.545v6.025c0,1.185-1.339,2.369-2.06,2.936
		c-1.751,0.154-1.494-1.03-1.854-1.854c-0.257-0.258-0.309-0.464-0.309-0.824C231.016,136.02,231.222,135.711,231.222,135.195z
		 M232.458,104.554c0.052,0.258,0.927-0.309,1.545-0.309c0.927-0.31,0.927-0.772,0.927-1.699c0-0.155-0.206-2.523-0.309-2.523h-2.42
		c-0.824,0-1.596,0.154-1.596,0.927C230.604,102.494,230.501,104.554,232.458,104.554z M235.342,117.377
		c2.06,0,3.193-0.309,5.768-0.309c0.772-0.31,1.391-1.957,2.317-2.781c0.258,0,0.464,0.206,0.618,0.154
		c0.154,0.154,0.927,0.979,1.081,1.082c0.722,0.206,1.134,0.927,2.009,0.927c1.236-1.03,2.009-2.781,2.009-4.326
		c0-0.618-0.31-0.772-0.928-0.772c-3.553,0-2.884,0.772-9.887,0.772c-0.875,0-2.781-0.103-2.781,0.31
		c0.154,1.39-0.927,2.42-0.927,3.707C234.621,116.656,234.93,117.068,235.342,117.377z"/>
	<path fill="#00E000" d="M276.179,137.771l-0.309-0.104c-0.464,0-0.618,0.104-1.081,0.104c-3.296-1.391-4.326-2.936-4.326-7.21
		c0-2.523,0.309-9.99,0.309-10.557v-7.726c-0.051,0-0.412-0.566-0.772-0.617c-0.463-0.155-1.493,0.927-2.008,1.235
		c-1.236,0.876-2.317,2.215-3.76,2.781c-0.876,0.309-2.163,1.185-2.472,1.545c-0.258,0-0.412,0.052-0.412-0.206
		c0-0.67,0.721-0.927,1.235-1.236c2.833-2.832,4.378-4.995,6.644-7.261c0.154-0.154,1.082-1.699,1.236-1.854
		c1.235-1.391,2.369-3.244,2.936-4.943c1.545-1.751,2.317-4.532,3.244-6.798c0.154-0.31,0.464-1.545,0.618-1.854
		c0-1.441-1.699-1.545-2.627-2.06c0.258-0.36,0.67-0.412,1.185-0.412c0.36,0,0.772,0.052,1.133,0.052
		c0.464,0,0.772-0.052,1.082-0.258h2.626l0.927,0.31c0.258,0.206,2.679,1.751,2.679,2.368c0,1.34-1.751,1.34-1.751,2.575
		c0,0.876,0.463,1.133,1.235,1.133c2.678,0,5.099,0.104,7.931,0.104c2.523,0.257,2.267-1.494,4.018-2.575
		c0.566-0.154,0.823,0.515,0.927,0.927c0.927,1.339,3.296,3.193,3.296,4.12c0,1.185-2.627,2.523-3.09,2.523
		c-0.721-0.052-0.927,0.36-1.442,0.772c-0.412,1.081-1.493,1.854-2.266,2.472c-1.133,0.824-2.06,1.7-2.987,2.627
		c-0.823,0.566-1.802,1.493-2.162,2.06c0,0.258-0.052,0.412,0.103,0.412c1.442,0,5.511,0.309,6.694-1.391
		c0.361-0.463,0.824-0.927,0.876-0.927h0.36c0.412,0,4.635,1.751,4.532,2.832c0,0.36-1.082,1.648-1.854,2.163
		c0,0.412-0.309,2.884-0.309,3.399c-0.154,1.854,0.412,4.429,0.412,5.098c0,0.516-0.618,0.876-0.927,0.772
		c-0.412,0-4.326-0.463-4.738-0.463h-0.309c-0.206,0-0.928,0.154-1.134,0.154h-7.725c-0.566,0.309-0.979,0.36-1.545,0.36
		c-0.36,0-0.824-0.052-1.235-0.052c-0.206,0-0.824,0.155-0.928,0.155h-2.214c-0.154,0-0.927,0.309-1.082,0.309
		c-2.523,0-2.472,1.03-2.472,2.317c0,1.236,0.206,2.472,0.31,3.862c0.411,4.223,5.252,4.326,9.578,4.326
		c1.185,0,2.421-0.31,3.708-0.31c1.339,0,3.914-0.103,3.914-0.103c2.369-0.258,4.583-0.824,7.004-1.751
		c1.235-0.412,3.09-0.618,3.811-1.545c0.618-0.772,1.442-2.009,1.751-2.936c0.154-0.464,0.154-1.391,0.927-1.391
		c0.154,1.699,0.618,3.244,1.082,4.841c0,1.545,1.854,2.523,1.854,4.018c0,1.956-2.266,2.06-3.862,2.472
		c-0.154,0-0.772,0.309-0.927,0.309c-1.442,0-1.699,0.206-2.678,0.412c-1.957,0.515-4.018,0.824-5.975,0.927
		c-0.154,0-2.368,0.206-3.707,0.206c-1.391,0-2.473,0.31-3.914,0.31c-0.876,0.103-1.339-0.206-2.061-0.206
		c-1.647-0.104-3.09-0.104-4.943-0.104C279.732,138.079,277.879,137.771,276.179,137.771z M274.325,111.352h3.244
		c0.31-0.206,0.566-0.206,0.772-0.206h0.67c0.412,0,3.09-0.103,3.502-0.103c0.823-0.206,0.823-0.824,0.823-1.442
		s0-1.081-0.206-1.545c-0.103-0.618-0.927-1.235-0.927-2.009c0-0.566,3.708-0.566,4.841-0.927c0.258-0.103,3.708-2.729,3.708-4.017
		c-0.206-0.772-0.927-0.772-1.545-0.772s-0.927,0-1.545,0.154h-5.562c-0.206,0-0.824-0.154-0.927-0.154
		c-0.824,0-1.803-0.052-2.523,0.618c-0.155,0.154-1.236,1.391-1.391,1.699c-1.082,1.699-1.905,2.832-3.09,4.017
		c0.103,0-0.928,0.979-0.928,1.545c-0.154,0.464-0.463,0.618-0.463,1.236C272.78,110.219,273.965,111.094,274.325,111.352z
		 M279.732,119.386c2.369-0.206,2.369-2.061,2.472-3.914c-0.051-1.339,0.258-2.266-1.339-2.266c-0.206,0-0.927,0.103-1.133,0.103
		c-2.472,0.258-5.099,0.052-5.099,4.532C274.634,119.952,278.754,119.386,279.732,119.386z M288.075,118.87
		c3.398,0,5.149,0.772,5.149-4.017c0-2.575-0.566-1.905-2.162-2.472h-3.09c-1.236,0-1.134,3.09-1.134,3.914
		C286.839,117.017,286.633,118.458,288.075,118.87z"/>
	<path fill="#FF0019" d="M346.73,133.032c0.309-0.103,1.081-0.103,1.236-0.618c0-0.515,2.111-4.017,2.008-6.488
		c0-0.104,0.618-2.06,0.928-2.781c0-0.515-0.206-3.038,0.772-3.708c-0.052-0.309-0.052-0.617-0.052-0.927
		c0-1.802,0.36-3.656,0.36-5.459v-0.617l0.154-0.31v-2.008c0-0.618,0.464-1.236,0.464-2.061c0-1.545-0.464-1.854-1.854-1.854
		c-1.029,0-1.029,0.206-1.699,0.206c-2.009,0.103-4.687,0.309-6.694,0.927l-0.31-0.206c-0.875-0.258-1.493,1.391-1.854,1.854
		c-0.566,1.082-1.545,2.523-2.267,3.296c-1.133,1.854-2.78,3.862-4.325,5.253v2.317c0,0.618-0.31,0.824-0.31,1.545
		c0,1.134,0.104,2.369,0.104,3.605c0,0.309-0.104,0.618-0.104,0.927c0,0.412,0.104,0.927,0.31,1.236v2.78
		c0,0.412-0.618,0.722-0.31,1.442c0.052-0.206-1.905,2.78-3.604,2.78c-0.618,0-1.236-0.617-1.236-1.133
		c0-0.412,0.155-0.721,0.155-1.029c0-1.545-0.155-2.679-1.854-2.679c-0.772,0-1.391,0.206-2.163,0.31
		c-1.545,0.309-3.398,0-4.943,0.515c-0.412,0.31-0.464,0.721-0.464,1.133v0.618c0,1.957-1.081,3.296-2.626,3.296
		c-0.722,0-1.391-1.854-1.236-2.472c0-0.104,0.309-1.339,0.309-1.545v-1.339c0-0.31,0.31-2.884,0.31-3.193
		c0-1.854-0.206-7.312-0.206-8.497c0-0.618,0-0.927,0.206-1.699c-0.206-0.772-0.515-4.326-0.515-5.099
		c0-1.905,0.309-4.943-0.722-6.694c0-0.104-0.618-0.618-0.618-0.722v-0.309c0-0.052,0.516-1.185,1.957-1.545l0.516,0.412
		c2.832,0,4.223-3.45,5.87-5.407c1.134-0.206,1.391-2.575,1.391-2.781c0-1.133-0.927-1.699-0.927-2.163l0.309-0.309
		c0.928,0,2.627-0.618,2.627-0.618c1.236,0,2.163,0.206,2.163,1.081c0.515,0.566,2.884,2.112,2.523,2.163
		c0,0.618-1.288,0.927-1.442,1.545l-1.391,0.772c-1.647,1.545-2.936,3.142-4.789,4.378c-1.699,1.081-2.472,2.472-4.017,2.472
		c0,0.412-0.052,1.236,0.154,1.339h2.626c0.155-0.103,0.31-0.103,0.464-0.103s0.309,0,0.464,0.103
		c0.927-0.927,3.347-0.669,4.48-1.03c1.029-0.36,2.368-3.09,3.862-3.09l2.678,1.957c0.103,0.516,0.721,0.824,0.721,1.236
		c0,1.545-1.236,2.678-1.236,4.223c0,1.03-0.051,2.111,0.31,3.09c0.052,1.339-0.31,2.627-0.31,4.172
		c0.258,0.154,0.516-0.104,0.824-0.31c0.772-0.052,0.927-1.235,1.339-1.391c0.052-1.081,0.824-1.751,1.236-2.78
		c0.309-0.618,0.515-1.236,0.824-1.854c-0.206-0.206,0.617-0.669,0.617-1.133c1.03-1.803,1.906-3.862,2.267-6.18
		c0.463-1.957,1.751-4.068,1.751-6.334c0-0.876-0.618-2.627-1.236-2.627c0-0.618,0.566-0.772,1.236-0.772
		c0.103-0.154,0.36-0.463,0.412-0.309c0.206,0,1.133-0.618,1.287-0.618c2.163-0.154,3.656,1.133,4.789,2.781
		c0,0,0.154,0.309,0.154,0.463c0,1.236-1.699,0.772-1.699,2.009l0.154,0.309c0,1.957-2.935,4.429-2.935,5.613
		c0,0.412-1.082,0.772-1.082,1.648c0,0.618,0.464,1.441,1.082,1.441c1.802-0.257,5.819-0.463,6.334-0.823
		c1.081,0.463,1.803-0.928,2.317-1.648c0.154-0.206,1.236-1.235,1.391-1.441c1.441-0.258,1.647,1.235,2.472,1.854
		c1.236,0.927,2.163,0.979,2.163,2.163c0,0.927-1.236,1.545-1.854,2.163c0,1.081-0.411,2.111-0.411,2.678
		c-0.258,0.721-0.31,1.391-0.31,2.111v2.06c0,0.31-0.515,2.163-0.515,2.473c0,0.309-0.104,2.162-0.104,2.472
		c0,0.309-0.669,2.781-0.669,3.09v0.206c0,0.103-0.618,1.647-0.618,1.854c-0.309,0.928-0.206,1.648-0.309,2.575
		c-0.155,0.927-0.516,1.751-0.772,2.678c-0.618,2.215-0.772,5.562-4.636,5.562c-0.309,0.979-0.978,1.029-1.699,1.545
		c-0.669,0.411-0.875,0.823-1.699,0.823c-1.339,0-1.597-2.986-2.472-2.986c-0.36-0.31-1.082-0.104-1.082-0.927
		C343.332,133.96,345.031,133.856,346.73,133.032z M318.87,112.588c0,1.699,0,3.862,1.235,3.862c1.391,0,2.523-0.154,3.862-0.464
		c1.597-0.309,2.163-1.854,2.318-1.854c0.669,0,1.235,1.493,2.317,1.493c0.154,0,0.309-0.103,0.309-0.258
		c0-1.545-0.154-2.678-0.154-3.244c-0.258-2.317,0.154-6.54-1.545-6.54c-0.618,0-1.545,0.309-2.163,0.309
		c-2.009,0.206-6.489,0.052-6.489,2.473C318.716,109.807,318.87,111.815,318.87,112.588z M319.643,128.191
		c0.772,0,1.545-0.103,2.163-0.309l4.635-0.31c0.309-0.103,0.772-0.309,1.081-0.309c1.545-0.309,1.236-1.03,1.391-2.472
		c0-0.104,0.154-0.927,0.154-1.03c0-1.751,0.154-2.163,0.154-4.326c0-0.823-0.103-1.802-0.617-1.905
		c-0.31,0-1.185-0.154-1.082-0.309c-0.721,0.772-8.909,0.875-8.909,1.699s0.258,1.133,0.258,1.751c0,1.236,0.154,2.215,0.154,3.399
		c0,0.721,0.103,2.523-0.464,3.707C318.716,128.191,319.333,128.191,319.643,128.191z M341.941,115.06
		c2.884,2.884,4.893,3.193,5.407,5.305c-0.31,0.309-0.464,0.412-0.772,0.927c-0.515,0.309-2.317,2.06-2.317,1.545
		c-0.206,0-1.288-0.979-1.288-1.442c-0.154,0-0.669-2.574-1.235-3.553c-0.154-0.979-1.391-2.061-1.339-2.473
		C340.396,114.905,341.375,115.06,341.941,115.06z M353.374,119.746v-1.442c-0.31,0-0.31,0.154-0.31,0.464
		C353.064,118.922,353.064,119.746,353.374,119.746z"/>
	<path fill="#0080FF" d="M368.152,140.036c0.412-0.412,1.339-0.824,2.111-0.824h0.258c0.464-0.103,2.472-1.029,2.936-1.235
		c0.669,0,0.927-1.03,1.391-1.03c0.154-0.206,1.699-0.618,1.854-0.824c2.627-0.927,2.575-1.802,3.399-1.647
		c0.206,0.103,0.927-0.927,1.699-0.927c0.875-0.928,2.678-0.876,2.472-2.679c0.206-0.36-0.721-1.029-0.721-1.75
		c-0.31-0.618-1.391-2.885-2.009-2.885c-0.515,0-1.905,1.339-2.369,1.854c-2.472,2.369-5.047,4.687-7.725,6.488
		c-0.721,0.412-1.081,0.928-1.699,1.442c-1.545,0.309-2.472,1.647-3.862,1.647c0-0.617,1.545-1.545,2.163-1.956
		c1.287-1.957,4.737-3.914,4.943-4.944l2.317-2.369c0.464-1.235,1.082-2.163,1.854-3.09c1.905-1.803,2.163-3.296,2.163-4.841
		c1.39,0,1.545,0.618,2.472,1.133c0.206,0.104,2.06,0.928,2.163,1.03c0.617,0.515,0.927,1.236,1.854,1.236
		c0.618,0,1.236-0.104,1.854-0.104c0.515,0,0.927,0.104,1.545,0.104c0.823,0,1.545-0.31,2.368-0.31h2.473
		c1.545-0.309,2.214-1.957,3.09-1.957c1.647,0,3.502,1.545,4.171,3.193c0,0.772-1.287,1.545-1.545,1.545
		c-1.545,0-2.214,1.235-3.244,2.06c-0.154,0-1.854,1.03-2.678,1.854c-0.722,0.515-1.339,1.133-1.854,1.854
		c0,0.309,0.31,0.309,0.31,0.618c0.309,0.515,2.832,1.133,3.45,1.236c0.154,0,1.699,0.617,1.854,0.617
		c2.781,0,2.267,0.618,4.944,0.618c-0.67,0.258,3.038,0.31,4.325,0.31h0.772c0.31,0,0.618,0,0.979,0.206
		c0.104,0.617-1.133,0.617-1.441,0.721c-1.699,0.412-2.061,0.669-4.172,2.78c-0.36,0.928-0.979,0.928-1.854,0.928
		c-0.258,0.257-0.67-0.31-1.081-0.31c-1.34,0-3.245-1.647-4.636-1.647c-1.235-0.516-2.626-1.236-3.862-2.061
		c-0.617,0-1.081-0.927-1.751-0.927c-0.979,0-1.39-0.618-2.162-0.618c-0.155-0.051-1.906,0.31-2.781,0.618
		c-1.185,0.36-2.421,1.545-3.554,1.545c-0.566,0-1.185,0.824-1.699,0.824c0.052-0.258-1.339,0.618-2.317,0.618l-3.399,1.029
		c-0.927,0.258-2.008,0.31-2.935,0.618c0.36,0-1.7,0.618-2.627,0.618c-0.875,0.566-1.647,0.515-2.472,0.515
		c-0.464,0-0.824,0.052-0.824-0.309C365.062,140.396,366.968,140.036,368.152,140.036z M367.123,113.823
		c0.103-0.309,0.721-1.545,0.927-1.854c0.412-1.545,0.515-2.009,1.751-2.009h0.721c0.721,0,2.781-0.103,2.781,1.236
		c0,1.699-3.399,4.171-5.15,4.171c-0.618,0-1.029-0.772-1.029-1.39V113.823z M370.213,106.408c0-0.566,0.309-3.708,1.081-3.708
		c1.442,0.772,2.317,1.235,4.017,1.235c0.154-0.206,0.927-0.515,0.927-0.515c0.155-0.103,0.618-0.618,0.618-0.618v-5.407h0.31
		c0.36,0.515,1.287,1.339,1.391,1.236c1.287,1.957,2.214,2.214,2.626,3.553c-0.258,1.391,1.442,1.545,2.369,1.545
		c0.309,0,1.545-0.309,1.545-0.927v-2.266c0.463-1.287-0.206-4.841,1.235-4.687c-0.154,0,2.473,2.936,3.399,4.172
		c0.154,1.545-0.618,1.133-0.618,1.235c0,0.31,0.052,1.545,0.104,1.545l0.205,0.206c0.876,0.052,1.957-0.052,2.781-0.618
		c1.545-1.596,3.399-3.45,3.399-5.613c0-0.463-0.31-0.617-0.31-1.081c-0.515-0.154,0.979-0.31,1.391-0.31
		c0.515,0,1.185,0.155,1.854,0.31c1.236,0,1.134,1.081,1.7,1.081c0.051-0.257,1.029,1.082,1.699,1.545
		c0.206,1.133-1.905,2.317-2.317,2.317c-0.772,0.31-2.472,0.516-2.472,1.751c0,0.566,1.802,0.412,2.162,0.412
		c0.31,0,2.163-0.103,4.48-0.103c0.155,0.052,1.185-1.133,1.545-1.133c0.155,0,1.236,0.617,1.545,0.823
		c1.751,1.03,3.914,1.339,3.914,3.812c0,1.545-1.854,1.854-2.986,1.854c-1.545,0-2.781,0.206-4.12,0.206
		c-0.36,0-0.566-0.052-0.515-0.824c0-0.309,0.309-1.854,0.463-2.163c-0.309-1.029-1.699-1.029-2.472-1.029
		c-0.927,0-1.699,0.103-2.627,0.103c-0.051,0.052-0.463-0.051-0.772-0.103c-0.669-0.206-2.214,0.309-4.223,0.309
		c-1.905,0-4.789,0.104-5.355,0.104c-1.442,0.206-2.678,0-4.017,0.309h-9.477c-0.617,0-1.235,0.309-1.235,0.927
		c0,0.154,0.309,1.391,0.309,2.369c-0.36,0.36,0.258,1.391-1.235,1.391h-0.155c-0.257,0-3.09-0.052-3.09-0.979
		S369.646,107.129,370.213,106.408z M372.53,94.151c0.515,0,2.78-0.36,2.935-0.31c0.155,0,1.545-0.309,1.7-0.309h1.854
		c0.154,0,0.772-0.464,0.927-0.464c0.566,0,0.516,0.052,0.772,0.155c0-0.155,1.391-0.412,2.009-0.772
		c0.154,0.206,1.391-0.31,2.163-0.31c3.142,0.154,4.635-1.235,6.488-1.235c-0.257,0,3.914-0.464,3.914-1.082V88.28l0.154-0.154
		c2.987-0.206,4.43,1.854,5.562,2.936c0.154,0.979-0.516,0.927-1.082,0.927c-0.154,0-1.545,0.464-1.699,0.464
		c-2.163,0.36-3.914,0.463-5.922,0.617c-1.236,0-4.944,0.618-6.181,0.618c-0.103,0-1.545,0.618-1.647,0.618
		c-0.206,0-0.464-0.103-0.618-0.154c-0.154,0-0.566,0.052-0.824,0.154c-0.411-0.103-2.266,0.154-2.472-0.154
		c-1.545,0.258-2.523,0.824-3.862,0.824c-0.258,0-0.515,0-0.772-0.052c-0.154,0.463-0.927,0.463-1.236,0.463
		c-0.772-0.103-2.626,0.464-2.626-0.772C372.066,94.46,372.221,94.151,372.53,94.151z M373.611,115.523
		c0-1.391,0.464-3.193,1.391-4.172c0.309,0,1.699,2.884,1.699,4.017c0,1.648-0.772,4.326-2.781,4.326
		c-0.772,0-1.699-0.464-1.699-1.236C372.221,117.171,373.766,116.553,373.611,115.523z M379.328,110.889
		c0.154-0.104-0.155-0.361-0.31-0.618c0-1.236-1.081-1.957-1.081-2.627c0-0.463,0.36-0.309,0.772-0.309
		c0.309-0.258,1.493,0.721,2.78,0.721c0.31,0.515,0.516,1.288,0.516,1.905c0,0.772-1.288,1.082-1.288,1.236
		c0,0.464,0.928,0.618,1.288,1.236c0.309,0.927,0.051,2.06,0.721,2.935c0.927,1.288,5.613,1.494,8.085,1.494
		c0.876,0,1.7-0.206,1.7-1.339c0.154-0.155-0.31-0.824-0.31-1.236c0-2.163-0.309-4.017-0.309-6.025c0.463,0,0.772,1.287,1.235,1.854
		c0.412,0.772,0.928,1.545,1.391,2.317c0.31,0.463,0.154,0.927,0.464,1.235c0.412,0.721,1.647,2.317,2.163,2.317
		c0.617,0.464,1.39,0.464,1.39,1.236c0,1.905-1.854,1.699-3.553,1.699c-2.421,0-3.76,0.154-7.107,0.154
		c-0.205,0-1.854,0.31-2.06,0.31c0-0.155-2.472,0.309-2.575-0.31c-0.206,0-0.463,0.104-0.617,0.31c-2.112,0-2.369-3.296-2.833-4.79
		c-0.258-0.103-0.618-1.957-0.618-2.935C379.173,111.506,379.328,111.197,379.328,110.889z M387.361,129.736
		c1.236,0,2.06-1.029,2.987-1.647c0.618-0.979,2.163-0.876,2.163-2.369c0-0.309-0.31-0.721-0.618-0.721l-3.399-0.206
		c-0.206,0-0.515,0.206-0.618,0.206c-3.965,0-4.943,0.206-4.943,0.927C382.933,126.956,385.147,129.736,387.361,129.736z
		 M384.271,105.893c0.515,0.31,2.781,2.163,3.296,2.473c0.772,0.566,2.009,1.235,1.854,2.368c-1.235,2.215-1.75,2.627-2.368,2.627
		c-0.722,0-1.391-0.154-1.391-1.03c0-0.258,0.052-0.515,0.052-0.669c0-1.751-0.67-2.421-0.928-3.708
		c0.052-0.824-0.515-0.979-0.515-1.854V105.893z M396.837,108.57c-0.463-0.515-0.927-0.823-0.927-1.441
		c0.464,0,0.618,0.309,0.927,0.618c0.36-0.104,0.772,0.618,1.236,0.618c1.493,0.617,2.42,0.875,3.708,1.596
		c1.287,0.772,3.09,0.824,2.936,3.09c0-0.103-1.288,1.545-2.163,1.545c-2.781,0-3.862-2.78-4.79-4.943
		C397.301,109.344,397.301,108.982,396.837,108.57z"/>
	<path fill="#FFCE00" d="M443.545,128.501c-2.009,0-2.009,0.515-5.407,0.515c-0.67,0-1.082,0.412-2.163,0.412
		c-1.081,0.206-1.081-0.772-1.081-1.545c0-0.31,0-0.618,0.463-0.618c0.464,0,1.082,0.206,1.545,0.206
		c0.618,0,1.082-0.309,1.545-0.309c0.772-0.206,1.699-0.206,2.472-0.206c0.464,0,0.928,0.206,1.391,0.206
		c0.464,0,1.236-0.31,1.7-0.618c0.154-1.494,0.205-2.627,0.205-3.862c0-0.052-0.566-0.979-0.823-0.979
		c-0.618,0-1.082,0.309-1.545,0.309c-0.772,0.154-1.391,0.154-2.009,0.154c-1.081,0-1.391-1.081-2.163-1.699
		c-0.154-0.154-1.235-0.927-1.391-1.081c-1.081-0.104-0.721,0.154-1.39,0.927c-0.618,0-1.648,3.142-2.987,4.171
		c0.309,0.31,0,0.928,0.618,0.928c0.309,0,0.309-0.31,0.618-0.31l0.36,0.464c0.875,0.052,1.493-0.464,2.317-0.464
		c0.463,0,0.772,0.464,0.772,0.927c0,0.772-1.185,0.928-2.472,0.928c-0.928,0-2.215,0.927-2.627,0.927
		c-0.824,0.309-1.441,0.206-2.163,0.515c-0.515,0.31-1.133,0.412-1.751,0.412c-0.721,0-2.369,0.824-3.398,0.927
		c-0.206-0.412-1.133,0.618-1.648,0.618c-0.412-0.052-2.163,0.772-3.296,1.442c-0.823,0.051-1.029-0.155-1.235-0.928
		c0-0.669-1.236-1.133-1.236-1.854c0-0.824,3.348-1.133,4.841-1.442c0.412-0.103,0.721-0.411,1.236-0.411
		c0.463,0,1.029,0.103,1.545-0.31c1.235,0,1.339,0.721,1.854,0.721c0.31,0,0.721-0.411,0.721-0.721c0-2.626,0.31-4.635,0.31-6.849
		c0-2.009-0.104-2.575-0.104-3.863v-0.463c0-0.464-0.103-0.824-0.515-1.082c-1.442,0-1.905,0.258-2.884,0.618
		c-0.927,0.36-2.266,0.31-3.193,0.31c-0.617,0-1.029-0.155-1.029-0.772c0-0.31,0-0.516,0.309-0.618c1.03,0,1.597-0.618,3.708-0.618
		c2.266-0.772,2.575,0,3.09-2.06c0.104-0.258,0.258-0.516,0.206-0.722c0-0.515-0.772-1.493-0.618-1.751
		c-0.309-0.412-1.545-0.412-1.545-1.339c-0.154,0,0.104-0.618,0.412-0.618h0.721c1.854,0,3.554-0.411,5.356-0.823
		c1.596-0.67,1.751-0.258,3.244-0.928c0.824-0.051,1.854,0.722,1.854,1.546c0,0.205-0.154,0.617-0.309,0.617h-3.862
		c-0.154,0.104-1.751,0.618-1.751,1.236c0,0.309,0.309,3.09,0.927,3.296c1.597,0.36,1.133-1.442,2.215-1.442
		c1.133,0.876,2.163,0.928,2.163,2.369c0,0,0,0.31-0.155,0.31c-1.39,0.411-2.986,0-4.325,0.411c-0.31-0.103-0.824-0.411-0.928-0.617
		c-0.257,0.257-0.411,0.36-0.309,0.617c0.515,1.134,0.721,1.288,0.721,2.215c0,0.206-0.103,1.442-0.103,2.009
		c-0.412,0.36-0.566,0.669-0.515,1.235c0,0.154,0.515,1.236,0.515,1.391c0,0.876-0.258,2.472,0.618,2.472
		c0.412,0,0.721-0.617,0.721-0.927c0-1.03,0.515-1.391,0.515-2.936c0-0.154,0.412-0.927,0.412-1.081c0-0.36-0.309-2.472,0.67-2.472
		c0.772,0,1.081,0.617,1.545,1.081c0.927,0.772,2.472,1.391,2.936,2.626c0,0.155,0,0.618,0.309,0.773
		c1.081,0,2.009,0.154,3.09,0.154c1.699,0,2.369-0.258,2.627-1.082v-2.163c0-0.463-1.082-0.617-1.545-0.617
		c-0.876,0.309-1.391,0.309-2.163,0.309c-0.464,0-2.009-0.618-2.009-1.081c0-0.155,0.309-0.31,0.464-0.31h1.854
		c0.258,0,0.67-0.772,0.927-0.618h1.854l0.309-0.463v-2.472c0-0.516-0.309-0.928-0.772-0.928c-0.618,0-2.781,1.442-4.017,2.267
		c-0.927,0.617-1.545,1.596-2.781,1.596v-0.463c0.31-0.206,1.648-2.061,2.317-2.061c1.236-0.927,1.854-1.956,2.936-3.09
		c1.287-0.875,2.936-2.78,2.936-3.811c0-1.081-0.721-3.502-1.699-3.502c-0.772,0-2.163,1.751-2.781,2.369
		c-0.154,0.206-0.772,0.618-0.927,0.824c-0.618,0.617-0.927,1.235-1.854,1.235c0-0.824,0.31-0.875,0.31-2.06
		c-0.721,0-1.957,0.566-2.317,0.618c-2.163,0.257-1.699-1.854-2.523-2.679c0,0.618-0.31-3.192-1.545-2.884
		c-1.905,0.824-1.648,2.163-4.326,4.841c0,0-0.412,0.618-0.618,0.722c-0.257,0.36-2.678,3.398-3.192,3.398h-0.516
		c-1.029-0.052-0.875,1.236-1.339,1.854c-1.081,1.287-2.369,1.545-3.296,2.986c-1.339,1.288-2.163,1.288-3.09,2.009
		c-0.515,0.309-1.133,1.235-1.751,1.235c-0.412,0-0.309-0.36-0.309-0.772c1.647-1.956,2.008-1.699,3.09-2.78
		c0.618,0.051,0.927-0.618,1.751-1.442c0.927-0.927,2.781-3.296,4.532-4.737c0.103-0.824,0.617-1.442,1.029-2.061
		c0.206-0.103,0.824-1.339,0.927-1.545c0.979-0.824,1.288-1.905,1.854-3.09c0.824-1.751,1.751-2.986,1.751-5.149
		c0-0.722-0.927-1.236-0.927-1.957c0-0.824,3.398-1.442,4.119-1.442c0.824,0,1.133,0.824,1.751,1.236
		c0.722,0.618,2.163,1.133,2.163,2.369c0,0.927-1.235,0.617-1.751,1.235c-0.206,0.36-0.36,0.722-0.618,0.928
		c-0.103,1.802,2.575,2.162,3.296,2.574c0.155,0.206,1.082,1.133,1.391,1.442c0.36-0.104,0.36,1.287,0.927,1.647
		c0.618,0.104,0.464-0.36,0.618-0.721c0.258-0.618,1.545-0.618,1.545-2.472c0.618-1.442,0.979-2.884,0.979-4.378
		c0-0.36-0.052-0.669-0.052-1.081c0.618-0.618,1.236-1.03,2.163-1.03c0.928,0,3.09,1.133,3.09,2.575
		c0,0.515-0.411,0.824-0.411,1.236c0,0.772,1.956,0.515,1.956,1.545c-0.051,0.257-0.617,0.515-0.617,0.515
		c-0.772,0-2.523-0.104-2.523,0.566c0,0.979,0.721,2.884,1.905,3.45c0.824,0,1.854-2.163,2.163-2.678
		c0-0.103,0.617-0.618,0.617-0.721c0.206-0.927-1.235-0.876-1.235-1.442c0-0.721,0.927-0.618,1.441-0.721
		c0.876,0,1.288-0.979,2.163-1.545c0.979-1.493,1.494-1.236,1.648-1.236c1.699,1.288,3.604,2.781,3.604,3.812
		c0,0.515,0,0.515-0.206,0.823c-1.597,0.31-1.647,1.339-2.472,1.957c-1.081,0.927-4.017,3.245-4.017,4.12
		c0,0.618,2.06,1.545,2.06,1.545c1.081,0,2.009,0.824,3.09,1.03c0.772,0,0.979,0.618,2.575,0.618c0.206,0,1.905,0.617,2.06,0.617
		c0.772,0,1.545,0.618,2.317,0.618c-0.103,0,3.862-0.052,3.862,0.927c0,0.824-1.287,0.722-2.008,1.134
		c-1.7,0.411-2.473,1.545-3.862,2.78h-0.464c-0.721,0-2.832-1.751-3.76-1.751c-0.103,0-1.029-0.927-1.235-0.927
		c-0.566-0.052-1.391-0.412-1.854-0.721c-0.103,0-0.617-0.824-0.721-0.824c-0.052,0.258-1.236-0.979-1.751-1.545
		c0.154,0.103-1.287-1.648-2.266-1.648c-0.876,0.155-2.729,1.03-2.369,2.267c0,0.515,2.472,0.927,2.472,1.854
		c0,0.31-0.103,0.516-0.103,0.618v0.206c0.309,0.154,0,1.751,0.618,2.163c0.617,0.103,1.029,0.103,1.545,0.103
		c1.235,0,0.721-1.854,1.545-1.854c0.617,0,0.927,0.618,1.235,0.927c0.412,0.309,1.03,0.618,1.03,1.287
		c0,0.464-0.721,0.618-1.545,0.618c-1.185,0-4.429,0-4.429,1.699c0,0.928,0.103,2.473,1.339,2.473c0.566,0,1.235-0.104,1.441-0.155
		c0.722,0,0.979-1.854,1.648-1.854c0.154,0,3.296,0.876,3.296,2.317c0,1.082-2.729,0.927-4.223,0.927
		c-0.206,0.052-3.399,0.206-3.399,1.236c0,0.515,0.31,0.515,0.31,3.554c0,0.515,1.596,0.927,2.368,0.927
		c0.876,0,1.803-0.36,2.575-0.618c0.31-0.309,2.215-2.832,2.215-2.832c1.493,0,2.729,0.979,3.708,1.905
		c1.081,0.463,1.081,1.235,1.081,1.854c0,0.67-0.67,0.824-1.545,0.824c-0.154,0-1.442-0.206-1.545-0.206
		c-1.905-0.103-2.472,0.309-6.386,0.309c-0.67,0-1.493,0.516-2.266,0.516l-0.206,0.103c0,0.618,0.051,1.751-0.104,1.751
		c0,0.979,0.104,1.905,0.104,2.884c0,0.928-0.104,1.082-0.104,1.751v0.67c0,0.515-0.515,1.185-1.133,1.803v0.103
		c0,0.566-0.979,0.824-1.339,0.824c-0.67,0-0.67-1.236-0.979-1.751C445.09,136.122,445.811,128.501,443.545,128.501z
		 M421.298,123.557c0-0.669,0.051-1.493,0.618-2.008v-2.936c0-0.155,0.103-0.464,0.309-0.464c1.081,0,1.081,1.905,2.163,2.936
		c0,0.154,0.618,0.772,0.618,0.927c0.103,0.31,0.103,1.236,0.103,1.699c0,0.722-0.618,0.824-0.618,1.236
		c-0.721,0.927-1.235,1.905-2.472,1.905c-1.03,0-1.236-0.36-1.236-1.597C420.782,124.793,421.092,124.175,421.298,123.557z"/>
</g>
<g>
	<g>
		<path fill="#040000" d="M31.745,20.62c0.242-0.982,0.662-1.871,1.21-2.652c-1.22-0.892-2.628-1.57-4.186-1.953
			c-6.396-1.573-12.856,2.336-14.429,8.732s2.336,12.856,8.732,14.429c6.396,1.573,12.856-2.336,14.429-8.732
			c0.019-0.075,0.027-0.151,0.044-0.226C33.295,29.166,30.699,24.872,31.745,20.62z"/>
		<path fill="#040000" d="M33.702,7.436c-1.931,0.072-3.843,0.822-5.317,2.297s-2.225,3.386-2.297,5.317
			c1.931-0.072,3.843-0.822,5.317-2.297C32.88,11.279,33.63,9.367,33.702,7.436z"/>
	</g>
</g>
<g>
</g>
<g>
</g>
<g>
</g>
<g>
</g>
<g>
</g>
<g>
</g>
<g>
</g>
<g>
</g>
<g>
</g>
<g>
</g>
<g>
</g>
<g>
</g>
<g>
</g>
<g>
</g>
<g>
</g>
</svg>
