<?xml version="1.0" encoding="utf-8"?>
<!-- Generator: Adobe Illustrator 17.0.0, SVG Export Plug-In . SVG Version: 6.00 Build 0)  -->
<!DOCTYPE svg PUBLIC "-//W3C//DTD SVG 1.1//EN" "http://www.w3.org/Graphics/SVG/1.1/DTD/svg11.dtd">
<svg version="1.1" id="图层_1" xmlns="http://www.w3.org/2000/svg" xmlns:xlink="http://www.w3.org/1999/xlink" x="0px" y="0px"
	 width="480px" height="150px" viewBox="0 0 480 150" enable-background="new 0 0 480 150" xml:space="preserve">
<rect x="-19" y="-17" fill="#F7F7F7" width="518" height="185"/>
<g display="none">
	
		<image display="inline" overflow="visible" width="30" height="30" id="耳机框_xA0_图像" xlink:href="D0580BB919AC3FB.png"  transform="matrix(2.7018 0 0 2.7018 177.0526 65.4386)">
	</image>
	
		<image display="inline" overflow="visible" width="25" height="25" id="框内文理_xA0_图像" xlink:href="D0580BB919AC3F9.png"  transform="matrix(2.7018 0 0 2.7018 185.1579 73.5439)">
	</image>
	
		<image display="inline" overflow="visible" width="26" height="26" id="金属质感圈_xA0_图像" xlink:href="D0580BB919AC3FF.png"  transform="matrix(2.7018 0 0 2.7018 182.4561 70.8421)">
	</image>
	
		<image display="inline" overflow="visible" width="71" height="50" id="耳机线_xA0_图像" xlink:href="D0580BB919AC3F8.png"  transform="matrix(2.7018 0 0 2.7018 204.0702 122.1754)">
	</image>
	
		<image display="inline" overflow="visible" width="14" height="14" id="内圈_黑_xA0_图像" xlink:href="D0580BB919AC3F6.png"  transform="matrix(2.7018 0 0 2.7018 198.6667 87.0526)">
	</image>
	
		<image display="inline" overflow="visible" width="18" height="6" id="头垫_xA0_图像" xlink:href="D0580BB919AC3F7.png"  transform="matrix(2.7018 0 0 2.7018 193.2632 43.8246)">
	</image>
	
		<image display="inline" overflow="visible" width="54" height="31" id="头梁_xA0_图像" xlink:href="D0580BB919AC407.png"  transform="matrix(2.7018 0 0 2.7018 85.193 6)">
	</image>
	
		<image display="inline" overflow="visible" width="12" height="7" id="护板夹拖_xA0_图像" xlink:href="D0580BB919AC409.png"  transform="matrix(2.7018 0 0 2.7018 201.3684 62.7368)">
	</image>
	
		<image display="inline" overflow="visible" width="2" height="9" id="AKG_图标_xA0_图像" xlink:href="D0580BB919AC40B.png"  transform="matrix(2.7018 0 0 2.7018 214.8772 57.3333)">
	</image>
	
		<image display="inline" overflow="visible" width="10" height="10" id="耳机内圈_xA0_图像" xlink:href="E1CB9B1C0B5E5358.png"  transform="matrix(2.7018 0 0 2.7018 204.0702 92.4561)">
	</image>
	
		<image display="inline" overflow="visible" width="11" height="21" id="iphone_5c_xA0_图像" xlink:href="E1CB9B1C0B5E535F.png"  transform="matrix(2.7018 0 0 2.7018 385.0877 257.2632)">
	</image>
</g>
<g>
	<circle fill="#C9C9C9" cx="125.579" cy="95.965" r="40.526"/>
	<circle fill="#FFFFFF" cx="125.579" cy="95.965" r="33.772"/>
	<path fill="#B7B7B7" d="M101,34c-1.908-4.111,50.187-4.033,49,0c-1.046,3.553-12,13.694-17.151,15.231
		C127.417,50.852,123,50.753,118,49S102.908,38.111,101,34z"/>
	<circle fill="#C9C9C9" cx="125.579" cy="95.965" r="31.419"/>
	<g>
		<rect x="113" y="7" fill="#D8D8D8" width="3" height="73"/>
		<rect x="135" y="7" fill="#D8D8D8" width="3" height="73"/>
	</g>
	<path fill="#E5E5E5" d="M119,124.652c0,0.488-0.802,1.348-1.29,1.348h-4.42c-0.488,0-1.29-0.86-1.29-1.348V108h7V124.652z"/>
	<g>
		<circle fill="#FFFFFF" cx="125.579" cy="95.965" r="17.225"/>
		<rect x="112" y="78" fill="#FFFFFF" width="5" height="8"/>
		<rect x="134" y="78" fill="#FFFFFF" width="5" height="8"/>
		<rect x="111" y="103" fill="#FFFFFF" width="9" height="14"/>
	</g>
	<circle fill="#D8D8D8" cx="125.579" cy="95.965" r="12.782"/>
	<g>
		<rect x="111" y="64" fill="#AAAAAA" width="29" height="4"/>
		<rect x="111" y="52" fill="#AAAAAA" width="29" height="4"/>
	</g>
	<path fill="#BFBFBF" d="M131,66.5c0,3.038-2.462,5.5-5.5,5.5l0,0c-3.038,0-5.5-2.462-5.5-5.5v-21c0-3.038,2.462-5.5,5.5-5.5
		s5.5,2.462,5.5,5.5V66.5z"/>
	<circle fill="#FFFFFF" cx="125.513" cy="45.36" r="4.004"/>
	<circle fill="#FFFFFF" cx="125.513" cy="66.36" r="4.004"/>
	<path fill="none" stroke="#E5E5E5" stroke-width="1.5" stroke-miterlimit="10" d="M115.5,123.149
		c-2.703,26.851,30.175,22.949,47.858,18.066c41.563-11.478,80.187-29.211,133.259-29.211c36.157,0,58.118,10.568,88.007,19.186
		c18.524,5.341,69.625,19.288,132.54-6.287"/>
</g>
<g>
	<g>
		<path fill="#8C8C8C" d="M207.331,87.776l-1.059-2.702l-8.786,0.088l-1.003,2.781c-0.393,1.085-0.729,1.818-1.011,2.199
			s-0.746,0.574-1.395,0.581c-0.551,0.005-1.039-0.191-1.466-0.59s-0.643-0.854-0.647-1.364c-0.003-0.295,0.043-0.6,0.139-0.915
			c0.095-0.315,0.253-0.755,0.474-1.317l5.388-14.089c0.153-0.403,0.338-0.889,0.554-1.457c0.216-0.566,0.446-1.039,0.693-1.414
			c0.247-0.376,0.573-0.682,0.979-0.917c0.406-0.235,0.908-0.355,1.508-0.361c0.609-0.006,1.119,0.104,1.529,0.331
			c0.41,0.228,0.742,0.522,0.996,0.883c0.255,0.361,0.47,0.75,0.646,1.166c0.177,0.417,0.4,0.972,0.673,1.666l5.784,13.889
			c0.452,1.057,0.682,1.826,0.687,2.308c0.005,0.502-0.2,0.963-0.613,1.386c-0.414,0.421-0.915,0.635-1.505,0.641
			c-0.344,0.003-0.64-0.056-0.886-0.175c-0.247-0.121-0.455-0.285-0.624-0.496c-0.17-0.209-0.353-0.531-0.548-0.967
			C207.64,88.493,207.471,88.108,207.331,87.776z M198.603,81.862l6.457-0.064l-3.346-8.885L198.603,81.862z"/>
		<path fill="#8C8C8C" d="M219.458,70.776l0.075,7.576l8.505-9.047c0.408-0.437,0.757-0.76,1.044-0.969
			c0.288-0.21,0.673-0.316,1.154-0.321c0.629-0.006,1.14,0.172,1.531,0.538c0.392,0.364,0.591,0.812,0.596,1.343
			c0.007,0.639-0.316,1.275-0.969,1.911l-5.271,5.094l6.22,8.725c0.438,0.605,0.768,1.135,0.988,1.59
			c0.222,0.455,0.334,0.898,0.338,1.331c0.005,0.481-0.18,0.901-0.555,1.259s-0.887,0.539-1.535,0.545
			c-0.609,0.007-1.107-0.118-1.493-0.375s-0.714-0.6-0.983-1.03c-0.27-0.43-0.509-0.819-0.719-1.172l-5.253-7.909l-3.548,3.471
			l0.044,4.467c0.009,0.904-0.191,1.577-0.6,2.019c-0.408,0.44-0.937,0.665-1.585,0.671c-0.374,0.004-0.733-0.09-1.079-0.284
			c-0.346-0.192-0.614-0.455-0.804-0.788c-0.141-0.272-0.228-0.592-0.261-0.955c-0.032-0.363-0.053-0.89-0.06-1.577L215.08,70.82
			c-0.009-0.885,0.179-1.55,0.562-1.996c0.384-0.446,0.909-0.672,1.577-0.679c0.658-0.006,1.194,0.207,1.606,0.64
			C219.238,69.218,219.449,69.882,219.458,70.776z"/>
		<path fill="#8C8C8C" d="M255.736,80.956l0.041,4.143c0.005,0.551-0.043,0.99-0.149,1.321c-0.104,0.33-0.301,0.63-0.587,0.897
			c-0.288,0.269-0.657,0.527-1.105,0.777c-1.302,0.721-2.553,1.249-3.759,1.585c-1.206,0.337-2.521,0.512-3.945,0.525
			c-1.661,0.017-3.178-0.223-4.548-0.721c-1.372-0.497-2.543-1.229-3.516-2.191c-0.974-0.963-1.724-2.136-2.254-3.516
			c-0.529-1.381-0.803-2.926-0.82-4.636c-0.017-1.681,0.219-3.221,0.707-4.622c0.486-1.4,1.212-2.592,2.175-3.574
			c0.964-0.982,2.14-1.738,3.531-2.269c1.391-0.53,2.971-0.803,4.739-0.821c1.454-0.014,2.743,0.167,3.868,0.544
			c1.124,0.377,2.037,0.856,2.74,1.439c0.705,0.583,1.237,1.202,1.597,1.855c0.36,0.655,0.544,1.238,0.549,1.749
			c0.006,0.551-0.195,1.023-0.6,1.415c-0.402,0.393-0.891,0.591-1.461,0.597c-0.314,0.003-0.615-0.067-0.908-0.212
			c-0.29-0.145-0.536-0.349-0.735-0.612c-0.549-0.84-1.012-1.474-1.39-1.903c-0.378-0.428-0.885-0.788-1.521-1.075
			s-1.447-0.427-2.429-0.417c-1.013,0.01-1.915,0.193-2.708,0.548c-0.792,0.357-1.468,0.87-2.026,1.539
			c-0.559,0.67-0.984,1.487-1.274,2.454c-0.29,0.965-0.429,2.033-0.417,3.202c0.025,2.536,0.626,4.481,1.805,5.836
			c1.178,1.354,2.809,2.021,4.893,2c1.012-0.01,1.961-0.151,2.848-0.426s1.785-0.661,2.693-1.161l-0.035-3.509l-3.39,0.033
			c-0.816,0.008-1.434-0.108-1.854-0.351c-0.42-0.241-0.633-0.657-0.639-1.247c-0.005-0.481,0.165-0.88,0.512-1.198
			c0.345-0.318,0.817-0.479,1.417-0.485l4.967-0.05c0.609-0.006,1.126,0.043,1.551,0.146c0.423,0.104,0.768,0.341,1.03,0.712
			C255.594,79.65,255.729,80.209,255.736,80.956z"/>
	</g>
	<g>
		<path fill="#444444" d="M280.665,78.703l8.153-6.939c0.212-0.174,0.318-0.337,0.318-0.492c0-0.211-0.184-0.317-0.55-0.317
			c-0.154,0-0.26,0.01-0.317,0.028c-0.694,0.078-1.205,0.116-1.532,0.116c-0.694,0-1.041-0.337-1.041-1.012
			c0-0.637,0.414-0.954,1.243-0.954c0.443,0,0.838,0.02,1.186,0.058l1.532,0.173c0.674,0.078,1.186,0.116,1.532,0.116
			c0.693,0,1.551-0.077,2.573-0.231c0.521-0.077,0.905-0.115,1.156-0.115c0.732,0,1.099,0.327,1.099,0.982s-0.338,0.983-1.012,0.983
			c-0.058,0-0.154,0-0.289,0c-0.136,0-0.241,0-0.318,0c-0.097,0-0.241,0-0.434,0c-0.732,0-1.388,0.24-1.966,0.72l-5.465,4.552
			c-0.231,0.191-0.347,0.365-0.347,0.518c0,0.096,0.097,0.26,0.289,0.49l0.434,0.662l4.626,6.279
			c1.233,1.672,2.158,2.506,2.775,2.506c0.039,0,0.097-0.008,0.174-0.027c0.076,0,0.125,0,0.145,0
			c0.521-0.059,0.838-0.088,0.954-0.088c0.693,0,1.041,0.328,1.041,0.982c0,0.656-0.376,0.984-1.128,0.984l-1.445-0.174
			c-0.714-0.076-1.523-0.115-2.429-0.115c-1.041,0-2.13,0.057-3.268,0.174c-0.751,0.076-1.176,0.115-1.271,0.115
			c-0.714,0-1.07-0.314-1.07-0.941c0-0.684,0.376-1.025,1.128-1.025c0.212,0,0.511,0.018,0.896,0.049
			c0.752,0.064,1.186,0.096,1.301,0.096c0.463,0,0.694-0.096,0.694-0.289c0-0.135-0.087-0.318-0.261-0.549l-5.378-7.314
			c-0.115-0.154-0.222-0.232-0.317-0.232c-0.077,0-0.202,0.078-0.376,0.232l-3.036,2.66c-0.02,0.346-0.028,0.742-0.028,1.186
			c0,1.676,0.009,2.572,0.028,2.688c0.154,1.1,0.637,1.648,1.446,1.648c0.115,0,0.327-0.029,0.636-0.086
			c0.308-0.059,0.568-0.088,0.78-0.088c0.251,0,0.463,0.092,0.637,0.275c0.173,0.184,0.26,0.41,0.26,0.68
			c0,0.674-0.424,1.012-1.272,1.012c-0.038,0-0.105,0-0.202,0c-0.077-0.02-0.145-0.029-0.202-0.029l-1.619-0.23
			c-0.404-0.059-1.031-0.088-1.879-0.088c-0.617,0-1.128,0.029-1.532,0.088l-1.591,0.23c-0.039,0-0.097,0.01-0.173,0.029
			c-0.077,0-0.136,0-0.174,0c-0.867,0-1.301-0.342-1.301-1.027c0-0.627,0.299-0.939,0.896-0.939c0.173,0,0.434,0.035,0.78,0.104
			c0.231,0.047,0.434,0.07,0.607,0.07c0.963,0,1.445-0.723,1.445-2.168c0,0.039,0.01-0.637,0.028-2.023v-2.545v-2.428v-2.574
			l-0.028-2.024c0-1.445-0.479-2.168-1.435-2.168c-0.191,0-0.392,0.024-0.603,0.072c-0.344,0.048-0.603,0.072-0.774,0.072
			c-0.612,0-0.918-0.318-0.918-0.954c0-0.675,0.432-1.012,1.297-1.012c0.096,0,0.222,0.011,0.375,0.031l1.384,0.189
			c0.614,0.084,1.134,0.126,1.557,0.126c0.519,0,1.297-0.058,2.335-0.174c1.037-0.115,1.634-0.173,1.787-0.173
			c0.808,0,1.211,0.337,1.211,1.012c0,0.27-0.086,0.496-0.259,0.68c-0.172,0.183-0.382,0.274-0.631,0.274
			c-0.191,0-0.449-0.029-0.774-0.087c-0.134-0.038-0.335-0.058-0.603-0.058c-0.669,0-1.09,0.236-1.263,0.708
			c-0.172,0.473-0.249,1.624-0.229,3.455V78.703z"/>
		<path fill="#666666" d="M300.585,70.347l-0.058,0.318c0.481-0.771,0.915-1.291,1.301-1.562c0.386-0.27,0.906-0.404,1.562-0.404
			c0.944,0,2.053,0.491,3.325,1.474c1.426,1.099,2.524,1.648,3.296,1.648c0.81,0,1.311-0.279,1.503-0.839h-0.231
			c-0.27,0-0.516-0.116-0.736-0.351c-0.223-0.234-0.333-0.497-0.333-0.79c0-0.37,0.14-0.688,0.419-0.95
			c0.279-0.264,0.612-0.396,0.998-0.396c1.271,0,1.908,0.86,1.908,2.581c0,1.275-0.318,2.396-0.954,3.363
			c-0.405,0.599-0.839,1.121-1.302,1.565c-0.212,0.213-0.636,0.6-1.271,1.16c-1.312,1.141-2.207,2.193-2.688,3.16
			c-0.694,1.373-1.041,3.035-1.041,4.986c0-0.039,0.009,0.174,0.028,0.639c0.039,0.928,0.059,1.344,0.059,1.246
			c0,1.219-0.482,1.826-1.446,1.826c-1.002,0-1.503-0.789-1.503-2.369c0-2.486,0.462-4.656,1.388-6.506
			c0.752-1.504,2.352-3.258,4.799-5.262c1.002-0.828,1.571-1.513,1.706-2.053c-0.659,0.56-1.492,0.839-2.5,0.839
			c-1.24,0-2.452-0.443-3.634-1.33l-1.191-0.896c-0.427-0.308-0.902-0.463-1.425-0.463c-1.24,0-1.86,0.791-1.86,2.371
			c0,0.482,0.046,0.916,0.137,1.301c0.159,0.675,0.239,1.176,0.239,1.503c0,0.328-0.111,0.607-0.333,0.838
			c-0.222,0.232-0.496,0.348-0.824,0.348c-0.771,0-1.156-0.414-1.156-1.242c0-0.329,0.044-0.83,0.131-1.504
			c0.086-0.675,0.13-1.194,0.13-1.562c0-0.539-0.029-1.117-0.087-1.734c-0.058-0.616-0.087-1.156-0.087-1.619
			c0-0.79,0.337-1.186,1.012-1.186c0.56,0,0.839,0.338,0.839,1.013C300.701,69.644,300.662,69.923,300.585,70.347z"/>
		<path fill="#666666" d="M324.062,89.168c-2.448,0-4.371-0.9-5.768-2.703c-1.398-1.801-2.097-4.283-2.097-7.443
			c0-3.219,0.728-5.758,2.183-7.619s3.445-2.79,5.971-2.79c2.409,0,4.312,0.892,5.71,2.674c1.397,1.783,2.096,4.197,2.096,7.243
			c0,3.297-0.723,5.893-2.168,7.791S326.566,89.168,324.062,89.168z M324.293,70.752c-3.547,0-5.388,2.65-5.522,7.951v0.434
			c0,2.525,0.463,4.477,1.388,5.854c0.926,1.379,2.235,2.068,3.933,2.068c1.734,0,3.093-0.752,4.076-2.256
			c0.982-1.504,1.475-3.574,1.475-6.215c0-2.525-0.463-4.462-1.388-5.812C327.328,71.427,326.008,70.752,324.293,70.752z"/>
		<path fill="#666666" d="M338.921,81.854l-0.086-8.384c-0.02-0.982-0.121-1.638-0.303-1.966c-0.184-0.327-0.545-0.491-1.086-0.491
			c-0.191,0-0.471,0.024-0.838,0.072c-0.365,0.049-0.646,0.072-0.838,0.072c-0.752,0-1.127-0.337-1.127-1.012
			s0.355-1.012,1.068-1.012c0.232,0,0.594,0.024,1.084,0.072c0.492,0.048,0.873,0.072,1.143,0.072c0.617,0,1.127-0.02,1.533-0.059
			c0.596-0.058,0.963-0.086,1.098-0.086c0.424,0,0.684,0.125,0.781,0.376c0.076,0.173,0.115,0.472,0.115,0.896
			c0,0.058-0.01,0.289-0.029,0.694c-0.096,2.062-0.145,3.932-0.145,5.608v3.268c0,0.598,0.01,1.398,0.029,2.4
			c0.039,1.213,0.059,2.014,0.059,2.398c0.018,1.33,0.463,1.996,1.33,1.996c0.211,0,0.529-0.023,0.953-0.072
			s0.742-0.072,0.955-0.072c0.924,0,1.387,0.338,1.387,1.012s-0.424,1.012-1.271,1.012c-0.328,0-0.637-0.02-0.926-0.059
			c-1.619-0.211-2.854-0.316-3.701-0.316s-1.889,0.08-3.121,0.24c-0.695,0.09-1.186,0.135-1.475,0.135
			c-0.83,0-1.244-0.342-1.244-1.027c0-0.664,0.473-0.996,1.418-0.996c0.289,0,0.586,0.029,0.895,0.086
			c0.463,0.039,0.752,0.059,0.867,0.059c0.676,0,1.09-0.266,1.244-0.795C338.845,85.443,338.921,84.07,338.921,81.854z"/>
	</g>
</g>
<g>
</g>
<g>
</g>
<g>
</g>
<g>
</g>
<g>
</g>
<g>
</g>
<g>
</g>
<g>
</g>
<g>
</g>
<g>
</g>
<g>
</g>
<g>
</g>
<g>
</g>
<g>
</g>
<g>
</g>
</svg>
