<?xml version="1.0" encoding="utf-8"?>
<!-- Generator: Adobe Illustrator 17.0.0, SVG Export Plug-In . SVG Version: 6.00 Build 0)  -->
<!DOCTYPE svg PUBLIC "-//W3C//DTD SVG 1.1//EN" "http://www.w3.org/Graphics/SVG/1.1/DTD/svg11.dtd">
<svg version="1.1" id="图层_1" xmlns="http://www.w3.org/2000/svg" xmlns:xlink="http://www.w3.org/1999/xlink" x="0px" y="0px"
	 width="480px" height="150px" viewBox="0 0 480 150" enable-background="new 0 0 480 150" xml:space="preserve">
<g>
	
		<rect x="85.699" y="110.46" transform="matrix(0.7617 -0.6479 0.6479 0.7617 -42.8943 113.3864)" fill="#EDA900" width="94.011" height="9.098"/>
	<polygon fill="#F4C500" points="230.05,148.027 132.997,65.276 140.783,56.145 239.706,140.49 238.009,141.203 237.568,143.119 
		236.043,143.06 236.798,144.89 233.696,145.375 233.964,146.935 232.716,147.15 232.647,148.686 	"/>
</g>
<g>
	
		<rect x="309.367" y="110.46" transform="matrix(-0.7617 -0.6479 0.6479 -0.7617 553.3111 433.5123)" fill="#EDA900" width="94.011" height="9.098"/>
	<polygon fill="#F4C500" points="259.028,148.027 356.08,65.276 348.295,56.145 249.371,140.49 251.069,141.203 251.509,143.119 
		253.035,143.06 252.28,144.89 255.382,145.375 255.114,146.935 256.362,147.15 256.431,148.686 	"/>
</g>
<path fill="#63002F" d="M240.498,120.967l-2.947,3.492l-8.429-7.114l7.057,8.74l-1.245,1.475l-9.724-5.579l8.429,7.114l-2.755,3.265
	l-14.372-12.128l3.399-4.027l9.591,5.44l-6.803-8.744l3.428-4.062L240.498,120.967z"/>
<path fill="#63002F" d="M234.049,134.833c-0.537-0.941-1.07-2.181-0.912-3.618c0.174-1.582,1.133-2.55,3.174-3.713l11.853-6.76
	l2.34,4.103l-13.697,7.812c-0.567,0.323-0.707,0.548-0.509,0.894c0.161,0.283,0.412,0.303,1.001-0.033l13.697-7.812l2.34,4.103
	l-11.843,6.754c-2.011,1.147-3.143,1.417-4.823,0.724C235.302,136.725,234.609,135.816,234.049,134.833z"/>
<path fill="#63002F" d="M255.185,128.658l-8.35,7.084c-0.507,0.43-0.975,0.813-1.402,1.148c-0.428,0.335-0.862,0.562-1.302,0.682
	c-0.441,0.131-0.897,0.101-1.368-0.089c-0.236-0.096-0.48-0.247-0.733-0.454c-0.079-0.065-0.161-0.145-0.242-0.221l-2.748,2.331
	c0.723,0.814,1.73,1.796,2.413,2.228c0.76,0.481,1.563,0.776,2.409,0.888c0.751,0.104,1.49,0.028,2.218-0.226
	c0.729-0.253,1.404-0.644,2.027-1.173l10.131-8.595L255.185,128.658z"/>
<path fill="#63002F" d="M249.569,114.853l12.774,13.801l-3.467,3.208l-12.774-13.801L249.569,114.853z"/>
<g>
</g>
<g>
</g>
<g>
</g>
<g>
</g>
<g>
</g>
<g>
</g>
<g>
</g>
<g>
</g>
<g>
</g>
<g>
</g>
<g>
</g>
<g>
</g>
<g>
</g>
<g>
</g>
<g>
</g>
</svg>
