<?xml version="1.0" encoding="utf-8"?>
<!-- Generator: Adobe Illustrator 17.0.0, SVG Export Plug-In . SVG Version: 6.00 Build 0)  -->
<!DOCTYPE svg PUBLIC "-//W3C//DTD SVG 1.1//EN" "http://www.w3.org/Graphics/SVG/1.1/DTD/svg11.dtd">
<svg version="1.1" id="图层_1" xmlns="http://www.w3.org/2000/svg" xmlns:xlink="http://www.w3.org/1999/xlink" x="0px" y="0px"
	 width="480px" height="150px" viewBox="0 0 480 150" enable-background="new 0 0 480 150" xml:space="preserve">
<rect x="-4" y="-4" fill="#FFFAD2" width="492" height="159"/>
<g>
	<g opacity="0.9">
		<path d="M16.723,93.388c-0.491-1.609-0.94-2.404-2.364-3.623l-0.021-0.408c0.543-0.028,4.067-0.344,4.61-0.372
			c1.08-0.192,3.538-0.046,4.353-0.088c3.399-0.105,5.751-0.703,5.683-0.699l6.112-0.313l0.625,0.241
			c0.258-0.286,1.473-0.484,2.288-0.526c6.966-0.901,13.343-1.364,20.744-1.744c0.407-0.021,3.72-0.464,5.69-0.564
			c0.974-0.935,2.175-1.405,3.359-2.215c0.204-0.011,0.773-0.856,0.977-0.866c1.687-0.292,3.14,1.473,4.71,2.891
			c0.15,0.265,2.542,1.774,2.685,1.903c0.85,0.638,1.341,2.247,1.393,3.266c0.042,0.814-1.912,2.549-2.455,2.577
			c-0.272,0.014-1.229-0.073-1.501-0.06c-0.814,0.042-1.771-1.339-6.851-2.168c-1.029-0.152-1.63,0.083-2.476-0.485
			c-0.339,0.018-0.743,0.105-1.083,0.123c-1.969,0.101-4.163-0.195-6.078-0.369c-0.805,0.245-1.823,0.298-2.638,0.339
			c-2.444,0.126-4.899,0.048-7.344,0.173c-1.29,0.066-1.154,0.06-1.619,0.287c-3.667,0.188-6.395,1.417-9.654,1.584
			c-0.476,0.024-0.883,0.046-1.362,0.002c-0.983,0.73-1.988,1.056-3.074,1.111c-0.34,0.018-0.68,0.034-0.955-0.02
			c-1.577,1.102-6.204,2.496-8.648,2.621c-0.475,0.024-1.311-0.341-1.718-0.32c-0.543,0.028-0.352,1.108-1.302,1.157
			c-0.408,0.021-0.815,0.042-1.107-0.352C17.542,96.068,17.016,93.78,16.723,93.388z"/>
		<path d="M102.051,109.847c1.629-0.084,1.856-0.98,2.775-1.641c-0.107-2.104,0.612-2.687,1.003-4.34
			c-0.118-2.309,1.324-3.404,1.191-5.983c0.159-0.894-0.13-6.53,0.877-6.786c-0.092-0.473-0.062-3.878-0.073-4.082
			c-0.139-2.716,0.759-6.438,0.634-8.883c-0.049-0.951,0.011-2.451-1.687-2.364c-1.562,0.08-2.084,0.515-3.171,0.571
			c-0.883,0.045-0.951,0.049-1.436-0.13c-0.583,0.573-1.759,0.226-1.975,1.326c0.077,1.493-0.837,3.583-0.82,3.922
			c-0.142,1.233,0.342,2.705-0.634,3.573l0.039,0.747c0.031,0.611-1.082,9.451-1.778,9.146c0.176,2.102-0.827,3.787-1.348,5.585
			c-0.649,1.938-0.936,5.63-2.946,6.278c0.267,1.211-0.717,1.942-1.49,2.8c-1.095,1.212-2.23,2.973-2.542,3.533l-2.319,2.569
			c-0.394,0.294-0.508,0.708-0.916,0.729c-0.056-1.086,1.118-2.1,1.484-2.936c0.874-1.542,1.126-3.258,1.964-4.185
			c0.25-0.423,1.16-1.285,1.397-1.979c0.449-1.86,1.19-3.329,1.786-4.994c-0.042-0.814,0.542-1.39,0.721-1.874
			c-0.364-0.459,0.352-1.107,0.324-1.651c-0.328-1.072,0.51-2.001,0.475-2.68c-0.063-1.223,0.389-1.722,0.7-2.282
			c-0.22-4.278,1.095-6.523,0.869-10.938c0.349-1.176,0.049-1.705,0.272-2.67c0.141-1.232-1.327-1.975-2.549-1.912
			c-1.833,0.095-3.442,0.585-5.275,0.679c-1.019,0.053-2.054-0.234-2.172-2.543c-0.408,0.021-0.857-0.773-0.868-0.977l0.397-0.224
			l9.778-0.501c1.019-0.052,1.363-1.296,1.536-1.917c-0.136-2.649,0.657-7.114,0.67-6.843c-0.007-0.136-0.308-2.027-0.315-2.163
			l-0.014-0.271c-0.007-0.136,0.141-1.232,0.337-1.379l-0.118-2.309c-1.299-1.432-2.384-2.669-3.406-2.685l-0.21-0.125
			c0.352-1.107,4.623-1.463,5.423-1.776l2.711,1.087c0.611-0.031,1.767,1.271,3.363,1.87c0.37,1.887-1.687,2.946-1.652,3.625
			c-0.115,0.415,0.702,1.734,0.737,2.414c0.045,0.883-0.906,0.932-1.792,0.909c-0.877,1.475-0.668,2.893-0.799,4.331
			c0.011,0.204-0.496,2.271-0.486,2.476c-0.077,1.161,0.784,2.002,1.938,1.943c0.408-0.021,0.408-0.021,0.794-0.45l3.667-0.188
			c0.404-0.088,1.87-0.708,3.541-2.631c2.084-0.516,5.067,3.211,5.119,4.231c0.052,1.018-2.048,2.554-2.256,3.792
			c0.066,1.29-0.422,2.404-0.376,3.286c-0.313,1.854-0.485,2.476-0.898,3.723c0,0,0.334,1.209,0.369,1.888
			c0.038,0.747-0.117,1.708-0.567,2.207c0.082,0.269,0.14,4.078-0.634,6.229l0.136,2.647c-0.376,0.633-0.199,1.44-0.303,2.059
			c0.021,0.408-0.648,3.301-0.627,3.709c0.146,2.852-0.312,5.871-1.881,8.471c0.038,0.746-1.363,1.296-1.253,2.106
			c-0.699,0.988-4.193,3.211-5.021,2.98c-0.207-0.057-1.082-1.17-1.299-1.431c-0.045-0.884-0.42-4.199-1.922-5.62
			c-0.429-0.388-1.84-0.042-1.896-1.129C98.981,109.731,100.421,109.93,102.051,109.847z M119.963,108.656
			c-0.052-1.019-0.179-2.17-0.238-3.324c-0.052-1.019-0.041-2.107,0.312-3.215l-0.63-12.291c-0.007-0.136,0.188-1.644,0.168-2.052
			c-0.018-0.339,0.043-0.478-0.314-0.801l-0.355-6.925c-0.157-0.401-0.164-0.537-0.188-1.013c-0.021-0.406,0.087-0.958,0.062-1.433
			l-0.188-1.012l0.125-0.21l-0.157-0.401c-0.253-0.941,0.028-2.111-0.021-3.062c-0.508-1.948-0.745-3.911-0.856-6.084
			c-0.014-0.271-0.099-0.607,0.093-0.821c0.272-0.014,0.708,0.508,0.843,0.501c2.36,2.195,3.881,2.66,6.178,3.631
			c0.204-0.011,0.846,0.57,1.05,0.56c1.261,0.684,2.626,0.75,3.916,0.683c0.883-0.045,1.762-0.157,2.645-0.202l0.825,0.162
			c0,0,1.405-0.48,1.802-0.706c1.201-0.47,1.687-2.945,2.501-2.987c0.204-0.01,2.375,1.172,3.375,2.073
			c0.272-0.014,1.536,0.739,1.671,0.732c0.418,0.183,0.429,0.386,0.439,0.589c0.08,1.562-1.1,2.439-1.023,3.934
			c0.01,0.204,0.333,1.208,0.344,1.412c-0.122,0.279-0.327,1.582-0.226,3.552l0.157,0.4c0.069,1.358,0.083,4.285,0.5,4.469
			c0.114,0.878-0.191,1.575-0.16,2.187c0.74,2.48,0.668,5.071,0.797,7.584c0.153,2.987,0.71,11.197-4.519,11.465
			c-0.203,0.011-0.611,0.031-0.632-0.376l-0.512-2.017c-0.143-0.128-0.731-0.983-2.496-0.893c-1.884,0.438-6.227,0.729-6.498,0.742
			c-0.515,0.57-2.72,0.07-3.193,1.456c0.087,1.698-0.1,2.048,0.088,5.715c0.049,0.951-2.458,5.163-3.816,5.232
			c-0.862,0.454-2.005-1.939-2.054-2.89C119.917,111.723,120.037,110.082,119.963,108.656z M125.877,99.162
			c3.871-0.198,6.522-0.267,9.768-0.704c0.611-0.031,0.966-1.072,1.149-1.489c-0.16-3.123-0.353-2.909-0.402-3.86
			c-0.353-2.909-0.506-5.897-0.856-8.738c-0.014-0.271-0.343-2.707-0.35-2.842c-0.36-0.391,0.151-1.029,0.106-1.912
			c-0.132-2.579-0.575-5.894-2.136-5.813c-2.241,0.115-4.946,0.458-7.313,0.783c-2.776,0.278-1.462,3.343-2.211,4.675l0.225,0.396
			l0.341,6.655c0.246,0.805,0.267,1.212,0.308,2.026c0.16,3.124-0.122,5.59,0.014,8.237l0.01,0.204
			C124.571,97.595,125.03,98.593,125.877,99.162z"/>
		<path d="M152.519,86.427c-0.49-1.609-0.94-2.403-2.364-3.623l-0.021-0.408c0.543-0.027,4.067-0.344,4.61-0.371
			c1.079-0.192,3.538-0.047,4.353-0.088c3.398-0.106,5.751-0.703,5.684-0.7l6.111-0.313l0.625,0.241
			c0.258-0.286,1.473-0.484,2.287-0.526c6.967-0.901,13.343-1.364,20.745-1.743c0.406-0.021,3.72-0.464,5.689-0.565
			c0.973-0.934,2.175-1.404,3.358-2.215c0.203-0.01,0.773-0.855,0.977-0.866c1.688-0.291,3.14,1.474,4.71,2.891
			c0.15,0.265,2.542,1.775,2.685,1.904c0.851,0.638,1.341,2.247,1.394,3.266c0.041,0.814-1.912,2.548-2.455,2.576
			c-0.272,0.014-1.229-0.073-1.501-0.06c-0.815,0.042-1.771-1.338-6.852-2.168c-1.029-0.151-1.63,0.084-2.477-0.484
			c-0.339,0.017-0.743,0.105-1.083,0.123c-1.969,0.101-4.163-0.196-6.078-0.369c-0.804,0.245-1.823,0.297-2.638,0.339
			c-2.444,0.125-4.899,0.047-7.344,0.173c-1.29,0.065-1.154,0.059-1.619,0.286c-3.667,0.188-6.396,1.418-9.654,1.585
			c-0.476,0.024-0.884,0.045-1.362,0.001c-0.983,0.731-1.988,1.056-3.074,1.111c-0.34,0.018-0.68,0.035-0.954-0.02
			c-1.577,1.103-6.204,2.497-8.648,2.622c-0.476,0.024-1.312-0.341-1.719-0.32c-0.543,0.027-0.352,1.107-1.303,1.156
			c-0.407,0.021-0.814,0.042-1.106-0.352C153.337,89.107,152.811,86.82,152.519,86.427z"/>
		<path d="M255.905,104.547c1.623-0.218,1.504-2.526,2.135-3.513c-0.494-9.643,0.013-11.711-3.451-11.533
			c-0.278-0.122-0.328,0.221-0.386,0.428c-2.853,0.146-9.681-0.253-9.569,1.92c0.656,0.852,1.617,1.007,2.402,1.716
			c2.138,1.864,2.987,2.501,3.074,4.199c0.063,1.222-0.71,2.079-1.476,3.071c0.099,0.607-0.729,0.378-1.438,1.162
			c-2.072-0.574-1.748-2.224-2.646-3.812c-0.027-0.544-1.01-1.105-0.885-1.315c-0.149-0.266-0.964-2.88-1.11-3.076
			c-0.987-1.992-1.812-2.153-3.85-2.05c-1.494,0.077-3.438,0.653-4.439,1.046c-0.611,0.031-3.152-0.384-4.858,0.861
			c-7.198,0.369-4.33-0.8-6.706-3.333c-0.168-0.604,0.24-0.625,0.512-0.639c1.29-0.066,3.029,0.661,4.591,0.581
			c0.21,0.125,0.726-0.445,0.998-0.459c4.957-0.255,9.768-0.706,14.725-0.96l0.564,0.381c0.261-0.219,1.599-0.695,1.87-0.709
			c0.475-0.024,1.146-0.195,1.368,0.134c2.444-0.126,2.842-0.35,3.656-0.392c1.223-0.062,5.989-0.034,5.902-1.732
			c-0.062-1.222-0.397-2.431-0.856-3.429c-0.011-0.204-0.616-1.397-0.627-1.602c-0.01-0.203,0.094-0.821,0.083-1.024
			c-0.95,0.048-1.775-0.114-2.861-0.059c-0.137,0.007-0.93,0.456-1.202,0.47c-0.882,0.046-1.708-0.115-2.862-0.057
			c-0.814,0.042-1.201,0.469-2.016,0.511c-4.858,0.862-9.544,1.103-14.391,2.168l-8.515,1.253c-0.814,0.042-1.452,0.893-2.402,0.941
			c-1.63,0.083-2.518-1.301-3.27-2.692c-0.46-0.998,3.525-1.61,6.038-1.739l0.689,0.169c2.834-0.486,5.715-0.089,7.496-1.2
			c2.309-0.119,2.912-0.287,3.473,0.025c0.547,0.039,0.669-0.238,1.212-0.266c-0.011-0.204,1.437,0.13,2.251,0.088
			c0.751,0.029,1.27-0.474,2.221-0.522c0.814-0.041,2.319,0.086,3.474,0.027c1.833-0.095,2.64-1.634,2.535-3.671
			c-0.021-0.407-0.312-2.094-0.384-2.159l-0.149-0.264c-3.059,0.088-3.517,0.452-4.06,0.479c-2.853,0.146-6.702,0.753-7.992,0.819
			c-0.407,0.021-3.028,0.7-3.436,0.721l-2.647,0.136c-0.619-0.104-1.925-1.672-1.959-2.352c-0.028-0.543,0.162-0.825,0.772-0.856
			c1.854,0.314,5.996,0.102,6.336,0.084c0.812-0.11,2.52,0.007,4.271-0.356l7.13-0.366c0.794-0.448,1.636,0.053,1.588-0.898
			c-0.015-0.272-0.278-2.777-0.316-3.524c-0.007-0.136-0.784-2.001-0.791-2.138c0.674-1.464,1.795-0.84,2.64-1.633l1.683-1.72
			c0.811-0.11,1.463-1.981,2.161-2.971c0.502-0.842,1.146-1.556,1.505-2.528c-0.106-0.744,0.298-0.833,0.854-1.95
			c0.916-3.383,1.71-3.832,1.609-5.802c-0.063-1.222-1.985-1.532-2.014-2.075c-0.034-0.679,1.271-0.474,2.085-0.515
			c0.203-0.01,1.594-0.762,1.798-0.773c0.204-0.01,1.44,0.198,1.848,0.177c2.075,0.643,1.841,0.042,4.41,2.362
			c0.188,1.011-0.941,1.546-1.329,1.975c-0.84,0.859-1.146,1.556-1.722,2.267c-0.766,0.992-2.36,1.755-2.284,3.249
			c0.088,1.698,4.748,0.983,6.174,0.91l1.202-0.471l2.136-2.152c1.209-0.334,1.771-1.317,2.993-1.379
			c0.408-0.021,0.611-0.031,1.025,0.083c0.204-0.011,0.871,1.045,1.143,1.031c1.124,0.691,1.824,1.063,1.911,2.761
			c0.327,1.073-2.606,0.951-4.644,1.056c-0.407,0.021-2.83,0.554-3.238,0.575c-1.222,0.062-3.463,0.177-3.421,0.992
			c0.227,1.759,1.878,0.789,1.993,3.03c-0.287,1.036-2.206,0.793-2.361,1.755c-1.833,0.094-3.683,3.865-6.127,3.991
			c-1.426,0.073-1.308-0.273-1.332-0.749c0.258-0.286,1.031-1.143,1.228-1.288c0.155-0.961,2.678-3.542,2.573-5.579
			c-0.065-1.29-1.882-0.857-2.492-0.826c-0.408,0.021-2.492,0.537-2.899,0.558c0.014,0.271-1.913,1.187-2.477,2.169
			c-0.657,0.441-1.98,1.19-1.939,2.005c0.07,1.359,2.515,1.234,3.364,1.871c0.205,1.351-0.551,2.547-0.491,3.702
			c0.062,1.222,0.405,1.272,0.905,1.723c2.105-0.108,4.399-0.498,6.565-0.745c0.951-0.049,2.72-2.728,5.123-3.667
			c1.025,0.083,1.061,0.762,1.903,1.264c0.632,0.376,2.317,1.379,2.358,2.195c0.073,1.426-2.046,1.261-2.042,1.33l-0.156-0.401
			l-0.184,0.419c-1.819,0.365-6.362,0.734-12.678,1.058l-0.42-0.251c-2.016,1.873-1.665,2.06-1.606,3.215
			c0.066,1.29,0.153,2.987,2.733,2.854c0.184-0.417,2.395,0.217,2.485-0.673c0.679-0.034,1.568,0.057,2.248,0.022
			c0.814-0.042,1.405-0.48,2.22-0.522c0.611-0.031,1.439,0.197,2.051,0.166c1.901-0.098,3.374-0.58,5.276-0.678
			c1.315-0.885,3.154-2.204,5.463-2.322c1.494-0.076,5.802,1.608,5.944,4.393c0.031,0.611-0.742,1.467-1.149,1.488l-0.271,0.014
			c-2.541-0.414-5.439,0.144-7.977-0.204c-0.479-0.043-1.275,0.339-2.229,0.319c-0.544,0.027-4.116-0.606-6.357-0.491
			c-0.204,0.011-0.805,0.246-0.794,0.449c-0.169,0.689,0.667,1.056,0.694,1.599c-0.163,2.118-1.626,0.15-1.452,3.547
			c0.413,1.408,1.034,1.579,2.528,1.503c0.339-0.018,2.549-0.742,4.043-0.819c1.072-0.327,1.739-1.927,2.555-1.969
			c0.814-0.042,1.687-0.291,1.995-0.92c1.748-0.43,2.456,1.44,3.463,2.479c0.86,0.841,1.859,1.743,1.922,2.965
			c0.031,0.611-0.365,0.835-1.18,0.877c-0.815,0.042-1.422-1.152-2.508-1.097c-1.426,0.073-2.606,0.951-4.032,1.024
			c-2.037,0.104-4.105-0.403-6.347-0.288c-0.611,0.031-1.812,0.502-1.771,1.316c0.011,0.203,0.266,1.212,0.276,1.416
			c0.502,1.812,0.575,3.238,0.68,5.275c0.014,0.271,0.512,2.016,0.525,2.288c0.163,3.19-0.688,6.503-2.813,8.858
			c-0.773,0.856-1.975,1.326-3.02,2.196c-0.508,0.707-1.281,1.564-2.368,1.62c-0.543,0.027-0.87-1.044-0.892-1.452
			c-0.059-1.153-0.651-2.077-0.71-3.231c0.203-0.011-1.288-1.229-1.354-2.519C252.71,104.643,254.955,104.596,255.905,104.547z
			 M223.993,67.717c0.569-0.847,2.495-3.124,2.685-3.406c1.167-1.148,1.132-1.827,1.912-2.548c-0.178-0.808,2.133-2.221,1.891-2.957
			c1.554-1.578,1.699-4.035,2.546-6.122c-0.099-3.262-2.753-1.901-2.802-2.852c1.478-0.417,3.157-0.843,4.447-0.909
			c2.506-0.264,1.686,1.003,2.725,1.358c1.465,0.674,3.175,2.152,3.182,2.289c-1.296,1.292-2.302,2.909-3.03,4.648
			c0.245,0.804,1.468,0.742,2.079,0.71c0.469-0.16,1.541-0.486,3.103-0.566c0.727-0.446,1.559-2.804,3.121-2.884
			c0.067-0.003,2.163,1.046,2.698,2.176l0.292,0.395c0.028,0.543-0.323,1.65-0.303,2.057c-0.672,0.171-1.032-0.219-1.236-0.209
			c-3.26,0.167-2.063,0.922-5.119,1.079c-0.468,0.161-1.433-0.063-1.637-0.052c-0.611,0.031-2.831,0.554-2.789,1.369
			c0.084,1.629,4.036,1.7,3.896,4.294c0.021,0.406-0.566,3.569-2.671,3.677c-2.241,0.115-2.484-4.639-2.61-7.083
			c-0.245-0.805-1.073-1.035-1.889-0.993c-0.407,0.021-0.963,1.139-1.363,1.295c-0.97,1.003-1.757,1.588-2.733,2.455
			c-0.747,0.039-1.844,2.546-3.135,2.613c-0.59,0.438-3.819,2.51-4.342,2.945c-1.059,0.6-2.762,1.912-4.255,1.988l-0.55-0.108
			C218.07,71.697,223.233,68.845,223.993,67.717z"/>
		<path d="M308.646,100.211c3.327-0.171,9.231-0.542,9.103-3.055c-0.103-0.675-0.131-1.218-0.166-1.896
			c-0.129-2.513,0.018-4.973-0.111-7.484c-0.035-0.679-0.13-1.219-0.165-1.897l0.24-0.625c-0.011-0.204-0.554-5.487-0.585-6.098
			c-0.438-1.884,0.627-3.708,0.564-4.93c-0.056-1.087-0.303-3.253-1.181-4.434c-4.413,0.226-5.751,0.703-7.177,0.776
			c-0.35-0.186-0.896-0.225-1.032-0.218c-0.204,0.011-0.394,0.292-0.591,0.438l-1.29,0.066c-3.734,0.191-5.526,1.101-12.316,1.449
			c-0.407,0.021-3.089,0.839-3.496,0.86c-0.679,0.035-1.762,0.159-2.079-0.71c-0.098-1.901-1.921-4.259-3.681-5.395l-0.011-0.203
			c-0.011-0.204,0.397-0.225,0.533-0.232c0.814-0.042,1.65,0.324,2.476,0.485c3.838,0.485,8.258,0.395,12.129,0.196
			c0.814-0.042,4.664-0.647,7.924-0.814l0.611-0.032c3.123-0.16,5.558-0.489,7.527-0.59c0.433-0.839,0.327-1.583,0.281-2.465
			c-0.047-2.245-0.772-4.455-0.888-6.695c-0.062-1.222-0.072-4.081-1.473-4.826c-4.346,0.223-7.924,0.814-11.862,1.016
			c-6.044,0.31-3.225-1.81-5.112-4.095c-0.429-0.386-1.924-1.671-2.148-2.068c0.125-0.211,2.466,0.282,3.308,0.783l1.087-0.056
			c2.241-0.115,4.7,0.032,6.689,0.338c0.887,0.023,1.479-0.348,2.499-0.4c0.61-0.031,3.688,0.22,5.725,0.116l15.686-0.804l0.4-0.157
			c0.795-0.448,3.12-2.882,3.936-2.924c1.019-0.052,2.77,2.239,4.479,3.718c0.907,0.43,1.692,1.139,1.734,1.954
			c0.052,1.019-0.952,1.342-1.903,1.391c-0.476,0.024-0.954-0.019-1.294-0.001c-0.204,0.01-1.623,0.219-1.826,0.229
			c-0.204,0.011-0.835-0.366-1.039-0.356c-0.883,0.045-1.685,0.36-2.635,0.408c-2.169,0.179-4.72-0.438-5.128-0.417
			c-0.054,0.275-0.321,0.356-0.59,0.438l-3.056,0.157c-0.387,0.429-1.459,0.756-1.432,1.299c0.062,1.223,2.501,0.96,2.57,2.319
			c0.084,1.63-1.466,3.275-1.438,3.818c0.062,1.224-0.011,2.452,0.053,3.674c0.125,2.445,0.621,2.828,2.794,2.717
			c1.833-0.094,3.442-0.584,5.275-0.679c2.717-0.139,4.472-0.434,7.12-0.569c1.154-0.059,1.17-1.081,1.781-1.113
			c1.357-0.069,2.293-1.751,3.854-1.832c0.115-0.413,1.268,0.821,1.839,1.335c1.638,1.414,4.057,2.107,4.147,3.873
			c0.042,0.815,0.141,1.422-1.557,1.509c-0.472,0.093-0.962-0.155-1.505-0.127c-0.476,0.024-0.94,0.253-1.348,0.274
			c-3.396,0.174-6.236,0.523-9.428,0.687c-0.611,0.031-3.056,0.156-3.678-0.016l-5.907,0.303l-0.193,0.213l-1.901,0.098
			c-0.054,0.276-0.358,0.972-0.32,1.719l0.354,6.925c0.008,0.137,0.313,0.802,0.32,0.938c0.187,2.305,0.651,4.732,0.808,7.788
			c0.104,2.037,0.913,7.169,0.92,7.305c0.245,3.461-0.458,8.331-1.965,9.498c-0.118,0.346-1.871,2.001-2.075,2.012
			c-0.703-0.44-1.363,1.295-2.789,1.368c-2.377,0.122-2.317-1.379-3.284-2.963c-0.966-1.584-2.909-2.303-5.829-2.152
			c-0.479-0.043-2.427,0.464-2.473-0.418C307.047,100.905,308.102,100.238,308.646,100.211z"/>
		<path d="M355.225,92.581c6.044-0.31,13.695-1.111,14.511-1.153c0.407-0.021,4.22-0.012,4.627-0.032
			c0.68-0.035,6.624-0.952,7.167-0.98c4.889-0.251,6.838-0.759,11.387-0.992c0.408-0.021,3.307-0.577,3.714-0.599
			c3.464-0.178,7.28-0.102,9.115-1.489c-0.136,0.007,2.476-2.168,3.97-2.245c1.019-0.052,2.239,1.179,3.171,2.084
			c0.282,0.19,2.392,1.512,2.538,1.708c0.282,0.189,2.445,2.53,2.477,3.141c0.525,2.288-2.3,2.979-4.2,3.075
			c-1.358,0.07-3.39-1.052-4.951-0.972c-3.302-0.647-6.922-0.87-10.249-0.699c-3.484-0.231-7.015-0.05-10.274,0.117
			s-5.333,0.886-8.524,1.05c-2.017,0.513-4.325,0.631-6.477,1.148c-0.408,0.021-3.489,0.996-3.897,1.018l-0.814,0.042
			c-2.121,1.13-4.806,1.88-7.016,2.605c-0.858,0.521-2.12-1.524-2.998-2.705c-0.873-1.113-3.423-3.024-3.458-3.703
			C355.03,92.795,355.021,92.592,355.225,92.581z M362.938,54.468c-1.135-0.896-3.446-2.139-2.978-2.299
			c-0.096-0.54,0.299-0.831,0.773-0.855c5.025-0.258,10.186-0.522,15.2-0.984c3.259-0.167,9.203-1.084,11.647-1.21
			c2.581-0.132,3.417,0.233,6.89-2.396c0.855-0.588,1.896-1.527,2.983-1.583c0.814-0.042,2.282,0.701,2.925,1.28
			c0.707,0.509,3.896,2.933,4.11,4.488c0.365,1.819-1.29,2.722-2.92,2.805c-3.802,0.195-3.494-0.435-8.383-0.184
			c-0.815,0.042-2.57,0.336-2.502,0.333c-0.137,0.007-1.233-0.142-1.369-0.135c-3.409-0.096-9.207,1.018-10.979,0.972
			c-0.407,0.021-4.576,1.052-4.983,1.073c-0.136,0.007-1.347,0.271-1.618,0.286c-0.137,0.007-2.132,0.927-2.403,0.94
			c-0.805,0.246-1.995,0.919-2.811,0.961c-0.136,0.007-0.961-0.155-1.243-0.344C364.673,56.42,363.87,55.373,362.938,54.468z"/>
	</g>
	<g>
		<g>
			<path fill="#FFCE00" d="M347.898,89.966c0,0-5.03,21.206-1.067,25.23c3.16,3.208,7.407,2.868,12.967,1.601
				c15.268-3.477,113.676-35.923,113.676-35.923s-91.642,50.347-110.005,58.151c-9.439,4.012-19.289,5.286-25.654,1.704
				c-4.381-2.465-7.487-6.83-7.826-13.36C328.994,108.227,347.898,89.966,347.898,89.966z"/>
		</g>
		<g>
			<path fill="#DB0000" d="M344.898,84.966c0,0-5.03,21.206-1.067,25.23c3.16,3.208,7.407,2.868,12.967,1.601
				c15.268-3.477,113.676-35.923,113.676-35.923s-91.642,50.347-110.005,58.151c-9.439,4.012-19.289,5.286-25.654,1.704
				c-4.381-2.465-7.487-6.83-7.826-13.36C325.994,103.227,344.898,84.966,344.898,84.966z"/>
		</g>
	</g>
</g>
<g>
	<path fill="#FFB000" d="M23.407,26.642c-0.142,0,0.668-0.284,0.79-0.446c0.709-0.486,0.75-0.85,2.572-2.43
		c0.041-0.203,0.162-0.243,0.162-0.486c0-0.243,0-0.567-0.041-0.81c0,0-0.061-0.122-0.081-0.203
		c-0.041,0.102-0.344-2.409-0.77-2.409c-0.324,0-0.506,0.182-0.749,0.304c-0.263-0.041-0.425,0.364-0.607,0.364
		c-0.365-0.041-0.506,0.607-0.972,0.607c-0.243,0-0.486-0.486-0.486-0.729c0-0.202,0.304-0.526,0.668-0.607
		c0.587,0,1.215-0.283,1.458-0.668c-0.041-0.122,0.365-0.304,0.365-0.486c0.041-0.061,0.081-0.142,0.121-0.182
		c0.425,0,0.851,0.081,1.094,0.425v0.547c0,0.061,0.202,0.243,0.202,0.304c0,0.425,0.486,0.648,0.486,1.033
		c-0.081-0.021,0.263,0.911,0.526,0.911c0.324,0,0.324-0.304,0.445-0.486c0.891-0.912,0.749-1.56,1.215-2.43
		c0-0.364-0.122-0.688-0.202-0.972c0.243-0.324,0.567-0.324,0.931-0.324c0.243-0.061,0.648,0.425,0.851,0.567
		c0.243,0.162,0.688,0.709,0.607,0.729c0,0.547-1.013,1.235-0.972,1.397c0,0.567-0.465,0.83-0.607,1.397
		c0,0.061-0.324,0.243-0.324,0.304c-0.021,0.344-0.648,0.688-0.648,1.174c0,0.243,0.708,0.445,1.012,0.607
		c0.648,0.365,1.255,0.81,1.903,1.094c0.324,0.142,0.688,0.121,0.972,0.243c0.041,0.122,1.296,0.486,1.458,0.486
		c0.526,0.081,0.85,0.162,1.539,0.162c0.061,0,0.425,0.162,0.486,0.162c0.385,0,0.851,0.02,0.851,0.283
		c0,0.446-0.587,0.284-1.093,0.81c-0.162-0.122-0.324,0.284-0.486,0.284c-0.284,0-0.486,0.385-0.81,0.607
		c-1.013,0-1.478-0.162-2.349-0.526c-0.081,0-0.911-0.183-1.215-0.486c-0.708-0.243-1.296-0.587-1.903-0.972
		c-0.688-0.445-1.235-1.134-1.701-1.134c-0.324,0-0.324,0.202-0.486,0.364c-0.446,0.162-1.134,1.215-1.417,1.174
		c-0.385,0.446-0.668,0.466-1.033,0.688c-0.243,0.122-0.425,0.284-0.668,0.405c-0.445,0.283-0.972,0.344-1.397,0.729
		c-0.061,0.081-0.729,0.243-0.79,0.324c-0.061,0-0.547,0.284-0.607,0.284c-0.365,0-0.547,0.324-0.729,0.324
		c-0.77,0.142-1.64,0.486-2.45,0.486v-0.202c0.466-0.263,0.547-0.527,0.972-0.527c0.344-0.223,0.546-0.304,0.931-0.364
		C21.585,27.755,22.436,27.33,23.407,26.642z M24.015,16.213v-0.385c0-0.344-0.041-0.708-0.425-0.708
		c-0.304,0-0.546,0.041-0.85,0.122c-1.033,0-1.762,0.364-2.511,0.364c-0.243,0-0.486-0.931-0.486-1.053s-0.02-0.365,0.324-0.365
		h2.004l0.182-0.061c0.304,0,0.607,0.061,0.972,0.061c0.425,0,0.547-0.061,0.668-0.486c0-0.587,0-1.235-0.243-1.883
		c-0.061-0.182-0.243-0.243-0.243-0.486c-0.041-0.061,0.102-0.243,0.182-0.243c0.587,0,1.134,0.283,1.64,0.546
		c0.365,0.203,0.729,0.061,0.729,0.607c0,0.304-0.304,0.425-0.304,0.729s0,1.033,0.506,1.033c0.445,0.041,0.891-0.668,1.377-0.668
		c0.304,0.061,0.486,0.364,0.486,0.668c0,0.425-0.02,0.668-0.729,0.668c-0.182,0-1.499,0.121-1.499,0.486v1.093l-0.081,0.081
		l0.121,0.041l-0.041,0.243c-0.081,0.081-0.769,0.79-0.871,0.81c-0.465,0.041-0.627-0.223-0.85-0.486
		C24.076,16.821,24.015,16.335,24.015,16.213z M30.778,14.796c-0.021-0.02-0.526-0.041-0.567-0.041l-0.162,0.041
		c-0.324,0.061-0.688-0.263-0.688-0.607c0-0.121,0-0.182,0.122-0.243c0.283,0,0.668-0.102,0.729-0.122
		c0.202-0.021,0.911,0.122,1.012-0.365c0-0.384,0.182-0.972,0.162-1.032c0-0.061-0.041-0.547-0.122-0.729
		c-0.041-0.243-0.243-0.486-0.243-0.729c0-0.223,0.142-0.162,0.486-0.365c0.081-0.041,0.121,0,0.243,0.061l0.243-0.061
		c0.122-0.101,0.405,0.365,0.607,0.365c0.324,0.182,1.174,0.304,1.174,0.85c0,0.304-0.364,0.425-0.364,0.729
		c0,0.183,0.02,0.851,0.041,0.851l0.202,0.182c0,0,0.243-0.061,0.365-0.122c0.202,0,0.81-0.607,1.377-0.607
		c0.324,0,1.113,1.053,1.113,1.154c0,0.486-1.255,0.425-1.761,0.425c-0.162,0-0.203,0-0.324-0.041c-2.308,0-0.871,0.911-1.579,1.822
		c0,0.385-1.316,0.851-1.255,0.851c-0.203,0-0.688-0.324-0.688-0.486v-1.661L30.778,14.796z"/>
	<path fill="#FFB000" d="M51.817,27.492c0.324-0.324,1.397-0.243,1.64-0.931c0-0.405,0.243-1.195,0.243-1.215
		c0.061-0.446,0.243-2.268,0.304-2.673c0-0.081,0.061-0.243,0.061-0.324c0-0.931-0.061-1.539-0.061-2.369
		c0-0.182,0.061-0.364,0.061-0.607c0-0.02-0.061-0.992-0.061-1.539c0-0.587-0.77-0.526-1.397-0.526c-0.385,0-1.397,0.04-1.701,0.04
		c-0.547,0-0.952-0.04-1.458-0.121c-0.202-0.041-0.202,0.182-0.202,0.243c0,0.709,1.64,1.357,1.6,1.357
		c0.688,0.162,0.526-0.992,0.972-0.992c0.304,0,0.851,0.445,0.851,0.81c0,0.486-0.547,0.547-0.547,0.851
		c0,0.607,0.911,0.668,0.911,1.215c0,0.486-0.668,0.466-0.668,0.79c0,0.486,0.79,0.81,0.79,1.296c0,0.364-0.364,0.405-0.607,0.526
		c-0.021-0.021-0.263,0.344-0.304,0.445c-0.061,0.365,0.223,0.385,0.364,0.648c0.223,0.425,0.365,0.466,0.365,0.851
		c0,0.304-0.81,0.688-0.911,0.688c-0.061,0-0.122,0-0.243-0.041c0-0.081-0.182-0.446-0.182-0.526
		c-0.061-0.162-0.122-0.608-0.365-0.608c-0.486,0-0.79,0.81-1.174,0.729c-0.041,0-0.283,0.284-0.364,0.284
		c-0.466,0-0.405,0.203-0.405,0.526c-0.202,0.385,0,0.932-0.324,1.296c-0.365,0.405-0.365,0.324-0.607,0.486
		c-0.547,0.021-0.648-0.486-0.891-0.85c0,0-0.061-0.567,0.122-0.81c-0.02-0.203-0.02-0.385-0.02-0.607
		c0-0.749,0.081-1.6,0.182-2.309c0-0.465,0.243-0.506,0.243-0.607c0-0.081-0.041-0.162-0.121-0.243c0-0.648,0.02-1.782-0.041-1.721
		c0-0.304,0.041-0.607,0.041-0.851c0-0.364-0.041-0.668-0.041-0.972c0,0.041,0.041-0.992,0.041-1.174
		c-0.041-0.486,0.081-0.729-0.851-0.729c-0.182,0-0.405,0.142-0.607,0.081c-0.284,0-1.58,0.04-1.822,0.04
		c-0.061,0-0.425,0.122-0.486,0.122c-0.607,0.263-0.668,0.75-0.668,2.146l-0.061,0.122c0,0.061,0.02,0.162,0.061,0.243v1.094
		c0,0.122,0.122,0.182,0.243,0.182c0.061,0.101,0.384-0.243,0.546-0.365c0.182-0.162,0.79-0.729,0.79-1.032
		c0-0.021-0.284-0.688-0.486-0.911c-0.081,0-0.304-0.203-0.304-0.365l0.061-0.061c0.385,0,0.567,0.668,1.093,0.668
		c0.243,0,0.668-1.235,0.871-1.235c0.344,0.081,0.648,0.445,0.851,0.688c0.041,0.729-0.81,0.709-0.81,1.215
		c0,0.223,0.749,0.668,0.688,0.85c0.061,0.365-0.567,0.405-0.567,0.729c0,0.263,0.243,0.263,0.243,0.547
		c0,0.304,0.567,0.526,0.567,0.729c0.041,0.081,0.121,0.202,0.121,0.202c0,0.344-1.073,1.215-1.093,1.336
		c-0.122,0.466,0.607,0.932,0.607,1.58c0,0.243-0.688,0.81-0.931,0.81c-0.021,0-0.304-0.446-0.304-0.729
		c-0.061-0.284-0.243-0.446-0.486-0.446c-0.304,0-0.607,0.324-0.85,0.486c-0.183,0.121-0.607,0.324-0.79,0.486
		c-0.121,0.607-0.304,2.025-1.397,2.025c-0.101,0-0.243-0.223-0.243-0.445c-0.121-0.365-0.243-0.527-0.243-0.972
		c0-0.284,0.061-0.972,0.061-0.972l0.061-0.04v-0.932c0.061-0.081,0.061-0.122,0.061-0.203c0-0.122-0.061-0.162-0.061-0.283
		c0-0.081,0.121-0.324,0.121-0.365v-0.729c0-1.68,0.122-3.361,0.122-5.062c0-0.526,0.061-1.6-0.122-1.6
		c-0.769-0.061-1.093,0.729-2.146,0.972c-0.041,0-0.162,0.081-0.162,0.081c-0.101,0.02-0.405-0.243-0.607-0.243
		c-0.081-0.324,0.445-0.344,0.648-0.445c0.162-0.142,0.344-0.304,0.445-0.365c0.668-0.263,1.276-0.749,1.883-1.134
		c0.142,0,1.093-0.708,1.093-1.053l0.729-0.729c0.061,0,0.243-0.122,0.243-0.122c0.061-0.365,0.668-0.607,0.668-1.093
		c0-0.061-0.182-0.122-0.243-0.122c-0.081-0.061-1.316,0.122-2.308,0.122c-0.344,0-1.012,0.304-1.296,0.304
		c-0.243,0-0.243-0.183-0.364-0.425c-0.041-0.182-0.486-0.911-0.527-1.094c0-0.061-0.041-0.162,0.041-0.243
		c0.709,0,1.114,0.122,1.721,0.122c1.154,0.061,2.248,0.121,3.402,0.121c0.425,0,0.83-0.04,1.174,0.122
		c0.041,0,0.486-0.061,0.526-0.061c0.203,0.02,0.567-0.061,0.851,0.061c1.336,0,2.632,0,3.969,0.061
		c0.668,0,1.336,0.121,2.004,0.121c0.446,0,0.587-0.081,0.851-0.243c0.182-0.182,0.364-0.365,0.607-0.486
		c0.344,0,0.526-0.486,0.851-0.486c0.202,0.061,0.445,0.365,0.486,0.486c-0.041,0.263,0.931,0.871,0.931,1.215
		c0.081,0.385-0.587,0.85-0.931,0.85c-0.284,0-0.648-0.121-0.911-0.182c-0.851-0.041-0.972-0.182-1.944-0.182
		c-0.243-0.122-0.385-0.182-0.972-0.182c-0.121,0-0.911-0.122-1.093-0.122s-0.304-0.122-0.486-0.122
		c-0.243,0-0.446,0.061-0.688,0.061c-0.405,0-0.851-0.061-1.255-0.061c-0.243,0-0.446,0-0.607,0.182
		c-0.142,0.304,0.911,0.729,1.377,0.851c0.202,0.061,0.364,0.061,0.364,0.304c0,0.101,0.081,0.243-0.405,0.729
		c-0.081,0.081-0.365,0.243-0.446,0.324l-0.041,0.041c0,1.175,0.041,1.073,0.041,1.539s0.932,0.405,1.296,0.405
		c0.466,0,1.559-0.041,2.551-0.041c0.912,0,0.668-0.729,1.276-0.729c0.364,0,0.607,0.364,0.911,0.607
		c0.122,0.121,0.992,0.526,1.033,0.648c0.101,0.506-0.365,0.688-0.648,0.992c0.041,0.061,0.041,0.182,0.041,0.243
		c0,0.304-0.122,0.547-0.122,0.851c0,0.425,0.081,0.851,0.081,1.275c0,0.668-0.263,0.344-0.263,0.608
		c0,0.121,0.122,0.182,0.263,0.182c0,0.182,0.041,0.85,0.041,1.053c0,1.053-0.122,2.106-0.304,3.159
		c-0.243,1.296-0.304,2.794-1.64,3.402c-0.365,0.223-0.526,0.243-0.729,0.445c-0.081-0.041-0.364-0.101-0.486-0.081
		c-0.182-0.405-0.385-0.749-0.365-1.012c-0.02,0.041-0.263-0.547-0.546-0.729L51.817,27.492z M46.654,16.861h0.243l-0.081-0.122
		c0-0.162,0.688-0.121,0.729-0.243c0.344-0.243,0.122-1.073,0.243-1.255c0-1.721-0.668-1.235-0.851-1.964
		c-0.101-0.364,0.81-0.425,0.81-0.729l-0.203-0.061c-0.02,0-2.288-0.182-2.43,0.182c0.182,0.607,1.296,1.094,1.296,1.58
		c-0.142,0.405-0.365,0.304-0.688,0.385c-0.364,0-1.114,0.486-1.154,0.526c-0.243,0.203-1.579,0.851-1.579,1.093
		c0,0.122,0.061,0.203,0.182,0.243c1.438,0,2.389,0.202,3.483,0.202V16.861z M43.475,25.103v0.203c0,0.162,0.02,0.324,0.182,0.324
		c0.445,0,1.397-1.033,1.397-1.458c0-0.04-0.243-0.162-0.243-0.162c-0.081-0.203-0.304-0.466-0.486-0.81
		c-0.061-0.182-0.365-0.324-0.365-0.607c-0.061-0.041-0.182-0.041-0.304-0.041c-0.182,0-0.182,0.284-0.182,0.405
		c0,0.102-0.081,1.438-0.061,1.539C43.415,24.576,43.475,24.88,43.475,25.103z M44.568,22.43c0.324,0.263,0.506,0.709,0.911,0.891
		c0.831-0.567,0.567-0.932,0.729-1.762c0.061-0.142-0.162-0.263-0.243-0.425c0.061-0.203-0.304-0.263-0.304-0.547
		c-0.304,0.061-0.425,0.365-0.668,0.547c-0.405,0.162-0.911,0.648-0.911,0.851C44.083,22.308,44.386,22.308,44.568,22.43z
		 M49.367,24.292v0.284c0,0.263,0.021,0.607,0.203,0.648c0.364-0.122,0.648-0.365,0.891-0.688c0.02-0.142,0.445-0.263,0.445-0.526
		c0.041-0.344-0.344-0.648-0.243-0.932c0-0.304-0.567-0.77-0.567-1.093c0.446,0,0.952,1.174,1.357,1.174
		c0.243,0,0.243-0.243,0.304-0.445c0-0.183,0.243-0.324,0.243-0.729c0,0-0.061-0.102-0.061-0.162
		c-0.061,0.081-0.648-1.478-0.79-1.478c-0.567,0-0.871,0.911-1.417,0.911c0-0.243,0.324-0.486,0.445-0.668
		c0-0.263,0.405-0.486,0.405-0.668v-0.425c-0.04-0.243-0.769-1.093-1.093-1.093c-0.122,0-0.243,0.182-0.243,0.304v1.579
		c0.142,0.425-0.021,1.296,0.202,1.782c0.021,0.081-0.122,1.964-0.122,2.065L49.367,24.292z M53.032,13.885
		c-0.364-0.304-0.729-0.546-0.972-0.911c0-0.142,0.081-0.122,0.243-0.122c0.061,0,0.425,0.243,0.486,0.243
		c0.243,0.122,0.546,0.061,0.85,0.122c0.061,0,0.668,0.304,0.729,0.304c0.81,0.02,0.83,0.364,1.093,0.364
		c0.243,0,0.506,0.122,0.668,0.122c0.041,0.041,1.64,0.405,1.64,1.053c0,0.445-2.085,1.154-2.187,1.154
		c-0.243,0-0.243-0.243-0.425-0.364c-0.486-0.365-0.972-0.446-1.215-1.053L53.032,13.885z"/>
	<path fill="#FFB000" d="M58.785,26.277c0.911,0.102,1.842,0.162,2.997,0.162c0.466,0,0.972,0.142,1.215,0.142h0.526
		c1.316,0,3.361,0.102,4.11,0.102c0.385,0,1.255-0.041,1.58-0.041c0.101,0,0.122,0.121,0.364,0.121c0.041,0,1.438-0.081,1.661-0.081
		c0.304-0.021,0.77,0.081,1.134,0.081c0.81,0,1.458-0.081,2.268-0.081c0.384,0,1.397-1.255,1.944-1.701
		c0.142-0.02,0.263,0.081,0.425,0.324c0.081,0.223,1.681,1.397,1.58,1.579c0,0.284-0.243,0.77-0.486,0.891
		c-0.648,0-1.276,0.02-1.822-0.041c-0.061,0-0.304-0.081-0.385-0.081c-0.223-0.02-0.466,0.081-0.648,0.081
		c-0.567,0-1.296,0.02-1.782-0.081h-3.118c-0.041,0-0.243-0.041-0.283-0.041c-0.688,0-1.175,0.122-1.782,0.122
		c-1.356,0-2.49,0.162-3.341,0.162c-1.154,0.081-2.248,0.081-3.402,0.122c-0.567,0.121-1.093,0.202-1.66,0.202
		c-0.304,0-0.365-0.506-0.526-0.81c-0.223-0.364-0.486-0.607-0.729-0.891C58.602,26.317,58.643,26.317,58.785,26.277z
		 M60.607,14.027c-0.041-0.203-0.365-0.324-0.365-0.567c0-0.162,0.122-0.162,0.243-0.162c-0.061,0,1.316,0.101,1.6,0.162
		c0,0.061,0.607-0.04,1.762-0.04c0.061,0,0.668-0.081,0.729-0.081h0.121c0.061,0,0.668,0.121,0.729,0.121
		c0.344,0,0.547-0.121,0.79-0.121c0.425-0.021,0.769,0.081,1.215,0.081c0.122,0,0.202,0,0.364-0.081
		c0.932,0,2.491-0.041,2.551-0.041h2.592c0.041,0,0.284-0.122,0.365-0.122l0.121,0.041c0.425,0.101,0.385-0.486,0.851-0.648
		c0.162-0.203,0.081-0.688,0.486-0.81c0.122,0,0.628,0.709,0.891,0.932c0.223,0.142,0.932,0.405,0.932,0.891
		c0,0.122-0.061,0.851-0.122,0.851c-1.195,0-2.045-0.041-3.118-0.041c-0.041,0-0.405,0.122-0.486,0.122
		c-0.627,0.02-1.559-0.081-2.045-0.081c-0.284,0-0.547,0.041-0.83,0.122h-1.984c-0.081,0-0.567,0.081-0.607,0.081
		c-1.094,0.041-2.146,0-3.24,0.121c-1.478,0-1.701,0.243-2.369,0.243c-0.182,0-0.729-0.081-0.729-0.081l-0.203-0.162
		C60.85,14.634,60.688,14.148,60.607,14.027z M62.672,20c0,0.02,2.875,0.324,2.936,0.364c0.061,0,0.182-0.061,0.182-0.061
		c0.607,0,1.519,0.061,2.571,0.061c0.122,0.061,0.365,0.122,0.486,0.122h3.361c0.506-0.223,0.486-0.466,0.77-0.668
		c0.405-0.162,0.607-0.831,1.053-0.932c0.364,0.405,1.944,0.952,1.944,1.6c0,0.668-0.324,0.83-0.608,0.911
		c-1.376,0-4.333,0.122-4.819,0.122c-0.243,0-0.263,0-0.365-0.061c-0.101,0-0.263,0.121-0.567,0.121h-1.336
		c-0.041,0-0.526,0.122-0.607,0.122c-0.182,0-0.526-0.061-0.769-0.061c-0.203,0-1.843,0.182-2.025,0.182
		c-0.547,0-1.033,0.061-1.336,0.061c-0.932,0.142-0.628-0.972-1.033-1.275c0-0.061-0.182-0.243-0.182-0.304v-0.061
		C62.328,20.02,62.49,20,62.672,20z"/>
	<path fill="#FFB000" d="M81.181,27.593c0-0.061,0.122-0.243,0.122-0.304c0.081-1.073,0.445-2.045,0.425-3.159l-0.061-0.081
		c-0.527-0.041-1.094,0.121-1.58,0.121c-0.466,0-0.729-0.162-0.729-0.607c0,0,0-0.162,0.041-0.162h1.093
		c0.365-0.203,1.053-0.122,1.479-0.203c0.061,0,0.486-0.122,0.546-0.122c0.405,0,1.093,0,1.276-0.122h0.061
		c0-0.041,0.263,0.081,0.425,0.081c0.567,0,0.607-0.567,0.607-1.053s-0.182-0.851-0.182-1.255c0-0.607,0.182-1.174,0.182-1.742
		c0-0.162,0-0.283-0.061-0.486c-0.061,0-0.122,0.081-0.183,0.122l-0.061-0.122c-0.223-0.02-0.405,0.081-0.607,0.081
		c-0.243,0-0.486-0.203-0.729-0.203c-0.081,0-0.081,0.081-0.081,0.183v0.243c0,0.061-0.02,0.162-0.041,0.182
		c-0.061,0-0.304,0.243-0.364,0.243c-0.081,0.101-0.729,0.729-0.911,0.729c-0.162,0-0.182-0.243-0.182-0.405
		c0-0.628,0.202-1.053,0.304-1.58c0.121-0.729,0.182-1.539,0.182-2.308c0-0.81-0.061-1.053-0.061-1.843
		c0-0.263-0.121-0.688-0.121-0.972c-0.041-0.101,0.101-0.182,0.182-0.182c0.304,0,0.425,0.365,0.729,0.365
		c0.729,0.041,1.377-0.122,2.126-0.122c0.304,0,0.607,0.061,0.911,0.061c0.364,0,0.668-0.061,0.911-0.364
		c-0.142,0.041,0.587-0.607,0.972-0.607h0.121c0.446,0.385,0.972,0.344,0.972,1.397c0.263,0,0.324,0.688,0.364,0.79
		c0.142,0.021-0.162,0-0.162,0.486c0,0.182,0.162,0.243,0.243,0.425c-0.081,0.061-0.324,0-0.324,0.183
		c-0.021-0.243-0.122,1.336-0.122,2.004c0.061,0.162,0.081,0.526,0.081,1.296c-0.385,0.263-0.83,0.506-1.174,0.891
		c-0.041,0-0.243,0.041-0.243-0.041c0-0.405,0.122-1.053-0.405-1.053l-0.992,0.122v0.081c-0.041,0.021,0.061,0.83,0.061,0.891
		c0,0.162-0.021,0.304-0.021,0.425c0,0.182,0.041,0.364,0.264,0.506c1.822,0,1.478-0.688,2.187-0.688
		c0.081-0.041,0.182,0.102,0.203,0.122v0.688c0,0-0.081,0.122-0.122,0.122c-0.749,0.203-1.559,0.203-2.329,0.243
		c-0.162,0.324-0.122,0.527-0.122,0.851c0,1.053,0.122,1.053,0.547,1.053c0.243,0,0.506-0.081,0.729-0.081
		c0.203,0,0.385,0.02,0.567,0.02c0.162,0,0.526,0.021,0.526-0.223v-0.142c0-0.142,0.021-0.263,0.243-0.263
		c0.081,0,0.122,0.121,0.122,0.243l-0.122,0.243c0,0.203,0.203,0.445,0.203,0.688c0,0.486-0.729,0-0.567,0.607
		c0,1.134,0.972,2.349,0.972,2.916c0,0.284-0.425,0.75-0.891,1.215c-0.344,0-0.688-1.033-0.688-1.276
		c-0.02-0.304,0.081-0.405,0.081-0.668c-0.122-0.405,0.304-2.43-0.486-2.672c-0.081,0-1.154-0.102-1.154,0.182
		c0,0.486,0.081,0.871,0.304,1.275c0,0.243,0.243,0.486,0.243,0.851c0,0.122,0.283,0.79,0.283,0.911v0.79
		c-0.142,0.425-0.83,1.114-1.215,0.972c-0.061-0.486-0.304-0.972-0.304-1.458c0-0.668,0.243-1.458,0.243-2.065
		c0-0.121,0.162-1.863-0.304-1.782c-0.243,0.243-0.365,0.405-0.729,0.405c-0.182,0-0.992,0.203-1.519,0.203
		c-0.587,0.203-0.83-0.02-1.033,0.486c0,0.891,0.223,1.802,0.304,2.693c-0.061,0.425,0.182,0.668,0.182,1.093
		c0,0.122,0,0.182-0.061,0.304c-0.324,0.304-1.336,1.154-1.701,1.154c-0.121,0-0.121-0.061-0.121-0.182
		C80.938,28.747,81.059,28.079,81.181,27.593z M81.91,20.405c0.365,0,0.729-0.041,1.093-0.041c0.122,0,0.365,0.061,0.486,0.243h0.85
		c0.061,0,0.243,0.122,0.243,0.162c0,0.405-2.268,0.364-3.159,0.364c-0.324,0-0.607,0.203-0.932,0.203
		c-0.263,0-0.445-0.911-0.486-1.093C80.695,20.243,81.302,20.405,81.91,20.405z M83.368,17.894c0.203,0,0.263-0.061,0.425-0.041
		c0.061,0,0.729,0.041,0.79,0.041c0.425,0.061,0.425-0.203,0.425-0.486c0-0.162,0-0.284-0.061-0.526
		c-0.223-0.041-0.425,0.283-0.729,0.607c-0.304,0-0.324-0.405-0.324-0.709c0-0.142,0.021-0.304,0.021-0.465
		c0-0.041-0.061-0.405-0.061-0.486c0-0.385,0.041-0.85,0.243-0.85c0.142,0.041,0.283,0.243,0.304,0.243
		c-0.102,0.304,0.486,0.567,0.486,0.851h0.061c0-0.324,0.021-0.668-0.061-0.79v-1.094c0.061-0.061,0.061-0.121,0.061-0.182
		c0-0.122-0.061-0.364-0.182-0.425c-1.458,0-1.701-0.182-1.701,0.729c0,0.547,0.122,1.195,0.122,1.721
		c0.061,0.364-0.061,0.851-0.061,1.255C83.125,17.489,83.125,17.894,83.368,17.894z M83.752,26.945c0-0.122-0.021-0.243-0.021-0.385
		c0-0.587,0.122-1.215,0.122-1.397c0-0.101-0.041-0.263-0.041-0.425c0-0.223,0.061-0.446,0.223-0.567
		c0.304,0,0.486,0.142,0.547,0.486h-0.243c0,0.081-0.041,0.101-0.041,0.142c0,0.02,0.041,0.061,0.102,0.122
		c0.061-0.061,0.182-0.061,0.243-0.061v0.061c-0.061,0-0.243,0.061-0.243,0.122c0,0.627,0.101,1.275,0.304,1.883
		c0.081,0.324,0.182,0.607,0.182,0.911c0,0.466-0.587,0.972-0.911,0.972c-0.061,0.02-0.304-0.182-0.304-0.243V27.29
		C83.732,27.188,83.752,27.066,83.752,26.945z M86.931,17.732h0.223c0.465,0.122,0.607-0.567,0.607-0.627
		c0-0.547,0-3.28-0.243-3.523h-1.114c-0.162,0.061-0.203,0.263-0.203,0.466c0,0.142,0.021,0.284,0.021,0.385
		c0,0.061-0.061,0.851-0.061,0.911c0.061,0.223-0.203,0.851,0.182,0.851c0.243,0,0.364-1.701,0.567-1.762
		c0.041-0.101,0.607,0.223,0.607,0.425c-0.364,0.83-0.445,1.62-0.851,2.308c0.061,0.102-0.122,0.304-0.122,0.446
		C86.567,17.732,86.77,17.732,86.931,17.732z M90.232,25.163c0-0.607-0.041-1.032-0.041-2.612c0,0.041,0.02-1.701,0.162-1.58
		c0.546,0,0.871,0.77,1.6,0.77c0.182,0,0.486-0.041,0.546-0.283c0.061-0.567,0.061-0.972,0.061-1.539c0-1.58-0.061-2.47-0.061-3.847
		c0-0.122-0.122-0.972-0.122-1.093c0-0.668-0.182-1.296-0.182-1.762c0-0.729-0.364-1.721-0.607-2.309
		c0-0.142,0.041-0.243,0.182-0.243c0.243,0,0.304,0.182,0.486,0.304c0.425,0.364,1.033,0.486,1.519,0.729
		c0.223,0.243,0.425,0.587,0.729,0.79c0,0.304,0.041,0.344-0.122,0.547c0,0.061-0.243,0.304-0.243,0.364
		c0,0.952-0.142,1.073-0.142,2.045c0,0.223,0.02,0.486,0.142,0.587c0.223,0,0.972,0.122,1.397-0.243
		c0.283-0.243,0.506-0.627,0.79-0.931c0.081-0.122,0.324-0.729,0.445-0.729c0.041,0,0.162,0.061,0.162,0.061
		c0.081,0.102,1.012,1.073,0.931,1.094c0,0.506,0.527,0.708,0.527,1.235c0,0.284-0.567,0.486-1.458,0.486
		c-0.142,0.021-0.405-0.081-0.526-0.081c0.061,0.061-1.64,0.243-2.39,0.243l-0.061,0.081c-0.061,1.377,0.304,2.389,0.304,3.523
		c0,0.223,0.041,0.486,0.425,0.486c0.182,0,1.033-0.284,1.154-0.526c0-0.304,0.182-0.81,0.567-0.81c0.02,0,1.782,1.093,1.458,1.336
		c-0.081,0-0.384,0.688-0.81,0.851c0,0.101,0.122,0.263,0.122,0.364v1.296c0,0.243,0.121,0.81,0.121,0.891v2.632
		c-0.405,0.506-1.134,0.688-1.701,0.972c-0.607-0.283-0.061-1.215-0.486-1.215c-0.851,0-1.64,0.061-2.491,0.061
		c-0.061-0.02-0.547,0.183-0.79,0.183c-0.061,0-0.122,0.061-0.122,0.061v1.276c0,0.425-0.79,0.405-1.033,0.79h-0.324
		c-0.183-0.668-0.162-1.944-0.162-2.855C90.191,25.832,90.232,25.467,90.232,25.163z M91.953,26.439
		c0.81,0.02,1.174-0.041,1.761-0.182c0.061,0,0.243-0.061,0.304-0.061c0.81,0,1.276,0.021,1.276-0.729
		c0-0.405-0.182-1.073-0.182-1.66c0-0.506,0.061-1.559-0.182-1.822c-0.75,0-0.831,0.081-1.215,0.081
		c-0.668,0-1.033,0.081-1.519,0.162c-0.668,0-0.668,0.324-0.668,0.831c0,1.033,0.041,2.187,0.182,3.26
		C91.771,26.378,91.892,26.439,91.953,26.439z"/>
	<path fill="#FFB000" d="M99.285,25.406c-0.122,0,2.146-1.012,2.187-1.114c1.174-0.526,2.085-1.093,3.058-1.863
		c0.304-0.081,0.364-0.243,0.547-0.486c0.385-0.405,0.526-0.648,1.033-0.972c0.688-0.587,1.032-1.174,1.66-1.863
		c0.405-0.425,0.851-0.668,1.093-1.255c0-0.202,0.041-0.972,0.041-1.174c0.061-0.668-0.122-1.356-0.122-2.065v-0.243l-0.041-0.061
		c0,0-0.445-0.122-0.567-0.122c-0.041,0-0.486,0.061-0.526,0.061c-0.587-0.021-1.134,0.061-1.539,0.061
		c-0.061,0-0.243,0.122-0.304,0.122c-0.506,0-0.79,0.122-1.154,0.122c-0.243,0-0.425-0.061-0.607-0.061
		c-0.506,0-0.365,0.851-0.425,1.175c-0.061,0.121-0.122,0.162-0.243,0.283l-1.093,1.093c0,0.243-0.486,0.81-0.932,0.81
		c-0.364,0-0.526-0.324-0.526-0.607c0.466-1.174,0.851-2.065,1.094-3.24c0.061-0.364,0-0.851,0.182-1.154v-0.911
		c0,0,0.061-0.122,0.122-0.122c0.567-0.121,0.526,0.81,0.85,1.336c0.243,0.304,0.486,0.304,0.851,0.365h3.28
		c0.243,0,0.486-0.061,0.729-0.122c0.425-0.081,0.931,0.162,0.931-0.79c0-0.223-0.101-0.932-0.324-0.79
		c-0.122,0-1.255,0.183-1.377,0.183c-1.215,0-2.592,0.061-2.814,0.304c-0.567,0.061-0.486-0.547-0.486-0.911
		c-0.02-0.263,0.122-0.304,0.183-0.304c0.182,0,0.79,0.081,1.681,0.081c0.263,0,0.546-0.021,0.749-0.142h1.903
		c0.021-0.081,0.567-0.061,0.851-0.061c0.223,0,0.466-0.081,0.607-0.122c0.101,0,0.162,0.041,0.243,0.041
		c0.081,0,0.122-0.041,0.243-0.101h1.417c0.526,0,0.972-0.304,1.377-0.607c0.202-0.122,0.445-0.486,0.81-0.486
		c0.243,0,0.284,0.183,0.486,0.304c0.162,0.122,0.729,0.183,0.729,0.486c0,0.83-0.688,0.526-0.932,0.79
		c-0.02,0.041-0.324-0.061-0.607-0.061c-0.445,0.061-0.749,0.183-1.134,0.183c-0.081,0.02-0.365-0.061-0.486-0.061
		c-0.081,0-0.243,0.182-0.324,0.182c-0.385,0.021-0.628-0.061-0.932-0.061c0,0-0.121,0.061-0.162,0.122
		c0,0.122,0.243,0.243,0.243,0.486c0,0.304-0.243,0.486-0.243,0.729s0.041,0.425,0.283,0.425c1.559,0,1.397-0.182,1.984-0.182
		c0.162,0,0.284,0.121,0.486,0.121c0.041,0,0.486-0.121,0.607-0.121c0.304,0,0.871,0.041,0.972-0.061
		c0.627,0,0.547-0.486,0.972-0.486c0.385,0,0.688,0.304,0.972,0.425c0.425,0.243,1.397,0.607,1.397,1.275
		c-0.142,0.668-0.283,0.304-0.972,0.79c-0.79,0-0.75,0.607-1.762,0.607c-0.203,0-0.364-0.122-0.364-0.284
		c-0.061,0,0.041-0.203,0.121-0.324c-0.101-0.122,0.122-0.547,0.122-0.851c0.021-0.142-0.041-0.364-0.202-0.364
		c-0.729,0-1.823,0.04-2.228,0.182c-0.101,0-2.167-0.142-2.268,0.364c0,0.223,0.021,0.486-0.081,0.628
		c0,0.385,0.081,0.83,0.081,1.215c0,0.871-0.263,0.688-0.567,0.972c-0.202,0.223-0.324,0.446-0.364,0.486
		c0.081,0.486,0.607,0.607,0.81,0.891c0.607,0.932,1.073,1.438,2.187,2.106c0.243,0.122,0.567,0.122,0.81,0.243
		c0.526,0.243,1.093,0.405,1.701,0.607c0.183,0,0.486,0.162,0.972,0.162c0.122,0,0.79,0.324,0.911,0.324h0.911
		c0.061,0,0.243,0.122,0.304,0.122c0.304,0,0.668-0.061,0.668,0.243c0,0.284-1.013,0.75-1.033,0.77
		c-0.183,0.203-0.77,0.851-1.154,0.851l-0.122-0.122c-0.425,0-0.77-0.243-1.174-0.405c-0.203,0.121-0.405-0.304-0.729-0.365
		c-0.283,0-0.729-0.182-1.012-0.486c-0.365,0-0.607-0.284-0.851-0.567c-0.041,0.02-0.061,0.02-0.101,0.02
		c-0.183,0-0.344-0.142-0.587-0.385c-0.081-0.283-0.506-0.344-0.81-0.85c0-0.041-0.283-0.243-0.283-0.284
		c0,0-0.77-1.539-1.094-1.255c-0.627,0.587-1.012,0.972-1.66,1.62c-0.263,0-0.526,0.243-0.648,0.526c0,0.202,1.458,0.122,1.58,0.122
		c0.891,0,0.769-0.527,1.255-0.527c0.425,0,1.012,0.668,1.012,0.972c0,0.122-0.061,0.405-0.284,0.405
		c-0.263,0.021-0.607-0.041-0.972-0.041c-0.142,0-0.506,0.061-0.851,0.162l-0.162-0.041c-0.567-0.041-0.891,0.162-1.58,0.162
		c-0.364-0.041-0.486-0.648-0.729-0.648c-0.364,0-0.708,0.405-0.851,0.405h-0.02c-0.364,0.243-0.668,0.607-1.033,0.81
		c-0.243,0-0.425,0.263-0.486,0.284c-0.061,0.162-0.243-0.122-0.911,0.567c-0.425,0-0.547,0.486-0.972,0.486
		c-0.061,0-0.729,0.283-0.79,0.283c-0.385,0-0.607,0.264-0.992,0.567c-0.506,0-0.911,0.668-1.499,0.668
		c-0.202,0-0.324-0.122-0.324-0.304C99.163,25.588,99.163,25.528,99.285,25.406z M104.468,15.302c0.364,0,0.729,0.041,1.154,0.041
		s0.79-0.041,1.174-0.041c0.405,0,1.215-0.101,1.215,0.365c0,0.162-0.243,0.364-0.446,0.364h-1.458
		c-0.243,0-0.304,0.162-0.486,0.162c-0.122,0-0.243,0-0.364-0.041l-0.122,0.041c-0.607,0.061-0.851-0.122-0.851-0.607
		C104.286,15.464,104.286,15.302,104.468,15.302z M104.347,17.732c0-0.202,0.182-0.243,0.304-0.243c0.243,0,0.546,0.081,0.607,0.041
		c0.101,0,1.336-0.041,2.065-0.041c0.202-0.122,0.364-0.688,0.567-0.688c0.142,0,0.162,0.162,0.162,0.304v0.182l0.081,0.243
		c0,0.202-0.02,0.648-0.081,0.729h-1.094l-0.162-0.041c-0.243,0-0.445,0.041-0.688,0.041c-0.041-0.061-0.932-0.041-1.458-0.041
		C104.407,18.137,104.347,17.894,104.347,17.732z M107.525,29.476c0-0.122,0.122-1.397,0.122-1.519
		c0.081-0.142-0.081-0.405-0.081-0.911v-1.64c0-0.405,0.041-0.668-0.364-0.668c-0.021-0.041-0.122,0.02-0.162,0.04
		c-0.041-0.121-1.377,0.203-1.66,0.203c-0.142,0-0.607-0.466-0.607-1.053c0-0.243,0.182-0.243,0.425-0.243
		c0.183,0,0.425,0.081,0.668,0.081c0.182,0,0.425,0,0.607-0.081c0.182,0,0.851,0.122,1.053,0.122c1.073,0,0.992,0.02,1.255-0.041
		c0.081,0,0.183,0.021,0.284,0.021c0.122,0,0.243-0.021,0.324-0.102c0.324,0,1.823-0.122,2.146-0.122
		c0.891,0,0.952-0.648,1.539-0.648c0.283,0,0.526,0.162,0.77,0.365c0.142,0.122,0.526,0.202,0.729,0.405
		c0.041,0.365-0.142,0.729-0.243,1.093c0.122,0.142-0.203,0.952-0.162,1.114v0.972c-0.041,0.182-0.304,0.546-0.324,0.668
		c-0.162,0.142-1.053,1.033-1.255,1.033c-0.972,0-0.608-0.466-1.175-1.275c-0.121-0.183-0.607-0.365-0.607-0.607
		c0-0.243,0.122-0.304,0.284-0.304c0.203,0,0.445,0.061,0.688,0.061c0.344,0,0.364-0.324,0.445-0.486l0.041-1.458
		c0-0.203-0.284-0.203-0.364-0.203c-0.284,0-0.567,0.122-0.81,0.122c0,0-0.162,0-0.284-0.041c-1.255,0-1.417,0.061-1.417,0.972
		c0,0.385,0.041,0.972-0.04,1.033c-0.021,0.061,0,0.142,0.04,0.304c0,0.81,0.041,0.911-0.04,1.154
		c-0.021,0.122,0.04,0.466,0.04,0.607c0,1.276-0.364,1.661-1.134,1.944c-0.445,0.061-0.729-0.465-0.729-0.85V29.476z M111.98,14.979
		c0.567,0.162,1.114,0.121,1.701,0.121c0.041,0,0.729-0.162,0.77-0.162c0.121-0.021,0.364,0.101,0.364,0.243
		c0,0.628-0.871,0.628-1.215,0.607c-0.081-0.081-0.466,0.162-1.093,0.162h-1.094c-0.202-0.122-0.243-0.364-0.243-0.607
		C111.17,14.897,111.798,15.161,111.98,14.979z M111.211,17.246l0.121-0.122c0.688-0.081,2.228-0.122,2.835-0.122
		c0.243-0.081,0.243-0.445,0.607-0.445c0.365,0,0.365,0.445,0.365,0.729c0,0.425,0.02,0.486-1.417,0.486
		c-0.041,0-0.243,0.081-0.284,0.081c-0.364,0-0.648,0.041-0.85,0.041c-0.081,0.061-0.344-0.041-0.486-0.041
		c-0.122,0-0.122,0-0.202,0.122h-0.486c-0.263-0.243-0.202-0.243-0.202-0.567V17.246z"/>
	<path fill="#FFB000" d="M128.343,21.762c0.061,0,0.79-0.203,0.871-0.203c0.364,0,0.729-0.081,0.729-0.486l0.122-1.458
		c0.041-0.122,0.041-0.243,0.041-0.364c0-0.365,0-0.567-0.041-0.932c-0.061-0.061-0.223-0.142-0.243-0.182
		c-0.365,0-0.688,0.061-1.053,0.061c-0.466,0-0.546-0.182-0.546-0.486c0,0,0-0.182,0.061-0.182h1.215
		c0-0.021,0.385-0.142,0.445-0.243c0-0.607,0.041-1.701,0.041-1.822c0.021-0.182-0.121-0.587-0.121-0.81
		c-0.041-0.486-0.122-0.526-0.608-0.526c-1.012,0-1.194,0.162-1.64,0.162c-0.365,0-0.668-0.162-0.912-0.486
		c0-0.162,0.263-0.162,0.365-0.162c0.122-0.021,0.851,0.02,0.911,0.041c0.668-0.122,1.397,0,2.085-0.122
		c0.182,0,0.486-0.162,0.972-0.162c0.283-0.182,0.648,0.041,0.85-0.203c0.243-0.041,0.709-0.769,1.094-0.769
		c0.182-0.122,0.526,0.83,0.526,0.891c0,0.081,0,0.324-0.122,0.324h-0.972c-0.243,0.364-1.479,0.162-1.499,0.486
		c-0.061,0.526,1.215,0.466,1.215,0.79c0,0.243-0.567,0.486-0.688,0.79c0,0.264-0.041,0.527-0.041,0.851
		c0,0.243,0,0.851,0.365,0.851c0.83,0,1.438-0.851,1.458-0.851c0.284,0.182,0.365,0.425,0.365,0.79c0,0.425-0.628,0.365-0.972,0.365
		c-0.142,0.162-0.992-0.021-1.215,0.364c0,0.183-0.081,1.215-0.081,1.417c-0.02,0.041,0,0.142,0.081,0.284v1.053
		c0.041,0.142,0.284,0.162,0.405,0.162c0.202,0,1.6-0.122,1.579-0.284c0.122,0,0.203,0.041,0.203,0.122s-0.709,0.526-0.972,0.526
		c-0.081,0-0.486,0.203-0.567,0.203c-0.425,0.263-0.546,0.101-0.77,0.243c-0.081,0-0.486,0.324-0.567,0.324
		c-0.283,0.122-0.486,0.162-0.77,0.284c-0.081,0-0.445,0.243-0.486,0.243c-0.081,0-0.486,0.203-0.567,0.203
		c-0.344,0-0.952,0.607-1.458,0.607c-0.101,0.061-0.162-0.284-0.243-0.445c0-0.385-0.547-0.567-0.547-0.972
		C126.642,21.701,127.877,21.802,128.343,21.762z M130.915,28.14c0.385-0.121,0.587-0.283,0.972-0.668
		c1.397-0.81,1.519-1.336,2.794-3.24c0.061-0.243,0.263-0.506,0.304-0.648c0-0.081,0.243-0.243,0.243-0.324
		c0.526-0.749,0.729-1.721,1.215-2.511c0.061-0.142,0.162-0.122,0.304-0.122l0.972,0.972c0.061,0.081,0.061,0.162,0.061,0.203
		c0,0.445-0.486,0.688-0.668,0.931c0.102,0.122-0.202,0.162-0.546,1.013c-0.122,0.081-0.304,0.202-0.365,0.324
		c-0.729,1.276,0.446-0.79-1.336,1.883c-0.425,0.486-1.033,0.79-1.356,1.397l-0.648,0.182c0,0.081-0.466,0.425-1.053,0.607
		c-0.365,0.122-0.79,0.365-1.094,0.365c-0.122,0-0.122-0.061-0.122-0.122C130.59,28.201,130.793,28.201,130.915,28.14z
		 M138.325,25.406c0-0.162,0-0.162-0.061-0.243c0.041-0.081,0.041-0.304,0.122-0.364l-0.061-0.081c0-1.559,0.122-1.984,0.122-2.349
		c0-0.081-0.061-0.324-0.061-0.365c0-0.688,0.041-0.911,0.203-1.377c-0.324-0.121,0.04-0.891-0.446-0.891
		c-0.243,0-0.546,0.122-0.79,0.122h-1.154c-0.364,0.243-0.304,0.607-0.425,0.972c-0.061,0.162-0.364,0.607-0.607,0.648
		c-0.425-0.283-0.546-0.77-0.607-1.255c0-1.458,0.061-1.984,0.061-2.389c0.041-0.243-0.122-0.506-0.122-0.729
		c0.041-0.263,0.182-0.648,0.182-0.972c0-0.02-0.061-1.336-0.061-2.207c-0.243-0.405-0.122-0.972-0.304-1.377
		c0-0.182-0.243-0.344-0.243-0.486c0-0.081,0.061-0.122,0.061-0.122c0.203,0.041,0.365-0.243,0.607-0.243
		c0.608-0.061,1.215,1.012,1.64,1.012h0.972c0.122-0.041,0.182-0.041,0.304-0.041s0.182,0.041,0.304,0.041
		c0.021,0.101,0.223-0.122,0.364-0.122c0.304,0,0.243-0.121,1.519-0.121c0.081,0,0.324-0.122,0.364-0.122
		c0.77,0.081,0.668-0.992,1.458-0.851c0.081,0,0.688,0.445,0.81,0.486c0.162,0,0.364,0.385,0.364,0.486
		c0,0.182-0.243,0.506-0.324,0.688c-0.121,0.264-0.243,0.972-0.243,1.701c-0.081,0.061,0.101,0.182,0.081,0.425
		c0,0.061-0.081,0.364-0.081,0.425c0,0.061,0.081,0.304,0.081,0.365v2.936c0.041,0.02,0.081,0.081,0.081,0.142
		c0,0.344-0.203,1.073-0.203,1.357c-0.162,0.101-0.567,0.729-0.972,0.729c-0.81,0-0.243-1.62-0.972-1.62l-1.053,0.122
		c0,0-0.122,0.041-0.122,0.122c0,0.121,0.324,0.486,0.364,0.607c0.122,0.02,0.688,0.83,1.094,1.215c0,0.324-0.608,0.243-0.729,0.445
		c-0.061,0.425-0.122,0.81-0.122,1.134v1.296c0,0.041,0.081,0.162,0.081,0.243c0,0.243-0.081,0.486-0.081,0.729
		c0,0.486,0.344,0.546,0.81,0.546c1.174,0,1.498-0.182,2.794-0.182c0,0,0.567-0.243,0.729-0.304c0.77-0.243,0.587-1.883,1.053-1.883
		c0.122,0,0.162,1.255,0.284,1.519c0.284,0.304,0.243,0.425,0.243,1.093c-1.094,0.972-2.47,0.729-3.726,0.851
		c-0.243,0-0.445,0.061-0.729,0.061h-2.106c-0.203,0-0.81-0.607-0.81-0.85C138.265,26.074,138.325,25.71,138.325,25.406z
		 M136.381,19.291c0.851,0,1.924,0.102,2.693-0.243c0.223,0,0.486,0.041,0.77,0.041c1.033,0,0.769-0.243,0.972-0.688
		c0-0.203-0.041-0.344-0.041-0.506c-0.081-1.336,0-2.612-0.081-3.969c0-0.607-0.02-0.972-0.607-0.972
		c-0.648,0-2.065,0.101-2.187,0.202c-0.425,0.041-1.883,0.061-1.883,0.405c0,0.122,0,1.053,0.182,1.093
		c0.061,0,0.486,0.081,0.547,0.081c1.093,0,1.6-0.203,2.126-0.203c0.486,0,0.466-0.364,0.81-0.364c0.162,0,0.162,0.081,0.162,0.203
		c0,0.243-0.041,0.486-0.243,0.607c-0.162,0-1.154,0.121-1.336,0.121h-0.283c-0.142,0-0.284,0-0.385,0.061h-1.094
		c-0.607,0-0.546,0.607-0.546,0.972c0,0.183,0.061,1.013,0.121,1.094l0.122,0.182c1.053,0.061,1.984-0.243,3.118-0.243
		c0.203-0.02,0.486,0.021,0.486,0.243c0,0.122-0.081,0.243-0.203,0.243l-0.243-0.061c-0.041,0-0.364,0.122-0.405,0.122h-0.628
		c-0.061,0-0.607,0.122-0.79,0.122c-1.499,0.101-1.579,0.061-1.579,0.688C135.957,18.805,136.017,19.291,136.381,19.291z
		 M141.16,18.603c0,0.04,0.021,0.081,0.021,0.081c0.081-0.02,0.324,0.102,0.324-0.142v-0.101
		C141.423,18.481,141.16,18.38,141.16,18.603z"/>
	<path fill="#FFB000" d="M149.221,23.341c0-0.972,0-1.944-0.061-2.916c0-0.365-0.122-0.81-0.122-1.174
		c-0.041-0.021,0.02-0.102,0.061-0.162c0-0.081-0.061-0.446-0.061-0.486v-0.081c-0.081-0.122-0.243-0.851-0.324-0.972
		c-0.203-0.364-0.223-0.83-0.648-1.093c-0.122-0.263,0.932-0.486,1.215-0.486c0.142,0.02,0.405,0.142,0.668,0.324
		c0.688,0.445,0.749,0.263,1.215,0.891c0.081,0.385-0.284,0.283-0.425,0.486c-0.122,0.203-0.122,0.567-0.122,0.729
		c0,0.122,0.061,0.445,0.182,0.445h0.912c0.081-0.081,0.243-0.081,0.384-0.081h0.284c0.324,0,0.628-0.041,1.093-0.041
		c0.061,0,0.304-0.121,0.365-0.121c0.607-0.081,1.174,0,1.782-0.081c0.041,0,0.526-0.122,0.648-0.122
		c0.445-0.041,1.296,0,1.296-0.648v-2.713c0-0.061-0.203-0.364-0.203-1.093l-0.162-0.162h-1.053c-0.041,0-0.607,0.122-0.648,0.122
		h-0.486c-0.081,0-0.243,0.122-0.324,0.122h-0.911c-0.85,0.364-1.822,0.364-2.733,0.486c-0.304,0.041-0.547,0.122-0.851,0.122
		c-0.182,0-0.607,0-0.668-0.243c0-0.506-0.486-0.81-0.486-1.093c0-0.081,0-0.122,0.061-0.122c1.357,0,2.004-0.101,2.875-0.101
		c0.708,0,2.065-0.142,3.321-0.142c0.142-0.02,0.304,0.041,0.445,0.041c0.041,0,0.891,0.061,1.458-0.162
		c0.668-0.688,1.356-1.255,1.701-1.782c0.284-0.081,0.749,0.344,0.668,0.729c0.587,0.365,1.154,0.101,1.154,0.81
		c0,0.486-0.263,0.364-0.486,0.486c-0.365,0.142-0.365,0.284-0.365,0.891c-0.02,0.162-0.121,0.526-0.121,0.972
		c0.02,0.061-0.061,0.182,0.061,0.365v1.174l-0.061,0.203c0.304,0.607,0.243,1.093,0.243,2.592
		c-0.061,0.324-0.182,0.324-0.364,0.567c-0.061,0.243-0.243,0.162-0.365,0.364c0,0.445-0.688,0.668-1.174,0.668
		c-0.243,0-0.425-0.243-0.607-0.425c-0.162-0.223-0.162-0.992-0.425-1.013c-0.02,0.041-0.445,0.162-1.194,0.162
		c-0.567,0-0.729,0.041-1.094,0.243c-0.081,0-0.243-0.081-0.324-0.122l-0.041,0.041h-0.567c-0.061,0-0.486,0.122-0.547,0.122
		C152.683,20,152.136,20,151.529,20c-0.243,0.243-0.972,0-1.033,0.425c0,0.283,0.021,0.546-0.061,0.729
		c-0.041,0.324,0.122,0.506,0.122,0.79c0,1.073,0.061,1.539,0.061,2.43c0,0.122,0.182,0.851,0.182,0.972
		c0.061,0.506,0.304,0.972,0.668,1.417c0.668,0,1.336,0.122,1.64,0.122c0.749,0,1.923,0.041,2.065,0.041
		c0.122,0,0.202,0,0.364-0.041c0.203,0,0.972,0.041,1.174,0.041c0.851-0.101,1.681-0.182,2.248-0.283
		c0.688,0,1.134-0.304,1.701-0.365l0.85-0.203c0.162,0.122,1.053-0.263,1.336-0.647c0.223-0.304,0.607-1.479,0.932-1.479
		l0.041,0.061v0.202c0,0.709,0.223,1.58,0.486,2.187c0.122,0.243,0.365,0.405,0.365,0.729c0,0.627-1.033,0.952-1.033,0.891
		c-0.992,0-1.458,0.324-2.43,0.324c-1.336,0.162-2.187,0.182-3.24,0.284c-0.648,0.081-1.255,0.202-1.944,0.202
		c-0.506,0-0.749-0.122-0.891-0.122c-0.122,0-0.587,0.162-0.851,0.162c-0.324,0-0.729-0.02-0.871,0.081
		c-0.567,0.021-1.093-0.101-1.64-0.243c-0.304-0.081-0.729,0-1.033-0.121c-0.283,0-0.526-0.486-0.607-0.567
		c0.02,0.081-0.607-0.425-0.607-0.527c-0.162-0.243-0.122-0.83-0.243-1.215C149.281,25.224,149.221,23.908,149.221,23.341z"/>
	<path fill="#FFB000" d="M172.751,26.925c0.486,0,0.567-0.263,0.851-0.445c0-0.628,0.223-0.79,0.364-1.276
		c0-0.688,0.445-0.992,0.445-1.761c0.061-0.264,0.061-1.944,0.365-2.005c-0.021-0.142,0.041-1.154,0.041-1.215
		c0-0.81,0.324-1.903,0.324-2.632c0-0.283,0.041-0.729-0.466-0.729c-0.465,0-0.627,0.122-0.952,0.122c-0.263,0-0.283,0-0.425-0.061
		c-0.183,0.162-0.527,0.041-0.608,0.364c0,0.445-0.304,1.053-0.304,1.154c-0.061,0.364,0.061,0.81-0.243,1.053v0.223
		c0,0.183-0.466,2.794-0.668,2.693c0.021,0.627-0.304,1.113-0.486,1.64c-0.223,0.567-0.364,1.66-0.972,1.822
		c0.061,0.364-0.243,0.567-0.486,0.81c-0.344,0.344-0.708,0.85-0.81,1.012l-0.729,0.729c-0.122,0.081-0.162,0.203-0.284,0.203
		c0-0.324,0.365-0.607,0.486-0.851c0.284-0.445,0.385-0.952,0.648-1.215c0.081-0.122,0.365-0.365,0.446-0.567
		c0.162-0.547,0.405-0.972,0.607-1.458c0-0.243,0.182-0.405,0.243-0.547c-0.101-0.142,0.122-0.324,0.122-0.486
		c-0.081-0.324,0.182-0.587,0.182-0.79c0-0.365,0.142-0.506,0.243-0.668c0-1.275,0.425-1.923,0.425-3.24
		c0.122-0.344,0.041-0.506,0.122-0.79c0.061-0.364-0.365-0.607-0.729-0.607c-0.547,0-1.033,0.122-1.58,0.122
		c-0.304,0-0.607-0.102-0.607-0.79c-0.122,0-0.243-0.243-0.243-0.304l0.121-0.061h2.916c0.304,0,0.425-0.364,0.486-0.547
		c0-0.79,0.304-2.105,0.304-2.025c0-0.04-0.061-0.607-0.061-0.648v-0.081c0-0.041,0.061-0.365,0.122-0.405v-0.688
		c-0.365-0.445-0.668-0.83-0.972-0.85l-0.061-0.041c0.121-0.324,1.397-0.365,1.64-0.446l0.79,0.365c0.182,0,0.506,0.405,0.972,0.607
		c0.081,0.567-0.546,0.851-0.546,1.053c-0.041,0.122,0.182,0.526,0.182,0.729c0,0.263-0.284,0.263-0.547,0.243
		c-0.283,0.425-0.243,0.85-0.304,1.275c0,0.061-0.182,0.668-0.182,0.729c-0.041,0.344,0.203,0.607,0.547,0.607
		c0.122,0,0.122,0,0.243-0.122h1.094c0.121-0.02,0.567-0.182,1.093-0.729c0.627-0.121,1.458,1.033,1.458,1.336
		s-0.648,0.729-0.729,1.094c0,0.385-0.162,0.708-0.162,0.972c-0.122,0.547-0.182,0.729-0.324,1.094c0,0,0.081,0.364,0.081,0.567
		c0,0.223-0.061,0.506-0.202,0.648c0.02,0.081-0.021,1.215-0.284,1.842v0.79c-0.122,0.182-0.081,0.425-0.122,0.607
		c0,0.121-0.243,0.972-0.243,1.093c0,0.851-0.182,1.741-0.688,2.491c0,0.223-0.425,0.364-0.405,0.607
		c-0.223,0.283-1.296,0.891-1.539,0.81c-0.061-0.02-0.304-0.364-0.365-0.445c0-0.263-0.061-1.255-0.486-1.701
		c-0.122-0.122-0.547-0.041-0.547-0.365C171.84,26.844,172.265,26.925,172.751,26.925z M178.097,26.844
		c0-0.304-0.021-0.648-0.021-0.992c0-0.304,0.021-0.627,0.142-0.952v-3.665c0-0.04,0.081-0.486,0.081-0.607
		c0-0.101,0.021-0.142-0.081-0.243v-2.065c-0.041-0.122-0.041-0.162-0.041-0.304c0-0.122,0.041-0.284,0.041-0.425l-0.041-0.304
		l0.041-0.061l-0.041-0.122c-0.061-0.284,0.041-0.628,0.041-0.911c-0.121-0.587-0.162-1.174-0.162-1.822
		c0-0.081-0.021-0.183,0.041-0.243c0.081,0,0.202,0.162,0.243,0.162c0.668,0.688,1.114,0.85,1.782,1.174
		c0.061,0,0.243,0.182,0.304,0.182c0.365,0.223,0.77,0.263,1.154,0.263c0.263,0,0.526-0.02,0.79-0.02l0.243,0.061
		c0,0,0.425-0.122,0.547-0.182c0.364-0.122,0.546-0.851,0.79-0.851c0.061,0,0.688,0.385,0.972,0.668
		c0.081,0,0.445,0.243,0.486,0.243c0.122,0.061,0.122,0.122,0.122,0.183c0,0.465-0.365,0.708-0.365,1.154
		c0,0.061,0.081,0.365,0.081,0.425c-0.041,0.081-0.122,0.466-0.122,1.053l0.041,0.122c0,0.405-0.041,1.276,0.081,1.336
		c0.021,0.263-0.081,0.466-0.081,0.648c0.182,0.75,0.122,1.519,0.122,2.268c0,0.891,0.041,3.341-1.519,3.341
		c-0.061,0-0.182,0-0.182-0.122l-0.122-0.607c-0.041-0.041-0.203-0.304-0.729-0.304c-0.567,0.102-1.863,0.122-1.944,0.122
		c-0.162,0.162-0.81-0.02-0.972,0.385c0,0.506-0.061,0.607-0.061,1.701c0,0.284-0.81,1.499-1.215,1.499
		c-0.263,0.122-0.567-0.607-0.567-0.891C178.036,27.755,178.097,27.269,178.097,26.844z M180,24.11c1.154,0,1.944,0.021,2.916-0.061
		c0.182,0,0.304-0.304,0.365-0.425c0-0.932-0.061-0.871-0.061-1.154c-0.061-0.871-0.061-1.762-0.122-2.612
		c0-0.081-0.061-0.81-0.061-0.851c-0.101-0.122,0.061-0.304,0.061-0.567c0-0.77-0.081-1.762-0.546-1.762
		c-0.668,0-1.478,0.061-2.187,0.122c-0.83,0.041-0.486,0.972-0.729,1.356l0.061,0.122v1.984c0.061,0.243,0.061,0.364,0.061,0.607
		c0,0.932-0.122,1.66-0.122,2.45v0.061C179.635,23.625,179.757,23.928,180,24.11z"/>
	<path fill="#FFB000" d="M187.271,28.687l0.79-0.79c0.304-0.061,0.486-0.304,0.729-0.486c0.831-0.749,1.255-1.275,2.065-2.126
		c0.932-0.952,2.045-2.41,2.43-3.563c0.122-0.162,0.122-0.486,0.243-0.648c0.081-0.081,0.445-0.81,0.486-0.851
		c0.182-0.81,0.668-1.458,0.932-2.268c0.203-0.547,0.364-1.154,0.486-1.701c0-0.283,0.203-1.336,0.445-1.336
		c0.365,0,0.405,0.547,0.851,0.547c0.263-0.445,0.243-0.972,0.243-1.539c0-0.283-0.081-0.607-0.446-0.607
		c-0.283,0-0.526,0.122-0.85,0.203c-0.102,0-1.114,0.243-1.701,0.405c-0.101-0.041-0.243,0-0.243-0.162
		c-0.102-0.081-0.102-0.466-0.324-0.688c-0.122-0.162-0.405-0.527-0.405-0.77c0-0.081,0-0.122,0.122-0.203
		c0.506,0,1.012,0.101,1.579,0.243h2.065c0.101,0.02,0.405-0.243,0.607-0.486c0.162-0.243,0.203-0.85,0.567-0.85
		c0.041-0.041,0.365,0.081,1.094,0.81c0.162,0.122,0.162,0.284,0.162,0.527c0,0.486-0.567,1.316-0.972,1.579
		c-0.162,0.243-0.243,0.688-0.243,0.992c0,0.547,0.122,1.154,0.203,1.701c0,0.061-0.122,0.182-0.122,0.243
		c0,0.041,0.162,0.365,0.162,0.486c-0.081,0.344,0.364,0.709,0.364,1.053l0.081,0.283c0,0.324,0.385,0.466,0.365,0.81
		c-0.162,0.081,0.304,0.243,0.304,0.405c0.061,0.445,0.425,0.445,0.607,0.81l1.397,1.417c0.547,0.648,1.235,1.114,1.883,1.58
		c0.708,0.506,1.417,0.972,2.146,1.377c0.162,0.121,1.154,0.405,1.094,0.81c0,0.061-1.661,0.425-1.904,0.547
		c-0.121,0.061-0.546,0.182-0.607,0.243c-0.243,0.121-0.364,0.425-0.668,0.425c-0.182,0-0.182-0.121-0.304-0.243
		c-0.304-0.547-0.425-0.365-1.458-1.397c-0.486-0.223-0.851-0.729-1.215-1.032c-0.749-0.486-0.972-1.033-1.397-1.701
		c-0.243-0.364-0.567-0.688-0.729-1.134c-0.122-0.284-0.203-0.648-0.324-0.972c0-0.041-0.243-0.526-0.243-0.607
		c0-0.041-0.122-0.405-0.122-0.486c-0.122,0.182-0.142-1.012-0.526-1.012c-0.203,0-0.365,0.405-0.446,0.526
		c0,0.324-0.364,0.607-0.364,0.972c-0.891,1.336-1.58,2.875-2.551,4.171c-1.316,1.053-2.389,2.248-3.766,3.28
		c0,0-2.086,1.519-2.146,1.519c-0.263-0.02-0.425,0.081-0.425-0.182V28.687z"/>
	<path fill="#FFB000" d="M214.223,28.626c-0.081,0-0.202,0.061-0.324,0.061c-0.162,0-0.405-0.122-0.405-0.304
		c0-0.526,1.336-0.122,1.823-0.79c0.263,0.202,0.364-0.446,0.364-0.729c0-0.122,0-0.365-0.162-0.365
		c-0.567,0.061-0.83,0.324-1.134,0.547c0-0.061-0.405,0.243-0.648,0.243c-0.466,0.202-0.648,0.546-1.215,0.546
		c-0.385,0.304-0.871,0.324-1.336,0.486c-0.385,0.121-0.607,0.384-0.972,0.364c-0.081,0-0.506,0.182-0.567,0.182
		c-0.182,0.061-0.85,0.182-1.032,0.243l-0.122-0.061c0.263-0.243,0.83-0.445,0.911-0.546c0.202-0.142,1.377-0.385,1.579-0.729
		c0.607-0.304,1.175-0.668,1.782-0.972c0.041,0,0.364-0.182,0.405-0.182c0.081,0,0.324-0.243,0.364-0.243
		c0.648-0.425,1.984-0.79,1.984-1.661c0-0.364-0.121-0.364-0.243-0.364c-0.446,0-1.296,0.445-1.782,0.729
		c-0.202,0.081-0.324,0.081-0.486,0.121c-0.364,0.122-0.688,0.324-1.053,0.446c-0.526,0.162-1.013,0.243-1.58,0.425
		c-0.041,0-0.486,0.243-0.526,0.243c-0.506,0.142-1.114,0.243-1.66,0.425c-0.183,0.061-0.365,0.182-0.607,0.182
		c-0.061,0-0.183-0.061-0.183-0.182c0.142-0.304,0.304-0.243,0.607-0.364c0.122-0.061,0.365-0.243,0.547-0.243
		c0.526,0.081,1.033-0.445,1.296-0.445c0.041,0,1.255-0.446,1.944-0.77c0.486-0.243,0.972-0.547,1.458-0.81
		c0.283-0.142,0.486-0.162,0.77-0.364c0.081,0,0.364-0.284,0.445-0.284c0.324-0.203,0.81-0.243,0.81-0.688
		c-0.122-0.466-0.122-0.648-0.648-0.648c-0.122,0-0.284,0.122-0.405,0.162c-0.081,0.081-0.688,0.364-0.729,0.445
		c-1.134,0.425-1.863,0.729-3.118,1.093c-0.506,0.324-1.275,0.385-1.944,0.608c-0.243,0.04-0.425,0.243-0.668,0.243
		c-0.102,0-0.425,0-0.425-0.223c0-0.263,0.911-0.385,1.033-0.466c0.061,0,0.547-0.283,0.607-0.283
		c0.243-0.122,0.547-0.122,0.79-0.203c0.688-0.162,1.417-0.405,2.025-0.729c0.041,0,0.365-0.162,0.405-0.162
		c0.041-0.041,0.668-0.223,1.175-0.688c0.283-0.263,1.215-0.587,1.215-1.053c0-0.081-0.102-0.122-0.203-0.122
		c-0.79,0-1.458,0.243-2.349,0.243c-0.324,0-0.567-0.243-0.688-0.526c-0.021-0.243,0.061-0.223,0.202-0.324
		c0.264,0.041,0.567,0.041,0.831,0.041c1.033,0,2.065-0.101,3.138-0.203c0.162,0,1.336-0.121,1.62-0.121
		c0.486-0.081,1.053-0.081,1.539-0.122c0.041,0,0.284-0.081,0.365-0.081c1.356,0,1.478-0.162,2.004-0.972
		c-0.182-0.121-0.486-0.121-0.729-0.121c-0.061,0-0.182,0.081-0.243,0.081c-0.182,0-0.365-0.081-0.486-0.081
		c-0.223,0-0.385,0.081-0.547,0.081c-1.519,0-3.564,0-3.726,0.162c-0.263,0-0.486-0.041-0.688-0.041
		c-0.425,0-0.871,0.122-1.377,0.122c-0.324,0-1.924-0.081-2.268,0.486c0,0.506-0.486,1.215-0.891,1.62
		c-0.446,0.203-0.446,0.729-0.871,0.729c-0.425,0-0.668-0.162-0.668-0.607c0.344-0.729,0.77-1.458,0.972-2.228
		c0.121-0.506-0.041-1.843,0.324-1.843c0.284,0,0.607,1.114,1.013,1.235c1.032,0,1.215-0.081,1.417-0.081l-0.243-0.304
		c-0.223-0.142,0.122-1.417-0.324-3.645c0-0.122-0.122-0.203-0.162-0.243c-0.749,0-1.235,0.041-1.903,0.041
		c-0.121,0.142-0.182,0.142-0.364,0.142c-0.445,0-0.607-0.627-0.851-0.911c0-0.122,0.061-0.243,0.183-0.243
		c1.438,0,2.814,0.162,4.191,0.162c0.162,0,0.79-0.121,1.822-0.121c0.77,0,0.891-0.365,0.891-1.094c0-0.486-0.445-0.85-0.81-1.134
		c-0.021-0.122,0.02-0.364,0.324-0.364c0.385,0,0.932-0.203,1.013-0.203c0.121-0.061,2.024,0.243,2.024,0.688
		c-0.182,0.607-0.364,0.952-0.364,1.499c0,0.202,0,0.324,0.122,0.445c0.526,0,0.871-0.081,1.336-0.081
		c0.324,0,0.668,0.122,0.79,0.081c0.243,0,1.519-0.122,1.762-0.203c0.425-0.283,0.729-0.891,1.215-0.891
		c0.203,0,0.243,0.061,0.486,0.243c0.243,0.162,1.154,0.486,1.154,0.851c0,0.506-0.911,0.364-1.458,0.364
		c-0.668,0-1.802-0.061-2.551,0.284c0,0.142-0.02,0.101,0.061,0.203c0.324,0.364,0.912,0.647,0.912,1.032
		c0,0.365-0.243,1.58-0.486,1.701c-0.385,0.061-0.871,0.122-1.215,0.122c-1.762,0-2.167,0.182-2.977,0.182
		c-0.344,0-3.482-0.021-3.482,0.364l-0.203,0.851l0.081,0.142c0,0,0.364,0.041,0.526,0.041c0.284,0.041,0.79-0.041,1.174-0.041
		c1.134-0.081,2.228,0,3.402-0.081c0.445,0,0.932-0.182,1.356-0.182h1.033c0.365-0.101,0.871,0,1.094-0.122
		c0.061-0.02,0.121,0,0.243,0.061c0.405-0.162,0.526-0.851,1.094-0.851c0.304,0,0.384,0.668,1.154,1.174
		c0.203,0.122,1.174,0.77,1.174,0.972c0,0.162-0.121,0.243-0.243,0.243c-0.992,0.122-1.903,0.162-2.875,0.365
		c-0.243,0.041-0.364,0.405-0.668,0.405c-0.526,0-0.972,0.102-1.215,0.081c-0.183,0-1.782,0.162-1.944,0.162
		c-0.79-0.041-1.134,0.162-1.58,0.486c-0.304,0.061-0.243,0.243-0.243,0.324c0,0.121,0.243,0.81,0.243,0.931
		c0,0.729,0.182,2.45,0.365,2.957v2.207c0.081-0.061-0.587,1.944-1.175,1.944c-0.324,0-0.465,0.486-0.769,0.486
		c-0.122,0-0.122,0-0.243-0.061C215.073,29.172,214.83,28.626,214.223,28.626z M212.886,14.492c0.324,0,0.102,0.668,0.648,0.607
		c1.276-0.364,2.41-0.223,3.686-0.304c0.162,0,1.134-0.121,1.336-0.121c0.364-0.122,1.033-0.628,1.033-1.033
		c0-0.183-0.344-0.203-0.607-0.203h-0.304c-0.081,0-0.364,0.081-0.445,0.081h-2.227c-0.081,0-0.324,0.122-0.365,0.122
		c-0.466,0-0.79,0.122-1.499,0.122c-0.668,0.04-1.255,0.04-1.944,0.162C212.198,14.27,212.623,14.391,212.886,14.492z
		 M213.777,16.375c1.296,0.061,2.592-0.122,3.847-0.122c0.486,0,0.972,0,1.417-0.243c0.122-0.061,0.122-0.304,0.122-0.425
		c0-0.183-0.203-0.365-0.365-0.365c-0.122,0-0.202,0-0.324,0.061h-1.336c-0.243,0.061-0.486,0.121-0.729,0.121
		c-0.203,0-0.324-0.061-0.526-0.061c0,0.021-1.195,0.243-1.863,0.243c-0.243,0.061-0.77,0.121-0.77,0.425
		C213.251,16.315,213.534,16.375,213.777,16.375z M218.07,21.843c0.405,0,0.607,1.62,1.215,1.62c0.263-0.162,0.85-0.729,1.275-1.174
		c0.243-0.243,0.364-0.81,0.79-0.81c0.081,0,0.405,0.243,0.607,0.526c0.203,0.142,0.729,0.486,0.729,0.648
		c0,0.526-0.648,0.263-0.911,0.688c-0.405,0.425-0.952,0.203-1.215,0.607c-0.101,0-0.122-0.041-0.182-0.081
		c-0.526,0.385-0.547,0.102-0.547,0.486c0,0.121,0.182,0.486,0.304,0.567c0.77,0.486,1.114,0.891,1.58,0.891
		c0.304,0.284,0.607,0.243,0.911,0.385c0.243,0.223,0.871,0.547,1.154,0.547c0.567,0.122,1.154,0.243,2.004,0.243
		c0.101,0,1.093,0.182,1.093,0.182c0.021,0.122-0.101,0.364-0.243,0.364c-1.134,0-1.58,0.122-2.309,0.304
		c-0.425,0-1.235,0.79-1.762,0.79c-0.243,0-0.546-0.122-0.729-0.243c-0.061,0-0.243-0.304-0.304-0.304
		c-0.729-0.486-1.154-0.83-1.58-1.154c-0.486-0.364-0.729-1.194-1.154-1.478c0-0.041-0.202-0.486-0.202-0.526
		c-0.041-0.041-0.284-0.729-0.284-1.174c0-0.344-0.445-0.831-0.445-1.62C217.868,21.923,217.868,21.843,218.07,21.843z
		 M222.14,19.291l0.364-0.364c0-0.162,0-0.486-0.304-0.486c-0.122,0-0.972,0.101-0.972,0.243
		C221.533,18.805,221.634,19.332,222.14,19.291z"/>
	<path fill="#FFB000" d="M236.376,26.965l-0.081-0.162c0-0.364,0.061-1.782-0.284-1.782h-2.025
		c-0.182,0.061-0.425,0.061-0.607,0.061c-0.405,0-0.668,0.04-1.093-0.122c-0.162,0.182-0.284,0.182-0.547,0.182
		c-0.607,0-1.275-0.061-1.944-0.061l-0.203-0.183l-0.162,0.183l-0.122-0.122c-0.081,0.101-0.324,0.101-0.365,0.122h-1.417
		l-0.486-0.912c0-0.061-0.041-0.202,0.122-0.182c1.073,0.122,2.228,0.061,3.361,0.122c0.061,0,0.729,0.061,0.79,0.061
		c0.122,0,0.851,0,0.972-0.061h0.182c0.729,0,1.782,0.021,1.762-0.061c0.546,0,1.073,0.061,1.782,0.061
		c0.344-0.304,0.243-1.114,0.243-1.458c0-0.202-0.061-0.425-0.446-0.486c-0.972,0.122-2.105,0.122-3.159,0.122h-0.182
		c-0.851,0.122-1.519,0.122-2.308,0.122c-0.668,0-1.539,0.162-1.539-0.446c0-0.243,0.122-0.283,0.364-0.283
		c0.688,0,1.357,0.041,2.086,0.041c0.364,0,0.546,0,0.911-0.041c0.061,0,0.364-0.122,0.425-0.122h0.425
		c0.365,0,0.304-0.83,0.304-1.215c0-0.607-0.101-0.587-0.243-0.81c-0.607,0-0.648-0.02-1.094,0.081l-0.121-0.081
		c-0.142,0-0.729,0.122-1.276,0.122c-0.688,0-1.397-0.041-2.065-0.041c-0.202,0-0.445,0.041-0.607,0.041
		c-0.101,0-0.182-0.061-0.243-0.061c-0.041,0-0.061,0-0.081,0.021c-0.162-0.122-0.405-0.364-0.405-0.688l0.041-0.041h1.701
		c0.081,0,0.486-0.081,0.567-0.081c1.377,0,2.592-0.041,3.28-0.041c0.243,0,0.607-0.486,0.607-0.729v-1.053
		c0-0.364-0.243-0.304-0.547-0.425h-2.248c-0.344-0.182-0.486-0.344-0.486-0.668c0-0.061,0-0.122,0.122-0.122
		c0.749,0.122,1.539,0.122,2.308,0.122c0.324,0,1.033,0.122,1.033-0.183c0-0.182-0.122-0.364-0.243-0.546v-1.154
		c0.021-0.081-0.182-0.283-0.182-0.445c-0.891,0-0.891,0.081-1.215,0.081c-0.79,0-1.073,0.122-1.519,0.122
		c-0.061,0-0.425,0.121-0.506,0.121c-0.203-0.061-0.486-0.121-0.526-0.324c-0.081-0.162-0.243-0.648-0.243-0.729
		c0-0.344-0.081-0.284,0.365-0.284c-0.061,0,1.458,0.162,2.248,0.162c0.182-0.041,0.243-0.041,0.425-0.041
		c0.121,0,0.304,0.061,0.425,0.041c0.486-0.203,0.85,0.101,0.85-0.851c0,0-0.122-0.283-0.122-0.364
		c-0.121-0.284-0.486-0.364-0.486-0.729c0-0.385,0.992-0.648,1.276-0.648c0.304,0,0.486,0.162,0.729,0.284
		c0.304,0.121,0.911,0.364,0.911,0.81c-0.102,0.486-0.284,0.385-0.284,0.851c0,0.607,0.041,0.607,0.648,0.648
		c0.243,0.041,0.688-0.223,0.851-0.162c0.202,0,0.486,0.162,0.486,0.365c0,0.607-1.984-0.041-1.984,0.851l-0.122,1.215
		c0,0.243-0.263,0.304-0.324,0.546c-0.021,0.102,0.202,0.344,0.243,0.365h4.759c0.121,0.061,0.324,0.081,0.486,0.081
		c0.445,0,0.668-0.021,1.275-0.021c0.243,0,0.365-0.364,0.547-0.364c0.284-0.203-0.202,0.324,0.729-0.607
		c0.243,0,0.202-0.061,0.486,0.182c0,0.385,0.647,0.729,0.729,1.215c-0.04,0.081-0.04,0.263-0.243,0.263
		c-0.061,0-0.142-0.02-0.182-0.02c-1.175,0-1.033,0.243-1.033,1.033c0,0.202-0.243,0.384-0.243,0.668
		c0.062,0.445,0.911,0.324,1.154,0.445c0.183,0,1.094,0.041,1.275,0.041c0.405,0.061,0.79-0.385,1.094-0.607
		c0.202-0.122,0.567-0.546,0.729-0.546c0.323,0,0.566,0.627,0.729,0.79c0.243,0.324,0.364,0.364,0.364,0.81
		c0,0.121-0.04,0.364-0.243,0.364h-1.377c-0.202,0.041-1.093,0.041-1.296,0.041c-0.242,0-0.364-0.122-0.546-0.122
		c-0.304,0-0.607,0.081-0.911,0.081l-0.183-0.081c-0.345,0-0.972,0.061-0.972,0.688v1.255c0,0.081,0.04,0.101,0.121,0.101
		c0.547,0,0.79-0.587,1.337-0.587c0.283,0.122,0.85,0.486,0.85,0.729c0.062,0.344-0.242,0.506-0.546,0.506h-1.337
		c-0.061,0-0.182-0.061-0.243-0.061c0.062,0.061-0.628,0.122-0.911,0.122c-0.304-0.102-0.668,0.02-0.85-0.122
		c-0.203-0.02-0.466,0.061-0.607,0.061c-0.506,0-0.972-0.061-1.539-0.061c-0.162,0.243-0.243,0.364-0.243,0.668
		c0,0.304,0,1.539,0.324,1.336c0.041,0,0.648-0.061,0.729-0.061h0.041c0.081,0,0.871,0.061,0.931,0.061
		c0.871,0.041,1.6-0.061,2.491-0.061c0.202-0.061,0.891-0.081,1.215-0.304c0.121-0.162,0.121-0.425,0.425-0.486
		c0.061,0.101,0.283-0.263,0.425-0.365h0.081c0.041,0,0.365,0.183,0.405,0.243c0.183,0,0.851,0.891,0.851,1.336
		c0,0.405-0.142,0.445-0.426,0.445c-0.688,0-0.668,0-0.83-0.081l-0.121,0.061c-0.81,0-1.479-0.061-2.146-0.061
		c-0.445,0-0.932,0.061-1.215,0.061c-0.385,0-0.486-0.061-0.729-0.061c-0.81,0-2.329-0.304-2.329,0.668
		c0,0.506,0.081,0.992,0.081,1.478c0,0.364-0.081,0.506-0.081,0.77c-0.041,0.83,0.122,1.316-0.648,1.822
		c-0.02-0.041-0.324,0.445-0.729,0.445c-0.567-0.526-0.607-0.708-0.607-1.215v-0.445c0-0.243-0.081-0.182-0.081-0.891
		C236.295,27.31,236.275,26.925,236.376,26.965z M235.04,21.478c0,0,0.486,0.081,0.648,0.081c0.729,0.142,0.608-0.668,0.608-1.093
		c0,0,0.02-1.094-0.405-1.094c-0.364,0-1.114,0.142-1.114,0.77c0,0.081,0.122,0.203,0.122,0.243v0.85L235.04,21.478z
		 M235.931,18.562c0.365,0,0.365-0.284,0.365-0.607c0.081-0.223-0.162-0.365-0.162-0.912c-0.122-0.364-0.446-0.364-0.729-0.364
		c-0.182,0-0.263-0.041-0.365,0.122c0,0.02-0.263,1.114-0.202,1.093C234.797,18.643,235.505,18.562,235.931,18.562z M239.575,13.521
		c0-0.324-0.364-0.445-0.607-0.445c-0.162,0-0.526,0.081-0.729,0.121c-0.344,0.021-0.527-0.223-0.527-0.607
		c0-0.121,0.041-0.243,0.162-0.243c0.142,0,0.203,0.02,0.324,0.081c0.304,0.041,0.911-0.081,1.356-0.081h0.223
		c0.243-0.365,0.365-0.587,0.365-1.013c0-0.324-0.243-0.567-0.243-0.931c0-0.486,0.668-0.365,0.972-0.405
		c0.102-0.081,0.122-0.081,0.304-0.081l1.154,0.324c0.041,0,0.122-0.041,0.162-0.041c0.243,0,0.445,0.162,0.506,0.445
		c-0.263,0.871-0.729,0.709-0.729,1.336c-0.041,0.223,0.081,0.446,0.243,0.446c0.04,0.041,0.283-0.081,0.364-0.081
		c0.061,0,0.243,0.081,0.304,0.081c0.425,0.061,0.729-0.162,1.032-0.365c0.223-0.324,0.831-0.486,0.851-0.486
		c0,0.081,0.77,0.547,0.851,0.972c0.041,0.122,0.081,0.304,0.122,0.284c0,0.324-0.284,0.445-0.527,0.445
		c-0.87,0-1.923-0.081-2.207,0.122c-0.182,0-0.506-0.122-0.911-0.122c-0.182,0.122-0.182,0.365-0.243,0.486
		c-0.932,0.405-0.81,1.519-1.943,1.519c-0.628,0-0.668-0.79-0.668-1.276C239.535,13.885,239.575,13.683,239.575,13.521z
		 M238.806,21.6c0.465,0,0.648-0.021,1.033-0.162c0.465,0,0.465-0.324,0.607-0.688c0-0.162-0.061-0.972-0.061-0.972
		c0-0.385-0.992-0.284-1.296-0.284c-0.405,0-0.77-0.02-0.77,0.162v1.336c-0.081,0-0.121,0.122-0.121,0.203
		C238.219,21.579,238.482,21.6,238.806,21.6z M238.826,18.562c0.486,0,0.891,0.121,1.377,0.121c0.526,0,0.304-0.607,0.486-1.032
		c-0.081-0.102-0.081-0.203-0.081-0.304c0-0.061,0.021-0.121,0.021-0.162c0-0.203-0.061-0.446-0.365-0.446
		c-0.324,0-0.607-0.061-0.85-0.061c-0.365,0-0.466-0.061-0.607,0.364c-0.466,0.081-0.446,0.425-0.446,0.729
		C238.36,18.542,238.482,18.562,238.826,18.562z"/>
	<path fill="#FFB000" d="M257.233,28.565c0-0.283-0.101-0.526-0.081-0.79c0-0.061,0.081-0.486,0.081-0.547v-0.061
		c0-0.061-0.081-0.668-0.081-0.729c0-1.033,0.081-1.701,0.081-2.936c0-0.749,0.162-1.741-0.566-1.741
		c-1.154,0-2.065,0.02-3.037,0.121c-0.062,0-0.608,0.041-0.79,0.122c-0.688,0.061-0.952,0.162-2.126,0.162
		c-0.304,0.081-0.547,0.203-0.871,0.203c-0.485,0-0.283-0.446-0.647-0.688c-0.304-0.203-0.851-0.486-0.811-0.526
		c0-0.122,0.203-0.203,0.243-0.203c0.972,0,1.539-0.162,1.722-0.162c0.061,0,0.304,0.122,0.364,0.122h0.789
		c0.122,0,1.397-0.203,1.519-0.203c1.216-0.122,2.431-0.041,3.646-0.162c0.688-0.081,0.445-0.81,0.566-1.256v-2.47
		c0-0.243-0.243-0.486-0.485-0.486c-1.519,0-2.309-0.162-2.633,0.284c-0.121,0.202-0.789,1.093-0.911,1.296
		c-0.081,0.223-0.77,0.648-0.79,0.85c-0.101,0.081-1.255,1.053-1.761,1.701c-0.122,0.081-0.243,0.121-0.365,0.121
		c-0.202,0-0.202-0.162-0.202-0.283c0-0.081,0-0.243,0.081-0.324c0.547-0.344,0.851-0.729,1.094-0.972
		c0.061-0.081,0.485-0.851,0.546-0.932c0.365-0.526,0.669-1.134,0.973-1.741c0.223-0.466,0.425-1.012,0.729-1.417
		c0.061-0.486,0.202-0.729,0.364-1.154c0.243-0.608,0.365-1.56,0.547-2.43c0.021-0.85-0.729-0.587-0.729-1.215l0.182-0.182
		c0.83-0.061-0.02-0.182,1.418-0.182c0.344,0.526,1.984,0.749,1.984,1.275c0,0.405-0.588,0.648-0.607,0.911
		c0,0.061-0.284,0.304-0.284,0.365c-0.121,0.182-0.081,0.486-0.202,0.729c-0.263,0.648-0.729,1.316-0.729,1.883
		c0,0.182,0.587,0.243,0.81,0.243c0.526-0.041,0.79-0.122,1.336-0.122c0.122,0,1.094-0.162,1.216-0.162h0.729
		c0.364,0,0.891-0.202,1.397-0.202c0.445-0.061,1.134-0.79,1.396-0.79c0.749,0.021,1.033,0.607,1.641,1.033
		c0.243,0.182,0.789,0.587,0.789,0.932c0,0.162-0.242,0.162-0.364,0.162c-1.053,0-2.085-0.122-2.612-0.122
		c-0.242-0.021-0.627,0.122-0.972,0.122c-1.174,0-1.6,0.101-1.6,1.093c-0.04,0.324-0.364,0.567-0.364,0.851v1.701
		c0,0.324,0.202,0.648,0.445,0.77c1.356,0,2.714-0.061,4.07-0.365c0.547-0.122,0.951-0.77,1.579-0.77
		c0.202,0,0.324,0.081,0.364,0.243c0.567,0.567,1.539,0.83,1.539,1.499c0,0.385-0.932,0.405-1.215,0.405
		c-0.688,0-0.992-0.122-1.296-0.122c-0.061,0-0.243,0.081-0.304,0.081c-0.344,0.021-0.466-0.081-0.729-0.081
		c-0.466-0.081-1.397,0.102-1.884,0.102c-0.121,0-0.263-0.021-0.364-0.021c-0.992,0-2.207,0.122-2.207,0.405
		c0,0-0.061,0.486-0.04,0.486c-0.021,0.02,0.04,0.263,0.04,0.445v2.733c0,0.061-0.121,0.304-0.121,0.365
		c0.142,0.142,0.202,0.567,0.202,0.972v1.58l-0.081,0.061l0.081,0.061c0,0.385-0.425,1.194-0.729,1.458
		c-0.223,0.102-0.425,0.102-0.485,0.243c-0.304,0.081-0.567-0.263-0.567-0.547C257.152,29.294,257.233,28.93,257.233,28.565z"/>
	<path fill="#FFB000" d="M272.847,28.019c0.547,0,0.972-0.122,1.215-0.365c0-0.122,0.122-0.81,0.122-0.931
		c0.121-0.851,0.061-1.62,0.121-2.511c0-0.202,0.061-0.202,0.061-0.891c0-0.041,0-1.357-0.283-1.357
		c-0.202,0-0.264,0.041-0.324,0.021c-0.061,0-0.364,0.243-0.425,0.243c-0.526,0.243-1.256,0.891-1.337,0.891
		c-0.061,0.081-0.607,0.243-0.668,0.324c-0.304,0.162-0.607,0.364-0.911,0.526c-0.081,0-0.324,0.122-0.445,0.202
		c-0.892,0.365-1.741,0.81-2.673,1.094l-0.041-0.041c0.062-0.324,0.628-0.405,0.892-0.567c0.162-0.162,0.485-0.344,0.851-0.486
		c0.08,0,0.364-0.202,0.445-0.202c0.627-0.526,1.215-0.628,1.883-1.013c0.709-0.385,0.83-0.749,1.275-1.053
		c0.324-0.425,0.811-0.81,1.215-1.134c0.304-0.243,0.426-0.607,0.79-0.81c0.263-0.021,0.183-0.425,0.607-0.729
		c0.243-0.364,0.607-0.79,0.851-1.154c0-0.061,0.324-0.243,0.324-0.304c0.404-0.81,1.215-1.62,1.215-2.369
		c-0.122,0-0.243,0.122-0.365,0.183c-0.242,0.121-0.566,0.121-0.81,0.304c-0.304,0.79-0.668,1.235-1.154,1.701
		c-0.364,0.425-0.668,0.851-1.093,1.215c-0.224,0.344-0.607,0.405-0.851,0.668c-0.547,0.567-1.154,0.77-1.762,1.093
		c0,0-0.243,0.122-0.304,0.203c-0.061-0.021-0.445,0.364-0.729,0.364c-0.83,0.526-1.66,0.628-2.511,0.972
		c-0.081,0-0.223,0.121-0.485,0.121c0.02,0-0.081,0.021-0.122-0.081c0-0.264,0.992-0.607,1.296-0.729
		c0.324,0,0.688-0.365,1.013-0.527c0.324-0.162,0.81-0.324,1.113-0.486c0.062,0,0.243-0.243,0.304-0.243
		c0.426-0.324,0.79-0.628,1.154-0.932c0.264-0.203,1.337-0.688,1.337-1.397c-0.122,0-0.243,0.061-0.365,0.061
		c-0.182,0-0.364-0.182-0.364-0.425v-1.154c0-0.061-0.121-0.061-0.121-0.061c-0.243,0-0.547,0.304-0.668,0.365
		c-0.851,0.486-1.661,1.093-2.552,1.519c-0.364,0.182-0.607,0.486-1.053,0.486c0-0.567,0.972-0.628,0.972-0.911
		c0.648-0.425,1.215-0.952,1.782-1.519c0.061,0,0.283-0.446,0.729-1.114c0.162-0.223,0.243-0.547,0.243-0.972v-0.182
		c0-0.223,0.021-0.466,0.243-0.587c0.364-0.081,0.405,0.587,0.607,0.85c0.162,0.122,0.324,0.385,0.547,0.607
		c0.344,0.041,0.445-0.506,0.485-0.607v-2.753c0-0.243-0.485-0.527-0.485-0.77c0-0.304,0.263-0.324,0.547-0.324
		c0.384,0,1.64,0.365,1.64,0.932c0,0.223-0.183,0.708-0.162,0.851l0.122,0.121c1.356,0.061,1.255-0.931,1.619-0.931
		c0.203,0,0.973,0.688,0.973,0.972c0,0.122-0.426,0.567-0.729,0.567h-0.851l-0.121,0.122c0-0.081-0.041-0.081-0.102-0.081
		c-0.243,0-0.425,0.021-0.547,0.081c-0.668,0-0.688,0.243-0.688,1.013c0,0.243,0.062,0.445,0.365,0.445
		c0.323,0,0.485-0.445,0.81-0.445c0.628,0.121,1.215,0.79,1.215,1.296h0.486c0.162,0.283,1.032,1.073,1.215,1.073
		c0.121,0,0.304-0.041,0.364-0.041l0.547-0.608c0.081-0.729-0.688-1.235-0.871-1.721c-0.061-0.102-0.729-1.094-0.729-1.336
		c0,0,0-0.122,0.081-0.122h2.43c0.385,0,0.749-0.122,1.215-0.122c0.547-0.041,0.668-0.729,1.154-0.729
		c0.566,0,1.093,0.83,1.093,0.932c0,0.526-0.546,0.708-0.972,0.891c-0.425,0.081-0.425,0.446-0.668,0.688
		c-0.061,0.041-0.304,0.284-0.364,0.365c-0.203,0.182-0.669,0.344-0.669,0.668c0,0.304,0.79,0.425,1.033,0.547
		c0.061,0,0.607,0.304,0.668,0.304c0.405-0.021,0.547,0.243,0.972,0.182c0,0,0.892,0.365,1.539,0.365
		c0.385,0.162,0.688-0.061,0.892,0.364c-0.041,0.364-0.527,0.304-0.77,0.425c-0.405,0,0.121,0.364-1.418,0.364
		c-0.364,0.061-0.547,0.243-0.972,0.243c-0.547,0-0.668-0.425-1.032-0.425l-0.669-0.668c-0.425-0.183-0.789-0.79-1.093-0.79
		s-0.607,0.243-0.79,0.425c-0.061,0.284-0.486,0.243-0.486,0.486c0,0.446,0.75,0.668,1.154,0.972
		c0.648,0.668,1.154,0.587,2.005,1.093c0.183,0,0.425,0,0.547,0.182c0.708,0.405,1.498,0.405,2.268,0.486
		c0.243,0.061,0.648,0.304,0.972,0.385c0.122-0.081,0.364,0.121,0.526,0.121c0,0,1.094-0.101,1.094,0.365
		c0,0.162-0.364,0.243-0.486,0.283c-0.182,0.284-1.153,0.527-1.7,0.81c-0.162,0-0.426,0.324-0.526,0.284
		c-0.688,0-1.235-0.405-1.782-0.648c-0.162,0-0.264-0.203-0.425-0.243c-0.062,0-0.243,0.041-0.304,0.041
		c0.161,0.203-0.243,0.668-0.243,1.093c-0.061,0.243-0.183,1.336-0.183,1.58c0,0.081-0.121,0.203-0.121,0.243
		c-0.062,0.182,0.121-0.021,0.121,0.202c-0.061,0.324,0.79,0.526,0.79,0.932c0,0.425-0.749,0.405-0.973,0.729
		c-0.182,0.121-1.396,0.526-1.396,0.77c0,0.384,1.134,0.769,1.215,0.85c0.709,0,1.215,0.365,1.943,0.365
		c0.122,0,0.547,0.081,0.607,0.081c-0.223,0.162,1.479-0.183,1.479,0.283c0,0.364-0.81,0.567-1.053,0.688
		c-0.162,0-0.77,0.526-1.033,0.526c-0.344,0-0.789,0.203-0.911,0.203c-0.283,0.041-0.526-0.203-0.789-0.203
		c-0.062,0-0.426-0.243-0.486-0.243c-1.094-0.324-1.943-0.952-2.875-1.62c-0.061-0.101-0.628-0.607-0.648-0.607
		c-0.304-0.041-0.627,0.02-0.931,0.162c0.08,0.142-0.507,0.223-0.729,0.445c-0.04,0.041-0.77,0.405-0.851,0.486l-0.162,0.041
		c-0.385,0.385-1.438,0.932-1.538,0.932c-0.062,0.041-0.365,0.243-0.426,0.243c-0.243,0.162-0.425,0.365-0.729,0.365
		c-0.062,0.02-0.081-0.041-0.243-0.203c0.04-0.627-0.364-0.749-0.364-1.255C272.726,28.18,272.726,28.059,272.847,28.019z
		 M273.515,16.254c0.264,0.405,0.507,0.992,0.79,0.79l0.486-0.486c0.182-0.425,0.304-0.729,0.546-1.093
		c0-0.182-0.242-0.243-0.425-0.243c-0.304,0-0.547,0.122-0.851,0.122c-0.425,0-1.094,0-1.094,0.243
		C272.968,15.869,273.394,16.072,273.515,16.254z M278.577,21.296c0.243,0,0.425-0.182,0.77-0.162l0.324,0.041
		c0.223,0,0.769,0.041,1.032-0.162c0.121-0.081,0.121-0.243,0.243-0.324c0.202-0.162,0.324-0.203,0.485-0.486
		c0.062-0.041,0.365-0.183,0.365-0.304c0-0.061-0.021-0.122-0.062-0.183c-0.445-0.041-0.688-0.79-1.215-0.79
		c-0.182,0-0.242,0.364-0.364,0.486c-0.385,0.385-0.566,0.466-0.972,0.466c-0.223,0-0.425-0.041-0.567-0.041
		c-0.344,0-0.708,0.162-1.012,0.122c-0.122,0-0.851-0.061-0.973-0.061c-0.081-0.061-0.202-0.183-0.242-0.183
		c-0.243,0-1.054,0.729-1.054,0.932c0,0.243,0.507,0.627,0.607,0.607h2.146C278.253,21.296,278.375,21.296,278.577,21.296z
		 M275.904,27.168c0.506,0,1.194-0.122,1.579-0.445c0.588,0,0.607-0.264,0.607-0.405c0-0.547-0.304-0.952-0.445-1.174
		c-0.344-0.344-0.425-0.324-0.851-0.324c-0.404,0-1.093,0.223-1.093,0.446c0,0.506-0.041,1.194-0.041,1.336
		C275.661,27.087,275.682,27.168,275.904,27.168z M276.066,22.754h4.576c0-0.243,0.121-0.527,0.121-0.77
		c0-0.324-0.425-0.445-0.607-0.445c-0.182,0-0.485,0.101-0.607,0.121c-0.445,0.061-0.851,0.061-1.275,0.061
		c-0.445,0-2.571-0.223-2.571,0.668v0.081C275.702,22.632,275.904,22.754,276.066,22.754z M276.025,24.333
		c0.041,0.041,0.607-0.041,2.228-0.041c0.202,0,0.486-0.122,0.688-0.122c0.041,0,0.283,0.041,0.364,0.041
		c1.337,0.041,1.337-0.142,1.337-0.85c0-0.041,0.04-0.365-0.183-0.284c-0.425,0-1.539,0.162-1.64,0.162
		c-0.081,0-0.324-0.041-0.365-0.041c-0.304,0.142-2.753,0-2.632,0.364l-0.04,0.607C275.783,24.211,275.944,24.333,276.025,24.333z
		 M276.755,19.352l0.283,0.061h1.66c0,0,0.122-0.061,0.162-0.122c0.264-0.182,1.033-0.871,0.972-0.972
		c-0.304-0.445-0.506-1.093-0.85-1.093c-0.243,0.364-0.385,0.546-0.973,0.546c-0.283,0.344-1.255,1.053-1.255,1.458V19.352z
		 M278.86,25.588c0.142-0.101,0.203,0.304,1.418,0.851l0.607-0.324l1.153-1.134c0.062-0.081,0.062-0.162,0.062-0.283
		c0-0.162-0.183-0.243-0.365-0.243c-0.202,0-0.546,0.122-0.85,0.122c-0.183-0.081-0.811,0.182-1.094,0.122
		c-0.304,0-1.458-0.041-1.458,0.283C278.334,25.224,278.698,25.467,278.86,25.588z M279.913,13.459c0,0.223,0.628,1.094,1.215,1.094
		c0.304,0,0.607-0.567,0.79-0.81c0.121-0.162,0.364-0.162,0.364-0.486c0-0.182,0-0.162-0.364-0.162
		c-0.121,0-1.802-0.061-1.843,0.324c-0.021-0.061-0.061-0.081-0.121-0.162c-0.041,0-0.041,0.081-0.041,0.122V13.459z"/>
</g>
<g>
</g>
<g>
</g>
<g>
</g>
<g>
</g>
<g>
</g>
<g>
</g>
<g>
</g>
<g>
</g>
<g>
</g>
<g>
</g>
<g>
</g>
<g>
</g>
<g>
</g>
<g>
</g>
<g>
</g>
</svg>
