<?xml version="1.0" encoding="utf-8"?>
<!-- Generator: Adobe Illustrator 17.0.0, SVG Export Plug-In . SVG Version: 6.00 Build 0)  -->
<!DOCTYPE svg PUBLIC "-//W3C//DTD SVG 1.1//EN" "http://www.w3.org/Graphics/SVG/1.1/DTD/svg11.dtd">
<svg version="1.1" id="图层_1" xmlns="http://www.w3.org/2000/svg" xmlns:xlink="http://www.w3.org/1999/xlink" x="0px" y="0px"
	 width="480px" height="150px" viewBox="0 0 480 150" enable-background="new 0 0 480 150" xml:space="preserve">
<rect x="-30" y="-23" fill="#FFE000" width="548" height="197"/>
<g>
	<path fill="#E0002B" d="M13.382,86.715c0.204-2.937-0.18-5.914,0.025-8.85c0.123-1.762,0.428-3.314,0.55-5.076
		c-1.603-0.997,1.303-6.008-2.514-6.273c-0.783-0.054-2.64,1.194-3.66,1.713c-1.438,0.884-3.254,1.544-4.888,2.414
		c-0.643,0.742-3.039,1.264-4.275,2.063c-0.922,0.526-2.766,1.578-3.94,1.496c-0.294-0.021-1.44-0.494-1.4-1.081l0.463-6.655
		c-0.561-0.433-0.52-1.021-0.479-1.607c0.014-0.196,0.976-1.309,1.269-1.289l3.818,0.266c0.628-0.546,1.83-0.856,2.724-0.991
		c2.154,0.15,4.487-0.868,5.172-0.82c1.998-0.451,4.374-0.679,6.218-1.731c0.601-0.154,0.648-0.839,1.276-1.386
		c0.419-0.364,1.342-0.89,1.06-1.106l-0.587-0.041c-0.084-0.203-0.248-2.083-0.228-2.376c0.021-0.293,0.709-1.721,0.73-2.015
		c-0.238-0.804-0.605-2.599-0.476-4.458c-0.815-2.417,0.425-4.691-2.609-4.903c-0.371-0.321-1.782,0.171-2.37,0.13
		c-2.251-0.157-4.194-0.488-5.347,0.513l-4.796-0.333l-0.607,0.252c-0.293-0.021-1.134-0.669-1.113-0.963
		c0.777-2.7-0.207-2.669,4.589-2.336c0.293,0.021,1.627-0.771,1.822-0.758c0.699-0.148,1.448,0.396,1.741,0.416
		c1.566,0.109,2.803-0.689,3.977-0.608l1.959,0.136c1.194-0.212,2.972-3.137,3.053-4.312l0.531-7.634l0.25-0.77
		c0.157-2.251-0.375-5.927-2.404-7.839c-0.169-0.405-1.33-0.683-1.681-1.297c-0.155-0.601,0.082-1.174-0.701-1.229
		c0.061-0.881,2.165-1.423,4.22-1.28c1.083-0.023,3.391,0.728,4.225,1.474c0.596,1.32,3.987,2.048,3.824,4.397
		c-0.041,0.587-0.346,2.14-0.946,2.295c-1.211,3.26-1.542,5.203-1.774,8.531c-0.429,6.167-0.889,7.118,3.816,7.348
		c2.112,0.737,2.05-2.611,3.519-2.509c1.555,1.681,3.467,3.88,4.152,3.928c0.293,0.021,1.884-1.639,1.973-2.912l0.308-0.175
		c-0.449-0.621,0.783-2.798,0.899-4.462c0.054-0.782,0.594-4.285,0.663-5.264l0.293,0.02c0,0,0.519,1.02,0.772,1.627
		c-0.2,1.462,1.844,3.178,1.647,6.016c0.505,1.215,1.721,0.709,2.561,1.358c3.229,0.225,9.329,1.632,9.56-1.695
		c0.218-3.132,0.866-3.972,0.955-5.245c0.177-2.545,0.95-7.999-1.961-9.972c0.048-0.685,1.516-0.582,1.816-0.66
		c1.469,0.103,2.352,1.541,3.5,2.014c1.314,0.879,4.775,0.627,5.891,2.968c0.086,1.579-0.878,1.315-1.366,2.658
		c0,0,0.31,1.202,0.296,1.397c-0.066,2.356-0.775,4.077-1.388,5.805c0.998,2.627,1.236,3.43,3.88,3.614
		c0.392,0.027,2.643,0.184,5.157-0.624c1.888-0.262,2.792-3.347,4.945-3.197c0.614-0.35,0.65,0.538,1.679,1.297
		c1.43,2.067,5.438,6.673,5.356,7.848c-0.15,2.153-1.657,4.015-3.811,3.865c-1.643-0.409-3.136,1.257-4.604,1.155
		c-0.567-0.335-4.376,0.679-4.226-1.474c-0.098-0.007,0.374-2.532,0.462-3.804l-1.133-0.668l-3.72-0.259l-0.567-0.335l-0.433,0.561
		c-1.369-0.096-2.503-0.765-3.678-0.846c-1.175-0.082-4.698-0.327-5.758,0.779l-3.524-0.246c-0.28-0.216-0.665-0.341-0.84-0.648
		c0,0-1.201,0.31-1.508,0.485c-2.937-0.205-4.286-0.593-5.763,2.254c0.511-0.259-2.606,7.785-6.13,7.54
		c-0.295-0.021-1.134-0.669-1.408-0.983c-2.186-2.513-1.674-5.625-1.483-8.365l-7.145-0.497c-1.824,0.759-4.091-0.58-4.315,2.65
		c-0.123,1.762-0.205,2.937,0.044,5.02c-0.061,0.881,0.087,1.58,0.074,1.775l-0.237,0.574c-0.157,2.251,0.615,3.878,2.866,4.035
		c1.566,0.109,3.1-2.144,4.96-2.015c0.293,0.021,0.587,0.041,0.839,0.648c-0.307,4.405-3.071,3.13-5.7,5.603l-0.561-0.433
		c-2.247,2.598-2.667,5.814-2.794,9.051c0.894,2.718,0.219,5.327,0.407,8.29c-0.007,0.099,0.021,8.164-0.353,13.548l-0.062,0.881
		c0,0-1.162,2.575-1.42,3.442c-0.708,1.721-4.282,5.013-6.044,4.89c-4.991-0.348-0.26-8.968-6.959-10.221
		c-0.874-0.159-2.37,0.13-2.289-1.044C4.696,88.569,11.648,90.43,13.382,86.715z M22.486,100.036
		c4.518-2.734,4.582-2.238,6.979-2.761c0,0,6.124-3.213,6.118-3.114c2.676-0.306,4.879-3.693,6.828-4.836
		c0.608-0.253,2.644,0.184,2.705-0.697c0.041-0.587-0.213-1.194-0.465-1.803c0.096-1.37,2.969-1.662,3.218-2.431
		c0.58,0.138,2.467-0.124,3.698,0.551l0.433-0.56c-0.644-0.635-1.252-0.382-3.771-2.327c-3.308-0.525-4.476-0.705-6.229-3.777
		c-0.392-0.027-1.007,0.323-1.216,0.505c-2.1,1.92-3.809,3.866-6.453,3.683c-0.586-0.041-1.599-2.473-1.544-3.256
		c0.815-1.812,3.543-4.277,3.583-4.864c0.062-0.881,1.875-2.919,2.609-3.556c-0.067-1.874,1.078-2.777,1.207-4.637
		c0.068-0.979-1.093-1.256-1.946-1.709c-1.979,0.157-2.685,0.403-4.739,0.26c-0.294-0.021-3.189-0.812-3.482-0.833
		c-0.776-0.153-1.202,0.31-1.495,0.29c-1.681-1.297-2.049-0.241-2.228-1.925c0.048-0.686,0.006-1.475,0.717-1.819
		c4.796,0.333,9.643,1.359,14.928,1.727c2.478-1.696,2.825-6.688,3.87-8.976c0.375-1.154,1.906-1.933,2.008-3.401
		c0.041-0.587-0.506-1.216-0.465-1.803c0.041-0.587,0.193-1.363-0.19-1.488c0.075-1.077-0.115-1.188,0.729-2.015
		c0.196,0.014,0.776,0.152,1.154,0.375l0.608-0.252c2.285-0.333,4.771,2.102,6.019,3.959c-0.042,3.439-1.656,4.016-3.189,6.27
		c0.095,2.858-2.041,3.89-2.211,6.337c-0.041,0.587,0.464,1.802,1.444,1.871l6.392,1.429c0.195,0.014,1.201-0.31,1.396-0.296
		c3.72,0.259,5.259,0.759,10.544,1.127c2.572-0.214,4.769-3.504,6.243-3.5c-0.118,0.287,5.206,2.919,5.056,5.073
		c-0.109,1.566-1.729,2.24-3.1,2.145l-1.16-0.278c-0.392-0.027-2.363,0.033-2.754,0.005c-2.748-0.093-5.126-1.242-7.385-1.301
		c-0.111,0.189-1.411,0.492-1.432,0.786l-0.055,0.783c-0.136,1.958-2.482,3.171-3.662,4.564c0.158,1.978-1.007,3.175-2.648,4.143
		l-0.027,0.392c-0.211,3.034-4.042,2.965-3.965,3.265c-0.041,0.588,0.743,0.642,0.729,0.837c-0.075,1.077-1.067,1.205-0.995,2.98
		c0.014-0.195,6.327,3.784,9.204,6.247c1.077,0.074,4.529,2.773,4.291,6.199c-0.164,2.349-2.224,3.681-4.377,3.531
		c-0.783-0.055-1.371-0.096-1.916-0.724c-1.555-1.682-4.757-5.15-4.352-5.318c-1.685,0.178-1.204-1.067-3.123-3.168l0.607-0.253
		c-0.647-2.012-3.68-2.224-4.514-2.97c-4.801,1.141-3.998,0.902-4.903,2.609c-2.714,2.271-7.253,5.298-9.886,6.394
		c-0.763-0.349-3.76,0.328-3.899,0.908c-0.669,1.134-4.527,1.456-4.588,2.337c-4.209-0.293-7.211,1.858-10.327,2.822
		c-0.196-0.014-0.135-0.895-0.135-0.895C17.037,102.018,20.167,100.857,22.486,100.036z M47.134,80.802
		c1.769,0.025,3.875,0.86,5.354-0.61c-0.506-1.216-1.903-0.92-1.821-2.094c0.143-2.056,2.114-2.115,2.284-4.562
		c1.884-1.639,1.966-2.813,2.116-4.967c0.116-1.664-0.471-1.705-0.41-2.585c-0.588-0.041-0.797,0.141-1.385,0.101
		c-0.587-0.041-1.16-0.278-1.552-0.305c-0.587-0.041-2.069,0.053-3.831-0.07c-0.027,0.391-1.378,2.854-1.966,2.813
		c-0.293-0.021-0.776-0.152-0.847-0.551c-0.041,0.587,0.513,1.117,0.779,1.529c-0.048,0.686-0.808,1.714-1.338,2.268
		c-0.055,0.783-2.551,4.15-2.103,4.771C43.417,77.691,45.667,80.7,47.134,80.802z M47.186,58.873
		c0.587,0.041,0.921-0.526,0.961-1.113c0.041-0.587-0.505-1.216-1.386-1.277c-0.313,0.273-0.636,0.645-0.69,1.427
		C46.325,58.519,46.598,58.832,47.186,58.873z M62.085,94.924c0.488,0.033,0.984-0.03,1.613-0.577
		c-0.938-0.655-2.092-1.03-3.267-1.111c-0.782-0.055-1.174-0.082-1.214,0.505C59.121,95.11,61.302,94.869,62.085,94.924z"/>
	<path fill="#E0002B" d="M91.418,103.062c2.552,0.079,5.539,0.976,8.181,1.159c2.056,0.143,1.999-0.451,3.271-0.362
		c3.432,0.141,7.054,0.393,10.611,0.148c2.545,0.177,3.956-0.314,7.479-0.069l0.629-0.547c0,0,0.723-1.917,0.764-2.504
		c-0.58-0.139,2.243-8.204-2.254-9.992c-1.608,0.479-2.79,0.494-3.964,0.412c-1.175-0.081-2.146-0.247-3.517-0.343l-0.224,0.378
		c-1.859-0.129-3.628-0.154-3.737,1.412c-0.041,0.588,0.016,1.182-0.004,1.475c0.03,0.985-1.337,2.269-1.378,2.854
		c0,0-2.57,1.592-2.864,1.571c-1.469-0.102-2.069-4.176-2.302-5.078c-0.212-1.194-1.318-2.255-1.236-3.43
		c0.041-0.587,0.389-1.35,0.731-2.014c0.279-4.014,0.515-4.587,0.216-7.362c-0.211-1.194-0.423-2.39-0.342-3.563
		c0.136-1.958,0.43-1.938,0.519-3.209c0.061-0.881-1.114-0.963-0.991-2.725c0.041-0.587,0.648-0.84,1.236-0.799
		c2.251,0.156,3.488,3.587,5.627,3.933c1.202-0.31,2.035,0.437,2.916,0.498c0.162,0.503,0.804-0.239,2.369-0.13
		c6.949,0.483,9.978,0.792,10.229-2.83c0.143-2.056-0.552-3.382-1.537-3.353c-3.034-0.211-4.65-1.012-6.29-2.896
		c-0.654-1.915-0.882-0.062-3.812-4.593c-0.168-0.405-0.984-2.822-1.166-3.031c0.075-1.077-3.417-3.188-3.71-3.208
		c-0.587-0.041-3.424,1.138-4.33,2.846c-2.587,3.262-2.205,2.01-9.743,8.567c-1.255,1.093-2.451,1.305-3.687,2.104
		c-2.486,1.794-4.271,3.44-6.828,4.836c-3.832,2.782-1.83,0.856-10.927,7.207c-0.844,0.826-1.823,0.758-2.997,0.676
		c0.102-1.468,1.729-2.24,2.965-3.039l6.281-5.464c0.217-0.28,3.1-2.145,3.316-2.425c1.647-1.065,2.377-3.081,3.654-4.466
		c0.942-0.82,2.165-1.423,3.1-2.145c2.806-2.165,3.81-3.866,6.056-6.463c3.015-2.347,3.709-5.25,6.711-7.401
		c0.055-0.783,3.2-4.99,3.987-6.411c0.136-1.958,1.987-3.107,2.13-5.163l-0.547-0.628l-4.11-0.286
		c-2.131,0.933-4.537,0.176-6.543,0.725c-0.293-0.021-2.417,0.815-2.71,0.795c-2.383,0.326-1.977-2.695-2.691-3.728
		c-0.252-0.608-2.117-3.492-2.663-4.12l0.123-1.761c0,0,0.308-0.175,0.601-0.155c1.664,0.116,2.349,0.164,3.51,0.441l9.984,0.694
		l0.56,0.432c1.174,0.082,2.711-0.794,6.919-0.502c9.593,0.667,16.016,0.229,23.586,0.264c4.591-0.958,8.705,0.705,13.001-0.275
		c0.392,0.027,1.871-1.443,2.263-1.417c2.74,0.191,3.402-5.074,6.395-4.276c2.642,3.036,5.821,6.798,5.624,9.637
		c-0.136,1.957-1.392,3.05-3.194,3.514c-1.565-0.109-2.026,0.843-3.633,1.321c-1.606,0.479-4.515-0.117-4.875,2.219
		c1.388,2.653,5.83,3.848,5.592,7.273c-0.096,1.37-5.857,0.773-8.305,0.603c-2.74-0.191-4.087,0.797-6.338,0.641
		c-0.782-0.054-1.559-0.207-2.538-0.275c-1.957-0.137-3.214,0.956-5.954,0.766c-0.082,1.175,0.842,2.026,0.774,3.004
		c-0.3,4.307,0.034,3.74,2.218,4.875c0.685,0.047,1.789-0.269,2.194-0.437c-0.007,0.098,0.111-0.189,0.573,0.236
		c8.25,0.181,10.234-0.075,14.932,0.252l0.966,0.264c2.727,0.387,5.926-0.375,10.331-0.068c0.275,0.314,3.873-0.517,3.764,1.049
		c-0.055,0.783-3.999,3.754-6.309,5.855c-1.884,1.639-3.577,4.767-6.513,4.562c-1.469-0.102-2.988-0.897-4.749-1.019
		c-1.816,0.66-5.09-0.354-5.333,0.317l-5.482-0.381c0.071,0.398-2.564,0.116-3.543,0.048c-0.979-0.068-3.592,0.734-3.646,1.517
		c0,0-0.091,4.125,0.888,4.192c1.839,0.423,3.312-0.949,4.78-0.847c1.174,0.082,2.504,0.764,3.679,0.846
		c0.979,0.068,1.803-0.464,2.41-0.717c2.488-0.417,1.983-1.633,3.647-1.517c1.761,0.123,2.659,1.365,3.966,2.342
		c1.681,1.297,4.06,2.446,3.903,4.697c-0.123,1.762-1.256,1.093-1.61,1.953l0.211,1.194c0.225,1-0.834,2.106-0.889,2.89
		l-0.143,2.056c-0.021,0.293-0.731,2.014-0.772,2.602c-0.146,0.678-1.27,1.288-1.277,1.386l-6.46-0.449
		c-0.608,0.253-1.411,0.491-1.998,0.45c-4.404-0.307-12.838-2.073-13.165,2.625c2.009,2.206-1.016,10.355,2.899,10.628
		c2.35,0.163,2.922,0.399,5.229-0.227c0,0,0.671,0.243,1.749,0.318c0.209-0.183,5.831,0.996,5.913-0.179
		c0.143-2.056-1.559-3.06-1.787-5.436c0.055-0.783-2.989-2.273-2.805-4.916c0.061-0.881,2.404-0.619,3.186-0.565
		c0.392,0.027,1.512,0.893,1.708,0.906c0.973,0.166,2.176,1.233,2.787,2.357c0.202-0.084,0.495-0.063,0.594-0.057
		c0.783,0.054,1.637,0.507,2.301,0.849c2.504,0.764,5.108,2.912,6.525,5.175c0.28,0.216,0.717,2.41,0.97,3.018
		c-0.07,3.831-3.062,3.033-4.773,4.979c-0.755-0.446-2.703,0.696-3.088,0.571c-2.957,0.09-1.601-3.849-4.636-4.06
		c-0.762-0.349-1.522,0.681-3.577,0.538c-2.033,0.94-4.055,0.308-5.719,0.192c-0.196-0.014-2.586,0.409-2.978,0.382l-0.685-0.048
		c-0.293-0.02-0.392-0.026-0.712,0.345l-8.473,0.196c-0.32,0.372-0.816,0.436-1.307,0.401c-0.488-0.034-0.775-0.152-1.069-0.173
		c-0.944-0.557-3.115,0.964-5.367,0.808c-1.762-0.123-4.348,0.287-4.936,0.246l-1.146-0.474c-4.307-0.299-9.742,1.486-12.874,1.269
		c-1.175-0.082-0.84-0.649-1.093-1.257c-0.626-2.306-3.79-4.886-3.702-6.158L91.418,103.062z M118.644,86.368l0.742,0.643
		c0.881,0.061,1.857-1.248,2.007-3.401c0.068-0.979,0.458-2.328-0.362-3.271c-0.588-0.041-3.091-0.805-3.679-0.846
		c-4.327-0.006-7.782-1.23-8.675,0.281c-0.109,1.566,0.464,1.803,0.179,5.914l0.371,0.32c2.832,0.296,5.208,0.067,7.852,0.252
		L118.644,86.368z M121.412,56.466c1.078,0.075,2.024-2.22,2.092-3.199c0.164-2.349-0.328-3.76-0.374-5.927
		c-0.189-0.111,0.284-1.259,0.332-1.944c0.191-2.741,0.92-8.985-0.548-9.087c-2.447-0.17-7.46-0.224-10.303,1.053
		c0.128,0.993,1.181,2.836,2.104,3.687c0.715,1.034,2.855,1.379,2.732,3.141c-0.027,0.392-0.068,0.979-0.486,1.343l-5.863,5.1
		c-0.537,0.65-1.736,2.338-1.757,2.631C112.407,55.839,117.791,56.214,121.412,56.466z M133.191,86.496
		c0.384,0.124,0.888-0.037,1.391-0.199c7.732,0.538,7.554-1.146,7.806-4.768c0.123-1.762-1.025-2.234-2.394-2.33
		c-1.763-0.123-3.727-0.161-5.489-0.283c-1.884,1.639-4.271-0.79-4.571,3.518C129.742,85.174,130.253,86.291,133.191,86.496z
		 M136.24,45.499c3.132,0.218,6.206-1.535,8.548-4.126c0.048-0.685-0.106-1.286-0.059-1.971c0.068-0.979,0.893-1.512,0.947-2.295
		c0.082-1.174-0.479-1.606-1.654-1.688c-0.678-0.146-6.99,0.104-8.263,0.016c-4.948,0.442-4.766,0.651-4.97,3.588
		C130.449,43.916,130.563,45.104,136.24,45.499z"/>
	<path fill="#E0002B" d="M156.58,74.059c0.186-1.266,0.009-2.949,0.131-4.711c0.014-0.196,0.291-1.357,0.318-1.749
		c0.575-6.844,0.069-8.06,0.288-11.192c0.416-5.97-0.229-6.605,0.131-11.793c-0.052-2.069-1.711-3.66-1.582-5.52
		c0.021-0.294,2.715-2.27,4.47-2.049c0.351,0.614,2.987,0.896,3.766,2.425c0.506,1.216-0.008,2.95,1.517,3.646
		c2.74,0.191,4.445-0.281,6.794-0.118c2.642,0.184,3.53,0.148,4.609-2.629c0.244-0.671,0.339-2.042,1.003-1.7
		c0.607-0.253-1.066-1.649-0.862-4.585c2.35,0.164,1.093,1.257,2.493,2.337c1.218,0.871,4.188,0.587,3.934,2.831
		c-0.075,1.077,2.192,2.415,3.251,4.16c-0.252,3.622-2.041,3.89-3.386,6.255c-0.17,2.447-0.026,4.621-0.196,7.067
		c-0.899,12.92,0.078,15.841-0.235,20.343c-0.041,0.587-0.068,0.979-0.375,1.154c-0.814,6.041-1.818,14.823-8.376,14.366
		c-0.881-0.061-1.175-0.081-1.107-1.06c-0.07-0.398,0.174-1.07,0.417-1.742c0.115-5.893,1.327-7.775-2.979-8.075
		c-0.831,0.631-2.977,0.383-4.74,0.26c-5.089-0.354-1.07,11.138-8.411,10.627c-0.175-0.308-1.842-1.8-2.704-3.532
		C155.009,82.506,156.314,77.876,156.58,74.059z M159.446,89.404c0.195,0.014,0.865-1.12,0.865-1.12l-1.957-0.136l-0.419,0.364
		C158.515,88.651,158.858,89.363,159.446,89.404z M164.736,76.987c2.937,0.204,5.62-0.199,8.557,0.005
		c0.928-0.624,2.715-2.271,2.525-2.381l0.45-6.46c-0.259-0.51-0.323-1.006-0.283-1.593c0.177-2.545,0.746-5.063,0.943-7.901
		c0.211-3.034-0.177-5.914,0.021-8.752l0.088-1.272c-0.254-0.607-0.82-0.942-1.387-1.276c-3.817-0.266-11.998-1.425-12.345,3.566
		c-0.164,2.35-0.891,9.97,1.361,10.127c3.914,0.272,5.367-0.807,7.715-0.644c0.588,0.041,1.742,0.416,1.681,1.297
		c-0.027,0.391-0.404,1.545-0.417,1.741c0.21-0.182,0.087,1.58-5.395,1.198c-1.175-0.082-3.83-0.07-4.793,1.043
		c-0.041,0.587-0.524,3.307-0.565,3.894c-0.054,0.783,0.116,2.566,0.342,3.565c-0.014,0.196-0.458,2.328-0.471,2.524
		C163.029,76.081,164.443,76.967,164.736,76.987z M170.493,112.99c0.388-1.35,1.975-1.534,2.805-2.165
		c0.797-0.141,2.199-1.912,4.043-2.964c0.313-0.273,2.137-1.031,2.451-1.305c1.368-1.282,4.16-3.251,6.26-5.17l0.412-0.267
		c0.021-0.294,1.338-2.268,1.365-2.659c0.669-1.134,2.445-1.207,3.114-2.34c0.102-1.469,2.573-3.067,2.662-4.34
		c1.256-1.093,5.304-8.384,5.502-11.222c0.123-1.763-0.827-0.846-2.226-1.926c-2.637-0.282-4.838,0.253-7.48,0.069
		c-1.957-0.136-3.654-2.614-3.518-4.572c0.211-3.034,3.845-0.125,4.226-5.607c0.041-0.587-0.464-1.802-0.26-4.739
		c-0.009-1.279,0.521-1.833,0.603-3.007c0,0-0.112-4.04-0.085-4.432c0.109-1.566,0.33-3.321,0.091-4.125
		c0.041-0.587,0.256-5.096,0.543-4.978c3.695,2.027,7.487,4.061,10.325,4.258c4.605-1.154,3.614-3.879,4.488-7.949
		c0.345-2.14,0.859-3.875,0.996-5.832c0.123-1.762-0.105-4.138-0.57-5.941c-0.479-1.606-2.186-2.512-2.036-4.666
		c0.382-1.252,1.648-1.065,2.823-0.984s3.043,1.491,4.576,2.089c2.007,0.827,3.776,0.853,5.456,2.149
		c0.119,3.942-3.898,5.138-4.123,8.368c-0.575,2.615-1.093,5.825-1.277,8.468c-0.116,1.664,0.188,2.964,2.243,3.107
		c3.719,0.259,6.736-4.941,8.889-4.792c0.587,0.041,0.587,0.041,0.854,0.453c0.472,1.705,1.576,1.388,3.906,3.223
		c1.242,1.955,3.778,0.853,3.594,3.496c-0.184,2.643-3.854,3.076-4.003,5.229c-0.048,0.685,0.002,1.377-0.052,2.16
		c-0.125,0.385-0.396,1.448-0.73,2.015c0.367,1.796,0.301,4.151,0.158,6.207c-0.061,0.881-0.213,1.657-0.274,2.538
		c-0.089,1.271,0.144,2.173,2.003,2.303c3.524,0.246,4.247-1.671,6.596-1.508c1.077,0.075,1.657,0.213,2.687,0.974l3.992,4.802
		l0.351,0.614c-0.243,0.671-1.046,0.91-1.732,0.863c-0.489-0.034-0.769-0.251-1.062-0.271c-2.349-0.163-4.823,0.059-7.956-0.16
		c-0.299,0.077-6.8,0.216-6.807,0.313c-1.763-0.123-9.983-0.695-10.092,0.871c-0.198,2.838,1.036,4.892,2.152,7.231
		c0.673,1.62,1.166,3.031,2.036,4.665c1.039,2.039,3.221,3.175,4.063,5.201c-0.381,1.252,1.324,0.78,2.453,2.924
		c1.092,1.257,2.841,1.575,3.947,2.636c1.302,1.074,3.552,4.083,4.53,4.15c1.296,1.172,6.458,3.302,6.39,4.28
		c-0.123,1.762-3.295,2.131-4.51,2.637c-0.392-0.027-1.627,0.772-1.824,0.759c-1.035-0.663-1.961,1.339-2.842,1.277l-2.349-0.164
		c-2.55-2.931-5.068-3.5-7.794-6.738c-3.915-4.501-2.986-5.125-7.267-10.046c-0.826-0.844-0.464-1.803-0.41-2.585
		c0.184-2.644-1.915-3.576-1.859-7.211c0.282,0.216-1.058-1.746-0.656-7.521c0.131-0.482-0.24-0.804-0.505-1.216
		c-0.979-0.067-2.146-0.247-2.755,0.006c-1.517,3.435-2.853,7.079-4.272,10.521c-0.25,0.769-1.297,1.68-1.534,2.253
		c-1.744,2.437-3.109,5.095-5.789,6.876c-2.089,4.575-10.594,9.49-16.041,12.85c-0.922,0.525-2.097,0.443-3.018,0.97
		c-0.607,0.253-1.864,1.346-2.472,1.599c-0.699,0.147-1.803,0.465-2.411,0.717c-0.942,0.82-3.633,1.32-4.862,2.022
		c-0.587-0.041-1.741-0.416-1.68-1.297C165.023,115.266,168.692,114.832,170.493,112.99z M196.879,70.175
		c-0.136,1.958,0.384,2.977,2.341,3.113c2.097-0.444,3.086-1.948,3.209-3.71c0.136-1.958,0.254-6.474,0.479-9.704
		c0.021-0.294,0.379-2.629,0.399-2.923c0.021-0.293-0.073-1.775-0.661-1.816c-4.991-0.347-5.464,0.8-5.56,2.17
		c-0.041,0.588,0.016,1.182-0.032,1.867C196.905,61.326,197.233,65.086,196.879,70.175z M210.405,73.674L215.104,74
		c1.175,0.082,2.258,0.059,2.836-1.179c0.157-2.251-0.057-3.446,0.032-4.719c0,0,0.493-2.818,0.874-8.299l0.334-0.567
		c0.123-1.762-0.048-3.544-1.455-4.527c-2.545-0.177-6.747-0.568-7.586,3.013c-0.054,0.783-0.025,1.769-0.514,1.735
		c-0.014,0.195,0.037,0.888,0.31,1.201c-0.832,3.483-1.733,7.945-1.979,11.468C207.867,73.399,209.23,73.592,210.405,73.674z"/>
	<path fill="#E0002B" d="M249.304,101.264c0.062-0.882,0.087-2.649,0.511-3.112c0.027-0.392-0.225-0.999-0.225-0.999l1.492-21.435
		l0.354-0.86c0.103-1.468,0.234-6.18-1.038-6.269c-0.37-0.32-1.841,2.429-2.888,3.34c-0.335,0.567-4.418,4.119-4.752,4.685
		c-1.689,1.652-2.944,2.745-4.81,4.091c-1.41,0.492-4.319,4.126-6.766,3.955c-0.587-0.04-0.783-0.054-0.743-0.642
		c0.109-1.565,2.145-1.129,3.121-2.438c0.885-1.413,2.534-2.479,3.81-3.865c0.656-0.938,0.71-1.721,1.555-2.547
		c1.834-2.331,2.95-4.22,5.014-7.027c2.601-3.458,5.39-6.805,8.103-10.452c0.359-2.335,4.901-6.838,5.201-11.145
		c0.376-1.154,0.478-2.622,0.854-3.777c0.416-1.741,1.692-3.127,1.836-5.183c0.102-1.468-1.934-1.905-1.872-2.786
		c0.041-0.587,0.649-0.84,1.236-0.8c0.587,0.041,1.134,0.669,1.721,0.71l0.608-0.253c2.446,0.17,4.69,0.425,6.275,3.092
		c0.017,1.181,2.249,3.008,2.12,4.868c-0.205,2.936-2.749,6.988-6.413,10.175c-0.948,0.918-1.618,2.052-2.26,2.794
		c-0.963,1.113-2.539,2.577-2.929,3.927c-0.35,3.615-1.323,6.3-1.541,9.433c-0.662,5.264-0.251,12.08-0.667,18.049
		c-0.067,0.979-0.514,1.735-0.456,2.329c-0.014,0.196,0.41,2.586,0.383,2.978c-0.464,6.655-0.169,6.676-0.851,16.464
		c-0.341,4.894,0.265,14.574-4.532,14.24c-0.488-0.034-2.267-1.338-2.267-1.338l-0.227-0.999
		C248.712,114.008,248.841,107.919,249.304,101.264z M279.601,116.747l0.56,0.433c5.846,0.801,5.847-6.281,6.872-11.127
		c0,0,0.163-2.349-1.011-2.431c-4.215,4.034-10.189,9.322-15.108,10.751c0.392,0.027-7.259,5.396-10.782,5.15
		c-0.294-0.021-0.881-0.061-0.84-0.648c0.067-0.979,6.341-3.492,8.923-5.28c0.629-0.546,1.298-1.681,2.473-1.599
		c1.64-0.967,5.944-6.274,9.854-8.756c1.187-1.49,1.108-1.791,3.837-4.257c0.221-1.755,2.5-1.99,2.636-3.948
		c0.027-0.391-0.146-3.55-1.027-3.611c-0.49-0.034-1.062,1.106-1.577,1.464c-1.371-0.096-4.288,2.259-6.941,3.647
		c-1.566-0.108-2.682,1.78-4.052,1.686c-2.039,1.038-4.288,2.259-6.3,2.905c-2.222,0.829-4.176,2.069-6.721,1.893l0.04-0.587
		c3.261-1.642,5.857-3.625,8.714-5.099c0.784,0.055,1.689-1.652,2.709-2.171c2.852,0.001,3.363-3.11,6.132-3.312
		c0.502-0.161,7.995-4.656,8.151-6.907c0.021-0.294,0.144-2.056-0.64-2.11c-0.587-0.04-1.194,0.213-1.803,0.465
		c-3.781,0.622-5.726,3.143-14.328,5.199c-1.774,0.073-3.744,1.51-5.995,1.354c-0.293-0.021-0.587-0.041-0.84-0.648
		c1.401-1.771,3.669-0.434,4.932-1.624c-0.539-0.726,2.434,0.366,4.479-2.147c0.392,0.027,2.233-1.024,2.43-1.011
		c1.216-0.506,2.863-1.571,3.688-2.104c3.318-1.048,5.652-4.917,9.278-6.141c1.607-0.478,3.276-1.837,4.707-2.623
		c0.411-0.266,0.452-0.854,0.648-0.84c0.392,0.027,2.517,3.421,2.517,3.421c-0.103,1.469-2.492,1.893-2.574,3.066
		c-0.055,0.783,1.598,2.472,2.38,2.526c0.196,0.014,0.986-0.03,1.588-0.185c1.72,0.71,1.618,2.178,2.104,3.687
		c1.178,1.459,2.049,4.47,2.818,4.721c1.894-0.359,4.994-2.505,7.186-4.319c0.341-0.664,4.864-4.874,5.319-4.351
		c0.931,0.753,3.907,3.223,3.846,4.104c-0.082,1.175-2.848,2.752-8.884,4.692c-0.419,0.364-3.409,0.943-3.633,1.321
		c-1.02,0.519-3.011,0.872-2.863,1.57l-0.014,0.196c2.511,4.896,6.146,7.805,9.094,10.665c1.687,1.198,3.529,2.999,9.294,6.351
		c0.56,0.433,2.028,0.535,2.268,1.339l-0.32,0.37c-0.952-0.459-3.019,0.971-5.716,1.569c-1.901,0.458-2.568,1.592-4.807,1.239
		c-4.214-3.047-7.856-7.234-10.507-11.55c-1.166-3.031-2.451-5.776-3.498-9.095c-0.444-2.097-0.402-5.536-2.445-7.252l-0.629,0.547
		c-0.418,4.593-0.046,9.144-0.38,13.939c-0.34,4.894-1.66,9.72-2.783,14.56c-0.653,2.314-0.786,5.649-4.838,7.334
		c-0.392-0.027-2.066,1.43-2.262,1.416c-0.602,0.155-1.021,0.52-1.607,0.479c-1.37-0.096-1.093-1.256-1.612-2.275
		c-1.274-1.466-1.402-2.458-2.286-3.897c-0.351-0.614-1.134-0.669-1.484-1.283C278.398,117.058,279.014,116.707,279.601,116.747z
		 M264.474,44.39l0.587,0.041c0.062-0.881-0.13-2.37-0.696-2.705l-0.041,0.587C264.255,43.292,264.214,43.88,264.474,44.39z
		 M275.163,75.918c0.171-2.447-0.483-4.361-0.286-7.199c0.238-3.426,1.362-12.494-0.497-12.624
		c-1.078-0.075-4.353,1.762-7.069,2.655c-0.588-0.041-0.588-0.041-0.547-0.628c0,0,5.285-3.861,7.314-6.179l1.52-2.058
		c2.013-0.647,1.598-1.758,2.575-3.066c2.357-2.787,5.02-7.125,5.217-9.964c0.204-2.937-2.557-2.833-2.495-3.714
		c0.021-0.293,1.04-0.813,1.236-0.8c0.586,0.041,2.699,0.779,3.286,0.82c1.154,0.375,1.938,0.43,3.092,0.805
		c4.322,1.481,5.939,2.282,5.803,4.24c-0.108,1.566-2.736,2.563-2.853,4.227c-0.095,1.37,1.682,1.297,2.465,1.352
		c1.031-0.715,6.398,1.331,9.693-0.801c1.117-0.512,2.083-3.101,3.532-2.705c0.175,0.308,1.639,1.884,1.814,2.192
		c0.917,0.949,2.658,1.365,2.536,3.127c-0.082,1.174-1.729,2.241-2.533,2.479c-3.396,0.748-5.955,3.618-9.217,5.26
		c-1.371-0.095-2.165,1.423-2.962,1.564c0.378,0.223-5.701,1.374-5.852,3.527l0.352,0.615c4.11,0.286,5.814-0.186,10.415,0.134
		c4.111,0.286,4.748-3.21,7.489-3.02c2.153,0.149,6.435,2.218,6.858,4.608c0,0-0.335,0.566-0.349,0.762
		c-0.027,0.392-1.647,1.065-1.675,1.458c-0.237,0.574-0.291,1.356-0.332,1.944c-0.164,2.349-0.158,5.104-0.342,7.746
		c-0.144,2.055-1.522,4.91-4.067,4.732c-0.566-0.335-3.792-2.034-3.752-2.621l0.123-1.762c0.041-0.587-0.388-5.731-0.347-6.319
		l0.13-1.86c0.055-0.783,0.115-1.663-0.222-2.474c-1.603-0.997-3.483-0.833-5.245-0.956c-1.86-0.129-4.664-0.815-4.821,1.436
		c0.885,1.438,1.402,2.458,2.691,3.728c1.226,0.774,4.25,3.935,4.073,6.48c-0.149,2.153-0.513,1.734-1.378,2.854
		c-2.252-0.157-1.85-1.702-4.088-6.283c-0.492-1.411-0.578-2.991-2.732-3.141c-0.613,0.351-0.864,1.12-1.491,1.667
		c-2.932,2.549-5.816,4.415-8.916,6.559l-1.174-0.082c0.136-1.958,2.615-3.653,4.289-5.11c-0.098-0.007,2.865-4.423,4.967-6.343
		c0.759-1.029-2.73-1.763-3.611-1.825l-1.37-0.095c0.196,0.014-5.893-0.115-5.994,1.353l-0.906,13.017
		c-0.082,1.176-2.399,3.374-3.573,3.292c-0.588-0.04-1.093-1.256-1.072-1.55C274.9,76.884,275.129,76.407,275.163,75.918z
		 M279.543,58.225c0.195,0.014,1.273,1.465,1.665,1.493c2.896,0.791,6.225-1.829,8.718-3.721c2.184-1.716,4.894-3.889,7.719-6.347
		c0.784,0.054,2.494-1.893,2.555-2.773c0.062-0.881-1.484-1.284-2.269-1.338c-0.586-0.041-4.13,0.007-4.718-0.034l-1.566-0.109
		c-1.272-0.088-2.845-0.1-3.976,0.609c-0.949,0.917-5.204,5.539-6.477,5.45c-1.243,0.897-4.863,2.022-4.985,3.784
		C276.64,57.531,278.043,57.137,279.543,58.225z"/>
	<path fill="#E0002B" d="M312.131,114.29c1.762,0.123,3.646-5.745,4.021-6.899c0.773-1.225,1.861-2.723,2.48-4.548l-0.351-0.615
		c0.382-1.252,0.521-1.832,0.832-3.482c-0.099-0.007,0.104-0.091-0.154-0.601c0.021-0.294,0.216-0.28,0.606-0.253
		c1.664,0.115,2.267,4.19,2.651,4.315c-0.095,1.37,1.243,3.331,1.019,6.562c-0.19,2.741-1.488,4.421-3.092,6.276
		c-1.13,2.085-2.877,1.767-4.12,2.664c0,0-0.864,1.12-1.256,1.093c-3.062,0.18-2.828-1.771-2.719-3.337L312.131,114.29z
		 M329.52,120.221l-0.812-1.039c-0.226-0.999,0.564-3.895,0.756-6.636l-0.252-0.607c0.129-1.859-0.122-5.319,1.126-7.691
		c0.354-0.861-0.81-2.516-0.544-6.332c0.021-0.294,0.146-0.679,0.446-0.756l0.367-5.286l0.334-0.566
		c0.082-1.174-0.422-2.391-1.304-2.452c-0.685-0.047-1.62,0.675-2.403,0.621c-7.075-0.1-8.304,0.602-11.632,0.37
		c-0.783-0.055-1.161-0.277-1.093-1.256c0.041-0.588,0.136-1.958,0.765-2.505c1.257-1.093,3.462-3.103,4.343-3.041
		c6.849-5.13,10.824-9.968,11.485-11.003c0.335-0.567,1.194-0.212,1.53-0.779c0.689-1.427,1.357-2.562,2.614-3.654
		c1.837-0.954,0.383-1.252,3.141-2.732c0.619-1.826,1.604-1.856,2.28-3.087c-0.016-1.182,2.239-2.5,2.341-3.968l-0.273-0.314
		c0.521-1.832,1.172-5.524,2.444-5.436c1.763,0.123,3.614,3.202,5.098,4.486c0.637,0.732,2.21,0.744,1.773,2.779
		c0.351,0.615,2.917,0.498,3.988,2.048c1.124-0.61,3.328,0.231,3.564-0.342c1.141,0.571,3.132,0.218,3.874,0.859
		c1.245,0.48,2.194-0.438,3.565-0.342c0.782,0.054,1.174,0.082,1.937,0.43c1.566,0.109,2.376-0.229,2.451-1.305l0.061-0.881
		l0.433-0.56c0.034-0.49,0.062-0.881-0.33-0.908l0.252-3.622l0.433-0.56c-0.107-1.286-0.432-2.292-0.343-3.565
		c-0.056-0.594-0.021-1.083,0.67-1.133c0.081-1.174-0.892-1.34-0.803-2.612c0.062-0.881,0.684-1.33,0.737-2.113
		c-0.073-1.775-2.772-2.553-2.637-4.51c2.09-0.347,5.935-0.472,6.934-0.698c1.721,0.709,7.876,2.711,7.617,6.431
		c-0.123,1.762-1.729,2.24-2.412,3.569c-0.197,2.838-0.646,6.446-0.754,8.012l-0.021,0.294c-0.041,0.587-0.09,4.125-0.131,4.712
		c2.447,0.17,3.936-0.021,6.089,0.129l0.979,0.068c0.021-0.293,0.412-0.267,0.608-0.253c1.272,0.089,2.229,0.45,3.894,0.566
		c1.453-1.08,2.873-4.521,5.026-4.372c0.657,0.439,0.798,1.236,1.658,1.591c0.584,1.516,4.488,3.361,4.29,6.2
		c0.638,0.732-2.472,1.598-3.059,1.557c-0.196-0.014-0.874-0.159-1.154-0.375c-2.097,0.444-6.207,0.158-6.893,0.11
		c-1.572-0.011-4.488-0.509-6.398-1.331c-1.263,1.191-2.879,0.39-4.43,1.463c-1.242,0.896-0.894,4.363-1.363,11.117
		c1.157,1.753,1.94,1.808,3.529,3c2.454,0.071,3.689-0.727,5.745-0.584l0.783,0.055c0.014-0.196,0.473-1.148,0.486-1.344
		c0.021-0.293,2.651-2.766,3.14-2.731c2.057,0.143,2.269,1.338,3.361,2.594c-0.169-0.405,2.58,1.064,2.424,3.316
		c-0.313,4.502-3.177,1.845-5.81,2.939c-1.385,0.101-2.616-0.575-3.888-0.664c-0.196-0.014-0.588-0.041-0.811,0.337l-7.636-0.531
		c-0.391-0.027-0.95-0.46-1.146-0.474c-1.069-0.172-1.509,0.485-2.781,0.397c-0.49-0.034-6.642-0.659-10.558-0.932
		c-0.392-0.027-2.321-0.556-2.713-0.582c-0.671-0.244-2.565,0.116-4.152,0.301c-6.655-0.463-5.977-0.317-7.229-0.7
		c-0.147-0.698-2.152-3.001-2.077-4.078c0.014-0.195,0.25-0.769,0.642-0.742c1.371,0.096,2.693,0.876,4.253,1.083
		c0.385,0.125,2.655-0.012,2.754-0.005c0.196,0.014,1.134,0.669,1.329,0.683c1.698-0.374,2.88-0.39,4.739-0.261
		c1.175,0.082,2.335,0.359,3.51,0.441c1.565,0.108,0.751-2.309,2.357-2.787l-0.533-0.823l0.081-1.175
		c0.116-1.664-0.193-2.865-0.078-4.529c0.089-1.272,0.02-1.671,0.535-2.028c0.082-1.175-0.855-1.83-1.402-2.458
		c-3.132-0.218-5.957-0.611-8.263,0.015c-0.104,0.092-0.587-0.041-1.741-0.416c-1.371-0.095-2.586,0.411-4.152,0.302
		c-1.369-0.096-2.197-5.169-4.35-5.319c-0.588-0.041-2.594,3.36-3.537,4.18c-1.911,2.031-2.698,3.451-5.693,5.504l-0.313,0.273
		c-0.082,1.174,1.044,1.941,1.284,2.745c0.506,1.216,0.689,2.802,1.195,4.018c-0.055,0.782,0.917,0.948,1.092,1.256
		c0.965,3.115,2.462,4.203,3.507,6.145c-0.003,1.475,2.718,3.336,2.589,5.196c-0.075,1.076-2.228,0.927-2.465,1.501
		c-1.066,1.204-2.972,3.137-4.734,3.014c-1.761-0.122-2.033-0.437-2.205-2.219c0.349-0.763-0.205-1.293-0.752-1.921l0.376-1.154
		c0.29-1.356-0.884-1.438-2.254-1.533c-0.588-0.041-0.881-0.062-0.935,0.722c-0.123,1.762,0.232,5.13,0.506,5.444
		c-0.062,0.881-0.396,1.448-1.004,1.7c0.252,0.608,0.697,2.704,0.656,3.292c0.371,0.32-0.703,1.623-0.751,2.308
		c-0.062,0.881,0.778,1.53,0.717,2.411c-0.081,1.174-0.456,2.328-1.126,3.462l-0.245,3.523c-0.062,0.881,0.833,0.747,1.087,1.354
		c-0.164,2.349-0.758,2.406-0.832,3.482c-0.041,0.587,0.505,1.215,0.464,1.803s-0.376,1.154-0.417,1.741
		c-0.04,0.587,0.787,1.432,0.678,2.997c-0.082,1.175-0.383,1.252-0.472,2.525c-3.505,2.312-3.013,3.724-5.851,3.526
		c-1.804,0.465-1.417-2.263-1.824-3.471c0.396-1.448-0.746-2.02-0.637-3.585C328.877,120.964,328.918,120.376,329.52,120.221z
		 M318.894,51.029c0.364,0.419,1.497,1.087,1.497,1.087l0.682,1.523c0.118-0.287,2.112,0.737,2.679,1.072
		c2.839,0.198,3.883-2.091,7.442-5.187c0.048-0.685,2.499-1.99,2.261-2.793c1.228-0.701,1.849-1.15,2.512-2.186l0.854,0.453
		c0.082-1.174,0.1-2.845,0.498-2.916c-0.323-1.006,1.317-1.973,1.379-2.854c0.061-0.881,0.256-5.096,2.409-4.946
		c1.849,1.702,3.836,2.824,5.547,5.106c-0.496,0.063,2.812,1.966,2.703,3.532c-0.122,1.762-1.896,1.835-3.112,2.341
		c-0.544,0.749-3.722,2.593-5.907,4.31c-1.248,0.994-2.457,1.402-3.42,2.516l-4.861,2.021c-0.307,0.175-0.432,0.56-0.648,0.84
		c0.496-0.063-2.997,0.677-3.16,3.026c-0.103,1.468,1.638,1.884,2.771,2.553c1.37,0.096,2.647,2.939,3.319,3.182
		c-0.13,1.86-0.309,3.028-2.341,3.969c-0.265,0.965-2.028,3.694-4.377,3.531c-1.468-0.103-1.974-1.318-2.479-2.533
		c-1.13-2.144-2.377-4.001-2.899-6.397c-0.509-2.593-1.48-6.988-2.972-8.173c-0.525-0.922-1.289-1.27-1.2-2.542
		C318.11,50.975,318.306,50.988,318.894,51.029z M326.24,85.373c0.392,0.027,0.986-0.029,1.279-0.009
		c0.161,0.503,0.463,0.425,0.854,0.452c0.517-0.357,3.467-0.348,5.327-0.219l0.32-0.371c0.881,0.062,2.342,0.261,2.95,0.009
		c1.271,0.088,2.53,0.372,3.803,0.461c0.054-0.783,0.416-1.741,1.059-2.484c-0.191-1.487-0.151-2.075-0.971-3.018
		c0.238-3.426-1.688-5.428-1.497-8.169c-0.949,0.918-1.55,1.073-1.911,2.031c-0.39,1.35-0.963,1.113-1.898,1.834
		c-2.154,2.703-5.068,3.582-7.496,5.97c-0.321,0.37-0.669,1.134-1.284,1.484c-0.602,0.154-1.44-0.494-1.549,1.072
		C325.171,85.2,325.652,85.332,326.24,85.373z M343.399,103.091c-0.322,0.371-0.942,0.819-1.571,1.366l-0.098-0.007
		c-1.469-0.103-1.016-5.186-1.043-4.794C340.428,99.146,343.529,101.23,343.399,103.091z M343.476,110.473
		c0.103-1.469-1.953-1.611-1.852-3.08c0.034-0.489,0.306-1.553,0.438-2.035c1.866,0.031,1.23,0.677,2.602,0.771
		c0.979,0.068,0.395-1.447,1.275-1.387c0.979,0.068,2.64,1.659,2.599,2.247c-0.062,0.88-0.669,1.133-1.257,1.093
		c-1.175-0.082-1.7-1.004-2.091-1.031c-0.588-0.041-0.302,0.077-0.608,0.253c-0.062,0.881,2.618,1.952,3.206,1.993
		c1.174,0.082,1.255-1.093,2.43-1.011c0.098,0.007,1.06,1.745,1.032,2.138c-0.007,0.098-0.454,3.705-0.657,3.789
		c-0.417,1.741-3.166,0.271-3.363,3.109c-0.092-0.104-1.368,1.282-2.25,1.221c-0.901,0.232-1.105-1.061-1.078-1.452
		c0.293-4.208-2.527-1.848-2.37-4.099C341.632,111.523,343.346,112.332,343.476,110.473z M354.73,122.565
		c-0.161-0.503-0.296-1.397-0.479-1.606c0.055-0.783,0.604-3.007,0.597-2.909c-0.482-0.132-0.364-0.419-0.337-0.811l1.175,0.082
		c-0.155-0.601-0.521-1.02-0.675-1.621c0.164-2.349,0.468-3.901,0.604-5.858l0.588,0.041c0.405-0.169-0.345-0.713-0.702-1.229
		c0,0,0.277-1.16,0.298-1.454c0.298-1.455,0.009-2.95,0.111-4.418c0.048-0.686,0.542-4.979,0.951-10.851
		c0.027-0.392,0.615-0.351,1.007-0.323c2.75,1.469,4.345,2.563,4.951,5.163c1.062,0.271,1.783-0.171,3.152-0.076
		c0.979,0.068,0.959,0.362,1.742,0.417c0.998-0.226,2.174-0.145,3.173-0.369c2.964-0.188,5.347-0.514,8.283-0.309
		c1.272,0.088,2.551,0.079,3.07,1.099c0.979,0.067,1.782-0.172,2.41-0.718l0.027-0.392c0.17-2.446,2.544-4.052,4.324-5.6
		c1.866,0.031,2.321,0.554,2.854,1.378c0.716,1.033,1.975,1.318,2.787,2.358c0.28,0.216,2.186,2.512,2.459,2.826l-0.164,2.349
		c-0.067,0.979-0.688,1.428-1.631,2.247c-0.225,3.23-0.461,8.033-1.282,9.942c-0.58,4.092-0.054,5.013-0.278,8.242l0.267,0.412
		l-0.205,2.937l-4.698-0.327l-0.91-1.046c-0.14,0.58-0.276,1.16-0.669,1.133l-5.873-0.408c-0.573-0.236-0.77-0.25-1.356-0.291
		c-1.566-0.109-2.977,0.383-4.542,0.273c-0.196-0.013-1.344-0.486-1.736-0.514c-1.363-0.193-3.941,0.119-6.095-0.031
		c-1.762-0.122-2.7-0.777-3.68-0.846c-0.313,0.272-1.286,0.107-2.165,0.046c0.77,0.25,0.674,1.62,1.415,2.263l-0.204,2.937
		c-2.731,1.088-2.137,1.031-2.668,1.584c-1.856,1.248-2.063,2.807-4.201,3.839c-1.384,0.101-1.254-1.76-1.598-2.472
		c0.548-2.225-0.998-2.627-0.861-4.584C354.027,124.189,354.055,123.797,354.73,122.565z M364.3,117.92l0.546,0.629
		c0,0,2.825,0.394,3.511,0.44c0.392,0.027,1.606-0.478,1.802-0.465c0.392,0.027,0.77,0.251,1.147,0.474
		c2.579-0.312,3.396-0.747,4.276-0.686s1.846,0.325,2.923,0.4c1.762,0.122,3.551-0.146,4.149-1.679
		c0.264-0.965,0.611-1.728,1.162-2.575c0.021-0.293-0.896-1.242-0.876-1.536c0.103-1.468-0.273-4.543-0.097-7.088
		c0.021-0.293,0.474-1.146,0.494-1.44c0.143-2.056,0.012-4.425-2.043-4.568c-2.291,0.431-3.781,0.622-5.15,0.527
		c-2.454-0.073-5.363-0.669-7.615-0.825c-1.565-0.109-4.542,0.273-4.665,2.036c-0.021,0.293,0.29,1.495,0.29,1.495
		c-0.334,4.796,0.237,7.885,0.087,10.038c-0.048,0.686-0.284,1.259-0.325,1.846C363.861,115.727,364.397,117.928,364.3,117.92z"/>
	<path fill="#E0002B" d="M427.128,94.164c-0.685-0.048-0.978-0.067-1.586,0.185c-6.32,3.199-16.612,5.532-17.604,7.037
		c0.126-0.385-2.45,1.305-3.624,1.223c-1.216,0.505-3.179,1.845-4.354,1.763c-1.076-0.075-1.675-2.772-3.257-4.062
		c-0.044-0.79,0.27-1.063,0.689-1.428c2.35,0.164,4.192-0.888,6.366-1.031c2.643,0.184,5.279,0.465,5.49-2.569
		c0.3-4.307,1.09-11.431,1.253-13.78c-0.605-2.6,1.116-8.971-0.793-14.021c0.047-0.685-1.278-2.842-1.265-3.038
		c0.041-0.587,1.578-1.464,1.871-1.444c1.467,0.103,2.28,1.143,3.455,1.225c1.86,0.129,2.13-0.935,5.811-2.94
		c1.275-1.387,3.141-2.732,3.557-4.474c0.244-0.671,2.185-1.716,2.382-4.555c0.146-0.679-0.204-1.293-0.156-1.979
		c0.438-0.657,1.445-0.981,2.163-1.423c0.295,0.021,1.135,0.669,1.428,0.689c2.154,0.15,4.762,0.823,4.604,3.075
		c-0.136,1.958-1.674,1.457-2.903,2.158c-1.955,1.241-3.803,3.768-7.162,5.403c-1.549,1.072-4.861,2.021-5.024,4.371
		c-0.082,1.174,0.491,1.411,1.639,1.884c3.034,0.211,10.209,1.694,12.857-2.449c0.433-0.561,1.045-2.288,2.023-2.22l0.295,0.021
		c1.875,1.311,4.24,2.655,4.288,6.199c-5.339,4.645-2.9,7.765-4.231,9.935c0.556,1.907-1.299,8.761,0.562,8.891
		c2.349,0.163,5.134-5.938,5.722-5.896c0.685,0.048,1.767,2.877,2.649,4.315c0.254,0.607,0.01,1.278,0.087,1.579l-10.286,9.315
		c-0.701,3.001-1.772,9.909-2.607,14.867c-0.1-0.007-0.779,2.7-0.983,5.636c-0.014,0.195,0.337,0.811,0.296,1.397
		c-0.231,3.328-1.228,4.931-2.043,6.743c0.051,0.691-1.629,3.624-2.284,4.562c-0.405,0.168-1.647,1.065-1.857,1.248
		c-2.899,0.683-3.908-4.6-5.855-6.309c0.007-0.099-0.016-1.183,0.376-1.155l4.111,0.286c0,0,0.627-0.546,0.936-0.721
		c2.078-5.854,1.834-9.413,2.182-14.404c0.021-0.294,0.555-2.321,0.575-2.615c0.132-0.482-0.366-1.796-1.149-1.851
		c-0.881-0.062-2.451,1.305-3.08,1.852c-1.569,1.365-3.206,0.857-3.687,2.104c-0.018,1.671-1.514,1.96-2.539,2.576
		c-4.83,4.386-10.438,7.24-15.891,10.697c-3.08,1.851-5.977,3.911-9.414,5.246c-2.894,0.585-3.295,2.131-5.253,1.995
		c0.156-2.252,4.77-2.127,6.186-4.094c0.783,0.055,3.556-1.622,4.315-2.651c2.6-0.605,3.707-2.396,5.67-3.735
		c0.628-0.546,1.815-0.66,2.443-1.207c3.665-3.188,7.295-5.886,11.273-9.347c2.356-2.786,6.615-6.03,7.913-7.71
		c1.569-1.366,3.825-2.684,3.988-5.033C427.716,94.205,427.324,94.178,427.128,94.164z M414.535,95.648l1.468,0.103
		c-0.489-0.034,8.114-0.714,9.369-3.185c1.249-0.995,3.655-0.237,3.935-4.25l-0.378-0.224c0.238-3.426,0.786-5.649,0.99-8.585
		c0.123-1.762-0.146-3.551-0.023-5.313c0.055-0.783,0.515-1.734,0.596-2.909c0.055-0.784,0.123-1.762-1.038-2.04
		c-4.502-0.313-8.543-0.201-12.513,0.31c-0.601,0.155-1.057,2.484-1.084,2.875c-0.123,1.761-0.286,4.111,1.769,4.254
		c2.055,0.143,2.85-1.376,7.449-1.056c0.888-0.036,0.848,0.551,0.8,1.236c-0.109,1.566-3.34,1.342-4.527,1.456
		c-0.882-0.062-4.472,0.672-5.354,0.61c-0.822,0.533-1.01,1.799-1.071,2.68c-0.238,3.425-0.144,4.907,2.304,5.078
		c1.174,0.081,1.801-0.465,2.977-0.384c1.454,0.298,2.075-0.15,3.592-0.733c1.174,0.082,1.146,0.473,1.105,1.061
		c-0.061,0.881-1.451,1.079-2.724,0.99c-7.257-0.308-8.078,1.603-8.255,4.146C413.858,92.651,413.675,95.294,414.535,95.648z
		 M451.938,93.825c5.894,4.345,5.196,5.869,4.965,9.197c-0.334,0.567-1.985,3.107-3.748,2.984c-1.293,0.206-2.855-1.378-2.712-3.434
		c0.197-2.839-0.078-4.529-1.308-8.058c-0.623-0.929-0.451-1.999-0.424-2.39C449.885,92.207,451.097,93.177,451.938,93.825z
		 M456.211,125.693c0.587,0.041,1.146,0.474,1.734,0.515c2.349,0.163,2.907-7.863,3.63-9.779c0.409-5.873,0.423-10.298,0.776-15.388
		c0.185-2.643,0.457-2.328,0.538-3.503c0.062-0.881-0.361-3.271-0.239-5.032c0.041-0.588,1.139-7.888-0.54-9.185
		c-3.523-0.245-6.208,0.157-9.145-0.047c-1.468-0.102-3.188-0.812-3.066-2.573c0.041-0.587,0.068-0.979,0.851-0.925
		c1.272,0.089,2.113,0.737,3.581,0.84c2.397-0.521,8.434,1.767,8.692-1.952c0.149-2.153,0.177-11.003,0.032-13.177
		c-0.146-3.551-0.85-6.157-0.801-9.694c0.305-1.553-3.319-3.182-3.237-4.356c0.211-3.034,8.413-2.168,7.825-2.208
		c0.588,0.041,1.056,0.368,1.386,1.276c-0.07-0.398,6.283,2.994,6.105,5.54c-0.163,2.349-1.713,3.42-3.57,4.668
		c-0.151,0.777,0.192,1.489,0.145,2.174c-0.177,2.544-0.662,5.265-0.854,8.005c-0.17,2.447-0.031,4.719-0.195,7.067l-0.095,1.371
		c0.252,0.606,0.505,1.215,1.064,1.647c2.67-0.208,5.858,0.604,8.654,0.013c1.999-0.452,3.892-5.041,5.653-4.918
		c1.211,0.969,4.527,2.773,4.371,5.024c-0.041,0.588-0.568,2.519-0.765,2.505l-5.678-0.396c-3.522-0.245-7.086,0.097-10.61-0.148
		l-0.867-0.257c-1.495,0.289-2.109,0.64-2.219,2.205c-0.436,6.265,0.016,12.492-0.406,18.561c-0.089,1.272-0.777,6.929-1.057,10.942
		c-0.075,1.076-0.751,2.308-0.914,4.657c-0.096,1.37,0.089,2.956-0.007,4.326c-0.163,2.35-1.6,4.61-3.973,6.215
		c-1.647,1.066-2.514,2.186-4.314,2.65c-1.469-0.102-2.228-1.925-3.054-2.77c-0.155-0.601-1.771-1.401-2.199-2.316
		C453.273,125.488,454.742,125.591,456.211,125.693z"/>
</g>
<g>
</g>
<g>
</g>
<g>
</g>
<g>
</g>
<g>
</g>
<g>
</g>
<g>
</g>
<g>
</g>
<g>
</g>
<g>
</g>
<g>
</g>
<g>
</g>
<g>
</g>
<g>
</g>
<g>
</g>
</svg>
