<?xml version="1.0" encoding="utf-8"?>
<!-- Generator: Adobe Illustrator 17.0.0, SVG Export Plug-In . SVG Version: 6.00 Build 0)  -->
<!DOCTYPE svg PUBLIC "-//W3C//DTD SVG 1.1//EN" "http://www.w3.org/Graphics/SVG/1.1/DTD/svg11.dtd">
<svg version="1.1" id="图层_1" xmlns="http://www.w3.org/2000/svg" xmlns:xlink="http://www.w3.org/1999/xlink" x="0px" y="0px"
	 width="480px" height="150px" viewBox="0 0 480 150" enable-background="new 0 0 480 150" xml:space="preserve">
<rect x="-20" y="-24" fill="#D7FFE1" width="522" height="194"/>
<g>
	<g>
		<path opacity="0.2" fill="#00CFE5" d="M102,144.34c0,0,0-54.787,0-66.998s-6.901-9.573-7.105-19.24
			C94.758,51.601,93.133,28,92.738,15l-5.297-3.512L82.084,15c-0.365,13-1.944,36.601-2.081,43.101
			C79.799,67.769,73,65.13,73,77.341s0,66.998,0,66.998s0.12,1.66,1.18,1.66s25.683,0,26.742,0C101.982,146,102,144.34,102,144.34z"
			/>
		<path fill="#61D8B9" d="M92.407,5c0-0.888-0.698-1-0.698-1h-8.617c0,0-0.702,0.099-0.702,1s-0.305,10-0.305,10h10.653
			C92.738,15,92.407,5.888,92.407,5z"/>
		<rect x="73" y="79" fill="#7EE8CA" width="29" height="61"/>
		<g>
			<path fill="#00231F" d="M78.559,92.206c0.421,0,1.007,0.128,1.007,0.348c0,0.019-0.019,0.073-0.019,0.092
				c0.165-0.146,0.348-0.257,0.439-0.22c1.117,0.109,2.216,0.109,3.314,0.109c1.19,0,2.087-0.036,3.039-0.036
				c0.257-0.11,0.33-0.586,0.366-0.659v-2.161c-0.036-0.22-0.109-0.622-0.109-0.842c0.073-0.824-1.025-0.495-1.025-0.879
				c0-0.33,0.549-0.33,0.806-0.586c0.293,0,0.641-0.623,1.099-0.623c0,0,0.183,0.037,0.439,0.184c-0.055,0,0.513,0.22,0.659,0.366
				c0.073,0,0.513,0.22,0.549,0.22c0.184,0.073,0.184,0.073,0.184,0.22c0.183,0,0.22-0.037,0.22,0.22
				c0,0.402-0.293,0.622-0.513,0.952c-0.055,0.293-0.11,0.586-0.11,0.879c-0.036,0.586-0.036,1.208-0.036,1.758
				c0,0.549,0,0.842,0.622,0.842c0.989-0.073,1.795-0.183,2.856-0.183c0.037,0,0.33-0.146,0.366-0.146
				c0.184-0.073,0.293,0,0.439-0.11c0.22-0.183,0.513-0.293,0.732-0.439c0.165-0.109,0.385-0.402,0.659-0.402
				c0.238,0,0.934,0.971,1.099,1.318h0.019c0.092,0,0.092,0.183,0.092,0.22c0,0.256-0.275,0.53-0.495,0.659l-1.667-0.037
				c-0.476,0-1.281,0.055-1.428,0.037c-0.073,0.073-0.128-0.019-0.257-0.146c-0.073,0-0.183,0.036-0.183,0.109
				c-0.439,0-0.788,0.037-1.209-0.073c-1.886,0-2.014,0.073-2.819,0.073c-0.659,0-0.659,0.037-2.124,0.037
				c-0.513,0.201-1.136,0.092-1.667,0.183c-0.165,0-0.824,0.037-1.263,0.037l-0.165,0.109c-0.659,0-1.318,0.073-1.978,0.11
				c-0.33,0.073-0.623,0.109-0.879,0.109c-0.549,0-0.403-0.238-0.513-0.476c-0.256-0.55-0.659-0.77-0.659-0.989
				C78.449,92.279,78.449,92.279,78.559,92.206z M78.742,102.111c0.11-0.036,0.769-0.365,0.879-0.439
				c0.128,0,0.201-0.219,0.366-0.329c0.128-0.201,0.549-0.201,0.732-0.366c0.055,0,0.22-0.22,0.274-0.22
				c0.11-0.073,0.275-0.11,0.385-0.22c0.092-0.293,0.678-0.293,1.099-0.952c0.146-0.238,0.494-0.55,0.659-0.696
				c0.256-0.109,0.641-0.567,0.824-0.732c-0.073-0.128,0.604-0.641,0.604-1.043c0-0.275-0.275-0.55-0.384-0.715
				c-0.037-0.146,0.091-0.164,0.256-0.164h0.128l0.22-0.055c0.128,0.018,0.348,0.109,0.495,0.109h0.769
				c0.22,0.055,0.989,0.988,0.989,1.264c0,0.366-0.513,0.476-0.879,0.824c-0.165,0.329-0.33,0.237-0.696,0.622
				c-0.091,0.11-0.531,0.238-0.531,0.329l0.018,0.037c-0.549,0.567-1.099,0.751-1.703,1.099c-0.439,0.293-0.879,0.55-1.318,0.843
				c-0.879,0.274-1.447,0.769-2.38,0.879c-0.11,0.146-0.696,0.329-0.916,0.329c-0.055-0.073-0.073-0.092-0.073-0.183
				C78.614,102.313,78.669,102.167,78.742,102.111z M88.758,96.069c-0.366-0.421-0.86-0.659-1.281-0.934
				c0.036-0.037-0.477-0.385-0.77-0.495c-0.109-0.055-0.549-0.164-0.549-0.348c0-0.109,0.109-0.109,0.22-0.109
				c0.586,0,1.062,0.513,1.428,0.678c0.55,0,0.77,0.604,1.282,0.604c0.549,0.22,1.099,0.494,1.721,0.715
				c0.513,0.311,1.099,0.457,1.648,0.769c0.036,0,0.22,0.22,0.256,0.22c0.146,0,0.732,0.385,0.843,0.549
				c0.695,0.293,0.769,0.971,0.769,1.539c0,0.219,0,0.402-0.055,0.622c-0.33,0.238-0.678,0.659-1.153,0.659
				c-0.843,0-1.52-1.172-1.648-1.428c-0.384-0.732-1.19-1.393-1.721-1.941C89.545,96.729,89.161,96.252,88.758,96.069z"/>
			<path fill="#00231F" d="M78.504,120.648c0.055,0,0.275-0.221,0.33-0.221c0.641-0.439,0.824-0.769,1.208-1.025
				c0.202-0.072,0.33-0.421,0.439-0.658c0-0.074,0.184-0.293,0.184-0.33c0.22-0.402,0.256-0.77,0.329-1.172
				c0-0.366,0.165-0.732,0.165-1.135c0-0.367,0.092-0.403,0.092-1.611c0-0.074,0.109-0.732,0.109-0.77
				c0-0.073-0.036-0.732-0.036-0.77c0-0.586,0.091-1.208-0.184-1.721c0.019,0-0.036,0,0.073-0.165
				c0.348-0.019,0.439,0.056,0.55,0.22c0.531,0.275,0.586,0.275,0.586,0.824c0,1.739-0.11,3.369-0.11,4.395
				c0,0.439-0.22,0.934-0.22,1.135c-0.22,0.715-0.384,0.879-0.915,1.355c-0.312,0.293-0.202,0.439-0.623,0.439v0.22
				c0,0-0.439,0.403-0.604,0.55c-0.275,0.219-0.989,0.769-1.263,0.769c-0.165,0-0.165,0-0.165-0.146
				C78.449,120.648,78.468,120.721,78.504,120.648z M83.411,120.099c0-1.959-0.073-3.369-0.073-5.017c0-0.11,0.11-0.77,0.11-0.879
				c0.055-0.019-0.037-0.184-0.037-0.439c0.019-0.056,0.037-0.129,0.037-0.202c-0.055,0.146-0.037-0.934-0.037-1.392
				c0-0.201-0.073-0.604-0.073-1.428c0,0,0.073-0.11,0.073-0.165s-0.109-0.274-0.109-0.329c-0.092-0.238-0.073-0.275-0.403-0.275
				c-0.036,0-0.586,0.11-0.659,0.11h-0.586c-0.018,0.055-0.531,0.109-1.336,0.109c0,0.056-0.11,0.165-0.165,0.165
				c-0.659,0.092-0.458-0.695-0.495-0.879l0.055-0.055c0.934,0,1.666-0.11,2.38-0.11c0.824,0,1.245-0.109,1.795-0.109
				c0.513-0.056,0.988,0,1.446-0.274c0.146-0.074,0.293-0.477,0.659-0.715h0.055c0.11,0,1.044,1.154,1.044,1.264
				c0,0.22-0.33,0.274-0.494,0.274c-0.055,0-0.275-0.055-0.33-0.055c-0.293-0.019-0.549,0.183-0.769,0.11
				c-0.312,0-1.502,0.036-1.502,0.274c0,0.22,0.33,0.384,0.403,0.604c0,1.135-0.073,1.153-0.073,1.373
				c0,0.586-0.037,0.988-0.037,1.043c0,0.074,0.11,0.293,0.11,0.33v3.039c0,0.037,0.036,0.221,0.036,0.257
				c0.073,0.439,0.073,0.915,0.073,1.282c0,0.549-0.073,0.787-0.073,1.281c0,0.604,0,1.574-0.586,1.574
				c-0.22,0-0.513-0.036-0.513-0.256C83.338,120.52,83.411,120.245,83.411,120.099z M82.569,105.798
				c0.769,0,1.428-0.183,1.886-0.183h0.33c0.202,0,0.384-0.019,0.549-0.11c0.165-0.109,0.494-0.915,0.714-0.915
				c0.33,0,0.55,0.549,0.714,0.769c0,0.037,0.275,0.22,0.275,0.257c0.055,0.787-0.641,0.622-1.209,0.622
				c-1.099,0.22-2.215,0.257-3.296,0.257c-0.402,0-0.842,0.109-1.208,0.109c-0.238,0-0.513-0.128-0.513-0.549
				C80.683,105.743,82.075,105.798,82.569,105.798z M85.664,117.242c-0.018-0.348,0.055-0.879,0.055-1.318
				c0-0.77-0.11-2.453-0.11-2.527c-0.018-0.109,0.055-0.256,0.055-0.402c0-0.385-0.055-0.714-0.055-1.044
				c0-0.274-0.109-0.494-0.109-0.769c0-0.422,0.348-0.458,0.604-0.659c0.256-0.056,0.384,0.384,0.439,0.494
				c0.22,0.183,0.22,0.329,0.22,0.494c0,0.128-0.11,0.33-0.11,0.439c0,0.366,0.037,0.935-0.055,0.935
				c0,1.482,0.109,2.947,0.109,4.357c0,0.421-0.091,1.648-0.659,1.648c-0.165,0-0.274-0.11-0.329-0.257
				C85.719,118.103,85.664,117.315,85.664,117.242z M90.827,118.78c0.055-1.025,0.073-2.051,0.073-3.076
				c-0.037,0-0.183-0.073-0.33-0.073c-0.586,0-1.025,0.073-1.611,0.073l-0.165,0.146c0.018,0.201,0.018,0.403,0.018,0.604
				c0,0.531-0.238,1.557-0.732,1.557c-0.293,0-0.439-0.312-0.439-0.55c-0.018-0.036,0.055-0.329,0.055-0.513
				c0-0.165-0.055-0.458-0.055-0.586c0-0.073,0.055-0.293,0.055-0.33c0-0.072-0.055-0.402-0.055-0.439v-2.874
				c0-0.056-0.055-0.55-0.055-0.604v-1.648c0-0.146-0.109-0.494-0.109-0.494c0-0.055,0.109-0.385,0.109-0.439
				c0-0.128,0-0.201-0.055-0.329v-1.172c-0.22-0.165-0.165-0.33-0.165-0.659l0.11-0.11h0.384c0.037,0.092,0.293,0.385,0.476,0.55
				c-0.055,0.073,0.385,0.329,0.623,0.329c0.055,0,0.11,0,0.165-0.036c0.11,0,0.714-0.11,0.824-0.11c0.073,0,0.293,0.037,0.33,0.037
				c0.073-0.11,0.22-0.146,0.33-0.257c0-0.714,0.073-1.593-0.11-2.49c-0.037-0.109-0.22-0.256-0.22-0.366
				c0-0.22,0.22-0.842,0.439-0.842c0.403,0,0.732,0.329,0.989,0.513c0.439,0.164,0.952,0.348,0.952,0.549
				c0,0.439-0.33,0.422-0.33,0.586c-0.11,0.385-0.439,0.439-0.439,0.77c-0.091,0.073,0.11,0.311,0.11,0.439
				c0,0.073-0.073,0.22-0.073,0.293c0,0.348-0.037,0.769,0.403,0.769c0.091,0,0.769-0.055,0.769-0.073
				c0.806,0,0.971-0.915,1.428-0.915c0.073,0.036,0.403,0.329,0.439,0.366c0.33,0.604,0.879,0.513,0.879,1.227
				c0.018,0.092-0.202,0.586-0.256,0.714v0.935c-0.11,0.109-0.11,0.879-0.11,1.043c0,0.439-0.11,1.08-0.11,1.154
				c0,0.055,0,0.109,0.037,0.164c0,0.165,0.073,1.008,0.073,1.154c0,1.482-0.073,1.684-0.073,2.051
				c-0.037,0.128-0.677,1.428-1.318,1.428c-0.22,0-0.33-0.513-0.403-0.659v-0.843c0-0.036-0.11-0.146-0.146-0.219
				c-1.41,0-1.501,0.091-1.501,1.098c0.073,0.403,0.11,1.209,0.11,1.465l-0.037,0.367c0,0.293,0.037,0.677,0.037,1.94
				c-0.037,0.11-0.33,0.659-0.366,0.769c-0.238,0.165-0.403,0.696-0.952,0.66c-0.037,0-0.22-0.184-0.22-0.221
				C90.607,120.63,90.772,119.732,90.827,118.78z M88.74,114.605c0,0.037,0.055,0.256,0.165,0.256h1.593
				c0.293,0,0.33-0.146,0.403-0.365c0-0.751,0.019-1.502-0.073-2.326c-0.128-0.109-0.604-0.164-0.916-0.164
				c-0.146-0.037-0.202,0.109-0.33,0.109c-0.11,0-0.567,0.055-0.678,0.055l-0.165,0.165V114.605z M88.795,111.236l0.165,0.109h1.172
				c0.439,0,0.659-0.293,0.659-0.604c-0.091-0.201,0.183-1.557-0.183-1.648h-1.593c0,0-0.11,0.11-0.11,0.165
				c0,0.604-0.109,0.952-0.109,1.593V111.236z M92.658,114.825c0.22,0,0.989-0.073,1.099-0.329c0-0.696,0.11-1.172,0.11-1.776
				c0-0.385,0.11-0.989-0.403-0.989c-1.831,0-1.538,0.275-1.538,1.337C91.926,114.203,91.907,114.825,92.658,114.825z
				 M92.988,108.765c-0.22,0.055-1.062,0-1.062,0.384v1.703c0,0.11,0.183,0.165,0.22,0.22c0.641,0,1.685,0.128,1.685-0.714v-1.428
				l-0.073-0.11c-0.183,0-0.403-0.11-0.549-0.11C93.171,108.691,93.061,108.746,92.988,108.765z"/>
		</g>
		<path fill="#7EE8CA" d="M81.964,18c-0.286,7-0.827,17-1.259,26h13.47c-0.445-9-1.006-19-1.31-26H81.964z"/>
	</g>
</g>
<g>
	<path fill="#269B8A" d="M129.72,110.722c0.646,0,1.544,0.196,1.544,0.533c0,0.028-0.028,0.112-0.028,0.141
		c0.253-0.225,0.533-0.394,0.674-0.337c1.713,0.168,3.397,0.168,5.082,0.168c1.825,0,3.2-0.056,4.66-0.056
		c0.394-0.169,0.506-0.898,0.562-1.011v-3.313c-0.056-0.337-0.168-0.954-0.168-1.291c0.112-1.264-1.572-0.758-1.572-1.348
		c0-0.506,0.842-0.506,1.235-0.898c0.449,0,0.982-0.955,1.685-0.955c0,0,0.28,0.057,0.674,0.281c-0.084,0,0.786,0.337,1.011,0.562
		c0.112,0,0.786,0.337,0.842,0.337c0.281,0.112,0.281,0.112,0.281,0.337c0.28,0,0.337-0.057,0.337,0.337
		c0,0.617-0.449,0.954-0.786,1.46c-0.084,0.449-0.169,0.898-0.169,1.348c-0.056,0.898-0.056,1.853-0.056,2.695
		c0,0.842,0,1.291,0.954,1.291c1.517-0.112,2.752-0.28,4.38-0.28c0.057,0,0.506-0.225,0.562-0.225c0.281-0.112,0.449,0,0.674-0.169
		c0.337-0.28,0.786-0.449,1.123-0.674c0.253-0.168,0.59-0.617,1.011-0.617c0.365,0,1.432,1.487,1.685,2.021h0.028
		c0.141,0,0.141,0.28,0.141,0.337c0,0.393-0.421,0.814-0.758,1.011l-2.555-0.057c-0.729,0-1.965,0.085-2.189,0.057
		c-0.112,0.112-0.197-0.028-0.394-0.225c-0.112,0-0.28,0.056-0.28,0.168c-0.674,0-1.208,0.057-1.854-0.112
		c-2.892,0-3.088,0.112-4.323,0.112c-1.011,0-1.011,0.057-3.257,0.057c-0.786,0.309-1.741,0.14-2.555,0.28
		c-0.252,0-1.263,0.057-1.937,0.057l-0.253,0.168c-1.011,0-2.021,0.112-3.032,0.169c-0.505,0.112-0.955,0.168-1.348,0.168
		c-0.842,0-0.618-0.364-0.786-0.729c-0.393-0.843-1.011-1.18-1.011-1.517C129.552,110.834,129.552,110.834,129.72,110.722z
		 M130.001,125.911c0.168-0.057,1.179-0.562,1.348-0.674c0.196,0,0.309-0.338,0.562-0.506c0.196-0.309,0.842-0.309,1.123-0.562
		c0.084,0,0.337-0.337,0.421-0.337c0.169-0.112,0.421-0.168,0.59-0.337c0.141-0.449,1.039-0.449,1.685-1.46
		c0.225-0.365,0.758-0.842,1.011-1.066c0.393-0.169,0.982-0.871,1.264-1.123c-0.112-0.197,0.926-0.983,0.926-1.601
		c0-0.421-0.421-0.843-0.589-1.095c-0.057-0.225,0.14-0.253,0.393-0.253h0.197l0.337-0.085c0.197,0.028,0.534,0.169,0.758,0.169
		h1.179c0.337,0.084,1.517,1.517,1.517,1.938c0,0.562-0.786,0.729-1.348,1.263c-0.253,0.506-0.506,0.365-1.067,0.955
		c-0.14,0.168-0.814,0.365-0.814,0.506l0.028,0.056c-0.842,0.87-1.685,1.151-2.611,1.685c-0.674,0.449-1.348,0.842-2.021,1.291
		c-1.348,0.422-2.218,1.18-3.65,1.348c-0.168,0.225-1.067,0.506-1.404,0.506c-0.084-0.112-0.112-0.141-0.112-0.281
		C129.805,126.22,129.889,125.995,130.001,125.911z M145.358,116.646c-0.562-0.646-1.319-1.011-1.965-1.432
		c0.056-0.057-0.73-0.59-1.18-0.758c-0.168-0.085-0.842-0.253-0.842-0.534c0-0.168,0.168-0.168,0.337-0.168
		c0.898,0,1.628,0.786,2.189,1.038c0.843,0,1.18,0.927,1.966,0.927c0.842,0.337,1.685,0.759,2.639,1.095
		c0.786,0.478,1.685,0.702,2.527,1.18c0.056,0,0.337,0.337,0.393,0.337c0.225,0,1.123,0.59,1.292,0.843
		c1.066,0.449,1.179,1.487,1.179,2.357c0,0.338,0,0.618-0.084,0.955c-0.505,0.365-1.039,1.011-1.769,1.011
		c-1.292,0-2.331-1.797-2.527-2.19c-0.589-1.123-1.825-2.133-2.639-2.976C146.566,117.656,145.977,116.927,145.358,116.646z"/>
	<path fill="#269B8A" d="M157.711,126.247c0.084,0,0.421-0.336,0.505-0.336c0.983-0.674,1.264-1.18,1.854-1.572
		c0.309-0.113,0.505-0.646,0.674-1.012c0-0.111,0.28-0.449,0.28-0.505c0.337-0.618,0.394-1.179,0.506-1.797
		c0-0.562,0.252-1.123,0.252-1.741c0-0.561,0.14-0.617,0.14-2.471c0-0.111,0.169-1.123,0.169-1.179c0-0.112-0.057-1.123-0.057-1.179
		c0-0.898,0.141-1.854-0.28-2.64c0.028,0-0.057,0,0.112-0.253c0.533-0.027,0.674,0.084,0.842,0.337
		c0.814,0.421,0.898,0.421,0.898,1.264c0,2.667-0.168,5.166-0.168,6.738c0,0.674-0.337,1.432-0.337,1.741
		c-0.337,1.095-0.59,1.348-1.404,2.077c-0.477,0.449-0.309,0.674-0.954,0.674v0.337c0,0-0.674,0.617-0.927,0.842
		c-0.421,0.338-1.516,1.18-1.938,1.18c-0.252,0-0.252,0-0.252-0.225C157.626,126.247,157.654,126.36,157.711,126.247z
		 M165.235,125.405c0-3.004-0.112-5.166-0.112-7.693c0-0.168,0.168-1.179,0.168-1.348c0.084-0.027-0.056-0.28-0.056-0.674
		c0.028-0.084,0.056-0.196,0.056-0.309c-0.084,0.225-0.056-1.432-0.056-2.134c0-0.309-0.112-0.927-0.112-2.189
		c0,0,0.112-0.169,0.112-0.253s-0.169-0.421-0.169-0.506c-0.14-0.364-0.112-0.421-0.617-0.421c-0.057,0-0.898,0.169-1.011,0.169
		h-0.898c-0.028,0.084-0.814,0.168-2.05,0.168c0,0.084-0.168,0.253-0.253,0.253c-1.011,0.141-0.702-1.067-0.758-1.348l0.084-0.084
		c1.432,0,2.555-0.169,3.65-0.169c1.263,0,1.909-0.168,2.751-0.168c0.786-0.084,1.517,0,2.218-0.422
		c0.225-0.111,0.449-0.729,1.011-1.095h0.084c0.168,0,1.6,1.769,1.6,1.938c0,0.337-0.505,0.421-0.758,0.421
		c-0.084,0-0.421-0.084-0.505-0.084c-0.449-0.028-0.843,0.281-1.18,0.168c-0.477,0-2.302,0.057-2.302,0.422
		c0,0.337,0.505,0.59,0.617,0.926c0,1.741-0.112,1.77-0.112,2.106c0,0.898-0.056,1.516-0.056,1.601c0,0.111,0.168,0.449,0.168,0.505
		v4.661c0,0.056,0.057,0.336,0.057,0.393c0.112,0.674,0.112,1.404,0.112,1.965c0,0.843-0.112,1.208-0.112,1.966
		c0,0.927,0,2.415-0.898,2.415c-0.337,0-0.786-0.057-0.786-0.394C165.123,126.051,165.235,125.63,165.235,125.405z M163.943,103.478
		c1.18,0,2.19-0.28,2.892-0.28h0.505c0.309,0,0.59-0.028,0.842-0.169c0.252-0.168,0.758-1.403,1.095-1.403
		c0.505,0,0.842,0.842,1.095,1.179c0,0.057,0.421,0.337,0.421,0.394c0.084,1.207-0.982,0.954-1.853,0.954
		c-1.685,0.337-3.397,0.394-5.054,0.394c-0.618,0-1.292,0.168-1.854,0.168c-0.365,0-0.786-0.196-0.786-0.842
		C161.052,103.394,163.186,103.478,163.943,103.478z M168.688,121.025c-0.028-0.533,0.084-1.348,0.084-2.021
		c0-1.179-0.168-3.763-0.168-3.874c-0.028-0.169,0.084-0.394,0.084-0.618c0-0.59-0.084-1.095-0.084-1.601
		c0-0.421-0.169-0.758-0.169-1.179c0-0.646,0.534-0.702,0.927-1.011c0.393-0.084,0.59,0.59,0.674,0.758
		c0.337,0.281,0.337,0.506,0.337,0.758c0,0.197-0.168,0.506-0.168,0.674c0,0.562,0.056,1.432-0.084,1.432
		c0,2.274,0.169,4.521,0.169,6.683c0,0.646-0.141,2.526-1.011,2.526c-0.253,0-0.421-0.168-0.506-0.393
		C168.772,122.345,168.688,121.138,168.688,121.025z M176.606,123.384c0.084-1.572,0.112-3.145,0.112-4.717
		c-0.056,0-0.281-0.112-0.505-0.112c-0.898,0-1.572,0.112-2.471,0.112l-0.253,0.225c0.028,0.309,0.028,0.617,0.028,0.927
		c0,0.813-0.365,2.386-1.123,2.386c-0.449,0-0.674-0.477-0.674-0.842c-0.028-0.057,0.084-0.506,0.084-0.786
		c0-0.253-0.084-0.702-0.084-0.898c0-0.112,0.084-0.449,0.084-0.505c0-0.113-0.084-0.618-0.084-0.674v-4.408
		c0-0.084-0.084-0.843-0.084-0.927v-2.526c0-0.225-0.169-0.759-0.169-0.759c0-0.084,0.169-0.589,0.169-0.674
		c0-0.196,0-0.309-0.084-0.505v-1.797c-0.337-0.253-0.252-0.506-0.252-1.011l0.168-0.169h0.59c0.056,0.141,0.449,0.59,0.73,0.843
		c-0.084,0.112,0.589,0.505,0.955,0.505c0.084,0,0.168,0,0.253-0.056c0.168,0,1.095-0.169,1.263-0.169
		c0.112,0,0.449,0.057,0.505,0.057c0.112-0.169,0.337-0.225,0.505-0.394c0-1.095,0.112-2.442-0.168-3.818
		c-0.056-0.168-0.337-0.393-0.337-0.562c0-0.337,0.337-1.291,0.674-1.291c0.618,0,1.123,0.505,1.516,0.786
		c0.674,0.253,1.46,0.533,1.46,0.842c0,0.674-0.505,0.646-0.505,0.898c-0.168,0.59-0.674,0.674-0.674,1.18
		c-0.141,0.112,0.168,0.478,0.168,0.674c0,0.112-0.112,0.337-0.112,0.449c0,0.533-0.056,1.179,0.618,1.179
		c0.141,0,1.179-0.084,1.179-0.112c1.235,0,1.488-1.403,2.19-1.403c0.112,0.056,0.618,0.505,0.674,0.562
		c0.505,0.927,1.348,0.786,1.348,1.881c0.028,0.141-0.309,0.898-0.393,1.095v1.432c-0.168,0.169-0.168,1.348-0.168,1.601
		c0,0.674-0.168,1.657-0.168,1.769c0,0.085,0,0.169,0.056,0.253c0,0.253,0.112,1.544,0.112,1.769c0,2.274-0.112,2.584-0.112,3.145
		c-0.056,0.197-1.039,2.19-2.021,2.19c-0.337,0-0.505-0.786-0.618-1.011v-1.291c0-0.057-0.168-0.225-0.225-0.338
		c-2.162,0-2.302,0.141-2.302,1.686c0.112,0.617,0.168,1.853,0.168,2.246l-0.056,0.561c0,0.449,0.056,1.039,0.056,2.977
		c-0.056,0.168-0.505,1.011-0.562,1.18c-0.365,0.252-0.618,1.066-1.46,1.01c-0.056,0-0.337-0.28-0.337-0.336
		C176.269,126.22,176.521,124.844,176.606,123.384z M173.405,116.982c0,0.056,0.084,0.394,0.253,0.394h2.442
		c0.449,0,0.505-0.225,0.618-0.562c0-1.15,0.028-2.302-0.112-3.565c-0.197-0.168-0.926-0.253-1.404-0.253
		c-0.225-0.056-0.309,0.169-0.505,0.169c-0.168,0-0.871,0.084-1.039,0.084l-0.253,0.253V116.982z M173.489,111.816l0.253,0.169
		h1.797c0.674,0,1.011-0.449,1.011-0.927c-0.141-0.31,0.281-2.387-0.281-2.527h-2.443c0,0-0.168,0.169-0.168,0.253
		c0,0.927-0.169,1.46-0.169,2.442V111.816z M179.414,117.319c0.337,0,1.516-0.112,1.685-0.506c0-1.066,0.168-1.797,0.168-2.723
		c0-0.59,0.168-1.517-0.618-1.517c-2.808,0-2.358,0.421-2.358,2.05C178.291,116.364,178.263,117.319,179.414,117.319z
		 M179.919,108.026c-0.337,0.084-1.628,0-1.628,0.59v2.61c0,0.169,0.281,0.253,0.337,0.337c0.983,0,2.583,0.197,2.583-1.095v-2.19
		l-0.112-0.168c-0.281,0-0.618-0.168-0.842-0.168C180.2,107.914,180.031,107.998,179.919,108.026z"/>
	<path fill="#269B8A" d="M188.733,122.317c0.393,0,0.786-0.253,1.207-0.253c0.927-0.169,1.769-0.337,2.695-0.421
		c1.488-0.449,0.983-1.91,1.264-3.145c0-0.618,0.028-0.898-0.421-0.898c-1.348,0-2.695,0.393-3.959,0.393
		c-0.674,0-0.562-0.702-0.955-1.066c-0.309-0.253-0.477-0.562-0.505-0.618c0-0.309,0.562-0.196,0.449-0.225
		c0.056,0,0.674,0.056,0.758,0.056h4.38c0.197,0,0.421-0.842,0.421-1.965c0-1.516-0.056-1.965-0.926-1.909
		c-0.59,0.394-1.404,0.394-2.106,0.505c-0.505,0.057-1.095,0.225-1.6,0.225c-0.197,0-0.702-0.87-0.702-1.066
		c-0.168-0.281-0.73-0.674-0.73-1.011l0.056-0.112h2.555c0.337,0,0.927-0.168,1.18-0.506c0.084-0.056,0.421-0.729,0.505-0.842
		c0.253-0.393,0.59-0.73,0.927-1.18c0.337-0.421,0.421-0.926,0.674-1.348c0.084-0.168,0.253-0.336,0.253-0.505
		c0-0.337-0.646-0.421-0.927-0.421c-1.797-0.112-2.92,0.252-4.127,0.252c-0.253,0-0.421,0-0.59-0.168
		c-0.168-0.365-0.842-1.039-0.842-1.348c0-0.084,0.225-0.253,0.337-0.253c0.337,0.169,0.73,0.337,1.095,0.337
		c2.526,0,3.79-0.084,4.38-0.084c0.084,0,0.252,0.084,0.337,0.084h3.369c0.112,0,0.337,0.084,0.449,0.084
		c0.393,0,0.729-0.589,1.011-0.758c0.337-0.337,0.729-0.505,1.235-0.505c0.309,0,0.14,0.309,0.617,0.421
		c0.365,0.112,0.534,1.18,0.73,1.18c0,0.646,0,0.729-0.674,0.674c-0.169,0-0.983-0.085-1.011-0.169
		c-0.225-0.028-0.562,0.084-0.73,0.084c-0.084,0-0.646-0.084-0.954-0.084c-0.337,0.225-2.078,0-2.078,0.421
		c0,0.422,0.394,0.674,0.394,1.096c0,0.561-0.394,0.674-0.758,1.179c-0.421,0.562-1.769,1.151-1.769,1.853
		c0,0.281,0.674,0.618,0.843,0.618c0.028,0,0.252-0.028,0.337-0.112h2.189c0.197,0.141,0.421,0.112,0.618,0.112
		c0.056,0,0.393-0.169,0.505-0.28c0.225-0.394-0.702-1.572-1.123-2.078c-0.028-0.281,0.084-0.281,0.169-0.281
		c0.337,0,0.617,0.281,0.786,0.338c0.168,0.14,3.2,1.403,3.2,3.2c0,0.449-0.505,1.123-0.954,1.292c-0.337,0-0.73,0.225-1.011,0.505
		c-0.506,0.028-0.394-0.394-0.506-0.674c-0.421-0.309-0.028-1.348-0.842-1.348c-0.421,0-0.843-0.028-1.235,0.169
		c-0.281,0-1.544,0.056-1.544,0.505c0,0.056,0.084,0.225,0.084,0.225l0.954,0.954c0,0,0.057,0.169,0.057,0.225
		c-0.057,0.281-0.057,0.674-0.169,0.955c0,0.562-0.028,1.685,0.843,1.629c0.28,0,1.46-0.281,1.685-0.281
		c0.28-0.057,0.449-0.337,0.674-0.337c0.449,0.196,1.123,0.843,1.123,1.517c0,0.168-0.618,0.617-0.786,0.617
		c-0.225-0.084-0.562-0.337-0.73-0.337c-0.14,0.056-2.274-0.141-2.808,0.337c-0.393,0.337-0.028,1.909-0.225,2.078
		c-0.028,0.364,0.141,0.729,0.394,1.038c0.589,0.028,0.814-0.056,1.291-0.196c0.73-0.168,1.517-0.337,2.246-0.393
		c-0.028,0.027,0.618-0.085,0.618,0.168c0,0.674-0.702,0.337-0.674,0.59c-1.292,0.252-2.021,1.011-3.145,1.179
		c-0.394,0-0.871,0.506-1.348,0.506c-0.506,0.168-0.59,0.337-1.095,0.589c-0.252,0.085-0.505,0.085-0.758,0.169
		c-0.056-0.141-0.421,0.421-0.674,0.421c-0.562,0-0.926,0.506-1.263,0.506c-0.084,0.084-1.011,0.337-1.095,0.421
		c-0.168,0.084-0.421,0.337-0.674,0.337c-0.562-0.393-0.758-1.235-1.375-1.854c-0.168-0.168-0.562-0.589-0.562-0.842
		C187.667,122.204,188.368,122.317,188.733,122.317z M202.519,115.298c0-0.168,0.084-1.18,0.084-1.348
		c0-1.881-0.084-3.734-0.084-5.728c-0.252-0.365-0.674-1.123-0.674-1.207c0-0.169,0.758-0.506,1.011-0.506
		c0.421,0,1.348,0.646,2.021,0.843c0.169,0.084,0.169,0.252,0.169,0.421s-0.253,0.478-0.253,0.674c0,0.337-0.168,0.674-0.168,1.011
		c0,0.057,0.084,0.478,0.084,0.674c0.028,1.769-0.084,1.993-0.084,2.471c0,0.057,0.084,0.393,0.084,0.506v3.874
		c0,0.112-0.084,0.28-0.169,0.337l0.084,0.112c0,0,0.084,0.674,0.084,0.898c0.056,0.87-0.141,1.179-0.337,1.797
		c0,0.618-0.534,0.786-0.927,1.011c-0.365,0-0.927-0.982-1.011-1.348C202.435,118.892,202.519,116.982,202.519,115.298z
		 M206.478,123.833c0.421-0.253,0.505-1.18,0.674-1.685v-1.966c0.084-0.111,0.112-0.168,0.112-0.225c0-0.084-0.028-0.14-0.028-0.336
		c0-0.281,0.169-0.506,0.169-0.787c0-0.168-0.084-0.225-0.084-0.505c0-1.348,0.084-2.751,0.084-4.212
		c0.084-0.111,0.084-0.168,0.084-0.28c-0.084-0.702-0.168-1.292-0.168-2.021c0-0.337,0.084-0.562,0.084-0.843
		c0-0.505-0.169-1.01-0.169-1.516c-0.084-1.011,0-1.938-0.084-2.948c0-0.589-0.253-1.432-0.253-2.105
		c0-0.084,0.028-0.253,0.028-0.421c0-0.702-1.235-0.871-1.46-1.18c0.253-0.505,0.59-0.421,1.095-0.674
		c0.337-0.168,0.506-0.337,0.843-0.337c0.421,0,0.842,0.337,1.263,0.506c0.252,0.084,0.674,0.084,0.955,0.253
		c0.168,0.084,0.73,0.842,0.73,1.095c0,0.421-0.562,0.589-0.674,0.927c0,0.309,0.056,1.123-0.168,1.263l0.112,0.169
		c0.056,0.505-0.168,0.926-0.168,1.432c0,1.011-0.112,1.965-0.112,2.639h-0.056c0,0.113,0.112,0.197,0.168,0.338v5.053
		c0,0.113,0.056,0.449,0.056,0.506c0.112,1.46,0.112,2.808,0.112,4.211c0,0.113,0.056,0.702,0.056,0.787
		c0.056,1.291,0,2.582-0.337,3.874c-0.056,0.169-0.534,0.28-0.674,0.421c-0.084,1.207-1.375,1.18-1.516,1.517
		c0,0.168,0,0.309-0.168,0.337c-0.337-0.337-0.842-0.562-0.842-0.843c0-0.14-0.253-1.263-0.421-1.263
		c-0.141,0.084-0.281-0.113-0.421-0.253c-0.252-0.169-1.011-0.169-1.095-0.59C204.905,124.001,205.748,123.917,206.478,123.833z"/>
	<path fill="#269B8A" d="M227.281,120.913c0-0.365,0.028-0.898-0.506-0.898c-0.168,0-1.095,0.617-1.572,1.066
		c-0.337,0.338-1.123,0.59-1.011,0.73c-0.926,0.196-1.488,0.927-2.218,1.348c-0.449,0-0.73,0.506-1.011,0.506
		c-0.393,0.027-1.235,0.758-1.769,1.01c-0.506,0.225-1.235,0.113-1.685,0.562c-0.73,0.393-1.854,0.954-2.611,0.954v-0.112
		c0.393-0.168,0.842-0.478,1.235-0.73c0.505-0.309,0.955-0.449,1.46-0.785c0.084-0.057,0.505-0.506,0.59-0.506
		c0.168-0.057,0.842-0.393,1.011-0.506l1.516-1.516c0.084,0,0.337-0.225,0.421-0.225c0.562-0.337,0.786-0.814,1.263-1.123
		c0.506-0.506,2.05-1.797,2.19-1.965c0.084,0.14,0.337-0.562,0.505-0.73c0.112-0.168,1.18-1.348,1.292-1.516
		c0.056-0.113,0.225-0.506,0.337-0.674c0.028-0.225-0.028-0.449-0.281-0.449c-0.674,0-0.842,0.785-1.235,1.123
		c-0.337,0.225-0.674,0.168-1.011,0.336c-0.646,0.449-1.039,0.983-1.797,1.348c-0.252,0.169-0.421,0.394-0.758,0.562
		c-0.562,0-1.404,0.729-1.938,1.01h-0.252c-0.252,0.113-1.263,0.674-1.516,0.787c-0.421,0.056-1.432,0.674-1.965,0.674
		c0-0.365,2.639-1.629,3.566-2.303c1.179-0.842,2.189-1.881,3.285-2.92c0.702-0.674,1.235-1.066,2.049-1.881
		c0.225-0.253,0.73-0.337,0.73-0.843c0-0.084-0.225-0.168-0.337-0.168c-0.534,0-0.73,0.758-1.348,0.758
		c-0.057,0-0.421,0.337-0.506,0.337c0-0.084-1.179,0.506-1.6,0.786c-0.505,0.562-1.235,0.505-1.853,0.729
		c-0.786,0.31-1.404,0.843-2.274,0.843c0-0.533,2.134-1.572,2.695-1.909c0.618-0.562,1.544-0.955,2.274-1.544
		c-0.112,0,1.628-1.123,2.442-1.938h0.084c0.281,0,0.421-0.253,0.421-0.505c0,0,0-0.169-0.057-0.169
		c-1.544,0-2.667,0.253-4.323,0.253c-0.253-0.253-0.59-0.59-0.59-1.011c0.674,0,1.544,0.028,1.685-0.085
		c0.449-0.027,1.348,0.085,1.881,0.085c0.562,0,0.562-0.253,1.011-0.253h1.011c0.057,0,0.394-0.084,0.506-0.084
		c0.196,0.084,0.393,0.084,0.505,0.084c0.057,0,0.394-0.168,0.506-0.168c0.589,0,1.572-0.169,2.077-0.169
		c1.432-0.112,2.724-0.169,4.155-0.169c0.084,0.085,0.421,0.253,0.506,0.253c0.533,0,0.758-0.168,1.263-0.168
		c0.589,0,0.505,0.589,0.505,0.927c0.056,0.084-0.028,0.421-0.253,0.421h-2.779c-0.196-0.085-0.955-0.281-1.179-0.253
		c0.084,0.112-1.404,0.084-2.274,0.084c-0.478,0-1.292-0.196-1.292,0.843c0,0.084-0.393,0.337-0.393,0.421
		c-0.141,0.927,0.562,0.927,0.562,1.685c0.477,1.235,0.421,1.628,0.505,2.64c0.084,0.729,0.281,1.375,0.281,2.189v0.337l0.168,0.337
		c0,0.702,0.057,1.544,0.057,1.685c0,0.169-0.169,1.179-0.169,1.348c0,1.039-0.056,2.05-0.393,3.145
		c0,0.056-0.281,0.505-0.281,0.562c0,0.112-0.393,0.449-0.393,0.506c-0.618,0.842-1.18,1.797-2.303,2.133
		c-1.039,0.085-0.477-0.926-1.011-1.459c0.028-0.31-1.235-0.787-1.235-1.18C227.449,125.405,226.804,123.945,227.281,120.913z
		 M218.185,108.531c0.196-1.123,0.926-2.835,0.926-3.369l0.084-0.112c0.309-0.225,0.533,1.46,1.179,1.46
		c0.169,0,1.657,0.141,2.19-0.28l0.337,0.112c1.291,0.028,1.375-0.112,1.853-0.112c0.955,0,2.471,0.252,2.471-1.067v-2.863
		c0-0.506-0.617-0.449-0.617-0.786c0-0.057,0-0.169,0.168-0.225c0.871,0,1.208-0.449,1.966-0.449c0.056,0,0.337,0.168,0.393,0.168
		c0.843,0,1.881,0.084,1.881,0.674c0,0.169-0.449,1.348-0.926,2.134c0,0.702-0.449,0.927-0.449,1.348
		c0,0.506,0.112,0.843,0.617,1.011c0.394,0.028,0.646-0.168,1.011-0.28c1.18,0,1.825-0.337,2.527-0.337
		c0.084,0,0.505,0.168,0.589,0.168s1.095-0.056,1.179-0.056h0.084c0.084,0,0.253,0.056,0.253,0.225
		c-0.842,0.87-3.369,0.674-5.812,0.674c-0.112,0-0.281,0.112-0.337,0.112c-0.337-0.084-0.59,0.056-0.843,0.056
		c-0.954,0.112-2.021,0.112-2.976,0.112l-0.169,0.057c-0.337,0-1.685,0.168-2.021,0.168c-0.084,0-0.758,0.169-0.842,0.169
		c-0.73,0-1.713-0.057-1.854,0.28c0,0.309-0.337,0.478-0.337,0.927c-0.421,0.394-0.365,0.786-0.589,1.179
		c-0.898,0.449-0.898,1.012-1.685,1.012c-0.309-0.225-0.758-0.787-0.758-1.264C217.679,109.121,218.016,108.7,218.185,108.531z
		 M232.026,116.14c0.758,0,1.095-1.123,1.769-1.797c0.168-0.252,0.421-0.589,0.421-0.926c0-0.253-0.168-0.422-0.168-0.758
		c0-0.253,0.084-0.674,0.337-0.674c0.309,0,0.337,0.14,0.674,0.336c0.337-0.056,0.589,0.506,0.842,0.506
		c0.449,0.393,0.562,0.141,0.758,1.011c-0.309,0.394-0.589,1.067-1.095,1.348c-0.281,0-0.533,0.394-0.758,0.337
		c-0.084,0-0.337,0.449-0.421,0.449l-0.168,0.057c-0.337,0.168-1.685,1.01-1.685,1.459c0,0.898,2.779,3.258,3.538,3.707
		c0.842,0.505,1.853,0.954,2.808,1.291c0.225,0.057,1.572,0.225,1.572,0.562c0,0.112-1.348,0.954-1.854,1.179
		c-0.057,0.113-0.73,0.338-0.842,0.449c-0.422,0.225-0.702,0.759-1.348,0.73c-1.433-0.982-2.274-2.078-3.285-3.537
		c0-0.057-0.421-0.506-0.421-0.562c0-0.477-0.758-1.572-1.095-2.302c0-0.112-0.337-0.618-0.337-0.674
		c0-0.112-0.168-0.843-0.168-0.954c-0.169-0.422-0.169-0.674-0.253-1.067c-0.168-1.011-0.421-1.853-0.421-2.892
		C231.268,113.417,231.184,116.14,232.026,116.14z M239.775,105.724c0,0.533-1.236,0.337-1.741,1.123
		c-0.225,0.169-0.646,0.197-1.376,0.927h-0.337c0-0.196,0.085-1.207,0.085-1.376c0-0.056,0.168-0.562,0.168-0.674
		c0-0.309,0.057-1.066,0.421-1.066C237.81,104.657,239.578,105.219,239.775,105.724z"/>
	<path fill="#269B8A" d="M243.676,127.623c1.629-0.842,2.387-1.656,2.387-2.639c0-0.421-0.168-0.59-0.786-0.759
		c-1.151-0.309-1.741-0.982-1.741-2.021c0-1.291,0.983-2.246,2.331-2.246c1.544,0,2.555,1.151,2.555,2.893
		c0,2.387-1.572,4.464-4.155,5.503L243.676,127.623z"/>
	<path opacity="0.2" fill="#269B8A" d="M270.375,107.016c0-0.057,0.056-0.057,0.168-0.057c0.898,0,1.74,0.843,2.779,1.011
		c0.253,0.337,0.674,0.337,1.011,0.506c0.618,0,1.601,1.011,1.601,1.74c0,0.674-0.758,1.713-1.18,1.713
		c-0.336,0-1.095-0.225-1.095-0.533c0-0.057-0.337-0.674-0.337-0.73c-0.225-0.505-0.758-1.095-0.758-1.516
		c-0.617-1.011-1.46-1.18-2.189-2.021V107.016z M275.766,104.573c0-0.085-0.169-0.338-0.169-0.422
		c-0.505-1.432-1.601-2.526-2.695-3.537v-0.253c0.674,0,1.572,1.095,1.853,1.348c0.253,0.169,0.506,0.169,0.759,0.337
		c0.646,0.421,0.982,1.264,2.021,1.264c0.421,0.084,0.842,1.348,0.842,1.769c0,0.505-0.589,1.769-1.179,1.769
		c-1.32,0-0.843-0.701-1.432-0.842V104.573z M273.575,124.114c-0.169-0.281-0.674-0.843-0.674-1.012c0-0.111,0-0.28,0.056-0.28
		l0.955-0.169c0.168,0,0.421-0.505,0.421-0.617c-0.028-0.084,0.253-0.898,0.253-1.516c0-0.843,0.758-1.601,0.758-2.752
		c0.084-0.617,0.253-1.123,0.422-1.713c0-0.365,0.196-1.207,0.505-2.273c0.562-0.927,0.112-1.854,0.758-2.893
		c0.337-0.562-0.056-0.758,0.337-1.403c0-0.141,0.506-1.123,0.506-1.797c0-0.169,0.084-0.225,0.252-0.225
		c0.085,0.196,0.085,0.478,0.085,0.562l-0.506,2.134l-0.084,0.168l-0.421,2.274c0,0.084-0.169,0.337-0.169,0.421
		c-0.364,1.348-0.589,4.212-0.674,4.128c0,0.168,0.085,0.168,0.085,0.28c0,0.225-0.169,0.562-0.169,0.843
		c0,0.842-0.084,1.179-0.084,4.548l-0.085,0.28c0,0.394,0.085,0.898,0.085,1.012c0,0.393-0.085,2.414-0.085,2.863
		c0,0.112-0.646,1.516-1.348,1.516c-0.28,0-0.168-0.056-0.252-0.168C274.024,126.725,274.249,125.124,273.575,124.114z
		 M278.123,113.276c0.113,0,2.611-0.337,4.24-0.337c0.646,0,2.189,0.225,2.189-0.59c0.028-0.168-0.112-1.516-0.112-1.516
		l-0.225-0.281h-1.46c-0.141,0.112-0.309,0.141-0.477,0.141c-0.113,0-0.253-0.028-0.365-0.028l-0.337,0.057
		c-0.759,0.027-1.348-0.028-1.685-0.73c-0.169-0.365,1.039-0.449,1.965-0.449c0.057,0,0.843-0.168,1.854-0.168
		c0.898,0,0.898-0.814,0.898-1.685c0-0.225-0.169-0.506-0.394-0.562c-1.656,0-1.656,0.056-2.021,0.056h-0.421
		c-0.168,0-0.281,0-0.421,0.112h-1.629l-0.674-0.786c0-0.309,0.028-0.505,0.337-0.505c0.702,0,1.039,0.112,2.808,0.112
		c0.983,0,2.415,0.309,2.415-0.702c0-0.506,0.112-2.695,0.112-3.201c0.056-0.252,0.056-0.336,0.337-0.336
		c0.393,0,2.442,0.589,2.442,1.066c0,0.225-0.169,0.702-0.421,0.87c0,0.618-0.112,0.843-0.112,1.769c0,0.197,0.084,0.422,0.28,0.422
		h3.369c0.169,0,0.253-0.169,0.253-0.337c0.056-0.028,0.141,0.028,0.253,0.084c0.309,0.056,0.982-1.517,1.6-1.432
		c0.113,0.14,1.292,1.095,1.292,1.853c0,0.449-0.702,0.506-0.954,0.506c-0.871,0-1.572,0.168-2.359,0.168
		c-0.084,0-1.01-0.056-1.095-0.056c-0.084,0-0.421,0.056-0.421,0.056c-0.506,0-0.927-0.056-1.348-0.056
		c-0.225,0-1.095-0.085-1.095,0.337v1.516c0,0.225,0.253,0.506,0.505,0.506h2.274c0.927,0,1.264-1.123,2.021-1.123
		c0.084,0,1.601,0.87,1.601,1.516c0,0.169,0,0.449-0.169,0.506h-2.779c-0.084,0-0.505,0.112-0.674,0.112
		c-0.786,0.14-2.442,0.028-2.779,0.562c0,0.309-0.085,1.656-0.085,1.797c-0.027,0.027,0.085,0.365,0.085,0.59
		c0,0.674-0.955,0.505-1.629,0.505c-0.056,0-0.393,0.169-0.505,0.169c-1.264,0-2.499,0.336-3.875,0.336
		c-0.337,0.057-0.533-0.084-0.729-0.084c-0.337,0-1.18,0.169-1.292,0.169l-0.674-0.59v-0.084
		C278.039,113.444,278.039,113.276,278.123,113.276z M289.775,124.675c0-0.225-0.084-0.505-0.084-0.729c0-0.112,0-0.169,0.084-0.28
		v-2.19c-0.084-0.141-0.112-0.618-0.843-0.618c-0.084,0-0.505,0.113-0.589,0.113c-0.618,0-3.397,0.056-3.566,0.225
		c-0.365,0-2.583-0.169-2.583,0.505v2.808c0.057,0.281,0.057,0.449,0.057,0.674c0,0.73-0.057,1.066-0.057,1.629
		c-0.112,0.393-0.674,1.403-1.179,1.403c-0.927,0-0.843-1.403-0.843-2.695v-0.225l0.057-0.28c0-0.057-0.057-0.338-0.057-0.394
		c0-0.253,0.057-0.927,0.169-0.954v-0.057c0-0.112-0.112-0.786-0.112-0.898l0.112-0.225c0-1.376-0.112-4.1-0.112-4.998l-0.057-0.225
		v-2.386c0,0,0.057-0.169,0.169-0.169c0.225,0,0.477,0.225,1.066,0.337c0.169,0,0.843,0.702,1.348,0.843
		c0.59,0,1.18,0.056,1.966-0.084h2.526c0.225-0.085,0.478-0.085,0.702-0.085h0.646c0.169,0,0.506-0.084,0.674-0.253
		c0-0.336,1.011-1.123,1.096-1.01c0.056-0.225,0.477,0.336,0.842,0.336c0.562,0.281,1.011,0.422,1.011,1.18
		s-0.505,1.011-0.505,1.629c0,2.526,0.252,5.053,0.252,7.58c0,0.506-0.252,1.011-0.505,1.46c-0.449,0.421-1.264,1.853-2.106,1.853
		c-0.196,0-0.954-1.797-2.189-1.797h-0.253c-0.253,0-0.505-0.027-0.505-0.336C286.406,125.687,289.775,126.304,289.775,124.675z
		 M282.194,119.509c0,0.141-0.028,0.281-0.028,0.422c0,0.421,0.365,0.59,0.759,0.59c2.134,0,1.825-0.338,1.965-1.348
		c0-0.057,0.057-0.674,0.057-0.73c0-0.955,0.084-1.629-0.562-1.629c0.084,0-1.432,0.169-2.134,0.169
		c0,0.954-0.169,1.432-0.169,1.966C282.026,119.088,282.194,119.312,282.194,119.509z M287.67,120.183
		c0.084,0,1.01-0.056,1.095-0.056c0.056,0,0.14,0.028,0.225,0.028c0.421,0,0.617-0.562,0.617-0.871c0-1.375-0.028-2.246-0.084-2.555
		l-0.253-0.252h-1.938c-0.505,0-0.842,0.449-0.674,0.505c-0.027,0.084,0.085,0.927,0.085,1.011c0,0.337-0.112,0.758-0.112,1.488
		c0,0.252,0.027,0.449,0.196,0.646C287.248,120.239,287.248,120.183,287.67,120.183z M288.849,112.855
		c0.758,0,1.432,0.084,2.19,0.084c0.674,0,1.263-0.253,1.853-0.59c0.421-0.253,0.674-1.179,1.348-1.123
		c0.112,0,1.853,1.292,1.853,1.882c0,0.168-0.168,0.421-0.336,0.421c-0.057,0-0.562-0.085-0.674-0.085
		c-0.674,0-2.527,0.085-3.033,0.085c-0.252,0.028-0.561-0.085-0.842-0.085c-0.421,0-0.927,0.169-1.348,0.169
		c-0.196,0-0.674-0.084-1.011-0.084c-0.084,0-0.758,0.084-0.843,0.084c-0.225,0.056-0.336-0.056-0.336-0.253
		C287.67,112.855,288.512,112.855,288.849,112.855z"/>
	<path fill="#269B8A" d="M300.277,126.688c0.569,0,0.869-0.811,1.89-1.44c0.96-0.779,1.71-1.62,2.7-2.579
		c1.17-0.87,1.109-1.381,1.979-2.46c-0.06-0.061-0.06-0.421-0.18-0.45c-0.09,0-0.45-0.271-0.54-0.271
		c-0.63-0.359-0.54-1.35-1.44-1.35c-0.54,0-0.63,0.27-1.08,0.54c-0.06,0.06-0.96,0.3-1.17,0.54c-0.09,0-0.359,0.359-0.449,0.359
		c-0.271,0.391-0.931,0.36-1.08,0.36c0.12,0.09-1.08,0.811-1.561,0.811c-0.18,0-0.359,0-0.42-0.181c0-0.39,1.351-0.899,1.891-1.26
		c0.27-0.18,0.54-0.54,0.81-0.72c0.36,0,1.8-1.11,2.43-1.891c0.03-0.51-0.21-0.989-0.359-1.439l0.09-0.09
		c-0.63-0.54-0.36-0.99-1.17-1.351c-0.09,0-0.36-0.18-0.45-0.18c0.03,0-0.12-0.06-0.18,0.09c-0.091,0.09-0.45,0.36-0.54,0.36h-0.09
		c-0.181,0.09-0.811,0.54-0.99,0.63c-0.45,0-0.811,0.63-1.38,0.63c-0.181,0-0.24,0-0.24-0.18c0.54-0.811,1.11-0.78,1.89-1.53
		c0.391-0.42,0.63-0.689,1.26-1.02c0.45-0.54,0.721-0.48,0.99-0.9c0.36-0.66,1.021-0.66,0.99-1.319c-0.09-0.12-0.63-0.66-0.72-0.721
		c0,0-1.351-0.779-1.351-1.199c0-0.061,0-0.181,0.09-0.181c0.48,0,1.41,0.51,1.891,0.72c0.18,0.12,0.63,0.36,0.81,0.36
		c0.93,0,1.2-0.75,1.53-1.26c0-0.061,0.359-0.36,0.359-0.42c0.21-0.42,0.391-0.48,0.391-0.48c0.18,0,0.96,0.48,1.319,1.021
		c0.15,0.93-0.96,1.29-1.439,1.859c0,0.75,2.34,1.23,2.16,2.101c0.12-0.061-0.54,0.72-0.9,0.96c0.3,0.689,0.48,1.109,1.021,1.109
		c0.72,0,0.779-1.83,0.779-2.25c0-0.18,0.12-0.72,0.181-1.02c0-0.24,0.3-0.69,0.3-1.8c0-2.311,0.029-3.09-1.08-3.061
		c-1.021,0.181-2.1,0.24-3.09,0.36c-1.32,0.24-2.61,0.39-3.87,0.54c-0.09,0-0.72,0.18-0.899,0.18
		c-0.721,0.42-1.591,0.301-2.551,0.301c-0.359-0.301-0.539-0.721-0.72-1.141c0-0.06-0.42-0.6-0.42-0.72l-0.12-0.18
		c0-0.03,0-0.09,0.12-0.181h3.42c0.09,0,0.36-0.06,0.45-0.06c2.01,0,3.87-0.061,5.88-0.18c0.63,0,2.13,0.21,2.699-0.48v-1.14
		c-0.18-0.181-0.18-1.08-0.18-1.38c0-0.811-0.899-1.86-0.899-2.34c0.96,0,1.8,0.359,2.76,0.479c0.569,0,2.64,0.12,2.64,0.78
		c0.18,0.899-1.08,0.99-1.38,1.56c-0.33,0.66-0.24,1.23-0.24,2.04l0.18,0.18c0,0,0.96,0.12,1.44,0.12
		c0.54,0.061,0.96-0.18,1.53-0.18c0.449,0,0.899,0.06,1.26,0.06c0.12,0,1.02-0.029,1.08-0.06c0.27-0.12,1.89-1.56,2.43-1.56
		c0.57,0,0.96,0.869,1.47,1.199c0.96,0.601,0.9,0.9,0.9,1.141c0,0.54-0.181,1.199-0.841,1.199c-0.09-0.029-0.21-0.119-0.239-0.18
		c-0.15,0-0.181,0.03-0.3,0.061c-0.75,0-1.5-0.24-2.25-0.24c0.06,0.18-1.44-0.12-1.44,0.24c0,0.479,0.54,0.6,0.54,0.96
		c0,0.6-0.899,0.96-0.899,1.68c0,0.51,1.859,1.26,1.89,1.26c0.09,0.12,0.899,0.36,0.99,0.479c0.18,0.061,0.449,0.36,0.449,0.721
		c0,0.42-1.08,0.6-1.35,0.779c-0.18,0.12-0.27,0.301-0.54,0.301c-0.36,0-0.72-0.54-0.99-0.721c-0.54-0.3-1.109-1.08-1.8-1.08
		c-0.899,0-1.5,1.141-2.43,1.5l-0.12-0.06c0,0.36-0.54,0.78-0.899,0.78c-0.24,0-0.54-0.061-0.54-0.36c0-0.39,2.55-1.11,2.55-2.7
		c0-0.33-0.301-0.689-1.71-1.979v-0.36c0.18,0,0.18,0,0.359,0.12c0.061,0.061,1.261,0.42,1.351,0.54c0.359,0.18,0.72,0.36,1.08,0.36
		c0.779,0,1.26-1.561,1.26-1.92c0-0.181-0.09-0.48-0.36-0.54c-0.84,0-1.319-0.12-2.43-0.12c-0.39,0-1.98-0.03-1.98,0.36v0.659
		c-0.09,0.12,0.45,0.301,0.601,0.48c-0.03,0.12-0.09,0.18-0.21,0.18c-0.061,0-0.21-0.06-0.3-0.06c-0.391,0-0.63,0.96-0.63,1.739
		c0,0.301-0.301,2.101-0.301,2.34c-0.09,0.391-0.06,0.511-0.06,1.62c0.33,0.48,0.689,0.9,0.96,1.29c0.39,0.3,1.11,2.88,1.92,2.88
		c0.54,0,0.899-0.899,0.899-1.35c0-0.99-1.739-1.89-1.739-2.43c0.84,0,1.739,1.529,2.729,1.529c0.72-0.33,1.17-1.8,1.98-1.8
		c0.42,0.12,0.81,0.45,1.08,0.811c0.119,0.63-1.44,1.079-1.44,1.979c0.479,0.99,2.07,0.99,2.52,1.979
		c0.091,0.931-0.479,0.75-0.899,1.261h-0.72c-0.631-0.96-1.65-2.16-2.61-2.16c-0.33,0-1.38,0.72-1.17,1.26
		c0.99,0.93,1.8,1.98,2.97,2.7c1.83,1.2,6.149,2.34,6.149,2.52c0,0.3-1.439,0.84-1.739,1.021c-0.601,0.42-1.08,1.079-1.71,1.439
		c-0.15,0.03-0.3,0.061-0.3,0.18c0,0.15-0.271,0.03-0.33,0.061c-0.63-0.72-1.44-1.26-2.16-1.86c-0.12-0.149-0.09-0.39-0.45-0.359
		c-0.27-0.12-0.99-0.721-1.08-1.021l-1.08-1.08c-0.72-1.08-1.8-1.89-2.279-3.06c-0.391-0.9-0.601-1.979-0.9-2.97
		c-0.06-0.45-0.06-1.71-0.779-1.71c-0.271,0-0.66,1.41-0.66,1.8c0.18,0.48-0.54,1.05-0.54,1.53c-0.18,0.449-0.24,0.81-0.42,1.26
		c-0.48,1.17-1.08,1.8-2.101,2.79c-0.18,0.54-0.81,0.899-1.17,1.26c-0.329,0.51-1.859,1.56-1.8,1.62
		c-0.479,0.479-0.84,0.899-1.17,0.84c-0.54,0.51-1.35,0.75-1.979,1.14c-0.271,0.18-1.17,0.84-1.44,0.84
		c-0.21,0-0.75-0.12-0.75-0.359C299.347,127.139,300.367,126.868,300.277,126.688z M304.417,114.719c0.18,0.18,0.63,0.72,0.99,0.72
		c0.239,0,1.199-0.779,1.71-1.26c0.029-0.06,0.539-0.689,0.539-0.84c-0.539-0.84-1.47-1.86-2.159-1.86c-0.36,0-1.71,1.32-2.16,1.32
		c-0.18,0.18-0.18,0.3-0.18,0.48c0,0.239,0.27,0.359,0.359,0.63C303.697,113.999,304.327,114.629,304.417,114.719z M307.656,117.868
		c0.631,0.211,1.561-1.949,1.561-2.52c0-0.27,0-0.45-0.18-0.45c-0.48,0-0.9,0.54-1.2,0.721c-0.181,0.18-1.23,0.569-1.17,1.079
		C306.847,117.059,307.207,117.688,307.656,117.868z M312.456,101.339c0.181-0.06,0.24-0.42,0.24-0.6s-0.06-0.3-0.24-0.3
		c-0.119,0-0.18,0-0.18,0.12l0.18,0.06c-0.029,0.271-0.479,0.12-0.479,0.48C312.066,101.069,312.246,101.339,312.456,101.339z"/>
	<path fill="#269B8A" d="M330.938,124.675c0-1.375,0.252-3.649,0.252-3.818c0-0.477-0.027-0.898-0.027-1.375
		c0-0.365,0.027-0.786,0.111-1.151v-4.239c0-0.169-0.168-1.067-0.168-1.235c0-0.281,0-0.786-0.337-0.786
		c-0.112,0-0.758,0.562-0.758,0.842c-0.449,0.337-1.039,1.517-1.601,1.713c-0.617,1.207-1.965,2.134-3.032,2.948
		c-0.449,0.337-0.843,1.011-1.517,1.011v-0.253c0,0,0.338-0.421,0.394-0.59c0.337-0.421,0.814-0.589,1.179-1.011
		c0.422-0.505,0.955-1.011,1.348-1.516c0.281-0.253,0.534-0.955,1.012-1.123c1.01-1.545,2.105-3.004,3.06-4.717
		c1.095-1.881,2.19-3.678,2.19-5.672c0-0.533-0.057-0.954-0.422-1.348c0.085-0.056,0.422-0.225,0.506-0.225
		c0.337,0.028,1.011-0.505,1.516-0.505c0.338,0,0.843,0.646,1.096,0.898c0.449,0.505,0.842,0.842,0.842,1.516
		c0,0.618-0.729,0.814-1.066,1.18c-0.337,0.393-0.449,0.954-0.702,1.123c-0.084,0.056-0.421,0.393-0.505,0.505
		c0,0.281-0.422,0.562-0.422,0.73c-0.252,0.393-1.095,1.572-1.095,1.909c0.141,0.393,0.814,0.393,0.927,0.898
		c0,1.376-0.084,1.319-0.084,1.797c0,0.589-0.028,1.179-0.028,1.769c0,1.965-0.31,4.633-0.31,5.223c0,2.498-0.168,4.576-0.168,5.502
		c0-0.027,0.084,0.478,0.084,0.674c-0.056,0.759-0.59,1.686-1.179,1.686c-0.421-0.141-0.73-0.506-0.843-0.843
		c0-0.169-0.421-0.505-0.421-0.843C330.769,125.181,330.938,124.844,330.938,124.675z M340.286,108.307
		c-0.393,0.394-0.898,1.039-1.011,1.235c-0.225-0.112-1.46,1.881-2.021,2.021h-0.225l-0.954,1.011
		c-0.59,0.618-1.011,0.73-1.601,1.123c-0.168,0-0.253,0-0.253-0.168c0-0.449,1.404-1.797,1.854-2.358
		c0.337-0.618,0.813-0.955,1.179-1.517c0-0.478,0.898-1.151,1.18-2.077c0.056-0.674,0.954-0.955,0.954-1.854
		c0.225-0.674,0.394-1.235,0.674-1.909c0.057-0.337,0.337-0.674,0.337-1.011c0-0.674-0.617-1.123-0.617-1.46
		c0-0.393,1.123-0.505,1.46-0.505h0.225c0.786,0.617,2.808,1.572,2.808,2.021c0,0.842-0.73,0.59-0.73,1.628
		c0,0.337,0,0.843,0.057,1.067c0.027,0.421,0.646,1.348,0.842,2.246c0.141,0.617,0.646,0.842,0.843,1.516l1.516,1.517
		c0.225-0.169,0.562,0.842,1.18,0.842c1.038,0.73,2.05,1.517,3.229,2.021c-0.169,0,1.685,0.394,1.685,0.759
		c0,0.196-0.674,0.252-1.011,0.252c-0.225,0-0.843,0.422-1.432,0.422c-0.449,0.14-0.927,0.617-1.18,0.589
		c-0.478,0-0.253,0.337-0.674,0.337c-0.168,0.197-1.685-0.926-2.134-1.516c-0.87-1.488-1.46-1.994-1.853-2.977
		c0-0.533-0.646-1.291-0.843-1.909c0.112-0.562-0.477-1.095-0.562-1.628c0-0.057-0.28-1.18-0.28-1.292
		c-0.197-0.028,0.196-1.179-0.506-1.179C341.55,106.342,341.017,107.38,340.286,108.307z M335.569,120.183
		c-0.028-0.393,0.618-1.095,0.618-1.853c0-0.478,0.225-0.674,0.225-0.927c0.112-0.252,0.168-1.6,0.449-1.6
		c0.225,0,0.562,2.61,0.562,3.705c0,1.264-0.169,2.64-1.18,3.482c-0.168,0.168-0.337,0.225-0.505,0.225
		c-0.758,0-0.843-1.18-0.843-1.686C334.896,121.025,335.401,120.688,335.569,120.183z M340.286,123.721
		c0-1.572,0.057-2.836-0.056-4.212c0-0.084-0.112-0.421-0.112-0.505c-0.085-0.084,0.112-0.505,0.112-0.59
		c0-0.112-0.112-0.393-0.112-0.421l0.112-0.253v-0.084c0-0.084-0.169-0.758-0.169-0.843c0-2.049-0.056-3.369-1.291-4.576
		c-0.085-0.141,0.337-0.393,0.786-0.393c0.617,0,0.982-0.337,1.235-0.337c0.674-0.112,2.077,0.364,2.077,1.179
		c0,0.337-0.28,0.506-0.337,0.73c-0.084,0.533-0.28,1.488-0.28,1.965c-0.028,2.246,0.28,4.071,0.28,6.148
		c0,0.759-0.14,1.657-0.112,2.359l0.112,0.111c0,0.73,0,1.882-0.449,2.695c-0.056,0.057-0.954,0.73-1.011,0.843
		c-0.027,0.169-0.505,0.225-0.954,0.505c-0.674,0-0.674-0.674-0.843-1.123c-0.056-0.225-0.337-0.561-0.505-0.729
		c-0.394-0.59-1.517-0.59-1.517-1.011C337.254,124.731,340.286,125.04,340.286,123.721z M343.88,116.562
		c0.562,0,1.095,0.617,1.909,1.095c0.394-0.141,0.73,0.758,1.123,0.758c0.057,0,0.562,0.337,0.674,0.337
		c0.057,0,0.674,0.506,0.898,0.674c0.309,0,0.618,0.674,0.955,0.674c0.252,0.169,0.252,0.59,0.252,0.843
		c0,0.87-0.589,1.769-1.263,2.274c-0.73,0.084-0.843-0.394-1.292-0.562c-0.337-0.28-0.842-1.965-1.011-2.386
		c-0.505-1.292-0.954-1.797-2.246-3.116c-0.112-0.085-0.449-0.253-0.449-0.338C343.431,116.562,343.768,116.562,343.88,116.562z"/>
	<path fill="#269B8A" d="M355.474,124.675h2.105c0.141,0,0.421-0.111,0.506-0.111l0.168,0.168c0.085,0,0.337-0.168,0.421-0.168
		l0.169,0.111c0.729-0.309,2.021,0.169,2.779-0.28h3.538c1.15-0.309,1.011-0.674,1.011-1.572c0-0.421,0.168-2.471-0.337-3.313
		c-1.096,0-2.078,0.057-3.201,0.057c-0.168,0-0.421-0.057-0.59-0.057c-0.505,0-0.926,0.169-1.432,0.169
		c-0.421,0-0.674-0.337-0.674-0.786c0.141-0.112,0.197-0.168,0.337-0.168c0.534,0,1.292,0.111,2.021,0.111
		c0.196-0.14,0.786-0.111,1.18-0.111c0.168,0,1.46-0.169,1.628-0.169c0.843,0.056,0.843-0.169,0.843-1.011
		c0.084,0-0.169-0.73-0.169-1.404c0-0.196-0.027-0.617-0.842-0.617h-2.64c-0.729,0-1.011-0.449-1.601-0.393
		c0.057-0.057-3.341,2.526-4.043,2.526c-0.084,0-0.842,0.337-0.954,0.337c-1.011,0.337-2.162,1.066-3.089,1.066
		c-0.111,0-0.168,0-0.28-0.168c0-0.225,0.394-0.253,0.674-0.337c0.112,0,0.449-0.337,0.505-0.337
		c0.534-0.168,0.787-0.449,1.292-0.674c0.533,0,0.87-0.393,1.235-0.674c0.786-0.365,1.123-0.842,1.713-1.348
		c0.701-0.59,1.319-0.758,1.853-1.601c0.085-0.168,1.18-1.095,1.264-1.263c0.056-0.253,0.729-0.702,1.011-1.096
		c0.506-0.196,0.449-0.646,0.674-0.926c0-0.085,0.421-0.338,0.421-0.422c0.449-0.505,0.506-1.011,0.786-1.6
		c0.169-0.365,0.337-0.365,0.337-0.759c0-0.28-0.28-0.449-0.28-0.786s1.011-0.562,1.348-0.562s0.617,0.169,0.842,0.506
		c0.169,0.225,0.281,0.505,0.506,0.674c0.196,0,0.954,0.646,1.011,0.729c-0.057,0.197-0.225,0.112-0.337,0.281
		c-0.506,1.207-1.994,1.656-2.415,2.442c0,0.084-0.449,0.337-0.449,0.421c-0.589,0.871-1.937,1.685-1.937,2.19
		c-0.085,0.505,0.505,0.562,1.038,0.758h0.057c0.028,0.056,0.337-0.056,0.505-0.056h2.864c0.589-0.169,1.319-0.225,1.853-0.365
		c0.112,0.168,1.966-0.253,1.966-1.18c0-0.252-0.421-0.842-0.59-1.095c-0.87-1.095-1.544-2.246-2.105-3.622
		c-0.169-0.954-0.281-1.965-0.618-2.808c-0.056-0.225-0.674-0.393-0.898-0.393c-0.449,0-0.786,0.168-1.179,0.225
		c-1.264,0-1.769,0.505-2.724,0.505c-0.337,0-1.264-0.729-1.264-1.066c-0.141-0.141,1.348-0.112,1.966-0.112
		c0.337,0,0.87-0.169,1.348-0.169c0.056,0,0.393-0.168,0.505-0.168c0.422,0,0.982-0.084,1.067-0.169l1.291-1.235
		c0.057-0.112,0.169-0.112,0.225-0.112c0.169,0,0.337,0.169,0.506,0.281c0.617,0.225,1.123,0.337,1.123,1.066
		c0,0.702-0.814,0.843-0.786,1.685c0,0.169,0.168,0.786,0.168,0.843c0,0.505,0.506,0.674,0.506,0.954
		c0.814,1.517,1.656,2.443,2.976,3.369c0.085,0.422,0.59,0.927,0.927,1.18c0.168,0.141,0.253,0,0.506,0.252
		c0.336,0.449,1.179,0.394,1.516,0.674c0.646,0.478,1.095,0.787,2.021,1.18c0.59-0.168,0.59,0.309,0.955,0.449
		c0.225,0,0.393,0.057,0.729,0.225c0.337,0.112,1.797,0.112,1.797,0.506c0,0.336-0.729,0.309-1.011,0.336
		c-0.786,0.169-1.629,0.674-2.358,0.506c-0.729,0.478-1.123,0.898-1.881,0.786c-0.534-0.786-1.18-0.729-1.685-1.179
		c-0.449-0.674-1.376-1.348-1.601-1.348c-0.169,0-0.169,0-0.337,0.168c-0.253,0.057-1.264,0.225-1.516,0.337
		c-1.966,0-2.274,0.505-2.274,1.853c-0.028,0.028,0.028,0.169,0.056,0.225v0.338c0,0.477,0.141,0.954,0.618,1.01h1.263
		c0.674-0.196,0.983-0.111,1.517-0.393c0.505-0.281,0.478-0.506,1.011-0.506c0.084,0,0.168,0,0.253,0.057
		c0.842,0.842,1.179,0.786,1.179,1.18c0,0.168-0.252,0.336-0.421,0.336h-2.526c0.14,0-2.611,0.057-2.611,0.449
		c0,1.966,0.056,1.713,0.056,2.471c0.196-0.14-0.028,1.966,0.337,1.91c0.112,0,0.337,0.168,0.449,0.168
		c2.611,0,3.734,0.112,5.307-0.674c0.506-0.225,0.842-0.842,1.516-0.842c0.422,0,0.787,0.449,1.123,0.674
		c0.534,0.225,0.674,0.449,0.674,0.954c0,0.674-0.28,0.674-0.785,0.843c-2.303,0-4.24-0.113-6.317-0.113
		c-0.337,0.113-0.421,0.169-0.674,0.169c-0.169,0-0.281,0-0.449-0.056h-2.415c-0.421,0-0.982,0.196-1.291,0.168
		c-0.169,0-1.348,0.057-1.517,0.057h-0.393c-0.281,0-0.534,0.027-0.674,0.168h-1.376c-0.337,0-0.842,0.281-1.264,0.337
		c-0.926,0.112-1.769,0.169-2.695,0.28c-0.084,0-0.758,0.169-0.842,0.169c-0.871,0.056-1.067-0.814-1.601-1.292V124.675z"/>
	<path fill="#269B8A" d="M394.751,120.913c0-0.365,0.028-0.898-0.505-0.898c-0.169,0-1.096,0.617-1.572,1.066
		c-0.337,0.338-1.123,0.59-1.011,0.73c-0.927,0.196-1.488,0.927-2.218,1.348c-0.449,0-0.73,0.506-1.012,0.506
		c-0.393,0.027-1.234,0.758-1.769,1.01c-0.505,0.225-1.235,0.113-1.685,0.562c-0.729,0.393-1.853,0.954-2.611,0.954v-0.112
		c0.394-0.168,0.843-0.478,1.236-0.73c0.505-0.309,0.954-0.449,1.459-0.785c0.085-0.057,0.506-0.506,0.59-0.506
		c0.169-0.057,0.843-0.393,1.011-0.506l1.517-1.516c0.084,0,0.337-0.225,0.421-0.225c0.562-0.337,0.786-0.814,1.264-1.123
		c0.505-0.506,2.05-1.797,2.189-1.965c0.085,0.14,0.337-0.562,0.506-0.73c0.112-0.168,1.179-1.348,1.291-1.516
		c0.057-0.113,0.225-0.506,0.337-0.674c0.028-0.225-0.027-0.449-0.28-0.449c-0.674,0-0.843,0.785-1.235,1.123
		c-0.337,0.225-0.674,0.168-1.011,0.336c-0.646,0.449-1.039,0.983-1.797,1.348c-0.253,0.169-0.421,0.394-0.759,0.562
		c-0.561,0-1.403,0.729-1.937,1.01h-0.253c-0.253,0.113-1.264,0.674-1.516,0.787c-0.422,0.056-1.433,0.674-1.966,0.674
		c0-0.365,2.64-1.629,3.565-2.303c1.18-0.842,2.19-1.881,3.285-2.92c0.702-0.674,1.235-1.066,2.05-1.881
		c0.225-0.253,0.729-0.337,0.729-0.843c0-0.084-0.225-0.168-0.337-0.168c-0.533,0-0.729,0.758-1.348,0.758
		c-0.056,0-0.421,0.337-0.505,0.337c0-0.084-1.18,0.506-1.601,0.786c-0.505,0.562-1.235,0.505-1.853,0.729
		c-0.787,0.31-1.404,0.843-2.274,0.843c0-0.533,2.134-1.572,2.695-1.909c0.617-0.562,1.544-0.955,2.274-1.544
		c-0.113,0,1.628-1.123,2.442-1.938h0.084c0.28,0,0.421-0.253,0.421-0.505c0,0,0-0.169-0.056-0.169
		c-1.544,0-2.667,0.253-4.324,0.253c-0.253-0.253-0.589-0.59-0.589-1.011c0.674,0,1.544,0.028,1.684-0.085
		c0.449-0.027,1.348,0.085,1.882,0.085c0.562,0,0.562-0.253,1.011-0.253h1.011c0.056,0,0.393-0.084,0.505-0.084
		c0.197,0.084,0.394,0.084,0.506,0.084c0.056,0,0.393-0.168,0.505-0.168c0.59,0,1.572-0.169,2.078-0.169
		c1.432-0.112,2.724-0.169,4.155-0.169c0.084,0.085,0.421,0.253,0.505,0.253c0.534,0,0.759-0.168,1.264-0.168
		c0.59,0,0.505,0.589,0.505,0.927c0.057,0.084-0.027,0.421-0.252,0.421h-2.779c-0.197-0.085-0.955-0.281-1.18-0.253
		c0.084,0.112-1.404,0.084-2.274,0.084c-0.478,0-1.291-0.196-1.291,0.843c0,0.084-0.394,0.337-0.394,0.421
		c-0.141,0.927,0.562,0.927,0.562,1.685c0.478,1.235,0.421,1.628,0.506,2.64c0.084,0.729,0.28,1.375,0.28,2.189v0.337l0.169,0.337
		c0,0.702,0.056,1.544,0.056,1.685c0,0.169-0.168,1.179-0.168,1.348c0,1.039-0.057,2.05-0.394,3.145c0,0.056-0.28,0.505-0.28,0.562
		c0,0.112-0.394,0.449-0.394,0.506c-0.617,0.842-1.179,1.797-2.302,2.133c-1.039,0.085-0.478-0.926-1.011-1.459
		c0.028-0.31-1.235-0.787-1.235-1.18C394.92,125.405,394.273,123.945,394.751,120.913z M385.654,108.531
		c0.197-1.123,0.927-2.835,0.927-3.369l0.084-0.112c0.31-0.225,0.534,1.46,1.18,1.46c0.168,0,1.656,0.141,2.189-0.28l0.337,0.112
		c1.292,0.028,1.376-0.112,1.854-0.112c0.954,0,2.471,0.252,2.471-1.067v-2.863c0-0.506-0.618-0.449-0.618-0.786
		c0-0.057,0-0.169,0.169-0.225c0.87,0,1.207-0.449,1.965-0.449c0.057,0,0.337,0.168,0.394,0.168c0.842,0,1.881,0.084,1.881,0.674
		c0,0.169-0.449,1.348-0.927,2.134c0,0.702-0.449,0.927-0.449,1.348c0,0.506,0.112,0.843,0.618,1.011
		c0.393,0.028,0.646-0.168,1.011-0.28c1.179,0,1.824-0.337,2.526-0.337c0.085,0,0.506,0.168,0.59,0.168s1.095-0.056,1.179-0.056
		h0.085c0.084,0,0.253,0.056,0.253,0.225c-0.843,0.87-3.369,0.674-5.812,0.674c-0.112,0-0.28,0.112-0.337,0.112
		c-0.337-0.084-0.589,0.056-0.842,0.056c-0.955,0.112-2.021,0.112-2.977,0.112l-0.168,0.057c-0.337,0-1.685,0.168-2.021,0.168
		c-0.085,0-0.759,0.169-0.843,0.169c-0.729,0-1.713-0.057-1.853,0.28c0,0.309-0.337,0.478-0.337,0.927
		c-0.422,0.394-0.365,0.786-0.59,1.179c-0.898,0.449-0.898,1.012-1.685,1.012c-0.309-0.225-0.758-0.787-0.758-1.264
		C385.149,109.121,385.486,108.7,385.654,108.531z M399.496,116.14c0.758,0,1.095-1.123,1.769-1.797
		c0.169-0.252,0.421-0.589,0.421-0.926c0-0.253-0.168-0.422-0.168-0.758c0-0.253,0.084-0.674,0.337-0.674
		c0.309,0,0.337,0.14,0.674,0.336c0.337-0.056,0.59,0.506,0.843,0.506c0.449,0.393,0.561,0.141,0.758,1.011
		c-0.309,0.394-0.59,1.067-1.096,1.348c-0.28,0-0.533,0.394-0.758,0.337c-0.084,0-0.337,0.449-0.421,0.449l-0.169,0.057
		c-0.336,0.168-1.684,1.01-1.684,1.459c0,0.898,2.779,3.258,3.537,3.707c0.842,0.505,1.854,0.954,2.808,1.291
		c0.225,0.057,1.572,0.225,1.572,0.562c0,0.112-1.348,0.954-1.853,1.179c-0.057,0.113-0.73,0.338-0.843,0.449
		c-0.421,0.225-0.702,0.759-1.348,0.73c-1.432-0.982-2.274-2.078-3.285-3.537c0-0.057-0.421-0.506-0.421-0.562
		c0-0.477-0.758-1.572-1.095-2.302c0-0.112-0.337-0.618-0.337-0.674c0-0.112-0.169-0.843-0.169-0.954
		c-0.168-0.422-0.168-0.674-0.253-1.067c-0.168-1.011-0.421-1.853-0.421-2.892C398.738,113.417,398.654,116.14,399.496,116.14z
		 M407.245,105.724c0,0.533-1.235,0.337-1.741,1.123c-0.225,0.169-0.646,0.197-1.375,0.927h-0.337c0-0.196,0.084-1.207,0.084-1.376
		c0-0.056,0.169-0.562,0.169-0.674c0-0.309,0.056-1.066,0.421-1.066C405.279,104.657,407.049,105.219,407.245,105.724z"/>
	<path fill="#269B8A" d="M418.586,123.89c0,2.105-1.685,3.818-3.79,3.818c-2.078,0-3.79-1.713-3.79-3.818
		c0-2.078,1.712-3.791,3.79-3.791C416.901,120.099,418.586,121.783,418.586,123.89z M412.016,123.89c0,1.516,1.264,2.779,2.78,2.779
		c1.544,0,2.779-1.264,2.779-2.779c0-1.545-1.235-2.78-2.779-2.78S412.016,122.345,412.016,123.89z"/>
</g>
<g>
	<g>
		<path fill="#00231F" d="M130.888,48.88c1.485,0,3.552,0.452,3.552,1.227c0,0.064-0.064,0.258-0.064,0.323
			c0.581-0.517,1.227-0.904,1.55-0.775c3.939,0.388,7.813,0.388,11.688,0.388c4.197,0,7.361-0.129,10.719-0.129
			c0.904-0.387,1.163-2.066,1.292-2.325v-7.62c-0.129-0.775-0.387-2.196-0.387-2.971c0.258-2.906-3.616-1.743-3.616-3.1
			c0-1.162,1.937-1.162,2.841-2.066c1.033,0,2.26-2.195,3.875-2.195c0,0,0.646,0.129,1.55,0.646c-0.194,0,1.808,0.775,2.325,1.292
			c0.258,0,1.808,0.775,1.937,0.775c0.646,0.258,0.646,0.258,0.646,0.775c0.646,0,0.775-0.129,0.775,0.775
			c0,1.421-1.033,2.196-1.808,3.358c-0.194,1.033-0.388,2.066-0.388,3.1c-0.129,2.066-0.129,4.262-0.129,6.199
			c0,1.938,0,2.971,2.195,2.971c3.487-0.258,6.329-0.646,10.074-0.646c0.129,0,1.163-0.517,1.292-0.517
			c0.646-0.258,1.033,0,1.55-0.387c0.775-0.646,1.808-1.033,2.583-1.55c0.582-0.388,1.356-1.421,2.325-1.421
			c0.84,0,3.293,3.422,3.875,4.649h0.065c0.323,0,0.323,0.646,0.323,0.775c0,0.904-0.969,1.873-1.744,2.325l-5.876-0.129
			c-1.679,0-4.52,0.194-5.037,0.129c-0.258,0.258-0.452-0.064-0.904-0.517c-0.258,0-0.646,0.129-0.646,0.388
			c-1.55,0-2.777,0.129-4.262-0.258c-6.651,0-7.103,0.258-9.944,0.258c-2.325,0-2.325,0.129-7.491,0.129
			c-1.808,0.71-4.004,0.323-5.876,0.646c-0.581,0-2.906,0.129-4.456,0.129l-0.581,0.388c-2.325,0-4.649,0.258-6.975,0.387
			c-1.162,0.258-2.195,0.388-3.1,0.388c-1.937,0-1.42-0.839-1.808-1.679c-0.904-1.937-2.325-2.712-2.325-3.487
			C130.5,49.139,130.5,49.139,130.888,48.88z M131.534,83.815c0.388-0.129,2.712-1.292,3.1-1.55c0.452,0,0.71-0.775,1.292-1.163
			c0.452-0.71,1.937-0.71,2.583-1.291c0.193,0,0.774-0.775,0.968-0.775c0.388-0.258,0.969-0.387,1.356-0.774
			c0.323-1.033,2.39-1.033,3.875-3.358c0.517-0.839,1.743-1.937,2.324-2.453c0.904-0.388,2.26-2.002,2.906-2.583
			c-0.258-0.452,2.131-2.26,2.131-3.681c0-0.968-0.969-1.937-1.356-2.518c-0.129-0.517,0.323-0.582,0.904-0.582h0.452l0.775-0.194
			c0.452,0.065,1.227,0.388,1.744,0.388h2.712c0.775,0.194,3.487,3.487,3.487,4.456c0,1.292-1.808,1.679-3.1,2.906
			c-0.581,1.163-1.163,0.84-2.454,2.196c-0.323,0.387-1.873,0.839-1.873,1.163l0.064,0.129c-1.937,2.001-3.875,2.647-6.005,3.874
			c-1.55,1.033-3.1,1.938-4.649,2.971c-3.1,0.969-5.102,2.713-8.395,3.1c-0.388,0.517-2.454,1.162-3.229,1.162
			c-0.194-0.258-0.258-0.322-0.258-0.646C131.082,84.525,131.276,84.009,131.534,83.815z M166.856,62.506
			c-1.292-1.485-3.035-2.325-4.52-3.293c0.129-0.129-1.679-1.356-2.712-1.743c-0.387-0.194-1.937-0.582-1.937-1.227
			c0-0.388,0.387-0.388,0.775-0.388c2.066,0,3.745,1.808,5.037,2.389c1.938,0,2.712,2.131,4.521,2.131
			c1.937,0.775,3.875,1.744,6.07,2.518c1.808,1.098,3.875,1.615,5.812,2.712c0.129,0,0.775,0.775,0.904,0.775
			c0.517,0,2.583,1.356,2.971,1.938c2.454,1.033,2.712,3.422,2.712,5.424c0,0.775,0,1.421-0.194,2.195
			c-1.162,0.839-2.389,2.325-4.068,2.325c-2.971,0-5.36-4.132-5.812-5.037c-1.356-2.583-4.197-4.907-6.07-6.845
			C169.633,64.831,168.277,63.152,166.856,62.506z"/>
		<path fill="#00231F" d="M195.271,84.59c0.194,0,0.969-0.774,1.163-0.774c2.26-1.55,2.906-2.713,4.262-3.616
			c0.71-0.259,1.163-1.485,1.55-2.325c0-0.258,0.646-1.033,0.646-1.162c0.775-1.42,0.904-2.711,1.162-4.132
			c0-1.292,0.582-2.583,0.582-4.004c0-1.291,0.323-1.42,0.323-5.683c0-0.258,0.387-2.583,0.387-2.712
			c0-0.258-0.129-2.583-0.129-2.712c0-2.066,0.323-4.262-0.646-6.07c0.065,0-0.129,0,0.258-0.581
			c1.227-0.064,1.55,0.193,1.938,0.775c1.873,0.968,2.066,0.968,2.066,2.906c0,6.135-0.388,11.882-0.388,15.498
			c0,1.55-0.775,3.293-0.775,4.004c-0.775,2.518-1.356,3.099-3.229,4.778c-1.098,1.033-0.71,1.55-2.196,1.55v0.774
			c0,0-1.55,1.421-2.131,1.938c-0.969,0.775-3.487,2.713-4.456,2.713c-0.582,0-0.582,0-0.582-0.518
			C195.077,84.59,195.142,84.849,195.271,84.59z M212.577,82.653c0-6.91-0.258-11.882-0.258-17.694c0-0.387,0.388-2.712,0.388-3.1
			c0.194-0.064-0.129-0.646-0.129-1.55c0.064-0.193,0.129-0.452,0.129-0.71c-0.194,0.517-0.129-3.293-0.129-4.908
			c0-0.71-0.258-2.131-0.258-5.037c0,0,0.258-0.387,0.258-0.581s-0.387-0.969-0.387-1.163c-0.323-0.839-0.258-0.968-1.421-0.968
			c-0.129,0-2.066,0.387-2.325,0.387h-2.066c-0.064,0.194-1.873,0.388-4.714,0.388c0,0.193-0.388,0.581-0.581,0.581
			c-2.325,0.323-1.614-2.454-1.744-3.1l0.194-0.194c3.293,0,5.876-0.387,8.395-0.387c2.906,0,4.391-0.388,6.329-0.388
			c1.808-0.193,3.487,0,5.101-0.969c0.517-0.258,1.033-1.679,2.325-2.518h0.193c0.388,0,3.681,4.068,3.681,4.456
			c0,0.775-1.162,0.969-1.743,0.969c-0.194,0-0.969-0.194-1.163-0.194c-1.033-0.064-1.937,0.646-2.712,0.387
			c-1.098,0-5.295,0.129-5.295,0.969c0,0.775,1.163,1.356,1.421,2.131c0,4.004-0.258,4.068-0.258,4.843
			c0,2.066-0.129,3.487-0.129,3.681c0,0.258,0.388,1.033,0.388,1.162v10.72c0,0.129,0.129,0.774,0.129,0.904
			c0.258,1.55,0.258,3.229,0.258,4.52c0,1.937-0.258,2.777-0.258,4.52c0,2.131,0,5.554-2.066,5.554c-0.775,0-1.808-0.13-1.808-0.904
			C212.318,84.138,212.577,83.169,212.577,82.653z M209.606,32.22c2.712,0,5.037-0.646,6.651-0.646h1.163
			c0.71,0,1.356-0.064,1.937-0.387c0.582-0.388,1.744-3.229,2.519-3.229c1.163,0,1.938,1.938,2.519,2.712
			c0,0.129,0.969,0.775,0.969,0.904c0.193,2.777-2.26,2.196-4.262,2.196c-3.875,0.775-7.813,0.904-11.624,0.904
			c-1.42,0-2.97,0.388-4.262,0.388c-0.84,0-1.808-0.452-1.808-1.938C202.955,32.026,207.863,32.22,209.606,32.22z M220.52,72.58
			c-0.064-1.227,0.194-3.1,0.194-4.649c0-2.712-0.388-8.653-0.388-8.911c-0.064-0.388,0.194-0.904,0.194-1.421
			c0-1.356-0.194-2.519-0.194-3.681c0-0.969-0.387-1.744-0.387-2.712c0-1.485,1.227-1.614,2.131-2.325
			c0.904-0.193,1.356,1.356,1.55,1.744c0.775,0.646,0.775,1.163,0.775,1.744c0,0.452-0.388,1.162-0.388,1.55
			c0,1.292,0.129,3.293-0.193,3.293c0,5.231,0.387,10.397,0.387,15.369c0,1.485-0.323,5.811-2.325,5.811
			c-0.581,0-0.969-0.388-1.162-0.903C220.713,75.615,220.52,72.838,220.52,72.58z M238.73,78.003
			c0.193-3.615,0.258-7.231,0.258-10.848c-0.129,0-0.646-0.258-1.162-0.258c-2.066,0-3.616,0.258-5.683,0.258l-0.581,0.517
			c0.064,0.71,0.064,1.42,0.064,2.131c0,1.873-0.839,5.489-2.583,5.489c-1.033,0-1.55-1.098-1.55-1.937
			c-0.064-0.129,0.194-1.163,0.194-1.808c0-0.581-0.194-1.614-0.194-2.066c0-0.258,0.194-1.033,0.194-1.162
			c0-0.259-0.194-1.421-0.194-1.55V56.629c0-0.193-0.194-1.937-0.194-2.131v-5.812c0-0.517-0.387-1.744-0.387-1.744
			c0-0.194,0.387-1.356,0.387-1.55c0-0.452,0-0.71-0.194-1.163v-4.133c-0.774-0.581-0.581-1.162-0.581-2.325l0.388-0.387h1.356
			c0.129,0.323,1.033,1.356,1.679,1.937c-0.194,0.258,1.356,1.163,2.195,1.163c0.194,0,0.388,0,0.581-0.129
			c0.388,0,2.519-0.387,2.906-0.387c0.258,0,1.033,0.129,1.162,0.129c0.259-0.387,0.774-0.517,1.162-0.904
			c0-2.519,0.259-5.618-0.388-8.782c-0.129-0.388-0.774-0.904-0.774-1.292c0-0.775,0.774-2.971,1.55-2.971
			c1.421,0,2.583,1.163,3.488,1.808c1.55,0.582,3.357,1.227,3.357,1.938c0,1.55-1.162,1.485-1.162,2.066
			c-0.388,1.356-1.55,1.55-1.55,2.712c-0.323,0.258,0.388,1.098,0.388,1.55c0,0.258-0.259,0.775-0.259,1.033
			c0,1.227-0.129,2.712,1.421,2.712c0.323,0,2.712-0.194,2.712-0.258c2.842,0,3.423-3.229,5.037-3.229
			c0.258,0.129,1.421,1.163,1.55,1.292c1.162,2.131,3.1,1.808,3.1,4.327c0.064,0.323-0.71,2.066-0.904,2.519v3.293
			c-0.388,0.388-0.388,3.1-0.388,3.681c0,1.55-0.387,3.81-0.387,4.068c0,0.194,0,0.388,0.129,0.582c0,0.581,0.258,3.551,0.258,4.068
			c0,5.231-0.258,5.941-0.258,7.232c-0.129,0.452-2.39,5.037-4.649,5.037c-0.774,0-1.162-1.808-1.421-2.325v-2.97
			c0-0.129-0.387-0.517-0.517-0.775c-4.972,0-5.295,0.323-5.295,3.875c0.259,1.42,0.388,4.262,0.388,5.166l-0.129,1.291
			c0,1.033,0.129,2.39,0.129,6.846c-0.129,0.387-1.162,2.324-1.292,2.712c-0.839,0.581-1.421,2.454-3.358,2.324
			c-0.13,0-0.775-0.646-0.775-0.774C237.955,84.525,238.536,81.361,238.73,78.003z M231.368,63.281c0,0.129,0.194,0.904,0.581,0.904
			h5.618c1.033,0,1.163-0.517,1.421-1.292c0-2.647,0.064-5.295-0.258-8.201c-0.452-0.388-2.131-0.582-3.229-0.582
			c-0.517-0.129-0.71,0.388-1.163,0.388c-0.387,0-2.001,0.194-2.389,0.194l-0.581,0.581V63.281z M231.562,51.399l0.581,0.388h4.133
			c1.55,0,2.324-1.033,2.324-2.131c-0.322-0.71,0.646-5.489-0.646-5.812h-5.618c0,0-0.388,0.387-0.388,0.581
			c0,2.131-0.387,3.358-0.387,5.618V51.399z M245.188,64.056c0.775,0,3.487-0.258,3.875-1.163c0-2.454,0.388-4.133,0.388-6.264
			c0-1.356,0.387-3.487-1.421-3.487c-6.458,0-5.425,0.968-5.425,4.714C242.604,61.86,242.54,64.056,245.188,64.056z M246.351,42.681
			c-0.775,0.194-3.746,0-3.746,1.356v6.005c0,0.387,0.646,0.581,0.775,0.775c2.26,0,5.94,0.452,5.94-2.519v-5.037l-0.258-0.387
			c-0.646,0-1.421-0.387-1.938-0.387C246.996,42.423,246.608,42.617,246.351,42.681z"/>
	</g>
	<g>
		<path fill="#00231F" d="M276.338,66.299c-1.094,0-2.494,0.547-2.494,1.816c0,1.575,2.166,2.188,3.369,2.604
			c4.596,1.531,5.536,3.741,5.536,5.82c0,2.538-1.816,5.667-6.433,5.667c-3.107,0-6.259-1.663-6.259-5.142
			c0-1.86,1.116-2.954,1.335-2.954c0.372,0,0,4.441,4.705,4.441c1.662,0,3.106-0.722,3.106-2.078c0-1.597-1.969-2.253-3.238-2.648
			c-4.792-1.487-5.317-3.654-5.317-5.514c0-1.838,1.248-4.967,5.689-4.967c3.173,0,5.427,1.685,5.427,2.319
			c0,0.613-1.138,2.604-1.751,2.604C279.467,68.269,278.613,66.299,276.338,66.299z"/>
		<path fill="#00231F" d="M283.928,75.467c0-5.295,2.932-7.921,5.863-7.921c2.407,0,4.442,1.356,4.442,3.938
			c0,4.704-7.046,3.72-7.046,5.995c0,1.028,1.663,1.772,2.757,1.772c3.589,0,3.589-2.735,3.896-2.735
			c0.328,0,0.394,1.139,0.394,1.313c0,2.778-2.145,4.376-4.771,4.376C285.547,82.206,283.928,78.968,283.928,75.467z
			 M286.881,73.301c0,0.24,0.109,0.481,0.395,0.481c0.263,0,4.244-0.875,4.244-1.992c0-1.072-1.006-1.663-1.838-1.663
			C287.909,70.128,286.881,72.032,286.881,73.301z"/>
		<path fill="#00231F" d="M303.071,81.878c-0.46,0-0.723,0.065-0.723-0.46c0-2.866-1.597-4.792-2.188-4.792
			c-0.569,0-1.686,1.772-1.686,4.245c0,0.919,0,1.007-0.853,1.007h-1.357c-0.612,0-0.743,0.088-0.743-0.7
			c0-3.676,2.538-5.754,2.538-6.236c0-0.81-2.276-2.122-2.276-6.236c0-0.854,0.153-0.832,0.897-0.832h1.598
			c0.415,0,0.7-0.065,0.7,0.459c0,2.56,1.115,4.333,1.75,4.333c0.307,0,1.247-0.963,1.444-3.786c0.175-1.006,0-1.006,0.941-1.006
			h1.094c0.612,0,0.919-0.022,0.919,0.744c0,3.522-2.494,5.12-2.494,5.688c0,1.007,2.91,1.969,2.91,6.433
			c0,1.138-0.022,1.138-0.832,1.138H303.071z"/>
		<path fill="#00231F" d="M319.544,67.634c0.219,0.044,0.372,0.087,0.438,0.087c1.006,0,1.597-2.013,2.473-2.013
			c0.591,0,1.794,1.553,1.794,1.903c0,0.657-2.035,0-2.035,1.138c0,0.657,1.116,1.094,1.116,3.458c0,2.276-1.444,4.682-4.704,4.682
			c-1.204,0-2.67,0.744-2.67,1.379c0,0.416,0.35,0.744,0.744,0.744c0.919,0,2.735-1.095,4.792-1.095c0.503,0,2.319,0.481,2.319,1.27
			c0,0.569-0.875,3.02-1.532,3.02c-0.547,0-0.568-1.094-1.794-1.094c-0.656,0-1.335,0.263-2.057,0.547
			c-0.7,0.263-1.444,0.547-2.275,0.547c-1.729,0-3.151-1.007-3.151-2.801c0-2.56,2.494-2.801,2.494-3.413
			c0-0.525-1.575-1.488-1.575-3.852c0-2.866,1.772-4.595,4.705-4.595C318.996,67.546,319.303,67.59,319.544,67.634z M320.747,71.857
			c0-1.4-0.94-2.232-2.122-2.232s-2.123,0.832-2.123,2.232c0,1.291,0.832,2.231,2.123,2.231
			C319.807,74.088,320.747,73.257,320.747,71.857z"/>
		<path fill="#00231F" d="M325.077,74.855c0-3.523,1.685-7.309,5.491-7.309c3.808,0,5.492,3.785,5.492,7.309
			c0,5.141-2.976,7.351-5.492,7.351C328.053,82.206,325.077,79.996,325.077,74.855z M333.348,74.307
			c0-1.728-0.612-4.179-2.779-4.179c-2.166,0-2.778,2.451-2.778,4.179c0,1.75,0.568,4.245,2.778,4.245
			C332.779,78.552,333.348,76.058,333.348,74.307z"/>
		<path fill="#00231F" d="M341.573,81.878c-2.451,0-4.595-2.166-4.595-6.585c0-5.011,3.325-7.746,5.251-7.746
			c0.46,0,0.94,0.503,1.247,0.503c0.438,0,0.504-0.788,0.504-1.138c0-1.772-0.548-2.56-0.548-3.392c0-0.306,0.548-0.306,0.767-0.306
			h2.275c0.984,0,0.896,9.802,0.896,10.832c0,0.503,0.088,7.833-0.678,7.833H341.573z M344.418,73.739
			c0-3.851-0.591-4.114-1.4-4.114c-0.941,0-3.086,1.225-3.086,5.208c0,1.509,0.569,3.851,2.429,3.851
			C344.724,78.684,344.418,75.314,344.418,73.739z"/>
	</g>
	<g>
		<path fill="#00231F" d="M258.514,30.383c0-5.648,3.236-8.885,8.885-8.885s8.885,3.236,8.885,8.885s-3.236,8.885-8.885,8.885
			S258.514,36.031,258.514,30.383z M274.325,30.383c0-4.329-2.598-6.926-6.927-6.926s-6.927,2.597-6.927,6.926
			s2.598,6.926,6.927,6.926S274.325,34.712,274.325,30.383z M268.326,25.167c2.741,0,3.36,1.257,3.36,2.309
			c0,1.917-2.247,2.598-2.247,2.948c0,0.268,2.659,2.206,2.659,4.886c0,0.124-0.062,0.145-0.33,0.145h-1.979
			c-0.247,0-0.474,0.041-0.535-0.145c-0.248-2.02-1.319-3.917-1.753-3.917c-0.412,0-1.381,0.515-1.381,1.195
			c0,0.948,0.495,2.639,0.495,2.721c0,0.206-0.351,0.145-0.475,0.145h-1.855c-0.268,0-0.433,0.041-0.515-0.206
			c-0.228-0.66-0.289-3.381-0.289-4.185l0.124-3.669c0.041-0.474,0.144-1.443,0.329-1.834c0.124-0.268,0.228-0.392,0.536-0.392
			H268.326z M269.254,27.724c0-0.763-0.805-1.072-1.526-1.072c-1.216,0-1.752,0.433-1.752,2.557c0,0.268,0.021,0.763,0.434,0.763
			C266.862,29.971,269.254,28.878,269.254,27.724z"/>
	</g>
</g>
<g>
</g>
<g>
</g>
<g>
</g>
<g>
</g>
<g>
</g>
<g>
</g>
<g>
</g>
<g>
</g>
<g>
</g>
<g>
</g>
<g>
</g>
<g>
</g>
<g>
</g>
<g>
</g>
<g>
</g>
</svg>
