<?xml version="1.0" encoding="utf-8"?>
<!-- Generator: Adobe Illustrator 17.0.0, SVG Export Plug-In . SVG Version: 6.00 Build 0)  -->
<!DOCTYPE svg PUBLIC "-//W3C//DTD SVG 1.1//EN" "http://www.w3.org/Graphics/SVG/1.1/DTD/svg11.dtd">
<svg version="1.1" id="图层_1" xmlns="http://www.w3.org/2000/svg" xmlns:xlink="http://www.w3.org/1999/xlink" x="0px" y="0px"
	 width="480px" height="150px" viewBox="0 0 480 150" enable-background="new 0 0 480 150" xml:space="preserve">
<g>
	<g>
		<path fill="#2BB8EF" d="M446.603-16.648c-7.637,23.262-23.558,30.86-44.318,37.933c-18.596,5.554-78.787,16.95-75.011,63.326
			c0.093,2.01,11.737,83.113,11.737,83.113H504V-16.648"/>
	</g>
	<g>
		<path fill="#2BB8EF" d="M-27.712,11.019c89.759,77.693,198.372,54.118,240.2,47.479c33.291-5.747,93.905-7.465,104.785,35.847
			l12.389,73.38H-26.905"/>
	</g>
	<g>
		<path fill="#2BB8EF" d="M442.684-1.761l-3.881-2.559c-1.971,0.801-3.29,0.237-3.44-1.549c-0.11-1.305-2.075-1.626-3.294,0.224
			l-0.254,0.384c-1.22,1.85-0.215,3.627,1.028,3.214c1.701-0.565,3.032,0.586,2.658,2.736l3.881,2.559L442.684-1.761z"/>
		<path fill="#2BB8EF" d="M437.495,5.464l-3.074-3.487c-2.111,0.256-3.236-0.634-2.913-2.396c0.235-1.288-1.576-2.113-3.238-0.647
			l-0.346,0.305c-1.662,1.465-1.158,3.443,0.149,3.371c1.789-0.099,2.773,1.361,1.848,3.336l3.074,3.487L437.495,5.464z"/>
		<path fill="#2BB8EF" d="M430.897,10.826l-2.671-3.805c-2.127,0.022-3.146-0.987-2.632-2.703c0.376-1.254-1.333-2.274-3.147-1
			l-0.377,0.265c-1.814,1.273-1.531,3.295-0.223,3.367c1.789,0.099,2.606,1.659,1.469,3.52l2.671,3.805L430.897,10.826z"/>
		<path fill="#2BB8EF" d="M423.759,15.592l-2.118-4.138c-2.109-0.274-2.979-1.413-2.232-3.042c0.547-1.189-1.005-2.437-2.978-1.426
			l-0.41,0.211c-1.972,1.009-1.972,3.051-0.688,3.304c1.758,0.346,2.351,2.004,0.967,3.689l2.118,4.138L423.759,15.592z"/>
		<path fill="#2BB8EF" d="M416.246,19.278l-1.727-4.316c-2.075-0.467-2.836-1.682-1.942-3.235c0.654-1.134-0.776-2.519-2.834-1.695
			l-0.428,0.171c-2.057,0.823-2.245,2.856-0.99,3.226c1.719,0.507,2.156,2.212,0.623,3.763l1.727,4.316L416.246,19.278z"/>
		<path fill="#2BB8EF" d="M408.614,22.452l-1.562-4.378c-2.056-0.545-2.77-1.788-1.818-3.306c0.697-1.108-0.68-2.547-2.768-1.801
			l-0.434,0.155c-2.087,0.744-2.352,2.769-1.112,3.186c1.699,0.572,2.071,2.292,0.48,3.784l1.562,4.378L408.614,22.452z"/>
		<path fill="#2BB8EF" d="M400.732,25.187l-1.28-4.469c-2.017-0.675-2.651-1.962-1.603-3.415c0.766-1.062-0.516-2.585-2.647-1.975
			l-0.443,0.127c-2.13,0.61-2.524,2.613-1.313,3.108c1.658,0.679,1.92,2.42,0.237,3.807l1.28,4.469L400.732,25.187z"/>
		<path fill="#2BB8EF" d="M392.959,27.385l-1.36-4.445c-2.029-0.639-2.686-1.914-1.664-3.386c0.746-1.075-0.563-2.575-2.682-1.927
			l-0.441,0.135c-2.119,0.648-2.477,2.658-1.256,3.132c1.67,0.649,1.964,2.385,0.306,3.802l1.36,4.445L392.959,27.385z"/>
		<path fill="#2BB8EF" d="M385.178,29.766l-1.36-4.445c-2.029-0.639-2.686-1.914-1.664-3.386c0.746-1.075-0.563-2.575-2.682-1.927
			l-0.441,0.135c-2.119,0.648-2.477,2.658-1.256,3.132c1.67,0.649,1.964,2.385,0.306,3.802l1.36,4.445L385.178,29.766z"/>
		<path fill="#2BB8EF" d="M377.507,32.103l-1.512-4.396c-2.049-0.569-2.75-1.82-1.779-3.327c0.709-1.101-0.65-2.555-2.746-1.834
			l-0.436,0.15c-2.095,0.721-2.384,2.741-1.148,3.172c1.692,0.591,2.044,2.316,0.436,3.789l1.512,4.396L377.507,32.103z"/>
		<path fill="#2BB8EF" d="M370.169,34.769l-1.825-4.275c-2.085-0.42-2.874-1.617-2.015-3.19c0.628-1.149-0.833-2.501-2.871-1.631
			l-0.424,0.181c-2.038,0.87-2.18,2.906-0.916,3.247c1.73,0.467,2.206,2.162,0.708,3.748l1.825,4.275L370.169,34.769z"/>
		<path fill="#2BB8EF" d="M362.8,38.105l-2.103-4.145c-2.108-0.282-2.974-1.424-2.221-3.05c0.551-1.188-0.996-2.441-2.972-1.438
			l-0.411,0.209c-1.976,1.003-1.984,3.043-0.7,3.3c1.757,0.352,2.344,2.012,0.954,3.693l2.103,4.145L362.8,38.105z"/>
		<path fill="#2BB8EF" d="M356.085,41.623l-2.641-3.826c-2.127,0.005-3.139-1.012-2.61-2.724c0.386-1.251-1.315-2.284-3.139-1.025
			l-0.379,0.262c-1.824,1.259-1.557,3.282-0.25,3.365c1.788,0.113,2.593,1.679,1.441,3.531l2.641,3.826L356.085,41.623z"/>
		<path fill="#2BB8EF" d="M349.437,46.005l-2.846-3.676c-2.124,0.121-3.19-0.839-2.755-2.577c0.317-1.27-1.438-2.209-3.19-0.852
			l-0.364,0.282c-1.752,1.357-1.375,3.362-0.066,3.374c1.792,0.015,2.681,1.535,1.632,3.447l2.846,3.676L349.437,46.005z"/>
		<path fill="#2BB8EF" d="M343.474,50.889l-3.393-3.177c-2.078,0.456-3.282-0.322-3.129-2.107c0.112-1.304-1.771-1.953-3.285-0.335
			l-0.315,0.337c-1.515,1.617-0.824,3.538,0.47,3.341c1.771-0.27,2.891,1.09,2.158,3.145l3.393,3.177L343.474,50.889z"/>
		<path fill="#2BB8EF" d="M338.644,56.626l-3.751-2.745c-2.008,0.703-3.297,0.076-3.36-1.715c-0.046-1.308-1.993-1.725-3.301,0.063
			l-0.272,0.372c-1.309,1.788-0.392,3.612,0.869,3.26c1.726-0.481,3.001,0.734,2.521,2.862l3.751,2.745L338.644,56.626z"/>
		<path fill="#2BB8EF" d="M334.387,62.536l-4.296-1.776c-1.783,1.159-3.185,0.857-3.671-0.868c-0.355-1.26-2.346-1.202-3.192,0.845
			l-0.176,0.426c-0.847,2.048,0.477,3.602,1.618,2.96c1.562-0.877,3.089,0,3.128,2.182l4.296,1.776L334.387,62.536z"/>
		<path fill="#2BB8EF" d="M331.683,69.6l-4.573-0.832c-1.499,1.509-2.933,1.507-3.772-0.075c-0.613-1.157-2.546-0.682-2.943,1.498
			l-0.082,0.454c-0.396,2.18,1.224,3.42,2.205,2.553c1.343-1.187,3.02-0.65,3.518,1.473l4.573,0.832L331.683,69.6z"/>
		<path fill="#2BB8EF" d="M330.417,77.064l-4.634-0.359c-1.336,1.655-2.763,1.8-3.76,0.312c-0.728-1.088-2.602-0.417-2.774,1.792
			l-0.035,0.46c-0.17,2.209,1.568,3.276,2.455,2.314c1.214-1.318,2.937-0.956,3.651,1.105l4.634,0.359L330.417,77.064z"/>
		<path fill="#2BB8EF" d="M329.827,84.611l-4.647,0.099c-1.167,1.778-2.573,2.064-3.711,0.679c-0.832-1.011-2.631-0.159-2.584,2.056
			l0.01,0.461c0.047,2.215,1.883,3.107,2.671,2.061c1.079-1.431,2.829-1.24,3.741,0.741l4.647-0.099L329.827,84.611z"/>
		<path fill="#2BB8EF" d="M329.975,92.191l-4.586,0.757c-0.903,1.926-2.254,2.407-3.577,1.199c-0.967-0.883-2.627,0.215-2.266,2.402
			l0.075,0.455c0.361,2.186,2.305,2.808,2.937,1.661c0.865-1.569,2.625-1.629,3.809,0.202l4.586-0.757L329.975,92.191z"/>
		<path fill="#2BB8EF" d="M331.301,100.22l-4.586,0.757c-0.903,1.926-2.254,2.407-3.577,1.199c-0.967-0.883-2.627,0.215-2.266,2.402
			l0.075,0.455c0.361,2.186,2.305,2.808,2.937,1.661c0.865-1.569,2.624-1.629,3.809,0.202l4.586-0.757L331.301,100.22z"/>
		<path fill="#2BB8EF" d="M332.624,108.241l-4.584,0.768c-0.898,1.928-2.248,2.413-3.574,1.208c-0.969-0.88-2.626,0.222-2.26,2.407
			l0.076,0.455c0.366,2.186,2.312,2.802,2.941,1.654c0.861-1.571,2.621-1.635,3.809,0.193l4.584-0.768L332.624,108.241z"/>
		<path fill="#2BB8EF" d="M333.968,116.266l-4.584,0.768c-0.898,1.928-2.248,2.413-3.574,1.208c-0.969-0.88-2.626,0.222-2.26,2.407
			l0.076,0.455c0.366,2.186,2.312,2.802,2.941,1.654c0.861-1.571,2.621-1.635,3.809,0.193l4.584-0.768L333.968,116.266z"/>
		<path fill="#2BB8EF" d="M335.313,124.291l-4.584,0.768c-0.898,1.928-2.248,2.413-3.574,1.208c-0.969-0.88-2.626,0.222-2.26,2.407
			l0.076,0.455c0.366,2.186,2.312,2.802,2.941,1.654c0.861-1.571,2.621-1.635,3.809,0.193l4.584-0.768L335.313,124.291z"/>
		<path fill="#2BB8EF" d="M336.661,132.313l-4.584,0.773c-0.896,1.929-2.245,2.415-3.573,1.212c-0.97-0.879-2.626,0.225-2.258,2.41
			l0.077,0.455c0.368,2.185,2.315,2.8,2.942,1.651c0.859-1.572,2.619-1.638,3.809,0.189l4.584-0.773L336.661,132.313z"/>
		<path fill="#2BB8EF" d="M338.014,140.336l-4.584,0.773c-0.896,1.929-2.245,2.415-3.573,1.212c-0.97-0.879-2.626,0.225-2.258,2.41
			l0.077,0.455c0.368,2.185,2.315,2.8,2.942,1.651c0.859-1.572,2.619-1.638,3.809,0.189l4.584-0.773L338.014,140.336z"/>
		<path fill="#2BB8EF" d="M339.369,148.358l-4.583,0.775c-0.895,1.93-2.244,2.416-3.572,1.214c-0.97-0.879-2.626,0.226-2.256,2.411
			l0.077,0.455c0.37,2.185,2.316,2.799,2.943,1.65c0.859-1.573,2.618-1.64,3.809,0.187l4.583-0.775L339.369,148.358z"/>
	</g>
	<g>
		<path fill="#2BB8EF" d="M323.933,152.724l4.581-0.787c0.89-1.932,2.238-2.422,3.569-1.223c0.973,0.876,2.625-0.233,2.25-2.417
			l-0.078-0.454c-0.375-2.184-2.323-2.793-2.948-1.642c-0.855,1.575-2.614,1.646-3.81-0.177l-4.581,0.787L323.933,152.724z"/>
		<path fill="#2BB8EF" d="M322.555,144.704l4.581-0.787c0.89-1.932,2.238-2.422,3.569-1.223c0.973,0.876,2.625-0.233,2.25-2.417
			l-0.078-0.454c-0.375-2.184-2.323-2.793-2.948-1.642c-0.855,1.575-2.614,1.646-3.81-0.177l-4.581,0.787L322.555,144.704z"/>
		<path fill="#2BB8EF" d="M321.177,136.684l4.581-0.787c0.89-1.932,2.238-2.422,3.569-1.223c0.973,0.876,2.625-0.233,2.25-2.417
			l-0.078-0.454c-0.375-2.184-2.323-2.793-2.948-1.642c-0.855,1.575-2.614,1.646-3.81-0.177l-4.581,0.787L321.177,136.684z"/>
		<path fill="#2BB8EF" d="M319.799,128.665l4.581-0.787c0.89-1.932,2.238-2.422,3.569-1.223c0.973,0.876,2.625-0.233,2.25-2.417
			l-0.078-0.454c-0.375-2.184-2.323-2.793-2.948-1.642c-0.855,1.575-2.614,1.646-3.81-0.177l-4.581,0.787L319.799,128.665z"/>
		<path fill="#2BB8EF" d="M318.421,120.645l4.581-0.787c0.89-1.932,2.238-2.422,3.569-1.223c0.973,0.876,2.625-0.233,2.25-2.417
			l-0.078-0.454c-0.375-2.184-2.323-2.793-2.948-1.642c-0.855,1.575-2.614,1.646-3.81-0.177l-4.581,0.787L318.421,120.645z"/>
		<path fill="#2BB8EF" d="M317.043,112.625l4.581-0.787c0.89-1.932,2.238-2.422,3.569-1.223c0.973,0.876,2.625-0.233,2.25-2.417
			l-0.078-0.454c-0.375-2.184-2.323-2.793-2.948-1.642c-0.855,1.575-2.614,1.646-3.81-0.177l-4.581,0.787L317.043,112.625z"/>
		<path fill="#2BB8EF" d="M315.792,105.146l4.533-1.029c0.786-1.976,2.106-2.537,3.499-1.411c1.018,0.823,2.609-0.372,2.119-2.533
			l-0.102-0.449c-0.49-2.161-2.468-2.666-3.031-1.483c-0.77,1.618-2.523,1.782-3.814,0.025l-4.533,1.029L315.792,105.146z"/>
		<path fill="#2BB8EF" d="M314.141,97.402l4.43-1.41c0.616-2.036,1.883-2.707,3.367-1.703c1.084,0.734,2.569-0.592,1.896-2.703
			l-0.14-0.439c-0.672-2.112-2.685-2.446-3.146-1.22c-0.629,1.678-2.362,1.99-3.798,0.349l-4.43,1.41L314.141,97.402z"/>
		<path fill="#2BB8EF" d="M311.48,90l4.185-2.024c0.321-2.103,1.48-2.947,3.092-2.163c1.177,0.573,2.459-0.95,1.494-2.945
			l-0.201-0.415c-0.965-1.995-3.005-2.041-3.287-0.762c-0.385,1.75-2.056,2.305-3.71,0.884l-4.185,2.024L311.48,90z"/>
		<path fill="#2BB8EF" d="M308.324,83.142l3.859-2.592c0.023-2.127,1.052-3.126,2.758-2.576c1.246,0.402,2.301-1.286,1.066-3.126
			l-0.257-0.383c-1.236-1.84-3.262-1.599-3.361-0.293c-0.135,1.787-1.712,2.571-3.549,1.396l-3.859,2.592L308.324,83.142z"/>
		<path fill="#2BB8EF" d="M304.213,77.087l3.175-3.395c-0.458-2.078,0.32-3.282,2.105-3.131c1.304,0.111,1.951-1.771,0.333-3.285
			l-0.337-0.315c-1.619-1.514-3.538-0.822-3.341,0.472c0.271,1.771-1.088,2.891-3.144,2.16l-3.175,3.395L304.213,77.087z"/>
		<path fill="#2BB8EF" d="M298.535,72.128l2.602-3.852c-0.779-1.98-0.199-3.292,1.587-3.423c1.306-0.095,1.649-2.056-0.188-3.297
			l-0.382-0.258c-1.836-1.241-3.623-0.256-3.225,0.991c0.546,1.707-0.621,3.026-2.765,2.627l-2.602,3.852L298.535,72.128z"/>
		<path fill="#2BB8EF" d="M292.283,67.934l1.986-4.203c-1.07-1.838-0.697-3.223,1.049-3.624c1.276-0.293,1.317-2.283-0.686-3.23
			l-0.416-0.197c-2.003-0.947-3.621,0.299-3.037,1.47c0.798,1.604-0.153,3.085-2.333,3.017l-1.986,4.203L292.283,67.934z"/>
		<path fill="#2BB8EF" d="M285.083,64.868l1.547-4.383c-1.252-1.719-1.023-3.135,0.674-3.712c1.239-0.421,1.077-2.406-1.012-3.143
			l-0.434-0.153c-2.089-0.738-3.571,0.666-2.872,1.772c0.958,1.515,0.163,3.085-2.013,3.239l-1.547,4.383L285.083,64.868z"/>
		<path fill="#2BB8EF" d="M277.618,62.339l1.202-4.49c-1.382-1.617-1.263-3.046,0.383-3.753c1.203-0.516,0.887-2.482-1.253-3.055
			l-0.445-0.119c-2.14-0.573-3.509,0.942-2.725,1.99c1.073,1.436,0.402,3.063-1.756,3.385l-1.202,4.49L277.618,62.339z"/>
		<path fill="#2BB8EF" d="M270.037,60.524l0.717-4.593c-1.547-1.46-1.581-2.894-0.019-3.773c1.14-0.641,0.618-2.562-1.571-2.905
			l-0.456-0.071c-2.189-0.342-3.388,1.31-2.497,2.268c1.22,1.313,0.726,3.003-1.385,3.554l-0.717,4.593L270.037,60.524z"/>
		<path fill="#2BB8EF" d="M262.326,59.448l0.338-4.636c-1.661-1.328-1.813-2.755-0.329-3.759c1.084-0.733,0.405-2.604-1.804-2.766
			l-0.46-0.033c-2.21-0.161-3.27,1.584-2.303,2.466c1.324,1.209,0.97,2.933-1.089,3.656l-0.338,4.636L262.326,59.448z"/>
		<path fill="#2BB8EF" d="M254.382,58.836l0.127-4.647c-1.72-1.252-1.936-2.67-0.499-3.74c1.05-0.782,0.287-2.62-1.928-2.681
			l-0.461-0.013c-2.215-0.061-3.194,1.73-2.188,2.568c1.377,1.147,1.102,2.886-0.921,3.701l-0.127,4.647L254.382,58.836z"/>
		<path fill="#2BB8EF" d="M246.371,58.693l-0.095-4.648c-1.778-1.168-2.062-2.574-0.677-3.711c1.012-0.831,0.162-2.63-2.054-2.586
			l-0.461,0.009c-2.215,0.045-3.107,1.881-2.063,2.67c1.43,1.08,1.238,2.83-0.743,3.741l0.095,4.648L246.371,58.693z"/>
		<path fill="#2BB8EF" d="M238.461,59l-0.361-4.635c-1.842-1.064-2.206-2.451-0.889-3.666c0.962-0.888,0.011-2.635-2.199-2.464
			l-0.46,0.036c-2.209,0.172-2.995,2.055-1.907,2.784c1.49,0.996,1.398,2.755-0.528,3.777l0.361,4.635L238.461,59z"/>
		<path fill="#2BB8EF" d="M230.468,59.672l-0.474-4.624c-1.867-1.02-2.264-2.397-0.977-3.644c0.941-0.91-0.053-2.635-2.258-2.409
			l-0.458,0.047c-2.205,0.226-2.944,2.128-1.839,2.829c1.513,0.96,1.465,2.719-0.436,3.789l0.474,4.624L230.468,59.672z"/>
		<path fill="#2BB8EF" d="M222.42,60.605l-0.577-4.612c-1.889-0.978-2.317-2.346-1.058-3.621c0.92-0.931-0.112-2.633-2.311-2.358
			l-0.457,0.057c-2.199,0.275-2.896,2.193-1.775,2.869c1.534,0.926,1.525,2.686-0.351,3.798l0.577,4.612L222.42,60.605z"/>
		<path fill="#2BB8EF" d="M214.457,61.546l-0.743-4.589c-1.923-0.909-2.401-2.261-1.188-3.581c0.885-0.964-0.207-2.628-2.395-2.273
			l-0.455,0.074c-2.187,0.354-2.815,2.296-1.67,2.932c1.567,0.87,1.621,2.629-0.214,3.808l0.743,4.589L214.457,61.546z"/>
		<path fill="#2BB8EF" d="M206.424,62.846l-0.743-4.589c-1.923-0.909-2.401-2.261-1.188-3.581c0.885-0.964-0.207-2.628-2.395-2.273
			l-0.455,0.074c-2.188,0.354-2.815,2.296-1.67,2.932c1.567,0.87,1.621,2.629-0.214,3.808l0.743,4.589L206.424,62.846z"/>
		<path fill="#2BB8EF" d="M198.187,64.206l-0.665-4.601c-1.907-0.941-2.362-2.301-1.127-3.601c0.901-0.949-0.162-2.631-2.356-2.313
			l-0.456,0.066c-2.194,0.317-2.854,2.248-1.719,2.903c1.552,0.896,1.576,2.656-0.279,3.804l0.665,4.601L198.187,64.206z"/>
		<path fill="#2BB8EF" d="M190.035,65.364l-0.591-4.611c-1.892-0.972-2.325-2.339-1.069-3.618c0.917-0.934-0.121-2.633-2.319-2.351
			l-0.457,0.059c-2.198,0.281-2.89,2.202-1.766,2.875c1.537,0.921,1.533,2.681-0.34,3.798l0.591,4.611L190.035,65.364z"/>
		<path fill="#2BB8EF" d="M182.159,66.441l-0.574-4.613c-1.888-0.979-2.316-2.348-1.056-3.622c0.92-0.931-0.11-2.633-2.31-2.36
			l-0.457,0.057c-2.199,0.273-2.898,2.191-1.777,2.868c1.534,0.927,1.523,2.687-0.354,3.797l0.574,4.613L182.159,66.441z"/>
		<path fill="#2BB8EF" d="M174.084,67.445l-0.574-4.613c-1.888-0.979-2.316-2.348-1.056-3.622c0.92-0.931-0.111-2.633-2.31-2.36
			l-0.457,0.057c-2.199,0.273-2.898,2.191-1.777,2.868c1.534,0.927,1.523,2.687-0.354,3.797l0.574,4.613L174.084,67.445z"/>
		<path fill="#2BB8EF" d="M165.752,68.448l-0.337-4.636c-1.835-1.074-2.193-2.463-0.869-3.671c0.966-0.883,0.025-2.635-2.186-2.475
			l-0.459,0.034c-2.21,0.16-3.006,2.04-1.921,2.773c1.485,1.004,1.383,2.761-0.548,3.774l0.337,4.636L165.752,68.448z"/>
		<path fill="#2BB8EF" d="M157.808,69.038l-0.354-4.635c-1.84-1.068-2.202-2.455-0.883-3.669c0.963-0.886,0.015-2.636-2.195-2.466
			l-0.459,0.035c-2.21,0.169-2.998,2.051-1.911,2.78c1.489,0.999,1.394,2.756-0.534,3.776l0.354,4.635L157.808,69.038z"/>
		<path fill="#2BB8EF" d="M149.517,69.506l-0.211-4.644c-1.806-1.124-2.125-2.522-0.769-3.694c0.99-0.856,0.096-2.634-2.118-2.533
			l-0.46,0.021c-2.214,0.101-3.06,1.958-1.996,2.72c1.457,1.044,1.308,2.798-0.65,3.758l0.211,4.644L149.517,69.506z"/>
		<path fill="#2BB8EF" d="M141.389,69.876l-0.211-4.644c-1.806-1.124-2.125-2.522-0.769-3.694c0.99-0.856,0.096-2.634-2.118-2.533
			l-0.46,0.021c-2.214,0.101-3.06,1.958-1.996,2.72c1.457,1.044,1.308,2.798-0.65,3.758l0.211,4.644L141.389,69.876z"/>
		<path fill="#2BB8EF" d="M133.02,70.131l-0.003-4.649c-1.754-1.204-2.01-2.614-0.603-3.725c1.027-0.811,0.213-2.627-2.003-2.625
			l-0.461,0c-2.216,0.002-3.144,1.819-2.115,2.628c1.408,1.108,1.182,2.854-0.817,3.725l0.003,4.649L133.02,70.131z"/>
		<path fill="#2BB8EF" d="M124.669,70.158l0.181-4.645c-1.705-1.272-1.905-2.692-0.455-3.746c1.059-0.77,0.317-2.616-1.897-2.703
			l-0.461-0.018c-2.214-0.087-3.214,1.692-2.218,2.542c1.364,1.163,1.068,2.899-0.965,3.69l-0.181,4.645L124.669,70.158z"/>
		<path fill="#2BB8EF" d="M116.641,69.738l0.314-4.638c-1.668-1.32-1.827-2.745-0.348-3.757c1.081-0.739,0.392-2.606-1.819-2.756
			l-0.46-0.031c-2.211-0.15-3.261,1.6-2.29,2.478c1.33,1.201,0.985,2.928-1.07,3.661l-0.314,4.638L116.641,69.738z"/>
		<path fill="#2BB8EF" d="M108.522,69.188l0.314-4.638c-1.668-1.32-1.827-2.745-0.348-3.757c1.081-0.739,0.392-2.606-1.819-2.756
			l-0.46-0.031c-2.211-0.15-3.261,1.6-2.29,2.478c1.33,1.201,0.985,2.928-1.07,3.661l-0.314,4.638L108.522,69.188z"/>
		<path fill="#2BB8EF" d="M100.183,68.742l0.495-4.622c-1.615-1.384-1.719-2.814-0.201-3.768c1.109-0.696,0.493-2.589-1.71-2.825
			l-0.458-0.049c-2.203-0.236-3.321,1.472-2.385,2.387c1.282,1.252,0.87,2.964-1.212,3.616l-0.495,4.622L100.183,68.742z"/>
		<path fill="#2BB8EF" d="M92.007,67.868l0.677-4.599c-1.559-1.447-1.606-2.88-0.052-3.772c1.135-0.652,0.596-2.567-1.596-2.89
			L90.58,56.54c-2.193-0.322-3.377,1.339-2.478,2.29c1.231,1.302,0.751,2.996-1.354,3.565l-0.677,4.599L92.007,67.868z"/>
		<path fill="#2BB8EF" d="M84.06,66.506l0.789-4.581c-1.523-1.485-1.534-2.919,0.041-3.773c1.151-0.624,0.659-2.553-1.525-2.929
			l-0.454-0.078c-2.183-0.376-3.408,1.256-2.533,2.229c1.199,1.332,0.678,3.014-1.441,3.531l-0.789,4.581L84.06,66.506z"/>
		<path fill="#2BB8EF" d="M75.853,64.857l0.997-4.54c-1.454-1.553-1.4-2.986,0.213-3.767c1.178-0.571,0.774-2.52-1.39-2.995
			l-0.45-0.099c-2.164-0.475-3.462,1.1-2.632,2.111c1.137,1.385,0.54,3.042-1.6,3.462l-0.997,4.54L75.853,64.857z"/>
		<path fill="#2BB8EF" d="M67.906,63.111l0.997-4.54c-1.454-1.553-1.4-2.986,0.213-3.767c1.178-0.571,0.774-2.52-1.39-2.995
			l-0.45-0.099c-2.164-0.475-3.462,1.1-2.632,2.111c1.137,1.385,0.54,3.042-1.6,3.462l-0.997,4.54L67.906,63.111z"/>
		<path fill="#2BB8EF" d="M59.74,61.183l1.168-4.499c-1.394-1.607-1.286-3.037,0.355-3.756c1.199-0.526,0.868-2.489-1.276-3.045
			l-0.446-0.116c-2.145-0.556-3.501,0.969-2.71,2.01c1.084,1.427,0.425,3.06-1.729,3.399l-1.168,4.499L59.74,61.183z"/>
		<path fill="#2BB8EF" d="M51.799,59.093l1.446-4.417c-1.292-1.69-1.095-3.111,0.588-3.727c1.229-0.45,1.022-2.43-1.085-3.119
			l-0.438-0.144c-2.106-0.689-3.555,0.748-2.829,1.838c0.993,1.492,0.233,3.08-1.938,3.285l-1.446,4.417L51.799,59.093z"/>
		<path fill="#2BB8EF" d="M44.099,56.562l1.605-4.362c-1.23-1.736-0.981-3.148,0.723-3.703c1.245-0.405,1.109-2.391-0.971-3.156
			l-0.432-0.159c-2.079-0.765-3.579,0.619-2.894,1.734c0.938,1.527,0.121,3.087-2.056,3.213l-1.605,4.362L44.099,56.562z"/>
		<path fill="#2BB8EF" d="M36.328,53.442l1.813-4.28c-1.145-1.793-0.829-3.192,0.9-3.664c1.263-0.345,1.223-2.335-0.818-3.199
			l-0.424-0.18c-2.04-0.864-3.605,0.446-2.974,1.593c0.864,1.57-0.027,3.089-2.208,3.11l-1.813,4.28L36.328,53.442z"/>
		<path fill="#2BB8EF" d="M28.835,50.268l1.813-4.28c-1.145-1.793-0.829-3.192,0.9-3.664c1.263-0.345,1.223-2.335-0.818-3.199
			l-0.424-0.18c-2.04-0.864-3.605,0.446-2.974,1.593c0.864,1.57-0.027,3.089-2.208,3.11l-1.813,4.28L28.835,50.268z"/>
		<path fill="#2BB8EF" d="M21.105,47.041l1.986-4.202c-1.071-1.838-0.698-3.223,1.049-3.624c1.276-0.293,1.317-2.283-0.687-3.23
			l-0.416-0.197c-2.003-0.947-3.62,0.298-3.037,1.47c0.799,1.604-0.153,3.085-2.333,3.017l-1.986,4.202L21.105,47.041z"/>
		<path fill="#2BB8EF" d="M13.609,43.435l2.126-4.134c-1.009-1.873-0.59-3.245,1.169-3.587c1.285-0.25,1.393-2.238-0.578-3.251
			l-0.409-0.211c-1.97-1.013-3.628,0.177-3.084,1.368c0.745,1.63-0.256,3.078-2.433,2.938l-2.126,4.134L13.609,43.435z"/>
		<path fill="#2BB8EF" d="M6.344,39.631l2.51-3.912c-0.825-1.96-0.278-3.286,1.506-3.46c1.303-0.127,1.6-2.094-0.265-3.292
			l-0.388-0.249c-1.865-1.196-3.629-0.17-3.201,1.067c0.586,1.693-0.548,3.04-2.701,2.692l-2.51,3.912L6.344,39.631z"/>
		<path fill="#2BB8EF" d="M-0.554,35.073l2.675-3.801c-0.74-1.994-0.137-3.295,1.653-3.392c1.307-0.071,1.688-2.024-0.124-3.3
			l-0.377-0.265c-1.812-1.275-3.618-0.325-3.244,0.929c0.513,1.717-0.678,3.014-2.814,2.574l-2.675,3.801L-0.554,35.073z"/>
	</g>
</g>
<g>
	<g>
		<g>
			<path fill="#FFFFFF" d="M314.734,101.778c-0.055,0-0.108-0.018-0.152-0.052c-0.058-0.045-0.094-0.112-0.098-0.186
				c0-0.01-0.054-1.029-0.25-1.955c-0.006-0.072-0.031-2.064-2.489-7.278c-1.596-3.388-2.557-4.687-3.669-6.189
				c-0.636-0.86-1.357-1.835-2.279-3.315c-0.876-1.404-1.043-2.614-0.499-3.595c0.775-1.396,2.805-1.902,3.979-1.902l0.138,0.002
				c0.589,0.023,1.335,0.039,2.15,0.039c1.134,0,2.806-0.03,4.331-0.175c2.212-0.209,3.374-0.455,4.973-1.054
				c1.562-0.585,4.553-1.784,6.008-2.5c0.53-0.261,1.512-0.566,2.532-0.566c1.032,0,1.854,0.318,2.378,0.92
				c0.601,0.691,0.809,1.736,0.617,3.106c-0.238,1.701-0.495,2.886-0.721,3.931c-0.403,1.863-0.752,3.474-0.835,7.251
				c-0.128,5.761,0.652,7.562,0.66,7.579c0.214,0.978,0.586,1.955,0.59,1.965c0.026,0.068,0.021,0.146-0.014,0.209
				c-0.035,0.064-0.097,0.11-0.168,0.125l-17.131,3.635C314.77,101.776,314.752,101.778,314.734,101.778z"/>
			<path fill="#00AFE5" d="M329.41,73.302c1.585,0,3.16,0.784,2.746,3.741c-0.66,4.717-1.426,5.284-1.558,11.21
				s0.683,7.688,0.683,7.688c0.203,0.956,0.584,1.951,0.584,1.951l-0.839,0.178l-15.523,3.294l-0.769,0.163
				c0,0-0.053-1.037-0.256-1.994c0,0,0.021-1.971-2.506-7.334c-2.527-5.362-3.445-5.488-5.963-9.53
				c-2.454-3.939,1.586-5.115,3.268-5.115c0.044,0,0.087,0.001,0.128,0.002c0.59,0.023,1.336,0.039,2.153,0.039
				c1.389,0,2.982-0.045,4.362-0.176c2.192-0.207,3.37-0.445,5.038-1.069c1.667-0.624,4.599-1.806,6.03-2.51
				C327.52,73.58,328.467,73.302,329.41,73.302 M329.41,72.802c-1.064,0-2.089,0.319-2.644,0.592
				c-1.449,0.713-4.427,1.908-5.984,2.49c-1.595,0.597-2.696,0.83-4.909,1.039c-1.517,0.143-3.184,0.174-4.315,0.174
				c-0.954,0-1.687-0.021-2.133-0.038c-0.047-0.002-0.097-0.003-0.148-0.003c-1.234,0-3.37,0.541-4.197,2.031
				c-0.592,1.066-0.422,2.361,0.505,3.848c0.928,1.489,1.652,2.469,2.292,3.333c1.104,1.492,2.058,2.781,3.643,6.146
				c2.417,5.129,2.459,7.1,2.459,7.12c0,0.034,0.004,0.072,0.011,0.105c0.192,0.904,0.245,1.905,0.246,1.915
				c0.008,0.146,0.079,0.282,0.195,0.371c0.088,0.068,0.195,0.104,0.305,0.104c0.035,0,0.069-0.004,0.104-0.011l0.769-0.163
				l15.523-3.294l0.839-0.178c0.143-0.03,0.266-0.122,0.335-0.25c0.07-0.128,0.08-0.281,0.028-0.418
				c-0.004-0.01-0.369-0.972-0.561-1.876c-0.008-0.037-0.02-0.072-0.035-0.106c-0.006-0.013-0.763-1.802-0.637-7.467
				c0.083-3.752,0.429-5.351,0.829-7.202c0.227-1.05,0.484-2.24,0.724-3.95c0.202-1.445-0.025-2.557-0.676-3.305
				C331.403,73.15,330.516,72.802,329.41,72.802L329.41,72.802z"/>
		</g>
		<g>
			<path fill="#FFFFFF" d="M326.12,139.348c-2.102,0-4.509-1.376-5.043-4.004c-0.761-4.026-6.199-36.383-6.254-36.71
				c-0.012-0.066,0.005-0.134,0.044-0.188c0.04-0.055,0.1-0.091,0.167-0.1c0.058-0.009,5.792-0.832,7.664-1.229
				c1.869-0.397,7.506-2.047,7.562-2.063c0.023-0.007,0.047-0.01,0.07-0.01c0.043,0,0.086,0.011,0.124,0.032
				c0.059,0.034,0.102,0.09,0.118,0.155c0.083,0.322,8.291,32.223,9.229,36.208c0.358,1.618-0.157,2.875-0.653,3.645
				c-0.733,1.14-1.943,2.008-3.159,2.266l-9.004,1.91C326.714,139.318,326.422,139.348,326.12,139.348z M324.461,132.573
				l0.871,2.685l0.615,0.759c0.298,0.163,0.593,0.291,1.021,0.291c0.19,0,0.402-0.025,0.648-0.077l6.112-1.297
				c0.924-0.196,1.539-0.605,1.881-1.249l0.186-1.336l-1.534-5.545l-1.289-4.607l-9.588,1.979L324.461,132.573z M319.762,106.632
				l9.626-1.184l-1.329-7.781l-0.448-0.047l-9.195,1.951l-0.285,0.123L319.762,106.632z"/>
			<path fill="#00AFE5" d="M330.331,95.294c0,0,8.279,32.174,9.228,36.203c0.647,2.922-1.63,5.186-3.621,5.608
				s-7.012,1.488-9.004,1.91c-0.257,0.054-0.53,0.082-0.814,0.082c-1.917,0-4.28-1.249-4.799-3.804
				c-0.769-4.067-6.253-36.702-6.253-36.702s5.78-0.828,7.681-1.231C324.65,96.958,330.331,95.294,330.331,95.294 M319.57,106.907
				l10.108-1.243l-1.404-8.227l-0.677-0.07l-9.234,1.959l-0.524,0.221L319.57,106.907 M326.969,136.558
				c0.203,0,0.432-0.026,0.7-0.083l6.112-1.297c1.058-0.225,1.696-0.708,2.05-1.376l0.22-1.47l-1.548-5.594l-1.352-4.833
				l-10.043,2.072l1.106,8.629l0.881,2.73l0.657,0.835C326.138,136.407,326.48,136.558,326.969,136.558 M330.331,94.794
				c-0.047,0-0.094,0.007-0.14,0.02c-0.057,0.017-5.684,1.663-7.545,2.057c-1.863,0.395-7.59,1.217-7.648,1.226
				c-0.133,0.019-0.253,0.091-0.333,0.2c-0.079,0.109-0.112,0.245-0.089,0.378c0.055,0.326,5.494,32.686,6.255,36.712
				c0.562,2.767,3.086,4.211,5.29,4.211c0.319,0,0.628-0.031,0.917-0.093l9.004-1.91c1.278-0.271,2.549-1.181,3.317-2.374
				c0.748-1.162,0.986-2.486,0.688-3.831c-0.941-3.995-9.149-35.898-9.232-36.219c-0.034-0.131-0.119-0.243-0.237-0.31
				C330.503,94.816,330.417,94.794,330.331,94.794L330.331,94.794z M318.513,99.806l9.11-1.933l0.221,0.023l1.252,7.336
				l-9.143,1.124l-1.531-6.512L318.513,99.806L318.513,99.806z M323.662,124.373l9.132-1.884l1.226,4.384l1.52,5.49l-0.191,1.276
				c-0.312,0.534-0.86,0.878-1.673,1.05l-6.112,1.297c-0.228,0.048-0.423,0.072-0.596,0.072c-0.343,0-0.584-0.094-0.881-0.269
				l-0.545-0.693l-0.839-2.6L323.662,124.373L323.662,124.373z"/>
		</g>
		<path fill="#FFFFFF" stroke="#00AFE5" stroke-width="0.5" stroke-linejoin="round" d="M328.633,97.53c0,0-0.012-0.399-0.535-0.288
			c-0.159,0.034-3.508,0.772-3.676,0.818c0,0,3.269-0.703,3.389-0.624c0.12,0.078,1.473,5.628,0.655,6.827
			c-0.818,1.199-6.903,2.495-8.137,1.731c-1.234-0.764-2.225-6.455-2.177-6.547c0.048-0.092,3.401-0.794,3.401-0.794
			c-0.152,0.021-3.496,0.72-3.636,0.75c-0.523,0.111-0.359,0.567-0.359,0.567s5.819,29.494,6.402,32.238
			c0.383,1.806,0.85,3.294,1.791,3.963c-0.004-0.023-0.366-0.737-0.484-1.305c-0.405-1.95-1.599-8.993-1.289-9.297
			c1.604-1.57,7.438-2.808,9.2-1.952c0.251,0.122,1.918,6.011,2.533,8.633c0.147,0.626,0.103,1.489,0.118,1.552
			c0.539-1.018,0.414-2.47,0.062-4.126C335.31,126.932,328.633,97.53,328.633,97.53z"/>
		<path fill="#FFFFFF" stroke="#00AFE5" stroke-width="0.5" stroke-linejoin="round" d="M319.049,75.326
			c2.6-0.552,3.019,0.764,3.451,2.799s4.127,19.451,4.127,19.451s0.919,3.618-2.278,4.297l-1.261,0.268
			c-3.198,0.679-3.765-3.015-3.765-3.015s-3.695-17.416-4.127-19.451s-0.628-3.398,1.972-3.95L319.049,75.326z"/>
	</g>
	<g>
		<path fill="#00AAFF" d="M325.838,119.596l-1.01,2.281l0.354,1.672l-1.1,0.233l-0.351-1.65l-1.88-1.69l1.143-0.242l1.081,0.971
			l0.596-1.327L325.838,119.596z"/>
		<path fill="#00AAFF" d="M330.133,122.498l-1.344,0.285l-1.758-1.413l0.363,1.709l-1.101,0.233l-0.774-3.649l1.101-0.233
			l0.347,1.633l0.975-1.913l1.195-0.254l-0.996,1.997L330.133,122.498z"/>
		<path fill="#00AAFF" d="M333.642,121.754l-1.343,0.285l-1.758-1.413l0.362,1.709l-1.101,0.233l-0.774-3.649l1.101-0.233
			l0.347,1.633l0.975-1.914l1.196-0.253l-0.996,1.997L333.642,121.754z"/>
	</g>
</g>
<g>
	<path fill="#FFFFFF" d="M398.792,114.572l7.473,10.637l5.135-10.637l6.931,2.033l-12.733,24.249l-7.933-0.871l4.969-8.386
		l-11.188-14.992L398.792,114.572z"/>
	<path fill="#FFFFFF" d="M425.596,126.044h0.209l9.56-11.254l7.181,1.67l-9.393,10.781l9.727,11.943l-7.682,1.67l-9.393-12.379
		h-0.209v11.508l-7.348,0.58v-25.192l7.348-0.581L425.596,126.044L425.596,126.044z"/>
	<path fill="#FFFFFF" d="M449.979,126.044h0.209l9.56-11.254l7.181,1.67l-9.393,10.781l9.727,11.943l-7.682,1.67l-9.393-12.379
		h-0.209v11.508l-7.348,0.58v-25.192l7.348-0.581L449.979,126.044L449.979,126.044z"/>
</g>
<g>
	<path fill="#FFFFFF" d="M11.924,141.799c0.061,0.102,0.303-0.363,0.848-0.363c0.182,0,0.445-0.363,0.849-0.363
		c0.586-0.506,1.151-0.425,1.717-0.788c0.182-0.242,0.768-0.404,1.212-0.849c0.061-0.061,0.849-0.424,0.909-0.484
		c0.485-0.223,1.111-0.829,1.212-1.152c0.99-0.909,1.192-2.04,1.596-3.212c0-0.081,0.162-0.485,0.162-0.565
		c0.041-0.869-0.04-1.011-0.485-1.011c-0.404,0-0.646,0.243-1.03,0.283c-0.485,0-1.05,0.242-1.272,0.242
		c-0.303,0.243-0.97,0.223-1.273,0.323c-0.222,0.121-0.444,0.121-0.667,0.162c-0.687,0.242-1.131,0.484-1.96,0.484
		c-0.364-0.282-0.242-0.889-0.404-1.252c0-0.202-0.344-0.546-0.364-0.688c-0.061-0.161,0.222-0.242,0.283-0.242
		c0.243,0,0.364,0.04,0.566,0.04c0.162,0,0.788-0.04,1.212-0.04s0.344-0.707,0.606-0.97c0.283-0.687,0.626-1.333,0.788-2.021
		c0.162-0.545,0.243-1.091,0.485-1.697c0.081-0.384,0.061-0.768,0.061-1.151c-0.061-0.182-0.364-0.363-0.364-0.484
		c0-0.242,1.031-1.03,1.273-1.03c0.222,0.161,0.444,0.343,0.606,0.605c0.223,0.364,1.091,0.445,1.091,1.092
		c0,0.484-0.384,0.605-0.606,0.787c-0.182,0.142-0.303,0.627-0.303,0.788c0,0.223,0.02,0.323,0.242,0.323h1.273
		c0.202,0,0.485-0.121,0.565-0.242c0-1.313-0.081-1.778-0.081-2.627c-0.061-0.322-0.243-1.293-0.525-1.515
		c-0.263-0.202-0.505-0.101-0.505-0.565c0-0.021,0.909-0.707,1.232-0.768c0.283-0.061,0.485-0.122,0.768-0.243
		c0.364,0,0.606,0.364,0.849,0.546c0.444,0.363,1.05,0.484,1.05,1.03c0,0.484-0.444,0.909-0.606,1.333
		c-0.323,0.728-0.485,1.455-0.485,2.243c0,0.464,0.02,0.524,0.384,0.524c0.242,0,1.03-0.08,1.758-0.08
		c0.303-0.121,0.909-0.809,1.495-0.809c0.283,0,1.697,0.95,1.697,1.778c0,0.242-0.162,0.363-0.404,0.363
		c-0.727,0.021-1.394-0.242-2.263-0.242c-0.04,0-0.404-0.202-0.485-0.202c-0.04,0-0.525,0.121-0.606,0.121
		c-0.626,0-1.616-0.142-1.697,0.485c-0.081,0.605-0.081,1.212-0.081,1.817c0,0.202,0,0.364,0.202,0.485
		c0.485,0,0.646-0.04,0.889-0.04c0.445-0.081,0.889-0.081,1.293-0.081c0.384,0,0.606-0.121,1.657-0.121
		c0-0.041,0.162-0.243,0.243-0.243c0.485,0,0.909-0.727,1.333-0.727s0.566,0.565,0.849,0.484c0.021-0.02,0.142,0.323,0.364,0.444
		c0.485,0.263,0.768,0.465,0.727,1.172c0,0.283-1.05,0.364-1.212,0.364c-0.081,0-0.687-0.202-0.728-0.202
		c-1.01-0.202-1.656-0.162-2.626-0.162c-0.041,0-0.849-0.121-0.889-0.121c-0.525,0-0.808,0.081-0.808,0.525
		c0,0.485,0.041,0.565,0.364,0.97c0.041,0.081,0.485,0.809,0.565,0.849c0.122,0.202,0.364,0.323,0.525,0.484
		c0.081,0.081,0.364,0.444,0.444,0.485c0.243,0.323,0.606,0.484,0.889,0.728c0.565,0.444,1.091,0.868,1.657,1.232
		c0.242,0.121,0.404,0.121,0.646,0.242c0.081,0,0.565,0.303,0.626,0.303c0.788,0.242,1.556,0.425,2.424,0.546
		c0.061,0,0.061,0.061,0.061,0.121c0.041,0.121-0.343,0.242-0.606,0.242c-0.222,0-0.545,0.303-0.788,0.303
		c-0.829,0-1.455,1.03-2.324,1.03c-0.081,0.102-0.283-0.121-0.485-0.121c-0.525-0.525-0.808-0.484-1.495-1.212
		c-0.404,0-1.556-1.091-1.899-1.758c-0.505-0.97-1.091-2.282-1.091-3.354c0-0.242,0-1.333-0.364-1.333
		c-0.04-0.021-0.121,0.02-0.202,0.081c-0.061,0-0.142-0.041-0.202-0.041c-0.222,0-0.283,0.283-0.283,0.525
		c-0.041,0.363-0.041,0.768-0.162,1.131c0,0.081-0.202,0.445-0.202,0.485c-0.202,0.525-0.243,1.172-0.646,1.576
		c-0.081-0.122-0.162,0.605-0.364,0.808c-0.646,0.626-1.172,1.132-1.899,1.637c-0.243,0-0.404,0.363-0.667,0.363
		c-0.061,0-0.364,0.303-0.424,0.303c-0.061,0-0.424,0.122-0.485,0.122c-0.263,0-0.364,0.424-0.546,0.424
		c-0.363,0.142-0.869,0.344-1.272,0.485c-0.182,0.061-0.243,0.182-0.424,0.242l-1.293,0.545c-0.545,0-1.232,0.546-1.859,0.546
		c-0.121,0-0.323-0.121-0.323-0.242C11.438,141.859,11.802,141.859,11.924,141.799z M16.853,132.324
		c0.182,0,0.303-0.081,0.485-0.081c0.303,0,0.545,0.081,0.849,0.081c0.485,0,0.869-0.162,0.909-0.121
		c-0.021-0.021,0.565,0.04,0.687,0.04c0.283,0,0.768-0.121,0.849-0.484c0-0.485,0.121-0.93,0.121-1.212c0,0-0.121-0.849-0.121-1.011
		c-0.081-0.081-0.202-0.081-0.323-0.081c-0.061,0-0.565,0.121-0.849,0.121c-0.667,0.162-1.858,0.041-2.182,0.849
		c-0.061,0.081-0.485,0.809-0.545,0.849c0,0.202-0.485,0.344-0.485,0.688v0.04C16.247,132.324,16.61,132.324,16.853,132.324z"/>
	<path fill="#FFFFFF" d="M39.158,139.396c-0.121,0-1.475,0.161-2.485,0.161c-0.99,0.102-2,0.363-2.99,0.363
		c-0.162,0-0.364,0.122-0.525,0.122c-0.243,0-0.444-0.283-0.485-0.485c-0.222-0.142,0.505-0.161,0.728-0.161
		c0.04,0,0.404-0.122,0.484-0.122c0.869,0,1.859-0.322,2.728-0.322c0.303,0,0.545,0.08,0.849,0.08c2.283-0.465,2.465,0,2.424-1.051
		c0-0.201-0.121-0.727-0.283-0.808c-0.122,0-0.485-0.04-0.566-0.04c-0.182,0-0.687,0.04-0.788,0.121
		c-0.081,0-0.182-0.021-0.263-0.021c-0.101,0-0.182,0.021-0.223,0.061H36.43c-0.182,0-0.243-0.04-0.243-0.242
		c0-0.162,0.485-0.121,0.728-0.121c0.121,0,1.151-0.121,1.272-0.121c0.303,0,1.657,0.101,1.657-0.525
		c0-0.081-0.121-0.243-0.121-0.323c-0.081-0.242,0-0.646-0.364-0.646c-0.444,0-0.869,0.121-1.293,0.161
		c-0.424,0.081-0.97,0-1.333,0.081c-0.061,0-0.242,0.121-0.303,0.121c-0.061-0.021-0.344,0.102-0.424-0.121
		c0.121-0.283,0.606,0.04,1.576-0.323c-0.081,0,0.828-0.242,1.212-0.242c0.768,0,1.03,0,1.212,0.081
		c0.606-0.162,1.556-0.404,2.303-0.485c0.283-0.263,0.687-0.869,0.808-0.869c0.343,0,0.687,0.384,0.687,0.606
		c0,0.546-0.566,0.424-1.01,0.505c-0.041,0-0.849,0.121-0.889,0.121h-0.121c-0.202,0.102-0.748,0.162-0.748,0.646
		c0,0.909,0.182,0.93,0.586,0.93c0.424,0,0.768-0.121,1.172-0.121c0.565-0.04,0.849,0,1.414-0.121
		c0.444-0.081,0.485-0.688,0.97-0.688c0.283,0.061,1.051,0.465,1.051,0.606c0,0.121,0,0.202-0.122,0.242
		c-0.343,0-0.707,0.162-1.091,0.121l-0.202-0.04c-0.323,0-0.626,0.04-1.01,0.04c-0.364,0-0.829,0.243-1.293,0.243
		c-0.323,0-1.576,0.04-1.576,0.565c0.081,1.01,0.223,1.354,0.97,1.333c0.041,0,0.283-0.121,0.364-0.121
		c0.364,0,0.869-0.04,1.01-0.04c0.202,0,0.303-0.041,0.364,0.04h1.293c0.202-0.081,0.585-0.404,0.727-0.606
		c0.121-0.201,0.202-0.444,0.364-0.565h0.485c0.242,0.081,0.849,0.809,0.849,1.132h-0.646c-0.202,0-0.243,0.282-0.445,0.282h-2.545
		c-0.222,0.021-0.525,0.142-0.687,0.122c-0.162,0-0.889,0.121-1.01,0.121c-0.202,0-0.687,0.08-0.808,0.242
		c0,0.363-0.021,0.505,0.081,0.728c0,0.101,0.323,0.849,0.728,0.849c0.242,0,0.485-0.041,0.727-0.041c0.162,0,0.283,0,0.485,0.041
		c1.354,0,1.252-0.041,1.657-0.041c0.768-0.121,1.616-0.202,2.545-0.202c0.364-0.242,0.728-0.605,1.01-0.889
		c0.343,0.363,0.142,0.99,0.626,1.333c0.182,0,0.485,0.384,0.485,0.404l-0.122,0.121c-0.707,0-1.192,0.242-2.202,0.242
		c-0.464,0.243-1.071,0.243-1.616,0.324c-0.202,0-0.242,0.161-0.444,0.161c-0.141-0.04-0.525-0.04-0.849-0.04l-0.283-0.323
		c-0.303-0.021-0.424,0.202-0.646,0.242c-0.283,0.101-0.525,0.121-0.727,0.202H41.22c-0.122,0.04-0.384-0.242-0.606-0.242
		c-0.121-0.081-0.162-0.445-0.242-0.485c0-0.081-0.243-0.444-0.243-0.485c-0.242-0.484,0.081-1.817-0.768-1.817L39.158,139.396
		L39.158,139.396z M33.319,135.233c0-0.121,0.323-0.849,0.323-0.97c-0.061-0.747,0.424-1.03,0.424-1.516
		c0.121-0.363-0.061-0.908,0.242-1.091c0.182,0.061,0.122,0.304,0.182,0.425c0.162,0.666,0.626,0.666,1.697,0.666
		c0.263,0,1.212,0.102,1.212-0.303c0-0.242-0.303-0.363-0.303-0.605v-3.697l0.061-0.202c0.303,0,0.606,0.242,0.909,0.242
		c-0.02-0.061,0.606-0.04,0.929-0.04c0.202,0,0.344-0.121,0.364-0.081c-0.02-0.021,1.333,0.202,2.182,0.202l0.121,0.04
		c-0.101,0.182-0.263,0.202-0.444,0.202h-0.162c-0.081,0-0.364,0.04-0.445,0.04c-0.667,0-2.182-0.101-2.485,0.445
		c0,1.191-0.02,1.252,1.515,1.252h0.081c0.081,0,1.717-0.04,2.707-0.04c0.909,0,0.929-0.364,0.929-0.93
		c0-0.404-0.081-0.728-0.485-0.889c-0.222,0-0.828,0.04-0.808,0.04c-0.04,0-0.04-0.121-0.04-0.161h0.97
		c0.384-0.223,0.505-0.586,1.05-0.606c0.081,0,1.333,0.465,1.333,0.525v0.081c-0.323,0.182-0.444,1.03-0.444,1.454v0.364
		c0,0.242-0.041,0.424-0.364,0.424c-0.081,0.041-0.243-0.021-0.364-0.061c-0.121,0-0.626,0.102-0.687,0.121
		c-0.404,0.021-0.788-0.061-1.212-0.061c-0.263,0.102-1.232,0-1.333,0.121c-0.041,0-0.162-0.061-0.242-0.061
		c-0.667,0.121-2.142,0.041-2.424,0.425c0,0.687-0.424,0.727-0.424,1.151c0,0.121,0.182,0.182,0.242,0.242
		c0.748,0.404,0.99,0.303,1.596,0.303c0.283,0,0.606-0.061,0.889-0.061c0.728,0.102,1.313,0.121,1.899,0.121
		c0,0,1.171-0.061,1.778-0.061c0.162-0.061,0.404-0.121,0.606-0.121c0.525,0,1.091,0.061,1.616,0.061
		c0,0.061-0.041,0.121-0.041,0.121h-0.222c-0.384,0-0.828,0.061-1.111,0.122h-2.464c-0.303,0-0.99,0.182-1.374,0.182
		c-1.232,0-1.071-0.061-1.414-0.061c-0.404,0.101-0.909,0.161-1.374,0.161c-0.464,0-0.848,0.081-1.414,0.081
		c-0.263,0.021-0.606-0.061-0.97-0.061c-0.303,0-1.091,0.161-1.091,0.484c0,0.304,0.182,0.546,0.182,0.809
		c0,0.606-0.303,0.849-0.667,1.212c-0.424,0.283-0.626,0.97-1.03,0.97c-0.243,0-0.444-0.202-0.444-0.363
		C33.077,136.062,33.319,135.779,33.319,135.233z M34.309,126.243h2c0.464,0,1.151-0.121,1.515-0.121
		c0.545,0,2.424,0.061,2.424-0.363c0-1.476,0.061-1.677-0.364-2.304c-0.121-0.182-0.606-0.666-0.606-0.849
		c0-0.303,0.545-0.182,0.808-0.182c0.121,0,0.97,0.364,1.091,0.364c0.041,0,0.404,0.061,0.485,0.061c0.101,0,1.252,0.08,1.252,0.303
		c0,0.363-0.283,0.605-0.485,0.849c-0.242,0.303-0.283,0.909-0.283,1.272c0,0.788,0.646,0.849,1.252,0.849h0.444
		c0.445,0,0.849,0.121,1.293,0.121c0.97,0,1.717-1.879,1.859-1.637c0-0.04,0.444,0.304,0.606,0.546
		c0.202,0.424,0.849,0.586,0.849,1.091c0,0.323-0.525,0.363-0.728,0.363c-0.848,0-1.979-0.161-2.909-0.161
		c-0.162,0-0.242,0-0.404,0.04h-1.414c-0.122,0.081-0.243,0.121-0.364,0.121c-0.364-0.121-0.444-0.303-0.849-0.303
		c-0.364,0.182-0.586,0.202-0.849,0.202c-0.202,0-0.384-0.021-0.606-0.021c-0.202,0-0.929,0.081-1.091,0.081
		c-0.081,0-0.202-0.081-0.243-0.081c-0.141,0-0.384,0.081-0.505,0.121c-0.545,0.122-1.091,0.081-1.636,0.122
		c-0.606,0.08-1.152,0.242-1.758,0.242c-0.384,0-0.444-0.162-0.788-0.667v-0.059H34.309z M47.966,131.597
		c0.081-0.061,0.121-0.061,0.242-0.061c0.122,0,0.081,0,0.202,0.061c0.182,0.081,0.687,0.223,0.788,0.364
		c0,0.061,0.242,0.424,0.242,0.484c0.122,0.303,0.545,0.667,0.545,0.97c0,0.404-0.565,0.687-1.091,0.909
		c-0.182,0.061-0.687,0.182-0.849,0.303c-0.404-0.242-0.768-0.242-0.929-0.484C47.118,132.647,47.522,132.688,47.966,131.597z"/>
	<path fill="#FFFFFF" d="M52.977,134.627c-0.081-0.141-0.081-0.242-0.081-0.403c-0.101-0.081,0.121-0.344,0.121-0.485l-0.041-0.121
		c0-0.121-0.041-0.444,0.041-0.687v-3.879c0.041-0.061,0.081-0.223,0.081-0.243l-0.081-0.182c0-0.465,0.081-1.07,0.081-1.575
		c0-0.485-0.606-0.606-0.606-0.849c0-0.323,0.404-0.202,0.606-0.243c0.04,0,0.121-0.121,0.242-0.121
		c0.424,0,0.849,0.646,1.212,0.849c0.122,0,0.606,0.041,0.728,0.041c0.242-0.021,0.565-0.102,0.849-0.283
		c0.141-0.182,0.141-0.283,0.667-0.809c0.182,0.122,0.243,0.364,0.364,0.485c0.202,0.081,0.303,0.768,0.303,1.414
		c0,0.363-0.121,0.788-0.121,1.151c0,0.485,0.061,0.97,0.061,1.455c0,0.222,0,0.303-0.061,0.424c0,0.162,0.121,0.425,0.061,0.425
		c0,0.08-0.061,0.384-0.061,0.605c0,0.546-0.04,0.728-0.121,0.97l0.061,0.121c0,0.566-0.667,1.414-0.909,1.414
		c-0.667,0-0.485-0.929-1.151-0.929c-0.788,0-0.909,0.444-0.97,1.091c-0.061,0.788-0.142,2.303-0.99,2.303
		c-0.161,0-0.242-0.282-0.283-0.484c0-0.041-0.202-0.283-0.202-0.404C52.876,135.476,52.775,134.81,52.977,134.627z M54.311,131.961
		c0,0.303,0.364,0.565,0.667,0.565s0.667,0.04,0.909-0.263c0-0.202,0.081-0.565,0.122-0.667c0,0.021-0.061-0.343-0.061-0.545
		c-0.061-1.03-0.061-2-0.061-3.03c-0.061-0.323-0.242-0.445-0.545-0.445c-0.303,0-0.727-0.04-0.909,0.243
		c0,0.868-0.061,1.838-0.061,2.444l-0.061,0.061V131.961z M55.038,139.678c0.545,0,1.111,0.121,1.757,0.121
		c0.384,0,0.869-0.182,1.273-0.182l0.182,0.061c0.929-0.101,1.556-0.242,1.899-0.242c1.596,0,1.576-0.101,1.576-1.212
		c0-0.202-0.021-1.899-0.323-1.899c-0.041,0-0.728,0.202-0.768,0.202h-0.727c-0.586,0-1.172,0.161-1.778,0.121l-0.061-0.081
		l-0.424-0.848c-0.02-0.283,0.02-0.283,0.182-0.283c0.404,0,0.748,0.121,1.152,0.121c0.081,0,0.363-0.081,0.444-0.081
		c0.909,0,2.222,0.223,2.222-0.605c0-0.041-0.041-0.283-0.041-0.364c-0.02-0.363,0.041-0.868,0.041-1.252
		c0-0.788,0-1.111-0.525-1.111c-0.485,0-1.151,0.061-1.212,0.505c0,0.242-0.081,1.454-0.606,1.454c-0.202,0-0.606-0.929-0.606-1.171
		c0-0.041,0.122-0.606,0.122-0.667c0-0.242,0.04-1.637,0.04-2v-2.121c0-0.081,0.081-0.202,0.081-0.243
		c0-0.08-0.081-0.605-0.081-0.808c-0.04-0.646-0.04-1.333-0.242-1.939c-0.121-0.404-0.545-0.363-0.545-0.525
		c0-0.161,0.808-0.606,1.111-0.606c0.404,0,0.606,0.728,1.131,0.769c1.657,0,1.212-0.162,3.596-0.162
		c0.061,0,0.545-0.121,0.606-0.121c0.424,0,0.728-0.121,1.091-0.485c0.262-0.282,0.464-0.201,0.848-0.201
		c0.303,0,1.212,0.687,1.212,0.97c0,0.201-0.303,0.384-0.424,0.565c-0.142,0.081-0.182,1.03-0.182,1.575
		c0,0.688,0.061,2.122,0.061,3.334c0,0.484-0.021,1.091-0.061,1.576c-0.081,0.605-0.728,1.454-1.394,1.454
		c-0.606,0-0.545-1.272-0.97-1.272h-1.152c-0.788,0.242-0.485,0.565-0.606,1.111v1.858c0,0.363,0.667,0.363,0.909,0.363
		c0.444,0,1.03,0.021,1.394-0.161c0.061,0,0.303-0.243,0.364-0.243c0.182-0.061,0.384-0.08,0.485-0.202
		c0.525-0.02,1.212,0.263,1.212,0.93c0,0.728-0.849,0.363-1.394,0.525h-2.242c-0.323,0-0.808,0.323-0.808,0.687v1.879
		c0,0.425,0.444,0.606,0.808,0.606c0,0.061,0.182-0.04,0.303-0.121c0.122,0.04,0.122,0.121,0.243,0.121l0.121-0.121h1.818
		c0.424-0.081,0.889-0.202,1.091-0.425c0.242-0.242,0.283-0.484,0.728-0.484c1.272,0.606,1.576,1.07,1.576,1.575
		c-0.283,0.425-0.162,0.506-0.384,0.506c-1.031,0-2.162-0.202-3.192-0.202c-0.242,0-0.485,0.061-0.727,0.061l-0.182-0.061h-3.657
		c-1.394,0.303-2.525,0.242-3.697,0.484c-0.061,0-0.485,0.183-0.545,0.183c-0.404,0.02-0.525,0.182-0.788,0.182
		c-0.707,0-0.565-0.283-0.909-0.788l-0.485-0.485C54.977,139.799,54.957,139.779,55.038,139.678z M59.907,126.243v1.96
		c0.041,0.08,0.242,0.263,0.343,0.263c0.041,0,0.121-0.021,0.182-0.021c0.121,0,1.05-0.061,1.091-0.182
		c0-0.242,0.121-0.565,0.121-1.293c-0.041-0.404,0.101-1.334-0.606-1.334C60.674,125.637,59.907,125.718,59.907,126.243z
		 M60.392,131.536l0.121-0.121c0.041,0,0.485,0.061,0.525,0.061c0.364,0.021,0.687-0.061,0.687-0.606
		c-0.101-0.787,0.283-1.757-0.566-1.757c-0.404,0-0.849-0.061-1.131,0.303c-0.081,0.424-0.081,0.667-0.081,1.091
		C59.947,130.991,59.846,131.536,60.392,131.536z M62.937,130.809c-0.061,0.081,0.02,0.506,0.343,0.506
		c0.303,0,1.96,0.141,1.96-0.445v-2.545c0.061-0.303,0.061-0.626,0.061-0.99c0-0.323-0.081-0.605-0.081-0.747
		c0-0.505,0.142-0.565,0.142-0.748c0-0.121-0.303-0.444-0.485-0.444c-0.707,0-1.818,0.081-1.818,0.444
		c0,0.142,0.061,0.485,0.041,0.606c0,0-0.162,0.646-0.162,1.01c0,0.465,0.061,0.809,0.545,0.809c0.303,0,0.606,0.02,0.909-0.121
		c0.243,0,0.364,0.182,0.364,0.424c0,0.667-1.273,0.061-1.778,0.667c0,0.444,0,1.01-0.121,1.272
		C62.856,130.566,62.937,130.748,62.937,130.809z"/>
	<path fill="#FFFFFF" d="M72.454,141.921c1.172-0.606,1.717-1.192,1.717-1.899c0-0.303-0.121-0.424-0.565-0.546
		c-0.829-0.222-1.253-0.707-1.253-1.454c0-0.93,0.707-1.616,1.677-1.616c1.111,0,1.839,0.828,1.839,2.081
		c0,1.717-1.132,3.212-2.99,3.959L72.454,141.921z"/>
	<path fill="#FFFFFF" d="M92.111,141.012c0.485-0.223,0.667-0.627,1.172-0.849c0.162-0.202,0.97-0.97,1.131-1.172
		c0.202-0.162,0.323-0.485,0.485-0.646c0.323-0.384,0.687-0.748,0.97-1.172c0.243-0.303,0.364-0.606,0.606-0.909
		c0-0.061,0.323-0.303,0.323-0.363c0.021-0.546,0.606-0.869,0.606-1.516c0-0.263-0.122-0.505-0.445-0.505
		c-0.162,0-0.404,0.081-0.606,0.121c-0.242,0.081-0.525,0.081-0.768,0.121c-0.606,0.202-1.212,0.505-1.899,0.505
		c-0.606,0-0.404-0.424-0.728-0.868c0-0.142-0.364-0.344-0.364-0.525h2.384c0.363-0.121,0.707-0.081,1.07-0.121
		c0-0.021,1.132-0.202,2.404-0.202c0.182,0,0.808,0,0.97-0.121c0.041,0,0.606,0.081,0.646,0.081
		c0.485-0.142,0.444-0.243,0.485-0.688c0-0.04,0.081-0.363,0.081-0.404c0.061-0.424-0.323-0.484-0.687-0.484
		c-0.626,0-1.495,0.121-1.939,0.121c-0.243,0-0.485,0.242-0.728,0.242h-0.485c-0.081,0-0.323,0.121-0.363,0.121
		c-0.586-0.061-0.485-0.343-0.687-0.687c0-0.04-0.243-0.242-0.243-0.283c-0.02-0.323,0.101-0.323,0.323-0.323
		c0.243,0,0.525,0.081,0.849,0.081c0.081,0.041,0.283-0.081,0.485-0.081c0.323-0.02,0.646-0.02,0.99-0.02
		c0.464,0,0.828-0.102,1.394-0.102c0.182-0.121,0.808-0.04,1.091-0.121l0.04-0.061v-0.97c-0.081-0.101-0.081-0.222-0.081-0.323
		v-0.263c0-0.142-0.041-0.263-0.323-0.263c-0.95,0-1.859,0.304-2.95,0.304c-0.041,0-0.364,0.121-0.404,0.121
		c-0.687,0-1.333,0.303-2.021,0.303c-0.303,0.142-0.202-0.363-0.525-0.849c-0.121-0.182-0.363-0.182-0.363-0.424
		c0-0.061,0-0.121,0.04-0.121c0.546,0,0.606,0,0.97,0.061c0.364-0.061,2.142-0.183,2.505-0.183c0.485,0,1.01-0.061,1.576-0.061
		l0.121-0.061c-0.242-0.586-0.485-0.525-0.485-1.475c0.122-0.021-0.283-0.444-0.283-0.646c0-0.283-0.222-0.545-0.565-0.93
		c-0.202-0.222-0.808-0.565-0.808-0.848c0-0.041,0-0.142,0.121-0.121c0.485,0.282,0.727,0.141,1.252,0.444
		c0.061,0.02,0.687,0.666,1.455,0.97c0.545,0.201,0.768,0.909,0.768,1.212c0,0.444-0.222,0.646-0.525,0.97v0.424l0.04,0.061
		c0.728,0,1.455-0.061,2.182-0.061c0.202,0,0.323-0.505,0.565-0.868c0.404-0.606,0.606-1.051,0.606-1.98
		c0-0.08,0.061-0.363,0.061-0.444c0.061-0.202-0.263-0.626-0.485-0.97v-0.121c0.182,0,0.586-0.121,0.788-0.121
		c0.263,0,0.748-0.021,1.152,0.081c0.303,0.08,0.565,0.424,0.909,0.484c0.303,0.404,0.545,0.263,0.545,0.606
		c0,0.323-0.909,2-1.576,2.101c0,0.162-1.111,0.485-0.97,0.99l0.424,0.303h0.061c-0.061,0.021,0.728-0.182,1.152-0.182
		c0.444-0.101,0.727-0.747,1.03-0.747c0.243-0.162,0.485-0.485,0.788-0.485c0.141,0,0.323,0.121,0.384,0.242
		c0.667,0.404,1.01,0.606,1.212,1.415c0,0.182-0.444,0.545-0.687,0.545c-0.242,0-0.484-0.121-0.727-0.182
		c-0.424,0-0.748-0.121-0.97-0.121h-3.273c-0.263,0.081-0.626,0.04-0.869,0.121c0,0.121,0.02,0.061,0.081,0.121l0.162-0.061
		c0.202-0.021,0.202,0.101,0.202,0.242c0,0.485-0.323,0.849-0.323,1.334c0,0.222,0.566,0.484,0.626,0.424
		c-0.061,0.021,0.728-0.182,1.151-0.182c0.384,0,0.606-0.728,1.273-0.728c0.364,0,0.424,0.606,0.667,0.788
		c0.182,0.121,0.424,0.121,0.424,0.363c0,0.183-0.364,0.384-0.485,0.384h-0.061c-0.061,0-0.727-0.08-0.788-0.08
		c-0.141-0.021-0.424,0.08-0.606,0.08c-2.323,0-2.061,0.243-2.323,0.97l0.121,0.769c0,0.08,0.202,0.121,0.202,0.121
		c0.485,0,0.687-0.041,1.091-0.041c0.061,0,0.424,0.041,0.485,0.041c0.808-0.142,1.637,0.08,2.424-0.485
		c0.202,0,0.142-0.363,0.667-0.363c0.424-0.061,0.545,0.303,0.727,0.484c0.263,0.202,0.97,0.243,0.97,0.728
		c0,0.565-0.525,0.586-1.01,0.728c-0.445,0-0.869-0.162-1.232-0.242c-0.202-0.041-0.445,0-0.606-0.041
		c-0.707-0.303-2.141-0.242-2.606-0.242h-0.121c-0.061,0-0.909,0.04-1.475,0.04c-0.04,0-0.283,0.081-0.363,0.081
		c-0.465,0-2.303-0.101-2.303,0.283c0,0.242,0.444,0.363,0.444,0.605c0,0.323-0.606,0.505-0.606,0.93
		c0,0.384,0.404,0.303,0.727,0.363h2.667c0.061,0,0.303,0.061,0.364,0.061s0.182-0.121,0.242-0.121c0.728,0,1.616,0,2-0.242
		c0.061,0,0.243-0.242,0.303-0.242c0.646-0.283,0.424-0.485,1.151-0.425c0.243,0.061,0.788,0.728,0.788,1.03
		c0,0.465-1.333,0.425-1.697,0.425c-0.202,0-1.818-0.081-1.818,0.303v2.505c0,0.263,0.121,0.283,0.363,0.283
		c0.263,0,0.869-0.04,1.394-0.04c0.303,0,0.424-0.202,0.667-0.364c0.061-0.081,0.545-0.323,0.606-0.363
		c0.121-0.102,0.283-0.242,0.364-0.242c0.141,0,0.485,0.403,0.909,0.403c0.323,0.243,1.212,0.788,1.212,1.414
		c0,0.525-0.525,0.606-0.97,0.606c-0.283,0-0.545-0.121-0.849-0.121c-0.97-0.142-2.061-0.263-3.071-0.263
		c-0.263,0-0.505,0.021-0.748,0.021l-0.121-0.081c-0.061,0-0.121,0.04-0.182,0.081c-2.081,0-3.495,0.02-4.424,0.282
		c-0.364,0-0.768,0.243-1.091,0.243c-0.565,0.282-0.768,0.202-1.252,0.202c-0.242-0.202-0.364-0.728-0.485-0.971
		c-0.041-0.08-0.242-0.242-0.242-0.444c1.535-0.061,4.041-0.242,4.444-0.242c0.525,0,1.536,0.202,1.536-0.606
		c0-0.363-0.081-0.787-0.122-1.151c-0.081-0.626,0-0.989-0.808-1.091c-0.384-0.061-0.929,0.121-1.374,0.121
		c-0.485,0-0.606-0.182-0.929-0.484h-0.243c-0.02,0.04-0.849,0.747-0.849,0.909c-0.121,0.242-0.727,0.97-0.97,0.97
		c-0.748,0.525-1.232,1.495-2.02,1.939c-0.424,0.161-0.97,0.687-1.495,1.051c-0.081,0-0.263,0.121-0.323,0.161
		c-0.545,0.444-0.545,0.323-0.849,0.444c0.041,0.021-0.485,0.162-0.606,0.363c-0.041,0.021-0.182-0.02-0.182-0.121
		C91.485,141.476,91.788,141.152,92.111,141.012z M102.011,128.546c0.021,0,0.263,0.323,0.323,0.243
		c0-0.121-0.081-0.728-0.202-0.728c-0.222,0-0.081,0.242-0.121,0.242C102.011,128.303,102.011,128.546,102.011,128.546z"/>
	<path fill="#FFFFFF" d="M119.77,140.042c0-0.061,0.081-0.304,0.081-0.364v-1.212c0-0.121,0.121-1.03,0.121-1.151
		c0-0.627,0.041-1.151,0.041-1.758c0.02-0.121-0.041-0.484-0.041-0.728c0-0.363,0.041-0.728,0.041-1.091
		c0-0.444-0.122-1.131-0.122-1.656c-0.04-0.121-0.242-0.121-0.283-0.121c-0.061,0-0.384,0.121-0.97,0.121
		c-0.02,0.121-0.788-0.041-0.808,0.121c-0.121,0-0.384-0.081-0.424-0.081c-0.061,0-0.545,0.121-0.606,0.121h-1.151
		c-0.122,0-0.849,0.202-0.909,0.202c-0.525,0-0.97,0.202-1.273,0.202c-0.242,0.04-0.424,0.161-0.748,0.161
		c-0.242,0-0.242-0.04-0.485-0.161c-0.263-0.121-1.252-0.606-1.252-0.93c0-0.08,0.162-0.202,0.243-0.202
		c1.01,0,1.777-0.04,2.848-0.04c0.687,0,1.273-0.202,1.939-0.202c0.849-0.121,1.697-0.161,2.546-0.242
		c0.505,0,1.091,0.04,1.293-0.363c0-1.395-0.081-2.869-0.122-4.304c-0.101-0.061-0.141-0.142-0.323-0.121
		c-0.04,0-0.363,0.121-0.404,0.121c-0.485,0.121-0.97,0.121-1.475,0.242c0.021,0.041-0.585,0.243-0.848,0.243
		c-0.061,0.121-0.243,0.182-0.364,0.182c-0.667,0-0.849,0.303-1.697,0.303c-0.303,0.061-0.727,0.384-1.03,0.384
		c-0.121,0-0.363-0.323-0.363-0.444c0-0.505,0.727-0.363,1.091-0.424c0.505-0.243,1.091-0.323,1.636-0.485
		c0.303-0.101,0.667-0.303,0.97-0.363c0.243,0,0.404-0.061,0.545-0.182c0.424-0.041,1.212-0.667,1.455-0.667
		c0.344,0,0.909-0.444,1.415-0.667c0.646-0.384,1.434-0.424,1.737-0.788c0.384-0.242,0.242-0.727,0.626-0.727
		c0.546,0,1.273,0.849,1.576,1.212c0.121,0.121,0.545,0.667,0.667,0.788v0.484l-0.061,0.061c-0.243,0-0.243-0.605-0.424-0.605
		c-0.121,0-0.121,0.061-0.121,0.182c0,0.182,0.061,0.303,0.061,0.484c0,0.061-0.041,0.081-0.121,0.081
		c-0.061,0-0.142-0.021-0.182-0.021c-0.061,0-0.363,0.061-0.424,0.061c-0.061,0-0.363-0.061-0.424-0.061s-0.303,0.061-0.303,0.061
		c-0.626,0.081-2.121,0.102-2.121,0.425c0,0.424,1.576,0.728,1.576,1.091c0,0.424-0.364,0.546-0.444,0.869
		c-0.142,0.565-0.101,0.868-0.243,1.494c-0.02,1.152,0.121,1.172,0.606,1.172c0.344,0,0.364-0.08,0.566-0.08
		c0.141,0.08,0.303,0.08,0.364,0.08c0.121,0,1.212-0.121,1.333-0.121c0.606-0.08,1.03,0,1.576-0.202c0.101,0,0.505-0.303,1.212-1.01
		c0.525-0.04,0.525,0.565,0.869,0.768c0.041,0.081,0.364,0.364,0.485,0.485c0.222,0.222,0.525,0.04,0.525,0.808
		c0,0.465-0.162,0.849-0.728,0.849c-0.404,0-0.727-0.121-1.091-0.242c-0.929-0.263-1.697-0.364-2.727-0.566
		c-0.485-0.02-3.111,0.162-2.909,0.445c-0.021,2.666,0.242,3.758,0.242,5.414c0.061,0.04-0.121,0.404-0.121,0.728
		c0,0.505,0.041,1.333-0.243,1.575c0,0.788-0.303,0.97-0.485,1.455c-0.242,0.545-0.687,0.788-1.293,0.788
		c-0.162,0-0.162-0.243-0.162-0.364C119.729,141.456,119.77,140.891,119.77,140.042z"/>
	<path fill="#FFFFFF" d="M130.923,139.961c0.242,0,0.484,0.121,0.768,0.121c0.606,0,1.293-0.04,1.899-0.04
		c0.485,0,0.97,0.04,1.455,0.04c0.788,0,1.576-0.04,2.364-0.04c0.323-0.122,0.606-0.122,0.929-0.122
		c0.121,0,0.303,0.122,0.485,0.122c0.101-0.081,0.465-0.323,0.646-0.323c0-1.253-0.041-1.476-0.041-2.061
		c0-0.142,0.021-0.324,0.021-0.485c0-0.323-0.081-0.606-0.505-0.606c-1.171,0-1.919,0.223-2.626,0.223c0,0-2.061,0.182-2,0.263
		c-0.565,0.142-1.091-0.949-1.091-1.051c0-0.04,0-0.161,0.061-0.161h1.091c0.02,0.04,0.081,0.08,0.121,0.08
		c0.748,0-1.212-0.08,2.243-0.08c0.303-0.142,0.606,0,0.909-0.243c0.445,0,0.95,0.041,1.415,0.041c0.606,0,0.525-0.627,0.525-2.061
		c0-0.243,0.142-1.637-0.242-1.637c-0.626,0-1.313,0.061-1.939,0.121c-0.061,0-0.303,0.061-0.364,0.061
		c-0.242,0-0.545-0.121-0.545-0.424c0-0.061,0-0.183,0.121-0.243c0.364,0,1.131-0.121,1.838-0.121l0.041-0.061
		c0,0.041,0.586-0.121,0.728-0.121l0.323,0.061c0.101,0.041,0.162-0.101,0.162-0.182c0-0.182-0.041-0.363-0.122-0.546v-1.939h-1.576
		c-0.121,0.041-0.343,0.102-0.525,0.122c-0.343,0-0.565-0.061-0.565-0.364c0.081-0.323,0.465-0.343,0.828-0.343
		c0.566,0,0.748-0.142,1.111-0.142c0.202,0,0.687,0.04,0.687-0.323v-1.859c0-0.484-0.626-0.363-1.091-0.363
		c-0.081,0-0.242-0.081-0.323-0.081c-0.303-0.061-0.586,0.121-0.97,0.121h-0.909c-0.121,0-0.182,0.122-0.242,0.202
		c0,0.89,0.121,1.637,0.121,2.485c0,0.303-0.061,0.606-0.061,0.909c0,0.121,0.061,0.303,0.121,0.484v2.364
		c0,0.061-0.061,0.242-0.061,0.303c0,0,0.061,0.425,0.061,0.546c0,0.222-0.889,1.091-1.212,1.091
		c-0.485-0.243-0.788-0.525-0.788-1.091c0-0.384,0.061-0.525,0.061-0.788c0-0.061-0.061-0.788-0.061-0.849
		c-0.061-0.586,0.061-1.354,0.061-2.121c0-0.485-0.121-1.495-0.121-1.839c0-0.04,0.061-0.363,0.061-0.404
		c0.021-0.505-0.121-0.949-0.121-1.414c0.081-0.182-0.121-0.363-0.121-0.525c0.04-0.263-0.182-0.484-0.182-0.727
		c0-0.384,0.364-0.304,0.667-0.444c0.384-0.223,1.171,1.11,2.061,1.212c0.182-0.061,0.748-0.242,1.03-0.242
		c0.243,0,0.545,0.02,0.849,0.02c0.242,0,0.505-0.02,0.727-0.061c0.081,0.121,0.243,0.121,0.323,0.121
		c1.212,0,1.333-0.08,1.616-0.08c0.566-0.041,1.172-0.041,1.717-0.041c0.061,0,0.606-0.081,0.667-0.081
		c1.515,0,1.01-0.141,1.576-0.605c0.182-0.121,0.606-0.485,0.606-0.485h0.424c0.182,0.243,0.485,0.485,0.728,0.606
		c0.121-0.102,0.484,0.465,0.484,0.808c0,0.283-0.484,0.364-0.545,0.525c0,0.243-0.121,0.728-0.121,1.172
		c0,0.102,0.02,0.182,0.02,0.283s-0.02,0.182-0.081,0.242c0,0.485,0,1.172-0.061,1.718v3.03c0.02,0.303-0.505,0.646-0.606,0.97
		c0,0.424-0.122,0.565-0.243,0.565c-0.061,0-0.101-0.021-0.182-0.021c-0.404,0-0.505,0.505-0.909,0.505
		c-0.303,0-0.424-0.808-0.424-1.05c0-0.121,0.061-0.304,0.061-0.485c0-0.282-0.242-0.384-0.485-0.363
		c-0.384,0-2.303-0.081-2.303,0.424v0.99l-0.081,0.04l0.081,0.081c0.021,0.728-0.081,1.132-0.081,1.374
		c-0.041,0.121,0.061,0.525,0.121,0.808c0.869,0,0.343-0.121,1.838-0.121c0.101,0,0.182,0.021,0.243,0.021
		c0.121,0,0.404-0.182,0.545-0.263c0.222-0.364,0.404-0.404,0.606-0.606c0.061-0.08,0.243-0.444,0.364-0.444
		c0.626,0,1.272,0.606,1.272,0.849c0.202,0.323,0.364,0.586,0.364,0.809c0,0.161-0.061,0.605-0.303,0.605h-2
		c-0.848,0-1.414,0.162-2.323,0.162c-0.363,0.08-0.646,0.201-0.646,0.646v1.616c0,0.08-0.081,0.202-0.081,0.242
		c0.02,0-0.041,0,0.081,0.202c0,0.04-0.061,0.727,0.162,0.727c0.323,0,0.566-0.121,0.869-0.121c0.465,0,1.576-0.061,1.758-0.121
		c0.303-0.04,0.728,0.041,1.091,0.041c0.424-0.485,0.95-0.95,1.455-1.374c0.545-0.061,0.525,0.182,0.909,0.363
		c0.222,0,0.364,0.485,0.728,0.485c0.364,0.161,0.444,0.484,0.565,0.889c0.041,0.242-0.141,0.484-0.364,0.484
		c-1.596,0-2.889,0.122-4.02,0.122c-0.505,0.08-0.586-0.102-0.849-0.364c-0.626-0.04-0.505,0.323-0.788,0.323
		c-0.263,0-0.546-0.04-0.667,0.041c-0.222,0-0.303,0-0.485-0.041c-1.05,0.121-2.142,0.041-3.151,0.162c0,0-0.122-0.041-0.202-0.041
		l-0.121,0.041c-0.222,0.02-0.708-0.081-0.728-0.041c-0.121,0-1.151,0.122-1.273,0.122c-0.222,0-0.464-0.041-0.707-0.041
		c-0.343,0-0.707,0.202-0.929,0.202h-0.364c-0.606,0.323-1.151,0.586-1.757,0.586c-0.202,0-0.909-0.728-1.293-1.071
		c-0.122-0.121-0.525-0.262-0.525-0.444v-0.04C130.68,139.961,130.801,139.961,130.923,139.961z M141.246,127.698
		c0.222,0.04,0.303-0.122,0.606-0.122h0.606c0.02,0,1.939-0.101,1.939-0.444c0,0.081,0.121-1.858-0.243-1.858h-2.505
		c-0.283,0-0.606,0.021-0.606,0.525c0.081,0,0.122,1.172,0.122,1.777L141.246,127.698z M141.166,129.819
		c0,0.424,0,0.889,0.323,1.151c0.101-0.061,0.525-0.121,0.646-0.182c0.667,0,2.202,0.282,2.202-0.728v-1.03
		c0-0.223-0.02-0.444-0.121-0.728c-0.081-0.061-0.141-0.061-0.363-0.061c-0.061,0-0.728,0.121-0.788,0.121
		c-0.142,0.041-0.344-0.121-0.485-0.061c-0.061,0-0.728,0.061-0.808,0.061h-0.243c-0.384,0-0.363,0.606-0.363,1.03L141.166,129.819
		L141.166,129.819z"/>
	<path fill="#FFFFFF" d="M156.602,139.233c0,1.516-1.212,2.748-2.728,2.748c-1.495,0-2.728-1.232-2.728-2.748
		c0-1.495,1.232-2.728,2.728-2.728C155.389,136.506,156.602,137.719,156.602,139.233z M151.874,139.233c0,1.091,0.909,2,2,2
		c1.111,0,2-0.909,2-2c0-1.111-0.889-2-2-2S151.874,138.122,151.874,139.233z"/>
</g>
</svg>
