<?xml version="1.0" encoding="utf-8"?>
<!-- Generator: Adobe Illustrator 17.0.0, SVG Export Plug-In . SVG Version: 6.00 Build 0)  -->
<!DOCTYPE svg PUBLIC "-//W3C//DTD SVG 1.1//EN" "http://www.w3.org/Graphics/SVG/1.1/DTD/svg11.dtd">
<svg version="1.1" id="图层_1" xmlns="http://www.w3.org/2000/svg" xmlns:xlink="http://www.w3.org/1999/xlink" x="0px" y="0px"
	 width="480px" height="150px" viewBox="0 0 480 150" enable-background="new 0 0 480 150" xml:space="preserve">
<rect x="-16" y="-9" fill="#F7F7E7" width="512" height="174"/>
<g>
	<path d="M10.063,93.775c0.264,0,0.747,0.175,1.361,0.175c0.703,0,1.054-0.263,1.229-0.526l0.088-1.229v-6.061
		c0.176-0.659,0.176-1.186,0.176-1.713c0-0.834,0.176-2.547-0.703-2.547c-2.503,2.151-1.493,1.317-5.006,4.787
		c-0.966,0.614-1.186,1.317-1.976,1.976c-0.791,0.132-1.186-1.801-1.449-2.239c-0.132-0.132-0.791-1.054-0.922-1.186
		c-0.263-1.187,1.361-0.923,1.845-1.581c0.132,0,0.791-0.659,0.922-0.659c1.493-0.922,2.898-1.888,4.392-2.679
		c0.791-0.396,2.723-1.801,2.723-1.845c0.439-0.614,0.264-1.142,0.439-1.844c0-0.088,0.263-0.527,0.263-0.615
		c0-1.186,0.044-2.854-0.263-4.391c-0.088-0.527,0.263-0.878,0.263-1.317c-0.439,0-0.791,0.527-1.229,0.527
		c0.132,0-2.898,0.132-2.898,1.054c-0.878,0-1.581,0-2.371,0.132c-0.264,0.088-0.439,0.264-1.318,0.264
		c-0.527,0.395-0.922-1.801-1.449-2.635c-0.043-0.527,0.352-0.527,0.659-0.527c0.395,0,0.79,0.132,1.229,0.132
		c0.615,0,1.142-0.395,1.932-0.395c0.264,0,0.439,0.131,0.791,0.131c0.439,0,0.439-0.263,0.791-0.395c1.229,0,3.952,0,3.952-0.791
		c0-0.966,0.176-2.24,0.176-3.425c0-4.04-0.176-3.162-0.176-5.006c-0.088-0.791-1.405-1.186-1.405-1.756
		c0-0.352,1.317-0.791,1.669-0.791c0.527,0,0.966,0.703,1.493,0.966c0.615,0.264,1.054,0.088,1.756,0.615
		c0.088,0.175,0.878,0.966,1.054,1.054c0.131,1.142-1.23,2.328-1.581,3.864c0.044,2.196-0.439,1.977-0.439,3.777
		c0,0.308,0.044,0.703,0.439,0.703c0.527,0,1.098-0.615,1.581-1.054c0.527-0.264,1.405,1.932,1.317,2.767
		c-0.615,0.219-2.723,0.044-3.337,0.791c0,1.625-0.439,3.645-0.439,4.479c-0.044,0.439-0.044,1.054,0.527,1.054
		c0.439,0,0.615-0.264,0.966-0.352c1.273,0,0.791-1.054,2.02-1.054c0.088,0,0.352,0,0.352,0.263c0,0.352-0.527,0.527-0.791,0.615
		c-0.747,1.01-1.757,1.844-2.547,2.81c-0.439,0.483-0.527,1.845-0.527,2.636c0,0.878-0.088,1.801-0.263,2.635v7.686
		c-0.264,0.966-0.264,2.897-0.264,4.479c0,0.835-0.659,3.426-2.635,3.426c-0.791-0.352-1.054-1.757-1.405-2.547
		c-0.264-0.527-1.757-1.845-1.757-2.196C9.317,93.863,9.712,93.775,10.063,93.775z M35.49,95.093
		c-0.176-0.396,0.395-2.636-0.659-2.636c-1.098,0-2.196-0.087-3.293,0.176c-0.396,0-1.054,0.264-1.186,0.264l-0.395-0.176
		l-0.264,0.176c-4.128,0-3.601,0.967-3.864,2.371c0,1.889-0.966,1.011-1.669,2.108c-0.747,0.088-1.054-0.746-1.229-1.229
		c0-3.558,0.176-4.26,0.176-5.357c0.044-0.527-0.176-1.317-0.176-2.152c0-0.702,0.263-1.361,0.263-2.107
		c0-0.22-0.483-0.527-0.263-0.791c0,0.088,0.176-1.581,0.176-2.503c-0.22-0.614-0.264-1.625-0.264-2.767
		c0-1.757,0.088-3.074,0.088-4.743c0.176-0.264,0.176-0.439,0.176-0.527c0-0.396-0.176-0.659-0.176-0.966
		c0-1.537-0.264-2.591-0.264-3.821c0.703,0,1.054,0.791,1.845,0.791c1.054-0.395,1.054-1.186,1.493-2.108
		c0-0.527,0.571-1.01,0.527-1.844c0.834-0.396,0.703-1.757,1.186-2.635c0-1.23,0.659-1.801,0.659-2.811
		c0-0.527-0.176-1.845,0.264-1.845c0.044-0.219,0.615,0.571,0.922,0.791c0,0.615,1.889,2.284,3.294,2.811
		c0.351,0.615-1.273,1.405-2.108,2.898c0.263,0.088-3.294,3.074-3.294,4.479c0,0.395,0.659,0.395,0.922,0.395
		c2.196,0,4.084-0.527,6.192-0.527c0.264,0,0.922-0.264,1.054-0.264c0.659-0.263,1.581-2.635,1.712-2.635
		c0.176,0,0.264,0.044,0.396,0.132l2.02,1.976c0,0,0.351,0.659,0.527,0.922c0,0.527-0.263,1.054-0.263,1.581
		c0,0.527,0.351,0.659,0.351,1.054c0,0.395-0.264,0.659-0.351,0.922c-0.527,1.449-0.703,1.625-0.703,3.162
		c0,0.176,0.176,1.229,0.176,1.317v2.283c0.088,0.088,0.264,0.615,0.264,0.791v6.982c0,0.396,0.264,0.79,0.264,1.186
		c0,0.22-0.176,0.878-0.176,1.186c-0.088,1.581,0,3.864-1.142,5.183c-0.307,0.044-1.493,1.58-2.283,1.58
		c-0.659,0-0.922-0.526-1.054-0.966C35.358,96.937,35.49,95.355,35.49,95.093z M26.092,91.14c0,0,0.834,0.176,1.098,0.176
		c2.503,0.088,3.337-0.176,3.688-0.176c2.328,0,3.206-0.263,4.479-0.263c0.176,0,0.264,0.088,0.439,0.088
		c0.131,0,0.615-0.659,0.615-1.143c0-2.107-0.22-4.084-0.22-6.191c0-0.264,0.088-0.527,0.088-0.791
		c-0.176-0.307-0.352-1.449-0.659-1.229c-0.132,0-0.922,0.176-1.054,0.176c-1.405,0-2.591-0.132-3.557,0.527h-2.898
		c-0.175,0.132-0.219,0.22-0.351,0.22c-0.044,0-0.088-0.088-0.176-0.088c-0.659,0-1.756,0.088-1.756,0.658v4.875
		c0,0.351-0.088,0.746-0.264,0.79l0.176,0.132l0.263,2.152L26.092,91.14z M26.795,81.084c0.264,0,0.527-0.088,0.922-0.088
		c0.132,0,0.395,0.088,0.659,0.088c0.352-0.264,1.186-0.352,1.844-0.352c0.922-0.176,2.108,0.264,2.24-0.966
		c0-0.835,0-0.791,0.527-1.318c0.439,0,1.493,2.021,2.635,2.636c0.132,0.131,0.527-0.352,0.527-0.352c0-2.152,0-4.348-0.264-6.5
		c0-0.747-0.044-1.713-1.098-1.713c-1.757,0-2.679,0.264-3.909,0.264c-0.615,0.395-4.787-0.351-5.05,1.713
		c0.044,0.439-0.088,1.361-0.088,2.283c-0.132,0.264,0.088,1.889,0.088,3.953C26.092,81.084,26.356,81.084,26.795,81.084z"/>
	<path d="M66.359,93.688c0.264-0.088,0.922-0.088,1.054-0.527c0-0.439,1.8-3.426,1.712-5.533c0-0.088,0.527-1.757,0.791-2.371
		c0-0.439-0.176-2.592,0.659-3.162c-0.044-0.264-0.044-0.527-0.044-0.791c0-1.536,0.308-3.118,0.308-4.654v-0.527l0.132-0.263
		v-1.713c0-0.527,0.395-1.054,0.395-1.756c0-1.318-0.395-1.581-1.581-1.581c-0.878,0-0.878,0.176-1.449,0.176
		c-1.712,0.087-3.996,0.263-5.708,0.79l-0.264-0.175c-0.747-0.22-1.273,1.186-1.581,1.581c-0.483,0.922-1.317,2.152-1.932,2.811
		c-0.966,1.581-2.372,3.294-3.689,4.479v1.977c0,0.526-0.263,0.702-0.263,1.317c0,0.966,0.087,2.02,0.087,3.073
		c0,0.264-0.087,0.527-0.087,0.791c0,0.352,0.087,0.79,0.263,1.054v2.372c0,0.351-0.527,0.614-0.263,1.229
		c0.043-0.176-1.625,2.371-3.074,2.371c-0.527,0-1.054-0.527-1.054-0.966c0-0.352,0.132-0.615,0.132-0.879
		c0-1.317-0.132-2.283-1.581-2.283c-0.659,0-1.186,0.176-1.844,0.264c-1.317,0.264-2.898,0-4.216,0.438
		c-0.351,0.264-0.395,0.615-0.395,0.967v0.526c0,1.669-0.922,2.811-2.24,2.811c-0.615,0-1.186-1.581-1.054-2.107
		c0-0.088,0.264-1.142,0.264-1.317v-1.142c0-0.264,0.264-2.46,0.264-2.723c0-1.581-0.176-6.236-0.176-7.246
		c0-0.527,0-0.791,0.176-1.449c-0.176-0.659-0.439-3.689-0.439-4.348c0-1.625,0.264-4.216-0.615-5.709
		c0-0.088-0.527-0.527-0.527-0.615v-0.264c0-0.044,0.439-1.01,1.669-1.317l0.439,0.351c2.415,0,3.601-2.942,5.006-4.611
		c0.966-0.176,1.186-2.196,1.186-2.372c0-0.966-0.791-1.449-0.791-1.844l0.264-0.264c0.791,0,2.24-0.527,2.24-0.527
		c1.054,0,1.844,0.176,1.844,0.922c0.439,0.483,2.459,1.8,2.152,1.844c0,0.527-1.098,0.791-1.229,1.317l-1.186,0.659
		c-1.405,1.317-2.503,2.679-4.084,3.733c-1.449,0.922-2.108,2.108-3.425,2.108c0,0.351-0.044,1.054,0.132,1.142h2.24
		c0.131-0.088,0.263-0.088,0.395-0.088s0.264,0,0.396,0.088c0.79-0.791,2.854-0.571,3.82-0.878c0.878-0.308,2.02-2.635,3.293-2.635
		l2.284,1.669c0.088,0.439,0.615,0.703,0.615,1.054c0,1.318-1.054,2.284-1.054,3.601c0,0.878-0.044,1.801,0.263,2.635
		c0.044,1.142-0.263,2.239-0.263,3.557c0.219,0.132,0.439-0.088,0.703-0.264c0.659-0.044,0.791-1.054,1.142-1.186
		c0.044-0.922,0.703-1.493,1.054-2.371c0.263-0.527,0.439-1.054,0.703-1.581c-0.176-0.176,0.527-0.571,0.527-0.966
		c0.878-1.537,1.625-3.294,1.932-5.27c0.396-1.669,1.493-3.469,1.493-5.401c0-0.747-0.527-2.24-1.054-2.24
		c0-0.527,0.483-0.659,1.054-0.659c0.088-0.132,0.308-0.396,0.352-0.264c0.175,0,0.966-0.527,1.098-0.527
		c1.844-0.132,3.118,0.966,4.084,2.372c0,0,0.132,0.263,0.132,0.395c0,1.054-1.449,0.659-1.449,1.713l0.132,0.263
		c0,1.669-2.503,3.777-2.503,4.787c0,0.352-0.922,0.659-0.922,1.405c0,0.527,0.395,1.23,0.922,1.23
		c1.537-0.22,4.962-0.396,5.402-0.703c0.922,0.395,1.537-0.791,1.976-1.405c0.132-0.176,1.054-1.054,1.186-1.23
		c1.23-0.219,1.405,1.054,2.108,1.581c1.054,0.791,1.845,0.834,1.845,1.845c0,0.79-1.054,1.317-1.581,1.844
		c0,0.922-0.352,1.8-0.352,2.284c-0.219,0.615-0.263,1.186-0.263,1.8v1.757c0,0.263-0.439,1.845-0.439,2.107
		c0,0.264-0.087,1.845-0.087,2.108s-0.571,2.371-0.571,2.635v0.176c0,0.088-0.527,1.405-0.527,1.581
		c-0.264,0.79-0.176,1.405-0.264,2.195c-0.131,0.791-0.439,1.493-0.659,2.284c-0.527,1.888-0.659,4.742-3.952,4.742
		c-0.264,0.835-0.834,0.879-1.449,1.317c-0.571,0.352-0.747,0.703-1.449,0.703c-1.142,0-1.361-2.548-2.108-2.548
		c-0.307-0.263-0.922-0.087-0.922-0.79C63.461,94.478,64.91,94.39,66.359,93.688z M42.602,76.253c0,1.449,0,3.294,1.054,3.294
		c1.186,0,2.152-0.132,3.293-0.396c1.361-0.264,1.844-1.581,1.976-1.581c0.571,0,1.054,1.273,1.976,1.273
		c0.132,0,0.264-0.088,0.264-0.22c0-1.317-0.132-2.283-0.132-2.766c-0.22-1.977,0.132-5.577-1.317-5.577
		c-0.527,0-1.317,0.263-1.844,0.263c-1.713,0.176-5.534,0.044-5.534,2.108C42.47,73.881,42.602,75.594,42.602,76.253z M43.26,89.56
		c0.659,0,1.317-0.088,1.844-0.264l3.953-0.264c0.263-0.088,0.659-0.264,0.922-0.264c1.317-0.264,1.054-0.878,1.186-2.107
		c0-0.088,0.132-0.791,0.132-0.879c0-1.493,0.132-1.844,0.132-3.688c0-0.703-0.088-1.537-0.527-1.625
		c-0.263,0-1.01-0.132-0.922-0.264c-0.615,0.659-7.598,0.747-7.598,1.449c0,0.703,0.22,0.967,0.22,1.493
		c0,1.054,0.132,1.889,0.132,2.898c0,0.615,0.088,2.152-0.396,3.162C42.47,89.56,42.997,89.56,43.26,89.56z M62.275,78.36
		c2.459,2.46,4.172,2.724,4.611,4.523c-0.264,0.264-0.396,0.352-0.659,0.791c-0.439,0.264-1.976,1.757-1.976,1.317
		c-0.175,0-1.098-0.835-1.098-1.229c-0.132,0-0.571-2.196-1.054-3.03c-0.132-0.835-1.186-1.757-1.142-2.108
		C60.958,78.229,61.792,78.36,62.275,78.36z M72.024,82.357v-1.229c-0.263,0-0.263,0.131-0.263,0.395
		C71.761,81.654,71.761,82.357,72.024,82.357z"/>
	<path d="M77.951,94.478c-1.054,0.352-2.372,2.371-3.425,2.371c-0.527,0-0.483-0.307-0.527-0.526
		c-0.527-0.527-1.757-1.537-1.757-1.757c0.966-1.317,2.284-1.317,3.601-2.108c0.264,0.132,0.615-0.79,1.054-0.79
		c0.308-0.132,0.922,0,1.449-0.527c1.757-0.658,2.503-1.186,2.503-2.723c-0.439-1.01,0.22-2.767-0.791-3.469
		c-0.922-0.132-1.8,0.264-2.547,0.264c-0.264,0-0.659-0.132-1.054-0.132c-0.088,0.176-0.747,0.132-1.142,0.132
		c-0.044-0.132-0.966-0.703-0.966-1.581c-0.132-0.352,1.186-0.264,2.02-0.264c1.273-0.527,4.041,0.176,4.479-1.581
		c0-0.088,1.01-1.845,1.317-1.845c0.264,0,2.372,0.923,2.372,1.055c0.131,1.229-1.054,1.493-1.054,2.371
		c0,1.493,0.132,3.074,0.132,4.348c0,0.527,0.659,1.537,0.659,2.371c0.395,1.581,1.317,2.284,2.898,2.898
		c0.132,0,0.659,0.264,0.791,0.264c0.527,0.132,0.307,0.702,3.82,0.702c0.439,0.088,1.713,0.396,1.845,0.352
		c0.878,0,1.229,0.176,1.844,0.176c0.132-0.22,1.186-0.176,1.844-0.176c0.703,0,1.23-0.352,1.933-0.352
		c0.351,0,0.527,0.088,0.791,0.088c0.79,0,1.405-0.351,2.108-0.351h2.986c0.264-0.176,0.483-0.176,0.703-0.176h0.615
		c1.098,0,2.328-0.352,3.601-0.352c0.044,0.132,2.284-0.22,3.821-0.527l0.395-0.176c0.088,0.044,0.527-0.131,0.527,0.264
		c0,0.264-1.581,1.229-1.977,1.581c-0.263,0.176-1.712,1.845-1.976,2.021c-0.351,0.308-2.064,0.922-2.284,0.878h-4.743
		c-0.527,0.176-0.791,0.176-1.317,0.176s-1.405-0.264-2.108-0.264h-2.02c-0.088,0-1.142-0.176-1.317-0.176h-3.25
		c-1.098,0-4.172-0.351-4.128-0.351c-0.834,0-1.932,0.044-3.82-1.493c-0.439-0.659-1.01-0.615-1.449-1.055
		c-1.054-0.746-1.229-2.635-2.635-2.635C81.464,91.271,79.664,93.38,77.951,94.478z M79.005,60.092
		c1.01,0.439,1.405,0.659,1.976,1.229c0.088,0,0.175-0.044,0.219-0.044c0.264,0,2.547,1.537,2.679,1.361
		c0.263,0.264,0.395,1.054,0.395,1.405c0,1.01,0.044,1.581-1.581,2.635c-2.283,0.132-2.415-2.547-3.425-3.777
		c-0.395-0.527-0.659-0.703-1.054-1.054c-0.396-0.439-0.703-1.054-1.23-1.493c-0.615-0.527-1.668-1.054-1.668-1.845
		C76.37,58.511,78.083,59.741,79.005,60.092z M75.931,69.49c1.01,0,2.328,1.054,3.074,1.054c0.263,0,1.581,0.483,2.503,1.054
		c1.756,1.054,2.24,0.307,2.24,1.581c0,1.669-1.054,3.513-3.03,3.338c-0.659-0.703-1.054-1.405-1.449-1.845
		c-0.044-1.186-1.493-2.547-2.284-3.425c-0.263-0.439-1.317-0.966-1.317-1.317C75.667,69.666,75.667,69.49,75.931,69.49z
		 M90.466,73.354c0-0.527,1.01-0.703,1.581-0.703c3.293,0,4.436-0.263,6.938-0.263c0.264,0,1.581-0.264,1.844-0.264
		c0.966-0.878,1.669-2.108,1.581-3.425l-0.176-0.088c-1.888,0-4.435-0.088-6.587,0.351c0,0.264-1.229,0.176-1.757,0.176
		c-1.229,0-2.196,0.878-7.114,0.878c-0.922,0-0.79-0.527-1.054-1.142c0-0.176-0.396-0.703-0.396-0.878V67.47
		c0.791-0.088,1.318-0.088,2.108-0.088c0.922,0,1.625,0.088,2.415,0.088c3.206,0,6.28-0.352,9.398-0.352h1.405
		c0.219-0.176,0.351-0.176,0.527-0.176h0.439c0.352,0,2.196-0.088,2.635-0.088c0.878,0,1.054-1.317,1.405-2.02
		c0.175-0.088,0.439-0.615,0.527-0.791c0.834-0.175,1.581,0.922,2.371,1.581c0.703,0.615,2.284,1.186,2.416,2.108
		c0,0.703-1.142,0.703-1.713,0.703c-1.932,0-4.347-0.263-4.743,0.703c-0.132,1.845,2.108,1.845,2.108,3.162
		c0,1.054-1.317,1.054-2.108,1.142c-0.966,0-4.392,0.264-4.655,0.264c-0.791,0-6.587,0.527-7.378,0.527h-0.175
		c0,0.044-1.23-0.088-1.405-0.088C90.642,73.969,90.466,73.706,90.466,73.354z M88.885,62.2c3.338-0.132,6.983-0.264,10.452-0.791
		c0.966,0,1.142-1.932,2.547-1.932c0.088,0,2.635,1.361,2.635,1.669c0.044,0.615-0.219,1.317-0.791,1.493
		c-2.196,0.439-4.831,0.352-6.675,0.352c-2.24,0.483-5.182-0.088-7.114,0.703c-0.352,0-1.054-0.966-1.054-1.317V62.2z
		 M89.852,86.529c-0.264-0.527-0.439-1.449-0.439-2.108c0-0.132,0.175-1.054,0.175-1.186c0-1.054-0.307-1.713,0.791-1.713
		c0.088,0,0.527,0.659,0.615,0.659c0.396,0.176,2.591,0.922,2.811,0.922c2.416,0.044,5.05-0.22,7.554-0.526
		c1.361-0.396,1.361-2.504,2.635-2.504c1.625,0,4.304,1.845,4.04,2.898c-1.405,1.449-1.054,2.503-1.142,4.348
		c0,0.264-0.264,1.361-0.264,1.625c-0.176,0.527-0.703,0.527-1.054,0.79c-0.439,0.264-0.791,1.143-1.23,1.143
		c-0.087,0-0.263,0-0.351-0.088c-1.01-1.011-1.537-0.967-2.284-0.967c-2.064,0-3.118,0.264-3.689,0.264
		c-0.834,0-1.668-0.088-2.547-0.088c-3.82,0-2.547,1.845-4.04,2.723c-0.483,0-0.439,0.044-0.527-0.088
		c-0.791-0.79-0.834-1.054-0.966-1.317C89.852,89.734,89.852,88.154,89.852,86.529z M90.993,77.834l6.851-0.439
		c0.263,0,1.668-0.264,3.074-0.264c0.22,0,0.483,0.044,0.747,0.044c0.308,0,0.659-0.044,1.01-0.308
		c0.527-0.351,1.054-2.107,1.668-2.107c0.264,0,1.493,1.054,1.757,1.229c0.527,0.352,1.493,0.439,1.405,1.405
		c0,1.142-3.162,0.615-4.216,1.098h-1.581c-0.263,0.264-0.351,0.264-0.615,0.264c-0.527,0-1.01-0.22-1.493-0.132
		c-1.273,0.308-2.591,0.264-4.216,0.264c-0.263,0-0.439,0.132-0.703,0.264h-3.425l-0.615-0.659V78.36
		C90.642,78.097,90.73,77.834,90.993,77.834z M93.628,89.472h0.175c2.854-0.483,5.577-0.483,8.344-1.055
		c0.439-0.526,0.351-1.361,0.351-2.02c0-0.791,0-1.317-0.088-2.108c-0.263-0.395-1.054-0.395-1.493-0.395
		c-0.615,0-1.142,0.131-1.668,0.131c0.088,0.044-1.757-0.131-2.02-0.131c-5.05,0.351-4.216-0.132-4.216,5.138
		C93.014,89.472,93.541,89.472,93.628,89.472z"/>
	<path d="M113.958,82.445c1.581-1.493,3.293-2.679,4.743-4.261c1.054-1.142,2.108-2.371,3.03-3.688
		c0.132-0.044,0.527-0.615,0.527-0.659c0.308-0.922,1.054-1.274,1.449-1.977c0-0.747,2.679-4.084,2.679-4.787v-0.088
		c0.352-0.791,1.054-1.756,1.317-2.547c0-0.571,0.571-1.405,0.527-1.405c0,0-0.176-1.317-0.176-1.757
		c-0.088,0-0.352-0.351-0.352-0.527c-0.131-1.054,1.098-1.142,1.845-1.317c0.351,0,1.186,0.483,1.668,1.229
		c0.659,1.054,2.767,1.933,2.547,3.689c0.132,0.176-1.01,0.527-1.493,1.054c-1.669,1.844-2.986,3.732-4.479,5.665
		c-0.132,0.264-1.01,1.274-1.054,1.449l-4.348,4.347c-0.395,0.264-1.054,0.703-1.186,1.229l-2.635,2.108
		c-1.668,1.054-2.371,2.767-4.479,3.162c-0.132,0-0.659,0.658-0.834,0.658c-0.088,0.132-0.527,0.396-0.527,0.396
		c-0.352-0.176-1.757,0.791-1.845,0.659l-0.088-0.132C111.63,83.895,112.992,82.928,113.958,82.445z M137.189,92.194
		c0.132,0.088-1.098,0.438-1.844,0.438c-0.264,0-1.845,0.615-2.108,0.615h-1.318c-3.03,0.878-5.577,1.273-8.476,1.845
		c-0.79,0.526-1.229,0.526-2.107,0.702c-0.659,0-1.23,0.352-1.845,0.264l-0.791-0.791c-0.132-0.702-0.132-1.492-0.395-2.107
		c0-0.615-0.791-1.098-0.791-1.757c0-0.044-0.044-0.526,0.132-0.526h3.557c1.098,0,2.679-2.284,3.162-3.162
		c0-0.132,0.703-0.527,0.703-0.659c0.659-1.186,1.625-2.283,2.372-3.293c0.878-1.186,1.668-2.504,2.635-3.733
		c0.352-0.526,1.932-2.635,2.372-2.986c0,0,0.263-0.22,0.263-0.395v-0.044c0.088-0.264,0.527-1.142,0.615-1.318
		c0-0.087,0.527-0.615,0.527-0.79c0.175-0.396,0.395-0.659,0.703-0.922c-0.044,0.176,0.659-2.108,1.054-2.503
		c0.527-1.054,1.449-2.108,1.449-3.293s-0.527-0.966-0.527-1.756c0-0.527,0.922-0.527,1.186-0.615c0.132,0,0.922-0.527,1.054-0.527
		c1.537-0.088,1.537,0.922,2.108,1.405c1.054,0.878,3.162,3.118,3.162,4.392c0,1.186-2.635,1.844-3.689,2.503
		c0.088,0.132-0.79,0.527-0.79,1.054c0,0.307-0.703,0.571-0.791,0.703c0.044,0.22-1.054,1.361-1.054,1.405l-0.263,0.176
		c-0.132,0-2.108,1.932-2.811,2.723c-0.088,0.176-1.405,1.845-1.581,2.02c-1.932,1.933-2.898,3.294-4.743,5.139
		c0,0-1.098,1.537-2.459,2.898c0,0.176-0.264,0.702-0.264,0.79c-0.175,0.396,0.483,0.527,0.615,0.527
		c6.631,0,8.124-0.088,9.661-0.088c0.571,0,1.142,0.044,1.712,0.044c0.659,0,2.372,0,2.372-0.483c0-1.713-2.898-3.776-3.689-4.348
		c-0.395-0.264-0.791-0.658-1.317-0.922c-0.527,0-1.625-0.703-1.625-0.922c0-0.132,0-0.264,0.176-0.264
		c0.264,0,1.449,0.264,1.713,0.264c2.591,1.142,3.03,0.834,7.509,2.767c1.273-0.044,2.196,1.186,3.206,1.186
		c0.615,0.482,2.723,1.669,2.372,2.942c0,0.088,0.088,0.79,0.088,0.878v0.176c0,0.22-0.088,0.878-0.088,0.878l-1.054,2.108
		c-0.878,0.922-2.064,1.581-3.338,1.493c-1.712-1.142-1.581-1.669-1.844-2.547c-0.352-1.055-0.878-2.196-2.108-2.196
		C139.121,91.931,138.067,91.931,137.189,92.194z"/>
	<path d="M155.342,74.764v-2.85c0-1.7,0-3.35,0.3-5.1v-6.801c0-0.45-0.55-0.85-0.45-1.35c0-0.7-1.05-1.2-1.05-1.95
		c1.55-1.3,1.95-2.25,3-2.25c0.45,0,0.7,0.6,1.05,0.6c0.35,0.3,2.25,0.75,2.25,1.8c0,1.1-1.1,1.7-1.5,2.7c-0.45,0.9-0.5,2.2-0.5,3.3
		c0,0.65,0.05,1.3,0.05,1.85c-0.15,4.201-0.3,8.551-0.6,12.75c-0.45,1.65-0.3,3.301-0.6,5.001c0,0.1-0.3,0.6-0.3,0.7
		c-0.25,0.8-0.25,1.7-0.6,2.399c-1.35,2.851-2.8,6.601-4.951,8.801l-2.4,2.4l-0.3,0.1c-0.2,0-2.7,2.051-3.8,2.601h-0.3
		c0-0.7,1.4-1.7,1.8-2.3c0.8-1.101,1.1,0.05,3.9-4.001c1.2-1.45,0.7-2.2,1.85-3.2c0.15-1.2,0.95-2.1,1.2-3.2
		c0-1.25,0.65-3.5,1.35-4.8C154.742,79.564,155.342,77.164,155.342,74.764z M150.342,73.864c0-0.15,0.65-1.95,0.65-2.1
		c0.85-1.65,0.5-4.851,1.35-6.05h0.15c0.05-0.05,0.75,2.05,0.75,3.6c-0.25,1.25,0.45,1.95,0.45,2.9c0,1.65-0.45,6.75-3,6.75
		c-0.45,0-1.85-0.149-1.85-0.75C148.842,76.714,150.342,75.314,150.342,73.864z M159.993,72.364c0-0.15,0.6-1.35,0.6-1.5
		c0.45-1.05,1.05-2.15,1.5-3.35c0.15-0.4,0.15-2.2,0.9-2.2c0.6,0,1.4,2.2,1.4,2.8c0,0.75-0.6,0.85-0.6,1.2c-0.3,0.3-2,3.2-2.3,3.5
		c-0.6,0.6-1.3,1.8-1.65,1.95c-0.75,0.1-0.75-0.05-0.75-0.6C159.093,73.564,159.542,72.814,159.993,72.364z M160.292,88.465
		c0-0.5-0.15-2.7-0.15-3.2c-0.15-1.6-0.75-3.3-0.75-5.101l0.45,0.15c1.2,1.45,2.3,2.95,3.15,4.65c0.65,0.7,0.5,1.7,0.5,2.9
		c-0.35,0.2-0.45,1.8-1.55,1.6l-1.5-0.7L160.292,88.465z M165.893,89.665v-4.5c0-0.2,0.1-0.5,0.1-0.601c0-3.1-0.1-5.75-0.1-9.05
		c0-1.05-0.5-4.15-0.5-4.35v-8.851c0.2-0.9,0.2-1.5,0.2-2.3c0-0.15,0-0.35-0.2-0.45c0-0.6-0.4-3-0.6-3.601c0-0.15-0.6-1.65-0.6-1.8
		c-0.1-1,0.5-1.2,1.2-1.2c1.65,0,2.65,1.95,4.2,1.95c0.8,0,1.2-0.45,2-0.6c1.15,0,2.35-0.75,3.75-0.75c0.6,0,0.75,0.3,0.75,0.9
		c0,0.75-0.3,1.65-0.45,2.4c0,8.15-0.3,8.45,1.7,8.45c0.9,0,1.6,0.1,1.6-0.6c-0.3-3.3-0.15-6.55-0.3-9.8c0-0.15-0.15-0.75-0.15-0.9
		c0-0.4-0.2-1.5,0.75-1.5c0.75,0.2,1.7,1.55,2.7,2.25c1.1,0,1.4-0.15,1.95-0.15c1.05-0.15,1.95,0,3.05-0.3c1.45,0,1.2-2.55,2.5-2.55
		c0.5,0,0.9,0.75,1.4,1.05c0.7,0.6,1.8,0.9,1.8,2.1s-1.8,1.2-2.3,1.95c0,3.2,0.15,6,0.3,8.851c0.2,3.2,0.2,6.35,0.3,9.5
		c0,0.15,0.2,1.049,0.2,1.2c0.1,1.5,0.1,2.851,0.1,4.351c0.2,2.4,0.5,4.7,0.5,7.101c0,1.8-0.2,3.6-0.8,5.4c-0.2,0.8-1.4,3.2-2.2,3.2
		c-1.1,0-1.15-1.75-1.1-2.4c0.7-2.7,0.6-5.101,0.6-8.501c0-0.3-0.1-3.649-0.1-4.3l0.1-0.5c-0.1-1.2-0.1-2.25-0.3-3.601
		c0-0.75-0.3-1.55-0.3-2.1c0-2.25,0.15-8.901-0.6-9.651h-4.351c-0.15,0-0.6,0.2-0.75,0.2c-1.55,0-3.95,0.4-3.9,1
		c0.15,0.3,0.6,0.9,0.6,1.4c0,0.4-0.6,0.9-0.6,1.5c0,0.85,1.5,0.95,2.2,0.95c0.4,0,0.75-0.05,1.25-0.05c0.15,0,0.6,0.1,0.75,0.1
		c2,0.3,1.6-1.9,2.55-1.9c0.75,0,1.65,0.9,1.8,1.5c0,0.4-0.75,0.75-1.05,0.75h-2.4c-0.3,0.3-0.9,0.3-1.2,0.3
		c-1.8,0-3.75-0.1-3.9,1.65c-0.1,1.9,0.85,1.8,2.4,1.8c1.7,0,2.9-0.05,3.45-1.35c0.9-0.1,1.8,0.5,1.8,1.5
		c-0.35,1.5-0.5,3.1-0.5,4.65c0,1.051,0.05,2.101,0.05,3.051c0,0.5-0.7,1.6-1.05,1.6c-0.6,0-0.3-1.2-0.6-1.6l-0.45-0.5
		c-0.05-0.15,0.45-0.65,0.45-1c0-0.2,0.55-5.601-0.9-5.601c-0.3,0-0.45,0.15-0.9,0.15c-0.75,0-1.35-0.3-2.1-0.3
		c-1.4,0-1.05,1.299-1.05,2.45c0,0.95,0.1,2.15,0.75,2.65c0.75-0.6,0.9-3.15,1.65-3.15l0.45,0.45c0.3,1.5-1.35,2.25-1.35,3.65
		c0,0.3,0.3,0.6,0.6,0.6c0.3,0,0.6-0.199,0.9-0.199c0.3,0,0.3,0,0.45,0.3c-0.2,0.2-0.3,0.25-0.45,0.25c-0.05,0-0.15-0.05-0.3-0.05
		c-1.05,0.1-2.4,0-2.4,1.3c0,3.15,0.45,6.101,0.45,9.101c0,0.45-0.3,1.3-0.3,2.1c0.35,0-0.65,1.301-1.35,1.301
		c-0.65,0-0.6-1.801-0.6-3.101c0-1.7,0.3-5.8-0.45-5.8c-0.2,0-2.55,1.949-3.3,2.7c-0.8,0.8-2.6,2.3-3.601,2.3c-0.3,0-0.3,0-0.5-0.3
		l0.3-0.301c0.2-0.1,2-1.8,2.1-2c0.75-1.1,3.95-3.2,3.95-5.8c0-1.2-1.9-0.101-1.55-2c0-0.45,0.3-2.851,0.3-2.851
		c0.95-0.05,1.15,0.6,1.15,1.15c0,0.199-0.05,0.5-0.05,0.8c0,0.45,0.1,0.85,0.6,1.1c1.25,0.101,1.05-1.25,1.05-2.75
		c0,0.05,0.15-3.3-1.05-3.3h-2.4c-0.2,0-0.5,0.3-0.6,0.449c0,1.801-0.2,5.201-0.2,5.101c0,0.601,0.2,1.2,0.2,1.7
		c0,0.601,0.1,2.2-0.8,2.2c-0.55-0.5-1.5-0.45-1.5-1.5c0-0.1,0.3-0.7,0.3-0.9c0.15-0.649,0.05-1.3,0.05-1.949
		c0-1.501,0.45-7.651,0.45-8.251c0.4-0.3,1.55,1.75,1.8,2.4c1.85,0,3,0.1,3-1.95c0-0.6-0.15-1.2-0.75-1.35
		c-2.3,0-2.75-0.1-4.05,0.45l-0.5-0.45c-0.4-0.45-1.8-0.6-1.8-1.35c0,0,0-0.3,0.2-0.3c1.3,0.3,2.8,0.3,4.2,0.3
		c1.5,0,2.4,0.05,2.4-0.9c0-0.9,0.1-3.3-0.75-3.3h-2.25c-0.3,0.3-0.9,0.3-1.4,0.3c-0.3,0-0.4,0-0.4-0.5c0-0.9,1.3-0.4,1.6-1
		c0.2-0.5,0.2-1.2,0.2-1.5c0-1.35-0.05-1.7-0.3-2h-2.4c-0.6,0.3-2.4,0.05-2.4,0.8v3.1c0,2.95,0.3,12.851,0.3,13.55
		c0,0.9-0.3,1.801-0.3,2.701c0.05,1.3,0.3,2.7,0.3,3.6v8.001c0,0.649-0.35,3.2-0.9,3.2c-0.25,0.3-1.85-0.601-1.85-1.351
		c0-0.149,0.05-0.399,0.05-0.649C165.593,92.965,165.893,91.365,165.893,89.665z M168.893,60.513c0.25-0.05,1.5,0.1,3.4-0.5
		c0.9-0.3,0.6-2.5,0.6-3.15l-0.4-0.45h-2.4c-2.65,0-2.1,2.25-2.1,3.6C168.143,60.363,168.543,60.513,168.893,60.513z
		 M182.094,59.713c1.3,0,4.951,0,4.951-1.2c0-0.35-0.1-1.8-0.1-2.85l-0.35-0.3h-1.8c-0.15,0-1.5,0.3-1.65,0.3
		c-1.9,0-2.25,0.75-2.25,2.1C180.894,58.513,181.044,59.713,182.094,59.713z M181.794,64.114c2.55,0,3-0.05,3.75-0.3
		c1.35,0.55,1.5-1.8,1.5-2.4c0.15-0.15-0.15-0.3-0.3-0.5c-5.7,0-5.7-0.05-5.7,1.5C181.044,63.014,181.044,63.813,181.794,64.114z
		 M182.844,86.465c1.05,0.601,2.4,1.2,2.4,2.7c0,1.7-1.35,1.65-1.55,1.65c-0.7,0-0.85-2.351-1.45-3.551c-0.3-0.6-0.9-0.899-0.9-1.5
		C181.944,85.765,182.394,86.165,182.844,86.465z"/>
	<path d="M192.415,92.37c-0.044-0.044-1.361,1.273-1.888,1.449c-1.098,0.175-1.889,1.976-2.503,1.976
		c-0.659,0-1.317-1.054-1.976-1.317c-0.483,0-1.273-0.658-1.186-0.658c0.132-0.132-0.264-0.352,1.712-1.187
		c1.054-0.482,2.108-1.317,3.162-1.976c0.132,0,2.196-1.405,3.293-1.713l0.264-0.264c0-3.206,0.132-6.191-1.054-6.191
		c-1.361,0-3.03,0.834-4.084,1.317c-0.791,0-1.713-1.581-1.713-1.845c0-0.527,0.922-0.527,1.318-0.703
		c-0.088,0,2.327-0.746,2.371-0.79c3.074,0,1.713-2.547,3.074-3.602c-0.044,0,0.878,0.396,1.405,1.143
		c0.527,0.351,1.054,0.526,1.317,1.317c-0.088,1.405-0.527,2.898-0.527,4.304c0,0.308,0.175,0.57,0.175,1.054
		c0,0.176-0.175,0.703-0.175,0.79v2.152c1.8,2.547,4.655,3.118,5.709,3.557l5.27,0.791c1.229,0,2.591-0.132,3.865-0.264
		c0.395,0.176,0.878-0.264,1.405-0.264c2.02,0,3.337-0.438,5.05-0.658c1.449-0.571,3.601-0.615,4.216-0.791
		c0.659-0.132,3.426-0.922,3.953-1.054c0.966-0.264,1.844-0.922,2.898-0.922c0.439,0,0.703,0,0.703,0.395
		c0,0.791-1.581,1.055-2.021,1.317c-0.087,0.132-1.054,0.791-1.317,0.923c-0.263,0.264-1.405,1.186-1.581,1.317
		c-0.308,0.352-1.186,2.679-2.372,3.162c-1.317,0.526-2.767,0.263-4.084,0.658c-2.196,0-3.162,0.132-6.324,0.132
		c-0.966,0-4.04,0.396-4.216,0.396c-1.229,0.044-2.591-0.615-3.689-1.186c-0.791-0.396-1.669-0.352-2.459-0.659
		c-0.615-0.22-1.142-0.79-1.669-1.186c-0.439-0.264-1.054-0.396-1.493-0.659c-0.308-0.482-2.02-1.712-2.723-1.712
		C193.732,90.921,192.941,91.623,192.415,92.37z M191.448,73.179c-0.791-1.142-1.142-2.767-2.108-3.952
		c-0.571-0.351-1.054-1.317-1.054-1.449c0-0.264,0.263-0.395,0.395-0.395c-0.044,0,1.054,0.131,2.416,1.493
		c1.405,0.878,3.162,1.668,4.304,2.986c0.263,1.186,0.175,1.23,0.175,1.537c0,1.054-1.888,2.328-2.371,2.328
		c-0.22,0-0.966-0.176-1.317-0.527C191.448,74.672,191.624,73.706,191.448,73.179z M191.36,59.346c0.352,0,0.615,0.132,0.878,0.264
		l3.425,2.371c0.791,0.527,1.317,1.317,1.317,2.24c0,0.878-0.878,1.273-1.405,1.845c-0.527,0.659-0.79,0.659-1.229,0.659
		c-1.054,0-1.142-1.449-1.317-2.108c-0.264-0.922-0.527-1.977-0.878-2.898c-0.263-0.659-0.966-1.186-0.966-1.976
		C191.185,59.609,191.185,59.346,191.36,59.346z M208.136,80.732c0-1.142-0.132-2.284-0.264-3.338c0-0.132-0.352-0.088-0.439-0.088
		l-1.933,2.021c-1.449,0.57-1.537,1.229-1.844,1.581l-2.459,1.932c-0.615,0.527-2.723,2.284-3.513,2.284
		c-0.175,0-0.263,0-0.263-0.264c1.054-1.317,2.064-2.503,3.162-3.602c0.088-0.087,1.054-1.58,1.23-1.668
		c0.79-0.967,1.668-1.933,2.459-2.812c0.439-0.482,1.493-1.229,1.581-1.844l2.02-2.02c0,0,0.088-0.352,0.088-0.527
		c-0.088-0.571-1.054-2.547-1.054-3.513c0-0.176,0-0.264,0.264-0.264c0.966,0,1.229,1.669,2.108,1.669c0.176,0,0.264,0,0.439-0.088
		c0-0.747,1.933-2.723,1.933-4.392c0-0.264-0.264-0.395-0.527-0.395c-1.537,0-3.074-0.044-4.567,0.131
		c-0.22,0-3.337,0.132-3.425,0.264c-0.088-0.044-0.659,0.132-0.791-0.132l-1.493-1.449c0.044,0.088-0.176-0.527,0.264-0.527h4.128
		c1.405-0.264,2.898-0.264,4.304-0.264c1.756,0,3.601-0.132,5.577-0.132c1.449-0.395,3.162-1.581,4.216-2.503h0.527
		c0.176,0.088,1.844,2.328,1.844,3.425c0,0.527-2.986,0.527-4.479,0.527c-0.132,0-1.054,0.396-1.186,0.396h-2.108l-0.659,0.264
		c0,1.142,2.503,1.668,2.503,2.371c0,0.659-0.659,0.834-0.791,1.361c-1.405,0.966-2.503,2.723-3.03,3.25
		c-0.132,0.175-0.834,0.527-0.834,0.703c-0.044,0.615,0.176,1.098,0.176,1.668c0.088,2.02,0.088,4.04,0.088,6.148
		c0,0.088,0.176,0.79,0.176,0.878c0.175,0.264-0.264,1.054-0.264,2.371s-0.088,2.372-0.527,3.47c0-0.044,0.088,3.162-1.581,3.162
		c-0.791,0-1.317-0.659-1.317-1.449C207.873,89.34,208.136,88.285,208.136,80.732z M213.669,74.672c0.263,0,0.659,0,0.922,0.088
		c0.132,0,0.922,0.703,1.054,0.703c1.098,0.703,3.074,1.01,4.084,1.932c1.142,1.054,2.767,2.591,2.767,3.864
		c0.176,0.088-0.351,1.143-0.791,1.581c-0.395,0.527-0.922,1.055-1.581,1.055c-0.659,0-1.449-0.791-1.713-1.143
		c-0.527-1.756-1.801-4.216-3.162-5.621c-0.79-0.79-2.108-1.712-2.108-2.195C213.142,74.672,213.538,74.672,213.669,74.672z"/>
	<path d="M229.344,93.424c0.659-0.439,0.791-1.449,1.449-1.845l1.186-2.371l0.395-0.396c0.264-1.054,1.054-2.767,1.054-2.767
		c0.571-0.966,0.747-2.021,1.186-2.898c0.352-0.834,0.791-1.537,0.791-2.547c0.088-0.088-0.352-0.527-0.395-0.527
		c-0.878,0-1.977,0-2.767,0.176c-0.131,0-1.317,0.264-1.449,0.264c-0.352,0.132-1.669-0.176-2.503-0.176
		c-1.493,0-2.723,0.439-4.216,0.439c-0.483-0.044-0.703-1.493-0.703-2.284c-0.044-0.352,1.142-0.352,1.229-0.352
		c0.352,0,4.216,0.352,4.611,0.352c0.834,0.044,1.537-0.352,2.371-0.352c0.176,0,3.821,0.088,3.821,0.264
		c0.395,0,0.571,0.044,0.922-0.176l2.635-0.088c1.976,0,2.81-0.175,5.796-0.175c0.571,0,0.22,0.79,0.967,0.702
		c0.526-0.176,2.635-0.966,3.161-1.098c1.143-0.264,3.118-0.264,4.875-0.264c-0.264,0.352,1.273-1.01,3.162-2.898
		c1.186-0.176,2.02,0.703,2.898,1.317c0.702,0.439,2.02,0.527,2.02,1.581c0,0.878-0.878,0.922-1.581,0.922h-0.834
		c-3.382,0-5.841,0.747-8.827,0.967c-1.229,0-3.557-0.132-3.557,0.352c0.132,0.57-0.527,0.966-0.527,1.317
		c-0.264,0.438-0.308,0.834-0.308,1.317c0,0.702-0.176,2.02,0.659,2.283h2.942c0-0.044,1.142-0.439,1.713-0.439
		c0.395-0.263,1.449-2.107,1.844-2.107c0.659,0.308,3.03,1.01,3.03,2.283c0,0.571,0,1.361-0.658,1.405
		c-2.898,0.22-5.797,0.176-8.695,0.703c-0.264,0.088-0.703,0.614-0.703,0.878v2.679c0,0.396-0.264,0.791-0.264,1.187
		c0,2.063,0.835,2.107,2.021,2.107c1.054,0,1.977-0.132,3.03-0.132s2.107,0.132,3.162,0.132c0.746,0,1.054-0.396,1.58-0.396
		c0.527-0.264,1.317-0.132,1.845-0.264c1.229-0.263,2.371-0.658,3.689-0.658l0.263,0.264c0.22,0.044-0.878,1.186-1.405,1.713
		c-0.176,0.658-0.526,0.922-0.79,1.448c-0.439,0.659-0.527,1.449-1.229,1.845c-1.055,0-1.581,0.132-2.503,0.132
		c-0.923,0-1.977,0.088-2.767-0.396c-0.659,0-1.187,0.132-1.845,0.132c-0.396,0-1.933-0.264-6.631-0.264h-4.041
		c-0.439-0.131-0.791-0.131-1.229-0.263c-0.878-0.527-1.581-1.055-2.24-1.845c-0.659-0.659-2.24-3.294-2.767-3.294
		c-1.054,0-2.679,2.416-3.821,3.426c-2.372,1.449-3.162,3.03-6.851,3.03c0.966-0.923,2.24-1.055,3.293-1.845L229.344,93.424z
		 M232.242,66.328c0-0.22,0.088-1.142,0.132-1.142l-0.132-0.439l-0.263-3.688c0-0.527-0.527-1.054-0.527-1.581l0.131-0.088
		c0.834,0,2.811,1.932,3.557,1.932c1.186,0,2.459-0.263,3.821-0.263c0.966,0,1.054,0,1.493,0.175c0.088,0,0.615-0.175,0.878-0.263
		c1.581-0.176,3.074-0.439,4.654-0.703c0,0,0.527-0.088,0.615-0.088h0.703c0.614,0,1.273-0.088,1.712-0.439
		c0.527-0.352,0.967-1.669,1.713-1.581l0.396,0.439c0.79-0.088,1.405,0.791,2.107,1.142c0.527,0.263,1.713,0.79,1.713,1.493
		c0,0.791-0.79,0.615-0.79,1.142v1.317c-0.044,0.22-0.264,0.878-0.264,1.581c0.22,0.219,0.132,1.405,0.132,2.371
		c0,0.176,0.264,1.625,0.264,1.757c0,1.712-0.308,3.952-1.055,5.533c-0.132,0.395-2.767,1.581-3.161,1.581
		c-0.396,0-0.791-0.659-0.791-1.054c0-2.24-0.527-2.503-0.527-3.03c-0.614-0.264-2.239-0.264-2.239-0.264
		c-2.547,0.264-5.006,0.395-7.553,0.922c-0.527,0.131-1.142,0.131-1.581,0.395c-0.395,0.264-0.395,0.791-0.659,1.186
		c-0.395,0.659-1.712,1.713-2.371,1.977c0.043,0-0.176,0.043-0.264-0.132c-0.132-0.132-0.791-1.449-0.922-1.581
		c-0.263-0.396-0.527-0.527-0.527-1.054v-5.138C232.638,68.436,232.111,66.68,232.242,66.328z M235.931,90.13
		c1.405,1.273,1.449,2.064,3.733,2.898c0.088,0,0.791,0.659,0.878,0.659h0.791c0.966,0.482,0.966-1.317,0.966-2.24v-0.132
		c0-0.132-0.176-1.186-0.176-1.317c-0.22-2.767-0.264-5.753-0.264-9.397c0-1.098-1.273-0.878-1.932-0.878
		c-1.01,0-3.865-0.044-3.865,0.614c0,0.966,2.328,1.801,2.811,2.811c0.044,0.044-0.834,1.405-1.493,2.108
		c-0.527,0.614-0.747,1.58-1.186,2.195c-0.527,0.703-1.054,1.361-1.054,1.889C235.141,89.866,235.536,89.866,235.931,90.13z
		 M237.38,71.378h2.547c0.571,0,1.142-0.395,1.669-0.395h1.844c0.264,0,2.898-0.264,3.162-0.264
		c0.527,0.176,1.449-0.264,2.151-0.264c0.396-0.132,0.396-0.659,0.396-0.922c0-2.24,0.132-6.28,0.132-6.631v-0.088
		c-0.352-0.132,0.132-1.317-0.527-1.317c-1.317,0-2.635,0.044-3.82,0.264c-0.922,0.131-2.151,0.044-3.162,0.263
		c-0.175,0-0.966,0.264-1.054,0.264c-1.449,0-2.503,0.088-3.732,0.088c-0.264,0.088-0.527,0.483-0.659,0.527v2.547
		c0.044,0.834,1.054,1.054,2.064,1.054h0.571c0.176,0,0.703,0.088,0.791,0.088c0.439,0.088,1.098-0.22,1.757-0.352
		c0.614-0.175,1.405-0.175,2.107-0.263c0.088,0,0.791-0.439,0.879-0.439c1.273,0,1.054-1.317,2.107-1.317
		c0.527,0,1.229,1.493,1.229,1.845c0,0.703-0.22,0.966-0.702,0.966c-0.352,0-0.879-0.176-1.317-0.176
		c-0.264,0-0.659,0.264-1.055,0.264c-2.195,0-3.732,0.483-5.621,0.703c-0.439,0-0.747-0.088-1.054-0.088
		c-1.449,0-1.493,0.966-1.493,1.669C236.59,70.193,236.59,71.247,237.38,71.378z"/>
	<path d="M262.673,97.64c0.176-0.088,1.229-0.527,1.317-0.615c0.702-0.438,1.229-1.054,1.844-1.317
		c0.659,0.044,1.405-1.844,2.108-2.371c0.483,0,0.746-0.659,1.054-1.054c1.757-2.284,2.372-5.797,2.372-9.135
		c-0.527-0.132-0.791-0.132-1.143-0.132c-1.8,0.044-3.161,0.571-4.742,0.791c-0.791,0.088-1.581,0.263-2.372,0.395
		c-0.702,0.132-1.493,0.527-2.151,0.527c-0.571,0-0.79-1.405-1.186-1.581c-0.659-0.658-1.449-1.317-1.449-1.713
		c0-0.438,0.308-0.878,0.79-0.79c0.132,0,1.713,0.264,1.845,0.264h0.132c0.132,0,0.396-0.132,0.658-0.132
		c0.527,0,0.659,0.396,0.659,0.396c0.176,0,0.176-0.088,0.264-0.132c0.438-0.396,3.908-0.659,5.27-0.659
		c1.977,0,3.864,0.132,3.864-1.054v-2.021c-0.176-0.176-0.22-0.308-0.22-0.483c0-0.132,0.044-0.307,0.044-0.395l-0.088-0.264
		c-0.351-1.054,1.23-1.581,2.108-1.581c1.317,0,2.635,0.791,2.635,2.635c0,1.054-0.878,1.581-0.878,2.504
		c0,0.263,1.449,0.307,1.888,0.307c0.22,0,0.396-0.044,0.571-0.176c1.757,0,3.425-0.131,5.006-0.526
		c0.791-0.527,0.791-1.187,0.791-2.284c-0.264-1.405-0.088-2.371-1.845-2.459c-0.044-0.439,0.088-0.439,0.439-0.439
		c0.966,0,1.888-0.615,2.635-0.615c0.922,0,1.713,0.264,2.503,0.351c0.527,0.176,1.054,0,1.054,0.703
		c0,1.405-1.449,1.845-1.449,2.986c0,1.757,1.713,1.361,3.03,1.361c0.132,0,0.791-0.264,0.923-0.264c0.351,0,0.746,0.132,1.01,0.132
		c0,0,1.449-0.396,2.151-0.396c0.835,0,2.021,0.308,2.504,0.923c0.131-0.483,1.054,1.054,1.58,1.581
		c0.703,0.658,0.791,0.922,0.791,1.186c0,0.527-0.352,0.922-1.054,0.922c-1.143,0-3.206-0.264-3.558-0.264
		c0.132,0.044-1.581-0.395-2.503-0.395l-0.264-0.132c-0.79,0-1.976,0.088-2.898-0.264c-0.264,0-1.186,0.132-1.317,0.396
		c0,6.06,0.132,6.763,0.132,8.344c0,0.088-0.264,0.526-0.264,0.614c-0.132,1.449,0.352,1.493,0.264,2.284
		c0,0.088-0.527,0.878-0.527,1.054c-0.088,0.308-0.132,0.614-0.263,0.79c0,0.088-0.659,0.527-0.659,0.615
		c-0.22,0.79-0.614,0.79-0.922,0.79c-0.483,0-0.923-0.351-1.186-0.79c-0.264-0.044-0.396-0.615-0.396-0.615v-7.816
		c-0.176-0.264-0.264-0.791-0.264-1.054c0-6.061-0.615-3.733-2.021-4.611c-0.79,0-0.878,0-1.317,0.132
		c-5.05,0-4.304,1.098-4.566,3.425c-0.176,0.396-0.264,0.923-0.439,1.317c0,1.318-0.746,1.537-0.878,2.372
		c0,0.176-0.439,1.054-0.439,1.229c-0.308,0.396-1.493,1.845-1.493,1.845c-0.352,0-1.098,1.186-1.845,1.668
		c-0.351,0.439-1.054,0.527-1.405,0.967c-1.229,1.449-5.182,3.908-5.972,3.776c-0.088,0-0.659,0.703-0.791,0.703
		s-1.317,0.088-1.317-0.527L262.673,97.64z M259.774,99.747c0,0.439-0.132,0.703-0.527,0.703c-0.176-0.132-0.132-0.396-0.132-0.703
		H259.774z M264.692,72.213c1.099,0,2.416-0.527,3.514-0.527c1.054-0.264,2.283-0.264,3.337-0.439c1.055,0,2.372-0.307,3.426-0.527
		c0.439,0,1.801-0.044,2.021-0.791c0-0.264,0.087-1.405,0.087-1.581c0-0.527-0.087-2.02-0.087-2.108l-0.176-0.263h-2.108
		c-1.889,0.088-2.591,0.703-3.864,0.703c-0.922,0.307-2.021,0.395-2.898,0.351c-0.264-0.088-0.79-1.581-0.79-1.756
		c0-0.703,2.459-1.142,3.688-1.142c1.537,0,5.753,0.088,6.411-1.581c0-1.493,0.396-2.898-1.317-2.898
		c-1.669,0-3.425,0.791-5.445,0.791l-0.702,0.263l-2.46,0.264c-0.702,0.527-1.756,0.263-2.547,0.527l-0.614,0.264
		c-1.055,0-0.967-0.966-1.229-1.581c0,0-0.615-0.791-0.659-0.966c-0.044-0.307,0.22-0.527,0.571-0.527
		c2.107,0,4.479-0.439,6.675-0.615c1.976,0,3.645-0.439,5.709-0.439c2.635,0,4.698-0.703,7.114-1.142
		c0.176,0,0.79-0.176,0.966-0.176c1.581,0.176,3.162-1.186,4.743-1.054c0.263,0,2.239,0.439,2.767,0.527
		c1.098,0.22,1.976,1.229,2.635,1.845c0.834,0,1.186,0.747,1.493,0.966c0.088,0.088,0.79,0.088,0.79,0.352
		c0,0.263-0.176,0.351-0.264,0.351c-1.186,0-0.746-0.615-1.229-0.615c-0.658,0-0.922,0.966-1.581,1.229
		c-0.307,0.176-0.878,0.088-1.317,0.088c-0.263,0-1.976-0.263-2.239-0.263c-0.659,0-1.317,0-1.977-0.088
		c-0.79-0.308-1.976-0.044-2.239-0.264c-0.659-0.044-1.405,0.088-2.021,0.088c0,0.088-1.273-0.088-1.405-0.088
		c-0.526,0.176-0.966,1.229-0.966,2.898c0,1.054,0.308,1.142,1.054,1.142c2.547,0,3.996-1.581,6.236-1.581
		c0.396,0,0.396,0.175,0.79,0.439c1.055,0.527,2.24,0.878,2.24,2.372c0,0.351-0.923,0.878-1.186,0.878
		c-1.933,0-4.831-0.088-8.169-0.088c-1.273,0.615-0.966,1.625-0.966,3.601c0.044-0.088,0.527,0.659,0.527,0.878
		c0.966,0,1.844,0,2.811,0.176c0.834-0.878,3.337-0.527,3.952-0.966c0.878,0.176,0.878-0.307,1.449-0.527
		c0.264,0,1.449-0.264,1.713-0.264c2.02-0.439,2.107,0.571,2.898,0.791l1.976,2.02c0.176,0.088,0.176,0.264,0.176,0.352
		c0,0.439-0.439,0.791-0.703,1.054c-1.932,0-1.844-0.088-3.161-0.088c-0.923,0-2.723-0.439-3.162-0.439l-0.396,0.176
		c-0.746,0.088-1.493-0.176-2.239-0.176c-0.791,0.176-1.713,0.264-2.503,0.264c-2.811,0-4.743,0.044-7.114,0.439
		c-0.176,0-0.527,0.088-0.703,0.088c-2.063,0.22-2.063,0.527-3.952,0.527c-0.483,0.703-1.493,0.615-2.107,0.791
		c-0.703,0.176-1.318,0.483-2.021,0.703c-0.659,0.176-2.151,0.308-2.459,0.615c-1.055,0-1.537,0.703-2.372,0.703
		c-0.57,0-0.702-0.527-0.966-0.966c-0.878-1.23-1.449-2.108-1.976-2.459C259.862,71.993,263.419,72.213,264.692,72.213z"/>
	<path d="M295.388,97.112l1.054-1.054c0.176-0.176,0.703-0.439,0.791-0.703c0-1.01,1.844-1.624,2.415-2.723
		c0.132-0.176,0.527-1.493,0.527-1.58c0.263-0.571,0.79-0.967,1.186-1.493c0.132-0.132,0.834-2.196,1.186-3.294
		c-0.044-2.371,0.527-3.118,0.527-4.216c0-2.635,0.395-5.227,0.395-7.773c0,0.088-0.132-1.581-0.132-2.591
		c0-1.845,0.132-3.513-1.449-4.567c-0.219-0.439-1.58-0.527-1.58-1.317c0.088-0.22,0.351-0.176,0.658-0.176
		c0.132-0.088,1.317,0.176,1.977,0.176c0.264-0.264,0.79-0.264,1.186-0.264c0.264,0,0.396,0,0.658,0.088
		c0.132,0,0.659,0.703,0.791,0.703c0.132,0.088,1.186,0.527,1.317,0.615c0.132,0,0.658,0.703,0.79,0.703
		c1.143,0.044,2.064-0.175,3.206-0.175c0.264,0,1.845,0.175,2.108,0.175c2.897,0,3.776-0.439,5.621-0.439
		c0.614-0.527,0.746-1.229,0.746-2.02c0-0.922-0.044-2.591-0.044-3.25c0-0.439-0.264-2.459-0.966-3.425
		c0-0.791-0.879-1.186-0.879-1.844c-0.351-0.132,0.791-0.396,2.196-0.396c0.966-0.131,2.195,0.352,3.074,0.659
		c0.219,0.395,2.635,0.263,2.635,0.922c-0.439,0.659-1.011,1.186-1.845,1.449c-1.098,1.537-0.878,2.723-1.054,4.216
		c0,0.132-0.264,1.845-0.264,2.02c-0.176,1.581,1.01,1.142,1.493,1.142c0.308,0,1.625-0.527,2.723-0.527h1.493
		c2.547-0.615,2.635-0.878,4.084-0.878c0.527,0,0.659,0,1.317,0.088c0.659,0.966,1.537,1.493,2.239,2.547
		c0.264,0.264,0.264,0.088,0.264,0.351c0,0.264-0.264,0.439-0.526,0.527c-3.953,0-11.023,0.175-11.77,0.175
		c-1.273,0-1.317,0.352-1.317,1.098c0,1.317,0.176,1.361,0.176,1.888c0.088,1.229,0.088,2.459,0.264,3.601
		c0.088,1.098,0.79,2.59,0.79,3.733v0.22c0.527,0.176,0.527,0.79,1.054,0.79c1.055,0,1.317-1.581,1.845-2.196
		c0.088-0.263,0.352-1.756,0.527-2.02c0.088-0.439,0.263-1.01,0.263-1.581c0-0.264-0.263-1.23-0.263-1.493
		c-0.176-0.088-0.439-0.352-0.527-0.527c-0.176-0.087-0.79-0.351-0.79-0.615c0-0.263,0.878-0.527,1.142-0.527
		c1.405,0,2.547,1.8,3.864,1.932c0.088,0.615,2.371,0.483,2.108,1.669c-1.537,1.493-2.548,2.898-3.602,4.479
		c-0.57,1.405-2.283,3.206-3.162,4.479c0,0.614,1.405,2.195,1.757,2.898c-0.176-0.132,1.493,1.712,1.933,2.767
		c1.054,1.054,1.493,2.371,2.811,3.161c0.307-0.044,0.658-0.132,1.054-0.264c1.229-1.142,1.625-2.459,2.239-3.82
		c0.308-0.702,0.527-2.02,0.923-2.239h0.132v0.396c-1.011,1.624-1.055,3.469-1.055,5.577c-0.088,1.098,0.396,2.107,0.396,3.161
		c0,0.352-0.483,1.405-0.922,1.405c-0.923,0-1.669,0.527-2.108,0.527c-0.395,0.044-1.976-0.044-2.503-0.878
		c-0.264-0.439-0.176-0.703-0.702-0.791l-1.669-1.757c-0.703-0.263-1.229-1.405-1.757-1.932c-1.142-1.186-1.229-2.24-1.669-3.074
		c-0.176-0.396-1.229-1.977-1.493-1.977c-0.834,0.044-2.195,2.021-3.425,2.898c-1.405,0.967-3.865,2.503-4.919,3.47
		c-1.054,1.01-1.229,0.482-3.425,1.932c-0.044-0.263-1.055,0.791-1.669,0.791c-0.439,0-0.835,0.044-0.835-0.264
		c0-0.352,1.187-0.615,1.625-0.878c0.879-1.099,1.889-1.011,2.898-1.845c0.088,0,0.527-0.703,0.615-0.703
		c0.438-0.351,1.054-0.614,1.493-1.054c0.263-0.264,0.702-0.922,0.79-0.922c0.088-0.132,1.581-1.449,1.669-1.581
		c0.264-0.264,1.581-1.449,1.757-1.713c-0.308-0.264,2.02-1.625,2.02-2.767c0-0.396-0.176-0.922-0.264-1.317
		c-0.922-3.162-1.932-6.543-1.932-9.925c-0.615-1.054-0.352-2.283-0.527-3.425c-0.264-0.791-1.317-0.703-1.932-0.703
		c-0.571-0.088-2.46,0.527-3.426,0.527c-1.757,0-3.952,0.746-6.104,0.966c-1.317,0.703-1.01,2.811-1.317,3.953
		c0,0.615,0.132,1.229,0.132,1.844c0,0.79,1.142,0.526,1.845,0.526c0.132,0,0.658,0.176,0.79,0.176h0.132
		c0.132,0,1.098-0.176,1.186-0.176c0.967,0,3.514-0.088,4.743-1.053c0.615-0.439,1.01-1.845,1.317-1.845
		c0.439,0,0.79,0.966,1.054,1.23c0.527,0.527,0.967,0.79,0.967,1.405c0,0.438,0,0.702-0.264,0.966
		c-2.108,0.834-2.547-0.22-3.426,1.405c0,0.571-0.702,3.338-0.702,4.26c-0.132,1.054-0.527,1.977-0.615,3.03
		c-0.176,1.054-0.264,2.107-0.526,3.162c0,1.054-0.527,1.888-0.527,2.415c-0.264,0.79-1.845,2.459-2.635,2.459
		c-0.703,0-1.229-0.526-1.229-1.142c0-1.01-0.396-1.845-0.923-2.679c-0.395-0.527-0.79-0.527-1.186-1.054
		c1.493,0,1.493,0.263,2.108,0.263c0.263,0,1.317-0.131,1.581-0.131c0.79-0.527,0.438-1.713,0.702-2.504
		c0.352-2.239,0.527-4.392,0.527-6.587c0-0.658,0.263-1.845-0.703-1.845c-0.176,0.088-0.922,0.088-1.581,0.088
		c-0.132,0-1.713,0.264-1.844,0.264c-0.439,0-1.055-0.044-1.055,0.439c-0.526,2.811-0.834,5.973-1.976,8.695
		c0,0.132-0.527,0.658-0.527,0.79s-0.526,0.79-0.526,0.922c-1.889,2.635-2.021,3.118-3.162,4.479
		c-0.396,0.659-1.845,1.537-2.635,2.284c-0.747,0.658-3.118,3.029-5.007,3.029c0-0.922,0.923-0.966,1.933-1.624
		C294.51,97.464,295.036,97.376,295.388,97.112z M327.489,60.092c0.176,0.088,2.898,0.878,2.898,1.976
		c0,0.22-1.229,1.713-2.195,1.713c-0.527,0-0.967-0.132-1.055-0.791c0.132-0.659-1.229-2.459-1.229-3.293
		C327.313,59.697,326.875,59.829,327.489,60.092z"/>
	<path d="M336.314,82.182c0-1.054,0-2.108-0.132-3.162c0-0.132-0.132-0.659-0.132-0.791c-0.308-0.878-0.264-1.624-0.264-2.502
		c0-0.352-0.132-2.02-0.132-2.898c0-0.176,0.396-1.054,0.396-1.229c0.044-0.703-0.527-1.23-0.527-1.845l0.132-0.351
		c0-0.176-0.132-0.439-0.264-0.439v-1.844c0-0.088-0.132-0.615-0.132-0.791c0.308-0.483-0.395-0.791-0.395-1.317
		c0-1.01-0.571-1.317-0.571-1.844c0-0.176,0-0.439,0.176-0.439c-0.132,0,2.151,0.527,2.503,0.527
		c0.791,0.175,1.713,0.439,2.635,0.439c2.635,0,3.162-1.361,4.084-1.757c0,0.176,0.088,0.22,0.264,0.22
		c0.088,0,0.22-0.044,0.264-0.044c-0.176,0,2.415-0.307,2.415,1.317c0,0-0.264,0.966-0.264,1.142
		c-0.175,0.483,0.703,0.878,1.143,0.878c3.908,0,5.27,0.132,5.27-2.02c0-2.196-0.308-4.26-1.054-6.499
		c0-0.044-0.088-0.527,0.263-0.527c0.747,0.132,1.449,0.878,2.021,1.317c1.098,0,2.898,0,4.128,0.791c0,2.02-0.527,3.513-0.527,5.27
		c0,0.439,0,0.966,0.527,1.054c0.308,0,0.659-0.088,0.659,0.352c0,0.088-0.044,0.263-0.044,0.351c0,0.176,0.044,0.264,0.263,0.264
		c0.176,0,0.264,0,0.264-0.088c-0.088,0-0.264-0.439-0.264-0.527c-0.438-0.396,1.669-0.439,3.953-0.439
		c1.273-0.263,2.415-1.581,3.337-1.581c0.703,0.307,2.24,1.493,2.24,2.371c0,0.791-1.317,0.791-1.977,0.791
		c-1.054,0-0.878-0.527-1.317-0.791c0,0.308,0.044,0.571-0.176,0.703c-1.669,0-3.776,0-5.533,0.088
		c-1.01,0.22-2.898,0.264-4.128,0.264l-0.264-0.264l-0.352,0.439c-1.361,0-1.58,0.79-2.02,0.79c-0.088,0.044-0.308,0-0.615-0.175
		c-1.625-0.044-2.679,0.175-4.128,0.175c-0.614-0.527-1.405-1.581-2.371-1.581c-0.703,0-0.439,0.439-0.922,1.054
		c0,0.176,0.395,0.571,0.395,0.791c0,1.054-0.132,1.932-0.132,2.898c0,0.878,0.264,1.405,0.264,2.372
		c0.132,0.922,0,1.976,0.571,2.898c0.79,0,1.361-0.966,1.932-1.844c0.439-0.395,1.055-0.703,1.317-1.229
		c0-0.527,1.143-1.757,1.581-2.372c0.264-0.351,0.527-0.878,0.967-1.317c0.263-0.351,0.878-0.747,0.878-1.317l0.176-0.088
		c0.571,0,1.317,1.229,1.317,1.932c0,0.439-0.439,0.791-0.703,1.23c-1.756,1.756-2.459,2.723-3.952,3.688
		c-0.176,0.088,0.132,0.176-1.142,1.449c-0.878,0.922-2.547,1.317-2.811,1.976v1.45c0.352,0.395,0,1.361,0.264,1.581
		c0,0.834,0,0.834-0.088,1.229l0.264,0.264c0,0.746-0.176,1.361-0.176,2.107c0,0.527,0.176,1.054,0.176,1.581
		c0,1.405-0.176,2.723-0.176,4.216c-0.088,0-0.264,0.088-0.264,0.264l0.264,0.395c0,0.967-0.352,2.064-0.659,2.504
		c0.22,0.526-1.098,1.186-0.922,1.844c0-0.132-1.229,1.055-1.713,1.055c-1.054-0.571-3.161-2.898-3.161-3.03
		c0-0.396,0.658-0.527,0.922-0.527c0.22,0.088,0.922-0.088,1.317,0.132c0.527,0,0.396-0.264,0.658-0.396
		c0.615,0.088,0.923-0.57,0.923-1.186c0-0.044-0.132-0.966-0.132-1.493c0-0.088,0.132-1.054,0.132-1.142
		c-0.044,0,0.132,0-0.132-0.439v-1.669l0.132-0.175c-0.132-0.044-0.264-0.571-0.264-1.669c0,0,0.132-0.923,0.132-0.967l-0.132-0.351
		c0-0.483-0.044-1.801,0.132-2.152c0-1.01-0.396-1.186-0.966-1.186h-0.747c-0.658,0-2.503,0.176-2.635,1.186v1.449
		c0.088,3.382-0.659,5.709-2.635,8.739c-0.703,1.186-1.098,1.317-1.977,1.845c-0.834,1.581-3.161,3.293-3.425,3.293
		c-0.527-0.044-0.703,0.659-1.493,0.659c0-0.132,0.264-1.054,0.526-1.186c0.571,0.088,0.835,0,0.791-0.659
		c1.098-0.966,1.844-1.669,2.635-2.635c1.098-1.976,1.098-2.679,1.317-3.996c0.659-0.088,1.317-1.405,1.493-2.371
		c0-1.317,0.396-2.46,0.396-3.777v-0.438C336.314,82.445,336.314,82.357,336.314,82.182z M338.026,74.145
		c0,0.132,0.527,0.791,0.527,0.922c0,3.908,0.176,3.82,1.317,3.82c0.527,0,2.239-0.264,2.239-1.054c0-1.143-0.263-2.196-0.263-3.689
		c-0.132-0.791-1.317-0.966-1.845-0.966c-0.659,0-1.186,0.264-1.845,0.264c-0.132,0.308-0.132,0.439-0.132,0.571V74.145z
		 M339.607,71.51c0.923,0.132,1.933-0.483,2.767-0.703c0.22-1.361,0.264-2.459,0.396-2.898l-0.132-0.264
		c0-0.044-0.044-2.635-0.658-2.635h-1.581c-0.527,0.439-1.713,0.264-1.977,0.791c0,1.229-0.264,2.284-0.264,3.425
		C338.158,70.324,338.246,71.51,339.607,71.51z M352.167,83.938c-0.22-0.703-0.22-1.449-0.526-1.889
		c0-0.483,0.088-1.405-0.439-1.581c-0.396,0-1.317,0.703-1.581,0.79c-0.527,0.264-0.527,1.362-1.317,1.362
		c-0.088,0-0.264,0-0.352-0.176c0-0.396-0.702-0.396-0.79-0.791c0-0.132-0.439-0.658-0.439-0.79
		c0.527-0.659,1.493-0.791,2.108-1.186c0.966-0.703,1.186-0.527,1.581-1.055c0.482-0.658,0.351-3.03,1.58-3.03
		c0.791,0,1.317,0.922,1.317,1.712c0,0.396-0.614,0.527-0.614,1.186c0,0.835,0.264,1.187,0.264,2.108
		c0,0.571,0.702,1.801,0.614,2.547c0.132,0.132,0.659,1.142,1.229,1.142c0.615,0,1.493-2.107,1.581-2.767
		c0-0.614,0.703-1.054,0.703-1.581c0.526-1.273,0.352-2.811,0.352-4.479c0.175-0.263,0.263-0.263,0.526-0.263
		c0.044,0,1.317,0.527,2.108,1.317c0.966,0.526,1.229,0.132,1.493,1.449c-0.396,2.503-2.372,4.962-3.162,7.378
		c-0.264,0.79-1.054,1.317-1.054,2.283c0,0.352,0.614,0.527,0.878,0.79c0.264,0.264,0.527,1.273,1.054,1.317
		c0.176,0,0.791,0.615,0.967,0.615c0.79,0.571,1.317,1.361,2.195,1.757c-0.483-0.22,4.172,1.317,4.128,1.581
		c0.922,0.395,5.533,0.263,5.533,1.317c0,0.658-1.669,0.79-2.239,1.054c-0.923,0.483-2.152,1.581-3.03,1.581
		c-0.132,0-1.493,0.658-1.581,0.658l-0.439,0.132c-0.526,0-0.878-0.395-1.317-0.658c-0.878-0.527-2.063-0.879-2.898-1.713
		c-0.351-0.396-1.932-1.977-2.371-2.371c-1.273-0.835-2.108-2.108-3.864-2.108l-3.162,3.162c-0.571,0.57-1.449,0.834-2.108,1.317
		c-0.131,0.22-1.932,1.449-2.371,1.317c-0.834,0.746-1.625,0.659-2.239,1.449c-0.967,0.396-2.635,0.659-2.635,0.527
		c0-0.439,0.614-0.835,1.317-1.187c0.482,0.088,1.054-0.658,1.449-0.922c0.966-0.396,1.537-1.098,3.073-2.107
		c1.143-0.967,1.625-2.284,3.162-2.898c0.483-0.659,0.835-1.405,1.317-2.152c0.527-0.79,1.055-0.878,1.055-1.932
		C353.178,86.661,352.606,85.3,352.167,83.938z M357.438,68.173c0.219,0,1.01,0.527,1.317,0.527c0.175,0.176,1.844,0.527,2.02,0.703
		c0.879,0.263,1.669,0.878,2.635,1.142c1.186,0,1.581,0.834,1.933,1.581c0.439,0.351,0.79,0.571,0.79,1.317
		c0,0.966-2.459,2.284-3.249,2.284c-0.703,0-1.186-0.615-1.055-1.186c-1.142-0.659-0.438-2.107-1.58-2.415
		c-0.791-1.537-2.328-2.02-3.162-3.425C357.086,68.348,357.174,68.173,357.438,68.173z"/>
	<path d="M379.041,82.796c0-0.132,0.088-2.591,0.264-2.898c0-1.888-0.176-2.063-0.176-2.898c0-0.922,0.264-1.976,0.264-2.898
		c0-0.659-0.264-1.186-0.264-1.712c0-0.132,0.176-1.186,0.176-1.318v-3.293c0-0.132-0.176-0.571-0.176-0.659
		c0-2.108,0.088-3.601-0.615-5.27c-0.264-0.527-1.493-0.966-1.493-1.493c0-0.439,0.352-0.571,0.703-0.571
		c0.088,0,0.264,0.043,0.351,0.043c0-0.527,1.581-0.878,2.021-0.878c0.615,0,3.162,1.581,3.601,2.108l-0.175,0.088
		c0.438,0,0.79,0.263,0.79,0.703c0,0.79-0.615,1.317-0.79,1.932c-0.088,0.966-0.088,2.02-0.088,2.898c-0.176,0-0.264,0-0.264,0.175
		l0.264,0.264c0,1.098-0.439,3.557,1.054,3.557c0.79,0,1.449-0.747,2.459-0.659l0.439,0.132c0.088,0,0.352-0.132,0.526-0.132h4.216
		c0.132-0.132,0.659-0.264,0.659-2.24c0-0.132-0.132-0.395-0.132-0.395c0-2.328-0.132-6.543-0.132-6.851
		c-0.22-0.175-0.264-1.229-0.658-1.844c0-0.176-0.527-0.527-0.527-0.703c-0.132-0.791,1.098-0.834,1.581-1.054
		c0.132,0,1.054-0.264,1.317-0.264c1.581,0,4.479,0.747,4.479,1.756c0.132,0.703-1.449,1.405-1.449,2.196
		c-0.044-0.044-0.659,1.186-0.659,2.02l0.132,0.264v5.138c0,0.132-0.132,0.395-0.132,0.527c0.088,0.834,0.439,1.186,1.186,1.186
		c1.055,0,1.845-0.263,2.636-0.922c0.526-0.396,1.58-2.152,2.371-2.152c0.264,0,0.176,0.263,0.439,0.439
		c0.219-0.395,2.679,2.24,2.459,2.24v2.108c0,0.176-0.396,0.439-0.571,0.439c-1.01,0-2.151-0.176-3.249-0.176
		c-1.757,0-2.854,0.132-4.743,0.132c-0.878,0-2.064,0.264-2.898,0.264c-0.878,0-1.713-0.352-2.547-0.264
		c-0.088,0-1.142,0.132-1.317,0.132c-2.064,0-5.357,0.132-5.797,0.132c-0.308,0-1.317-0.088-1.317,1.054
		c0,0.659,0.176,1.405,0.176,2.108c0,0.659-0.176,1.318-0.176,1.976c0,0.439,0,1.581,0.438,1.581c0.703,0,1.977-0.396,3.03-0.396
		c0.264,0,0.527,0,0.747,0.044l0.176-0.176c0,0,2.986-0.263,4.348-0.351c0.044-0.132,0.219,0.088,0.658,0.088l0.132-0.264
		c1.625-0.308,1.713-2.767,3.426-2.767c0.395-0.396,3.029,1.361,3.029,2.635c0,1.098-1.054,1.713-1.844,2.152
		c0,0.351-0.132,2.107-0.132,2.459c0,1.493,0.264,2.854,0.264,4.392v5.401c-0.308,0.922,0.044,1.844-0.396,2.239
		c0.352,1.098-0.878,1.317-1.581,1.317c-0.396,0-1.449-0.264-1.713-0.658c-0.044-0.396-0.264-0.527-0.658-0.527v-2.898
		c0-0.132-0.132-0.396-0.132-0.526c0.22-1.23,0-3.294,0.396-3.558c0-0.176-0.132-0.439-0.132-0.439v-5.533
		c-0.264-0.614,0-1.142-0.659-1.581c-0.352,0-1.977,0.264-5.709,0.264c-1.317,0.176-2.635,0-3.776,0.527
		c-0.439,0.264-0.791,2.415-0.791,2.898c-0.175,0.438,0,1.054-0.175,1.493c0,0.088-0.352,0.878-0.352,1.054
		c-0.22,1.142-0.879,2.415-1.493,3.557c-0.615,0.791-1.933,1.933-2.108,2.504c-1.098,1.098-1.932,1.932-3.073,2.503
		c-1.187,0.878-2.416,1.713-3.689,2.503c-1.186,0.791-2.547,1.801-3.82,2.152c-0.044-0.615,1.933-1.757,2.898-2.548
		c1.186-1.054,1.449-0.79,3.82-3.161c0.132-0.396,1.757-1.449,1.757-2.24c0-0.132,0.526-0.526,0.526-0.658
		c0.527-0.659,0.615-1.055,1.055-1.845c0.264-0.571,0.264-1.098,0.614-1.449C378.514,86.749,378.865,83.499,379.041,82.796z"/>
	<path d="M405.168,83.895c0,0.219-0.264-5.095-0.264-7.905c-0.22-2.283-0.22-6.236-1.493-7.026
		c-0.264-0.263-1.142-0.395-1.142-1.054c0,0,1.361-0.527,2.371-0.527c0.088,0,1.054,0.263,1.317,0.263
		c0.835,0.132,1.317,0.747,1.977,1.317c1.757,0.088,3.732-1.186,5.138-2.108c0.088,0,0.264-0.043,0.659,0.132
		c0.834,0.834,2.239,1.317,2.239,1.976c-0.527,0.659-1.317,1.274-1.317,2.24c0,0.922,0,1.845,0.132,2.767
		c0.044,0.439,0.264,1.23,0.264,1.581c0,2.064,0.132,4.831,0.132,5.27c0,1.229-0.659,2.811-1.977,2.811
		c-1.449,0-1.054-1.669-1.976-2.284c-0.396,0-2.108-0.088-2.504-0.088c-1.317,0-1.317,0.483-1.317,1.318
		c0,1.229,0.132,2.547,0.132,3.688c0,0.79,0,1.493-0.527,2.02c-0.131,0.088-0.702,0.615-0.79,0.791
		c-0.352-0.088-1.229,0.132-1.229-0.439C404.992,86.968,405.168,85.519,405.168,83.895z M421.284,77.307
		c-1.273,0-2.503,0.088-3.688,0.088c-0.571,0-1.01-1.098-1.493-1.581c-0.088-0.834,1.186-0.615,1.757-0.615
		c0.352,0,0.878,0.263,1.317,0.263c1.098,0,2.679,0.088,2.986,0.088c1.01,0.088,1.317-0.176,1.317-1.142
		c0,0.044-0.264-2.591-0.264-3.997c0-0.659-0.79-0.922-1.317-0.922c-1.405,0-2.723,0.132-3.952,0.132
		c-0.352-0.264-0.527-0.922-0.527-1.318c0-0.834,1.581-0.395,1.845-0.659h3.162c0.438,0,0.702-0.395,0.79-0.659
		c0-1.8,0.132-3.864-0.527-5.709c0-0.395-0.658-1.186-0.614-1.405c-0.176-0.175-0.967-0.527-0.967-0.791
		c0-0.527,2.108-0.966,2.548-0.966c0.132,0,2.327-0.132,4.742,2.635c0.308,1.449-1.449,2.152-2.107,3.074
		c0,1.405-0.132,3.293,0.878,3.293c1.361,0,2.108-1.405,3.864-1.976c0.923,0.351,1.317,1.317,1.977,1.976
		c0.396,0.527,0.79,0.527,0.79,1.186s-1.844,0.659-3.029,0.659c-1.757,0-3.953-0.351-3.953,0.791c0-0.175,0.527,2.986,0.527,4.655
		c0,1.142,1.845,0.791,2.371,0.791c1.449,0,2.591-1.889,4.216-1.889c0.483,0,2.635,1.581,2.635,2.503
		c0,0.263-0.79,0.965-1.054,0.965h-5.929c-0.395,0-0.79,0-0.79,0.352c0,1.757,1.186,3.074,2.239,4.216
		c2.942,3.294,7.202,5.271,10.145,6.148c0.352,0.132,2.108,0.308,1.757,0.79c-1.581,0.615-3.338,0.527-4.787,1.318
		c-0.57,0.57-1.581,1.054-1.844,1.054c-0.527,0-2.064-1.669-3.162-2.372c-0.264-0.438-1.581-2.283-1.845-2.635
		c0.132-0.176-0.526-0.614-0.526-0.966c-1.187-2.327-1.757-3.382-1.977-4.743c0-0.175-0.044-3.074-1.098-3.074l-0.264,0.264
		c0,1.933,0.176,3.646,0.176,5.358c0,1.186-0.176,1.186-0.176,1.844c0,0.088,0.264,1.142,0.264,1.317
		c0.176,0.703,0.22,1.361,0.22,2.021c0,6.235,0.044,7.202-1.537,9.573c-1.405,0-1.845-2.107-1.845-3.294
		c0-0.395,0.264-2.371,0.264-2.767v-7.904c0-0.176-0.088-0.702-0.088-0.79c-0.132-0.791-0.044-3.25-0.791-3.25
		c-0.966,0-2.02,2.547-2.283,3.25c-0.396,1.098-1.317,2.151-1.405,2.635c-1.01,1.581-2.239,2.942-3.338,4.304
		c-2.195,2.811-4.962,5.05-7.904,6.895c-0.878,0.395-2.327,1.317-2.767,1.317c0-0.264,0-0.396,0.264-0.527
		c0.176,0.132,0.79-0.79,1.449-0.79c1.537-1.625,3.294-2.942,5.006-4.348c0.791-0.659,1.186-1.581,1.845-2.371
		c0.834-1.011,2.371-2.724,2.371-3.338c0.527-0.878,1.229-1.581,1.757-2.459c0.352-0.703,0.615-1.493,1.054-2.196
		c0.088-0.088,0.615-1.405,0.791-1.581c0.264-0.526,0.79-1.405,0.79-2.195C421.548,77.658,421.548,77.395,421.284,77.307z
		 M406.573,71.598c0.044,0,0.702,5.489,0.702,6.762v0.527c0,0.483,0.044,1.054,0.527,1.405c1.186,0,2.547-0.044,3.82-0.264
		c0.659-0.088,0.659-1.669,0.659-2.107c0-2.02-0.176-4.348-0.527-6.324c0-0.264,0.044-0.439,0.044-0.659
		c0-0.264-0.396-0.922-0.702-0.922c-3.47,0-4.523-0.176-4.523,1.054V71.598z M426.555,96.586l-0.264-0.791
		c-0.264,0-0.527,0.132-0.527,0.396C426.071,96.19,426.159,96.761,426.555,96.586z"/>
	<path d="M439.858,81.566c0-3.074,0-8.695-0.264-11.549c-0.22-2.108-0.79-3.25-2.021-5.182c0.439-0.834,0.967-1.054,1.845-1.054
		c1.054,0.703,2.767,1.976,4.523,3.074l0.264,0.264h2.107c0.132,0,0.396-0.264,0.527-0.264c1.273-0.043,1.449-2.635,2.898-2.635
		c0.878,0,1.405,1.361,1.844,1.845c1.274,1.361,0.483,2.723,0.923,3.337c0.132,0.791-0.659,1.229-0.791,1.844
		c-0.264,0.659-0.264,1.361-0.264,2.108c0,1.493,0.132,2.811,0.132,4.084c0,0.264-0.132,0.527-0.132,0.922
		c0,0.791,0.264,1.45,0.264,2.24c0,0.527-1.317,1.054-1.712,1.054c-0.659,0.176-1.713,0-2.372,0.439h-3.03
		c-0.044,0.044-0.966,0.878-0.966,1.098c0,0.088,0.044,0.176,0.044,0.308c0,0.176-0.132,1.229-0.132,1.317
		c-0.132,1.317-0.132,3.338-1.317,4.128c-0.439,0.264-0.966,0.659-1.493,0.659c-0.396,0.131-1.142-0.659-1.317-1.361
		C439.419,86.441,439.858,84.289,439.858,81.566z M443.283,76.517c0,0.132,0.132,0.922,0.132,1.054c0,1.317-0.264,2.415,0.923,2.767
		c3.557,0,2.767,0.308,3.425-3.82c0-0.615,0-1.01-0.264-1.449v-3.733c-0.132-0.088-0.132-0.351-0.132-0.615
		c-0.044-0.22,0-0.352,0.132-0.527c-0.044-0.878-0.307-1.757-1.186-1.757c-0.966,0-3.03,0.088-3.03,1.581
		c0,1.229,0.132,2.372,0.132,3.601c-0.088,0.044-0.264-0.088-0.396-0.176v0.176c0.308,0.703,0.396,1.888,0.396,2.24l-0.132,0.527
		V76.517z M454.657,81.83c0.088-0.966-0.22-1.977-0.176-2.679c0-0.132,0.176-1.449,0.176-1.581c0-0.483-0.044-1.01,0.088-1.449
		c0-0.615-0.088-1.098-0.088-1.712c0-0.747,0.176-0.878,0.264-0.966c-0.352-0.088-0.264-0.791-0.264-1.142
		c-0.526-2.591-0.482-5.226-1.054-7.729c0-0.088-0.308-0.527-0.308-0.615c0-0.966-1.054-1.493-1.054-2.547
		c0-0.351,0.79-0.791,1.054-0.791c1.933,0,1.977,0.396,2.679,0.791c0.352,0.264,0.791,0.264,1.142,0.527
		c1.055,1.054,1.669,1.054,2.372,1.054c0.658,0,0.966-0.132,1.229-0.088c0.088,0,1.142,0.088,1.317,0.088
		c1.845,0,1.493-0.352,3.162-0.352c0.176,0,0.307,0.044,0.438,0.044c0.176,0,0.396-0.044,0.791-0.483
		c0.396-0.395,1.845-1.581,1.845-1.581c0.658-0.615,0.702-0.791,1.405-0.791c0.438,0,0.702,0,1.229,0.264
		c0.263,0.176,0.263,0.527,0.526,0.703c0.967,1.054,1.581,1.273,1.581,2.635c0,1.317-0.439,1.142-1.317,1.933
		c-0.088,0.263,0.088,0.746,0.088,1.054c0,0.396-0.264,0.703-0.264,0.966l0.176,4.479l-0.176,1.845l-0.264,0.175
		c0,0.264,0.176,0.264,0.176,0.352c0,0.307-0.176,0.439-0.176,0.703c-0.044,0.088,0.044,0.308,0.176,0.527
		c-1.449,2.372-2.107,2.722-3.425,3.821c-1.713,0.264-0.923-2.108-1.757-2.108h-4.919c-0.614,0.132-1.844,0.439-2.239,0.439h-0.571
		c-0.702,0-1.273,0.044-1.405,1.01c0,0.615,0.088,1.625-0.087,1.581c0.087,1.098,0.043,1.889,0.351,3.03
		c0.088,0.22-0.088,0.308-0.088,0.703c0.615,0.79,0.615,1.8,0.615,2.723c0,0.526,0,0.526-0.088,0.79
		c0,1.801,0.483,2.811,2.986,2.811c3.162-0.132,2.107-0.658,7.553-0.658c-0.175,0.087,1.845-0.527,3.162-0.527
		c0.527-0.132,1.317-0.132,1.757-0.264c0.044,0.132,0.702-0.57,1.317-0.57c0.044,0.043,1.054-1.011,1.054-2.372
		c0.132-0.264,0.527-1.405,0.659-1.669c-0.044-0.044-0.044-0.132-0.044-0.219c0-0.439,0.22-1.011,0.526-1.011
		c0.571,0,0.439,1.098,0.571,1.493c0.044,0.264,0.264,1.537,0.922,3.952c0.396,0.923,1.317,1.713,1.317,2.898
		c0,2.504-3.688,3.294-5.533,3.689c-1.449,0-3.029,0.79-4.479,0.79c-2.284,0-5.973,0.132-6.236,0.132
		c-0.22,0.132-1.054-0.132-1.757-0.132c-1.317,0-2.635,0-3.952-0.132c-0.614,0-0.614-0.526-0.878-0.658
		c-0.791,0.307-1.757-1.229-2.021-2.372c0-4.61-0.264-4.084-0.264-7.553C454.481,83.367,454.657,82.708,454.657,81.83z
		 M457.644,74.672h2.021l0.526-0.791c0.088-0.175,0.264-1.844,0.264-2.371c0-0.264-0.176-1.229-0.264-1.317v-4.041
		c0.088,0,0.088-0.087,0.088-0.263c-0.264-0.396-0.526-0.352-0.878-0.352c-0.264,0-0.703,0-0.791,0.088
		c0,0.176-0.438,0.703-0.438,0.791c-0.571,0.527-0.703,1.493-0.879,2.459c0,0.703-0.176,0.834-0.176,2.635
		C457.116,72.608,457.029,74.672,457.644,74.672z M464.934,74.409c0.79,0,1.669-0.176,2.02-0.966
		c0.439-1.317,0.527-2.854,0.527-4.04c0-0.615,0.044-2.196-0.176-3.601c0-1.01-1.405-0.747-1.669-1.229
		c-0.438,0.219-1.493,0.483-1.493,1.317c0,2.064-0.263,2.898-0.263,4.567C463.88,72.74,464.143,74.409,464.934,74.409z"/>
</g>
<g>
	<polyline fill="#191919" points="25.323,28.024 30.214,15.391 34.277,15.391 27.903,31.649 22.828,31.649 16.148,15.391 
		20.472,15.391 	"/>
	<path opacity="0.1" fill="#001A3A" d="M67.667,10.435c-7.328,0-13.268,5.94-13.268,13.268s5.94,13.268,13.268,13.268
		s13.268-5.94,13.268-13.268C80.935,16.375,74.995,10.435,67.667,10.435z M67.667,32.548c-4.885,0-8.845-3.96-8.845-8.845
		s3.96-8.845,8.845-8.845s8.845,3.96,8.845,8.845S72.552,32.548,67.667,32.548z"/>
	<path fill="#B9C11B" d="M67.667,19.254c-2.457,0-4.449,1.991-4.449,4.449s1.991,4.449,4.449,4.449c2.457,0,4.449-1.991,4.449-4.449
		S70.124,19.254,67.667,19.254z M70.378,25.278c-0.87,0-1.575-0.705-1.575-1.575s0.705-1.575,1.575-1.575
		c0.87,0,1.575,0.705,1.575,1.575S71.248,25.278,70.378,25.278z"/>
	<circle fill="#BF1D1D" cx="85.932" cy="23.623" r="1.515"/>
	<path fill="#191919" d="M47.255,19.831l2.026-2.51c0,0-2.079-2.51-6.256-2.456c-4.176,0.054-6.453,2.349-6.453,5.36
		s3.446,4.32,5.557,4.87c2.258,0.588,3.907,0.921,3.962,2.372c0.041,1.096-1.506,1.882-2.94,1.882c-1.434,0-3.995-0.726-5.42-2.151
		l-2.02,2.358c1.481,1.481,3.905,2.894,7.351,2.894c5.216,0,6.597-3.036,6.597-5.18c0-1.477-0.182-4.148-6.041-5.539
		c-2.512-0.594-3.287-0.95-3.407-1.864c-0.134-1.018,1.215-1.738,2.839-1.7C45.05,18.214,46.064,18.766,47.255,19.831z"/>
</g>
<g>
	<path fill="#6D7200" d="M401.748,140.964l-3.51-8.315c-0.349-0.12-0.666-0.265-0.954-0.433v-0.468h3.779v0.45
		c-0.155,0.084-0.314,0.165-0.477,0.243s-0.345,0.146-0.549,0.207l2.08,5.418l0.358,1.115h0.036l0.269-1.134l1.919-5.399
		c-0.192-0.048-0.369-0.108-0.531-0.181c-0.162-0.071-0.315-0.155-0.459-0.252v-0.468h3.06v0.468
		c-0.12,0.084-0.267,0.162-0.44,0.234c-0.175,0.072-0.369,0.138-0.585,0.198l-3.187,8.1L401.748,140.964z"/>
	<path fill="#6D7200" d="M411.899,138.696c0-0.336-0.104-0.621-0.314-0.855c-0.21-0.233-0.478-0.452-0.801-0.657
		c-0.324-0.203-0.669-0.401-1.035-0.594c-0.366-0.191-0.711-0.417-1.035-0.675s-0.591-0.555-0.801-0.891s-0.315-0.75-0.315-1.242
		c0-0.324,0.075-0.624,0.226-0.9c0.149-0.275,0.351-0.513,0.603-0.711s0.546-0.354,0.882-0.468s0.696-0.171,1.08-0.171
		c0.648,0,1.179,0.036,1.593,0.107c0.414,0.072,0.813,0.175,1.197,0.307c-0.048,0.384-0.105,0.771-0.171,1.161
		c-0.066,0.39-0.159,0.789-0.279,1.196h-0.449l-0.685-1.836c-0.144-0.06-0.306-0.099-0.486-0.117
		c-0.18-0.018-0.366-0.026-0.558-0.026c-0.216,0-0.405,0.039-0.567,0.117c-0.161,0.078-0.3,0.177-0.414,0.297
		c-0.113,0.12-0.2,0.258-0.261,0.414c-0.06,0.156-0.09,0.312-0.09,0.468c0,0.324,0.104,0.603,0.315,0.837
		c0.209,0.234,0.477,0.45,0.801,0.648c0.324,0.197,0.669,0.393,1.035,0.585c0.365,0.191,0.711,0.407,1.035,0.647
		c0.323,0.24,0.591,0.52,0.801,0.837c0.21,0.318,0.314,0.699,0.314,1.144c0,0.408-0.087,0.773-0.261,1.098s-0.414,0.601-0.72,0.828
		c-0.307,0.228-0.66,0.405-1.062,0.531s-0.831,0.188-1.287,0.188c-0.516,0-0.989-0.045-1.422-0.135
		c-0.432-0.09-0.882-0.219-1.35-0.387c0.023-0.433,0.078-0.85,0.162-1.251c0.084-0.402,0.191-0.789,0.324-1.161h0.449l0.792,1.962
		c0.132,0.096,0.291,0.15,0.478,0.162c0.186,0.012,0.356,0.018,0.513,0.018c0.528,0,0.954-0.144,1.278-0.432
		S411.899,139.104,411.899,138.696z"/>
	<path fill="#6D7200" d="M422.069,139.488c-0.216,0.42-0.566,0.771-1.053,1.053c-0.485,0.282-1.053,0.423-1.701,0.423
		c-0.708,0-1.322-0.111-1.845-0.333c-0.521-0.222-0.957-0.54-1.305-0.954c-0.349-0.414-0.609-0.911-0.783-1.494
		c-0.174-0.581-0.261-1.227-0.261-1.935c0-1.523,0.371-2.691,1.115-3.501s1.758-1.215,3.043-1.215c0.587,0,1.112,0.051,1.574,0.152
		c0.462,0.103,0.855,0.237,1.18,0.405c-0.036,0.396-0.103,0.84-0.198,1.332c-0.097,0.492-0.216,0.9-0.36,1.225h-0.485l-0.757-2.143
		c-0.084-0.06-0.18-0.104-0.288-0.135c-0.107-0.03-0.287-0.045-0.539-0.045c-0.816,0-1.446,0.297-1.891,0.891
		s-0.666,1.6-0.666,3.016c0,0.456,0.063,0.899,0.189,1.332c0.126,0.432,0.317,0.818,0.576,1.16c0.258,0.343,0.581,0.615,0.972,0.819
		c0.39,0.204,0.843,0.306,1.358,0.306c0.42,0,0.786-0.06,1.099-0.18c0.312-0.12,0.576-0.264,0.792-0.432L422.069,139.488z"/>
	<path fill="#6D7200" d="M430.151,138.39c0,0.265,0.006,0.492,0.019,0.685c0.012,0.192,0.023,0.396,0.035,0.612l1.242,0.18v0.378
		c-0.3,0.156-0.633,0.294-0.999,0.414s-0.717,0.21-1.053,0.27h-0.45c-0.12-0.275-0.192-0.578-0.216-0.908
		c-0.024-0.33-0.042-0.693-0.054-1.09h-0.09c-0.049,0.24-0.142,0.483-0.279,0.729c-0.139,0.246-0.318,0.465-0.54,0.657
		c-0.223,0.191-0.483,0.348-0.783,0.468s-0.642,0.18-1.026,0.18c-0.731,0-1.329-0.222-1.791-0.666
		c-0.462-0.443-0.692-1.025-0.692-1.746c0-0.552,0.11-1.005,0.333-1.358c0.222-0.354,0.549-0.633,0.98-0.837
		c0.433-0.204,0.966-0.352,1.603-0.441c0.636-0.09,1.374-0.159,2.214-0.207c0.048-0.516,0.062-0.981,0.045-1.395
		c-0.018-0.414-0.084-0.769-0.198-1.062s-0.282-0.521-0.504-0.684s-0.513-0.243-0.873-0.243c-0.168,0-0.357,0.009-0.566,0.026
		c-0.21,0.019-0.417,0.069-0.621,0.153l-0.847,2.16h-0.468c-0.12-0.36-0.225-0.731-0.314-1.116
		c-0.091-0.384-0.147-0.762-0.171-1.134c0.455-0.276,0.963-0.492,1.521-0.648c0.558-0.155,1.179-0.233,1.863-0.233
		c0.611,0,1.101,0.087,1.467,0.261s0.645,0.399,0.837,0.675c0.191,0.276,0.317,0.582,0.378,0.918c0.06,0.336,0.09,0.673,0.09,1.009
		c0,0.72-0.015,1.412-0.045,2.078S430.151,137.778,430.151,138.39z M426.678,139.848c0.3,0,0.563-0.06,0.792-0.18
		c0.228-0.12,0.42-0.264,0.576-0.432c0.155-0.168,0.281-0.339,0.378-0.514c0.096-0.174,0.162-0.32,0.197-0.44v-1.891
		c-0.695,0-1.266,0.036-1.71,0.108c-0.443,0.072-0.792,0.187-1.044,0.342c-0.252,0.156-0.426,0.352-0.521,0.585
		c-0.097,0.234-0.145,0.502-0.145,0.802c0,0.516,0.132,0.915,0.396,1.196C425.861,139.707,426.222,139.848,426.678,139.848z"/>
	<path fill="#6D7200" d="M441.726,140.748h-3.853v-0.45c0.12-0.072,0.268-0.146,0.441-0.225s0.381-0.147,0.621-0.207v-4.158
		c0-0.479-0.021-0.912-0.063-1.296s-0.12-0.705-0.233-0.963c-0.114-0.258-0.279-0.456-0.495-0.594
		c-0.216-0.139-0.498-0.207-0.847-0.207c-0.264,0-0.507,0.054-0.729,0.161c-0.223,0.108-0.42,0.253-0.594,0.433
		c-0.175,0.18-0.324,0.384-0.45,0.612c-0.126,0.228-0.225,0.468-0.297,0.72v5.292c0.191,0.06,0.375,0.123,0.549,0.188
		c0.174,0.066,0.345,0.147,0.513,0.243v0.45h-3.87v-0.45c0.168-0.084,0.354-0.162,0.559-0.233c0.204-0.072,0.414-0.139,0.63-0.198
		v-7.074l-1.188-0.144v-0.469c0.385-0.168,0.777-0.303,1.18-0.404c0.401-0.103,0.795-0.184,1.179-0.243h0.45v2.034h0.018
		c0.192-0.564,0.52-1.044,0.981-1.44c0.462-0.396,1.035-0.594,1.719-0.594c0.288,0,0.563,0.03,0.828,0.09
		c0.264,0.061,0.51,0.171,0.738,0.333c0.228,0.162,0.42,0.387,0.575,0.675c0.156,0.288,0.271,0.66,0.343,1.116
		c0.216-0.66,0.563-1.194,1.044-1.602c0.479-0.408,1.08-0.612,1.8-0.612c0.443,0,0.831,0.057,1.161,0.171s0.603,0.314,0.818,0.603
		c0.217,0.288,0.375,0.679,0.478,1.17c0.102,0.492,0.153,1.116,0.153,1.872v4.519c0.407,0.072,0.804,0.216,1.188,0.432v0.45h-3.87
		v-0.45c0.36-0.191,0.714-0.336,1.062-0.432v-4.482c0-0.432-0.021-0.815-0.063-1.151s-0.123-0.621-0.243-0.855
		s-0.288-0.414-0.504-0.54s-0.504-0.188-0.864-0.188c-0.575,0-1.022,0.197-1.341,0.594c-0.317,0.396-0.549,0.899-0.692,1.512v5.112
		c0.42,0.12,0.81,0.264,1.17,0.432V140.748z"/>
	<path fill="#6D7200" d="M448.674,139.722c0-0.359,0.113-0.647,0.342-0.863c0.228-0.217,0.521-0.324,0.882-0.324
		c0.372,0,0.672,0.107,0.9,0.324c0.228,0.216,0.342,0.504,0.342,0.863c0,0.349-0.114,0.63-0.342,0.847
		c-0.229,0.216-0.528,0.323-0.9,0.323c-0.36,0-0.654-0.107-0.882-0.323C448.787,140.352,448.674,140.07,448.674,139.722z"/>
	<path fill="#6D7200" d="M460.103,139.488c-0.216,0.42-0.566,0.771-1.053,1.053c-0.485,0.282-1.053,0.423-1.701,0.423
		c-0.708,0-1.322-0.111-1.845-0.333c-0.521-0.222-0.957-0.54-1.305-0.954c-0.349-0.414-0.609-0.911-0.783-1.494
		c-0.174-0.581-0.261-1.227-0.261-1.935c0-1.523,0.371-2.691,1.115-3.501s1.758-1.215,3.043-1.215c0.587,0,1.112,0.051,1.574,0.152
		c0.462,0.103,0.855,0.237,1.18,0.405c-0.036,0.396-0.103,0.84-0.198,1.332c-0.097,0.492-0.216,0.9-0.36,1.225h-0.485l-0.757-2.143
		c-0.084-0.06-0.18-0.104-0.288-0.135c-0.107-0.03-0.287-0.045-0.539-0.045c-0.816,0-1.446,0.297-1.891,0.891
		s-0.666,1.6-0.666,3.016c0,0.456,0.063,0.899,0.189,1.332c0.126,0.432,0.317,0.818,0.576,1.16c0.258,0.343,0.581,0.615,0.972,0.819
		c0.39,0.204,0.843,0.306,1.358,0.306c0.42,0,0.786-0.06,1.099-0.18c0.312-0.12,0.576-0.264,0.792-0.432L460.103,139.488z"/>
	<path fill="#6D7200" d="M461.543,136.248c0-0.756,0.099-1.425,0.297-2.007s0.482-1.074,0.854-1.477
		c0.372-0.401,0.819-0.707,1.342-0.918c0.521-0.209,1.101-0.314,1.736-0.314c0.744,0,1.386,0.114,1.926,0.342
		c0.54,0.229,0.981,0.549,1.323,0.963s0.594,0.909,0.756,1.485s0.243,1.218,0.243,1.926c0,1.512-0.384,2.676-1.151,3.492
		c-0.769,0.816-1.801,1.224-3.097,1.224c-0.72,0-1.344-0.111-1.872-0.333s-0.966-0.54-1.313-0.954
		c-0.349-0.414-0.609-0.911-0.783-1.494C461.63,137.602,461.543,136.956,461.543,136.248z M463.271,136.248
		c0,0.54,0.051,1.05,0.153,1.53c0.102,0.479,0.264,0.896,0.486,1.251c0.222,0.354,0.513,0.633,0.872,0.837
		c0.36,0.204,0.792,0.306,1.297,0.306c0.647,0,1.179-0.317,1.593-0.954c0.414-0.636,0.621-1.626,0.621-2.97
		c0-0.552-0.052-1.064-0.153-1.539c-0.103-0.474-0.261-0.888-0.477-1.242c-0.217-0.354-0.492-0.633-0.828-0.837
		s-0.738-0.306-1.206-0.306c-0.708,0-1.278,0.318-1.71,0.954C463.486,133.914,463.271,134.904,463.271,136.248z"/>
</g>
<g>
</g>
<g>
</g>
<g>
</g>
<g>
</g>
<g>
</g>
<g>
</g>
<g>
</g>
<g>
</g>
<g>
</g>
<g>
</g>
<g>
</g>
<g>
</g>
<g>
</g>
<g>
</g>
<g>
</g>
</svg>
