<?xml version="1.0" encoding="utf-8"?>
<!-- Generator: Adobe Illustrator 17.0.0, SVG Export Plug-In . SVG Version: 6.00 Build 0)  -->
<!DOCTYPE svg PUBLIC "-//W3C//DTD SVG 1.1//EN" "http://www.w3.org/Graphics/SVG/1.1/DTD/svg11.dtd">
<svg version="1.1" id="图层_1" xmlns="http://www.w3.org/2000/svg" xmlns:xlink="http://www.w3.org/1999/xlink" x="0px" y="0px"
	 width="480px" height="600px" viewBox="0 0 480 600" enable-background="new 0 0 480 600" xml:space="preserve">
<g opacity="0.2">
	<circle fill="#3399FF" cx="148.5" cy="86.5" r="10.5"/>
	<circle fill="#3399FF" cx="309.313" cy="159.687" r="7.687"/>
	<circle fill="#3399FF" cx="194" cy="115" r="4"/>
	<circle fill="#3399FF" cx="296.372" cy="87.999" r="1.499"/>
	<circle fill="#3399FF" cx="302.76" cy="107.373" r="2.622"/>
	<circle fill="#3399FF" cx="200.757" cy="89.316" r="1.316"/>
	<circle opacity="0.1" fill="#3399FF" cx="279.228" cy="126.772" r="3.772"/>
	<circle fill="#3399FF" cx="409.726" cy="138.266" r="3.266"/>
	<circle fill="#3399FF" cx="405.294" cy="156.831" r="1.166"/>
	<circle fill="#3399FF" cx="149.877" cy="134.742" r="4.199"/>
	<circle fill="#3399FF" cx="121.42" cy="129.104" r="2.333"/>
	<g opacity="0.8">
		<circle fill="#3399FF" cx="353" cy="120" r="12"/>
		<circle opacity="0.3" fill="#3399FF" cx="234" cy="83" r="5"/>
		<circle fill="#3399FF" cx="79.5" cy="151.587" r="4.5"/>
		<circle opacity="0.2" fill="#3399FF" cx="248.624" cy="127" r="5"/>
	</g>
	<circle fill="#3399FF" cx="321.87" cy="157.746" r="1.87"/>
	<circle fill="#3399FF" cx="309.076" cy="180.486" r="4.399"/>
	<circle opacity="0.3" fill="#3399FF" cx="348.569" cy="209.973" r="3.722"/>
	<circle fill="#3399FF" cx="397.968" cy="186.845" r="4.343"/>
	<g opacity="0.5">
		<circle fill="#3399FF" cx="285.5" cy="99.5" r="2.5"/>
		<circle fill="#3399FF" cx="397.341" cy="155.876" r="1.211"/>
		<circle fill="#3399FF" cx="347" cy="178.517" r="6"/>
		<circle fill="#3399FF" cx="338.291" cy="193.253" r="2.709"/>
		<circle fill="#3399FF" cx="234" cy="176.539" r="5"/>
	</g>
</g>
<path opacity="0.2" fill="#3399FF" d="M-51,187.86c109-52,165.505-31.755,286,0.07c132.466,34.987,223.473,38.821,302-8.184V645H-51
	V187.86z"/>
<g>
	<path opacity="0.05" fill="#000B38" d="M305.738,575c5.307,0,8.053-11.492,8.053-20.479L316,551.1v-15.865c0-3.474-6-3.074-6-6.671
		v-2.629c0-4.114,6-3.47,6-7.15v-8.849c0-3.348-6-3.075-6-6.615v-2.991c0-3.201,6-3.474,6-6.593V485.8c0-2.691-3-2.044-3-4.57
		c0-1.501,0-224.366,0-224.366c0-2.711,3-1.554,3-4.16v-1.287c0-106.47-47.758-175.674-47.758-175.674l-0.121-1.28L267.669,63.9
		l5.36-0.159l-0.726-1.907l-5.96-0.629L267.351,43h-53.676l1.114,18.391l-5.811,0.751l-0.685,1.753l5.378,0.082l-0.646,10.589
		l-0.341,1.306c0,0-48.684,69.074-48.684,175.545v1.287c0,2.606,3,1.449,3,4.16c0,0,0,222.866,0,224.366c0,2.526-3,1.879-3,4.57
		v7.937c0,3.118,6,3.392,6,6.593v2.991c0,3.541-6,3.267-6,6.615v8.849c0,3.681,6,3.036,6,7.15v2.629c0,3.596-6,3.197-6,6.671V551.1
		l2.894,3.421c0,8.987,3.431,20.479,8.737,20.479H305.738z"/>
	<path id="瓶盖" fill="#C1272D" d="M266.9,25c2.377,0,3.52,1.401,3.724,3.492c0,0,1.437,16.958,1.437,19.476
		c0,2.518-1.437,9.032-1.437,9.032h-59.879c0,0-1.437-6.513-1.437-9.032c0-2.518,1.437-19.522,1.437-19.522
		c0.205-2.091,1.347-3.447,3.724-3.447H266.9z"/>
	<g>
		<polygon fill="#053F00" points="314,479 166,479 166,472.607 207.957,373.138 166,264.895 166,259 314,259 314,264.895 
			272.408,374.235 314,472.607 		"/>
		<polygon fill="#FFFFFF" points="240,383.012 166,346.808 166,265 314,265 314,346.808 		"/>
		<path fill="#C1272D" d="M314,472H166V347h16.952c31.815,17,83.38,16,113.731,0H314V472z"/>
		<g>
			<polyline opacity="0.3" fill="#007F39" points="193.421,326.665 216.523,298.087 239.624,327 193,327 			"/>
			<polygon fill="#007F39" points="269.255,329 210.745,329 240,287.555 			"/>
			<polyline opacity="0.3" fill="#007F39" points="240,327 261.63,302.539 283.26,327 240,327 			"/>
		</g>
		<g>
			<path fill="#FFFFFF" d="M204.407,416.877c0,0.035,0.035,0.07,0.07,0.105c-0.527-0.035-0.316-0.211-0.492-0.421
				c-0.105-0.141-0.843-0.422-1.053-0.562c-0.948-0.386-1.931-1.545-2.212-1.545c-0.808-0.351-0.632-0.562-1.194-0.562
				c-0.667,0-1.159,0.632-2.106,0.632c-0.597,0.562-1.299,0.772-2.107,0.983c-0.421,0.07-0.702,0.421-1.124,0.632
				s-1.053,0.211-1.404,0.281c-0.421,0.141-0.632,0.562-0.948,0.772c-0.211,0.035-0.386,0.07-0.527,0.211
				c-1.299,0-1.686,1.123-2.317,1.123c-1.053,0-0.843-1.545-1.264-2.106c-0.316-0.422-0.737-0.843-0.737-1.334
				c0-1.194,3.827-0.211,4.108-1.756c0-0.948,0.21-2.423,0.21-2.949c0-0.07-0.316-0.843-0.527-0.843h-1.159
				c-0.105-0.07-0.21-0.07-0.421-0.07c-1.054,0-1.089,0.913-1.37,1.896c-0.281,0.772-0.526,1.475-0.737,2.247
				c-0.597,0.351-1.018,1.299-1.053,1.264c-0.878,1.756-2.598,2.773-3.476,3.651c-0.842,0.843-1.826,1.615-2.949,2.036
				c-0.316,0-0.421,0.035-0.421-0.21v-0.141c-0.175-0.176,1.088-0.667,1.545-1.124c1.439-1.439,2.879-2.527,3.722-4.635
				c0.211-0.562,0.632-1.334,0.632-1.966c0-0.07-0.141,0.07-0.105-0.491l0.105,0.28c0.702,0,0.281-1.931,0.632-2.738
				c0.21-0.843,0.21-1.686,0.316-2.528c0-0.14-0.035-0.245-0.035-0.351c0-0.141,0.035-0.211,0.141-0.387
				c0-0.21-0.105-1.158-0.105-1.369c-0.281-1.053,0.141-1.545-0.632-2.317c-0.386-0.035-0.843-0.456-1.264-0.843v-0.315l0.737-0.737
				c0.211-0.526,0-1.159,0.632-1.159c0.316-0.035,0.562,0.105,0.948,0.105c0.21,0,0.421,0,0.421-0.245
				c0-0.422-0.316-0.843-0.316-1.265c0-0.28,0.105-0.632,0.105-1.053l-0.316-3.582c0-2.703-0.597-2.212-1.264-3.37
				c0-0.632,1.685-1.159,2.212-1.159c1.404,0,2.001,1.37,3.371,1.37c0.105-0.07,0.351-0.105,0.526-0.211
				c0.492,0,0.983,0.141,1.51,0.105l0.211-0.211c0-0.597,0.035-0.843-0.351-1.264c0-0.105-0.492-0.527-0.492-0.632
				c-0.351-0.948,2.071-1.861,3.371-1.791c0.316,0,2.001,1.089,1.966,2.212l-0.07,0.421c0,0.211,0,0.843,0.281,0.843
				c1.439-0.105,0.527-1.193,1.194-1.475c0-0.421-1.053-0.737-1.053-1.264c0-0.316,0.491-0.526,0.702-0.737
				c0.175-0.456,0.983-0.737,1.475-0.737c0.386,0.141,0.667-0.211,1.088-0.211c0.562-0.07,2.212,0.422,2.212,1.475
				c0,0.316-0.316,0.527-0.421,0.737c-0.246,0.562-0.21,0.808-0.21,1.475l0.21,0.105h1.159c0.141-0.07,0.281-0.105,0.316-0.211
				c0.176,0,0.421,0.211,0.737,0.211s0.527-0.421,0.632-0.632c0.386,0,0.702-1.475,1.369-1.475c0.527,0,0.737,0.421,1.053,0.632
				c0.105,0.105,0.948,0.526,1.088,0.632c0.211,0.211,0.632,1.054,0.632,1.369c0,0.316-0.141,0.843-0.632,0.843
				c-0.21,0-0.457-0.104-0.667-0.104v0.632c0.316,1.79,0.527,5.547,0.527,6.425c0,0.667-0.281,1.51-0.632,2.142
				c-0.246,0.281-1.369,1.054-1.369,1.265c0,0.14,0,0.28,0.21,0.21c0.105,0,0.843-0.21,0.948-0.21c1.053,0,1.264-1.054,2.106-1.054
				c0.141,0,0.702,0.176,0.983,0.421c0.246,0.281,1.053,1.475,1.053,1.58c-0.035,0.281,0.07,1.019-0.421,1.159
				c-2.106,0-2.353-0.105-3.827-0.105c-0.772,0-1.264-0.316-2.106-0.211l-0.211,0.105h-1.791l-0.316,0.105
				c-0.21,0-1.088,0-1.369-0.316c-0.141,0-0.211,0.07-0.316,0.105c-1.896,0-2.879-0.105-6.46-0.105
				c-0.421,0-1.053-0.105-1.264-0.105c-0.07,0-0.632,0.105-0.702,0.105h-3.827c-0.526,0-1.053,0.211-1.053,0.737
				c0,1.159,1.615,1.054,2.528,1.054c0.843,0,0.772-0.176,1.159-0.316c-0.386,0.211,2.528,0.422,2.949,0.422
				c0.176,0,0.808-0.422,1.053-0.422c0.211-0.07,0.808,0.211,1.264,0.211c2.353,0,2.423-0.211,3.09-0.211
				c0.281-0.035,0.702,0.211,1.159,0.211c0.105,0,0.316-0.105,0.421-0.105c0.842,0,1.58,0.105,2.317,0.105
				c0.527,0,0.843,0,1.37-0.105c0.632-0.105,0.948-0.843,1.58-0.843c0.421,0,1.053,0.316,1.404,0.632
				c0.07,0.105,0.07,0.633,0.07,0.737c0,0.211-0.211,0.948-0.421,0.948l-0.316-0.105h-3.582c0-0.105-0.105-0.105-0.21-0.105
				c-0.211,0-0.211,0.211-0.421,0.211c-0.211,0-4.178-0.105-4.635-0.105c0.035-0.035-1.299,0.105-1.475,0.105
				c-0.246,0.07-0.526-0.211-0.772-0.211c-0.21,0-0.281,0-0.421,0.105h-1.685l-0.211,0.105c-0.421,0-0.842-0.105-1.124-0.105
				c-0.21,0-0.421,0.105-0.632,0.105c-0.632,0-1.299-0.105-1.826-0.105c-0.316,0-0.527,0.105-0.843,0.105
				c-0.21,0-0.21-0.105-0.421-0.105c-1.334-0.035-1.58,0.422-1.58,1.194c0,0.28,0,0.632,0.21,0.913c0.527,0,2.949,0.21,3.476,0.21
				c0.14,0.105,0.597-0.07,1.053-0.07c0.351,0,0.632,0.07,0.843,0.07c0.21,0,0.597-0.07,0.842-0.07c1.65,0,3.336-0.035,4.986,0.07
				c0.07,0,0.737,0.141,0.843,0.141c1.229-0.176,2.598-0.211,3.792-0.211c0.07-0.07,0.21,0.141,0.316,0.211l0.21-0.141
				c1.159,0,1.791,0.141,2.317,0.141c0.948-0.211,1.58-0.351,2.247-0.843c0.07-0.141,0.843-0.772,0.913-0.878
				c0.526-0.21,1.194,0.702,1.826,1.089c0.421,0.281,0.632,0.491,0.632,1.054c0,0.28-0.421,0.912-0.843,0.912h-2.668
				c-0.352-0.105-1.159-0.21-2.001-0.21h-0.105c-0.105,0-0.526,0.21-0.632,0.21c-0.105,0.737,0.843,0.948,0.843,1.475
				c0,1.265-2.142,1.229-3.055,2.107c0.491,1.334,2.387,1.825,3.371,1.825c0.07-0.281,0.597,0.421,0.948,0.421
				c0.141,0,0.211,0.141,0.211,0.141c0.491-0.07,1.861,0.035,1.826,0.211c0.491,0.211,2.177,0.07,2.177,0.702
				c0,0.562-0.913,0.562-1.264,0.772c-0.913,0.667-2.001,1.931-2.528,1.931c-0.21,0-0.632-0.034-0.737-0.034
				s-0.948-0.562-1.053-0.562c-1.053-0.21-1.861-0.843-2.739-1.334h-0.21c0.035,0,0.07-0.07,0.07-0.105
				c0-0.07-0.035-0.105-0.07-0.105S204.407,416.807,204.407,416.877z M190.046,393.845c0.843,0,1.615,0.105,2.317-0.211
				c0-0.315,0.632-1.018,0.632-1.299c0-0.176-0.07-0.632-0.07-0.632h-2.879c-0.526,0-0.526,0.526-0.526,0.948
				C189.52,393.002,189.52,393.704,190.046,393.845z M190.362,397.496c0.843,0,1.545,0.211,2.001,0.211
				c0.457,0.141,0.562-0.316,0.562-0.843v-0.422c0-0.104-0.105-1.264-0.772-1.264c-0.246,0-0.492,0.141-0.737,0.141
				c-1.124,0-1.791-0.211-1.791,0.913C189.625,396.653,189.73,397.426,190.362,397.496z M191.311,401.429
				c0,0,1.159-0.105,1.685-0.105c0.141,0,0.562,0.105,0.632,0.105c0.457,0.105,1.053-0.211,1.685-0.211
				c0.421,0,0.772,0.105,1.194,0.105c0.843,0,1.545-0.105,2.388-0.105c0.632,0,1.194-0.035,1.404,0.105
				c0.421,0,0.843-0.316,1.264-0.316c0.948,0,1.72,0.422,2.844,0.422c0.21-0.105,0.737-0.211,0.737-0.316v-1.79
				c0-0.141-0.105-0.352-0.21-0.352c-0.246,0.105-0.211-0.211-1.58-0.211c-0.492-0.035-0.772,0.211-1.264,0.211
				c-0.632,0-1.159-0.281-1.791-0.281c-0.351,0-0.772,0.211-1.053,0.211c-0.211,0-0.351-0.141-0.562-0.141
				c-0.21,0-0.281,0-0.491,0.141h-2.528l-0.21,0.07c-0.141,0-0.527-0.211-0.772-0.211c-0.07,0-0.421,0.141-0.492,0.141
				c-0.526,0.07-0.983-0.176-1.404-0.141c-0.035,0.035-1.685,0.352-2.528,0.352c-0.421,0.211-0.421,1.264-0.421,1.686
				C189.836,401.218,190.889,401.429,191.311,401.429z M194.4,413.472c1.475,0,4.213-0.246,4.213-0.983
				c0-0.772-0.351-1.966-0.562-2.949c-0.21-0.211-0.702-0.281-0.913-0.281c-0.14,0-1.264,0.07-1.404,0.07
				c-0.21,0-1.334,0.141-1.475,0.211l-0.07,0.352c0,0.456-0.351,2.703-0.21,2.738C194.014,412.979,194.049,413.472,194.4,413.472z
				 M197.56,397.496c1.088,0,0.913-0.211,0.913-1.054c0-0.21,0.21-0.421,0.21-0.632c0-0.456-0.702-0.843-1.264-0.843
				c-1.229,0-1.475,0.457-1.475,1.054C195.945,397.285,196.296,397.496,197.56,397.496z M196.718,392.651
				c0.21,0.562,0.21,1.193,1.053,1.193c0.632,0,1.053-0.421,1.053-1.054c0-0.21,0-1.299-0.421-1.299h-1.896
				c-0.141,0-0.175,0.105-0.175,0.246c0,0.07,0.035,0.176,0.035,0.176C196.121,392.019,196.718,392.44,196.718,392.651z
				 M201.984,411.575c0.176,0.141,0.386-0.175,0.527-0.351c0.211,0.07,1.791-1.194,1.791-1.896l-0.421-0.21
				c-1.369,0.14-3.054,0.14-4.354,0.14c-0.105,0.035-0.281,0.07-0.21,0.211C199.316,410.171,201.247,411.575,201.984,411.575z
				 M202.827,397.426c1.018,0,2.528,0.07,2.528-0.843c0-0.351,0-1.475-0.526-1.475c-0.105,0-0.421,0.07-0.527,0.07
				c-0.351,0-0.808-0.07-1.194-0.07c-0.807,0-1.229,0.316-1.229,1.686C201.879,397.285,202.511,397.426,202.827,397.426z
				 M202.722,394.126c0.526,0,0.948-0.492,1.475-0.492c0.316,0,0.632,0.07,0.948,0.07c0.035,0.211,0.316-0.315,0.316-0.632
				c0-0.667-0.281-1.58-0.948-1.791c-1.475,0-1.088-0.07-1.58,0.105h-0.351c-0.421,0-0.597,1.089-0.597,1.826v0.211
				C201.984,393.81,201.949,394.126,202.722,394.126z"/>
			<path fill="#FFFFFF" d="M213.181,418.809c0.667-0.176,1.124-0.737,1.755-1.054c0.421,0,1.545-0.913,1.826-0.913
				c0.843-0.843,2.668-1.931,3.792-3.581c0.386-0.386,0.492-1.019,0.843-1.193c0.175,0.175,0.808-1.475,2.036-3.16l0.211-0.211
				l0.492-1.58c0.562-1.369,1.193-2.633,1.193-4.143c0-0.281,0-0.702-0.316-0.702c-0.386,0-2.633,0.07-2.773,0.07
				c-1.545,0.421-3.09,0.491-4.635,0.877c-0.492,0.105-0.913,0.527-1.545,0.527c-0.983,0-2.247-1.475-2.458-1.826
				c0.035-0.386-0.07-0.983,0.281-1.264c0.562,0,0.948-0.035,1.404,0.141h4.424c0.211,0.07,0.211,0.07,0.421,0.07
				c0.211,0,0.421-0.211,0.632-0.211c0.14,0,0.983,0.141,1.053,0.141c0.14,0,0.842-0.141,0.983-0.141
				c0.316,0.176,0.983-0.211,1.58-0.211c0.983-0.176,1.58-0.07,1.58-2.106c0-1.124,0.07-2.809-0.632-2.809
				c-0.948,0-1.896,0.21-2.528,0.21c-0.141,0-0.421-0.14-0.562-0.14c-1.124,0.14-1.896,0.632-3.02,0.632
				c-1.019,0-0.913-0.387-2.037-1.124c-0.07-0.141-0.421-0.491-0.492-0.562c0-0.07-0.07-0.352,0.07-0.352
				c0.281,0,0.808-0.104,1.264,0.141c0.21,0.07,0.14,0.281,0.421,0.281l0.14-0.281c0.246,0,0.737,0.07,1.545,0.07
				c0.211,0,2.317-0.211,2.528-0.211c0.843,0,0.772,0,1.054,0.141c0.14,0,0.772-0.21,0.877-0.21c0.597,0,1.37-0.211,1.37-0.633
				v-2.879l0.105-0.07l-0.21-0.21v-1.615c-0.105-0.211-0.176-0.457-0.21-0.702c0-0.422-1.194-0.983-1.159-1.159
				c-0.035-0.035-0.035-0.141,0.105-0.245h2.212c0.351,0,0.667-0.246,1.054-0.211c0.105,0,0.737,0.421,0.842,0.421
				c0.772,0,0.737-0.07,1.791,0.983c0.14,1.299-1.054,1.545-1.37,2.106c-0.351,0.492-0.421,2.177-0.526,2.599
				c-0.07,1.193,0.562,1.193,1.475,1.193c0.737,0,2.212,0,2.879-0.351c0.492-0.633,1.475-0.948,2.106-1.124
				c0.843,0.211,1.756,1.475,1.756,2.317c0,0.562-0.07,0.772-0.632,0.983c-0.632,0-1.264-0.211-1.896-0.211l-0.421,0.07
				c-0.211-0.035-1.088,0.07-1.686-0.07h-3.581c-0.632,0-0.421,2.177-0.737,3.02v1.686c0,0.386,0.351,0.421,0.702,0.421
				c1.053,0,1.018-0.07,1.51-0.07c1.369-0.141,2.738-0.21,4.143-0.632c0.07,0,0.702-0.351,0.842-0.351
				c0.913,0,1.37-0.913,2.317-0.913c0.421,0.07,1.053,0.843,1.334,1.123c0.105,0.632,1.264,1.089,1.264,1.826
				c0,0.632-0.281,0.913-0.842,0.913c-1.37,0-2.915-0.492-4.284-0.492c-1.194,0-2.528-0.21-3.827-0.21
				c-1.334,0-1.615,0.421-1.615,0.562c0,0.386,0.07,1.229,0.246,1.755c0.351,0.457,0.351,1.124,0.632,1.58
				c1.088,1.265,2.107,2.528,3.16,3.687c1.931,1.615,4.002,2.634,6.46,3.688c0.07,0,0.913,0.562,1.054,0.562
				c0.211,0.07,1.686,0.632,2.212,0.702c0.104,0,1.054,0.351,1.159,0.351l0.21,0.07c0,0.772-1.79,0-2.528,0.562
				c-2.247,0-3.3,1.896-4.985,1.896c-1.053,0-1.334-0.562-2.106-1.193c-0.492-0.422-0.913-0.633-1.475-1.054
				c-0.527-0.421-1.229-1.51-1.475-1.896c-1.299-0.878-2.528-3.441-2.844-5.794c0-0.982-0.14-1.896-0.421-2.738v-2.036
				c0-0.281-0.316-0.281-0.526-0.281c-0.843,0-0.843,2.106-0.948,2.738c-0.21,1.967-0.632,2.212-1.053,3.055
				c-0.632,1.159-1.159,2.528-2.106,3.512l-1.826,1.755c-0.772,1.229-2.282,2.002-3.441,2.879c-1.65,1.265-4.494,3.23-6.46,3.582
				c-0.07-0.105-0.141-0.105-0.141-0.211C212.092,419.194,212.9,419.124,213.181,418.809z M228.489,388.227
				c0.316,0,0.421-0.351,0.421-0.632l-0.211-0.141c-0.316,0-0.632,0.211-0.632,0.562
				C228.067,388.227,228.278,388.227,228.489,388.227z"/>
			<path fill="#FFFFFF" d="M244.917,413.401v-5.828c0-1.335-0.21-4.846-0.21-5.196c-0.316-0.843,0.035-2.317-0.844-3.055
				c-0.21-0.211-1.053-0.141-1.053-0.562c0-0.456,1.51-1.475,2.212-1.475c0.105,0,0.983,0.387,1.054,0.422
				c0.105,0,0.526,0.562,0.631,0.562l0.422,0.07c0.316,0.141,1.686,0.632,1.686,1.054c0,0.667-0.527,1.193-0.737,1.825
				c-0.211,0.422-0.211,0.948-0.211,1.369c0,0.422,0.315,0.632,0.421,0.948c0,3.371,0,4.038-0.105,4.74l-0.104,0.21v2.949
				c0,1.124,0.948,0.913,1.79,0.983c1.439-0.211,2.774-0.07,4.214-0.28c-0.246-0.281,1.054,0.667,1.054-2.599
				c0.035-0.141-0.07-0.913-0.07-1.334c0,0,0.07-0.422,0.07-0.562c-0.035-0.457,0.035-1.545-0.07-2.423v-8.778
				c0-0.069-0.141-1.123-0.141-1.475c0-2.809-0.281-3.861-1.896-5.161c-0.176-0.491,1.615-1.755,2.528-1.896
				c1.159,0.141,2.353,1.58,3.089,1.58c0.422,0.21,1.335,0.421,1.335,1.053c0,0.316-0.211,0.633-0.28,0.843
				c0.104,0.422-0.984,1.265-0.984,1.896c0,1.299-0.175,2.527-0.28,3.792c-0.141,0.667-0.245,0.877-0.351,1.614
				c0,0.211,0.141,2.002,0.141,2.213c0,0.947,0,1.896-0.141,2.844c0,0.105-0.07,0.526-0.07,0.632c0,1.51,0.211,3.581,0.211,4.459
				v0.07l-0.141,0.351c0,0.702-0.07,1.615,0.21,2.177c0.246,0.527,1.791,0.422,2.563,0.422c0.562,0.105,2.316-0.07,3.055-0.07
				l0.526,0.07c0.315,0.176,0.28-0.772,0.421-1.054v-2.527c0-0.07,0.211-0.702,0.211-0.843c0-0.737-0.211-1.615-0.211-2.423v-1.721
				c0-0.737,0-1.439-0.105-2.177c0-0.421-0.351-1.685-0.631-2.142c-0.316-0.456-1.404-0.491-1.404-1.123
				c0,0.104,1.51-1.405,2.773-1.405c0.421,0,0.736,0.211,1.158,0.422c0.176,0.141,0.878,0.667,1.158,0.667
				c0.07,0,0.07-0.035,0.105-0.035c0.843,0.352,1.58,0.632,1.58,1.686c0,0.632-0.352,1.158-0.842,1.51
				c0,0.315-0.141,2.703-0.211,2.738c-0.035,0.211,0.105,2.423,0.105,4.144c0,0.21-0.211,0.702-0.211,0.912l0.105,0.211
				c0,1.966,0.632,5.653-1.264,6.812l-1.686,1.475c-0.105,0.07-0.211,0.07-0.422,0.07c-0.562,0-0.632-0.632-0.632-1.193v-0.492
				c0-0.211-0.105-1.123-0.105-1.334c0-0.526-1.931-0.421-2.738-0.421c-5.583,0-7.619,0.14-11.306,0.28
				c-1.334,0-2.107-0.035-2.107,1.896c0,0.491-2.527,2.247-2.844,2.247c-0.701,0-0.701-0.843-0.736-1.265
				C244.812,415.648,244.707,414.489,244.917,413.401z"/>
			<path fill="#FFFFFF" d="M267.666,419.581l1.264-1.265c0.878-0.421,1.158-1.193,1.826-1.825c0.456-0.422,1.088-0.632,1.475-1.124
				c0.246-0.737,0.632-0.772,1.053-1.053c0.843-0.772,0.633-1.194,1.686-1.615c0-0.07,0.316-0.597,0.316-0.702
				c0.771-1.054,0.701-0.843,1.053-0.983c0-0.526,1.686-2.493,1.686-3.476c0-0.105-0.07-0.141-0.141-0.141
				c-0.843,0-1.58,0.246-2.387,0.351c-0.352-0.175-0.633,0.211-0.949,0.211c-1.088,0.141-2.352,0.035-3.37,0.422
				c-0.141,0-0.562-0.105-0.632-0.105c-0.176-0.598-0.422-1.089-0.422-1.58c0.492-0.316,1.861-0.316,2.107-0.316
				c0.105,0,1.264,0.105,1.369,0.105c2.914,0,2.738-0.211,3.791-0.211l0.316,0.105c1.299,0,0.703-1.158,2.353-1.158
				c0.211,0,1.756,0.737,1.756,0.947v0.105l-2.106,2.107c-1.089,0.526-1.615,2.142-2.318,2.949c-1.193,1.51-1.475,1.158-1.475,1.79
				l-3.054,3.09c-0.526,0.211-0.737,0.702-1.265,1.054c-0.456,0-0.982,0.632-1.264,0.912c-0.141,0.141-0.772,0.422-0.842,0.562
				c-0.562,0.421-1.194,1.123-1.826,1.334c0,0-0.035,0.035-0.211-0.07L267.666,419.581z M281.604,417.264
				c1.686-0.562,1.404-3.722,1.404-3.933c0-0.07,0.211-0.913,0.211-1.054v-2.212c0-0.105-0.211-0.421-0.211-0.526l0.07-0.421
				c0-1.229-0.421-2.072-0.421-2.739c0-0.07,0.07-0.386,0.141-0.526c0.035-0.352-0.176-0.281-0.141-0.632
				c0-0.105,0.211-0.527,0.211-0.632c0.07-2.072-0.141-1.756-0.633-2.247c-1.51,0-2.668,0.14-4.002,0.14
				c-0.352,0.246-0.562,0.772-0.948,1.054c-0.351-0.07-0.632,0.948-1.265,0.948c-0.351-0.702-0.736-1.369-0.842-2.142
				c0-1.265,0-1.826-0.211-2.599c0-0.141,0.105-0.983,0.105-1.054c0-0.14-0.105-0.562-0.105-0.632c0-1.86-0.422-3.02-0.422-4.564
				c0-0.562,0-0.842,0.633-0.842c0.211,0,0.316,0.21,0.526,0.28c0.843,0.492,2.247,0.843,2.844,0.843c1.51,0,1.65-1.264,2.423-2.317
				c0.352-0.421,0.632-0.702,0.843-1.123c0.386-1.089,1.193-1.932,1.193-3.301c0.281-0.281,0.491-0.421,0.913-0.491
				c0.352-0.141,0.352-0.772,0.772-0.772s0.913,0.562,1.124,0.772c0.491,0.351,1.404,0.28,1.264,1.123
				c0,0.07-0.703,0.983-0.878,0.983h-0.035c-0.632,0.491-1.054,1.264-1.825,1.545l-1.335,1.404
				c-0.386,0.702-0.983,0.632-0.983,1.264c0,0.281,0,0.597,0.211,0.492c0.772-0.211,1.264-0.07,2.037-0.211
				c1.264-0.246,2.492-0.035,3.791-0.281c1.686,0,1.756-0.667,2.528-1.053c0.28,0,0.211-0.281,0.211-0.562
				c0.14-0.21,0.772-1.123,0.983-1.123c0,0,0.28,0.07,0.421,0.211c0.07,0,0.702,0.491,0.843,0.491
				c0.702,0.491,1.158,0.597,1.475,1.475c0.035,0.281-0.176,0.562-0.352,0.632c0,0.352-0.211,1.615-0.211,1.967
				c0,0.421,0,0.702-0.07,1.123c-0.14-0.386-0.21,2.247-0.21,4.846c0,0.667-0.386,1.229-0.843,1.685
				c-0.912,0.667-0.982,1.194-1.826,1.194c-0.351,0-0.807-0.527-0.842-0.843c-0.492-0.387,0.246-1.054-1.054-1.054
				c-3.511,0-3.581,0.316-4.354,0.492v0.351l1.054,1.054c0,0,0.141,0.632,0.141,0.843c0,0.877,0.386,3.159,0.28,3.37
				c0,0.105-0.07,0.422-0.07,0.526c-0.07,2.669,0.21,4.425,0.21,6.531c0,1.193-0.21,2.457-0.982,3.511
				c0,0.07-0.281,0.281-0.281,0.421c-0.211,0.211-1.896,1.265-2.246,1.265c-0.633,0-0.738-1.58-1.265-1.896
				c-0.105-0.315-0.737-0.562-0.702-0.632C280.902,417.264,281.395,417.334,281.604,417.264z M278.129,401.499
				c0.702,0,1.475-0.07,2.212-0.07c1.229,0,2.282-0.422,3.581-0.422c0.562-0.104,2.247,0.105,2.914,0.105
				c1.686,0,1.615-0.245,2.072-0.245c0.561-0.07,0.771,0,0.982-0.492c0-0.562,0.422-0.982,0.422-1.686
				c0-0.421-0.141-0.982-0.141-1.475c-0.07,0.07,0.421-0.597,0.421-1.896c0-0.526,0-0.913-0.07-1.404
				c-0.351,0-0.526-0.352-1.825-0.352c-0.07,0-0.422,0.141-0.492,0.141c-1.334,0-2.914,0.352-4.143,0.352h-1.229
				c-1.019,0-0.598,0.14-2.914,0.14c-0.984,0.633-2.949,0.105-2.949,1.124c0,0.211,0,0.421,0.104,0.632
				c0,0.246-0.21,1.686,0.843,1.686c0.211-0.176,1.018-0.141,1.58-0.141c1.158,0,1.756-0.491,2.738-0.491h1.896
				c0.141,0,0.842-0.141,1.053-0.141c0.527,0,2.178-0.035,2.317-0.211c0.07,0.176,1.966-0.386,1.966,0.562
				c0,0.281-0.421,0.492-0.771,0.492h-2.528c-0.386,0-1.194,0.351-2.036,0.351c-0.07,0-0.492-0.14-0.633-0.14
				c-0.666-0.035-1.264,0.21-1.966,0.21c-0.245,0-0.597-0.141-0.772-0.07l-3.055,0.492c-0.176-0.035-0.211,0.421-0.211,1.264
				c-0.105,0-0.21,0.141-0.21,0.211C277.602,399.849,277.391,401.499,278.129,401.499z M287.819,405.888
				c0-0.035,0.035-0.141,0.104-0.141c0.281,0.316,0.773,0.843,1.194,0.843c0.176,0.035,0.28-0.035,0.421-0.105l0.211,0.105
				c0.633-0.632,1.404-0.948,2.037-1.475c0.28-0.316,1.334-1.686,1.896-1.791c0.315,0,0.737-0.105,1.124-0.105
				c0.771,0,1.475,1.58,1.475,2.212c0,0.105,0,0.211-0.07,0.211c-0.948,0-1.686,0.843-2.669,0.843
				c-1.019,0.702-3.229,0.491-3.229,1.896c0,1.158,2.598,2.212,2.598,2.212c1.264,1.053,3.547,1.825,5.091,1.825
				c0.105,0,0.526,0.281,0.632,0.281c0.562,0,1.58-0.176,1.58,0.351c0,0.457-0.842,0.632-1.158,0.913
				c-0.948,0.878-2.002,1.615-3.195,2.247c-0.912-0.141-1.264-0.983-1.896-1.475c-0.912-0.421-1.614-0.983-2.316-1.686
				c-0.598-0.562-1.089-0.737-1.475-1.404c-0.808-0.28-1.019-0.737-1.334-1.369c0-0.316-0.844-0.772-0.633-0.843
				c-0.105-0.176-0.351-3.266-0.351-3.266C287.854,406.099,287.819,405.993,287.819,405.888z"/>
		</g>
		<g>
			<path fill="#FFFFFF" d="M293.871,385.921c0-2.387,1.368-3.754,3.755-3.754c2.388,0,3.756,1.368,3.756,3.754
				c0,2.388-1.368,3.756-3.756,3.756C295.239,389.677,293.871,388.309,293.871,385.921z M300.554,385.921
				c0-1.829-1.098-2.927-2.928-2.927c-1.83,0-2.927,1.098-2.927,2.927c0,1.83,1.098,2.928,2.927,2.928
				C299.456,388.849,300.554,387.751,300.554,385.921z M298.018,383.717c1.159,0,1.421,0.532,1.421,0.976
				c0,0.81-0.95,1.098-0.95,1.246c0,0.114,1.124,0.932,1.124,2.065c0,0.053-0.026,0.061-0.14,0.061h-0.836
				c-0.104,0-0.2,0.018-0.227-0.061c-0.104-0.853-0.558-1.655-0.74-1.655c-0.174,0-0.584,0.218-0.584,0.506
				c0,0.4,0.209,1.115,0.209,1.149c0,0.088-0.148,0.061-0.2,0.061h-0.784c-0.113,0-0.183,0.018-0.218-0.087
				c-0.096-0.278-0.122-1.429-0.122-1.769l0.052-1.551c0.018-0.199,0.061-0.609,0.14-0.775c0.052-0.114,0.096-0.166,0.227-0.166
				H298.018z M298.41,384.797c0-0.323-0.339-0.453-0.645-0.453c-0.514,0-0.741,0.183-0.741,1.08c0,0.114,0.009,0.323,0.183,0.323
				C297.4,385.747,298.41,385.286,298.41,384.797z"/>
		</g>
		<g>
			<path fill="#FFFFFF" d="M186.283,435.473l-2.235-7.375c-0.104-0.37-0.177-0.639-0.429-0.865c-0.192-0.144-0.34-0.247-0.34-0.597
				c0-0.639,0.474-0.598,0.785-0.598h3.656c0.326,0,0.814-0.041,0.814,0.618c0,0.309-0.163,0.474-0.326,0.617
				c-0.163,0.124-0.281,0.206-0.281,0.495c0,0.268,0.074,0.535,0.148,0.782l1.835,5.83v4.758c0,0.763-0.015,0.887,0.503,1.113
				c0.192,0.082,0.326,0.268,0.326,0.556c0,0.598-0.489,0.639-0.548,0.639h-4.188c-0.06,0-0.548-0.041-0.548-0.639
				c0-0.288,0.133-0.474,0.326-0.556c0.518-0.227,0.503-0.351,0.503-1.113V435.473z M189.747,431.785l0.77-2.39
				c0.119-0.35,0.222-0.68,0.222-1.092c0-1.235-1.007-0.782-1.007-1.627c0-0.742,0.607-0.639,0.962-0.639h1.643
				c0.34,0,0.754,0.041,0.754,0.659c0,0.35-0.163,0.494-0.37,0.618c-0.607,0.35-0.77,0.659-1.051,1.504l-1.45,4.429L189.747,431.785
				z"/>
			<path fill="#FFFFFF" d="M198.01,439.139c0,0.763-0.015,0.887,0.503,1.113c0.192,0.082,0.326,0.268,0.326,0.556
				c0,0.598-0.489,0.639-0.548,0.639h-4.188c-0.06,0-0.548-0.041-0.548-0.639c0-0.288,0.133-0.474,0.326-0.556
				c0.518-0.227,0.503-0.351,0.503-1.113v-10.794c0-0.762,0.015-0.886-0.503-1.112c-0.192-0.082-0.326-0.268-0.326-0.556
				c0-0.598,0.488-0.639,0.548-0.639h4.188c0.059,0,0.548,0.041,0.548,0.639c0,0.288-0.133,0.474-0.326,0.556
				c-0.518,0.227-0.503,0.351-0.503,1.112V439.139z"/>
			<path fill="#FFFFFF" d="M204.347,441.446h-3.759c-0.326,0-0.696-0.041-0.696-0.639c0-0.288,0.133-0.474,0.326-0.556
				c0.518-0.227,0.503-0.351,0.503-1.113v-10.794c0-0.309,0.029-0.865-0.252-0.988c-0.296-0.145-0.577-0.206-0.577-0.721
				c0-0.536,0.37-0.598,0.666-0.598h3.789V441.446z M205.013,426.038c2.516-0.041,4.618,2.39,4.795,7.704
				c0.163,4.841-2.338,7.704-4.795,7.704v-1.194c0.903-0.165,0.947-1.34,0.947-2.122v-8.775c0-0.783-0.044-1.957-0.947-2.122
				V426.038z"/>
			<path fill="#FFFFFF" d="M213.928,431.25l-1.391,7.045c-0.237,1.256-0.03,1.606,0.474,1.915c0.237,0.145,0.444,0.269,0.444,0.68
				c0,0.577-0.474,0.557-0.77,0.557h-1.702c-0.296,0-0.829-0.021-0.829-0.618c0-0.494,0.251-0.474,0.577-0.7
				c0.311-0.227,0.71-0.7,0.992-2.163l1.776-9.043h0.044L213.928,431.25z M215.512,437.45h-2.161l0.207-1.195h1.806l-1.495-9.104
				l0.192-1.112h3.271l2.22,13.019c0.089,0.577,0.104,0.969,0.518,1.216c0.207,0.123,0.37,0.268,0.37,0.639
				c0,0.556-0.533,0.535-0.814,0.535h-3.686c-0.296,0-0.726-0.041-0.726-0.577c0-0.329,0.089-0.433,0.281-0.576
				c0.385-0.31,0.444-0.453,0.311-1.257L215.512,437.45z"/>
			<path fill="#FFFFFF" d="M230.882,439.139c0,0.763-0.015,0.887,0.503,1.113c0.192,0.082,0.326,0.268,0.326,0.556
				c0,0.598-0.488,0.639-0.548,0.639h-4.188c-0.059,0-0.548-0.041-0.548-0.639c0-0.288,0.133-0.474,0.326-0.556
				c0.518-0.227,0.503-0.351,0.503-1.113v-10.794c0-0.762,0.015-0.886-0.503-1.112c-0.192-0.082-0.326-0.268-0.326-0.556
				c0-0.598,0.489-0.639,0.548-0.639h4.188c0.06,0,0.548,0.041,0.548,0.639c0,0.288-0.133,0.474-0.326,0.556
				c-0.518,0.227-0.503,0.351-0.503,1.112V439.139z M236.462,439.201c0.133,0.453,0.178,0.803,0.518,1.029
				c0.222,0.145,0.355,0.269,0.355,0.659c0,0.598-0.489,0.557-0.785,0.557h-3.715c-0.34,0-0.785,0-0.785-0.639
				c0-0.68,0.607-0.556,0.607-1.009c0-0.165-0.074-0.475-0.118-0.618l-0.918-3.832c-0.089-0.392-0.192-0.823-0.192-1.256
				s0.163-0.701,0.34-1.051l1.717-3.399c0.207-0.391,0.385-0.803,0.385-1.298c0-0.556-0.208-0.844-0.562-1.05
				c-0.237-0.145-0.459-0.227-0.459-0.639c0-0.639,0.415-0.618,0.725-0.618h2.531c0.355,0,0.784,0.021,0.784,0.68
				c0,0.474-0.281,0.618-0.547,0.762c-1.021,0.536-1.362,1.318-1.983,2.493l-0.281,0.535L236.462,439.201z"/>
			<path fill="#FFFFFF" d="M242.713,426.924c-0.695,0.35-0.754,0.968-0.754,1.483v10.67c0,0.516,0.059,1.133,0.754,1.483v1.194
				c-3.137-0.391-4.603-3.913-4.603-8.013s1.465-7.622,4.603-8.014V426.924z M243.379,440.561c0.696-0.351,0.756-0.968,0.756-1.483
				v-10.67c0-0.516-0.06-1.134-0.756-1.483v-1.195c3.139,0.392,4.604,3.914,4.604,8.014s-1.465,7.622-4.604,8.013V440.561z"/>
			<path fill="#FFFFFF" d="M254.396,441.755c-1.17,0-2.072-0.021-3.094-0.803c-1.332-1.03-1.51-1.813-1.51-2.843v-9.765
				c0-0.762,0.016-0.886-0.503-1.112c-0.192-0.082-0.325-0.268-0.325-0.556c0-0.598,0.488-0.639,0.547-0.639h4.189
				c0.059,0,0.547,0.041,0.547,0.639c0,0.288-0.133,0.474-0.326,0.556c-0.518,0.227-0.502,0.351-0.502,1.112v9.908
				c0,0.206-0.134,1.834,0.977,2.287V441.755z M257.045,429.293c-0.236-2.575-1.184-1.771-1.184-2.657
				c0-0.639,0.607-0.598,0.77-0.598h1.688c0.163,0,0.77-0.041,0.77,0.598c0,0.886-0.947,0.082-1.184,2.657v7.766
				c-0.119,3.398-1.88,4.635-2.842,4.655v-1.215c1.361-0.577,1.895-1.648,1.982-3.481V429.293z"/>
			<path fill="#FFFFFF" d="M261.269,429.91h0.03l0.828,2.061v6.221c0.236,2.575,1.184,1.771,1.184,2.657
				c0,0.639-0.606,0.598-0.77,0.598h-1.688c-0.162,0-0.77,0.041-0.77-0.598c0-0.886,0.947-0.082,1.185-2.657V429.91z
				 M268.98,436.461v4.985h-2.206l-5.417-12.998c-0.236-0.577-0.311-0.886-0.799-1.112c-0.252-0.124-0.444-0.206-0.444-0.659
				c0-0.618,0.444-0.618,0.755-0.639h3.804L268.98,436.461z M268.121,429.767c0-2.946-1.213-2.163-1.213-3.11
				c0-0.577,0.488-0.618,0.636-0.618h2.013c0.148,0,0.637,0.041,0.637,0.618c0,0.947-1.213,0.164-1.213,3.11v5.006h-0.03
				l-0.829-2.081V429.767z"/>
			<path fill="#FFFFFF" d="M275.838,439.139c0,0.763-0.015,0.887,0.504,1.113c0.191,0.082,0.325,0.268,0.325,0.556
				c0,0.598-0.489,0.639-0.548,0.639h-4.188c-0.06,0-0.548-0.041-0.548-0.639c0-0.288,0.133-0.474,0.326-0.556
				c0.518-0.227,0.503-0.351,0.503-1.113v-10.794c0-0.762,0.015-0.886-0.503-1.112c-0.193-0.082-0.326-0.268-0.326-0.556
				c0-0.598,0.488-0.639,0.548-0.639h4.188c0.059,0,0.548,0.041,0.548,0.639c0,0.288-0.134,0.474-0.325,0.556
				c-0.519,0.227-0.504,0.351-0.504,1.112V439.139z"/>
			<path fill="#FFFFFF" d="M280.991,431.25l-1.392,7.045c-0.236,1.256-0.029,1.606,0.475,1.915c0.236,0.145,0.443,0.269,0.443,0.68
				c0,0.577-0.474,0.557-0.77,0.557h-1.702c-0.296,0-0.829-0.021-0.829-0.618c0-0.494,0.252-0.474,0.578-0.7
				c0.311-0.227,0.71-0.7,0.991-2.163l1.776-9.043h0.044L280.991,431.25z M282.575,437.45h-2.161l0.207-1.195h1.806l-1.495-9.104
				l0.193-1.112h3.271l2.22,13.019c0.09,0.577,0.104,0.969,0.519,1.216c0.207,0.123,0.37,0.268,0.37,0.639
				c0,0.556-0.533,0.535-0.814,0.535h-3.686c-0.296,0-0.725-0.041-0.725-0.577c0-0.329,0.088-0.433,0.281-0.576
				c0.385-0.31,0.443-0.453,0.311-1.257L282.575,437.45z"/>
			<path fill="#FFFFFF" d="M292.555,426.924c-0.695,0.35-0.754,0.968-0.754,1.483v10.67c0,0.516,0.059,1.133,0.754,1.483v1.194
				c-3.137-0.391-4.603-3.913-4.603-8.013s1.466-7.622,4.603-8.014V426.924z M293.221,440.561c0.696-0.351,0.756-0.968,0.756-1.483
				v-10.67c0-0.516-0.06-1.134-0.756-1.483v-1.195c3.139,0.392,4.604,3.914,4.604,8.014s-1.465,7.622-4.604,8.013V440.561z"/>
		</g>
	</g>
</g>
<g>
	<g>
		<g>
			<circle fill="#FFFFFF" cx="297.807" cy="419.152" r="5.376"/>
			<circle fill="#FFFFFF" cx="230.024" cy="479.059" r="3.936"/>
			<circle fill="#FFFFFF" cx="279.795" cy="439.917" r="2.048"/>
			<circle fill="#FFFFFF" cx="225.629" cy="442.021" r="0.768"/>
			<circle fill="#FFFFFF" cx="225.402" cy="452.463" r="1.343"/>
			<circle fill="#FFFFFF" cx="247.256" cy="445.631" r="3.887"/>
			<circle fill="#FFFFFF" cx="272.642" cy="428.353" r="0.674"/>
			<circle fill="#FFFFFF" cx="239.827" cy="458.439" r="1.931"/>
			<circle fill="#FFFFFF" cx="177.652" cy="483.602" r="1.672"/>
			<circle fill="#FFFFFF" cx="182.602" cy="492.028" r="0.597"/>
			<circle fill="#FFFFFF" cx="304.354" cy="442.978" r="2.15"/>
			<circle fill="#FFFFFF" cx="317.444" cy="435.958" r="1.194"/>
			<circle fill="#FFFFFF" cx="293.428" cy="489.423" r="1.437"/>
			<g opacity="0.8">
				<circle fill="#FFFFFF" cx="203.142" cy="467.636" r="6.144"/>
				<circle fill="#FFFFFF" cx="255.869" cy="431.706" r="2.56"/>
				<circle fill="#FFFFFF" cx="342.981" cy="446.077" r="2.304"/>
				<circle fill="#FFFFFF" cx="255.295" cy="455.439" r="2.56"/>
				<circle fill="#FFFFFF" cx="317.506" cy="479.274" r="4.115"/>
				<circle fill="#FFFFFF" cx="304.544" cy="463.145" r="3.565"/>
			</g>
			<circle fill="#FFFFFF" cx="223.585" cy="479.988" r="0.958"/>
			<circle fill="#FFFFFF" cx="233.253" cy="489.207" r="2.252"/>
			<circle fill="#FFFFFF" cx="316.332" cy="464.887" r="1.032"/>
			<circle fill="#FFFFFF" cx="226.533" cy="511.868" r="1.905"/>
			<circle fill="#FFFFFF" cx="190.682" cy="505.627" r="2.224"/>
			<circle fill="#FFFFFF" cx="333.745" cy="465.031" r="1.112"/>
			<g opacity="0.5">
				<circle fill="#FFFFFF" cx="232.674" cy="446.025" r="1.28"/>
				<circle fill="#FFFFFF" cx="186.352" cy="490.37" r="0.62"/>
				<circle fill="#FFFFFF" cx="214.39" cy="493.92" r="3.072"/>
				<circle fill="#FFFFFF" cx="220.86" cy="499.831" r="1.387"/>
				<circle fill="#FFFFFF" cx="270.769" cy="480.443" r="2.56"/>
				<g>
					<g>
						<rect x="288.067" y="457.213" fill="#FFFFFF" width="0" height="0"/>
					</g>
					<g>
						<rect x="288.067" y="457.213" fill="#FFFFFF" width="0" height="0"/>
					</g>
					<g>
						<rect x="288.068" y="457.213" fill="#FFFFFF" width="0" height="0"/>
					</g>
					<g>
						<rect x="288.068" y="457.212" fill="#FFFFFF" width="0" height="0"/>
					</g>
					<g>
						<rect x="288.068" y="457.212" fill="#FFFFFF" width="0" height="0"/>
					</g>
					<g>
						<rect x="288.068" y="457.211" fill="#FFFFFF" width="0" height="0"/>
					</g>
					<g>
						<rect x="288.067" y="457.211" fill="#FFFFFF" width="0" height="0"/>
					</g>
					<g>
						<rect x="288.066" y="457.211" fill="#FFFFFF" width="0" height="0"/>
					</g>
					<g>
						<rect x="288.066" y="457.212" fill="#FFFFFF" width="0" height="0"/>
					</g>
					<g>
						<rect x="288.066" y="457.213" fill="#FFFFFF" width="0" height="0"/>
					</g>
					<g>
						<rect x="288.066" y="457.214" fill="#FFFFFF" width="0" height="0"/>
					</g>
					<g>
						<rect x="288.067" y="457.214" fill="#FFFFFF" width="0" height="0"/>
					</g>
					<g>
						<rect x="288.068" y="457.214" fill="#FFFFFF" width="0" height="0"/>
					</g>
					<g>
						<rect x="288.069" y="457.213" fill="#FFFFFF" width="0" height="0"/>
					</g>
					<g>
						<rect x="288.069" y="457.211" fill="#FFFFFF" width="0" height="0"/>
					</g>
					<g>
						<rect x="288.069" y="457.21" fill="#FFFFFF" width="0" height="0"/>
					</g>
					<g>
						<rect x="288.067" y="457.209" fill="#FFFFFF" width="0" height="0"/>
					</g>
					<g>
						<rect x="288.065" y="457.209" fill="#FFFFFF" width="0" height="0"/>
					</g>
					<g>
						<rect x="288.063" y="457.211" fill="#FFFFFF" width="0" height="0"/>
					</g>
					<g>
						<rect x="288.063" y="457.213" fill="#FFFFFF" width="0" height="0"/>
					</g>
					<g>
						<rect x="288.064" y="457.216" fill="#FFFFFF" width="0" height="0"/>
					</g>
					<g>
						<rect x="288.067" y="457.217" fill="#FFFFFF" width="0" height="0"/>
					</g>
					<g>
						<rect x="288.07" y="457.217" fill="#FFFFFF" width="0.001" height="0.001"/>
					</g>
					<g>
						<rect x="288.073" y="457.215" fill="#FFFFFF" width="0.001" height="0.001"/>
					</g>
					<g>
						<rect x="288.074" y="457.21" fill="#FFFFFF" width="0.001" height="0.001"/>
					</g>
					<g>
						<rect x="288.073" y="457.206" fill="#FFFFFF" width="0.001" height="0.001"/>
					</g>
					<g>
						<rect x="288.068" y="457.203" fill="#FFFFFF" width="0.001" height="0.001"/>
					</g>
					<g>
						<rect x="288.062" y="457.202" fill="#FFFFFF" width="0.001" height="0.001"/>
					</g>
					<g>
						<rect x="288.057" y="457.206" fill="#FFFFFF" width="0.001" height="0.001"/>
					</g>
					<g>
						<rect x="288.054" y="457.213" fill="#FFFFFF" width="0.001" height="0.001"/>
					</g>
					<g>
						<rect x="288.056" y="457.221" fill="#FFFFFF" width="0.001" height="0.001"/>
					</g>
					<g>
						<rect x="288.062" y="457.227" fill="#FFFFFF" width="0.001" height="0.001"/>
					</g>
					<g>
						<rect x="288.073" y="457.228" fill="#FFFFFF" width="0.002" height="0.002"/>
					</g>
					<g>
						<rect x="288.083" y="457.223" fill="#FFFFFF" width="0.002" height="0.002"/>
					</g>
					<g>
						<rect x="288.089" y="457.211" fill="#FFFFFF" width="0.002" height="0.002"/>
					</g>
					<g>
						<rect x="288.087" y="457.197" fill="#FFFFFF" width="0.002" height="0.002"/>
					</g>
					<g>
						<rect x="288.076" y="457.185" fill="#FFFFFF" width="0.003" height="0.003"/>
					</g>
					<g>
						<rect x="288.058" y="457.181" fill="#FFFFFF" width="0.003" height="0.003"/>
					</g>
					<g>
						<rect x="288.039" y="457.188" fill="#FFFFFF" width="0.003" height="0.003"/>
					</g>
					<g>
						<rect x="288.027" y="457.206" fill="#FFFFFF" width="0.004" height="0.004"/>
					</g>
					<g>
						<rect x="288.027" y="457.231" fill="#FFFFFF" width="0.004" height="0.004"/>
					</g>
					<g>
						<rect x="288.044" y="457.254" fill="#FFFFFF" width="0.005" height="0.005"/>
					</g>
					<g>
						<rect x="288.073" y="457.263" fill="#FFFFFF" width="0.005" height="0.005"/>
					</g>
					<g>
						<rect x="288.106" y="457.253" fill="#FFFFFF" width="0.006" height="0.006"/>
					</g>
					<g>
						<rect x="288.131" y="457.223" fill="#FFFFFF" width="0.006" height="0.006"/>
					</g>
					<g>
						<rect x="288.133" y="457.179" fill="#FFFFFF" width="0.007" height="0.007"/>
					</g>
					<g>
						<rect x="288.108" y="457.136" fill="#FFFFFF" width="0.008" height="0.008"/>
					</g>
					<g>
						<rect x="288.058" y="457.113" fill="#FFFFFF" width="0.009" height="0.009"/>
					</g>
					<g>
						
							<rect x="287.997" y="457.124" transform="matrix(-0.7623 -0.6472 0.6472 -0.7623 211.6742 991.9988)" fill="#FFFFFF" width="0.01" height="0.01"/>
					</g>
					<g>
						<rect x="287.949" y="457.172" fill="#FFFFFF" width="0.011" height="0.011"/>
					</g>
					<g>
						
							<rect x="287.935" y="457.246" transform="matrix(-0.8715 0.4905 -0.4905 -0.8715 763.1396 714.4997)" fill="#FFFFFF" width="0.012" height="0.012"/>
					</g>
					<g>
						<circle fill="#FFFFFF" cx="287.977" cy="457.329" r="0.01"/>
					</g>
					<g>
						<rect x="288.052" y="457.369" fill="#FFFFFF" width="0.015" height="0.015"/>
					</g>
					<g>
						<circle fill="#FFFFFF" cx="288.165" cy="457.368" r="0.012"/>
					</g>
					<g>
						<circle fill="#FFFFFF" cx="288.257" cy="457.293" r="0.014"/>
					</g>
					<g>
						<circle fill="#FFFFFF" cx="288.292" cy="457.165" r="0.015"/>
					</g>
					<g>
						<circle fill="#FFFFFF" cx="288.243" cy="457.025" r="0.017"/>
					</g>
					<g>
						<circle fill="#FFFFFF" cx="288.109" cy="456.928" r="0.019"/>
					</g>
					<g>
						<circle fill="#FFFFFF" cx="287.925" cy="456.925" r="0.021"/>
					</g>
					<g>
						<circle fill="#FFFFFF" cx="287.753" cy="457.04" r="0.024"/>
					</g>
					<g>
						<circle fill="#FFFFFF" cx="287.669" cy="457.255" r="0.026"/>
					</g>
					<g>
						<circle fill="#FFFFFF" cx="287.729" cy="457.506" r="0.029"/>
					</g>
					<g>
						<circle fill="#FFFFFF" cx="287.945" cy="457.697" r="0.033"/>
					</g>
					<g>
						<circle fill="#FFFFFF" cx="288.264" cy="457.735" r="0.037"/>
					</g>
					<g>
						<circle fill="#FFFFFF" cx="288.582" cy="457.566" r="0.041"/>
					</g>
					<g>
						<circle fill="#FFFFFF" cx="288.765" cy="457.208" r="0.046"/>
					</g>
					<g>
						<circle fill="#FFFFFF" cx="288.704" cy="456.763" r="0.051"/>
					</g>
					<g>
						<circle fill="#FFFFFF" cx="288.364" cy="456.393" r="0.057"/>
					</g>
					<g>
						<circle fill="#FFFFFF" cx="287.816" cy="456.272" r="0.064"/>
					</g>
					<g>
						<circle fill="#FFFFFF" cx="287.237" cy="456.51" r="0.071"/>
					</g>
					<g>
						<circle fill="#FFFFFF" cx="286.858" cy="457.099" r="0.08"/>
					</g>
					<g>
						<circle fill="#FFFFFF" cx="286.886" cy="457.88" r="0.089"/>
					</g>
					<g>
						<circle fill="#FFFFFF" cx="287.411" cy="458.579" r="0.1"/>
					</g>
					<g>
						<circle fill="#FFFFFF" cx="288.338" cy="458.885" r="0.111"/>
					</g>
					<g>
						<circle fill="#FFFFFF" cx="289.384" cy="458.573" r="0.124"/>
					</g>
					<g>
						<circle fill="#FFFFFF" cx="290.143" cy="457.619" r="0.139"/>
					</g>
					<g>
						<circle fill="#FFFFFF" cx="290.231" cy="456.26" r="0.155"/>
					</g>
					<g>
						<circle fill="#FFFFFF" cx="289.443" cy="454.958" r="0.174"/>
					</g>
					<g>
						<circle fill="#FFFFFF" cx="287.889" cy="454.266" r="0.194"/>
					</g>
					<g>
						<circle fill="#FFFFFF" cx="286.023" cy="454.625" r="0.217"/>
					</g>
					<g>
						<circle fill="#FFFFFF" cx="284.541" cy="456.145" r="0.242"/>
					</g>
					<g>
						<circle fill="#FFFFFF" cx="284.152" cy="458.486" r="0.271"/>
					</g>
					<g>
						<circle fill="#FFFFFF" cx="285.291" cy="460.88" r="0.302"/>
					</g>
					<g>
						<circle fill="#FFFFFF" cx="287.863" cy="462.348" r="0.338"/>
					</g>
					<g>
						<circle fill="#FFFFFF" cx="291.159" cy="462.052" r="0.377"/>
					</g>
					<g>
						<circle fill="#FFFFFF" cx="293.993" cy="459.675" r="0.422"/>
					</g>
					<g>
						<circle fill="#FFFFFF" cx="295.073" cy="455.687" r="0.471"/>
					</g>
					<g>
						<circle fill="#FFFFFF" cx="293.517" cy="451.34" r="0.527"/>
					</g>
					<g>
						<circle fill="#FFFFFF" cx="289.315" cy="448.348" r="0.588"/>
					</g>
					<g>
						<circle fill="#FFFFFF" cx="283.552" cy="448.287" r="0.657"/>
					</g>
					<g>
						<circle fill="#FFFFFF" cx="278.228" cy="451.912" r="0.735"/>
					</g>
					<g>
						<circle fill="#FFFFFF" cx="275.661" cy="458.635" r="0.821"/>
					</g>
					<g>
						<circle fill="#FFFFFF" cx="277.6" cy="466.438" r="0.917"/>
					</g>
					<g>
						<circle fill="#FFFFFF" cx="284.361" cy="472.355" r="1.025"/>
					</g>
					<g>
						<circle fill="#FFFFFF" cx="294.338" cy="473.464" r="1.145"/>
					</g>
					<g>
						<circle fill="#FFFFFF" cx="304.195" cy="468.11" r="1.279"/>
					</g>
					<g>
						<circle fill="#FFFFFF" cx="309.813" cy="456.906" r="1.43"/>
					</g>
					<g>
						<circle fill="#FFFFFF" cx="307.812" cy="443.046" r="1.597"/>
					</g>
					<g>
						<circle fill="#FFFFFF" cx="297.126" cy="431.616" r="1.785"/>
					</g>
					<g>
						<circle fill="#FFFFFF" cx="280.029" cy="427.958" r="1.994"/>
					</g>
					<g>
						<circle fill="#FFFFFF" cx="262.017" cy="435.52" r="2.228"/>
					</g>
				</g>
			</g>
		</g>
	</g>
	<g>
		<g>
			<circle fill="#FFFFFF" cx="198.06" cy="372.796" r="6.72"/>
			<circle fill="#FFFFFF" cx="300.981" cy="419.636" r="4.92"/>
			<circle fill="#FFFFFF" cx="227.18" cy="391.036" r="2.56"/>
			<circle fill="#FFFFFF" cx="292.698" cy="373.756" r="0.96"/>
			<circle fill="#FFFFFF" cx="296.786" cy="386.155" r="1.678"/>
			<circle fill="#FFFFFF" cx="268.165" cy="385.975" r="4.859"/>
			<circle fill="#FFFFFF" cx="231.505" cy="374.598" r="0.842"/>
			<circle fill="#FFFFFF" cx="281.726" cy="398.57" r="2.414"/>
			<circle fill="#FFFFFF" cx="365.245" cy="405.926" r="2.09"/>
			<circle fill="#FFFFFF" cx="362.408" cy="417.808" r="0.746"/>
			<circle fill="#FFFFFF" cx="198.942" cy="403.671" r="2.687"/>
			<circle fill="#FFFFFF" cx="180.729" cy="400.063" r="1.493"/>
			<circle fill="#FFFFFF" cx="228.977" cy="455.197" r="1.797"/>
			<g opacity="0.8">
				<circle fill="#FFFFFF" cx="328.94" cy="396.156" r="7.68"/>
				<circle fill="#FFFFFF" cx="252.78" cy="372.476" r="3.2"/>
				<circle fill="#FFFFFF" cx="153.9" cy="421.492" r="2.88"/>
				<circle fill="#FFFFFF" cx="262.14" cy="400.636" r="3.2"/>
				<circle fill="#FFFFFF" cx="196.484" cy="451.864" r="5.144"/>
				<circle fill="#FFFFFF" cx="206.084" cy="427.847" r="4.456"/>
			</g>
			<circle fill="#FFFFFF" cx="309.017" cy="418.394" r="1.197"/>
			<circle fill="#FFFFFF" cx="300.829" cy="432.947" r="2.815"/>
			<circle fill="#FFFFFF" cx="192.63" cy="434.237" r="1.29"/>
			<circle fill="#FFFFFF" cx="317.144" cy="457.579" r="2.382"/>
			<circle fill="#FFFFFF" cx="357.72" cy="437.017" r="2.78"/>
			<circle fill="#FFFFFF" cx="171.868" cy="440.774" r="1.39"/>
			<g opacity="0.5">
				<circle fill="#FFFFFF" cx="285.74" cy="381.116" r="1.6"/>
				<circle fill="#FFFFFF" cx="357.319" cy="417.197" r="0.775"/>
				<circle fill="#FFFFFF" cx="325.1" cy="431.687" r="3.84"/>
				<circle fill="#FFFFFF" cx="319.526" cy="441.118" r="1.734"/>
				<circle fill="#FFFFFF" cx="252.78" cy="436.182" r="3.2"/>
				<g>
					<g>
						<rect x="223.613" y="414.734" fill="#FFFFFF" width="0" height="0"/>
					</g>
					<g>
						<rect x="223.613" y="414.734" fill="#FFFFFF" width="0" height="0"/>
					</g>
					<g>
						<rect x="223.612" y="414.734" fill="#FFFFFF" width="0" height="0"/>
					</g>
					<g>
						<rect x="223.612" y="414.734" fill="#FFFFFF" width="0" height="0"/>
					</g>
					<g>
						<rect x="223.612" y="414.733" fill="#FFFFFF" width="0" height="0"/>
					</g>
					<g>
						<rect x="223.612" y="414.733" fill="#FFFFFF" width="0" height="0"/>
					</g>
					<g>
						<rect x="223.613" y="414.732" fill="#FFFFFF" width="0" height="0"/>
					</g>
					<g>
						<rect x="223.613" y="414.732" fill="#FFFFFF" width="0" height="0"/>
					</g>
					<g>
						<rect x="223.614" y="414.733" fill="#FFFFFF" width="0" height="0"/>
					</g>
					<g>
						<rect x="223.614" y="414.734" fill="#FFFFFF" width="0" height="0"/>
					</g>
					<g>
						<rect x="223.614" y="414.735" fill="#FFFFFF" width="0" height="0"/>
					</g>
					<g>
						<rect x="223.613" y="414.736" fill="#FFFFFF" width="0" height="0"/>
					</g>
					<g>
						<rect x="223.612" y="414.736" fill="#FFFFFF" width="0" height="0"/>
					</g>
					<g>
						<rect x="223.61" y="414.735" fill="#FFFFFF" width="0" height="0"/>
					</g>
					<g>
						<rect x="223.61" y="414.733" fill="#FFFFFF" width="0" height="0"/>
					</g>
					<g>
						<rect x="223.61" y="414.731" fill="#FFFFFF" width="0" height="0"/>
					</g>
					<g>
						<rect x="223.612" y="414.73" fill="#FFFFFF" width="0" height="0"/>
					</g>
					<g>
						<rect x="223.614" y="414.729" fill="#FFFFFF" width="0" height="0"/>
					</g>
					<g>
						<rect x="223.616" y="414.731" fill="#FFFFFF" width="0" height="0"/>
					</g>
					<g>
						<rect x="223.618" y="414.733" fill="#FFFFFF" width="0" height="0"/>
					</g>
					<g>
						<rect x="223.617" y="414.737" fill="#FFFFFF" width="0.001" height="0.001"/>
					</g>
					<g>
						<rect x="223.615" y="414.74" fill="#FFFFFF" width="0.001" height="0.001"/>
					</g>
					<g>
						<rect x="223.61" y="414.74" fill="#FFFFFF" width="0.001" height="0.001"/>
					</g>
					<g>
						<rect x="223.606" y="414.739" fill="#FFFFFF" width="0.001" height="0.001"/>
					</g>
					<g>
						<rect x="223.603" y="414.734" fill="#FFFFFF" width="0.001" height="0.001"/>
					</g>
					<g>
						<rect x="223.603" y="414.728" fill="#FFFFFF" width="0.001" height="0.001"/>
					</g>
					<g>
						<rect x="223.607" y="414.723" fill="#FFFFFF" width="0.001" height="0.001"/>
					</g>
					<g>
						<rect x="223.614" y="414.72" fill="#FFFFFF" width="0.001" height="0.001"/>
					</g>
					<g>
						<rect x="223.622" y="414.723" fill="#FFFFFF" width="0.001" height="0.001"/>
					</g>
					<g>
						<rect x="223.628" y="414.73" fill="#FFFFFF" width="0.001" height="0.001"/>
					</g>
					<g>
						<rect x="223.628" y="414.74" fill="#FFFFFF" width="0.002" height="0.002"/>
					</g>
					<g>
						<rect x="223.622" y="414.75" fill="#FFFFFF" width="0.002" height="0.002"/>
					</g>
					<g>
						<rect x="223.61" y="414.755" fill="#FFFFFF" width="0.002" height="0.002"/>
					</g>
					<g>
						<rect x="223.596" y="414.752" fill="#FFFFFF" width="0.002" height="0.002"/>
					</g>
					<g>
						<rect x="223.585" y="414.741" fill="#FFFFFF" width="0.003" height="0.003"/>
					</g>
					<g>
						<rect x="223.582" y="414.723" fill="#FFFFFF" width="0.003" height="0.003"/>
					</g>
					<g>
						<rect x="223.59" y="414.704" fill="#FFFFFF" width="0.003" height="0.003"/>
					</g>
					<g>
						<rect x="223.609" y="414.693" fill="#FFFFFF" width="0.004" height="0.004"/>
					</g>
					<g>
						<rect x="223.634" y="414.695" fill="#FFFFFF" width="0.004" height="0.004"/>
					</g>
					<g>
						<rect x="223.655" y="414.712" fill="#FFFFFF" width="0.005" height="0.005"/>
					</g>
					<g>
						<rect x="223.663" y="414.742" fill="#FFFFFF" width="0.005" height="0.005"/>
					</g>
					<g>
						<rect x="223.651" y="414.775" fill="#FFFFFF" width="0.006" height="0.006"/>
					</g>
					<g>
						<rect x="223.619" y="414.798" fill="#FFFFFF" width="0.006" height="0.006"/>
					</g>
					<g>
						<rect x="223.575" y="414.798" fill="#FFFFFF" width="0.007" height="0.007"/>
					</g>
					<g>
						<rect x="223.534" y="414.77" fill="#FFFFFF" width="0.008" height="0.008"/>
					</g>
					<g>
						<rect x="223.514" y="414.719" fill="#FFFFFF" width="0.009" height="0.009"/>
					</g>
					<g>
						
							<rect x="223.528" y="414.659" transform="matrix(-0.6024 -0.7982 0.7982 -0.6024 27.1814 842.8685)" fill="#FFFFFF" width="0.01" height="0.01"/>
					</g>
					<g>
						<rect x="223.579" y="414.613" fill="#FFFFFF" width="0.011" height="0.011"/>
					</g>
					<g>
						
							<rect x="223.654" y="414.604" transform="matrix(0.5397 -0.8418 0.8418 0.5397 -246.0899 379.1073)" fill="#FFFFFF" width="0.012" height="0.012"/>
					</g>
					<g>
						
							<rect x="223.728" y="414.644" transform="matrix(0.924 -0.3824 0.3824 0.924 -141.5497 117.061)" fill="#FFFFFF" width="0.014" height="0.014"/>
					</g>
					<g>
						<circle fill="#FFFFFF" cx="223.778" cy="414.735" r="0.011"/>
					</g>
					<g>
						<circle fill="#FFFFFF" cx="223.763" cy="414.841" r="0.012"/>
					</g>
					<g>
						<circle fill="#FFFFFF" cx="223.682" cy="414.928" r="0.014"/>
					</g>
					<g>
						<circle fill="#FFFFFF" cx="223.553" cy="414.956" r="0.015"/>
					</g>
					<g>
						<circle fill="#FFFFFF" cx="223.416" cy="414.899" r="0.017"/>
					</g>
					<g>
						<circle fill="#FFFFFF" cx="223.326" cy="414.759" r="0.019"/>
					</g>
					<g>
						<circle fill="#FFFFFF" cx="223.334" cy="414.574" r="0.021"/>
					</g>
					<g>
						<circle fill="#FFFFFF" cx="223.459" cy="414.41" r="0.024"/>
					</g>
					<g>
						<circle fill="#FFFFFF" cx="223.678" cy="414.338" r="0.026"/>
					</g>
					<g>
						<circle fill="#FFFFFF" cx="223.925" cy="414.413" r="0.029"/>
					</g>
					<g>
						<circle fill="#FFFFFF" cx="224.104" cy="414.639" r="0.033"/>
					</g>
					<g>
						<circle fill="#FFFFFF" cx="224.124" cy="414.961" r="0.037"/>
					</g>
					<g>
						<circle fill="#FFFFFF" cx="223.936" cy="415.268" r="0.041"/>
					</g>
					<g>
						<circle fill="#FFFFFF" cx="223.568" cy="415.43" r="0.046"/>
					</g>
					<g>
						<circle fill="#FFFFFF" cx="223.127" cy="415.344" r="0.051"/>
					</g>
					<g>
						<circle fill="#FFFFFF" cx="222.777" cy="414.983" r="0.057"/>
					</g>
					<g>
						<circle fill="#FFFFFF" cx="222.687" cy="414.429" r="0.064"/>
					</g>
					<g>
						<circle fill="#FFFFFF" cx="222.959" cy="413.863" r="0.072"/>
					</g>
					<g>
						<circle fill="#FFFFFF" cx="223.569" cy="413.518" r="0.08"/>
					</g>
					<g>
						<circle fill="#FFFFFF" cx="224.349" cy="413.591" r="0.089"/>
					</g>
					<g>
						<circle fill="#FFFFFF" cx="225.017" cy="414.156" r="0.1"/>
					</g>
					<g>
						<circle fill="#FFFFFF" cx="225.269" cy="415.101" r="0.112"/>
					</g>
					<g>
						<circle fill="#FFFFFF" cx="224.897" cy="416.128" r="0.125"/>
					</g>
					<g>
						<circle fill="#FFFFFF" cx="223.9" cy="416.832" r="0.139"/>
					</g>
					<g>
						<circle fill="#FFFFFF" cx="222.536" cy="416.841" r="0.156"/>
					</g>
					<g>
						<circle fill="#FFFFFF" cx="221.28" cy="415.979" r="0.174"/>
					</g>
					<g>
						<circle fill="#FFFFFF" cx="220.678" cy="414.386" r="0.194"/>
					</g>
					<g>
						<circle fill="#FFFFFF" cx="221.144" cy="412.541" r="0.217"/>
					</g>
					<g>
						<circle fill="#FFFFFF" cx="222.749" cy="411.147" r="0.242"/>
					</g>
					<g>
						<circle fill="#FFFFFF" cx="225.111" cy="410.894" r="0.271"/>
					</g>
					<g>
						<circle fill="#FFFFFF" cx="227.438" cy="412.169" r="0.303"/>
					</g>
					<g>
						<circle fill="#FFFFFF" cx="228.758" cy="414.825" r="0.338"/>
					</g>
					<g>
						<circle fill="#FFFFFF" cx="228.272" cy="418.103" r="0.378"/>
					</g>
					<g>
						<circle fill="#FFFFFF" cx="225.734" cy="420.798" r="0.422"/>
					</g>
					<g>
						<circle fill="#FFFFFF" cx="221.685" cy="421.649" r="0.472"/>
					</g>
					<g>
						<circle fill="#FFFFFF" cx="217.43" cy="419.844" r="0.527"/>
					</g>
					<g>
						<circle fill="#FFFFFF" cx="214.681" cy="415.471" r="0.589"/>
					</g>
					<g>
						<circle fill="#FFFFFF" cx="214.952" cy="409.706" r="0.658"/>
					</g>
					<g>
						<circle fill="#FFFFFF" cx="218.881" cy="404.594" r="0.735"/>
					</g>
					<g>
						<circle fill="#FFFFFF" cx="225.749" cy="402.415" r="0.822"/>
					</g>
					<g>
						<circle fill="#FFFFFF" cx="233.437" cy="404.802" r="0.918"/>
					</g>
					<g>
						<circle fill="#FFFFFF" cx="238.963" cy="411.9" r="1.026"/>
					</g>
					<g>
						<circle fill="#FFFFFF" cx="239.497" cy="421.937" r="1.146"/>
					</g>
					<g>
						<circle fill="#FFFFFF" cx="233.577" cy="431.481" r="1.281"/>
					</g>
					<g>
						<circle fill="#FFFFFF" cx="222.056" cy="436.453" r="1.431"/>
					</g>
					<g>
						<circle fill="#FFFFFF" cx="208.317" cy="433.654" r="1.599"/>
					</g>
					<g>
						<circle fill="#FFFFFF" cx="197.506" cy="422.316" r="1.787"/>
					</g>
					<g>
						<circle fill="#FFFFFF" cx="194.833" cy="405.016" r="1.997"/>
					</g>
					<g>
						<circle fill="#FFFFFF" cx="203.429" cy="387.447" r="2.231"/>
					</g>
					<g>
						<circle fill="#FFFFFF" cx="222.529" cy="376.826" r="2.493"/>
					</g>
					<g>
						<circle fill="#FFFFFF" cx="246.825" cy="379.283" r="2.785"/>
					</g>
				</g>
			</g>
		</g>
	</g>
	<g>
		<g>
			<circle fill="#FFFFFF" cx="300.354" cy="280.93" r="8.4"/>
			<circle fill="#FFFFFF" cx="194.443" cy="374.535" r="6.149"/>
			<circle fill="#FFFFFF" cx="272.211" cy="313.376" r="3.2"/>
			<circle fill="#FFFFFF" cx="187.577" cy="316.664" r="1.2"/>
			<circle fill="#FFFFFF" cx="187.221" cy="332.98" r="2.098"/>
			<circle fill="#FFFFFF" cx="221.369" cy="322.304" r="6.073"/>
			<circle fill="#FFFFFF" cx="261.034" cy="295.307" r="1.053"/>
			<circle fill="#FFFFFF" cx="209.761" cy="342.317" r="3.017"/>
			<circle fill="#FFFFFF" cx="112.613" cy="381.633" r="2.612"/>
			<circle fill="#FFFFFF" cx="120.346" cy="394.8" r="0.933"/>
			<circle fill="#FFFFFF" cx="310.584" cy="318.159" r="3.359"/>
			<circle fill="#FFFFFF" cx="331.037" cy="307.19" r="1.866"/>
			<circle fill="#FFFFFF" cx="293.512" cy="390.73" r="2.246"/>
			<g opacity="0.8">
				<circle fill="#FFFFFF" cx="152.44" cy="356.686" r="9.6"/>
				<circle fill="#FFFFFF" cx="234.826" cy="300.546" r="4"/>
				<circle fill="#FFFFFF" cx="370.939" cy="323.001" r="3.6"/>
				<circle fill="#FFFFFF" cx="233.93" cy="337.628" r="4"/>
				<circle fill="#FFFFFF" cx="331.135" cy="374.871" r="6.43"/>
				<circle fill="#FFFFFF" cx="310.882" cy="349.67" r="5.57"/>
			</g>
			<circle fill="#FFFFFF" cx="184.383" cy="375.988" r="1.496"/>
			<circle fill="#FFFFFF" cx="199.49" cy="390.392" r="3.519"/>
			<circle fill="#FFFFFF" cx="329.3" cy="352.391" r="1.612"/>
			<circle fill="#FFFFFF" cx="188.988" cy="425.799" r="2.977"/>
			<circle fill="#FFFFFF" cx="132.971" cy="416.048" r="3.474"/>
			<circle fill="#FFFFFF" cx="356.508" cy="352.617" r="1.737"/>
			<g opacity="0.5">
				<circle fill="#FFFFFF" cx="198.584" cy="322.92" r="2"/>
				<circle fill="#FFFFFF" cx="126.207" cy="392.209" r="0.969"/>
				<circle fill="#FFFFFF" cx="170.016" cy="397.756" r="4.8"/>
				<circle fill="#FFFFFF" cx="180.125" cy="406.992" r="2.167"/>
				<circle fill="#FFFFFF" cx="258.108" cy="376.698" r="4"/>
				<g>
					<g>
						<rect x="285.136" y="340.4" fill="#FFFFFF" width="0" height="0"/>
					</g>
					<g>
						<rect x="285.136" y="340.4" fill="#FFFFFF" width="0" height="0"/>
					</g>
					<g>
						<rect x="285.137" y="340.4" fill="#FFFFFF" width="0" height="0"/>
					</g>
					<g>
						<rect x="285.137" y="340.4" fill="#FFFFFF" width="0" height="0"/>
					</g>
					<g>
						<rect x="285.137" y="340.399" fill="#FFFFFF" width="0" height="0"/>
					</g>
					<g>
						<rect x="285.136" y="340.398" fill="#FFFFFF" width="0" height="0"/>
					</g>
					<g>
						<rect x="285.136" y="340.398" fill="#FFFFFF" width="0" height="0"/>
					</g>
					<g>
						<rect x="285.135" y="340.398" fill="#FFFFFF" width="0" height="0"/>
					</g>
					<g>
						<rect x="285.134" y="340.399" fill="#FFFFFF" width="0" height="0"/>
					</g>
					<g>
						<rect x="285.134" y="340.401" fill="#FFFFFF" width="0" height="0"/>
					</g>
					<g>
						<rect x="285.135" y="340.402" fill="#FFFFFF" width="0" height="0"/>
					</g>
					<g>
						<rect x="285.136" y="340.402" fill="#FFFFFF" width="0" height="0"/>
					</g>
					<g>
						<rect x="285.138" y="340.402" fill="#FFFFFF" width="0" height="0"/>
					</g>
					<g>
						<rect x="285.139" y="340.4" fill="#FFFFFF" width="0" height="0"/>
					</g>
					<g>
						<rect x="285.139" y="340.398" fill="#FFFFFF" width="0" height="0"/>
					</g>
					<g>
						<rect x="285.138" y="340.396" fill="#FFFFFF" width="0" height="0"/>
					</g>
					<g>
						<rect x="285.136" y="340.395" fill="#FFFFFF" width="0" height="0"/>
					</g>
					<g>
						<rect x="285.133" y="340.395" fill="#FFFFFF" width="0" height="0"/>
					</g>
					<g>
						<rect x="285.13" y="340.398" fill="#FFFFFF" width="0.001" height="0.001"/>
					</g>
					<g>
						<rect x="285.129" y="340.401" fill="#FFFFFF" width="0.001" height="0.001"/>
					</g>
					<g>
						<rect x="285.131" y="340.405" fill="#FFFFFF" width="0.001" height="0.001"/>
					</g>
					<g>
						<rect x="285.135" y="340.408" fill="#FFFFFF" width="0.001" height="0.001"/>
					</g>
					<g>
						<rect x="285.14" y="340.407" fill="#FFFFFF" width="0.001" height="0.001"/>
					</g>
					<g>
						<rect x="285.145" y="340.403" fill="#FFFFFF" width="0.001" height="0.001"/>
					</g>
					<g>
						<rect x="285.147" y="340.397" fill="#FFFFFF" width="0.001" height="0.001"/>
					</g>
					<g>
						<rect x="285.144" y="340.39" fill="#FFFFFF" width="0.001" height="0.001"/>
					</g>
					<g>
						<rect x="285.138" y="340.385" fill="#FFFFFF" width="0.001" height="0.001"/>
					</g>
					<g>
						<rect x="285.128" y="340.384" fill="#FFFFFF" width="0.001" height="0.001"/>
					</g>
					<g>
						<rect x="285.119" y="340.39" fill="#FFFFFF" width="0.002" height="0.002"/>
					</g>
					<g>
						<rect x="285.115" y="340.401" fill="#FFFFFF" width="0.002" height="0.002"/>
					</g>
					<g>
						<rect x="285.118" y="340.413" fill="#FFFFFF" width="0.002" height="0.002"/>
					</g>
					<g>
						<rect x="285.129" y="340.423" fill="#FFFFFF" width="0.002" height="0.002"/>
					</g>
					<g>
						<rect x="285.144" y="340.425" fill="#FFFFFF" width="0.003" height="0.003"/>
					</g>
					<g>
						<rect x="285.16" y="340.416" fill="#FFFFFF" width="0.003" height="0.003"/>
					</g>
					<g>
						<rect x="285.169" y="340.398" fill="#FFFFFF" width="0.003" height="0.003"/>
					</g>
					<g>
						<rect x="285.166" y="340.376" fill="#FFFFFF" width="0.004" height="0.004"/>
					</g>
					<g>
						<rect x="285.149" y="340.357" fill="#FFFFFF" width="0.004" height="0.004"/>
					</g>
					<g>
						<rect x="285.122" y="340.35" fill="#FFFFFF" width="0.005" height="0.005"/>
					</g>
					<g>
						<rect x="285.092" y="340.362" fill="#FFFFFF" width="0.005" height="0.005"/>
					</g>
					<g>
						<rect x="285.073" y="340.391" fill="#FFFFFF" width="0.006" height="0.006"/>
					</g>
					<g>
						<rect x="285.073" y="340.43" fill="#FFFFFF" width="0.006" height="0.006"/>
					</g>
					<g>
						<rect x="285.099" y="340.464" fill="#FFFFFF" width="0.007" height="0.007"/>
					</g>
					<g>
						<rect x="285.145" y="340.48" fill="#FFFFFF" width="0.008" height="0.008"/>
					</g>
					<g>
						
							<rect x="285.197" y="340.464" transform="matrix(0.8232 0.5678 -0.5678 0.8232 243.7457 -101.7307)" fill="#FFFFFF" width="0.009" height="0.009"/>
					</g>
					<g>
						<rect x="285.235" y="340.416" fill="#FFFFFF" width="0.01" height="0.01"/>
					</g>
					<g>
						
							<rect x="285.239" y="340.347" transform="matrix(0.8181 -0.5751 0.5751 0.8181 -143.8505 225.9769)" fill="#FFFFFF" width="0.011" height="0.011"/>
					</g>
					<g>
						<rect x="285.2" y="340.281" fill="#FFFFFF" width="0.012" height="0.012"/>
					</g>
					<g>
						<rect x="285.121" y="340.245" fill="#FFFFFF" width="0.014" height="0.014"/>
					</g>
					<g>
						<circle fill="#FFFFFF" cx="285.035" cy="340.269" r="0.011"/>
					</g>
					<g>
						<circle fill="#FFFFFF" cx="284.96" cy="340.345" r="0.012"/>
					</g>
					<g>
						<circle fill="#FFFFFF" cx="284.939" cy="340.462" r="0.014"/>
					</g>
					<g>
						<circle fill="#FFFFFF" cx="284.995" cy="340.582" r="0.015"/>
					</g>
					<g>
						<circle fill="#FFFFFF" cx="285.124" cy="340.657" r="0.017"/>
					</g>
					<g>
						<circle fill="#FFFFFF" cx="285.289" cy="340.643" r="0.019"/>
					</g>
					<g>
						<circle fill="#FFFFFF" cx="285.432" cy="340.525" r="0.021"/>
					</g>
					<g>
						<circle fill="#FFFFFF" cx="285.488" cy="340.326" r="0.024"/>
					</g>
					<g>
						<circle fill="#FFFFFF" cx="285.411" cy="340.108" r="0.026"/>
					</g>
					<g>
						<circle fill="#FFFFFF" cx="285.202" cy="339.956" r="0.029"/>
					</g>
					<g>
						<circle fill="#FFFFFF" cx="284.913" cy="339.951" r="0.033"/>
					</g>
					<g>
						<circle fill="#FFFFFF" cx="284.645" cy="340.13" r="0.037"/>
					</g>
					<g>
						<circle fill="#FFFFFF" cx="284.514" cy="340.466" r="0.041"/>
					</g>
					<g>
						<circle fill="#FFFFFF" cx="284.608" cy="340.858" r="0.046"/>
					</g>
					<g>
						<circle fill="#FFFFFF" cx="284.945" cy="341.157" r="0.051"/>
					</g>
					<g>
						<circle fill="#FFFFFF" cx="285.444" cy="341.216" r="0.057"/>
					</g>
					<g>
						<circle fill="#FFFFFF" cx="285.94" cy="340.952" r="0.064"/>
					</g>
					<g>
						<circle fill="#FFFFFF" cx="286.226" cy="340.393" r="0.072"/>
					</g>
					<g>
						<circle fill="#FFFFFF" cx="286.131" cy="339.697" r="0.08"/>
					</g>
					<g>
						<circle fill="#FFFFFF" cx="285.6" cy="339.121" r="0.089"/>
					</g>
					<g>
						<circle fill="#FFFFFF" cx="284.744" cy="338.931" r="0.1"/>
					</g>
					<g>
						<circle fill="#FFFFFF" cx="283.839" cy="339.303" r="0.112"/>
					</g>
					<g>
						<circle fill="#FFFFFF" cx="283.246" cy="340.222" r="0.125"/>
					</g>
					<g>
						<circle fill="#FFFFFF" cx="283.29" cy="341.444" r="0.139"/>
					</g>
					<g>
						<circle fill="#FFFFFF" cx="284.11" cy="342.536" r="0.156"/>
					</g>
					<g>
						<circle fill="#FFFFFF" cx="285.559" cy="343.013" r="0.174"/>
					</g>
					<g>
						<circle fill="#FFFFFF" cx="287.193" cy="342.526" r="0.194"/>
					</g>
					<g>
						<circle fill="#FFFFFF" cx="288.38" cy="341.036" r="0.217"/>
					</g>
					<g>
						<circle fill="#FFFFFF" cx="288.517" cy="338.912" r="0.243"/>
					</g>
					<g>
						<circle fill="#FFFFFF" cx="287.286" cy="336.877" r="0.271"/>
					</g>
					<g>
						<circle fill="#FFFFFF" cx="284.858" cy="335.797" r="0.303"/>
					</g>
					<g>
						<circle fill="#FFFFFF" cx="281.942" cy="336.357" r="0.339"/>
					</g>
					<g>
						<circle fill="#FFFFFF" cx="279.626" cy="338.732" r="0.378"/>
					</g>
					<g>
						<circle fill="#FFFFFF" cx="279.019" cy="342.389" r="0.423"/>
					</g>
					<g>
						<circle fill="#FFFFFF" cx="280.797" cy="346.13" r="0.472"/>
					</g>
					<g>
						<circle fill="#FFFFFF" cx="284.817" cy="348.424" r="0.528"/>
					</g>
					<g>
						<circle fill="#FFFFFF" cx="289.967" cy="347.962" r="0.59"/>
					</g>
					<g>
						<circle fill="#FFFFFF" cx="294.394" cy="344.248" r="0.659"/>
					</g>
					<g>
						<circle fill="#FFFFFF" cx="296.083" cy="338.017" r="0.736"/>
					</g>
					<g>
						<circle fill="#FFFFFF" cx="293.652" cy="331.225" r="0.823"/>
					</g>
					<g>
						<circle fill="#FFFFFF" cx="287.086" cy="326.549" r="0.919"/>
					</g>
					<g>
						<circle fill="#FFFFFF" cx="278.08" cy="326.455" r="1.027"/>
					</g>
					<g>
						<circle fill="#FFFFFF" cx="269.762" cy="332.118" r="1.148"/>
					</g>
					<g>
						<circle fill="#FFFFFF" cx="265.752" cy="342.623" r="1.282"/>
					</g>
					<g>
						<circle fill="#FFFFFF" cx="268.781" cy="354.816" r="1.433"/>
					</g>
					<g>
						<circle fill="#FFFFFF" cx="279.345" cy="364.061" r="1.601"/>
					</g>
					<g>
						<circle fill="#FFFFFF" cx="294.935" cy="365.793" r="1.789"/>
					</g>
					<g>
						<circle fill="#FFFFFF" cx="310.335" cy="357.427" r="1.999"/>
					</g>
					<g>
						<circle fill="#FFFFFF" cx="319.114" cy="339.922" r="2.234"/>
					</g>
					<g>
						<circle fill="#FFFFFF" cx="315.987" cy="318.266" r="2.496"/>
					</g>
					<g>
						<circle fill="#FFFFFF" cx="299.29" cy="300.405" r="2.789"/>
					</g>
					<g>
						<circle fill="#FFFFFF" cx="272.577" cy="294.69" r="3.116"/>
					</g>
					<g>
						<circle fill="#FFFFFF" cx="244.433" cy="306.506" r="3.482"/>
					</g>
				</g>
			</g>
		</g>
	</g>
	<g>
		<g>
			<circle fill="#FFFFFF" cx="144.5" cy="208.5" r="10.5"/>
			<circle fill="#FFFFFF" cx="305.313" cy="281.687" r="7.687"/>
			<circle fill="#FFFFFF" cx="190" cy="237" r="4"/>
			<circle fill="#FFFFFF" cx="292.372" cy="209.999" r="1.499"/>
			<circle fill="#FFFFFF" cx="298.76" cy="229.373" r="2.622"/>
			<circle fill="#FFFFFF" cx="254.039" cy="229.091" r="7.591"/>
			<circle fill="#FFFFFF" cx="196.757" cy="211.316" r="1.316"/>
			<circle fill="#FFFFFF" cx="275.228" cy="248.772" r="3.772"/>
			<circle fill="#FFFFFF" cx="405.726" cy="260.266" r="3.266"/>
			<circle fill="#FFFFFF" cx="401.294" cy="278.831" r="1.166"/>
			<circle fill="#FFFFFF" cx="145.877" cy="256.742" r="4.199"/>
			<circle fill="#FFFFFF" cx="117.42" cy="251.104" r="2.333"/>
			<circle fill="#FFFFFF" cx="192.807" cy="337.252" r="2.807"/>
			<g opacity="0.8">
				<circle fill="#FFFFFF" cx="349" cy="245" r="12"/>
				<circle fill="#FFFFFF" cx="230" cy="208" r="5"/>
				<circle fill="#FFFFFF" cx="75.5" cy="284.587" r="4.5"/>
				<circle fill="#FFFFFF" cx="244.624" cy="252" r="5"/>
				<circle fill="#FFFFFF" cx="142.038" cy="332.044" r="8.038"/>
				<circle fill="#FFFFFF" cx="157.038" cy="294.517" r="6.962"/>
			</g>
			<circle fill="#FFFFFF" cx="317.87" cy="279.746" r="1.87"/>
			<circle fill="#FFFFFF" cx="305.076" cy="302.486" r="4.399"/>
			<circle fill="#FFFFFF" cx="136.015" cy="304.502" r="2.015"/>
			<circle fill="#FFFFFF" cx="330.569" cy="340.973" r="3.722"/>
			<circle fill="#FFFFFF" cx="393.968" cy="308.845" r="4.343"/>
			<circle fill="#FFFFFF" cx="103.574" cy="314.715" r="2.172"/>
			<g opacity="0.5">
				<circle fill="#FFFFFF" cx="281.5" cy="221.5" r="2.5"/>
				<circle fill="#FFFFFF" cx="393.341" cy="277.876" r="1.211"/>
				<circle fill="#FFFFFF" cx="343" cy="300.517" r="6"/>
				<circle fill="#FFFFFF" cx="334.291" cy="315.253" r="2.709"/>
				<circle fill="#FFFFFF" cx="230" cy="307.539" r="5"/>
				<g>
					<g>
						<rect x="184.426" y="274.028" fill="#FFFFFF" width="0" height="0"/>
					</g>
					<g>
						<rect x="184.426" y="274.028" fill="#FFFFFF" width="0" height="0"/>
					</g>
					<g>
						<rect x="184.425" y="274.028" fill="#FFFFFF" width="0" height="0"/>
					</g>
					<g>
						<rect x="184.424" y="274.027" fill="#FFFFFF" width="0" height="0"/>
					</g>
					<g>
						<rect x="184.424" y="274.026" fill="#FFFFFF" width="0" height="0"/>
					</g>
					<g>
						<rect x="184.425" y="274.025" fill="#FFFFFF" width="0" height="0"/>
					</g>
					<g>
						<rect x="184.426" y="274.025" fill="#FFFFFF" width="0" height="0"/>
					</g>
					<g>
						<rect x="184.427" y="274.025" fill="#FFFFFF" width="0" height="0"/>
					</g>
					<g>
						<rect x="184.428" y="274.026" fill="#FFFFFF" width="0" height="0"/>
					</g>
					<g>
						<rect x="184.428" y="274.027" fill="#FFFFFF" width="0" height="0"/>
					</g>
					<g>
						<rect x="184.428" y="274.029" fill="#FFFFFF" width="0" height="0"/>
					</g>
					<g>
						<rect x="184.426" y="274.03" fill="#FFFFFF" width="0" height="0"/>
					</g>
					<g>
						<rect x="184.424" y="274.03" fill="#FFFFFF" width="0" height="0"/>
					</g>
					<g>
						<rect x="184.422" y="274.029" fill="#FFFFFF" width="0" height="0"/>
					</g>
					<g>
						<rect x="184.421" y="274.026" fill="#FFFFFF" width="0" height="0"/>
					</g>
					<g>
						<rect x="184.422" y="274.023" fill="#FFFFFF" width="0" height="0"/>
					</g>
					<g>
						<rect x="184.424" y="274.021" fill="#FFFFFF" width="0.001" height="0.001"/>
					</g>
					<g>
						<rect x="184.428" y="274.02" fill="#FFFFFF" width="0.001" height="0.001"/>
					</g>
					<g>
						<rect x="184.432" y="274.022" fill="#FFFFFF" width="0.001" height="0.001"/>
					</g>
					<g>
						<rect x="184.434" y="274.027" fill="#FFFFFF" width="0.001" height="0.001"/>
					</g>
					<g>
						<rect x="184.433" y="274.032" fill="#FFFFFF" width="0.001" height="0.001"/>
					</g>
					<g>
						<rect x="184.429" y="274.036" fill="#FFFFFF" width="0.001" height="0.001"/>
					</g>
					<g>
						<rect x="184.422" y="274.038" fill="#FFFFFF" width="0.001" height="0.001"/>
					</g>
					<g>
						<rect x="184.415" y="274.035" fill="#FFFFFF" width="0.001" height="0.001"/>
					</g>
					<g>
						<rect x="184.411" y="274.028" fill="#FFFFFF" width="0.001" height="0.001"/>
					</g>
					<g>
						<rect x="184.411" y="274.018" fill="#FFFFFF" width="0.001" height="0.001"/>
					</g>
					<g>
						<rect x="184.417" y="274.01" fill="#FFFFFF" width="0.002" height="0.002"/>
					</g>
					<g>
						<rect x="184.428" y="274.006" fill="#FFFFFF" width="0.002" height="0.002"/>
					</g>
					<g>
						<rect x="184.44" y="274.01" fill="#FFFFFF" width="0.002" height="0.002"/>
					</g>
					<g>
						<rect x="184.449" y="274.021" fill="#FFFFFF" width="0.002" height="0.002"/>
					</g>
					<g>
						<rect x="184.45" y="274.037" fill="#FFFFFF" width="0.003" height="0.003"/>
					</g>
					<g>
						<rect x="184.441" y="274.052" fill="#FFFFFF" width="0.003" height="0.003"/>
					</g>
					<g>
						<rect x="184.422" y="274.06" fill="#FFFFFF" width="0.003" height="0.003"/>
					</g>
					<g>
						<rect x="184.4" y="274.056" fill="#FFFFFF" width="0.004" height="0.004"/>
					</g>
					<g>
						<rect x="184.382" y="274.038" fill="#FFFFFF" width="0.004" height="0.004"/>
					</g>
					<g>
						<rect x="184.377" y="274.01" fill="#FFFFFF" width="0.005" height="0.005"/>
					</g>
					<g>
						<rect x="184.39" y="273.981" fill="#FFFFFF" width="0.005" height="0.005"/>
					</g>
					<g>
						<rect x="184.42" y="273.963" fill="#FFFFFF" width="0.006" height="0.006"/>
					</g>
					<g>
						<rect x="184.459" y="273.966" fill="#FFFFFF" width="0.006" height="0.006"/>
					</g>
					<g>
						<rect x="184.492" y="273.994" fill="#FFFFFF" width="0.007" height="0.007"/>
					</g>
					<g>
						<rect x="184.505" y="274.041" fill="#FFFFFF" width="0.008" height="0.008"/>
					</g>
					<g>
						<rect x="184.486" y="274.092" fill="#FFFFFF" width="0.009" height="0.009"/>
					</g>
					<g>
						<rect x="184.436" y="274.127" fill="#FFFFFF" width="0.01" height="0.01"/>
					</g>
					<g>
						
							<rect x="184.367" y="274.127" transform="matrix(-0.6212 0.7837 -0.7837 -0.6212 513.7299 299.9398)" fill="#FFFFFF" width="0.011" height="0.011"/>
					</g>
					<g>
						<rect x="184.303" y="274.084" fill="#FFFFFF" width="0.012" height="0.012"/>
					</g>
					<g>
						<rect x="184.272" y="274.004" fill="#FFFFFF" width="0.014" height="0.014"/>
					</g>
					<g>
						<circle fill="#FFFFFF" cx="184.301" cy="273.918" r="0.011"/>
					</g>
					<g>
						<rect x="184.373" y="273.839" fill="#FFFFFF" width="0.017" height="0.017"/>
					</g>
					<g>
						<circle fill="#FFFFFF" cx="184.499" cy="273.834" r="0.014"/>
					</g>
					<g>
						<circle fill="#FFFFFF" cx="184.617" cy="273.897" r="0.015"/>
					</g>
					<g>
						<circle fill="#FFFFFF" cx="184.684" cy="274.03" r="0.017"/>
					</g>
					<g>
						<circle fill="#FFFFFF" cx="184.661" cy="274.194" r="0.019"/>
					</g>
					<g>
						<circle fill="#FFFFFF" cx="184.534" cy="274.33" r="0.021"/>
					</g>
					<g>
						<circle fill="#FFFFFF" cx="184.332" cy="274.374" r="0.024"/>
					</g>
					<g>
						<circle fill="#FFFFFF" cx="184.118" cy="274.285" r="0.026"/>
					</g>
					<g>
						<circle fill="#FFFFFF" cx="183.979" cy="274.067" r="0.03"/>
					</g>
					<g>
						<circle fill="#FFFFFF" cx="183.99" cy="273.778" r="0.033"/>
					</g>
					<g>
						<circle fill="#FFFFFF" cx="184.185" cy="273.521" r="0.037"/>
					</g>
					<g>
						<circle fill="#FFFFFF" cx="184.528" cy="273.409" r="0.041"/>
					</g>
					<g>
						<circle fill="#FFFFFF" cx="184.914" cy="273.526" r="0.046"/>
					</g>
					<g>
						<circle fill="#FFFFFF" cx="185.194" cy="273.879" r="0.051"/>
					</g>
					<g>
						<circle fill="#FFFFFF" cx="185.224" cy="274.382" r="0.057"/>
					</g>
					<g>
						<circle fill="#FFFFFF" cx="184.931" cy="274.862" r="0.064"/>
					</g>
					<g>
						<circle fill="#FFFFFF" cx="184.356" cy="275.116" r="0.072"/>
					</g>
					<g>
						<circle fill="#FFFFFF" cx="183.666" cy="274.981" r="0.08"/>
					</g>
					<g>
						<circle fill="#FFFFFF" cx="183.121" cy="274.417" r="0.09"/>
					</g>
					<g>
						<circle fill="#FFFFFF" cx="182.98" cy="273.551" r="0.1"/>
					</g>
					<g>
						<circle fill="#FFFFFF" cx="183.404" cy="272.667" r="0.112"/>
					</g>
					<g>
						<circle fill="#FFFFFF" cx="184.357" cy="272.128" r="0.125"/>
					</g>
					<g>
						<circle fill="#FFFFFF" cx="185.576" cy="272.242" r="0.14"/>
					</g>
					<g>
						<circle fill="#FFFFFF" cx="186.62" cy="273.124" r="0.156"/>
					</g>
					<g>
						<circle fill="#FFFFFF" cx="187.014" cy="274.6" r="0.174"/>
					</g>
					<g>
						<circle fill="#FFFFFF" cx="186.433" cy="276.205" r="0.195"/>
					</g>
					<g>
						<circle fill="#FFFFFF" cx="184.875" cy="277.306" r="0.218"/>
					</g>
					<g>
						<circle fill="#FFFFFF" cx="182.744" cy="277.32" r="0.243"/>
					</g>
					<g>
						<circle fill="#FFFFFF" cx="180.781" cy="275.973" r="0.272"/>
					</g>
					<g>
						<circle fill="#FFFFFF" cx="179.841" cy="273.484" r="0.303"/>
					</g>
					<g>
						<circle fill="#FFFFFF" cx="180.569" cy="270.602" r="0.339"/>
					</g>
					<g>
						<circle fill="#FFFFFF" cx="183.076" cy="268.423" r="0.379"/>
					</g>
					<g>
						<circle fill="#FFFFFF" cx="186.767" cy="268.027" r="0.423"/>
					</g>
					<g>
						<circle fill="#FFFFFF" cx="190.403" cy="270.02" r="0.473"/>
					</g>
					<g>
						<circle fill="#FFFFFF" cx="192.465" cy="274.17" r="0.529"/>
					</g>
					<g>
						<circle fill="#FFFFFF" cx="191.706" cy="279.291" r="0.591"/>
					</g>
					<g>
						<circle fill="#FFFFFF" cx="187.74" cy="283.503" r="0.66"/>
					</g>
					<g>
						<circle fill="#FFFFFF" cx="181.414" cy="284.832" r="0.737"/>
					</g>
					<g>
						<circle fill="#FFFFFF" cx="174.765" cy="282.011" r="0.824"/>
					</g>
					<g>
						<circle fill="#FFFFFF" cx="170.469" cy="275.179" r="0.92"/>
					</g>
					<g>
						<circle fill="#FFFFFF" cx="170.893" cy="266.172" r="1.028"/>
					</g>
					<g>
						<circle fill="#FFFFFF" cx="177.033" cy="258.183" r="1.149"/>
					</g>
					<g>
						<circle fill="#FFFFFF" cx="187.763" cy="254.779" r="1.284"/>
					</g>
					<g>
						<circle fill="#FFFFFF" cx="199.777" cy="258.509" r="1.435"/>
					</g>
					<g>
						<circle fill="#FFFFFF" cx="208.41" cy="269.6" r="1.603"/>
					</g>
					<g>
						<circle fill="#FFFFFF" cx="209.244" cy="285.283" r="1.791"/>
					</g>
					<g>
						<circle fill="#FFFFFF" cx="199.996" cy="300.195" r="2.001"/>
					</g>
					<g>
						<circle fill="#FFFFFF" cx="181.993" cy="307.963" r="2.236"/>
					</g>
					<g>
						<circle fill="#FFFFFF" cx="160.526" cy="303.59" r="2.499"/>
					</g>
					<g>
						<circle fill="#FFFFFF" cx="143.634" cy="285.874" r="2.792"/>
					</g>
					<g>
						<circle fill="#FFFFFF" cx="139.458" cy="258.843" r="3.12"/>
					</g>
					<g>
						<circle fill="#FFFFFF" cx="152.889" cy="231.391" r="3.486"/>
					</g>
					<g>
						<circle fill="#FFFFFF" cx="182.733" cy="214.796" r="3.895"/>
					</g>
					<g>
						<circle fill="#FFFFFF" cx="220.695" cy="218.636" r="4.352"/>
					</g>
				</g>
			</g>
		</g>
	</g>
</g>
<g>
	<path fill="#CC3333" d="M399.407,581.717c-0.384,1.812-0.863,3.503-1.427,5.057c-0.156,0.448-0.168,0.466-0.24,0.707l-0.72-0.828
		c0.24-0.397,0.408-0.776,0.72-1.709c0.492-1.449,0.72-2.329,1.044-4.004L399.407,581.717z M397.849,573.502
		c0.743,1.174,1.127,1.863,1.738,3.192l-0.623,0.76c-0.563-1.398-0.96-2.141-1.728-3.279L397.849,573.502z M406.172,577.195
		c0.491,0,0.768-0.018,1.007-0.069c-0.035,0.396-0.048,0.776-0.048,1.467v1.381h0.145c0.348,0,0.563-0.034,0.804-0.104v1.156
		c-0.276-0.069-0.492-0.087-0.804-0.087h-0.145v2.312c0,0.639,0.024,1.226,0.072,1.709h-0.804v-1.087h-2.267v2.985
		c0,1.001-0.24,1.26-1.175,1.26c-0.433,0-0.804-0.018-1.308-0.086c-0.036-0.415-0.084-0.69-0.204-1.088
		c0.588,0.139,1.044,0.19,1.499,0.19c0.396,0,0.456-0.052,0.456-0.414v-2.848h-1.728c-0.455,0-0.852,0.034-1.175,0.104v-1.174
		c0.323,0.069,0.684,0.104,1.175,0.104h1.728v-1.968h-2.435c-0.456,0-0.899,0.035-1.224,0.104v-1.173
		c0.276,0.069,0.72,0.104,1.224,0.104h2.435v-1.847h-1.247c-0.552,0-0.84,0.018-1.116,0.086v-1.018
		c-0.251,0.379-0.479,0.69-0.815,1.069c-0.119-0.293-0.252-0.466-0.539-0.725c0.839-0.88,1.475-1.863,2.026-3.141
		c0.3-0.69,0.492-1.295,0.6-1.829l0.78,0.345c-0.097,0.241-0.097,0.241-0.276,0.776c-0.048,0.121-0.084,0.225-0.156,0.38h1.884
		c0.443,0,0.684-0.018,0.911-0.086l0.468,0.587c-0.048,0.12-0.072,0.138-0.144,0.311c-0.42,0.932-0.852,1.777-1.2,2.312H406.172z
		 M403.737,577.195c0.455-0.69,0.756-1.277,1.139-2.209h-2.59c-0.324,0.707-0.756,1.483-1.199,2.157
		c0.228,0.034,0.6,0.052,1.067,0.052H403.737z M404.133,579.974h2.278v-1.847h-2.278V579.974z M404.133,580.939v1.968h2.278v-1.968
		H404.133z"/>
	<path fill="#CC3333" d="M414.269,573.174c0.852,1.433,1.643,2.382,2.89,3.451c0.899,0.777,1.571,1.243,2.519,1.691
		c-0.216,0.346-0.336,0.587-0.491,1.036c-2.314-1.45-4.138-3.262-5.337-5.315c-0.78,1.328-1.476,2.226-2.435,3.192
		c-0.78,0.794-1.319,1.242-2.507,2.071c-0.108-0.362-0.145-0.432-0.479-0.984c0.923-0.534,1.799-1.208,2.566-1.95
		c0.671-0.673,1.343-1.483,1.823-2.243c0.371-0.587,0.563-0.949,0.875-1.743l0.731,0.501L414.269,573.174z M417.122,582.597
		c0.372,0,0.601-0.018,0.852-0.069c-0.048,0.449-0.06,0.812-0.06,1.329v3.089c0,0.518,0.024,0.967,0.072,1.45h-0.84v-0.812h-6.188
		v0.812h-0.84c0.048-0.501,0.072-0.984,0.072-1.45v-3.106c0-0.482-0.024-0.897-0.061-1.312c0.265,0.052,0.504,0.069,0.864,0.069
		h3.609l1.8-2.571h-4.978c-0.432,0-0.804,0.034-1.128,0.086v-1.121c0.324,0.068,0.624,0.086,1.067,0.086h4.894
		c0.492,0,0.72-0.018,0.936-0.069l0.468,0.673c-0.275,0.346-0.42,0.535-0.443,0.57l-1.644,2.347H417.122z M410.958,586.601h6.188
		v-3.037h-6.188V586.601z M415.096,578.679c-0.647-0.552-1.487-1.139-2.579-1.742l0.372-0.863c1.115,0.604,1.607,0.932,2.603,1.657
		L415.096,578.679z"/>
	<path fill="#CC3333" d="M420.098,578.109c0.324,0.069,0.684,0.087,1.188,0.087h8.264c0.503,0,0.863-0.018,1.187-0.087v1.019
		c-0.312-0.069-0.575-0.086-1.175-0.086h-8.275c-0.588,0-0.876,0.017-1.188,0.086V578.109z M425.711,585.202h3.166
		c0.491,0,0.731-0.017,1.008-0.086v0.983c-0.312-0.068-0.564-0.086-1.032-0.086h-3.142v1.019h3.802c0.552,0,0.863-0.018,1.223-0.104
		v1.035c-0.359-0.069-0.719-0.104-1.223-0.104h-8.191c-0.504,0-0.876,0.034-1.224,0.104v-1.035c0.359,0.086,0.672,0.104,1.224,0.104
		h3.693v-1.019h-2.938c-0.479,0-0.731,0.018-1.043,0.086v-0.983c0.264,0.069,0.527,0.086,1.02,0.086h2.962v-0.983h-2.303
		c-0.491,0-0.803,0.018-1.151,0.069c0.036-0.466,0.036-0.656,0.036-1.398v-1.829c0-0.466-0.012-0.794-0.036-1.19
		c0.24,0.052,0.6,0.069,1.14,0.069h5.493c0.456,0,0.768-0.018,1.115-0.069c-0.024,0.328-0.036,0.655-0.036,1.139v1.898
		c0,0.621,0.012,1.104,0.036,1.381c-0.432-0.052-0.743-0.069-1.151-0.069h-2.446V585.202z M422.532,577.333
		c-0.672,0-0.899,0.018-1.188,0.052c0.036-0.38,0.048-0.707,0.048-1.312v-1.57c0-0.518-0.012-0.846-0.048-1.243
		c0.348,0.053,0.672,0.069,1.188,0.069h5.805c0.528,0,0.828-0.017,1.164-0.069c-0.036,0.38-0.049,0.708-0.049,1.243v1.57
		c0,0.5,0.013,0.863,0.049,1.312c-0.301-0.034-0.504-0.052-1.2-0.052H422.532z M422.076,574.951h6.692v-0.846h-6.692V574.951z
		 M422.076,576.573h6.681v-0.88h-6.681V576.573z M425.015,580.716h-2.734v0.983h2.734V580.716z M425.015,582.441h-2.734v1.001h2.734
		V582.441z M428.589,581.699v-0.983h-2.878v0.983H428.589z M428.589,583.442v-1.001h-2.878v1.001H428.589z"/>
	<path fill="#CC3333" d="M432.837,579.421h-1.188v-1.708h1.188V579.421z M431.649,587.015v-1.709h1.188v1.709H431.649z"/>
	<path fill="#CC3333" d="M435.029,583.273c0.089,0.572,0.158,0.828,0.296,1.144c0.276,0.671,0.69,1.006,1.213,1.006
		c0.976,0,1.616-1.302,1.616-3.253c0-1.932-0.611-3.174-1.548-3.174c-0.482,0-0.916,0.315-1.222,0.906
		c-0.138,0.276-0.207,0.454-0.296,0.888l-1.232-0.236c0.099-1.4,0.108-1.499,0.129-2.051l0.227-4.889
		c0.01-0.355,0.029-1.025,0.039-2.012c0.296,0.04,0.522,0.06,1.045,0.06h2.425c0.681,0,0.927-0.02,1.37-0.158v2.484
		c-0.434-0.118-0.818-0.157-1.36-0.157h-2.316l-0.157,3.449c-0.01,0.158-0.03,0.435-0.06,0.828c0.483-0.828,1.006-1.202,1.686-1.202
		c0.799,0,1.439,0.473,1.922,1.479c0.483,0.946,0.7,2.129,0.7,3.706c0,3.47-1.134,5.619-2.967,5.619
		c-0.976,0-1.705-0.553-2.248-1.716c-0.266-0.571-0.403-1.045-0.62-2.148L435.029,583.273z"/>
	<path fill="#CC3333" d="M442.048,583.273c0.089,0.572,0.158,0.828,0.296,1.144c0.276,0.671,0.69,1.006,1.213,1.006
		c0.976,0,1.616-1.302,1.616-3.253c0-1.932-0.611-3.174-1.548-3.174c-0.482,0-0.916,0.315-1.222,0.906
		c-0.138,0.276-0.207,0.454-0.296,0.888l-1.232-0.236c0.099-1.4,0.108-1.499,0.129-2.051l0.227-4.889
		c0.01-0.355,0.029-1.025,0.039-2.012c0.296,0.04,0.522,0.06,1.045,0.06h2.425c0.681,0,0.927-0.02,1.37-0.158v2.484
		c-0.434-0.118-0.818-0.157-1.36-0.157h-2.316l-0.157,3.449c-0.01,0.158-0.03,0.435-0.06,0.828c0.483-0.828,1.006-1.202,1.686-1.202
		c0.799,0,1.439,0.473,1.922,1.479c0.483,0.946,0.7,2.129,0.7,3.706c0,3.47-1.134,5.619-2.967,5.619
		c-0.976,0-1.705-0.553-2.248-1.716c-0.266-0.571-0.403-1.045-0.62-2.148L442.048,583.273z"/>
	<path fill="#CC3333" d="M448.556,586.073c-0.296-0.592-0.522-1.281-0.651-1.991c-0.256-1.399-0.384-2.938-0.384-4.534
		c0-2.09,0.236-4.259,0.601-5.461c0.533-1.774,1.42-2.74,2.514-2.74c0.838,0,1.558,0.552,2.08,1.597
		c0.296,0.592,0.522,1.281,0.65,1.991c0.257,1.38,0.385,2.957,0.385,4.574c0,2.425-0.267,4.554-0.729,5.835
		c-0.552,1.538-1.37,2.326-2.396,2.326C449.787,587.67,449.078,587.118,448.556,586.073z M451.7,584.556
		c0.443-0.927,0.689-2.761,0.689-5.067c0-2.286-0.246-4.08-0.689-5.047c-0.237-0.532-0.631-0.827-1.075-0.827
		c-0.473,0-0.817,0.315-1.104,1.005c-0.434,1.025-0.65,2.642-0.65,4.791c0,2.069,0.187,3.785,0.502,4.691
		c0.306,0.868,0.72,1.281,1.262,1.281C451.069,585.383,451.453,585.088,451.7,584.556z"/>
	<path fill="#CC3333" d="M454.756,587.354c0.049-0.848,0.068-1.498,0.068-2.562v-6.19c0-1.242-0.02-1.813-0.068-2.562h1.32v1.005
		c0,0.118,0,0.414-0.01,0.729c0.286-1.202,1.016-1.972,1.834-1.972c0.532,0,0.966,0.296,1.271,0.888
		c0.177,0.315,0.256,0.571,0.374,1.183c0.336-0.887,0.522-1.242,0.828-1.558c0.325-0.354,0.661-0.513,1.104-0.513
		c0.631,0,1.144,0.395,1.479,1.124c0.325,0.71,0.463,1.597,0.463,2.997v4.869c0,1.104,0.02,1.755,0.079,2.562h-1.439
		c0.06-0.808,0.079-1.399,0.079-2.562v-4.416c0-1.735-0.306-2.523-0.966-2.523c-0.325,0-0.572,0.178-0.809,0.591
		c-0.345,0.592-0.503,1.223-0.621,2.445v3.903c0,1.084,0.02,1.755,0.069,2.562h-1.42c0.06-0.828,0.079-1.438,0.079-2.562v-4.416
		c0-1.656-0.315-2.484-0.956-2.484c-0.414,0-0.749,0.335-1.016,1.025c-0.217,0.571-0.315,1.025-0.424,1.972v3.903
		c0,1.064,0.021,1.656,0.069,2.562H454.756z"/>
	<path fill="#CC3333" d="M466.141,571.662c-0.049,0.769-0.068,1.399-0.068,2.583v10.547c0,1.045,0.02,1.695,0.068,2.562h-1.429
		c0.049-0.848,0.068-1.419,0.068-2.562v-10.567c0-1.183-0.02-1.813-0.068-2.562H466.141z"/>
</g>
<g>
</g>
<g>
</g>
<g>
</g>
<g>
</g>
<g>
</g>
<g>
</g>
<g>
</g>
<g>
</g>
<g>
</g>
<g>
</g>
<g>
</g>
<g>
</g>
<g>
</g>
<g>
</g>
<g>
</g>
</svg>
